<?xml version="1.0" encoding="UTF-8" standalone="no"?>
<!-- Created with Inkscape (http://www.inkscape.org/) -->
<svg
   xmlns:svg="http://www.w3.org/2000/svg"
   xmlns="http://www.w3.org/2000/svg"
   version="1.0"
   width="600"
   height="375"
   id="flag_of_ajaria">
  <desc
     id="desc2985">Flag of Ajaria</desc>
  <defs
     id="defs2987">
    <path
       d="M -6.9411934,-20 C -2.3323051,-19.413654 2.3323051,-19.413654 6.9411934,-20 C 5.9309209,-15.053742 5.2821411,-10.040488 5,-5 C 10.040488,-5.2821411 15.053742,-5.9309209 20,-6.9411934 C 19.413654,-2.3323051 19.413654,2.3323051 20,6.9411934 C 15.053742,5.9309209 10.040488,5.2821411 5,5 C 5.2821411,10.040488 5.9309209,15.053742 6.9411934,20 C 2.3323051,19.413654 -2.3323051,19.413654 -6.9411934,20 C -5.9309209,15.053742 -5.2821411,10.040488 -5,5 C -10.040488,5.2821411 -15.053742,5.9309209 -20,6.9411934 C -19.413654,2.3323051 -19.413654,-2.3323051 -20,-6.9411934 C -15.053742,-5.9309209 -10.040488,-5.2821411 -5,-5 C -5.2821411,-10.040488 -5.9309209,-15.053742 -6.9411934,-20 L -6.9411934,-20 z "
       style="fill:#e8112d"
       id="cross" />
  </defs>
  <g
     id="g2155">
    <g
       id="g2148">
      <rect
         width="599.99994"
         height="375.00015"
         x="0"
         y="0"
         style="fill:white;fill-opacity:1"
         id="rect2992" />
      <rect
         width="599.99615"
         height="53.571449"
         x="0.0037995158"
         y="0"
         style="fill:#f20300;fill-opacity:1"
         id="rect2994" />
      <rect
         width="599.99615"
         height="53.571449"
         x="0.0037995158"
         y="107.1429"
         style="fill:#f20300;fill-opacity:1"
         id="rect2996" />
      <rect
         width="599.99994"
         height="53.571449"
         x="0"
         y="214.2858"
         style="fill:#f20300;fill-opacity:1"
         id="rect2998" />
      <rect
         width="599.99994"
         height="53.571449"
         x="0"
         y="321.42871"
         style="fill:#f20300;fill-opacity:1"
         id="rect3000" />
    </g>
    <g
       transform="matrix(0.43329,0,0,0.43329,169.898,36.59376)"
       id="g8470">
      <g
         transform="matrix(2.280555,0,0,2.280174,0.551104,-1.554961)"
         style="fill:#f20300;fill-opacity:1;stroke:black;stroke-width:2.39747095;stroke-miterlimit:4;stroke-dasharray:none;stroke-opacity:1"
         id="g2124">
        <path
           d="M 1.0738166,2.0481694 C 1.0738166,33.524558 1.0738166,146.51352 1.0738166,146.51352 C 0.84558787,275.2025 87.077151,304.16071 131.48418,304.78774 L 131.48418,304.78774 C 131.65198,304.78774 132.88941,304.80135 133.06096,304.80135 L 133.06096,304.78774 C 176.52798,304.09575 261.83662,274.8022 261.76994,146.51352 C 261.76994,146.51352 261.76994,36.317226 261.76994,2.0481694 C 225.70041,2.0481694 28.276517,2.0481694 1.0738166,2.0481694 z "
           style="color:black;fill:#f20300;fill-opacity:1;fill-rule:nonzero;stroke:black;stroke-width:2.39747095;stroke-linecap:round;stroke-linejoin:miter;marker:none;marker-start:none;marker-mid:none;marker-end:none;stroke-miterlimit:4;stroke-dasharray:none;stroke-dashoffset:0;stroke-opacity:1;visibility:visible;display:block"
           id="path2126" />
      </g>
      <g
         id="g8449">
        <path
           d="M 462.7195,556.68577 C 409.71594,556.68577 246.11365,556.56624 137.8114,556.68577 C 142.79027,574.41308 148.41018,592.76945 152.8113,608.4396 C 152.8113,608.4396 435.25888,608.4396 448.03899,608.4396 C 452.71658,591.78508 458.60938,571.31986 462.7195,556.68577 z "
           style="fill:white;fill-opacity:1;stroke:black;stroke-width:5.5;stroke-miterlimit:4;stroke-dasharray:none;stroke-opacity:1"
           id="path1967" />
        <path
           d="M 487.11259,466.10674 C 402.48857,466.10674 238.29168,466.10674 113.41831,466.10674 C 117.70537,481.87172 122.26291,499.62422 127.23648,517.91368 C 127.23648,517.91368 386.05853,517.91368 472.5455,517.91368 C 477.93243,498.10415 482.25627,483.96501 487.11259,466.10674 z "
           style="fill:white;fill-opacity:1;stroke:black;stroke-width:5.49999952;stroke-miterlimit:4;stroke-dasharray:none;stroke-opacity:1"
           id="path1963" />
        <path
           d="M 509.55371,375.74467 C 370.02841,375.43378 230.50264,375.64221 90.977195,375.74467 C 97.291294,399.51867 101.32042,414.85821 104.64811,427.38774 C 235.01438,427.05752 365.38054,427.33146 495.74697,427.38774 C 500.32274,410.15897 504.94244,392.92042 509.55371,375.74467 z "
           style="fill:white;fill-opacity:1;stroke:black;stroke-width:5.49999809;stroke-miterlimit:4;stroke-dasharray:none;stroke-opacity:1"
           id="path1959" />
        <g
           transform="matrix(1.046776,0,0,1.046605,1030.383,-58.218)"
           id="g1998">
          <path
             d="M -655.94119,398.07077 C -668.0406,396.48969 -676.55546,393.57866 -687.04399,387.43746 C -689.91944,385.75384 -690.39572,385.73605 -693.54399,387.19465 C -698.19436,389.34918 -705.91051,391.45591 -718.94119,394.12884 C -733.65226,397.14647 -765.46006,397.43874 -777.94119,394.67097 C -817.50082,385.8984 -851.28421,363.29399 -866.38643,335.49241 C -874.02558,321.42955 -877.43914,307.93807 -877.44037,291.80369 C -877.44217,268.30144 -869.76167,249.4715 -853.45667,233.00394 C -840.8164,220.23765 -822.65253,209.04232 -780.73574,188.18225 C -765.22274,180.46214 -750.53071,172.76994 -748.08678,171.08847 C -733.32441,160.9317 -731.06863,143.42754 -742.98625,131.50992 C -749.01501,125.48116 -753.04616,124.10718 -765.61308,123.0341 C -768.11188,122.82073 -770.42241,122.52855 -774.27141,123.78642 C -778.71192,125.2376 -783.75166,129.31763 -783.75166,129.31763 C -794.22288,137.19253 -804.63231,141.90559 -813.21111,142.65593 C -818.23155,143.09504 -820.57626,143.81737 -822.44119,145.49942 C -826.29847,148.97847 -866.21757,170.59842 -872.1392,172.41558 C -875.12982,173.33331 -877.44119,168.78761 -877.44119,161.98831 C -877.44119,155.37152 -875.70721,152.20637 -867.06107,143.04082 C -851.9539,127.0261 -846.56216,120.02393 -845.27606,116.30611 C -842.74406,108.98667 -839.80639,102.72634 -833.34835,96.288749 C -823.61103,86.58225 -820.58219,85.765233 -791.27308,88.581794 C -765.16754,85.989737 -742.9552,88.023788 -725.76336,96.486108 C -711.03631,103.73518 -702.05881,113.56773 -697.18832,127.78273 C -693.63177,138.16287 -694.4483,155.41944 -699.06533,167.45122 C -699.95319,169.76495 -698.5206,169.38679 -688.30472,164.61078 C -679.26013,160.38236 -659.54197,152.98468 -642.90279,147.57731 C -638.48168,146.14054 -630.15894,142.96549 -624.40782,140.52163 C -618.65671,138.07777 -613.58053,136.44897 -613.12744,136.90207 C -612.20236,137.82715 -616.35259,150.92268 -619.59647,157.31429 C -622.3202,162.68101 -626.75237,169.23774 -631.73967,175.27834 C -633.9148,177.91286 -635.4534,180.30944 -635.15876,180.60407 C -633.32822,182.43462 -589.4361,168.75154 -564.68317,158.63378 C -555.74126,154.97877 -548.20376,151.98831 -547.93317,151.98831 C -546.96589,151.98831 -547.48945,158.58043 -548.86804,163.75913 C -550.67807,170.55857 -552.88313,173.95007 -560.4529,181.57732 L -566.63269,187.80403 L -563.28694,187.64617 C -560.38563,187.50928 -559.90135,187.8309 -559.64126,190.06736 C -559.09174,194.79268 -563.2,203.4718 -568.56721,208.92434 C -571.34914,211.7505 -574.70885,214.77281 -576.03323,215.64058 C -577.81792,216.80995 -578.44119,218.12417 -578.44119,220.71799 C -578.44119,225.29956 -582.75029,233.09697 -587.31177,236.76948 C -589.84771,238.8112 -591.36996,241.1561 -592.36434,244.55254 C -593.41706,248.14826 -595.43428,251.1096 -600.11434,255.92978 C -605.01811,260.98037 -606.44613,263.1256 -606.46315,265.46719 C -606.49069,269.25565 -609.29499,275.49684 -612.87546,279.73831 C -616.34667,283.85034 -614.86626,283.98718 -605.61175,280.40971 C -601.94294,278.99148 -595.34119,276.43782 -590.94119,274.73492 C -565.16721,264.75978 -542.84966,253.7798 -528.23412,243.88378 C -523.44523,240.64127 -518.99266,237.98831 -518.33951,237.98831 C -516.61726,237.98831 -517.85631,249.07382 -520.39826,256.40758 C -521.52669,259.66319 -523.74397,264.38819 -525.32556,266.90758 C -527.25445,269.98022 -528.37661,273.33392 -528.73406,277.09424 C -529.05659,280.4872 -530.4856,285.11431 -532.35407,288.81572 C -534.63674,293.33767 -535.44264,296.30676 -535.44677,300.20979 C -535.45519,308.17746 -537.01647,312.29966 -542.21593,318.08215 C -546.55816,322.91129 -546.94683,323.76731 -547.01073,328.64247 C -547.05025,331.657 -547.97341,336.00739 -549.14878,338.71799 C -550.28646,341.34167 -551.94646,346.01489 -552.83766,349.10293 C -555.07975,356.87177 -558.10565,360.93977 -563.83554,363.8884 C -568.00565,366.03435 -570.10359,366.41306 -578.0132,366.44768 L -587.29649,366.48831 L -590.37248,370.73467 C -592.06427,373.07017 -595.25009,376.28612 -597.45207,377.88123 C -602.19343,381.31585 -612.23349,385.4687 -618.18595,386.45733 C -620.52057,386.84508 -622.6404,387.50162 -622.89668,387.9163 C -623.15297,388.33097 -622.03033,389.65529 -620.40192,390.85922 C -616.22231,393.94934 -616.67636,395.55829 -622.11444,396.92762 C -628.04419,398.42075 -648.08112,399.09788 -655.94119,398.07077 z "
             style="fill:black"
             id="path1957" />
          <path
             d="M -630.13647,393.33758 L -626.33176,392.70887 L -630.46908,389.96985 C -632.7446,388.46339 -638.41083,385.93912 -643.06069,384.36038 C -650.1903,381.93969 -651.47003,381.17642 -651.22809,379.48912 C -650.86224,376.9377 -648.38842,377.22755 -638.74873,380.95128 C -631.72692,383.66375 -631.37104,383.69955 -623.74873,382.4601 C -609.97247,380.21998 -599.47337,375.05535 -594.50157,368.07311 C -592.83686,365.73523 -592.62166,364.86306 -593.62016,364.50085 C -603.54508,360.90061 -602.82997,360.90469 -607.7744,364.42005 C -619.92238,373.05694 -633.79604,376.40913 -648.85244,374.34542 C -652.84896,373.79764 -653.49834,373.39916 -653.24202,371.6519 C -652.95783,369.71468 -652.36052,369.61537 -642.44119,369.85614 C -630.35305,370.14955 -622.89982,368.32858 -613.92442,362.88892 L -608.52433,359.61613 L -622.23276,352.94343 C -635.7719,346.35315 -654.44119,334.86801 -654.44119,333.12918 C -654.44119,332.63639 -653.86821,331.75767 -653.1679,331.17646 C -652.22323,330.39245 -649.57779,331.6689 -642.9179,336.12216 C -632.81749,342.87598 -611.74344,353.38206 -600.44119,357.29815 C -577.04349,365.40515 -561.74608,362.66328 -557.75112,349.64648 C -556.4671,345.46276 -556.32905,345.5209 -562.85012,347.49913 C -570.22961,349.73778 -584.12554,349.45249 -590.88467,346.92357 C -597.01406,344.63027 -598.14793,343.54481 -596.49481,341.55292 C -595.56632,340.43416 -594.48966,340.55471 -590.15872,342.2624 C -582.69876,345.20385 -569.12014,345.08682 -561.09382,342.0119 C -556.04681,340.07837 -554.98903,339.20485 -553.36578,335.63003 C -551.17442,330.80409 -550.761,324.48125 -552.69119,325.31293 C -565.40854,330.79257 -569.3279,332.20234 -575.39018,333.47758 C -583.17325,335.1148 -600.09086,335.49627 -602.31931,334.0848 C -603.07727,333.60471 -603.38992,332.71437 -603.01408,332.10625 C -602.52211,331.31023 -605.28674,331.18145 -612.88597,331.64642 C -622.93639,332.26136 -623.44119,332.19812 -623.44119,330.32407 C -623.44119,328.57366 -622.31525,328.22379 -613.26489,327.16194 C -607.66792,326.50527 -599.90542,325.03326 -596.01489,323.89082 C -582.31764,319.86867 -556.59229,305.81992 -543.69681,295.31965 C -538.77148,291.30915 -534.88691,285.11023 -533.89228,279.67378 L -533.1944,275.85926 L -544.06779,283.03058 C -569.13523,299.56328 -599.77766,310.98831 -619.05166,310.98831 C -623.71775,310.98831 -624.44119,310.72807 -624.44119,309.04958 C -624.44119,307.48208 -623.53167,307.00349 -619.69119,306.55014 C -592.53115,303.344 -570.78521,295.23534 -546.94119,279.42299 C -535.06344,271.54617 -532.0968,268.90296 -528.73597,263.20251 C -526.27106,259.02166 -522.04092,247.05525 -522.77012,246.32605 C -522.97128,246.12489 -524.32504,246.89571 -525.77847,248.03898 C -531.22955,252.32679 -550.94509,262.98531 -564.21822,268.82007 C -576.52081,274.22819 -603.13628,284.6867 -624.77763,292.61678 C -632.15102,295.31863 -632.90446,295.87969 -637.5284,302.11165 C -643.33278,309.9346 -649.37787,315.7028 -655.50429,319.26418 C -662.35142,323.24452 -681.91279,329.59257 -703.94119,334.98291 C -728.8509,341.0783 -728.85694,341.0791 -729.24599,338.35088 C -729.51847,336.44007 -728.7233,336.03346 -721.74599,334.51573 C -695.44913,328.79554 -672.34792,322.02696 -661.79427,316.95006 C -654.12457,313.26051 -644.95198,305.67977 -642.4098,300.92965 C -641.6024,299.42102 -641.97655,299.18424 -645.20952,299.15786 C -649.58646,299.12214 -673.58049,304.71833 -687.92178,309.11975 C -693.43246,310.81101 -704.86109,315.09943 -713.31875,318.64958 C -721.7764,322.19972 -729.3139,324.8674 -730.06875,324.57774 C -733.89404,323.10983 -730.25116,320.78778 -711.19119,312.54478 C -690.82019,303.73479 -676.7112,296.21973 -677.21021,294.44505 C -677.70649,292.68008 -682.86814,291.93025 -692.94119,292.15985 C -702.31596,292.37352 -702.95979,292.26078 -703.23864,290.35668 C -703.49936,288.5764 -702.67803,288.17223 -696.58778,287.08384 C -685.99208,285.19029 -671.44119,277.47487 -671.44119,273.75019 C -671.44119,273.27503 -673.12869,272.1538 -675.19119,271.25858 C -678.04986,270.01778 -681.85286,269.66189 -691.19119,269.7613 C -702.6772,269.88357 -703.44119,269.77117 -703.44119,267.95906 C -703.44119,266.74609 -702.60334,265.86983 -701.19119,265.60592 C -691.10423,263.72083 -683.09472,261.55286 -678.70717,259.52008 C -673.81141,257.25185 -664.44119,249.11458 -664.44119,247.13126 C -664.44119,244.6707 -674.13146,244.44014 -695.27301,246.39767 L -709.60483,247.72467 L -714.29304,252.34239 C -716.87156,254.88213 -721.84612,258.49078 -725.34763,260.36161 L -731.71401,263.76311 L -726.3276,264.43987 C -715.05146,265.85664 -709.44119,267.24184 -709.44119,268.6092 C -709.44119,270.35809 -722.41488,279.42576 -731.64566,284.12851 L -738.79082,287.76872 L -730.366,288.18813 C -725.73236,288.41881 -720.36619,289.31138 -718.44119,290.17163 L -714.94119,291.73571 L -721.01583,297.72724 C -730.89896,307.47515 -743.44443,312.31681 -761.19119,313.23208 C -769.29019,313.64978 -769.44119,313.61483 -769.44119,311.32294 C -769.44119,309.24609 -768.97192,308.98612 -765.19119,308.9685 C -758.39313,308.93682 -747.4314,307.11817 -740.94119,304.94522 C -735.05201,302.97349 -724.41538,296.41089 -723.71804,294.31885 C -723.13603,292.57284 -731.98928,292.03629 -747.44119,292.88112 C -767.23437,293.9633 -767.65723,293.47783 -751.79554,287.88203 C -741.78838,284.35162 -731.5458,279.39964 -723.44119,274.17353 L -717.94119,270.62695 L -721.94119,269.7189 C -724.17353,269.21213 -735.44238,269.10056 -747.44119,269.46643 C -760.67644,269.87 -768.55678,269.76533 -767.94119,269.19412 C -767.39119,268.68378 -760.19814,266.64496 -751.95664,264.66342 C -734.52635,260.47258 -724.46593,255.94716 -717.60971,249.21335 L -712.94119,244.62817 L -717.60126,243.71649 C -723.84554,242.49488 -734.96047,244.82959 -746.83993,249.85812 C -751.84562,251.97701 -757.13688,253.9962 -758.59829,254.34521 C -760.05969,254.69423 -761.97219,255.25484 -762.84829,255.59103 C -763.72438,255.92722 -764.44119,255.74354 -764.44119,255.18285 C -764.44119,254.62216 -759.13858,250.99285 -752.65762,247.11772 C -746.17665,243.24258 -737.73915,237.86448 -733.90762,235.16639 C -727.25344,230.48065 -717.01586,221.08031 -717.75834,220.33782 C -718.72334,219.37283 -734.38542,224.39898 -744.4419,228.90089 C -750.69232,231.69897 -755.89666,233.98831 -756.00711,233.98831 C -756.11756,233.98831 -756.45503,233.04339 -756.75704,231.8885 C -757.23518,230.06008 -756.11933,229.23624 -748.12367,225.51441 C -735.76767,219.76291 -725.18416,216.33415 -717.12208,215.47078 C -711.23925,214.84078 -710.44119,214.95675 -710.44119,216.44164 C -710.44119,220.18712 -718.87544,229.88914 -728.32502,237.01363 L -731.67449,239.53896 L -724.13345,239.15815 C -715.42611,238.71845 -705.90876,241.15842 -706.84226,243.59111 C -707.5322,245.38905 -707.88457,245.41987 -693.89344,242.45841 C -678.25114,239.14744 -675.13853,238.27992 -669.04126,235.53184 C -664.00869,233.26363 -655.44119,226.62463 -655.44119,224.99309 C -655.44119,224.53144 -657.47425,223.37729 -659.9591,222.42832 C -664.60689,220.65331 -668.13957,220.67036 -693.44119,222.58992 C -704.87854,223.45763 -703.01497,221.94153 -688.44119,218.5222 C -682.11619,217.03821 -675.05468,215.15871 -672.74894,214.34552 C -668.45922,212.83263 -663.44119,209.45151 -663.44119,208.07402 C -663.44119,204.86653 -688.27788,203.92353 -702.44119,206.59326 C -707.11619,207.47448 -713.38632,208.36159 -716.37481,208.56461 C -726.76707,209.27062 -763.79128,229.10217 -774.72499,239.81916 C -788.20673,253.03368 -789.08749,266.42613 -776.9588,273.7855 C -772.88348,276.2583 -772.50359,276.82871 -772.49476,280.48831 C -772.47609,288.22953 -778.47188,297.14445 -784.50902,298.35188 C -792.33592,299.91726 -802.7159,292.00768 -803.99069,283.5068 C -805.50933,273.37976 -802.24422,260.18004 -795.79661,250.38094 C -789.35622,240.59282 -779.92318,233.41737 -739.44119,207.51291 C -729.81907,201.35571 -717.58848,189.46461 -711.44836,180.29711 C -690.87464,149.57951 -697.8053,115.41122 -727.59546,100.69162 C -743.14686,93.007529 -756.29493,90.788578 -791.01178,93.241225 C -814.14933,90.499564 -817.36915,91.759492 -821.44878,93.613214 C -827.41683,96.324998 -834.71394,103.75888 -837.77839,110.24888 C -841.51738,118.16746 -841.71082,120.11732 -839.08419,123.41143 L -836.79993,126.27617 L -834.14017,121.73763 C -828.37335,111.8973 -819.84431,107.96046 -802.69119,107.22137 C -791.73387,106.74925 -791.44119,106.79194 -791.44119,108.86247 C -791.44119,110.75299 -792.02234,110.99469 -796.69119,111.04594 C -799.57869,111.07764 -803.55309,111.41514 -805.52318,111.79594 L -809.10518,112.48831 L -807.44067,116.23913 C -806.52519,118.30208 -805.4758,119.68958 -805.10868,119.32247 C -804.74156,118.95535 -804.44119,119.18126 -804.44119,119.82451 C -804.44119,120.46775 -807.82045,124.204 -811.95066,128.1273 C -818.2144,134.07724 -819.25622,135.50626 -818.23093,136.74166 C -814.84629,140.8199 -800.0226,134.04464 -785.52927,124.62264 C -778.1236,119.80827 -773.68607,118.21858 -762.6797,118.86789 C -754.03222,119.38665 -746.6549,121.59594 -739.86258,128.39957 C -735.60267,132.66657 -733.28388,135.96281 -732.11258,139.41645 C -727.85493,151.97027 -732.18583,165.33767 -743.13897,173.44964 C -745.78019,175.40574 -761.79131,183.98798 -778.71923,192.52128 C -823.31062,214.99964 -837.35325,223.6853 -850.47684,236.90486 C -866.05332,252.59525 -872.44991,268.88623 -872.43418,292.82628 C -872.41862,316.51093 -863.63262,336.72815 -845.72934,354.27607 C -833.3465,366.41313 -822.09206,373.94685 -806.55427,380.49986 C -775.61093,393.55011 -747.70895,395.61412 -711.40604,387.5383 C -705.61171,386.24932 -699.14386,384.47309 -697.03305,383.59114 L -693.19521,381.98759 L -698.3151,376.73795 C -701.13104,373.85065 -703.43638,370.91169 -703.43809,370.20693 C -703.44592,366.97132 -700.28283,368.38032 -694.2421,374.30329 C -683.67657,384.66286 -675.11014,389.54947 -663.44119,391.87331 C -660.41619,392.47573 -657.04119,393.14585 -655.94119,393.36247 C -652.58341,394.02368 -634.18107,394.00594 -630.13647,393.33758 z "
             style="fill:white;fill-opacity:1"
             id="path1955" />
          <path
             d="M -572.85115,327.96556 C -568.50067,326.85304 -560.77831,323.91783 -555.69035,321.44285 C -548.39557,317.8944 -545.8841,316.10361 -543.81274,312.97357 C -541.48196,309.45153 -538.81139,300.28478 -539.82173,299.27443 C -540.0319,299.06427 -545.26022,302.27072 -551.44023,306.39987 C -565.04771,315.49166 -577.89477,322.23767 -589.94119,326.61678 L -598.94119,329.88846 L -589.85115,329.93838 C -583.85275,329.97133 -578.07083,329.30035 -572.85115,327.96556 z "
             style="fill:white;fill-opacity:1"
             id="path1953" />
          <path
             d="M -657.44119,296.49071 C -648.91619,294.54716 -640.31173,292.57662 -638.32018,292.11172 C -629.45169,290.04151 -613.64773,275.78327 -611.69517,268.09079 C -610.67591,264.07522 -611.08928,263.06167 -612.99119,264.91309 C -614.49775,266.37965 -632.03745,273.89253 -642.44119,277.52757 C -650.98628,280.5132 -660.59375,283.4424 -673.37698,286.95949 L -677.81278,288.17992 L -673.44543,290.37879 C -671.04338,291.58816 -668.92089,293.04922 -668.72876,293.62559 C -668.53664,294.20195 -670.19334,295.93055 -672.41032,297.46692 C -676.75578,300.47832 -677.46508,301.44449 -674.69119,300.57376 C -673.72869,300.27163 -665.96619,298.43426 -657.44119,296.49071 z "
             style="fill:white;fill-opacity:1"
             id="path1951" />
          <path
             d="M -783.31275,292.42189 C -777.49717,289.41454 -775.6206,280.40211 -780.19119,277.43023 C -788.09417,272.29155 -791.28035,265.09632 -789.77522,255.78693 C -789.03154,251.18718 -789.10111,250.2911 -790.13523,251.14935 C -797.09846,256.92832 -801.97881,279.18041 -797.9793,286.91461 C -796.72747,289.33538 -789.60274,293.98509 -787.14153,293.98752 C -786.70172,293.98796 -784.97877,293.28342 -783.31275,292.42189 z "
             style="fill:#f20300;fill-opacity:1"
             id="path1949" />
          <path
             d="M -648.94119,274.82051 C -629.70642,268.38577 -611.08756,259.54707 -605.05617,253.98753 C -600.58019,249.86172 -595.78817,243.30799 -596.63107,242.46509 C -596.86099,242.23518 -600.17482,243.30654 -603.99514,244.84589 C -622.3134,252.22699 -665.94835,264.98831 -672.86838,264.98831 C -675.07495,264.98831 -674.83233,266.72939 -672.52365,267.46214 C -670.05264,268.24641 -665.44119,271.86914 -665.44119,273.02609 C -665.44119,273.51704 -666.89964,275.5798 -668.68219,277.61002 L -671.9232,281.30132 L -667.93219,280.56994 C -665.73714,280.16769 -657.19119,277.58045 -648.94119,274.82051 z "
             style="fill:white;fill-opacity:1"
             id="path1947" />
          <path
             d="M -658.03921,256.95534 C -635.01841,251.48791 -601.4647,240.09269 -592.59557,234.72994 C -588.4256,232.20855 -583.44119,225.46149 -583.44119,222.33827 C -583.44119,221.04579 -583.65715,219.98831 -583.92109,219.98831 C -584.18504,219.98831 -588.79754,221.73968 -594.17109,223.88023 C -611.53627,230.79766 -634.77655,237.67813 -657.23209,242.54993 C -658.49208,242.82329 -659.26119,243.47054 -658.94122,243.98826 C -658.06379,245.40797 -661.2133,251.02043 -665.25432,255.23831 C -667.23034,257.30081 -668.34129,258.98831 -667.72309,258.98831 C -667.1049,258.98831 -662.74715,258.07347 -658.03921,256.95534 z "
             style="fill:white;fill-opacity:1"
             id="path1945" />
          <path
             d="M -665.44119,240.01969 C -665.44119,239.48696 -666.11619,239.3101 -666.94119,239.62668 C -667.76619,239.94327 -668.44119,240.37914 -668.44119,240.5953 C -668.44119,240.81145 -667.76619,240.98831 -666.94119,240.98831 C -666.11619,240.98831 -665.44119,240.55243 -665.44119,240.01969 z "
             style="fill:white;fill-opacity:1"
             id="path1943" />
          <path
             d="M -642.67798,234.36823 C -614.27971,227.51062 -584.8388,216.41775 -575.98304,209.23863 C -570.56461,204.84605 -564.18795,195.90822 -565.52127,194.5749 C -565.83701,194.25916 -573.71066,196.51762 -583.01827,199.59372 C -600.22792,205.28138 -636.04525,214.72175 -649.17573,217.03084 L -656.41026,218.30309 L -652.75955,221.45888 L -649.10884,224.61467 L -653.02501,228.96538 C -655.17891,231.35827 -658.74119,234.63023 -660.94119,236.2364 L -664.94119,239.15672 L -660.94119,238.48462 C -658.74119,238.11496 -650.52274,236.26259 -642.67798,234.36823 z "
             style="fill:white;fill-opacity:1"
             id="path1941" />
          <path
             d="M -641.42809,210.53068 C -624.50441,206.9398 -600.44758,200.62428 -590.16366,197.07249 C -586.98601,195.97502 -582.48601,193.56924 -580.16366,191.72631 C -577.8413,189.88338 -572.86036,185.92591 -569.0949,182.93192 C -561.38742,176.80356 -556.14879,170.24532 -553.92392,163.93936 C -553.09667,161.59469 -552.56008,159.53609 -552.73149,159.36468 C -552.9029,159.19327 -557.9702,161.0956 -563.99217,163.59209 C -586.74,173.02251 -619.99019,183.16503 -643.44119,187.82694 C -666.26771,192.36471 -684.05826,196.31487 -690.29419,198.23005 L -697.64719,200.48831 L -682.79419,200.48831 C -668.75407,200.48831 -667.6265,200.63578 -662.19119,203.18299 C -659.02869,204.66506 -656.44119,206.28353 -656.44119,206.77959 C -656.44119,207.27564 -658.08787,209.37704 -660.10047,211.44935 L -663.75975,215.21719 L -660.85047,214.62582 C -659.25037,214.30056 -650.51029,212.45775 -641.42809,210.53068 z "
             style="fill:white;fill-opacity:1"
             id="path1939" />
          <path
             d="M -702.94119,197.34453 C -691.7438,193.51451 -669.75107,187.98078 -655.56676,185.42434 C -646.26022,183.74703 -646.15252,183.69407 -640.69471,178.11155 C -637.67102,175.01877 -633.2165,169.71643 -630.79578,166.32858 C -626.47059,160.27539 -618.87943,145.21673 -619.72627,144.36989 C -619.96379,144.13238 -622.35931,144.89342 -625.04965,146.0611 C -627.74,147.22878 -638.49119,151.10141 -648.94119,154.66694 C -671.1623,162.24876 -688.62748,169.40204 -697.23529,174.44694 C -702.33281,177.43451 -704.40861,179.56119 -709.54,187.05322 C -712.96515,192.05408 -718.21171,198.14175 -721.32696,200.72983 C -724.41479,203.29513 -727.36103,205.74507 -727.87416,206.17413 C -728.3873,206.6032 -725.2373,205.56167 -720.87416,203.85963 C -716.51103,202.15758 -708.44119,199.22579 -702.94119,197.34453 z "
             style="fill:white;fill-opacity:1"
             id="path1937" />
          <path
             d="M -866.61223,159.06955 C -863.49316,156.36424 -855.2471,150.40174 -848.28765,145.81955 C -830.47557,134.09187 -831.69329,135.03334 -833.39617,134.30624 C -834.1964,133.96456 -836.94205,131.7292 -839.4976,129.33878 L -844.14405,124.99257 L -854.53719,136.74044 C -860.25342,143.20177 -865.95783,149.31835 -867.21366,150.33283 C -871.02214,153.40941 -875.39809,163.98831 -872.86223,163.98831 C -872.54381,163.98831 -869.73131,161.77487 -866.61223,159.06955 z "
             style="fill:white;fill-opacity:1"
             id="path1935" />
          <path
             d="M -830.94119,145.43463 C -825.43243,142.10941 -823.87248,140.63968 -823.61867,138.53561 L -823.29615,135.86195 L -826.61867,137.54078 C -831.86937,140.1939 -860.98288,159.7273 -862.53768,161.64027 C -864.02647,163.47201 -842.71394,152.54096 -830.94119,145.43463 z "
             style="fill:white;fill-opacity:1"
             id="path1933" />
          <path
             d="M -826.19644,128.48831 C -826.74969,125.59418 -825.71201,125.23568 -823.91098,127.69874 C -822.83394,129.17168 -822.27629,129.2342 -819.89465,128.14906 L -817.12901,126.88895 L -820.52119,125.18863 C -822.38689,124.25345 -824.42266,122.45267 -825.04512,121.1869 L -826.17688,118.88548 L -828.73994,121.9315 C -833.52644,127.61994 -833.19285,130.9341 -827.82986,130.973 C -826.11445,130.98544 -825.80815,130.51952 -826.19644,128.48831 z "
             style="fill:white;fill-opacity:1"
             id="path1931" />
          <path
             d="M -812.96984,120.63292 C -810.57389,118.88096 -811.56507,116.24631 -814.93866,115.39959 C -816.6945,114.9589 -818.1278,115.29971 -819.41405,116.46374 C -822.26099,119.04019 -820.76063,121.33788 -815.88232,121.87231 C -815.29994,121.93611 -813.98932,121.37838 -812.96984,120.63292 z "
             style="fill:white;fill-opacity:1"
             id="path1909" />
        </g>
      </g>
    </g>
  </g>
</svg>
