<?xml version="1.0" encoding="UTF-8" standalone="no"?>
<!-- Created with Inkscape (http://www.inkscape.org/) -->
<svg
   xmlns:dc="http://purl.org/dc/elements/1.1/"
   xmlns:cc="http://web.resource.org/cc/"
   xmlns:rdf="http://www.w3.org/1999/02/22-rdf-syntax-ns#"
   xmlns:svg="http://www.w3.org/2000/svg"
   xmlns="http://www.w3.org/2000/svg"
   xmlns:sodipodi="http://sodipodi.sourceforge.net/DTD/sodipodi-0.dtd"
   xmlns:inkscape="http://www.inkscape.org/namespaces/inkscape"
   id="svg5098"
   sodipodi:version="0.32"
   inkscape:version="0.45.1"
   width="600"
   height="400"
   version="1.0"
   sodipodi:docbase="C:\TIIKERI\Liput\Belgia\provinssit\Hainaut - kunnat\Thuin\svg"
   sodipodi:docname="Chimay.svg"
   inkscape:output_extension="org.inkscape.output.svg.inkscape">
  <metadata
     id="metadata5103">
    <rdf:RDF>
      <cc:Work
         rdf:about="">
        <dc:format>image/svg+xml</dc:format>
        <dc:type
           rdf:resource="http://purl.org/dc/dcmitype/StillImage" />
      </cc:Work>
    </rdf:RDF>
  </metadata>
  <defs
     id="defs5101" />
  <sodipodi:namedview
     inkscape:window-height="712"
     inkscape:window-width="1024"
     inkscape:pageshadow="2"
     inkscape:pageopacity="0.0"
     guidetolerance="10.0"
     gridtolerance="10.0"
     objecttolerance="10.0"
     borderopacity="1.0"
     bordercolor="#666666"
     pagecolor="#ffffff"
     id="base"
     showguides="true"
     inkscape:guide-bbox="true"
     inkscape:zoom="0.67244074"
     inkscape:cx="394.01033"
     inkscape:cy="96.525276"
     inkscape:window-x="-4"
     inkscape:window-y="-4"
     inkscape:current-layer="svg5098"
     width="600px"
     height="400px">
    <sodipodi:guide
       orientation="vertical"
       position="104.09839"
       id="guide5296" />
    <sodipodi:guide
       orientation="vertical"
       position="493.7238"
       id="guide5298" />
    <sodipodi:guide
       orientation="horizontal"
       position="59.484796"
       id="guide5300" />
    <sodipodi:guide
       orientation="horizontal"
       position="342.03757"
       id="guide2390" />
  </sodipodi:namedview>
  <g
     id="g2452">
    <rect
       y="0"
       x="0"
       height="400"
       width="600"
       id="rect5292"
       style="fill:#da121a;fill-opacity:1;stroke:none;stroke-opacity:1" />
    <g
       id="g2513"
       transform="matrix(0.7660391,-0.1949962,0.1949962,0.7660391,-177.5914,-71.228118)">
      <path
         id="path3893"
         style="fill:#fdcb00"
         d="M 590.4,616.1 C 592.4,618.6 595.299,619.8 599.2,619.401 C 606.8,618.3 614.2,615.201 621.099,610.201 C 628.099,606.701 634.799,605.701 641.099,607.301 C 642.2,603.301 640.499,599.101 635.9,594.601 C 633.4,592.202 630.5,590.702 627.099,590.202 C 621.499,589.302 614.599,591.101 606.499,595.702 C 600.299,599.702 593.799,602.302 587.099,603.202 C 585.9,607.8 586.9,612.1 590.4,616.1 z " />
      <path
         id="path3895"
         style="fill:#fdcb00"
         d="M 524.3,591.2 C 522.901,585.9 519.5,581.9 514.1,579.5 C 509.3,577.5 504.1,578.4 498.6,582.4 C 491,588.299 490,595.9 495.6,605.5 C 510.7,622.8 534.3,621.6 566.2,601.8 C 568.099,600.6 570.099,599.3 572.099,598 C 568.9,597.8 565.7,597 562.799,595.3 C 557.9,599.901 551.599,602.901 543.999,604.3 C 551.599,602.901 557.899,599.901 562.799,595.3 C 560.999,594.401 559.299,593.2 557.799,591.7 C 556.799,590.4 555.999,589 555.299,587.599 C 546.499,596.9 536.099,600.099 523.999,597.2 C 522.699,601.3 519.199,602.599 513.199,600.8 C 515.999,605.7 521.499,607.3 529.598,605.7 C 521.498,607.3 515.998,605.7 513.199,600.8 C 519.199,602.6 522.699,601.3 523.999,597.2 C 524.4,595.7 524.5,593.7 524.3,591.2 z " />
      <path
         id="path3897"
         style="fill:#ffffff"
         d="M 317.4,254.2 L 317.1,254 C 305,246.5 301.6,249.5 306.9,262.7 L 553.4,575.3 C 554.599,567.901 559.5,560 568.5,551.8 L 360.5,313.6 L 568.5,551.8 C 577.5,544.3 585.6,540.5 593,540.401 L 317.4,254.2 z " />
      <path
         id="path3899"
         style="fill:#fdcb00"
         d="M 593,540.4 C 585.6,540.5 577.5,544.299 568.5,551.799 C 559.5,559.999 554.6,567.9 553.4,575.299 C 552.799,579.499 553.4,583.699 555.299,587.599 C 555.999,588.999 556.799,590.4 557.799,591.7 C 559.299,593.2 560.999,594.4 562.799,595.3 C 565.699,597 568.9,597.8 572.099,598 C 580.4,598.1 589.4,593.4 599.299,583.6 C 607.599,576 611.999,568.401 612.599,561.1 C 612.799,558.201 612.4,555.401 611.4,552.5 C 610.799,550.6 609.799,548.6 608.599,546.7 C 607.499,545.7 606.499,544.8 605.299,544.099 C 601.5,541.5 597.4,540.4 593,540.4 z M 594.2,556.7 C 598.3,562.4 596.8,568.2 589.5,574.099 C 581.5,582.9 574.8,584.4 569.3,578.4 C 566.6,571.7 568.7,566 575.5,560.9 C 583,554.2 589.3,552.8 594.2,556.7 z " />
      <path
         id="path3901"
         style="fill:#fdcb00"
         d="M 589.5,574.1 C 596.8,568.201 598.3,562.401 594.2,556.701 C 589.3,552.801 583,554.201 575.5,560.901 C 568.7,566.001 566.6,571.701 569.3,578.401 C 574.8,584.4 581.5,582.9 589.5,574.1 z " />
      <path
         id="path3903"
         style="fill:#fdcb00"
         d="M 612.6,561.1 C 612,568.401 607.6,576 599.3,583.6 C 589.4,593.4 580.4,598.1 572.1,598 C 570.1,599.3 568.1,600.6 566.201,601.8 C 573.401,603.8 580.401,604.3 587.1,603.2 C 593.8,602.3 600.3,599.7 606.5,595.7 C 614.6,591.099 621.5,589.3 627.1,590.2 C 622.8,587.2 619.401,583.3 616.901,578.4 C 618.901,570.799 619.6,563.5 618.8,556.599 L 617.9,556.7 C 616.8,558.8 614.9,560.3 612.6,561.1 z " />
      <path
         id="path3905"
         style="fill:#fdcb00"
         d="M 602.8,502 C 604.5,507.7 607.901,511.7 613,513.7 C 615.4,514.3 617.4,514.4 619.1,514.2 C 623.201,513.599 625,510.2 624,504.099 C 628.5,507.499 629.3,513.099 626.6,520.999 C 629.3,513.099 628.5,507.499 624,504.099 C 625,510.2 623.2,513.599 619.1,514.2 C 620.3,526.599 615.701,536.599 605.3,544.099 C 606.5,544.799 607.5,545.7 608.6,546.7 C 609.8,548.599 610.8,550.599 611.401,552.5 C 616.901,548.2 620.901,542.4 623.3,535 C 620.901,542.4 616.901,548.2 611.401,552.5 C 612.401,555.4 612.8,558.2 612.6,561.1 C 614.901,560.3 616.8,558.8 617.901,556.701 C 618.1,556.401 618.401,556.1 618.701,555.701 L 618.701,555.701 C 641.901,527.1 646.001,504.301 631.001,487.301 C 622.201,480.401 614.601,480.401 607.701,487.001 C 603.1,492 601.4,497 602.8,502 z " />
      <path
         id="path3907"
         style="fill:#fdcb00"
         d="M 599.2,619.4 C 598.4,624.5 599.5,628.9 602.4,632.799 C 606.299,636.9 609.799,638.599 613,637.9 C 613.1,637.9 613.2,637.9 613.3,637.9 C 613.3,637.9 613.3,637.9 613.401,637.799 C 620.6,636.4 626.8,633.599 632.001,629.499 C 640.401,624.999 648.301,624.199 655.901,626.799 C 657.201,620.099 655.201,614.9 649.901,611.299 C 647.1,609.4 644.1,607.999 641.1,607.299 C 634.8,605.699 628.1,606.699 621.1,610.199 C 614.2,615.2 606.8,618.3 599.2,619.4 z " />
      <path
         id="path3909"
         style="fill:#fdcb00"
         d="M 613.4,637.8 C 613.4,637.901 613.4,637.901 613.4,637.901 C 612.2,642.501 612.599,646.501 614.799,649.8 C 619.199,654.3 623.599,656 628.099,654.901 C 628.4,654.901 628.7,654.8 629.099,654.701 C 629.099,654.701 629.099,654.701 629.2,654.801 C 636.9,653.601 644,651.201 650.4,647.801 C 657.599,644.301 664.099,643.201 670,644.301 C 670.5,638.801 668.4,634.201 663.5,630.902 C 661.1,629.101 658.4,627.702 655.9,626.801 C 648.299,624.201 640.4,625.001 632,629.501 C 626.8,633.6 620.6,636.4 613.4,637.8 z " />
      <path
         id="path3911"
         style="fill:#fdcb00"
         d="M 629.2,654.8 C 629.2,654.901 629.2,655 629.2,655.1 C 628.099,659.5 628.8,663.8 631.5,667.901 C 637,672.3 642.2,674.401 647.3,674.401 C 647.6,674.3 647.901,674.3 648.401,674.201 C 656.001,672.401 662.401,669.501 667.6,665.6 C 675.3,661.5 681,660 685,661.201 C 685.2,655.6 683.5,651.401 679.7,648.6 C 676.599,646.401 673.4,644.901 670,644.3 C 664.1,643.2 657.6,644.3 650.4,647.8 C 644,651.2 636.9,653.6 629.2,654.8 z " />
      <path
         id="path3913"
         style="fill:#fdcb00"
         d="M 665.2,690.4 L 664.2,690.9 C 667.8,700.2 673.599,706.599 681.5,710.099 C 692.6,710.299 699.3,704.499 701.8,692.499 C 700.7,684.799 697,678.099 690.901,672.399 C 690.6,676.199 688.701,679.699 685.001,682.699 C 678.5,686.5 671.9,689 665.2,690.4 z " />
      <path
         id="path3915"
         style="fill:#fdcb00"
         d="M 648.4,674.2 L 648.599,675.2 C 649.4,679.8 650.999,683.5 653.7,686.5 C 657.9,689.6 661.3,691 664.099,690.7 C 664.499,690.599 664.799,690.599 665.2,690.4 C 671.9,689 678.5,686.5 685,682.7 C 688.7,679.7 690.6,676.2 690.9,672.4 C 691.4,668.799 690.5,665.9 688.599,663.599 C 687.7,662.4 686.499,661.599 684.999,661.2 C 680.999,660 675.299,661.5 667.599,665.599 C 662.4,669.5 656,672.4 648.4,674.2 z " />
      <path
         id="path3917"
         style="fill:none;stroke:#000000;stroke-width:1.5;stroke-linecap:round;stroke-linejoin:round"
         d="M 317.1,254 C 305,246.5 301.6,249.5 306.9,262.7 L 553.4,575.3" />
      <path
         id="path3919"
         style="fill:none;stroke:#000000;stroke-width:1.5;stroke-linecap:round;stroke-linejoin:round"
         d="M 619.1,514.2 C 617.401,514.4 615.401,514.3 613,513.7 C 607.9,511.7 604.5,507.7 602.8,502 C 601.401,497 603.1,492 607.7,487 C 614.599,480.4 622.2,480.4 631,487.3 C 646,504.3 641.9,527.1 618.7,555.7 L 618.7,555.7" />
      <path
         id="path3921"
         style="fill:none;stroke:#000000;stroke-width:1.5;stroke-linecap:round;stroke-linejoin:round"
         d="M 593,540.4 C 585.6,540.5 577.5,544.299 568.5,551.799 L 360.5,313.599" />
      <path
         id="path3923"
         style="fill:none;stroke:#000000;stroke-width:1.5;stroke-linecap:round;stroke-linejoin:round"
         d="M 594.2,556.7 C 589.3,552.8 583,554.2 575.5,560.9 C 568.7,566 566.6,571.7 569.3,578.4 C 574.8,584.4 581.5,582.9 589.5,574.099 C 596.8,568.2 598.3,562.4 594.2,556.7" />
      <path
         id="path3925"
         style="fill:none;stroke:#000000;stroke-width:1.5;stroke-linecap:round;stroke-linejoin:round"
         d="M 572.1,598 C 580.401,598.1 589.401,593.4 599.3,583.6 C 607.6,576 612,568.401 612.6,561.1" />
      <path
         id="path3927"
         style="fill:none;stroke:#000000;stroke-width:1.5;stroke-linecap:round;stroke-linejoin:round"
         d="M 611.4,552.5 C 610.799,550.6 609.799,548.6 608.599,546.7 C 607.499,545.7 606.499,544.8 605.299,544.099" />
      <path
         id="path3929"
         style="fill:none;stroke:#000000;stroke-width:1.5;stroke-linecap:round;stroke-linejoin:round"
         d="M 618.7,555.7 C 618.7,555.9 618.7,556.099 618.8,556.4 L 618.8,556.599 C 619.6,563.499 618.901,570.799 616.901,578.4 C 619.401,583.299 622.8,587.2 627.1,590.2" />
      <path
         id="path3931"
         style="fill:none;stroke:#000000;stroke-width:1.5;stroke-linecap:round;stroke-linejoin:round"
         d="M 623.3,535 C 620.901,542.4 616.901,548.2 611.401,552.5" />
      <path
         id="path3933"
         style="fill:none;stroke:#000000;stroke-width:1.5;stroke-linecap:round;stroke-linejoin:round"
         d="M 618.7,555.7 C 618.4,556.099 618.099,556.4 617.9,556.7 C 616.799,558.8 614.9,560.3 612.599,561.099" />
      <path
         id="path3935"
         style="fill:none;stroke:#000000;stroke-width:1.5;stroke-linecap:round;stroke-linejoin:round"
         d="M 612.6,561.1 C 612.8,558.201 612.401,555.401 611.401,552.5" />
      <path
         id="path3937"
         style="fill:none;stroke:#000000;stroke-width:1.5;stroke-linecap:round;stroke-linejoin:round"
         d="M 605.3,544.1 C 601.5,541.5 597.401,540.401 593,540.401" />
      <path
         id="path3939"
         style="fill:none;stroke:#000000;stroke-width:1.5;stroke-linecap:round;stroke-linejoin:round"
         d="M 619.1,514.2 C 623.201,513.599 625,510.2 624,504.099 C 628.5,507.499 629.3,513.099 626.6,520.999" />
      <path
         id="path3941"
         style="fill:none;stroke:#000000;stroke-width:1.5;stroke-linecap:round;stroke-linejoin:round"
         d="M 605.3,544.1 C 615.7,536.6 620.3,526.6 619.1,514.201" />
      <path
         id="path3943"
         style="fill:none;stroke:#000000;stroke-width:1.5;stroke-linecap:round;stroke-linejoin:round"
         d="M 524,597.2 C 524.4,595.7 524.5,593.7 524.3,591.2 C 522.901,585.9 519.5,581.9 514.1,579.5 C 509.3,577.5 504.1,578.4 498.6,582.4 C 491,588.299 490,595.9 495.6,605.5 C 510.7,622.8 534.3,621.6 566.2,601.8" />
      <path
         id="path3945"
         style="fill:none;stroke:#000000;stroke-width:1.5;stroke-linecap:round;stroke-linejoin:round"
         d="M 568.5,551.8 C 559.5,560 554.6,567.901 553.4,575.3 C 552.799,579.5 553.4,583.7 555.299,587.6 C 555.999,589 556.799,590.401 557.799,591.701" />
      <path
         id="path3947"
         style="fill:none;stroke:#000000;stroke-width:1.5;stroke-linecap:round;stroke-linejoin:round"
         d="M 562.8,595.3 C 565.7,597 568.901,597.8 572.1,598" />
      <path
         id="path3949"
         style="fill:none;stroke:#000000;stroke-width:1.5;stroke-linecap:round;stroke-linejoin:round"
         d="M 555.3,587.6 C 546.5,596.901 536.1,600.1 524,597.201" />
      <path
         id="path3951"
         style="fill:none;stroke:#000000;stroke-width:1.5;stroke-linecap:round;stroke-linejoin:round"
         d="M 544,604.3 C 551.6,602.901 557.9,599.901 562.8,595.3" />
      <path
         id="path3953"
         style="fill:none;stroke:#000000;stroke-width:1.5;stroke-linecap:round;stroke-linejoin:round"
         d="M 557.8,591.7 C 559.3,593.2 561,594.4 562.8,595.3" />
      <path
         id="path3955"
         style="fill:none;stroke:#000000;stroke-width:1.5;stroke-linecap:round;stroke-linejoin:round"
         d="M 572.1,598 C 570.1,599.3 568.1,600.6 566.201,601.8" />
      <path
         id="path3957"
         style="fill:none;stroke:#000000;stroke-width:1.5;stroke-linecap:round;stroke-linejoin:round"
         d="M 587.1,603.2 C 580.401,604.3 573.401,603.8 566.201,601.8" />
      <path
         id="path3959"
         style="fill:none;stroke:#000000;stroke-width:1.5;stroke-linecap:round;stroke-linejoin:round"
         d="M 524,597.2 C 522.7,601.3 519.2,602.599 513.2,600.8 C 516,605.7 521.5,607.3 529.599,605.7" />
      <path
         id="path3961"
         style="fill:none;stroke:#000000;stroke-width:1.5;stroke-linecap:round;stroke-linejoin:round"
         d="M 599.2,619.4 C 595.3,619.799 592.4,618.599 590.4,616.099 C 586.9,612.099 585.9,607.799 587.099,603.2" />
      <path
         id="path3963"
         style="fill:none;stroke:#000000;stroke-width:1.5;stroke-linecap:round;stroke-linejoin:round"
         d="M 613.4,637.8 C 613.3,637.9 613.3,637.9 613.3,637.9 C 613.2,637.9 613.1,637.9 613,637.9 C 609.8,638.599 606.3,636.9 602.4,632.799 C 599.5,628.9 598.4,624.499 599.2,619.4" />
      <path
         id="path3965"
         style="fill:none;stroke:#000000;stroke-width:1.5;stroke-linecap:round;stroke-linejoin:round"
         d="M 629.2,654.8 C 629.099,654.7 629.099,654.7 629.099,654.7 C 628.7,654.8 628.4,654.9 628.099,654.9 C 623.599,656 619.2,654.299 614.799,649.799 C 612.599,646.499 612.199,642.499 613.4,637.9 C 613.4,637.9 613.4,637.9 613.4,637.799" />
      <path
         id="path3967"
         style="fill:none;stroke:#000000;stroke-width:1.5;stroke-linecap:round;stroke-linejoin:round"
         d="M 685,661.2 C 681,660 675.3,661.5 667.6,665.599 C 662.4,669.5 656,672.4 648.4,674.2 C 647.9,674.3 647.599,674.3 647.299,674.4 C 642.199,674.4 636.999,672.299 631.499,667.9 C 628.799,663.799 628.099,659.5 629.199,655.099 C 629.199,654.999 629.199,654.9 629.199,654.799" />
      <path
         id="path3969"
         style="fill:none;stroke:#000000;stroke-width:1.5;stroke-linecap:round;stroke-linejoin:round"
         d="M 655.9,626.8 C 648.299,624.2 640.4,625 632,629.5 C 626.8,633.6 620.6,636.4 613.4,637.8" />
      <path
         id="path3971"
         style="fill:none;stroke:#000000;stroke-width:1.5;stroke-linecap:round;stroke-linejoin:round"
         d="M 690.9,672.4 C 697,678.099 700.7,684.799 701.799,692.5 C 699.299,704.5 692.599,710.3 681.499,710.1 C 673.599,706.6 667.799,700.201 664.199,690.901 C 664.098,690.8 664.098,690.8 664.098,690.701" />
      <path
         id="path3973"
         style="fill:none;stroke:#000000;stroke-width:1.5;stroke-linecap:round;stroke-linejoin:round"
         d="M 690.9,672.4 C 690.599,676.2 688.7,679.7 685,682.7 C 678.5,686.5 671.9,689 665.2,690.4 C 664.8,690.599 664.5,690.599 664.099,690.7" />
      <path
         id="path3975"
         style="fill:none;stroke:#000000;stroke-width:1.5;stroke-linecap:round;stroke-linejoin:round"
         d="M 664.1,690.7 C 661.3,691 657.901,689.599 653.701,686.5 C 651.001,683.5 649.401,679.8 648.6,675.2" />
      <path
         id="path3977"
         style="fill:none;stroke:#000000;stroke-width:1.5;stroke-linecap:round;stroke-linejoin:round"
         d="M 641.1,607.3 C 642.201,603.3 640.5,599.1 635.901,594.6 C 633.401,592.201 630.501,590.701 627.1,590.201" />
      <path
         id="path3979"
         style="fill:none;stroke:#000000;stroke-width:1.5;stroke-linecap:round;stroke-linejoin:round"
         d="M 627.1,590.2 C 621.5,589.3 614.6,591.099 606.5,595.7 C 600.3,599.7 593.8,602.3 587.1,603.2" />
      <path
         id="path3981"
         style="fill:none;stroke:#000000;stroke-width:1.5;stroke-linecap:round;stroke-linejoin:round"
         d="M 655.9,626.8 C 657.2,620.1 655.2,614.901 649.9,611.3 C 647.099,609.401 644.099,608 641.099,607.3" />
      <path
         id="path3983"
         style="fill:none;stroke:#000000;stroke-width:1.5;stroke-linecap:round;stroke-linejoin:round"
         d="M 641.1,607.3 C 634.8,605.7 628.1,606.7 621.1,610.2 C 614.201,615.2 606.8,618.3 599.201,619.4" />
      <path
         id="path3985"
         style="fill:none;stroke:#000000;stroke-width:1.5;stroke-linecap:round;stroke-linejoin:round"
         d="M 670,644.3 C 670.5,638.8 668.4,634.2 663.5,630.901 C 661.1,629.1 658.4,627.701 655.9,626.8" />
      <path
         id="path3987"
         style="fill:none;stroke:#000000;stroke-width:1.5;stroke-linecap:round;stroke-linejoin:round"
         d="M 685,661.2 C 685.2,655.599 683.5,651.4 679.7,648.599 C 676.599,646.4 673.4,644.9 670,644.299" />
      <path
         id="path3989"
         style="fill:none;stroke:#000000;stroke-width:1.5;stroke-linecap:round;stroke-linejoin:round"
         d="M 690.9,672.4 C 691.4,668.799 690.5,665.9 688.599,663.599 C 687.7,662.4 686.499,661.599 684.999,661.2" />
      <path
         id="path3991"
         style="fill:none;stroke:#000000;stroke-width:1.5;stroke-linecap:round;stroke-linejoin:round"
         d="M 670,644.3 C 664.1,643.2 657.6,644.3 650.4,647.8 C 644,651.2 636.9,653.6 629.2,654.8" />
      <line
         x1="317.39999"
         y1="254.2"
         x2="593"
         y2="540.40002"
         id="line3993"
         style="fill:none;stroke:#000000;stroke-width:1.5;stroke-linecap:round;stroke-linejoin:round" />
    </g>
  </g>
</svg>
