<?xml version="1.0" encoding="UTF-8" standalone="no"?>
<!-- Created with Inkscape (http://www.inkscape.org/) -->

<svg
   xmlns:dc="http://purl.org/dc/elements/1.1/"
   xmlns:cc="http://creativecommons.org/ns#"
   xmlns:rdf="http://www.w3.org/1999/02/22-rdf-syntax-ns#"
   xmlns:svg="http://www.w3.org/2000/svg"
   xmlns="http://www.w3.org/2000/svg"
   xmlns:xlink="http://www.w3.org/1999/xlink"
   xmlns:sodipodi="http://sodipodi.sourceforge.net/DTD/sodipodi-0.dtd"
   xmlns:inkscape="http://www.inkscape.org/namespaces/inkscape"
   version="1.0"
   width="371"
   height="231"
   id="svg2"
   sodipodi:version="0.32"
   inkscape:version="0.47 r22583"
   sodipodi:docname="Flag_of_Dortmund.svg"
   inkscape:output_extension="org.inkscape.output.svg.inkscape">
  <metadata
     id="metadata1936">
    <rdf:RDF>
      <cc:Work
         rdf:about="">
        <dc:format>image/svg+xml</dc:format>
        <dc:type
           rdf:resource="http://purl.org/dc/dcmitype/StillImage" />
      </cc:Work>
    </rdf:RDF>
  </metadata>
  <sodipodi:namedview
     inkscape:window-height="988"
     inkscape:window-width="1680"
     inkscape:pageshadow="2"
     inkscape:pageopacity="0.0"
     guidetolerance="10.0"
     gridtolerance="10.0"
     objecttolerance="10.0"
     borderopacity="1.0"
     bordercolor="#666666"
     pagecolor="#ffffff"
     id="base"
     inkscape:zoom="2.3172287"
     inkscape:cx="185.5"
     inkscape:cy="115.5"
     inkscape:window-x="-8"
     inkscape:window-y="-8"
     inkscape:current-layer="svg2"
     showgrid="false"
     showguides="true"
     inkscape:guide-bbox="true"
     inkscape:window-maximized="1">
    <inkscape:grid
       type="xygrid"
       id="grid3302" />
  </sodipodi:namedview>
  <defs
     id="defs5">
    <inkscape:perspective
       sodipodi:type="inkscape:persp3d"
       inkscape:vp_x="0 : 115.5 : 1"
       inkscape:vp_y="0 : 1000 : 0"
       inkscape:vp_z="371 : 115.5 : 1"
       inkscape:persp3d-origin="185.5 : 77 : 1"
       id="perspective16" />
    <inkscape:perspective
       id="perspective3032"
       inkscape:persp3d-origin="0.5 : 0.33333333 : 1"
       inkscape:vp_z="1 : 0.5 : 1"
       inkscape:vp_y="0 : 1000 : 0"
       inkscape:vp_x="0 : 0.5 : 1"
       sodipodi:type="inkscape:persp3d" />
    <linearGradient
       x1="111.77808"
       y1="88.617287"
       x2="144.49191"
       y2="130.34142"
       id="linearGradient2491"
       xlink:href="#linearGradient2918"
       gradientUnits="userSpaceOnUse" />
    <linearGradient
       id="linearGradient2918">
      <stop
         style="stop-color:#000000;stop-opacity:0.86274511"
         offset="0"
         id="stop2920" />
      <stop
         style="stop-color:#000000;stop-opacity:0.70588237"
         offset="0.05"
         id="stop4696" />
      <stop
         style="stop-color:#000000;stop-opacity:0"
         offset="1"
         id="stop2922" />
    </linearGradient>
    <linearGradient
       x1="154.58237"
       y1="137.03961"
       x2="113.13128"
       y2="156.59207"
       id="linearGradient2493"
       xlink:href="#linearGradient2918"
       gradientUnits="userSpaceOnUse" />
    <linearGradient
       id="linearGradient3042">
      <stop
         style="stop-color:#000000;stop-opacity:0.86274511"
         offset="0"
         id="stop3044" />
      <stop
         style="stop-color:#000000;stop-opacity:0.70588237"
         offset="0.05"
         id="stop3046" />
      <stop
         style="stop-color:#000000;stop-opacity:0"
         offset="1"
         id="stop3048" />
    </linearGradient>
  </defs>
  <rect
     width="371"
     height="115.5"
     x="0"
     y="0"
     style="opacity:1;fill:#d40000;fill-opacity:1"
     id="rect1873" />
  <rect
     width="371"
     height="115.5"
     x="0"
     y="115.5"
     style="opacity:1;fill:#ffffff;fill-opacity:1"
     id="rect2783" />
  <g
     transform="matrix(1.3829118,0,0,1.3540281,118.04851,37.681372)"
     id="g2411">
    <path
       d="m 0.96875,0.59375 0,72.1875 c -4.23e-6,0.01049 -3.38e-6,0.02076 0,0.03125 0.008124,25.170495 21.950234,45.59275 49.03125,45.59375 27.092303,0.001 49.039257,-20.44005 49.03125,-45.625 l 0,-72.1875 -98.0625,0 z"
       style="color:#000000;fill:#ffffff;fill-opacity:1;fill-rule:nonzero;stroke:#000000;stroke-width:0.91667026;stroke-linecap:round;stroke-linejoin:round;stroke-miterlimit:4;stroke-opacity:1;stroke-dasharray:none;stroke-dashoffset:0;marker:none;visibility:visible;display:inline;overflow:visible"
       id="path7665" />
    <g
       transform="matrix(0.458342,0,0,0.458342,0.040958,-0.3127)"
       id="g7589">
      <path
         d="m 82.902174,68.837339 c 0,0 -16.21469,-14.751711 -17.311924,-18.287244 -1.097235,-3.535534 -2.19447,-10.972347 -2.19447,-10.972347 l -18.043414,0.97532 9.631282,34.136189 c 0,0 0,-4.267024 0.853405,-4.023194 0.853405,0.24383 1.584894,4.267024 2.072554,5.120429 0.48766,0.853404 1.21915,1.219149 1.21915,0.73149 0,-0.48766 1.097234,-2.560215 1.097234,-2.560215 0,0 0.121915,-0.609574 0.609575,-0.121915 0.48766,0.48766 2.804044,4.632769 1.584895,8.412133 -1.21915,3.779364 -1.828725,5.120428 -2.560214,5.486173 -0.73149,0.365745 1.584894,1.097235 2.804044,0.121915 1.219149,-0.97532 4.510853,-3.901279 4.632768,-4.632769 0.121915,-0.731489 1.70681,7.071068 0.73149,9.021708 -0.97532,1.950639 -3.291704,5.973833 -3.291704,5.973833 0,0 3.901279,-0.609575 5.364258,-1.70681 1.46298,-1.097234 3.657449,-5.364258 3.657449,-4.388938 0,0.975319 2.072555,4.754683 0.97532,6.217663 -1.097235,1.462979 -0.24383,3.41362 -0.24383,3.41362 L 104.48112,91.635437 104.23729,76.517982 c 0,0 -13.166813,-3.535534 -15.970857,-4.754684 -2.804044,-1.21915 -4.998514,-2.682129 -5.364259,-2.925959 z"
         style="color:#000000;fill:#ff0000;fill-opacity:1;fill-rule:nonzero;stroke:#000000;stroke-width:1;stroke-linecap:round;stroke-linejoin:round;stroke-miterlimit:4;stroke-opacity:1;stroke-dasharray:none;stroke-dashoffset:0;marker:none;visibility:visible;display:inline;overflow:visible"
         id="path24372" />
      <g
         style="display:inline"
         id="Anker">
        <path
           d="m 48.779507,235.56292 c 0,0 -1.049799,0.66365 -0.135437,0.6027 0.914362,-0.0609 8.412132,-5.60808 9.570325,-6.46149 1.158192,-0.8534 15.72703,-15.36128 19.323521,-20.42075 3.596492,-5.05948 5.181386,-11.88671 6.644366,-16.03182 1.462979,-4.14511 2.856971,-12.82938 2.807172,-13.04047 l 0.545489,-25.91136 -0.365745,26.0898 c 0,0 8.534048,-5.73 9.753197,-7.3149 1.21915,-1.58489 -0.121915,-5.36426 -1.341064,-11.58192 -1.21915,-6.21766 -5.364259,-16.3366 -6.217664,-18.16533 -0.853404,-1.82872 -1.917865,-3.25408 -2.925959,-2.80404 -5.127646,2.28911 -11.316741,22.0252 -14.75171,32.79512 0.121915,1.09724 10.850432,5.12043 10.850432,5.12043 0,0 -1.097235,9.26554 -2.19447,13.0449 -1.097234,3.77936 -3.159062,13.54087 -7.314898,18.89682 -10.164056,13.09922 -15.754534,17.16342 -24.247555,25.18231 z m 5.875665,-183.493955 -0.517241,-8.965517 -8.706896,0.258621 -1.810345,9.224138 m 5.02338,183.579413 c -0.914362,0.061 -9.326495,-9.4484 -10.484687,-10.78947 -1.158192,-1.34106 -9.692239,-12.6182 -12.130539,-18.10437 -2.438299,-5.48617 -8.290217,-18.28725 -9.143622,-21.51799 -0.853404,-3.23075 -1.280107,-4.93756 -1.280107,-4.93756 0,0 -2.621171,-0.54862 -4.876598,-2.74308 -2.2554271,-2.19447 -3.3526618,-5.91288 -3.1088318,-8.47309 0.2438299,-2.56022 1.4629795,-15.11746 1.8896819,-16.6414 0.4267023,-1.52393 2.0115969,-13.41064 3.3526619,-13.53256 1.341064,-0.12191 3.596491,1.03628 4.449896,2.25543 0.853404,1.21915 13.898305,24.99257 14.142135,26.63842 0.24383,1.64585 0.121915,3.96223 -1.158192,5.05947 -1.280107,1.09723 -6.472586,5.64686 -6.472586,5.64686 l -6.267527,-21.13006 6.464258,21.16249 c 0.11915,0.41646 1.947874,7.97518 4.325216,12.42508 2.377342,4.4499 5.181386,11.27714 7.192983,14.44692 2.011596,3.16979 3.352661,6.64437 5.181385,6.8882 1.828725,0.24383 2.68213,0.24383 2.743087,-1.28011 0.06096,-1.52393 0.121915,-65.40737 0.182873,-65.40737 l 0.426702,-83.938457 c 0,0 -21.700863,0.121915 -25.724057,0.121915 -4.023194,0 -5.730003,-1.158192 -6.583408,-2.560214 -0.853405,-1.402022 -0.609575,-6.52245 0.914362,-7.49777 1.523937,-0.97532 27.735654,0.24383 27.735654,0.24383 0,0 44.316089,-0.304788 45.596196,0.609575 1.280107,0.914362 0.73149,7.802557 -0.853405,9.326494 -1.584894,1.523937 -30.295868,0.304788 -30.295868,0.304788 l -0.365745,71.442169 0,66.56557 c 0,0 -0.365745,14.75171 0.48766,15.54416 8.342764,-0.52557 13.057348,-9.14614 17.129052,-15.4832 3.74173,-7.37998 7.463971,-15.00919 7.436813,-23.40768 l 3.079798,1.08877 c 0,0 -1.034483,8.06034 -1.25,9.13793 -0.215518,1.07759 -2.356333,13.97883 -8.353931,22.75534 -5.261204,7.69891 -15.030585,16.16909 -24.38131,25.78097 z"
           style="color:#000000;fill:#2a57c6;fill-opacity:1;fill-rule:nonzero;stroke:#000000;stroke-width:1;stroke-linecap:round;stroke-linejoin:round;stroke-miterlimit:4;stroke-opacity:1;stroke-dasharray:none;stroke-dashoffset:0;marker:none;visibility:visible;display:inline;overflow:visible"
           id="path13557" />
        <g
           id="g24230">
          <path
             d="m 69.491529,31.531361 c 0,9.426448 -6.440816,17.068094 -14.385965,17.068094 -7.945149,0 -14.385965,-7.641646 -14.385965,-17.068094 0,-9.426448 6.440816,-17.068094 14.385965,-17.068094 7.945149,0 14.385965,7.641646 14.385965,17.068094 l 0,0 z"
             transform="matrix(0.926857,0,0,0.895495,0.129324,-1.825196)"
             style="color:#000000;fill:none;stroke:#2a57c6;stroke-width:6.26606178;stroke-linecap:round;stroke-linejoin:round;stroke-miterlimit:4;stroke-opacity:1;stroke-dasharray:none;stroke-dashoffset:0;marker:none;visibility:visible;display:inline;overflow:visible"
             id="path17099" />
          <path
             d="m 69.491529,31.531361 c 0,9.426448 -6.440816,17.068094 -14.385965,17.068094 -7.945149,0 -14.385965,-7.641646 -14.385965,-17.068094 0,-9.426448 6.440816,-17.068094 14.385965,-17.068094 7.945149,0 14.385965,7.641646 14.385965,17.068094 l 0,0 z"
             transform="matrix(0.769363,0,0,0.74333,8.80813,2.972776)"
             style="color:#000000;fill:none;stroke:#000000;stroke-width:1.3223412;stroke-linecap:round;stroke-linejoin:round;stroke-miterlimit:4;stroke-opacity:1;stroke-dasharray:none;stroke-dashoffset:0;marker:none;visibility:visible;display:inline;overflow:visible"
             id="path19801" />
          <path
             d="m 69.491529,31.531361 c 0,9.426448 -6.440816,17.068094 -14.385965,17.068094 -7.945149,0 -14.385965,-7.641646 -14.385965,-17.068094 0,-9.426448 6.440816,-17.068094 14.385965,-17.068094 7.945149,0 14.385965,7.641646 14.385965,17.068094 l 0,0 z"
             transform="matrix(1.084351,0,0,1.04766,-8.549482,-6.623168)"
             style="color:#000000;fill:none;stroke:#000000;stroke-width:0.93822038;stroke-linecap:round;stroke-linejoin:round;stroke-miterlimit:4;stroke-opacity:1;stroke-dasharray:none;stroke-dashoffset:0;marker:none;visibility:visible;display:inline;overflow:visible"
             id="path19803" />
        </g>
      </g>
      <g
         id="g24361">
        <g
           id="g24353">
          <path
             d="m 63.030036,37.992854 c 0,0 3.535534,2.560214 3.291704,6.461493 -0.145291,2.324646 -1.097234,4.115358 -2.925959,6.583408 -1.133752,1.530113 -2.925959,2.194469 -4.754684,1.462979 -1.828724,-0.731489 -2.438299,-4.754683 -2.438299,-6.461493 0,-1.706809 0.365745,-2.804044 0.365745,-2.804044 2.698778,-1.180852 4.658747,-3.01456 6.461493,-5.242343 z"
             style="color:#000000;fill:#ff0000;fill-opacity:1;fill-rule:nonzero;stroke:#000000;stroke-width:1;stroke-linecap:round;stroke-linejoin:round;stroke-miterlimit:4;stroke-opacity:1;stroke-dasharray:none;stroke-dashoffset:0;marker:none;visibility:visible;display:inline;overflow:visible"
             id="path24348" />
          <path
             d="m 56.446628,44.332432 c 0,0 2.849317,-0.0035 3.413619,1.219149 0.73149,1.584895 1.280107,2.712608 0.121915,3.779364 -1.158192,1.066756 -1.21915,0.97532 -4.510854,0.853405 -3.291704,-0.121915 -4.998514,-1.584895 -4.998514,-1.584895 0,0 2.4383,-0.365745 3.047874,-0.609575 0.609575,-0.243829 3.047875,-3.657448 2.92596,-3.657448 z"
             style="color:#000000;fill:#2a57c6;fill-opacity:1;fill-rule:nonzero;stroke:#000000;stroke-width:1;stroke-linecap:round;stroke-linejoin:round;stroke-miterlimit:4;stroke-opacity:1;stroke-dasharray:none;stroke-dashoffset:0;marker:none;visibility:visible;display:inline;overflow:visible"
             id="path24351" />
        </g>
        <g
           id="g24344">
          <path
             d="m 39.378533,38.602428 c 3.413619,2.925959 4.632768,4.267024 5.120428,5.851918 0.48766,1.584895 1.46298,4.632769 -0.24383,5.851919 -1.706809,1.219149 -5.730003,1.950639 -6.949152,0.121915 -1.21915,-1.828725 -2.033948,-2.678882 -1.95064,-5.242344 0.112632,-3.465788 1.70479,-4.906441 4.023194,-6.583408 z"
             style="color:#000000;fill:#ff0000;fill-opacity:1;fill-rule:nonzero;stroke:#000000;stroke-width:1;stroke-linecap:round;stroke-linejoin:round;stroke-miterlimit:4;stroke-opacity:1;stroke-dasharray:none;stroke-dashoffset:0;marker:none;visibility:visible;display:inline;overflow:visible"
             id="path24339" />
          <path
             d="m 38.768958,48.599455 c 1.584895,-1.706809 3.657449,-0.853405 3.657449,-0.853405 0,0 0.853405,0.853405 2.072554,1.097235 1.21915,0.24383 3.535534,0.121915 3.535534,0.121915 0,0 -1.391447,2.230098 -2.804044,2.682129 -3.047874,0.97532 -5.364258,0.609575 -6.217663,0 -0.853405,-0.609575 -0.24383,-3.169789 -0.24383,-3.047874 z"
             style="color:#000000;fill:#2a57c6;fill-opacity:1;fill-rule:nonzero;stroke:#000000;stroke-width:1;stroke-linecap:round;stroke-linejoin:round;stroke-miterlimit:4;stroke-opacity:1;stroke-dasharray:none;stroke-dashoffset:0;marker:none;visibility:visible;display:inline;overflow:visible"
             id="path24342" />
        </g>
        <g
           id="g24357">
          <path
             d="m 59.860247,33.72583 c 0,0 -4.754684,-4.267024 -7.314898,-4.267024 -2.560214,0 -4.510854,1.097235 -6.095748,2.560214 -1.584895,1.46298 -3.779364,5.730003 -3.291704,7.436813 0.48766,1.706809 1.828724,3.413619 3.291704,4.388939 1.462979,0.975319 4.023193,1.584894 5.486173,0.975319 1.46298,-0.609575 3.413619,-2.072554 3.047874,-3.291704 -0.365745,-1.219149 -0.48766,-3.535533 -0.48766,-3.535533 0,0 2.92596,-0.487661 5.364259,-4.267024 z"
             style="color:#000000;fill:#ff0000;fill-opacity:1;fill-rule:nonzero;stroke:#000000;stroke-width:1;stroke-linecap:round;stroke-linejoin:round;stroke-miterlimit:4;stroke-opacity:1;stroke-dasharray:none;stroke-dashoffset:0;marker:none;visibility:visible;display:inline;overflow:visible"
             id="path24334" />
          <path
             d="m 45.718111,39.577748 c 2.682129,-0.609575 4.145108,0.365745 5.730003,2.316384 0,0 -1.097234,2.804045 -0.853404,4.510854 0.24383,1.70681 -0.365745,2.804044 0.853404,3.779364 1.21915,0.975319 1.584895,1.584894 1.584895,1.584894 0,0 -2.19447,0.609575 -3.657449,-0.24383 -1.46298,-0.853404 -3.901279,-3.779364 -4.267024,-5.242343 -0.365745,-1.46298 -0.73149,-3.047874 0.609575,-6.705323 z"
             style="color:#000000;fill:#2a57c6;fill-opacity:1;fill-rule:nonzero;stroke:#000000;stroke-width:1;stroke-linecap:round;stroke-linejoin:round;stroke-miterlimit:4;stroke-opacity:1;stroke-dasharray:none;stroke-dashoffset:0;marker:none;visibility:visible;display:inline;overflow:visible"
             id="path24337" />
        </g>
      </g>
      <path
         d="m 55.349393,119.55396 c 0,0 -8.534048,-9.75319 -11.460007,-9.99702 -2.925959,-0.24383 -6.827238,0.24383 -6.583408,2.92596 0.24383,2.68213 -0.24383,5.12042 1.70681,6.33957 1.950639,1.21915 9.509367,3.16979 9.509367,3.16979 l 6.827238,-2.4383 z"
         style="color:#000000;fill:#ff0000;fill-opacity:1;fill-rule:nonzero;stroke:#000000;stroke-width:1;stroke-linecap:round;stroke-linejoin:round;stroke-miterlimit:4;stroke-opacity:1;stroke-dasharray:none;stroke-dashoffset:0;marker:none;visibility:visible;display:inline;overflow:visible"
         id="path26201" />
      <path
         d="m 75.343447,103.70502 c 0,0 -4.876599,5.60809 -10.972347,7.80256 -6.095748,2.19447 -4.876598,5.36425 -8.534047,5.85191 -3.657449,0.48766 -5.364259,-1.95064 -8.534048,0.24383 -3.169789,2.19447 -2.682129,4.8766 -5.120428,4.38894 -2.438299,-0.48766 -2.925959,-2.68213 -6.583408,-0.73149 -3.657449,1.95064 -3.657448,2.92596 -3.413619,4.8766 0.24383,1.95064 1.950639,7.3149 3.901278,7.07107 1.95064,-0.24383 6.827238,-2.4383 6.583408,-3.65745 -0.24383,-1.21915 4.388939,-1.95064 3.90128,-0.73149 -0.48766,1.21915 -2.925959,3.16979 -4.388939,4.38894 -1.46298,1.21915 -1.21915,6.33958 0.487659,7.07107 1.70681,0.73149 6.583409,1.95064 7.071069,0.73149 0.487659,-1.21915 -0.48766,-5.36426 0.731489,-6.33958 1.21915,-0.97532 4.388939,-4.38894 4.145109,-2.68213 -0.243829,1.70681 -0.48766,4.38894 1.46298,4.63277 1.950639,0.24383 8.290217,1.21915 9.997027,-0.97532 1.706809,-2.19447 2.194469,-6.09575 0.975319,-6.82724 -1.219149,-0.73149 5.120429,-1.21915 6.095748,0.24383 0.97532,1.46298 5.120429,4.14511 5.120429,4.14511 0,0 -3.169789,-4.8766 -1.95064,-4.8766 1.21915,0 5.608089,-1.46298 8.046388,0 2.438299,1.46298 4.876598,2.68213 4.876598,2.68213 0,0 -3.413618,-5.36426 -1.462979,-5.36426 1.950639,0 6.339578,0.73149 7.802557,1.95064 1.46298,1.21915 3.413619,1.21915 3.413619,1.21915 l -3.413619,-6.09575 c 0,0 9.26554,2.19447 12.1915,2.19447 2.92596,0 8.77788,0.97532 8.77788,0.97532 0,0 -8.53315,-3.97563 -2.34687,-7.1625 1.0058,-0.51814 -8.0159,-18.805387 -9.11314,-20.634115 -2.19447,-3.65744 -29.747253,5.364265 -29.747253,5.608095 z"
         style="color:#000000;fill:#ff0000;fill-opacity:1;fill-rule:nonzero;stroke:#000000;stroke-width:1;stroke-linecap:round;stroke-linejoin:round;stroke-miterlimit:4;stroke-opacity:1;stroke-dasharray:none;stroke-dashoffset:0;marker:none;visibility:visible;display:inline;overflow:visible"
         id="path26198" />
      <path
         d="m 101.43325,99.559906 c 0,0 8.04638,21.457034 24.62682,26.577464 3.24494,1.00212 12.43533,2.4383 13.89831,4.38894 1.46298,1.95064 5.60809,3.90128 5.12043,7.07107 -0.48766,3.16979 -14.38597,10.97234 -19.01874,11.70383 -4.63277,0.73149 -7.80256,-0.48766 -9.26554,0.24383 -1.46298,0.73149 -9.0217,8.04639 -11.94766,8.53405 -2.92596,0.48766 -6.33958,0.97532 -6.33958,0.97532 0,0 5.36426,3.41362 6.82724,3.41362 1.46298,0 3.65745,9.26554 0,13.41065 -3.65745,4.1451 -8.29022,7.80255 -11.216179,7.80255 -2.925959,0 -10.972347,-0.24383 -14.142136,-1.70681 -3.169789,-1.46298 -3.169789,-3.90127 -5.364258,-3.90127 -2.194469,0 -2.438299,-0.48766 -4.876599,-1.46298 -2.438299,-0.97532 -4.388938,-1.95064 -5.851918,-0.73149 -1.462979,1.21915 -3.413619,2.92596 -3.169789,4.1451 0.24383,1.21915 0.24383,4.63277 1.21915,4.8766 0.97532,0.24383 7.314898,1.70681 7.314898,1.70681 0,0 -7.802558,0.73149 -9.997027,-0.48766 -2.19447,-1.21915 -3.169789,-2.92596 -5.120429,-1.46298 -1.950639,1.46298 -2.682129,5.85192 -1.462979,8.04639 1.219149,2.19447 5.608088,3.90128 6.827238,3.16979 1.219149,-0.73149 2.438299,-3.16979 4.632768,-2.4383 2.19447,0.73149 -2.682129,5.36426 -3.169789,6.82724 -0.48766,1.46298 2.19447,6.82724 4.876599,7.07107 2.682129,0.24383 5.120428,-5.60809 5.120428,-5.60809 l 0.48766,-2.68213 c 0,0 11.460006,5.60809 12.191496,4.8766 0.73149,-0.73149 2.925959,-2.4383 2.925959,-2.4383 0,0 -3.657449,2.92596 -2.682129,4.38894 0.97532,1.46298 2.682129,2.92596 2.682129,2.92596 0,0 -0.24383,-0.73149 0.73149,-3.16979 0.97532,-2.4383 4.632769,-4.63277 4.876599,-2.92596 0.243829,1.70681 -1.46298,4.8766 -0.48766,6.58341 0.975319,1.70681 3.413619,2.92595 3.413619,2.92595 0,0 -0.97532,-4.38893 0.24383,-5.85191 1.219149,-1.46298 4.876599,-1.21915 5.364259,-2.4383 0.48766,-1.21915 -1.706811,6.09575 1.46298,9.0217 3.16979,2.92596 7.07107,4.8766 7.55873,3.90128 0.48766,-0.97532 -2.4383,-2.19447 -2.68213,-4.63277 -0.24383,-2.43829 -1.21915,-4.63276 0.48766,-4.63276 1.70681,0 6.5834,-3.90128 6.5834,-3.90128 0,0 0.97532,5.12043 2.68213,6.09575 1.70681,0.97532 5.85192,1.7068 4.8766,0.73149 -0.97532,-0.97532 -4.38894,-3.41362 -2.92596,-8.04639 1.46298,-4.63277 5.85192,-4.38894 6.09575,-9.50937 0.24383,-5.12043 -1.46298,-11.46001 2.19447,-13.89831 3.65745,-2.43829 10.24086,-12.19149 13.16682,-14.14213 2.92596,-1.95064 5.60808,0.97532 7.31489,-0.97532 1.70681,-1.95064 0.73149,-8.77788 1.70681,-10.48469 0.97532,-1.70681 5.36426,-5.36426 5.12043,-7.31489 -0.24383,-1.95064 -2.68213,-8.53405 -2.68213,-8.53405 0,0 4.14511,8.77788 3.16979,9.75319 -0.97532,0.97532 -5.36426,5.36426 -5.60809,6.58341 -0.24383,1.21915 -1.46298,9.26554 -1.95064,10.72852 -0.48766,1.46298 -0.73149,15.11745 -2.19446,17.55575 -1.46298,2.4383 -7.3149,10.97235 -6.58341,11.46001 0.73149,0.48766 6.09575,-2.4383 8.29021,-4.8766 2.19447,-2.4383 1.21915,-5.36426 3.16979,-4.38894 1.95064,0.97532 7.3149,5.36426 7.3149,7.3149 0,1.95064 -0.24383,18.53108 -2.68213,18.53108 -2.4383,0 -5.12043,-1.46298 -7.07107,-2.92596 -1.95063,-1.46298 -4.87659,-2.19447 -6.33957,-0.97532 -1.46298,1.21915 -4.38894,5.12042 -3.41362,6.33957 0.97532,1.21915 3.90128,3.90128 6.09575,2.92596 2.19446,-0.97532 5.85191,-0.24383 5.36425,0.48766 -0.48766,0.73149 -1.95064,4.8766 -4.38893,4.38894 -2.4383,-0.48766 -7.07107,-1.95064 -8.77788,-0.73149 -1.70681,1.21915 -3.65745,10.72852 -1.21915,11.94767 2.4383,1.21915 7.80256,2.19447 8.77788,0.24383 0.97532,-1.95064 -0.24383,-4.14511 1.70681,-4.38894 1.95063,-0.24383 9.0217,-2.68213 9.26553,-1.46298 0.24383,1.21915 0.73149,4.8766 -0.97532,5.60809 -1.70681,0.73149 -2.4383,4.14511 -1.21915,5.60809 1.21915,1.46298 6.82724,4.8766 9.02171,2.92596 2.19447,-1.95064 3.90128,-4.63277 1.70681,-5.85192 -2.19447,-1.21915 -1.95064,-4.38894 0,-5.60809 1.95064,-1.21915 5.12043,-7.3149 6.82724,-6.09575 1.70681,1.21915 2.68213,2.68213 5.36426,2.68213 2.68213,0 4.1451,-0.97532 4.63276,-2.92596 0.48766,-1.95064 1.21915,-7.80256 -2.43829,-7.80256 -3.65745,0 -6.09575,0 -6.09575,0 l 2.19447,-3.65744 c 0,0 0.48766,1.46297 2.19447,0.97531 1.70681,-0.48766 0.24383,-6.5834 1.70681,-6.33957 1.46297,0.24383 3.16978,2.68213 6.33957,3.41362 3.16979,0.73149 6.82724,-1.21915 5.12043,-0.97532 -1.70681,0.24383 -6.33958,-3.65745 -7.07107,-6.09575 -0.73149,-2.4383 2.19447,0.24383 3.90128,0.48766 1.70681,0.24383 6.33958,0.97532 9.50937,-0.48766 3.16979,-1.46298 6.58341,-5.12043 4.63277,-4.8766 -1.95064,0.24383 -3.41362,1.70681 -6.58341,1.46298 -3.16979,-0.24383 -7.80256,-2.92596 -8.77788,-4.14511 -0.97532,-1.21915 4.8766,0 7.07107,-0.24383 2.19447,-0.24383 9.26554,-2.68213 10.24086,-5.12043 0.97532,-2.4383 2.19447,-6.09575 0.73149,-5.12043 -1.46298,0.97532 -4.14511,5.60809 -6.82724,5.36426 -2.68213,-0.24383 -13.89831,-1.46298 -15.84895,-2.4383 -1.95063,-0.97532 -8.53404,-12.43532 -8.04638,-14.62979 0.48766,-2.19447 5.60809,-20.72555 5.60809,-20.72555 0,0 1.21914,-9.0217 -4.14511,-15.11745 -5.36426,-6.09575 -12.1915,-16.33661 -15.60512,-22.92002 -3.41362,-6.5834 -27.55278,-32.429375 -27.55278,-32.429375 l -28.77193,18.531071 z"
         style="color:#000000;fill:#ff0000;fill-opacity:1;fill-rule:nonzero;stroke:#000000;stroke-width:1;stroke-linecap:round;stroke-linejoin:round;stroke-miterlimit:4;stroke-opacity:1;stroke-dasharray:none;stroke-dashoffset:0;marker:none;visibility:visible;display:inline;overflow:visible"
         id="path26217" />
      <path
         d="m 101.43325,99.559906 c 0,0 8.04638,21.457034 24.62682,26.577464 3.24494,1.00212 11.97579,2.8892 13.89831,4.38894 10.21755,7.97057 25.92238,16.02797 17.79958,-17.0681 -1.76761,-7.20205 -27.55278,-32.429375 -27.55278,-32.429375 l -28.77193,18.531071 z"
         style="color:#000000;fill:url(#linearGradient2491);fill-opacity:1;fill-rule:nonzero;stroke:none;stroke-width:1;marker:none;visibility:visible;display:inline;overflow:visible"
         id="path5583" />
      <path
         d="m 123.37795,64.143613 c 0,0 -2.07256,3.047874 -3.77937,3.413619 -1.70681,0.365745 -6.09575,-1.402022 -7.86352,-1.097235 -1.76776,0.304787 -4.99851,2.743087 -8.1683,2.377342 -3.16979,-0.365745 -5.79096,-0.182873 -6.583407,-1.402022 -0.792448,-1.21915 -1.645852,-5.608089 -2.19447,-5.364259 -0.548617,0.24383 1.097235,7.192983 1.523937,8.107345 0.426703,0.914363 2.19447,1.402022 1.584895,2.133512 -0.609575,0.73149 -6.705323,4.267024 -11.216177,4.876599 -4.510853,0.609575 -6.949153,0.853404 -9.326494,-0.670533 -2.377342,-1.523937 -5.425216,-3.657448 -5.486174,-2.377341 -0.06096,1.280107 6.583408,7.25394 8.290218,7.98543 1.706809,0.731489 5.242343,2.316384 8.534047,1.706809 3.291704,-0.609575 8.22926,-4.084151 8.22926,-4.084151 0,0 -5.973833,3.840321 -8.046387,4.084151 -2.072555,0.24383 -9.326495,13.959263 -13.166816,15.117456 -3.840322,1.158195 -6.766281,2.316385 -8.412133,1.462975 -1.645852,-0.853401 -3.962236,-0.914358 -4.815641,-2.80404 -0.853404,-1.889682 -1.036277,-3.535534 -1.341064,-3.047874 -0.304788,0.48766 -0.426703,4.327981 1.097234,5.730004 1.523937,1.40202 10.240857,5.97383 12.801071,6.1567 2.560215,0.18288 11.399049,-4.93755 11.399049,-4.93755 0,0 -2.682129,6.03479 -4.388938,7.43681 -1.70681,1.40202 -4.084151,2.31639 -5.364259,2.56022 -1.280107,0.24383 -0.731489,0.4267 -0.731489,0.4267 0,0 6.27862,1.28011 8.777877,-0.30479 2.499257,-1.58489 7.25394,-7.92447 8.777877,-7.98543 1.523937,-0.061 2.072555,0.79245 1.036277,1.64585 -1.036277,0.85341 -4.449896,4.69373 -3.779363,7.7416 0.670532,3.04788 8.168302,6.40054 8.473089,6.40054 0.304788,0 -2.865001,-4.63277 -1.523937,-6.82724 1.341065,-2.19447 6.522448,-6.64437 6.583408,-6.27862 0.061,0.36574 -2.865,3.47458 -2.19447,4.69373 0.67053,1.21915 1.64585,2.865 1.76777,2.07255 0.12191,-0.79245 6.33958,-5.85192 6.70532,-5.12043 0.36575,0.73149 1.46298,3.04788 2.4383,3.04788 0.97532,0 0.60957,-4.38894 1.46298,-7.3149 0.8534,-2.92596 1.21915,-4.754685 1.58489,-4.145111 0.36575,0.609571 -1.34106,9.387451 -1.34106,12.313411 0,2.92596 2.19447,6.46149 3.53553,6.94915 1.34107,0.48766 4.0232,2.07256 6.70533,1.46298 2.68213,-0.60957 4.14511,-2.80404 4.02319,-3.77936 -0.12191,-0.97532 -0.48766,-1.34107 -1.21915,-0.97532 -0.73149,0.36574 -1.34106,2.92596 -3.16979,2.31638 -1.82872,-0.60957 -3.16979,-2.07255 -2.31638,-3.90127 0.8534,-1.82873 4.02319,-4.38894 4.02319,-6.33958 0,-1.95064 -2.07255,-6.21767 -1.70681,-6.94916 0.36575,-0.731486 1.46298,7.19299 2.68213,7.55873 1.21915,0.36575 5.36426,1.34107 5.36426,-0.8534 0,-2.19447 -1.09724,-6.09575 -1.46298,-4.8766 -0.36575,1.21915 0.24383,3.2917 -1.09724,3.04787 -1.34106,-0.24383 -2.31638,-2.92596 -1.58489,-4.26702 0.73149,-1.341066 2.80404,-1.95064 3.65745,-0.73149 0.8534,1.21915 1.70681,3.16979 4.75468,3.04787 3.04788,-0.12191 3.90128,-1.09723 3.04788,-1.34106 -0.85341,-0.24383 -2.56022,0.12191 -3.77937,-0.85341 -1.21915,-0.97532 1.82873,-5.608084 2.68213,-4.75468 0.85341,0.853405 2.68213,5.85192 5.60809,5.85192 2.92596,0 7.3149,-2.925961 7.43681,-3.41362 0.12192,-0.48766 -1.70681,0 -4.02319,-0.97532 -2.31638,-0.97532 -3.90128,-4.510854 -3.53553,-6.827238 0.36574,-2.316384 1.09723,-6.583408 2.80404,-6.339578 1.70681,0.24383 4.75468,1.341065 6.46149,0.48766 1.70681,-0.853405 3.65745,-2.19447 2.4383,-2.072555 -1.21915,0.121915 -2.4383,1.341065 -3.65745,0 -1.21915,-1.341064 -4.38894,-3.901278 -2.56021,-7.558727 1.82872,-3.657449 4.51085,-3.047874 3.77936,-4.632769 -0.73149,-1.584894 -1.95064,-7.071068 -0.60957,-7.314898 1.34106,-0.243829 2.92596,-0.121915 4.02319,-0.975319 1.09724,-0.853405 -2.19447,-0.48766 -2.19447,-1.828725 0,-1.341064 -3.41362,-18.043414 -2.07255,-18.409159 1.34106,-0.365745 2.56021,1.21915 2.92596,0.48766 0.36574,-0.73149 -3.16979,-4.510854 -3.41362,-5.851918 -0.24383,-1.341065 0.60957,-4.754684 0.73149,-7.192983 0.12191,-2.438299 -5.85192,-6.949153 -7.92447,-6.827238 -2.07256,0.121915 -21.82278,-0.609575 -24.50491,1.46298 -2.68213,2.072554 -2.31639,3.413618 -4.14511,3.779363 -1.82873,0.365745 -5.48617,0 -6.21766,0.97532 -0.73149,0.97532 -2.31639,3.657449 -2.19447,4.876599 0.12191,1.219149 -0.12192,4.510853 1.21915,5.486173 1.34106,0.97532 5.60808,2.804044 7.55872,2.804044 1.95064,0 13.65448,-1.341065 14.75171,0.24383 1.09724,1.584894 3.04788,3.047874 2.80405,4.876598 -0.24383,1.828725 0.48766,8.899793 -1.46298,9.875112 -1.95064,0.97532 -12.06958,1.584895 -13.65448,2.072555 -1.58489,0.48766 -2.19447,1.584894 -1.46298,3.291704 0.73149,1.706809 16.70235,1.219149 19.87214,-1.21915 3.16979,-2.438299 4.51086,-3.657449 4.38894,-4.267024 -0.12191,-0.609574 0.24383,-5.242343 1.82873,-6.705323 1.58489,-1.462979 2.92595,-3.291704 2.92595,-4.632768"
         style="color:#000000;fill:#ff0000;fill-opacity:1;fill-rule:nonzero;stroke:#000000;stroke-width:1;stroke-linecap:round;stroke-linejoin:round;stroke-miterlimit:4;stroke-opacity:1;stroke-dasharray:none;stroke-dashoffset:0;marker:none;visibility:visible;display:inline;overflow:visible"
         id="path24399" />
      <g
         id="g24407">
        <path
           d="m 143.67678,28.666359 c 0,0 1.88969,-2.4383 3.71841,-2.316385 1.82872,0.121915 3.84032,0.792448 4.08415,2.377342 0.24383,1.584895 -0.061,8.412133 -1.28011,8.96075 -1.21915,0.548617 -3.7184,0.853405 -4.44989,0.121915"
           style="color:#000000;fill:#ff0000;fill-opacity:1;fill-rule:nonzero;stroke:#000000;stroke-width:1;stroke-linecap:round;stroke-linejoin:round;stroke-miterlimit:4;stroke-opacity:1;stroke-dasharray:none;stroke-dashoffset:0;marker:none;visibility:visible;display:inline;overflow:visible"
           id="path24402" />
        <path
           d="m 147.5171,30.495083 c -0.12191,-1.097235 1.5849,-1.036277 1.5849,-1.036277 0,0 0.73149,-0.06096 0.8534,0.426702 0.12192,0.48766 0,3.230747 -0.91436,3.657449 -0.91436,0.426703 -1.82872,1.280107 -2.19447,0.609575 -0.36574,-0.670532 -0.0126,-0.898093 0.4267,-0.914362 1.64586,-0.06096 -1.03627,1.280107 1.28011,-0.121915 0.37606,-0.227613 2.31638,-3.901279 -1.03628,-2.621172 z"
           style="color:#000000;fill:#ff0000;fill-opacity:1;fill-rule:nonzero;stroke:#000000;stroke-width:1;stroke-linecap:round;stroke-linejoin:round;stroke-miterlimit:4;stroke-opacity:1;stroke-dasharray:none;stroke-dashoffset:0;marker:none;visibility:visible;display:inline;overflow:visible"
           id="path24405" />
      </g>
      <g
         id="g26186">
        <path
           d="m 110.8207,33.299127 c -0.36574,0.670533 0.91436,1.70681 0.91436,1.70681 0,0 0.061,0.24383 0.24383,-0.121915 0.18288,-0.365745 -1.15819,-1.645852 -1.15819,-1.584895 z m 6.40054,-4.815641 c 0,0 1.52393,3.352662 3.23074,4.206066 1.70681,0.853405 5.60809,-2.499256 7.49777,-2.133511 1.88969,0.365744 3.90128,1.341064 4.63277,2.072554 0.73149,0.73149 1.21915,2.621172 2.49926,3.047874 1.28011,0.426702 3.35266,-0.121915 3.35266,-0.121915"
           style="color:#000000;fill:none;stroke:#000000;stroke-width:1;stroke-linecap:round;stroke-linejoin:round;stroke-miterlimit:4;stroke-opacity:1;stroke-dasharray:none;stroke-dashoffset:0;marker:none;visibility:visible;display:inline;overflow:visible"
           id="path24411" />
        <path
           d="m 127.64497,30.677956 c -1.95064,0.73149 -3.04788,1.036277 -2.31639,1.767767 0.73149,0.73149 1.21915,1.706809 2.49926,1.462979 1.28011,-0.24383 3.53553,-1.219149 2.92596,-1.584894 -0.60958,-0.365745 -2.49926,-1.70681 -3.10883,-1.645852 z"
           style="color:#000000;fill:#000000;fill-opacity:1;fill-rule:nonzero;stroke:#000000;stroke-width:1;stroke-linecap:round;stroke-linejoin:round;stroke-miterlimit:4;stroke-opacity:1;stroke-dasharray:none;stroke-dashoffset:0;marker:none;visibility:visible;display:inline;overflow:visible"
           id="path25299" />
      </g>
      <path
         d="m 120.69581,24.826037 c 0,0 9.38745,-1.584894 12.55724,-0.975319 3.16979,0.609575 13.41065,2.804044 13.41065,2.804044 0,0 0.24383,-4.998514 1.46298,-6.583408 1.21915,-1.584895 1.58489,-2.438299 1.58489,-2.438299 0,0 0.24383,1.950639 1.82873,1.950639 1.58489,0 4.14511,-0.609575 3.77936,-2.316384 -0.36574,-1.70681 -1.66624,-2.308675 -1.70681,-3.169789 -0.13385,-2.84143 0.69264,-4.027551 1.37154,-5.958594 0.5228,-0.8413663 -1.0058,-0.3809843 -2.34686,0.2285905 -0.66592,0.3026927 -2.4383,1.8287245 -3.77936,1.9506395 -1.34107,0.121915 -3.90128,-0.24383 -4.75468,0.24383 -0.85341,0.48766 -1.34107,1.828724 -0.85341,2.682129 0.48766,0.853405 3.2917,2.560214 3.2917,2.560214 0,0 -1.82872,2.072555 -3.65744,2.560214 -1.82873,0.48766 -2.92596,0.73149 -4.38894,-0.243829 -1.46298,-0.97532 -2.19447,-4.267024 -2.19447,-4.267024 0,0 3.65745,0.48766 4.02319,-0.73149 0.36575,-1.21915 1.09724,-2.804044 -0.48766,-3.5355338 -1.58489,-0.7314898 -3.65745,-2.4382993 -3.90128,-3.1697891 -0.24383,-0.7314897 -1.95064,-3.9012788 -3.16979,-1.8287244 -0.75453,1.2826977 -0.73149,3.0478741 -2.19447,3.4136189 -1.46297,0.3657449 -4.02319,0.4876599 -4.75468,1.5848946 -0.73149,1.0972348 -0.97532,3.5355338 0.36575,3.6574488 1.34106,0.121915 3.16979,-0.48766 3.65744,0.24383 0.48766,0.73149 1.70681,2.438299 0.73149,2.804044 -0.97531,0.365745 -5.97383,1.584895 -7.07106,0.609575 -1.09724,-0.97532 -2.68213,-1.950639 -1.46298,-3.047874 1.21915,-1.097235 2.80404,-1.341065 1.95064,-2.925959 -0.85341,-1.5848948 -2.92596,-0.853405 -4.63277,-1.2191498 -1.70681,-0.365745 -1.93631,-0.3370776 -3.77936,-1.4629797 -0.7448,-0.4549867 -1.34107,-0.8534047 -3.21551,-0.990559 0.0762,1.6915701 0.47242,3.1850285 0.41146,3.5507735 -0.12192,0.73149 0,2.804044 -0.73149,3.657449 -0.73149,0.853404 -1.21915,2.438299 -0.24383,2.925959 0.97532,0.48766 2.31638,1.706809 3.04787,1.219149 0.73149,-0.487659 2.92596,-2.682129 2.92596,-2.682129 0,0 1.70681,1.70681 1.95064,2.804044 0.24383,1.097235 1.09724,6.095748 0.97532,6.095748 z"
         style="color:#000000;fill:#2a57c6;fill-opacity:1;fill-rule:nonzero;stroke:#000000;stroke-width:1;stroke-linecap:round;stroke-linejoin:round;stroke-miterlimit:4;stroke-opacity:1;stroke-dasharray:none;stroke-dashoffset:0;marker:none;visibility:visible;display:inline;overflow:visible"
         id="path26190" />
      <path
         d="m 116.79453,42.747537 c 0,0 -0.8534,3.047874 -0.24383,3.535534 0.60958,0.48766 2.68213,0.365745 3.41362,-0.73149 0.73149,-1.097235 1.21915,-2.804044 1.21915,-2.804044 l -4.38894,0 z m 4.14511,-0.24383 6.21767,0.48766 c 0,0 -1.82873,2.804044 -2.4383,2.925959 -0.60958,0.121915 -3.41362,-3.291704 -3.77937,-3.413619 z m 6.70533,0.48766 c 0,0 3.41361,-0.73149 3.90127,0 0.48766,0.73149 -0.97532,3.291704 -1.58489,3.169789 -0.60957,-0.121915 -2.31638,-2.925959 -2.31638,-3.169789 z m 2.43829,14.020221 c 0,0 2.68213,0.853404 3.29171,-0.365745 0.60957,-1.21915 -1.5849,-3.535534 -2.31639,-3.169789 -0.73149,0.365745 -0.8534,3.291704 -0.97532,3.535534 z m -0.8534,0.121915 c 0,0 0.97532,-3.535534 -0.24383,-3.291704 -1.21915,0.243829 -2.68213,0.609574 -2.68213,1.828724 0,1.21915 0.24383,1.097235 0.97532,1.341065 0.73149,0.243829 2.07256,0.365744 1.95064,0.121915 z m -3.90128,0.365744 c 0,0 1.21915,-1.828724 0,-2.316384 -1.21915,-0.48766 -2.68213,-1.462979 -3.16979,-0.73149 -0.48766,0.73149 -1.46298,2.19447 -0.8534,2.804044 0.60957,0.609575 4.26702,0.365745 4.02319,0.24383 z m -5.36426,1.097235 c 0,0 1.09724,0 0.60958,-1.21915 -0.48766,-1.219149 -0.48766,-2.560214 -1.34107,-1.950639 -0.8534,0.609575 -1.21915,1.950639 -0.73149,2.682129 0.48766,0.73149 1.82873,0.73149 1.46298,0.48766 z"
         style="color:#000000;fill:#ffffff;fill-opacity:1;fill-rule:nonzero;stroke:#000000;stroke-width:1;stroke-linecap:round;stroke-linejoin:round;stroke-miterlimit:4;stroke-opacity:1;stroke-dasharray:none;stroke-dashoffset:0;marker:none;visibility:visible;display:inline;overflow:visible"
         id="path26193" />
      <path
         d="m 133.49688,50.915839 c 0,0 -6.5834,-2.682129 -10.6066,-2.316384 -4.02319,0.365745 -9.87511,1.828725 -14.14213,0.853405 -4.26703,-0.97532 -8.29022,-4.998514 -10.118945,-5.242344 -1.828725,-0.243829 -4.023194,0.365745 -3.779364,1.21915 0.24383,0.853405 0.609575,2.560214 3.413619,4.023194 2.80404,1.462979 5.48617,3.291704 7.07107,3.291704 1.58489,0 9.99702,0.121915 12.19149,-0.24383 2.19447,-0.365745 3.90128,-1.70681 5.60809,-1.21915 1.70681,0.48766 6.82724,2.925959 8.65596,2.925959 1.82873,0 2.4383,-0.24383 2.4383,-0.24383 l -0.73149,-3.047874 z"
         style="color:#000000;fill:#2a57c6;fill-opacity:1;fill-rule:nonzero;stroke:#000000;stroke-width:1;stroke-linecap:round;stroke-linejoin:round;stroke-miterlimit:4;stroke-opacity:1;stroke-dasharray:none;stroke-dashoffset:0;marker:none;visibility:visible;display:inline;overflow:visible"
         id="path26196" />
      <path
         d="m 40.963428,114.18971 c 1.219149,-2.92596 0.975319,-4.14511 -0.73149,-4.14511 -1.70681,0 -5.120428,0.97532 -5.608088,2.4383 -0.48766,1.46298 0,5.60808 0,5.60808 l 0.48766,0.73149 c 0,0 0,-3.16978 1.950639,-3.16978 1.950639,0 2.682129,0.73148 3.413619,0 0.73149,-0.73149 0.97532,-1.21915 0.48766,-1.46298 z"
         style="color:#000000;fill:#2a57c6;fill-opacity:1;fill-rule:nonzero;stroke:#000000;stroke-width:1;stroke-linecap:round;stroke-linejoin:round;stroke-miterlimit:4;stroke-opacity:1;stroke-dasharray:none;stroke-dashoffset:0;marker:none;visibility:visible;display:inline;overflow:visible"
         id="path26203" />
      <path
         d="m 33.4047,129.55099 c 1.462979,-3.65745 4.632768,-3.41362 0.975319,-3.90128 -3.657448,-0.48766 -3.901278,-0.24383 -4.632768,0.97532 -0.73149,1.21915 -2.925959,1.46298 -2.438299,3.90128 0.487659,2.4383 1.706809,4.14511 1.706809,4.14511 0,0 -0.48766,-2.92596 0.73149,-3.41362 1.219149,-0.48766 3.901279,-1.21915 3.657449,-1.70681 z"
         style="color:#000000;fill:#2a57c6;fill-opacity:1;fill-rule:nonzero;stroke:#000000;stroke-width:1;stroke-linecap:round;stroke-linejoin:round;stroke-miterlimit:4;stroke-opacity:1;stroke-dasharray:none;stroke-dashoffset:0;marker:none;visibility:visible;display:inline;overflow:visible"
         id="path26205" />
      <path
         d="m 42.426407,136.1344 c -1.950639,2.19447 -2.682129,6.58341 -1.70681,7.55873 0.97532,0.97532 1.95064,1.21915 1.95064,1.21915 0,0 1.706809,-3.41362 1.950639,-4.63277 0.24383,-1.21915 -1.706809,-3.90128 -2.194469,-4.14511 z"
         style="color:#000000;fill:#2a57c6;fill-opacity:1;fill-rule:nonzero;stroke:#000000;stroke-width:1;stroke-linecap:round;stroke-linejoin:round;stroke-miterlimit:4;stroke-opacity:1;stroke-dasharray:none;stroke-dashoffset:0;marker:none;visibility:visible;display:inline;overflow:visible"
         id="path26207" />
      <path
         d="m 57.056202,134.67142 c 1.914754,3.22847 1.42491,4.60123 -1.950639,6.33958 0,0 3.657449,-0.24383 5.364258,-0.97532 1.70681,-0.73149 2.925959,-4.8766 2.925959,-4.8766 0,0 0.24383,-1.70681 -1.706809,-1.21915 -1.95064,0.48766 -3.901279,0.73149 -4.632769,0.73149 z"
         style="color:#000000;fill:#2a57c6;fill-opacity:1;fill-rule:nonzero;stroke:#000000;stroke-width:1;stroke-linecap:round;stroke-linejoin:round;stroke-miterlimit:4;stroke-opacity:1;stroke-dasharray:none;stroke-dashoffset:0;marker:none;visibility:visible;display:inline;overflow:visible"
         id="path26209" />
      <g
         id="g28943">
        <path
           d="m 80.086207,204.65517 c 0,0 2.622642,-4.46964 4.094828,-9.78448 1.271552,-4.59052 2.543103,-12.5431 2.543103,-12.5431 l -7.241379,-1.72414 c 0,0 -1.551725,7.41379 -2.844828,10.43103 -0.960491,2.24115 -4.827586,10.34483 -4.827586,10.34483 l 8.275862,3.27586 z"
           style="color:#000000;fill:#2a57c6;fill-opacity:1;fill-rule:nonzero;stroke:#000000;stroke-width:1;stroke-linecap:round;stroke-linejoin:round;stroke-miterlimit:4;stroke-opacity:1;stroke-dasharray:none;stroke-dashoffset:0;marker:none;visibility:visible;display:inline;overflow:visible"
           id="path26221" />
        <path
           d="m 80.010381,179.58907 6.367416,1.16738 -0.353617,3.0167 -6.367416,-1.42601 0.353617,-2.75807 z"
           style="color:#000000;fill:#2a57c6;fill-opacity:1;fill-rule:nonzero;stroke:none;stroke-width:1;marker:none;visibility:visible;display:inline;overflow:visible"
           id="path27996" />
        <path
           d="m 73.113829,199.41665 6.79845,4.35703 -0.698444,1.63739 -7.401899,-2.89152 1.301893,-3.1029 z"
           style="color:#000000;fill:#2a57c6;fill-opacity:1;fill-rule:nonzero;stroke:none;stroke-width:1;marker:none;visibility:visible;display:inline;overflow:visible"
           id="path28000" />
        <path
           d="m 82.327586,179.65517 c 0,0 1.551725,8.70689 -6.120689,25.0862"
           style="color:#000000;fill:none;stroke:#000000;stroke-width:1;stroke-linecap:round;stroke-linejoin:round;stroke-miterlimit:4;stroke-opacity:1;stroke-dasharray:none;stroke-dashoffset:0;marker:none;visibility:visible;display:inline;overflow:visible"
           id="path28002" />
      </g>
      <path
         d="m 61.201311,178.92655 c 0,0 4.754684,1.21915 5.242344,0.24383 0.487659,-0.97532 1.219149,-2.92596 -0.24383,-3.77936 -1.46298,-0.85341 -4.267024,-2.56022 -5.730004,-1.82873 -1.462979,0.73149 -4.876598,1.82873 -5.120428,3.41362 -0.24383,1.5849 0.365745,2.4383 0.365745,2.4383 0,0 0.121915,-1.58489 1.341064,-1.82872 1.21915,-0.24383 2.68213,-0.48766 3.413619,0.24383 0.73149,0.73149 0.97532,1.46297 0.73149,1.09723 z"
         style="color:#000000;fill:#2a57c6;fill-opacity:1;fill-rule:nonzero;stroke:#000000;stroke-width:1;stroke-linecap:round;stroke-linejoin:round;stroke-miterlimit:4;stroke-opacity:1;stroke-dasharray:none;stroke-dashoffset:0;marker:none;visibility:visible;display:inline;overflow:visible"
         id="path28922" />
      <path
         d="m 56.934287,187.33868 c -0.487659,-0.24383 -1.828724,-2.31638 -3.047874,-1.95064 -1.219149,0.36575 -4.754683,3.53554 -4.754683,4.8766 0,1.34107 -0.48766,3.65745 0.24383,4.75469 0.73149,1.09723 1.828724,1.09723 1.828724,1.09723 0,0 -0.48766,-2.07255 0.73149,-2.4383 1.21915,-0.36574 2.682129,-0.97532 4.023194,-1.95064 1.341064,-0.97532 2.316384,-2.19447 1.706809,-3.16979 -0.609575,-0.97532 -0.853405,-0.97532 -0.73149,-1.21915 z"
         style="color:#000000;fill:#2a57c6;fill-opacity:1;fill-rule:nonzero;stroke:#000000;stroke-width:1;stroke-linecap:round;stroke-linejoin:round;stroke-miterlimit:4;stroke-opacity:1;stroke-dasharray:none;stroke-dashoffset:0;marker:none;visibility:visible;display:inline;overflow:visible"
         id="path28924" />
      <path
         d="m 63.030036,202.21231 c 0,0 -1.341065,0 -1.21915,1.58489 0.121915,1.5849 2.560214,4.75469 4.145109,5.48618 1.584894,0.73149 3.047874,0.8534 3.047874,0.8534 0,0 -2.925959,-3.77936 -2.4383,-4.51085 0.48766,-0.73149 0.853405,-2.4383 -0.365744,-2.92596 -1.21915,-0.48766 -3.169789,-0.48766 -3.169789,-0.48766 z"
         style="color:#000000;fill:#2a57c6;fill-opacity:1;fill-rule:nonzero;stroke:#000000;stroke-width:1;stroke-linecap:round;stroke-linejoin:round;stroke-miterlimit:4;stroke-opacity:1;stroke-dasharray:none;stroke-dashoffset:0;marker:none;visibility:visible;display:inline;overflow:visible"
         id="path28926" />
      <path
         d="m 139.10497,209.77104 c 0,0 0.12192,0.8534 0.97532,0.73149 0.85341,-0.12192 2.31639,-2.92596 1.70681,-3.41362 -0.60957,-0.48766 -2.19447,-1.82873 -4.02319,-1.5849 -1.82873,0.24383 -3.77937,1.46298 -4.63277,2.92596 -0.85341,1.46298 -0.73149,1.82873 -0.24383,1.82873 0.48766,0 1.95064,-1.5849 3.16979,-1.46298 1.21915,0.12191 2.56021,1.09723 3.04787,0.97532 z"
         style="color:#000000;fill:#2a57c6;fill-opacity:1;fill-rule:nonzero;stroke:#000000;stroke-width:1;stroke-linecap:round;stroke-linejoin:round;stroke-miterlimit:4;stroke-opacity:1;stroke-dasharray:none;stroke-dashoffset:0;marker:none;visibility:visible;display:inline;overflow:visible"
         id="path28928" />
      <path
         d="m 136.30093,227.69253 c 0,0 2.07255,-0.48765 2.56021,-1.46297 0.48766,-0.97532 0.36575,-3.29171 -0.8534,-3.41362 -1.21915,-0.12192 -3.16979,0.36574 -4.14511,1.21915 -0.97532,0.8534 -3.90128,3.41362 -3.90128,4.75468 0,1.34106 0.60957,5.48617 1.09723,6.33958 0.48766,0.8534 0.85341,1.34106 0.85341,0.12191 0,-1.21915 0.48766,-4.51085 1.46298,-4.99851 0.97532,-0.48766 3.16979,-2.68213 2.92596,-2.56022 z"
         style="color:#000000;fill:#2a57c6;fill-opacity:1;fill-rule:nonzero;stroke:#000000;stroke-width:1;stroke-linecap:round;stroke-linejoin:round;stroke-miterlimit:4;stroke-opacity:1;stroke-dasharray:none;stroke-dashoffset:0;marker:none;visibility:visible;display:inline;overflow:visible"
         id="path28930" />
      <path
         d="m 156.05115,239.51829 c 0.12192,-3.77937 -1.34106,-4.8766 -2.56021,-4.26703 -1.21915,0.60958 -2.80405,2.19447 -2.92596,3.90128 -0.12192,1.70681 0.73149,4.51086 1.46298,4.63277 0.73149,0.12191 0.73149,-2.92596 2.56021,-3.65745 1.82873,-0.73149 1.82873,-0.73149 1.46298,-0.60957 z"
         style="color:#000000;fill:#2a57c6;fill-opacity:1;fill-rule:nonzero;stroke:#000000;stroke-width:1;stroke-linecap:round;stroke-linejoin:round;stroke-miterlimit:4;stroke-opacity:1;stroke-dasharray:none;stroke-dashoffset:0;marker:none;visibility:visible;display:inline;overflow:visible"
         id="path28932" />
      <path
         d="m 177.6301,214.52572 c 0,0 -1.46298,-0.12192 -1.21915,1.21915 0.24383,1.34106 1.09724,2.92596 2.68213,2.92596 1.58489,0 1.34106,-1.82873 3.2917,-1.46298 1.95064,0.36574 3.77937,2.07255 3.53554,0.8534 -0.24383,-1.21915 -0.12192,-2.68213 -2.19447,-3.41362 -2.07256,-0.73149 -6.09575,-0.48766 -6.09575,-0.12191 z"
         style="color:#000000;fill:#2a57c6;fill-opacity:1;fill-rule:nonzero;stroke:#000000;stroke-width:1;stroke-linecap:round;stroke-linejoin:round;stroke-miterlimit:4;stroke-opacity:1;stroke-dasharray:none;stroke-dashoffset:0;marker:none;visibility:visible;display:inline;overflow:visible"
         id="path28934" />
      <path
         d="m 192.74756,87.490328 c 0,0 6.5834,-15.605116 6.5834,-22.188523 0,-6.583408 0.97532,-15.970861 0.97532,-15.970861 0,0 5.36426,-3.047874 6.09575,-5.486173 0.73149,-2.438299 2.19447,-8.046387 1.46298,-8.534047 -0.73149,-0.48766 -0.73149,3.779364 -1.34106,4.023194 -0.60958,0.243829 -2.19447,-0.97532 -1.70681,-2.560215 0.48766,-1.584894 1.82872,-9.265537 1.09723,-12.191496 -0.73149,-2.925959 -0.8534,-2.925959 -1.46298,-2.316384 -0.60957,0.609575 0.24383,9.143622 -0.73149,9.875112 -0.97532,0.73149 -2.68213,2.194469 -2.80404,0.609575 -0.12192,-1.584895 1.70094,-8.767425 1.5849,-10.972347 -0.18288,-3.474576 -2.01161,-8.290218 -2.68214,-7.863515 -1.05895,0.673887 0.36575,3.901278 0.36575,4.998513 0,1.097235 0.48766,7.98543 -0.97532,8.96075 -1.46298,0.97532 -2.80405,2.438299 -2.80405,0.97532 0,-1.46298 0.80291,-10.381151 -1.52826,-13.467272 -1.6183,-2.142378 -3.59216,-4.819972 -3.95791,-3.722738 -0.36574,1.097235 1.70681,13.044901 1.21915,15.72703 -0.48766,2.682129 -2.56021,2.560214 -2.68213,7.436813 -0.12191,4.876598 1.95064,10.606602 3.04788,11.825751 1.09723,1.21915 2.56021,3.047874 2.56021,3.047874 0,0 0.48766,14.020221 -1.34106,19.018734 -1.82873,4.998514 -2.31639,7.924473 -3.29171,9.753197 -0.97532,1.828725 -1.95064,3.047875 -1.95064,3.047875 l 4.26703,5.973833 z"
         style="color:#000000;fill:#ff0000;fill-opacity:1;fill-rule:nonzero;stroke:#000000;stroke-width:1;stroke-linecap:round;stroke-linejoin:round;stroke-miterlimit:4;stroke-opacity:1;stroke-dasharray:none;stroke-dashoffset:0;marker:none;visibility:visible;display:inline;overflow:visible"
         id="path28952" />
      <path
         d="m 176.7767,151.98334 c 0,0 11.09426,0.36575 12.92298,-0.60957 1.82873,-0.97532 6.58341,-4.51086 6.70532,-7.3149 0.12192,-2.80404 2.92596,-18.53107 4.38894,-21.94469 1.46298,-3.41362 5.48618,-12.92299 6.4615,-18.04342 0.97532,-5.120425 2.31638,-18.165326 3.04787,-20.603626 0.73149,-2.438299 3.41362,-7.071067 2.4383,-6.461493 -0.97532,0.609575 -5.85192,8.168303 -6.09575,9.509367 -0.24383,1.341065 -1.58489,6.827238 -1.95064,9.875112 -0.36574,3.047874 -0.8534,4.51085 -1.82872,5.97383 -0.97532,1.46298 -4.99852,-7.924469 -5.97384,-9.265534 -0.97532,-1.341064 -13.65447,-18.531074 -15.4832,-31.332145 -1.82872,-12.801071 -1.46298,-15.361285 -1.46298,-15.361285 0,0 2.80405,-1.46298 3.53554,-3.657449 0.73149,-2.194469 2.80404,-10.850432 2.4383,-12.922986 -0.36575,-2.072554 -1.95064,-12.191496 -0.97532,-15.72703 0.97532,-3.535534 1.95064,-4.7546838 1.09723,-4.7546838 -0.8534,0 -4.07578,2.3076928 -5.24234,4.6327688 -1.19802,2.387768 -2.07256,9.753197 -1.95064,10.728517 0.12191,0.975319 0.97532,4.145108 0.12191,3.901278 -0.8534,-0.24383 -2.43829,-6.095748 -2.19446,-8.655962 0.24383,-2.560214 2.31638,-6.949153 1.58489,-6.827238 -0.73149,0.121915 -4.75468,5.364258 -4.75468,6.705323 0,1.341065 0.12191,8.655962 0.36574,9.631282 0.24383,0.97532 0.12192,2.682129 -0.48766,1.950639 -0.60957,-0.731489 -2.19447,-2.804044 -2.4383,-5.242343 -0.24383,-2.438299 0.48766,-4.998513 0.73149,-5.851918 0.24383,-0.853405 0,-1.95064 -0.60957,-1.46298 -0.60958,0.48766 -3.53554,7.192983 -3.04788,8.534048 0.48766,1.341064 2.4383,7.436812 3.53554,8.777877 1.09723,1.341065 1.95064,2.925959 0.97532,3.413619 -0.97532,0.48766 -2.80405,-0.48766 -3.77937,-2.316384 -0.97532,-1.828725 -2.19447,-4.023194 -2.07255,-2.804045 0.12191,1.21915 0.36574,5.851919 1.82872,8.046388 1.46298,2.194469 5.73001,3.291704 5.73001,4.510854 0,1.219149 0.24383,11.825751 2.4383,19.140649 2.19446,7.314897 17.06809,33.038955 17.31192,35.35534 0.24383,2.31638 2.31638,17.55575 1.09723,19.01873 -1.21914,1.46298 -1.46297,4.38894 -3.65744,4.0232 -2.19447,-0.36575 -5.73001,-3.90128 -6.58341,-7.43682 -0.85341,-3.53553 -1.82873,-10.48468 -0.12192,-14.14213 1.04928,-3.722954 3.69429,-6.571426 4.99852,-10.118943 l -3.16979,-6.217664 c 0,0 -3.29171,5.242344 -5.48618,9.143623 -2.19447,3.901278 -1.95064,8.168304 -3.53553,6.827234 -1.58489,-1.34106 -4.26702,-15.117452 -5.48617,-17.190006 -1.21915,-2.072555 -4.38894,-7.192983 -4.99852,-6.705323 -0.60957,0.48766 0.60958,2.925959 0.85341,4.998513 0.24383,2.072555 3.77936,13.654476 4.26702,19.872136 0.48766,6.21767 1.82873,10.97235 5.97384,17.19001 4.1451,6.21767 8.1683,9.87511 8.65596,11.58192 0.48766,1.70681 1.70681,7.19299 0.36574,8.8998 -1.34106,1.70681 -2.4383,2.92596 -5.85192,2.56021 -3.41361,-0.36574 -5.48617,-1.21915 -6.09574,-0.60957 -0.60958,0.60957 1.58489,9.14362 1.46298,8.77787 z"
         style="color:#000000;fill:#ff0000;fill-opacity:1;fill-rule:nonzero;stroke:#000000;stroke-width:1;stroke-linecap:round;stroke-linejoin:round;stroke-miterlimit:4;stroke-opacity:1;stroke-dasharray:none;stroke-dashoffset:0;marker:none;visibility:visible;display:inline;overflow:visible"
         id="path28949" />
      <path
         d="m 176.01293,141.98277 1.9612,7.67241 -1.2931,3.03879 -8.0819,-5.92673 7.4138,-4.78447 z"
         style="color:#000000;fill:#ff0000;fill-opacity:1;fill-rule:nonzero;stroke:none;stroke-width:1;marker:none;visibility:visible;display:inline;overflow:visible"
         id="rect28955" />
      <path
         d="m 104.70716,158.07905 c -2.61252,1.38878 -6.322868,0.97536 -6.322868,0.97536 0,0 5.350128,3.41362 6.809248,3.41362 1.45914,0 3.64782,9.26562 0,13.41077 -3.64781,4.14514 -8.268374,7.80263 -11.186624,7.80263 -2.91825,0 -10.94344,-0.24383 -14.104877,-1.70685 -3.161438,-1.46298 -3.161438,-3.90127 -5.350124,-3.90127 -2.188688,0 -2.431876,-0.4877 -4.863752,-1.46302 -2.431875,-0.97532 -4.377375,-1.95064 -5.836501,-0.73149 -1.459123,1.21915 -3.404626,2.926 -3.161436,4.14514 0.243187,1.21915 0.243187,4.63281 1.215937,4.87664 0.972749,0.24383 7.295626,1.70681 7.295626,1.70681 0,0 -7.782002,0.73149 -9.970688,-0.48766 -2.18869,-1.21915 -3.161439,-2.92596 -5.106938,-1.46298 -1.945502,1.46298 -2.675065,5.85196 -1.459126,8.04647 1.215936,2.19447 5.593314,3.90128 6.80925,3.16979 1.215939,-0.73149 2.431876,-3.16979 4.620564,-2.4383 2.188687,0.73149 -2.675064,5.3643 -3.161438,6.82728 -0.486377,1.46298 2.188688,6.82729 4.863751,7.07115 2.675062,0.24383 5.106937,-5.60817 5.106937,-5.60817 l 0.486375,-2.68213 c 0,0 11.429814,5.60813 12.159377,4.87664 0.729562,-0.73149 2.918248,-2.43834 2.918248,-2.43834 0,0 -3.647811,2.926 -2.675061,4.38898 0.972749,1.46302 2.675061,2.926 2.675061,2.926 0,0 -0.243186,-0.73149 0.729564,-3.16983 0.972749,-2.4383 4.620564,-4.63281 4.863751,-2.92596 0.243186,1.70681 -1.459126,4.87664 -0.486376,6.58345 0.972751,1.70681 3.404627,2.92599 3.404627,2.92599 0,0 -0.972751,-4.38897 0.243187,-5.85199 1.215936,-1.46298 4.863756,-1.21915 5.350116,-2.4383 0.48638,-1.21915 -1.702305,6.09579 1.45914,9.02178 3.16143,2.92596 7.05244,4.87664 7.53882,3.9013 0.48638,-0.97534 -2.43188,-2.19449 -2.67507,-4.63279 -0.24318,-2.43833 -1.21594,-4.6328 0.48636,-4.6328 1.70233,0 6.56607,-3.90132 6.56607,-3.90132 0,0 0.97274,5.12047 2.67507,6.09579 1.7023,0.97532 5.83649,1.7068 4.86373,0.73149 -0.97273,-0.97532 -4.37735,-3.41365 -2.91824,-8.04643 1.45913,-4.63281 5.83651,-4.38898 6.07968,-9.50945 0.24319,-5.12047 -1.45911,-11.46013 2.18871,-13.89843 3.64781,-2.43833 9.62485,-14.28453 13.13212,-14.14225 10.7911,0.44766 6.42936,-1.11957 8.99792,-11.46013 0.4736,-1.90661 5.35014,-5.3643 5.10695,-7.31493 -0.24319,-1.95064 -2.67505,-8.53413 -2.67505,-8.53413 -1.5849,-0.12191 -5.6083,-2.51484 -6.79039,-2.86947 -1.18209,-0.35462 0.47712,1.32905 -0.47106,4.48375 -0.66333,2.20697 -3.77374,2.94887 -6.30769,4.88657 -10.40421,7.95605 -21.02538,4.82149 -21.42517,5.11896 -5.46457,4.06608 -4.14943,4.84948 -11.69771,8.86206 z"
         style="color:#000000;fill:url(#linearGradient2493);fill-opacity:1;fill-rule:nonzero;stroke:none;stroke-width:0.99868596;marker:none;visibility:visible;display:inline;overflow:visible"
         id="path2031" />
      <path
         d="m 171.2069,144.13793 c 0,0 1.72413,11.03448 0,15.51724 -1.72414,4.48276 -5,10.68966 -4.82759,13.79311 0.17241,3.10344 4.65517,11.37931 6.55172,13.62069 1.89656,2.24137 4.65518,3.44827 4.65518,5 0,1.55172 0.68965,3.96551 -0.68966,4.82758 -1.37931,0.86207 -3.27586,1.37931 -3.27586,1.37931"
         style="color:#000000;fill:none;stroke:#000000;stroke-width:1.5;stroke-linecap:round;stroke-linejoin:round;stroke-miterlimit:4;stroke-opacity:0.40540538;stroke-dasharray:none;stroke-dashoffset:0;marker:none;visibility:visible;display:inline;overflow:visible"
         id="path6592" />
      <path
         d="m 140.86207,104.48276 c 0,0 8.62069,7.24138 11.2069,10.86207 2.5862,3.62069 6.72413,10.86207 8.44827,12.24138 1.72414,1.37931 7.93104,8.7931 8.62069,9.31034 0.68966,0.51724 0.68966,0.51724 0.68966,0.51724"
         style="color:#000000;fill:none;stroke:#000000;stroke-width:1.5;stroke-linecap:round;stroke-linejoin:round;stroke-miterlimit:4;stroke-opacity:0.40540538;stroke-dasharray:none;stroke-dashoffset:0;marker:none;visibility:visible;display:inline;overflow:visible"
         id="path7498" />
      <path
         d="m 178.62069,44.310344 c 0,0 2.75862,-1.896551 3.44828,-3.965517 0.68965,-2.068965 0.86206,-3.793103 0.86206,-3.793103"
         style="color:#000000;fill:none;stroke:#000000;stroke-width:1.5;stroke-linecap:round;stroke-linejoin:round;stroke-miterlimit:4;stroke-opacity:0.40540538;stroke-dasharray:none;stroke-dashoffset:0;marker:none;visibility:visible;display:inline;overflow:visible"
         id="path7501" />
      <path
         d="m 116.2069,175.34483 c 0,0 0.68965,-6.55173 3.44827,-9.13793 2.75862,-2.58621 23.27586,-16.03449 23.27586,-16.03449"
         style="color:#000000;fill:none;stroke:#000000;stroke-width:1.5;stroke-linecap:round;stroke-linejoin:round;stroke-miterlimit:4;stroke-opacity:0.40540538;stroke-dasharray:none;stroke-dashoffset:0;marker:none;visibility:visible;display:inline;overflow:visible"
         id="path7503" />
      <path
         d="m 116.55172,81.206896 c 0,0 -5.17241,0.344828 -7.24137,1.724138 -2.06897,1.379311 -5.86207,5.689655 -5.86207,5.689655"
         style="color:#000000;fill:none;stroke:#000000;stroke-width:1.5;stroke-linecap:round;stroke-linejoin:round;stroke-miterlimit:4;stroke-opacity:0.40540538;stroke-dasharray:none;stroke-dashoffset:0;marker:none;visibility:visible;display:inline;overflow:visible"
         id="path7505" />
      <path
         d="m 110.34483,79.655172 c 0,0 -4.48276,0.862069 -5.86207,1.896552 -1.37931,1.034483 -0.86207,4.827586 -3.44828,6.034483 -2.586204,1.206896 -9.827583,2.75862 -11.206894,5 -1.37931,2.241379 -1.37931,2.241379 -1.37931,2.241379"
         style="color:#000000;fill:none;stroke:#000000;stroke-width:1.5;stroke-linecap:round;stroke-linejoin:round;stroke-miterlimit:4;stroke-opacity:0.40540538;stroke-dasharray:none;stroke-dashoffset:0;marker:none;visibility:visible;display:inline;overflow:visible"
         id="path7507" />
      <path
         d="m 100,78.793103 c 0,0 -4.827586,3.965517 -6.896552,4.310345 -2.068965,0.344828 -5,0.689655 -5,0.689655"
         style="color:#000000;fill:none;stroke:#000000;stroke-width:1.5;stroke-linecap:round;stroke-linejoin:round;stroke-miterlimit:4;stroke-opacity:0.40540538;stroke-dasharray:none;stroke-dashoffset:0;marker:none;visibility:visible;display:inline;overflow:visible"
         id="path7509" />
      <path
         d="m 113.62069,71.551724 -9.31035,1.034483"
         style="color:#000000;fill:none;stroke:#000000;stroke-width:1.5;stroke-linecap:round;stroke-linejoin:round;stroke-miterlimit:4;stroke-opacity:0.40540538;stroke-dasharray:none;stroke-dashoffset:0;marker:none;visibility:visible;display:inline;overflow:visible"
         id="path7511" />
      <path
         d="m 130.34483,76.206896 c 0,0 2.5862,3.793104 1.72414,5.517242 -0.86207,1.724138 -1.2069,5 -3.10345,4.137931 C 127.06897,85 125.51724,84.310345 125.68966,85 c 0.17241,0.689655 1.37931,2.241379 3.7931,2.586207 2.41379,0.344827 5,-2.413793 5.34483,-3.793104"
         style="color:#000000;fill:none;stroke:#000000;stroke-width:1.5;stroke-linecap:round;stroke-linejoin:round;stroke-miterlimit:4;stroke-opacity:0.40540538;stroke-dasharray:none;stroke-dashoffset:0;marker:none;visibility:visible;display:inline;overflow:visible"
         id="path7513" />
      <path
         d="m 142.41379,69.827586 c 0,0 0.68966,3.275862 2.75862,4.137931 2.06897,0.862069 4.65518,1.37931 4.65518,1.37931"
         style="color:#000000;fill:none;stroke:#000000;stroke-width:1.5;stroke-linecap:round;stroke-linejoin:round;stroke-miterlimit:4;stroke-opacity:0.40540538;stroke-dasharray:none;stroke-dashoffset:0;marker:none;visibility:visible;display:inline;overflow:visible"
         id="path7515" />
      <path
         d="m 134.82759,92.413793 c 0,0 -2.93104,5.344827 -4.31035,5.689655 -1.37931,0.344828 -2.93103,1.551724 -2.41379,3.793102"
         style="color:#000000;fill:none;stroke:#000000;stroke-width:1.5;stroke-linecap:round;stroke-linejoin:round;stroke-miterlimit:4;stroke-opacity:0.40540538;stroke-dasharray:none;stroke-dashoffset:0;marker:none;visibility:visible;display:inline;overflow:visible"
         id="path7517" />
      <path
         d="m 144.82759,59.827586 c 0,0 0.17241,7.413793 1.37931,8.793103 1.20689,1.379311 3.10345,3.62069 4.13793,2.931035"
         style="color:#000000;fill:none;stroke:#000000;stroke-width:1.5;stroke-linecap:round;stroke-linejoin:round;stroke-miterlimit:4;stroke-opacity:0.40540538;stroke-dasharray:none;stroke-dashoffset:0;marker:none;visibility:visible;display:inline;overflow:visible"
         id="path7519" />
      <path
         d="m 146.55172,45.172413 c 0,0 0,3.793104 -0.68965,4.310345 -0.68966,0.517242 -3.10345,2.758621 -3.44828,3.793104 -0.34482,1.034483 -0.86207,5 -2.24138,6.37931 -1.37931,1.37931 -14.31034,4.655173 -17.5862,4.655173 -3.27586,0 -5.17242,-0.172414 -4.31035,-1.896552"
         style="color:#000000;fill:none;stroke:#000000;stroke-width:1.5;stroke-linecap:round;stroke-linejoin:round;stroke-miterlimit:4;stroke-opacity:0.40540538;stroke-dasharray:none;stroke-dashoffset:0;marker:none;visibility:visible;display:inline;overflow:visible"
         id="path7521" />
      <path
         d="m 146.03448,37.75862 c 0,0 -0.51724,3.103449 0.34483,3.793104"
         style="color:#000000;fill:none;stroke:#000000;stroke-width:1.5;stroke-linecap:round;stroke-linejoin:round;stroke-miterlimit:4;stroke-opacity:0.40540538;stroke-dasharray:none;stroke-dashoffset:0;marker:none;visibility:visible;display:inline;overflow:visible"
         id="path7523" />
      <path
         d="m 148.27586,38.448276 c 0,0 0,2.413793 0.34483,3.275862"
         style="color:#000000;fill:none;stroke:#000000;stroke-width:1.5;stroke-linecap:round;stroke-linejoin:round;stroke-miterlimit:4;stroke-opacity:0.40540538;stroke-dasharray:none;stroke-dashoffset:0;marker:none;visibility:visible;display:inline;overflow:visible"
         id="path7525" />
      <path
         d="m 149.65517,55.517241 c 0,0 0.51724,3.965517 2.06897,5.517241"
         style="color:#000000;fill:none;stroke:#000000;stroke-width:1.5;stroke-linecap:round;stroke-linejoin:round;stroke-miterlimit:4;stroke-opacity:0.40540538;stroke-dasharray:none;stroke-dashoffset:0;marker:none;visibility:visible;display:inline;overflow:visible"
         id="path7527" />
      <path
         d="m 98.448276,99.655172 c 0,0 5.517244,0.862068 6.896554,-0.689655 1.37931,-1.551724 2.75862,-5.689655 2.75862,-5.689655"
         style="color:#000000;fill:none;stroke:#000000;stroke-width:1.5;stroke-linecap:round;stroke-linejoin:round;stroke-miterlimit:4;stroke-opacity:0.40540538;stroke-dasharray:none;stroke-dashoffset:0;marker:none;visibility:visible;display:inline;overflow:visible"
         id="path7529" />
      <path
         d="m 75.344828,121.89655 c 0.689655,-0.34483 10.344827,0.86207 15.517241,-0.34483"
         style="color:#000000;fill:none;stroke:#000000;stroke-width:1.5;stroke-linecap:round;stroke-linejoin:round;stroke-miterlimit:4;stroke-opacity:0.40540538;stroke-dasharray:none;stroke-dashoffset:0;marker:none;visibility:visible;display:inline;overflow:visible"
         id="path7531" />
      <path
         d="m 69.310345,113.7931 c 0,0 2.586207,-2.24138 5.172414,-2.5862"
         style="color:#000000;fill:none;stroke:#000000;stroke-width:1.5;stroke-linecap:round;stroke-linejoin:round;stroke-miterlimit:4;stroke-opacity:0.40540538;stroke-dasharray:none;stroke-dashoffset:0;marker:none;visibility:visible;display:inline;overflow:visible"
         id="path7533" />
      <path
         d="m 128.27586,74.137931 c 0,0 -3.7931,3.103448 -6.55172,1.034483 -2.75862,-2.068966 -3.44828,0.689655 0.34483,-2.068966"
         style="color:#000000;fill:none;stroke:#000000;stroke-width:1.5;stroke-linecap:round;stroke-linejoin:round;stroke-miterlimit:4;stroke-opacity:0.40540538;stroke-dasharray:none;stroke-dashoffset:0;marker:none;visibility:visible;display:inline;overflow:visible"
         id="path7535" />
      <path
         d="m 136.89655,74.827586 c 0,0 0,3.793103 2.41379,4.827586 2.4138,1.034483 4.82759,2.413793 3.79311,4.482759"
         style="color:#000000;fill:none;stroke:#000000;stroke-width:1.5;stroke-linecap:round;stroke-linejoin:round;stroke-miterlimit:4;stroke-opacity:0.40540538;stroke-dasharray:none;stroke-dashoffset:0;marker:none;visibility:visible;display:inline;overflow:visible"
         id="path7538" />
    </g>
  </g>
</svg>
