<?xml version="1.0" encoding="UTF-8" standalone="no"?>
<!-- Created with Inkscape (http://www.inkscape.org/) -->

<svg
   xmlns:svg="http://www.w3.org/2000/svg"
   xmlns="http://www.w3.org/2000/svg"
   version="1.0"
   width="600"
   height="400"
   id="svg2">
  <defs
     id="defs5" />
  <rect
     width="600"
     height="400"
     x="0"
     y="0"
     id="rect2166"
     style="fill:#d40000" />
  <path
     d="m 302.77779,24.599442 c -4.74425,23.567532 -17.05434,41.838979 -32.2338,58.101853 16.79633,81.385885 19.82965,163.490405 24.94213,236.574085 l -12.32639,0.0579 c -14.44798,1.42502 -12.69265,-9.57359 -13.31019,-14.69907 l -9.89583,-0.17361 c -0.10296,3.50952 -3.92652,25.38272 24.0162,26.04167 l 11.05325,0 c 0.58174,4.40407 -5.94508,45.53853 8.54101,44.89074 12.90076,-0.57691 8.09619,-41.7035 6.91038,-44.89074 l 11.11111,0 c 27.94272,-0.65895 24.11916,-22.53215 24.0162,-26.04167 l -9.89583,0.17361 c -0.61754,5.12548 1.13779,16.12409 -13.31019,14.69907 l -12.32639,-0.0579 c 5.11248,-73.08368 8.1458,-155.1882 24.94213,-236.574085 C 318.75834,64.558156 309.65601,44.825924 302.77779,24.599442 z"
     id="path2161"
     style="fill:#ffffff" />
</svg>
