<?xml version="1.0" encoding="UTF-8" standalone="no"?>
<svg xmlns="http://www.w3.org/2000/svg" height="400" width="600" version="1.1">
 <path d="m0 0h600v400h-600z" fill="#04a"/>
<g  fill="#fc0">
 <path d="m185.42 212.48a115 115 0 0 0 -0.42 8.4 115 115 0 0 0 115 115 115 115 0 0 0 115 -115 115 115 0 0 0 -0.32 -8.39 125 125 0 0 1 -114.68 75.39 125 125 0 0 1 -114.58 -75.4z"/>
 <path d="m393.64 115.73-24.397 24.389-17.389-17.398-36.224 36.224 50.418 50.418l-15.62 15.64-50.43-50.42-50.42 50.42-15.632-15.632 50.427-50.418-36.224-36.224-32.533 32.533-1.9784-46.804 43.152-43.147 24.389 24.391-17.398 17.401 36.215 36.217 36.224-36.217-17.398-17.401 24.389-24.391z"/>
</g>
</svg>
