<?xml version="1.0" encoding="UTF-8" standalone="no"?>
<!-- Created with Inkscape (http://www.inkscape.org/) -->
<svg
   xmlns:svg="http://www.w3.org/2000/svg"
   xmlns="http://www.w3.org/2000/svg"
   version="1.0"
   width="600"
   height="375"
   id="flag_of_ajaria">
  <desc
     id="desc2985">Flag of Ajaria</desc>
  <defs
     id="defs2987">
    <path
       d="M -6.9411934,-20 C -2.3323051,-19.413654 2.3323051,-19.413654 6.9411934,-20 C 5.9309209,-15.053742 5.2821411,-10.040488 5,-5 C 10.040488,-5.2821411 15.053742,-5.9309209 20,-6.9411934 C 19.413654,-2.3323051 19.413654,2.3323051 20,6.9411934 C 15.053742,5.9309209 10.040488,5.2821411 5,5 C 5.2821411,10.040488 5.9309209,15.053742 6.9411934,20 C 2.3323051,19.413654 -2.3323051,19.413654 -6.9411934,20 C -5.9309209,15.053742 -5.2821411,10.040488 -5,5 C -10.040488,5.2821411 -15.053742,5.9309209 -20,6.9411934 C -19.413654,2.3323051 -19.413654,-2.3323051 -20,-6.9411934 C -15.053742,-5.9309209 -10.040488,-5.2821411 -5,-5 C -5.2821411,-10.040488 -5.9309209,-15.053742 -6.9411934,-20 L -6.9411934,-20 z "
       style="fill:#e8112d"
       id="cross" />
  </defs>
  <g
     id="g4527">
    <g
       transform="scale(1.142857,1.071429)"
       id="g3967">
      <rect
         width="525"
         height="350"
         x="0"
         y="0"
         style="fill:#fcce31;fill-opacity:1"
         id="rect2992" />
      <rect
         width="524.9967"
         height="50"
         x="0.0033245767"
         y="0"
         style="fill:#32669f;fill-opacity:1"
         id="rect2994" />
      <rect
         width="524.9967"
         height="50"
         x="0.0033245767"
         y="100"
         style="fill:#32669f;fill-opacity:1"
         id="rect2996" />
      <rect
         width="525"
         height="50"
         x="0"
         y="200"
         style="fill:#32669f;fill-opacity:1"
         id="rect2998" />
      <rect
         width="525"
         height="50"
         x="0"
         y="300"
         style="fill:#32669f;fill-opacity:1"
         id="rect3000" />
    </g>
    <g
       transform="matrix(0.337503,0,0,0.337503,198.6595,69.95447)"
       id="g3741">
      <g
         transform="matrix(2.280555,0,0,2.280174,0.551104,-1.554961)"
         style="fill:#32669f;fill-opacity:1;stroke:black;stroke-width:2.39747095;stroke-miterlimit:4;stroke-dasharray:none;stroke-opacity:1"
         id="g1386">
        <path
           d="M 1.0738166,2.0481694 C 1.0738166,33.524558 1.0738166,146.51352 1.0738166,146.51352 C 0.84558787,275.2025 87.077151,304.16071 131.48418,304.78774 L 131.48418,304.78774 C 131.65198,304.78774 132.88941,304.80135 133.06096,304.80135 L 133.06096,304.78774 C 176.52798,304.09575 261.83662,274.8022 261.76994,146.51352 C 261.76994,146.51352 261.76994,36.317226 261.76994,2.0481694 C 225.70041,2.0481694 28.276517,2.0481694 1.0738166,2.0481694 z "
           style="color:black;fill:#32669f;fill-opacity:1;fill-rule:nonzero;stroke:black;stroke-width:2.39747095;stroke-linecap:round;stroke-linejoin:miter;marker:none;marker-start:none;marker-mid:none;marker-end:none;stroke-miterlimit:4;stroke-dasharray:none;stroke-dashoffset:0;stroke-opacity:1;visibility:visible;display:block"
           id="path3069" />
      </g>
      <g
         transform="matrix(0.983738,0,0,0.983738,5.56942,0.754328)"
         id="g3694">
        <path
           d="M 307.5161,610.89345 C 305.55365,608.13743 301.37926,603.92323 298.23968,601.52856 C 290.72,595.79302 285.78062,597.08025 276.31481,607.24228 L 269.02351,615.06986 L 266.15643,611.38908 C 264.57953,609.36464 261.16506,604.29494 258.56871,600.12308 C 252.62742,590.57649 249.29752,590.44355 238.75622,599.33211 C 234.32456,603.06895 229.50441,605.88545 228.04479,605.591 C 226.58517,605.29655 224.0635,601.55256 222.4411,597.27103 C 220.8187,592.9895 217.78879,587.09552 215.70797,584.17328 C 212.43754,579.58038 211.22045,578.99912 206.72982,579.88544 C 203.87266,580.44938 197.91751,583.15133 193.49614,585.8898 C 189.0748,588.62826 185.22086,590.86882 184.93185,590.86882 C 184.64284,590.86882 183.54908,587.30126 182.50129,582.9409 C 181.45352,578.58054 179.37262,572.19647 177.87709,568.75408 C 175.57237,563.44913 174.36981,562.49661 169.98706,562.50451 C 167.14307,562.50962 161.92923,563.31544 158.40077,564.2952 C 154.87229,565.27498 151.68349,565.77472 151.31454,565.40578 C 150.94558,565.03682 150.20279,561.03896 149.66388,556.52166 C 149.12496,552.00436 147.90401,546.24295 146.95064,543.71853 C 145.29112,539.32426 144.72807,539.12868 133.73649,539.12868 L 122.25572,539.12868 L 122.23017,527.02816 C 122.21611,520.37287 121.65281,514.10125 120.97839,513.0912 C 118.94078,510.03963 113.51315,507.81199 105.00862,506.53676 L 96.941251,505.32709 L 98.087562,495.45048 C 99.722567,481.36307 97.233582,476.17697 87.683353,473.77221 C 83.592526,472.74213 79.856921,470.88673 79.381997,469.6491 C 78.907072,468.41148 79.414476,463.66405 80.509548,459.09927 C 83.261122,447.62948 80.812512,440.53544 72.77982,436.70492 C 66.993837,433.94577 66.81555,433.59974 68.113911,427.64886 C 68.856365,424.24586 69.512714,417.3307 69.572449,412.28187 C 69.66241,404.6784 68.871453,402.04388 64.96604,396.93891 L 60.251044,390.77566 L 64.548781,384.45094 C 67.255875,380.46712 68.846534,375.83656 68.846534,371.93981 C 68.846534,365.8183 68.763316,365.74244 60.918609,364.71226 C 42.82563,362.33623 25.359842,354.14635 21.820733,346.37887 C 20.195141,342.8111 20.614353,341.82385 25.500776,337.7122 C 28.533816,335.16007 36.710896,329.73063 43.672065,325.64676 C 50.633252,321.56291 56.623559,317.99788 56.983854,317.72449 C 59.133223,316.09361 51.860244,311.75839 40.764937,308.05685 C 24.838752,302.74365 17.106387,298.14399 17.106387,293.98334 C 17.106387,289.49871 20.147022,288.77313 38.940379,288.77313 C 49.313127,288.77313 55.494238,288.12345 55.494238,287.03322 C 55.494238,285.24498 36.186535,275.4245 32.666118,275.42215 C 29.888908,275.42028 23.782535,267.23387 23.782535,263.51249 C 23.782535,260.996 25.055326,260.3995 30.424902,260.3995 C 34.078207,260.3995 39.898974,261.48147 43.359939,262.80386 C 46.820904,264.12627 54.382827,266.37317 60.164204,267.79697 C 69.161048,270.01265 71.205401,270.05376 74.351018,268.08216 C 76.372389,266.81523 80.782653,264.90545 84.15162,263.83822 C 92.824421,261.0908 93.882089,256.60805 93.882089,222.59711 L 93.882089,193.63802 L 97.976154,193.63802 C 100.22788,193.63802 103.8791,194.46221 106.08998,195.46955 C 109.2288,196.8997 111.23962,196.71681 115.26532,194.63503 C 123.23097,190.51585 133.49735,191.20895 140.94267,196.36856 C 148.03942,201.28661 148.9049,204.34023 143.9532,206.99031 C 139.98415,209.1145 139.60552,214.79158 143.1702,218.7305 C 144.5755,220.28334 146.1854,225.43885 146.74778,230.18719 C 148.64016,246.16538 155.77811,235.59258 156.97449,215.03931 C 158.54098,188.12754 154.08647,175.7613 139.15589,165.57273 C 133.80492,161.92126 129.40157,160.25728 125.08968,160.25728 C 118.19106,160.25728 115.45913,156.91386 118.93529,152.72537 C 121.74219,149.34325 126.38747,149.6027 138.9432,153.84282 C 152.03603,158.26433 162.25175,167.23754 168.32511,179.65105 C 172.58061,188.34894 172.69806,189.36265 171.64012,208.26087 C 169.47126,247.00414 168.83607,242.51932 176.88746,245.31009 L 183.95165,247.75866 L 189.6193,242.26534 C 193.87533,238.14025 196.48076,236.90847 200.08001,237.31977 L 204.87305,237.8675 L 205.34484,257.65922 C 205.63677,269.90592 205.13906,278.26736 204.03928,279.59252 C 203.06174,280.77038 198.90145,282.23803 194.79419,282.85395 C 186.48831,284.09949 185.05277,285.94815 179.8292,302.12542 C 178.19897,307.17426 173.95346,317.13486 170.39475,324.26008 C 161.78719,341.49403 158.34953,356.49262 159.66306,371.08244 C 160.68246,382.4053 165.4896,394.71981 170.24868,398.19972 C 174.65589,401.42234 172.0569,406.38315 165.63701,407.00223 C 157.99516,407.73915 150.22227,403.43357 144.63228,395.36721 C 142.17315,391.81869 139.51223,388.91535 138.7191,388.91535 C 135.81479,388.91535 137.39001,396.96117 141.47194,402.97623 C 143.77914,406.37608 146.71983,411.67789 148.00679,414.75807 C 149.29377,417.83822 151.85232,421.16411 153.69246,422.14893 C 155.53259,423.13374 157.8498,426.38623 158.84183,429.37668 C 160.79156,435.25426 173.94364,446.74279 188.18268,455.00634 C 195.96807,459.52454 197.70342,459.84657 214.05275,459.80689 C 229.0392,459.77052 232.66555,459.20515 239.08831,455.9037 C 247.15458,451.75744 265.7929,433.17457 265.7929,429.27857 C 265.7929,426.04963 246.30726,404.3031 240.91589,401.51511 C 238.50208,400.26689 228.01366,398.77385 217.37934,398.16465 C 184.72183,396.29388 177.33394,391.52046 177.33394,372.29084 C 177.33394,360.35402 178.44619,358.45507 189.43446,351.63168 C 192.81142,349.53467 194.02431,347.43953 194.02431,343.70315 C 194.02431,337.66241 196.24652,332.96727 202.05118,326.74372 C 205.42462,323.12683 207.83714,322.15387 213.43199,322.15387 C 217.33693,322.15387 220.99334,322.90051 221.55734,323.81309 C 222.12135,324.72565 220.66354,327.98857 218.31778,331.06404 C 215.97201,334.13949 214.05275,337.79682 214.05275,339.19145 C 214.05275,341.82212 221.8393,350.5275 224.1923,350.5275 C 224.92885,350.5275 226.01306,346.95993 226.60163,342.59957 C 229.55402,320.72763 235.74094,312.13965 248.54547,312.13965 C 256.89244,312.13965 259.54406,315.402 255.14658,320.26116 C 253.44249,322.14415 252.4406,326.21717 252.4406,331.26182 C 252.4406,351.98487 276.92231,374.2735 306.68431,380.64639 C 319.13177,383.31174 320.87112,384.62582 320.87112,391.36459 C 320.87112,398.63931 316.89099,401.64484 305.43253,403.02278 C 299.67592,403.71505 295.83557,404.98459 295.83557,406.19532 C 295.83557,407.30546 300.39055,412.69665 305.95776,418.17574 C 315.13329,427.20603 316.01706,428.68404 315.40758,433.97935 C 315.03777,437.19224 314.11496,441.2469 313.35687,442.98971 C 312.0862,445.91092 312.59467,446.08898 319.86683,445.26931 C 330.07157,444.11908 335.24682,439.21755 338.66262,427.46762 C 343.54332,410.67862 337.67996,382.94198 325.22053,363.87979 C 319.10024,354.51609 314.19497,339.44053 314.19497,329.99447 C 314.19497,314.16208 324.59416,300.13451 342.5686,291.72098 C 389.89757,269.56708 432.99739,246.97936 434.0678,243.76815 C 435.04906,240.82433 439.16058,241.86311 441.13584,245.55392 C 443.87658,250.67504 441.72671,259.00085 435.51903,267.30602 C 426.65475,279.16545 424.85069,282.58377 421.17452,294.48586 C 416.15885,310.72472 416.43768,326.49872 421.93208,337.34139 C 425.59884,344.5774 427.60807,346.41295 436.42767,350.58396 C 442.05901,353.24718 450.84614,356.23118 455.95465,357.21511 C 472.54728,360.41097 472.75349,360.49135 472.75349,363.76323 C 472.75349,365.50008 470.68806,368.67779 468.16364,370.82484 C 460.8938,377.00789 451.47821,389.28552 447.81686,397.35644 C 445.04614,403.46408 444.45121,408.30195 444.44206,424.79964 C 444.43597,435.81529 445.09129,445.87078 445.89833,447.14518 C 448.55252,451.33636 470.8475,448.75859 480.50498,443.1439 C 511.77938,424.96156 520.65947,404.73313 522.33238,347.86316 C 522.86741,329.67558 522.48061,312.15924 521.36015,303.83355 C 518.94294,285.87221 509.6027,251.99959 506.76713,250.91147 C 505.55302,250.44558 501.73854,252.38979 498.29051,255.23194 C 487.46146,264.15815 487.26979,263.73901 488.63234,234.11217 C 490.21337,199.73466 493.36902,170.68584 495.78493,168.26992 C 497.2449,166.80995 498.58417,168.30661 501.2886,174.42043 C 508.80646,191.41578 526.69565,212.59741 542.43884,223.14419 C 547.25987,226.37393 551.68652,229.79662 552.27584,230.75017 C 553.77213,233.17123 546.4626,238.41421 539.77741,239.71502 C 534.47661,240.74647 534.23797,241.10224 534.99497,246.84473 C 535.43319,250.16899 537.05733,257.0197 538.60414,262.06854 C 540.15097,267.11737 543.29387,279.13444 545.58836,288.77313 C 554.21007,324.99111 556.73674,333.86942 558.94353,335.70089 C 561.98471,338.22486 561.80139,342.50308 558.34109,349.75939 C 555.50423,355.70835 555.52641,355.88547 560.18743,364.50198 L 564.90511,373.22325 L 560.55523,379.63317 C 555.68158,386.8149 555.03973,394.01779 558.51929,402.48108 C 561.12791,408.82602 560.00912,413.27469 554.69443,417.6899 C 550.53175,421.14806 550.26021,425.65506 553.80196,432.50402 C 557.70333,440.04845 556.39249,445.90695 550.36371,447.87046 C 543.61651,450.06793 542.90829,451.52995 542.8786,463.32272 C 542.85114,474.23006 542.46713,474.72071 530.58355,479.03185 C 525.90788,480.72809 525.83496,480.95316 526.41096,491.90977 L 526.99719,503.06127 L 519.58308,505.22601 C 515.50532,506.41662 511.44295,508.11678 510.55559,509.00415 C 509.66821,509.89152 508.10873,515.71818 507.09007,521.9523 L 505.23796,533.28705 L 494.25331,534.12157 C 488.21176,534.58055 482.06902,535.95397 480.60277,537.1736 C 478.89206,538.59657 477.529,543.53025 476.79855,550.94316 C 476.17249,557.29678 475.56952,562.48707 475.45865,562.47714 C 475.34777,562.46719 471.57011,561.34059 467.06386,559.97358 C 450.34952,554.90311 446.29298,557.35371 443.55016,574.17845 C 442.87674,578.30932 442.00106,582.23863 441.6042,582.91026 C 441.20735,583.58189 436.91462,581.89199 432.06482,579.15492 C 416.94249,570.62042 409.65057,573.04416 406.86575,587.53075 C 404.8595,597.96727 404.17396,599.21444 400.45516,599.1932 C 398.4516,599.18176 393.58764,596.1775 389.64636,592.51705 C 378.91696,582.55215 371.9285,584.16442 367.38284,597.65334 C 363.37565,609.54445 359.60304,610.34779 348.29684,601.71756 C 337.35914,593.36864 330.85665,593.64041 324.27838,602.72144 C 321.551,606.48647 318.86696,610.99287 318.31381,612.73566 C 316.81336,617.46319 311.55541,616.56614 307.5161,610.89345 z "
           style="fill:black"
           id="path1420" />
        <path
           d="M 328.65805,589.26438 C 331.06058,587.75143 329.38384,587.58942 320.87112,588.51196 C 314.90431,589.15858 308.14471,589.83607 305.84979,590.0175 C 303.55486,590.19891 300.33255,590.46467 298.6891,590.60809 C 296.26431,590.81967 296.85925,592.12064 301.84517,597.50946 C 305.22445,601.16181 309.06963,605.69246 310.39002,607.57759 C 312.69823,610.87303 313.03745,610.6234 319.19349,601.0988 C 322.71499,595.65035 326.97404,590.32485 328.65805,589.26438 z "
           style="fill:#fcce31;fill-opacity:1"
           id="path1418" />
        <path
           d="M 278.82853,597.36014 L 287.33438,589.66463 L 275.45419,588.56048 C 268.92007,587.9532 261.79839,587.0107 259.62821,586.466 C 255.86183,585.52071 255.96918,585.93889 261.98943,595.66298 C 265.45829,601.26601 268.75235,605.6715 269.30956,605.45297 C 269.86677,605.23443 274.1503,601.59267 278.82853,597.36014 z "
           style="fill:#fcce31;fill-opacity:1"
           id="path1416" />
        <path
           d="M 360.92801,600.79148 C 360.92801,596.89962 367.8328,584.21422 371.35744,581.63067 C 374.71582,579.16898 374.76035,578.97697 371.77675,579.82257 C 363.37502,582.20377 343.53579,585.86171 339.02292,585.86171 C 336.11692,585.86171 334.458,586.56002 335.05794,587.53075 C 335.62527,588.44872 337.45067,589.19979 339.11438,589.19979 C 340.77808,589.19979 345.42793,592.17324 349.44735,595.80749 C 356.68427,602.35085 360.92801,604.19315 360.92801,600.79148 z "
           style="fill:#fcce31;fill-opacity:1"
           id="path1414" />
        <path
           d="M 250.53481,585.76047 C 252.95996,585.70477 249.31116,584.14982 242.42638,582.305 C 235.5416,580.46016 224.66536,576.75039 218.25696,574.06105 C 211.84854,571.37172 205.57431,569.17134 204.31421,569.17134 C 199.9879,569.17134 179.82366,557.429 164.59251,546.04001 C 149.77073,534.95712 149.41167,534.79414 151.65747,540.16914 C 152.92795,543.20981 153.96742,548.80635 153.96742,552.60593 C 153.96742,557.90836 154.52184,559.30151 156.35246,558.59903 C 161.50513,556.62177 170.82763,555.49981 174.48241,556.4171 C 179.1714,557.59395 185.67912,568.61512 185.67912,575.37931 C 185.67912,578.08474 186.06995,580.68908 186.54761,581.16675 C 187.02529,581.64441 190.9079,580.26745 195.17566,578.10685 C 199.44342,575.94623 205.74142,574.17845 209.17122,574.17845 C 214.74624,574.17845 215.95462,575.00488 220.57161,581.97526 C 223.41203,586.26352 225.73601,590.34548 225.73601,591.04631 C 225.73601,591.74716 226.49295,594.31145 227.41808,596.74475 L 229.10016,601.16894 L 237.61283,593.51533 C 243.00751,588.66504 247.74051,585.82463 250.53481,585.76047 z "
           style="fill:#fcce31;fill-opacity:1"
           id="path1412" />
        <path
           d="M 401.01003,589.61705 C 401.0457,585.46991 404.85291,575.0585 407.50013,571.86879 C 410.29582,568.50019 410.29632,568.50016 399.25801,572.36601 C 394.24099,574.12309 387.13189,576.13001 383.46001,576.82585 L 376.78386,578.09099 L 381.83278,579.42324 C 384.60968,580.15596 389.45118,583.40651 392.59166,586.64666 C 398.96258,593.21976 400.97293,593.92912 401.01003,589.61705 z "
           style="fill:#fcce31;fill-opacity:1"
           id="path1410" />
        <path
           d="M 328.06208,580.76943 C 347.84006,577.87893 366.17232,574.07641 376.64226,570.69284 C 382.07219,568.93805 388.51454,567.50231 390.95857,567.50231 C 395.29887,567.50231 407.9351,562.88378 425.65266,554.82166 C 430.4992,552.61632 434.85905,550.81194 435.34119,550.81194 C 436.65023,550.81194 456.40424,537.24552 460.13317,533.78561 C 461.91271,532.13444 464.16591,530.77413 465.14028,530.76268 C 467.71261,530.73247 478.98572,519.5195 488.60934,507.41879 C 493.19919,501.64753 498.10958,495.71859 499.52132,494.24337 C 516.07066,476.94967 535.76726,429.47225 542.87177,389.74987 C 546.90822,367.18146 547.95526,334.75803 545.23464,316.57953 C 542.65014,299.31044 537.08166,277.00468 533.74359,270.54956 C 532.32799,267.81211 531.16978,264.0525 531.16978,262.19486 C 531.16978,260.33724 528.91658,253.14525 526.16267,246.21268 C 523.40876,239.28012 521.15556,233.19224 521.15556,232.68409 C 521.15556,232.17595 526.03749,232.28298 532.0043,232.92198 C 544.72801,234.28458 545.73801,232.70959 536.19173,226.39217 C 524.10951,218.39653 499.76602,191.8996 499.31463,186.25288 C 499.23571,185.26586 498.45848,186.71151 497.58741,189.46543 C 495.02929,197.55298 493.51315,251.16188 495.88397,249.69663 C 496.96172,249.03055 497.61493,247.97419 497.33557,247.34913 C 497.05619,246.72409 499.27058,243.863 502.2564,240.99117 L 507.68518,235.76965 L 510.12498,239.49324 C 514.23306,245.76298 523.10571,280.74716 527.97732,309.88367 C 530.61191,325.64082 529.1623,375.1833 525.76254,385.57727 C 524.41137,389.70814 522.3594,396.46774 521.20263,400.59861 C 517.32108,414.45959 515.65298,418.07945 508.89658,427.3032 C 501.65568,437.1884 496.00174,442.72235 490.44234,445.36582 C 474.86863,452.77105 469.52439,454.5174 460.12848,455.27162 C 454.22065,455.74584 449.38697,456.31108 449.38697,456.52769 C 449.38697,458.85714 457.53911,473.79509 463.47738,482.34687 C 467.60748,488.29468 470.44534,493.68202 469.78377,494.31872 C 469.12218,494.95544 464.45003,494.71035 459.40119,493.77405 C 450.82203,492.18307 442.12376,492.4805 430.19304,494.77277 C 427.43913,495.30189 422.93273,496.11027 420.17882,496.5692 C 406.7856,498.80109 399.11165,514.53119 397.99126,542.04949 C 397.5708,552.37666 396.97355,560.82616 396.66408,560.82616 C 395.46392,560.82616 379.58203,554.2635 368.69401,549.26846 C 333.84847,533.28259 312.81747,529.02418 265.7929,528.43275 C 228.29034,527.96108 222.23746,526.45646 218.11083,516.58004 C 215.16617,509.53246 214.99467,498.04964 217.80809,496.30892 C 218.95555,495.59896 229.65825,494.87236 241.59186,494.69427 C 270.11706,494.26855 277.89879,491.79601 301.6772,475.60288 C 313.29491,467.69119 329.21631,453.41577 329.21631,450.91078 C 329.21631,450.18937 325.27321,450.16071 320.45386,450.8471 C 315.63452,451.53348 310.56482,452.16177 309.18786,452.2433 C 307.81091,452.32483 302.17791,456.50968 296.67008,461.54296 C 291.16226,466.57626 286.09256,470.69524 285.40409,470.69627 C 281.78079,470.70173 284.99946,463.89991 290.84196,459.20474 C 298.548,453.01199 310.8569,437.34209 310.8569,433.72462 C 310.8569,432.37438 303.64407,423.98617 294.8284,415.08415 C 277.23291,397.31629 275.43912,392.5876 287.09005,394.68476 C 290.52312,395.30272 297.56437,396.19742 302.73727,396.673 C 311.11835,397.44353 312.42845,397.12948 314.76819,393.78904 C 316.21229,391.72727 317.0635,389.50587 316.65974,388.85257 C 316.25598,388.19928 311.89239,387.33031 306.96287,386.92152 C 289.65417,385.48614 260.9726,367.58304 254.3744,354.09568 C 252.7407,350.75622 250.55603,346.52181 249.51957,344.68587 C 248.48313,342.84993 247.19185,339.2502 246.65005,336.68647 C 245.46176,331.06349 241.95476,329.41767 236.47832,331.91289 C 231.28721,334.27812 230.94847,343.03903 235.74399,350.90442 C 240.94298,359.43153 240.26236,361.03348 232.03135,359.64286 C 224.64633,358.39517 219.3646,355.60996 212.40077,349.29107 C 210.11523,347.2172 207.44894,345.52039 206.47569,345.52039 C 203.79035,345.52039 200.70046,349.17838 200.70046,352.35745 C 200.70046,355.5889 211.61317,365.61721 222.19452,372.10953 C 227.2969,375.24018 221.8211,377.23209 208.11262,377.23209 C 196.24969,377.23209 193.49703,377.75937 190.68624,380.57016 C 188.85029,382.4061 187.34816,384.60105 187.34816,385.44784 C 187.34816,388.327 198.54798,390.69593 218.81967,392.10451 C 241.82518,393.70306 242.5665,394.03378 256.83742,409.06538 C 262.22193,414.73689 268.69285,421.28472 271.21727,423.6161 C 273.74169,425.94747 275.77803,428.66966 275.74246,429.66539 C 275.7069,430.6611 271.24922,435.23112 265.8365,439.82098 C 260.42378,444.41083 255.57923,449.29276 255.07084,450.66972 C 254.56243,452.04667 252.39876,455.05685 250.26268,457.35898 C 248.12658,459.66112 244.33164,465.03801 241.82947,469.30764 C 239.3273,473.57727 236.15636,477.50179 234.78294,478.02882 C 230.34017,479.73368 230.33197,474.35257 234.76849,468.53599 C 237.14438,465.42102 239.08831,462.45876 239.08831,461.95319 C 239.08831,461.44762 234.515,462.45734 228.92539,464.19703 C 223.33577,465.93671 216.01287,467.36768 212.65228,467.37698 C 202.24468,467.40575 185.60185,460.57375 172.50632,450.89676 L 160.16803,441.77934 L 155.81595,446.79463 C 153.4223,449.55303 148.27233,454.24483 144.37156,457.22082 C 138.2398,461.8989 137.13417,462.25365 136.20803,459.84019 C 135.44265,457.84559 138.06302,454.26417 145.38664,447.29524 C 151.02404,441.93087 155.63646,436.703 155.63646,435.67771 C 155.63646,432.02529 150.50354,423.96512 148.17757,423.96512 C 146.87625,423.96512 144.82048,425.38003 143.60921,427.10936 C 140.37342,431.7291 129.56952,437.31742 123.87398,437.31742 C 117.67278,437.31742 117.17133,433.11048 123.19242,431.59928 C 128.03666,430.38346 143.72524,420.45843 143.8629,418.52256 C 144.03505,416.10154 136.90255,402.26764 135.48217,402.26764 C 134.69717,402.26764 130.50198,404.52084 126.15951,407.27475 C 117.89952,412.51308 108.90342,413.95599 108.90342,410.0425 C 108.90342,408.81085 111.71992,406.946 115.16231,405.89842 C 118.6047,404.85083 123.86217,401.68962 126.84557,398.87349 C 131.33974,394.6313 132.26994,392.51558 132.26994,386.53582 C 132.26994,382.56623 132.71072,377.1145 133.24945,374.42086 C 134.20297,369.65324 134.07235,369.54162 128.32552,370.21254 C 119.05242,371.29511 105.55951,359.87995 110.39573,355.04371 C 111.68511,353.75435 113.27119,354.22049 115.97471,356.68337 C 123.97271,363.96947 127.68399,364.44853 139.36335,359.70246 C 141.96237,358.64631 142.28588,359.68447 142.29982,369.12559 C 142.31265,377.82067 143.21026,381.29578 147.27311,388.37975 C 152.60155,397.67041 157.78855,402.26764 162.94265,402.26764 C 165.90379,402.26764 165.95254,402.02835 163.5377,399.34683 C 162.09099,397.74038 159.26905,392.29515 157.26669,387.24631 C 154.10181,379.26626 153.72723,375.77637 154.40032,360.54172 C 155.23926,341.55342 156.54912,337.23734 169.95813,309.27801 C 174.01483,300.81935 177.33394,293.08195 177.33394,292.0838 C 177.33394,291.08564 179.02384,287.30947 181.08927,283.69228 C 184.50526,277.70987 185.46712,277.11442 191.73366,277.10272 C 200.57994,277.08621 203.1967,274.08752 201.58828,265.80975 C 199.97418,257.5027 199.96099,255.65691 201.46319,248.29898 C 202.51901,243.12739 202.27381,242.04009 200.05169,242.04009 C 198.57257,242.04009 197.36238,242.64954 197.36238,243.39441 C 197.36238,244.13929 195.67248,246.54671 193.60705,248.74423 C 188.94261,253.70699 179.00298,268.90341 179.00298,271.07201 C 179.00298,273.23516 158.89814,314.42189 157.32683,315.47772 C 156.64376,315.9367 154.5028,319.43327 152.56915,323.24787 C 145.92278,336.35953 135.48711,340.66459 126.83934,333.86225 C 108.7959,319.66929 116.12917,220.99018 136.36148,205.72892 L 140.10281,202.90683 L 135.9956,200.77599 C 128.65287,196.96653 121.58013,198.30712 113.7785,204.98707 C 112.01518,206.49688 110.57246,209.00596 110.57246,210.5628 C 110.57246,214.59281 108.80313,218.67357 107.05582,218.67357 C 106.23605,218.67357 105.56535,216.45571 105.56535,213.74499 C 105.56535,208.04114 102.4215,200.31417 100.10082,200.31417 C 99.157865,200.31417 98.975874,203.41964 99.65387,207.94083 C 101.6572,221.29999 100.7188,248.40793 97.840127,260.33461 C 94.787776,272.98092 95.432074,277.08987 100.46738,277.08987 C 105.42248,277.08987 109.03947,283.94591 109.41031,294.04134 C 109.67575,301.26702 108.9483,304.01287 105.57805,308.50695 C 103.29012,311.5578 99.383285,314.46094 96.89617,314.95835 C 92.770795,315.78344 92.330486,316.61448 91.876341,324.43269 C 91.511339,330.71646 90.710669,333.00261 88.874978,333.00261 C 84.370465,333.00261 83.584582,291.71764 87.706602,271.62392 C 87.89023,270.72882 87.255412,269.70348 86.295899,269.3454 C 84.690219,268.74617 80.757951,271.9229 76.176962,277.5201 C 73.422416,280.88568 72.447682,290.42042 74.20683,296.79157 C 76.580017,305.3865 72.682649,318.73797 67.233427,320.68074 C 60.771149,322.98473 43.8134,332.08123 35.883054,337.49778 C 26.226089,344.09361 26.745293,347.10761 38.4151,352.19653 C 46.202509,355.59244 50.681554,356.36913 62.478057,356.36913 C 76.016117,356.36913 77.288657,356.06626 81.763312,351.77927 C 87.367921,346.40972 90.544015,345.90326 90.544015,350.37914 C 90.544015,353.75097 82.680164,361.30332 77.436233,362.96766 C 74.440512,363.91848 74.495273,364.93244 78.907339,390.20485 C 84.617349,422.91193 97.765021,460.17462 111.13621,481.5469 C 117.51422,491.7414 148.12878,528.43823 151.25706,529.63867 C 153.7393,530.59119 176.85765,547.06875 180.36361,550.38431 C 184.15583,553.97057 205.92344,563.76675 221.56342,568.92563 C 234.08435,573.05569 250.59542,577.46107 268.29646,581.39462 C 275.07383,582.90071 316.43991,582.46799 328.06208,580.76943 z "
           style="fill:#fcce31;fill-opacity:1"
           id="path1408" />
        <path
           d="M 439.90051,569.5886 C 440.43254,566.14621 441.34986,561.71719 441.93901,559.74634 L 443.01021,556.16297 L 434.93259,559.87369 C 430.4899,561.91457 424.9773,564.38082 422.68238,565.35426 L 418.50979,567.1241 L 423.5169,568.38382 C 426.27081,569.07668 430.40167,571.01565 432.6966,572.69264 C 438.42201,576.87645 438.79933,576.71387 439.90051,569.5886 z "
           style="fill:#fcce31;fill-opacity:1"
           id="path1406" />
        <path
           d="M 471.50058,548.34108 C 470.88156,542.84923 471.46185,539.63578 473.68545,536.24216 C 476.30051,532.25108 475.59022,532.54743 468.47446,538.41625 C 463.94314,542.15351 458.37869,546.47142 456.109,548.01161 L 451.98231,550.81194 L 456.109,550.88721 C 458.37869,550.92862 462.48891,551.99422 465.24282,553.25522 C 472.43118,556.54671 472.42594,556.55084 471.50058,548.34108 z "
           style="fill:#fcce31;fill-opacity:1"
           id="path1404" />
        <path
           d="M 377.8217,541.05441 C 375.02533,537.52373 371.5329,533.63533 370.06073,532.41354 C 368.58856,531.19174 366.36835,528.25972 365.12694,525.89794 C 363.88554,523.53615 358.38909,516.3687 352.91263,509.97028 C 343.54649,499.02734 341.65235,494.06468 346.84184,494.06468 C 348.07773,494.06468 350.43835,495.94779 352.08765,498.24937 C 353.73695,500.55096 357.89228,505.62066 361.3217,509.51537 C 364.75114,513.41009 367.57163,517.34774 367.58945,518.26571 C 367.6073,519.18369 372.7597,525.45558 379.03925,532.20324 L 390.4566,544.47173 L 391.50306,533.03776 C 392.27745,524.57673 394.16039,518.41658 398.7449,509.34573 C 404.50777,497.94342 405.5887,496.79698 414.22859,492.92382 C 419.33716,490.63371 427.85688,488.34516 433.16128,487.83815 C 449.135,486.31133 448.35958,485.41289 421.01334,473.76306 C 413.32883,470.48936 401.15294,464.81462 383.55034,456.30292 C 378.0922,453.66363 373.33558,450.5658 372.98006,449.41882 C 371.6571,445.15051 377.42355,445.63435 385.64414,450.48138 C 390.30905,453.23191 397.359,456.59668 401.31068,457.95865 C 413.38698,462.12081 442.83261,475.5982 444.41382,477.68715 C 445.85552,479.59177 454.39408,482.39824 454.39408,480.96746 C 454.39408,480.23522 451.96849,475.18411 449.00388,469.74277 C 443.13726,458.97501 437.77717,436.73778 437.73175,422.97861 C 437.71633,418.30515 438.82218,410.79449 440.18921,406.28824 C 441.55622,401.78199 442.68282,396.48777 442.69276,394.52333 C 442.70269,392.55887 446.08907,386.36257 450.21803,380.75377 C 454.34701,375.14496 457.18905,370.55594 456.5337,370.55594 C 455.87834,370.55594 448.18146,371.98018 439.42953,373.72092 C 403.71311,380.82482 387.6326,382.23262 387.6326,378.25559 C 387.6326,376.70541 391.35319,375.29028 398.8986,373.97054 C 405.0949,372.88677 413.5444,371.32141 417.67527,370.49197 C 421.80613,369.66252 431.93921,367.67999 440.19321,366.08636 C 453.91799,363.43646 454.69985,363.08483 449.34227,361.9717 C 443.35113,360.72691 431.13376,355.57441 425.22439,351.80032 C 420.73987,348.93624 418.24588,345.87719 413.98109,338.00972 C 409.39931,329.5575 409.13611,311.93349 413.39995,299.09649 C 415.02046,294.21768 417.66901,287.76805 418.49929,284.36675 C 419.46631,280.40533 419.8132,278.79254 417.58355,279.64813 C 416.20356,280.17769 412.38218,282.48061 409.35947,283.89597 C 405.45913,285.72226 392.32421,292.22875 387.99438,294.41237 C 383.66453,296.59599 374.86447,300.4646 368.43868,303.0093 C 356.48845,307.74173 341.5938,316.39851 338.12811,320.6258 C 337.06278,321.92523 335.70808,325.61712 335.11764,328.83002 C 333.99339,334.94764 334.45485,336.06966 348.16009,360.54172 C 369.94346,399.43811 368.60853,435.34684 344.22973,466.2652 C 329.07489,485.48526 322.23351,491.16191 301.99039,501.31334 C 280.06649,512.30764 264.1743,516.20035 240.34009,516.41432 C 231.38988,516.49465 224.06698,516.77491 224.06698,517.0371 C 224.06698,519.79031 238.52254,521.24964 269.13097,521.5864 C 304.24898,521.97278 305.49644,522.10732 327.54727,527.88683 C 339.93987,531.13491 356.83887,536.82527 365.1006,540.53205 C 373.36234,544.23885 380.74834,547.31717 381.51396,547.37277 C 382.27958,547.42836 380.61806,544.58511 377.8217,541.05441 z "
           style="fill:#fcce31;fill-opacity:1"
           id="path1402" />
        <path
           d="M 143.51663,531.68037 C 143.73549,531.51433 139.98069,526.80027 135.17261,521.20467 C 130.36453,515.60908 126.35664,511.15657 126.26616,511.31022 C 126.17569,511.46386 126.44876,516.63313 126.87298,522.7975 L 127.6443,534.00542 L 135.38149,532.99385 C 139.63695,532.43747 143.29775,531.84642 143.51663,531.68037 z "
           style="fill:#fcce31;fill-opacity:1"
           id="path1400" />
        <path
           d="M 500.59723,521.34656 C 500.21509,510.47951 504.06676,504.79455 514.49789,500.8295 C 519.40855,498.96288 521.75428,497.16301 521.30574,495.60588 C 517.90463,483.79888 521.44187,475.95937 531.87215,472.18773 L 537.48056,470.1597 L 536.59447,460.38772 C 535.60625,449.48954 537.51356,445.91889 546.25791,442.29686 L 551.09051,440.29513 L 547.54232,434.13003 C 543.38206,426.90141 544.12458,421.67007 550.36322,414.25587 C 555.13592,408.58383 555.38459,406.04544 552.19164,395.5915 C 550.16857,388.96776 549.79679,388.57356 549.04342,392.25342 C 543.03839,421.58501 533.43116,453.34158 528.84625,459.0149 C 527.73347,460.39186 525.09839,465.27379 522.99052,469.86364 C 520.88266,474.45349 518.05978,480.51482 516.71744,483.33324 C 514.08233,488.86605 498.55977,508.43504 486.74806,521.11503 C 482.72293,525.43606 479.43057,529.1914 479.43171,529.46021 C 479.43284,529.72903 484.2641,529.96263 490.16782,529.9793 L 500.90188,530.00963 L 500.59723,521.34656 z "
           style="fill:#fcce31;fill-opacity:1"
           id="path1398" />
        <path
           d="M 265.30417,507.57044 C 273.75609,505.87987 285.53806,502.14948 291.48634,499.28069 C 297.4346,496.41188 303.15222,494.06468 304.19212,494.06468 C 306.89017,494.06468 320.72942,484.29574 325.269,479.18682 C 330.90015,472.8494 342.9571,457.61543 346.34453,452.55783 C 352.08352,443.98926 356.51653,425.61121 356.46218,410.61283 C 356.39499,392.06384 349.85145,374.17478 333.9065,348.94895 C 326.02419,336.47868 327.94961,320.52851 338.39601,311.7579 C 343.40554,307.55198 370.18425,294.85278 388.12785,287.62094 C 393.37022,285.50809 405.84375,279.02523 409.28076,277.06266 C 414.43436,274.1199 429.08901,264.04306 432.93202,260.316 C 435.85368,257.48247 438.97739,250.38528 436.03467,250.38528 C 435.1167,250.38528 433.67534,251.77932 431.90294,252.85036 C 429.16261,254.5063 416.51554,261.39127 409.48575,265.19339 C 404.20051,268.05197 378.03564,280.74644 373.44579,283.1586 C 368.85594,285.57075 361.34527,289.40202 356.75542,291.67253 C 352.16557,293.94304 345.15401,297.41156 341.17417,299.38034 C 337.19434,301.34912 330.81027,306.67056 326.98736,311.20575 C 320.26746,319.17767 320.0366,319.8429 320.0366,331.2342 C 320.0366,341.39953 320.73019,344.16229 325.0897,351.36201 C 332.98087,364.39429 342.19375,385.37013 345.18113,397.10601 C 351.11132,420.40273 341.6533,448.193 320.87112,468.53559 C 310.28968,478.89322 292.63971,491.03466 284.15231,493.79454 C 262.80264,500.7369 253.01172,502.36909 237.01411,501.65269 C 224.53856,501.09401 220.7289,501.42174 220.7289,503.05364 C 220.7289,505.27842 225.86454,508.39672 231.57764,509.64088 C 238.85254,511.22517 250.65492,510.50064 265.30417,507.57044 z "
           style="fill:#fcce31;fill-opacity:1"
           id="path1396" />
        <path
           d="M 117.03571,499.48905 C 115.77585,497.8826 114.12457,496.11304 113.36621,495.55668 C 112.60785,495.00034 110.19033,491.62054 107.99393,488.04601 L 104.00049,481.5469 L 103.9484,488.5038 C 103.91974,492.3301 103.45816,496.60248 102.92265,497.998 C 102.1634,499.97659 103.54159,500.67747 109.18153,501.18098 C 113.15943,501.53612 117.06935,501.95789 117.87022,502.11827 C 118.67111,502.27864 118.29558,501.0955 117.03571,499.48905 z "
           style="fill:#fcce31;fill-opacity:1"
           id="path1394" />
        <path
           d="M 95.169368,461.91459 L 89.709497,451.46199 L 88.391659,456.49022 C 86.02428,465.52303 86.223947,466.19423 91.713626,467.65776 C 94.651833,468.44109 97.512662,469.82115 98.071022,470.7246 C 98.629365,471.62803 99.43339,472.3672 99.857709,472.3672 C 100.28205,472.3672 98.172282,467.66353 95.169368,461.91459 z "
           style="fill:#fcce31;fill-opacity:1"
           id="path1392" />
        <path
           d="M 81.952147,430.22401 C 77.668847,416.41639 78.318854,417.09038 75.193398,423.21579 L 72.360542,428.76771 L 77.696954,432.06977 C 80.631972,433.88591 83.168691,435.43406 83.334093,435.5101 C 83.499511,435.58616 82.877628,433.20742 81.952147,430.22401 z "
           style="fill:#fcce31;fill-opacity:1"
           id="path1390" />
        <path
           d="M 72.689576,390.94992 C 71.918831,385.20353 71.309783,384.22555 69.458637,385.76185 C 66.395587,388.30396 66.582703,392.16785 69.949,395.88757 C 73.559094,399.87668 73.823102,399.40102 72.689576,390.94992 z "
           style="fill:#fcce31;fill-opacity:1"
           id="path1388" />
        <path
           d="M 557.83726,371.90622 C 557.85767,370.35395 557.12331,368.61972 556.20534,368.05238 C 555.28737,367.48505 554.46143,364.99975 554.36993,362.52951 L 554.20356,358.03816 L 552.86726,362.21076 C 552.1323,364.50568 551.4728,370.13868 551.40172,374.72853 L 551.27245,383.07372 L 554.5363,378.90113 C 556.33142,376.6062 557.81684,373.4585 557.83726,371.90622 z "
           style="fill:#fcce31;fill-opacity:1"
           id="path1386" />
        <path
           d="M 187.31104,370.9732 C 187.33145,369.82574 186.58279,368.8869 185.64733,368.8869 C 184.66652,368.8869 184.38984,367.12048 184.99375,364.71431 C 186.60931,358.27737 182.7375,359.67419 180.94226,366.17595 C 180.08663,369.27477 179.78297,373.88375 180.26744,376.41812 L 181.14831,381.02604 L 184.21112,377.04277 C 185.89567,374.85197 187.29063,372.12066 187.31104,370.9732 z "
           style="fill:#fcce31;fill-opacity:1"
           id="path1384" />
        <path
           d="M 203.71983,367.63513 C 200.92977,361.78368 196.14874,355.5538 194.44157,355.54516 C 193.11849,355.53846 192.35527,357.97689 192.35527,362.21076 C 192.35527,368.75752 192.47117,368.8869 198.33598,368.8869 C 201.62539,368.8869 204.04811,368.3236 203.71983,367.63513 z "
           style="fill:#32669f;fill-opacity:1"
           id="path1382" />
        <path
           d="M 554.97159,344.03611 C 555.42513,342.30178 555.14869,339.86081 554.35728,338.61174 C 553.37899,337.06766 552.91019,338.07708 552.89282,341.76505 C 552.86421,347.83766 553.73009,348.78362 554.97159,344.03611 z "
           style="fill:#fcce31;fill-opacity:1"
           id="path1380" />
        <path
           d="M 205.81729,338.78552 C 207.59288,337.83525 209.04564,336.19376 209.04564,335.13776 C 209.04564,334.08176 210.6787,331.47944 212.67465,329.35484 C 215.56725,326.27582 215.77241,325.49194 213.68568,325.49194 C 210.17016,325.49194 200.70046,334.5005 200.70046,337.84483 C 200.70046,340.97413 201.46516,341.11471 205.81729,338.78552 z "
           style="fill:#fcce31;fill-opacity:1"
           id="path1378" />
        <path
           d="M 140.61541,320.06757 C 140.61571,308.96939 143.96261,289.47242 147.99307,277.08987 C 151.81585,265.34531 160.30238,242.45957 162.05367,239.17242 C 165.14231,233.37512 167.62697,210.01548 166.43204,198.00896 C 165.22231,185.85355 160.31852,172.64901 155.71207,169.143 C 154.29353,168.06335 150.8797,165.94461 148.12579,164.43469 C 143.46684,161.88028 143.35079,161.88115 146.45675,164.44706 C 148.2927,165.96378 151.1599,168.18874 152.82832,169.39143 C 154.49674,170.59413 157.67095,175.97832 159.8821,181.35631 C 167.50249,199.89058 164.54571,224.87196 151.40235,253.00024 C 141.62015,273.93522 135.79575,295.29265 134.47783,315.06046 C 133.47792,330.05816 133.55086,330.49905 137.03184,330.49905 C 140.31462,330.49905 140.61514,329.62423 140.61541,320.06757 z "
           style="fill:#fcce31;fill-opacity:1"
           id="path1376" />
        <path
           d="M 246.90725,319.53548 C 248.70517,315.66073 248.57109,315.32121 245.42948,315.79318 C 243.52918,316.07866 240.85789,318.00214 239.49327,320.06757 C 237.15653,323.60433 237.24254,323.82215 240.97103,323.80989 C 243.5794,323.80131 245.60448,322.34314 246.90725,319.53548 z "
           style="fill:#fcce31;fill-opacity:1"
           id="path1374" />
        <path
           d="M 153.36895,313.18405 C 156.38636,306.85649 154.70357,297.95283 150.49027,297.95283 C 148.75554,297.95283 147.99345,300.73113 147.62889,308.38431 C 147.0664,320.19262 149.18286,321.96236 153.36895,313.18405 z "
           style="fill:#32669f;fill-opacity:1"
           id="path1372" />
        <path
           d="M 128.93187,307.01016 C 128.93187,298.24373 128.53706,296.95346 126.01105,297.46472 C 123.78327,297.91563 123.11906,299.65426 123.21173,304.79234 C 123.48535,319.96548 128.93187,322.07721 128.93187,307.01016 z "
           style="fill:#32669f;fill-opacity:1"
           id="path1370" />
        <path
           d="M 68.535109,302.54161 C 69.263193,294.98984 64.562283,293.56785 40.782312,294.14663 L 21.548179,294.61476 L 41.442032,301.59821 C 65.130257,309.91362 67.81532,310.00712 68.535109,302.54161 z "
           style="fill:#fcce31;fill-opacity:1"
           id="path1368" />
        <path
           d="M 162.31261,292.62672 C 162.31261,291.31213 160.31861,290.44216 157.3055,290.44216 C 151.48606,290.44216 151.35882,290.79467 155.11096,296.52116 C 157.75749,300.56028 158.05307,300.63651 160.11807,297.81248 C 161.32507,296.16182 162.31261,293.82822 162.31261,292.62672 z "
           style="fill:white;fill-opacity:1"
           id="path1366" />
        <path
           d="M 102.26855,283.84314 C 100.09139,279.77507 93.882089,279.23118 93.882089,283.10855 C 93.882089,284.58288 95.759756,287.26612 98.054682,289.07132 C 100.34961,290.87651 102.34746,293.61333 102.49437,295.15315 C 102.64128,296.69298 103.06181,295.54656 103.4289,292.60559 C 103.79597,289.66459 103.27381,285.72149 102.26855,283.84314 z "
           style="fill:#fcfefb;fill-opacity:1"
           id="path1364" />
        <path
           d="M 128.93187,290.36672 C 128.93187,288.96552 124.2364,283.76602 122.97102,283.76602 C 122.57761,283.76602 122.25572,285.9489 122.25572,288.61687 C 122.25572,292.64601 122.82117,293.31985 125.59379,292.5948 C 127.42973,292.11469 128.93187,291.11205 128.93187,290.36672 z "
           style="fill:white;fill-opacity:1"
           id="path1362" />
        <path
           d="M 134.59493,282.79499 C 136.399,278.09364 135.69629,277.08987 130.6009,277.08987 C 125.351,277.08987 124.03419,279.86977 127.59664,283.43221 C 130.37346,286.20904 133.39025,285.93435 134.59493,282.79499 z "
           style="fill:#32669f;fill-opacity:1"
           id="path1360" />
        <path
           d="M 163.98164,283.65629 C 163.98164,276.92071 155.46316,272.45367 153.31147,278.0609 C 151.12155,283.76772 152.21331,285.43505 158.14001,285.43505 C 161.35291,285.43505 163.98164,284.63462 163.98164,283.65629 z "
           style="fill:#32669f;fill-opacity:1"
           id="path1358" />
        <path
           d="M 67.177497,282.23349 C 67.177497,281.39059 67.568686,279.68152 68.046815,278.43555 C 68.644197,276.87879 66.425313,275.46489 60.953408,273.91559 C 56.573905,272.6756 48.300389,270.18994 42.567814,268.39188 C 36.835223,266.59383 31.300329,265.40424 30.268046,265.74833 C 28.278921,266.41137 46.7595,276.05128 53.825201,278.03631 C 56.120127,278.68104 59.479281,280.23397 61.289986,281.48728 C 65.118123,284.13698 67.177497,284.398 67.177497,282.23349 z "
           style="fill:#fcce31;fill-opacity:1"
           id="path1356" />
        <path
           d="M 171.53223,275.29505 C 172.90128,270.98156 172.89135,270.9728 164.94958,269.48906 L 158.40688,268.26669 L 162.14243,273.51281 C 166.46098,279.57765 169.96207,280.2422 171.53223,275.29505 z "
           style="fill:white;fill-opacity:1"
           id="path1354" />
        <path
           d="M 132.26994,270.12788 C 132.26994,267.35683 127.17195,262.06854 124.50059,262.06854 C 123.11898,262.06854 122.25572,263.994 122.25572,267.07565 C 122.25572,271.52642 122.81206,272.08276 127.26283,272.08276 C 130.01674,272.08276 132.26994,271.20306 132.26994,270.12788 z "
           style="fill:white;fill-opacity:1"
           id="path1352" />
        <path
           d="M 140.61513,262.24711 C 140.61513,256.93708 138.25389,255.39239 130.13699,255.39239 L 124.93898,255.39239 L 130.6009,261.23402 C 137.53937,268.3927 140.61513,268.70386 140.61513,262.24711 z "
           style="fill:#32669f;fill-opacity:1"
           id="path1350" />
        <path
           d="M 173.98962,264.15483 C 173.97505,261.22984 167.17304,252.05431 165.01927,252.05431 C 160.2421,252.05431 158.93157,263.04542 163.56438,264.25609 C 168.45351,265.53376 173.99623,265.47993 173.98962,264.15483 z "
           style="fill:#32669f;fill-opacity:1"
           id="path1348" />
        <path
           d="M 180.0766,256.20566 C 181.34532,252.8994 177.78213,248.71624 173.69714,248.71624 C 170.56581,248.71624 170.5577,248.86629 173.42684,253.72335 C 176.70972,259.28081 178.62255,259.99486 180.0766,256.20566 z "
           style="fill:white;fill-opacity:1"
           id="path1346" />
        <path
           d="M 140.61513,250.53364 C 140.61513,248.30437 130.74329,240.37105 127.96928,240.37105 C 126.45338,240.37105 125.59379,242.14644 125.59379,245.27741 C 125.59379,249.7179 126.18809,250.24595 131.85268,250.83847 C 135.29507,251.19856 138.67487,251.61943 139.36335,251.77375 C 140.05183,251.92805 140.61513,251.37001 140.61513,250.53364 z "
           style="fill:white;fill-opacity:1"
           id="path1344" />
        <path
           d="M 146.76967,244.33008 C 147.4392,242.58528 146.37524,240.50813 143.79646,238.52557 C 136.23923,232.71555 133.04489,235.38369 138.52883,242.92547 C 141.93512,247.60993 145.29153,248.18203 146.76967,244.33008 z "
           style="fill:#32669f;fill-opacity:1"
           id="path1342" />
        <path
           d="M 143.03122,229.93957 C 142.40041,227.87414 140.79665,223.55551 139.46731,220.34261 L 137.05031,214.50098 L 133.82562,218.44121 C 132.05201,220.60835 130.6009,223.36298 130.6009,224.56265 C 130.6009,226.23897 137.48682,230.94362 143.64842,233.4771 C 143.93976,233.59688 143.66204,232.00501 143.03122,229.93957 z "
           style="fill:white;fill-opacity:1"
           id="path1340" />
        <g
           id="g3684">
          <path
             d="M 302.06209,257.56679 C 300.75625,255.25094 294.42586,233.23232 292.55971,224.5152 C 291.57712,219.92535 289.14767,209.89025 287.16095,202.21497 L 283.5487,188.25991 L 276.43747,189.23461 C 272.52628,189.77071 257.01936,193.23398 241.97766,196.93078 C 226.93595,200.62758 212.18614,203.65224 209.20031,203.65224 L 203.77154,203.65224 L 211.83295,194.66162 C 216.26675,189.7168 227.58913,178.78397 236.99383,170.36649 C 253.71476,155.40073 257.12015,150.42286 255.06567,143.94972 C 254.50772,142.19182 246.74148,133.26303 237.80732,124.10797 C 204.31381,89.78623 204.62343,90.157724 209.51232,90.157724 C 211.89005,90.157724 215.61536,90.834452 217.79078,91.661543 C 219.96622,92.488651 228.84015,94.742953 237.51062,96.671141 C 246.1811,98.599313 258.90812,101.66508 265.7929,103.48397 C 272.67768,105.30285 279.61496,106.80386 281.20909,106.81955 C 284.55773,106.85253 287.92924,99.807112 292.77659,82.647058 C 294.59173,76.221265 297.08761,68.710582 298.32297,65.956671 C 299.55832,63.20276 302.17931,57.194227 304.14739,52.604375 C 308.47622,42.508871 308.22885,42.172343 317.64259,70.963782 C 328.29508,103.54397 329.9138,106.84809 335.22259,106.84809 C 337.6733,106.84809 352.78398,104.17552 368.80186,100.90904 C 412.15443,92.068271 411.69079,91.316871 381.37371,121.28329 C 367.37466,135.12043 355.9209,147.65019 355.9209,149.12721 C 355.9209,150.60424 363.28968,159.5335 372.29595,168.97004 C 400.28767,198.29895 406.54383,205.32582 405.5495,206.32015 C 404.14702,207.7226 388.40028,204.30527 361.36601,196.73151 C 348.29635,193.07 335.53874,190.31278 333.01577,190.60434 C 328.6164,191.11275 327.97825,192.49745 317.43274,224.41735 C 307.44435,254.6509 304.2737,261.48896 302.06209,257.56679 z "
             style="fill:black"
             id="path1338" />
          <path
             d="M 306.83991,238.23646 C 307.02534,237.11556 311.0093,224.58635 315.69313,210.39376 C 320.37697,196.20118 324.2092,183.62081 324.2092,182.43739 C 324.2092,179.89503 325.41713,179.78848 331.88807,181.76005 C 334.54946,182.57092 339.73124,184.0111 343.40312,184.96041 C 355.91814,188.19602 365.09054,190.82496 374.89521,193.98646 C 392.14129,199.54744 391.71789,197.64306 370.94223,176.2071 C 360.38557,165.31491 350.43394,155.22572 348.82749,153.78667 C 344.51792,149.92621 345.12104,148.19743 353.60863,140.08223 C 362.4118,131.66527 365.9909,128.04662 368.61514,124.90988 C 369.63017,123.69661 375.89216,117.60345 382.53067,111.36952 C 395.66681,99.033947 395.96614,99.342218 375.94934,104.59141 C 370.90051,105.9154 362.78989,108.09139 357.92576,109.42694 C 353.06164,110.76249 347.39108,111.85521 345.32453,111.85521 C 343.25798,111.85521 340.85367,112.5451 339.9816,113.38832 C 339.10952,114.23151 335.76728,115.17035 332.55438,115.47461 L 326.71275,116.0278 L 317.72999,88.792452 C 312.78948,73.812995 308.19794,62.171462 307.52657,62.922362 C 305.72802,64.934002 293.08952,99.918203 291.36044,107.6713 C 290.37172,112.10464 288.83936,114.5354 286.78371,114.93127 C 283.83873,115.49843 260.96743,109.95214 252.71099,106.66866 C 246.4282,104.17006 223.70035,98.31319 223.00103,99.012516 C 222.64893,99.3646 226.50008,103.56737 231.5591,108.35198 C 236.61813,113.13661 240.75853,117.57207 240.76,118.2086 C 240.76145,118.8451 246.76998,125.33118 254.1123,132.62211 C 261.45459,139.91305 267.46194,146.36219 267.46194,146.95353 C 267.46194,148.28952 248.94225,167.31155 232.82628,182.52869 C 226.17272,188.81116 220.7289,194.15554 220.7289,194.40509 C 220.7289,194.65466 223.5454,194.24224 226.98779,193.48861 C 230.43018,192.73499 235.49988,191.65938 238.25379,191.09838 C 241.0077,190.53738 252.42453,187.7805 263.62452,184.97198 C 274.82451,182.16346 285.08697,180.28726 286.43001,180.80262 C 287.81656,181.3347 289.71798,185.93374 290.82964,191.44417 C 293.09122,202.65472 302.52954,238.87985 303.71502,240.89935 C 304.67095,242.52782 306.36941,241.08046 306.83991,238.23646 z "
             style="fill:#fcce31;fill-opacity:1"
             id="path1336" />
        </g>
        <path
           d="M 92.205826,296.58923 C 92.626206,295.63849 93.980479,295.92727 94.628416,296.45115 C 95.187877,296.90351 96.389083,297.65381 96.656413,299.6182 C 96.804123,300.70365 96.141815,301.58734 95.430822,301.5215 C 92.822768,301.27997 91.6953,297.74393 92.205826,296.58923 z "
           style="fill:white;fill-opacity:1;fill-rule:evenodd;stroke:none;stroke-width:1px;stroke-linecap:butt;stroke-linejoin:miter;stroke-opacity:1"
           id="path1452" />
      </g>
    </g>
  </g>
</svg>
