<?xml version="1.0" encoding="UTF-8" standalone="no"?>
<!-- Author ("riccio at inmail sk") -->
<!-- Created with Sodipodi ("http://www.sodipodi.com/") -->
<svg
   xmlns:ns="http://creativecommons.org/ns#"
   xmlns:dc="http://purl.org/dc/elements/1.1/"
   xmlns:cc="http://web.resource.org/cc/"
   xmlns:rdf="http://www.w3.org/1999/02/22-rdf-syntax-ns#"
   xmlns:svg="http://www.w3.org/2000/svg"
   xmlns="http://www.w3.org/2000/svg"
   xmlns:xlink="http://www.w3.org/1999/xlink"
   xmlns:sodipodi="http://sodipodi.sourceforge.net/DTD/sodipodi-0.dtd"
   xmlns:inkscape="http://www.inkscape.org/namespaces/inkscape"
   height="600"
   id="Piemonte"
   sodipodi:author="Luigi_Maselli_metnik_at_tiscali_it"
   sodipodi:docname="Flag_of_Turin2.svg"
   sodipodi:version="0.32"
   width="900"
   inkscape:version="0.45.1"
   inkscape:output_extension="org.inkscape.output.svg.inkscape"
   sodipodi:docbase="C:\Documents and Settings\Administrator\Desktop"
   version="1.0">
  <metadata
     id="metadata3">
    <rdf:RDF>
      <ns:Work
         rdf:about="">
        <dc:title>Piemonte</dc:title>
        <dc:description />
        <dc:subject>
          <rdf:Bag>
            <rdf:li />
            <rdf:li>region</rdf:li>
            <rdf:li>flag</rdf:li>
            <rdf:li>piedmont</rdf:li>
            <rdf:li>italia</rdf:li>
            <rdf:li>italy</rdf:li>
            <rdf:li>europe</rdf:li>
            <rdf:li>piemonte</rdf:li>
            <rdf:li>sign</rdf:li>
          </rdf:Bag>
        </dc:subject>
        <dc:publisher>
          <ns:Agent
             rdf:about="http://www.openclipart.org">
            <dc:title>Luigi Maselli</dc:title>
          </ns:Agent>
        </dc:publisher>
        <dc:creator>
          <ns:Agent>
            <dc:title>Luigi Maselli</dc:title>
          </ns:Agent>
        </dc:creator>
        <dc:rights>
          <ns:Agent>
            <dc:title>Luigi Maselli</dc:title>
          </ns:Agent>
        </dc:rights>
        <dc:date />
        <dc:format>image/svg+xml</dc:format>
        <dc:type
           rdf:resource="http://purl.org/dc/dcmitype/StillImage" />
        <ns:license
           rdf:resource="http://web.resource.org/cc/PublicDomain" />
        <dc:language>en</dc:language>
      </ns:Work>
      <ns:License
         rdf:about="http://web.resource.org/cc/PublicDomain">
        <ns:permits
           rdf:resource="http://web.resource.org/cc/Reproduction" />
        <ns:permits
           rdf:resource="http://web.resource.org/cc/Distribution" />
        <ns:permits
           rdf:resource="http://web.resource.org/cc/DerivativeWorks" />
      </ns:License>
      <cc:Work
         rdf:about="">
        <dc:format>image/svg+xml</dc:format>
        <dc:type
           rdf:resource="http://purl.org/dc/dcmitype/StillImage" />
      </cc:Work>
    </rdf:RDF>
  </metadata>
  <defs
     id="defs550" />
  <sodipodi:namedview
     id="base"
     inkscape:zoom="0.9388804"
     inkscape:cx="398.08881"
     inkscape:cy="317.38191"
     inkscape:window-width="1024"
     inkscape:window-height="753"
     inkscape:window-x="0"
     inkscape:window-y="0"
     inkscape:current-layer="g1882"
     showgrid="false"
     inkscape:showpageshadow="false" />
  <g
     id="g1882">
    <path
       style="font-size:12px;opacity:1;fill:#ffffff;fill-opacity:1;fill-rule:evenodd;stroke-width:1"
       d="M 0,0 L 0,600 L 900,600 L 900,0 L 0,0 z"
       id="path3152" />
    <path
       style="font-size:12px;fill:#0c3c7c;fill-opacity:1;fill-rule:evenodd;stroke:none;stroke-width:1"
       d="M 0 0 L 0 255.0625 L 396.25 255.0625 L 396.25 0 L 0 0 z M 496.21875 0 L 496.21875 255.0625 L 900 255.0625 L 900 0 L 496.21875 0 z M 0 347.9375 L 0 600 L 396.25 600 L 396.25 347.9375 L 0 347.9375 z M 496.21875 347.9375 L 496.21875 600 L 900 600 L 900 347.9375 L 496.21875 347.9375 z "
       id="path3262" />
    <g
       id="g3332">
      <path
         id="path3130"
         style="fill:#ffffff;fill-opacity:1;fill-rule:nonzero;stroke:#000000;stroke-width:1;stroke-linecap:round;stroke-linejoin:round;stroke-miterlimit:4;stroke-dasharray:none;stroke-dashoffset:0;stroke-opacity:1"
         d="M 113.3609,62.28352 C 113.3609,55.86251 85.3836,57.77527 71.3561,71.847 C 57.3286,85.91873 55.4158,113.896 61.8368,113.896 C 61.8368,113.896 49.0556,110.16816 49.0556,110.16816 C 42.6346,110.16816 42.1509,81.39206 60.7051,62.79365 C 79.2594,44.19525 109.6331,43.08132 109.6331,49.50232 C 109.6331,49.50232 113.3609,62.28352 113.3609,62.28352 z"
         sodipodi:nodetypes="csccscc" />
      <path
         id="path3128"
         style="fill:#ffffff;fill-opacity:1;fill-rule:nonzero;stroke:#000000;stroke-width:1;stroke-linecap:round;stroke-linejoin:round;stroke-miterlimit:4;stroke-dasharray:none;stroke-dashoffset:0;stroke-opacity:1"
         d="M 100.3135,72.13572 C 98.4059,64.49381 113.3609,66.55071 113.3609,62.28352 C 113.3876,58.2693 110.4104,54.60752 109.6331,49.50232 C 109.6331,53.76952 94.678,51.71261 96.5856,59.35452 C 96.5856,59.35452 100.3135,72.13572 100.3135,72.13572 z"
         sodipodi:nodetypes="ccccc" />
      <path
         sodipodi:nodetypes="ccccc"
         d="M 61.8368,113.896 C 66.104,113.896 64.0471,98.94094 71.689,100.84854 C 71.689,100.84854 58.9078,97.1207 58.9078,97.1207 C 51.2659,95.2131 53.3228,110.16816 49.0556,110.16816 C 49.0556,110.16816 61.8368,113.896 61.8368,113.896 z"
         style="fill:#ffffff;fill-opacity:1;fill-rule:nonzero;stroke:#000000;stroke-width:1;stroke-linecap:round;stroke-linejoin:round;stroke-miterlimit:4;stroke-dasharray:none;stroke-dashoffset:0;stroke-opacity:1"
         id="path3132" />
      <path
         id="path3126"
         style="fill:#ffffff;fill-opacity:1;fill-rule:nonzero;stroke:#000000;stroke-width:1;stroke-linecap:round;stroke-linejoin:round;stroke-miterlimit:4;stroke-dasharray:none;stroke-dashoffset:0;stroke-opacity:1"
         d="M 194.1087,83.2968 C 167.2149,65.2789 103.6803,85.62311 100.3135,72.13572 C 100.3135,72.13572 96.5856,59.35452 96.5856,59.35452 C 99.9524,72.84191 164.7519,44.53182 199.9002,70.80421 C 194.1514,70.58792 189.2747,71.24369 185.6545,73.15599 C 189.7834,76.20855 192.8167,79.53503 194.1087,83.2968 z"
         sodipodi:nodetypes="cccccc" />
      <path
         id="path3134"
         style="fill:#ffffff;fill-opacity:1;fill-rule:nonzero;stroke:#000000;stroke-width:1;stroke-linecap:round;stroke-linejoin:round;stroke-miterlimit:4;stroke-dasharray:none;stroke-dashoffset:0;stroke-opacity:1"
         d="M 71.689,100.84854 C 85.1764,104.21533 64.5883,167.41719 82.6062,194.31093 C 76.6293,193.45915 74.5159,190.28925 71.9552,187.38779 C 69.7889,191.8257 69.9811,196.26361 70.6238,200.70152 C 44.0851,165.287 72.3952,100.48749 58.9078,97.1207 C 58.9078,97.1207 71.689,100.84854 71.689,100.84854 z"
         sodipodi:nodetypes="cccccc" />
      <path
         id="text3310"
         d="M 111.15653,74.723913 C 110.4549,74.688458 109.90725,74.650793 109.51359,74.610917 C 109.11993,74.57104 108.57127,74.553308 107.86762,74.557719 L 107.87669,74.378324 L 108.13503,74.367398 C 108.39935,74.356774 108.60042,74.273011 108.73825,74.116109 C 108.87607,73.959208 108.95533,73.715416 108.97604,73.384733 C 109.03924,72.608565 109.10609,71.522834 109.1766,70.127537 C 109.24711,68.732248 109.29004,67.645309 109.30541,66.866715 C 109.31814,66.535638 109.26385,66.285097 109.14255,66.115093 C 109.02125,65.945106 108.82974,65.839507 108.56804,65.798297 L 108.40151,65.771897 L 108.41058,65.592502 C 109.0504,65.664809 109.56815,65.700964 109.96383,65.700966 C 110.3595,65.700985 110.87825,65.717207 111.52009,65.749631 C 113.27417,65.838277 114.55547,66.325678 115.364,67.211835 C 116.17252,68.098007 116.54394,69.190897 116.47828,70.490509 C 116.4122,71.798102 115.93329,72.85202 115.04155,73.652266 C 114.14981,74.452514 112.8548,74.809729 111.15653,74.723913 L 111.15653,74.723913 z M 111.61603,74.291504 C 112.76415,74.349521 113.66526,74.016366 114.31936,73.292037 C 114.97345,72.56771 115.29444,71.613724 115.28231,70.430075 C 115.26977,69.254407 114.94673,68.271873 114.31318,67.48247 C 113.67961,66.693082 112.88444,66.274211 111.92768,66.225855 C 111.48118,66.203301 111.02959,66.202463 110.57291,66.223342 C 110.54592,66.361873 110.52208,66.596475 110.50137,66.927149 C 110.43817,67.703326 110.37132,68.789057 110.30081,70.184345 C 110.2303,71.579643 110.1916,72.582865 110.1847,73.194014 C 110.17196,73.525101 110.25689,73.782186 110.43949,73.965269 C 110.62207,74.148355 110.88469,74.250552 111.22734,74.271863 L 111.61603,74.291504 z M 120.85228,70.236269 C 120.982,71.412851 121.4026,72.368325 122.11407,73.102694 C 122.82554,73.837067 123.6597,74.180753 124.61654,74.133755 C 125.57736,74.086562 126.32897,73.664987 126.87136,72.869028 C 127.41374,72.073072 127.62008,71.086805 127.49036,69.910223 C 127.36101,68.741624 126.94061,67.790137 126.22915,67.055758 C 125.51767,66.321395 124.68351,65.977708 123.72668,66.024697 C 122.76984,66.071703 122.01922,66.49323 121.47485,67.289278 C 120.93046,68.08534 120.72294,69.06767 120.85228,70.236269 L 120.85228,70.236269 z M 119.65622,70.295016 C 119.59219,68.991327 119.96686,67.892883 120.78022,66.999683 C 121.59359,66.106498 122.65013,65.627983 123.94984,65.564135 C 125.25353,65.50011 126.35292,65.873731 127.24802,66.684998 C 128.1431,67.496282 128.62256,68.551774 128.68641,69.851476 C 128.75063,71.159161 128.3781,72.260497 127.56883,73.155485 C 126.75954,74.050477 125.70106,74.530087 124.39338,74.594317 C 123.09367,74.658156 121.99527,74.284486 121.09819,73.473307 C 120.20111,72.66213 119.72045,71.602701 119.65622,70.295016 L 119.65622,70.295016 z M 142.46533,72.273796 C 142.53206,72.601828 142.63486,72.843835 142.77373,72.999816 C 142.91258,73.1558 143.1142,73.238225 143.3786,73.247091 L 143.63701,73.256301 L 143.64727,73.435631 C 142.94359,73.435896 142.3945,73.447311 141.99998,73.469875 C 141.60544,73.492441 141.05863,73.543706 140.35953,73.623673 L 140.34928,73.444342 L 140.60495,73.40573 C 140.86659,73.366776 141.0575,73.2619 141.17768,73.091101 C 141.29785,72.920305 141.32257,72.671005 141.25185,72.343201 L 140.18569,67.438459 L 137.68103,74.082729 L 134.46316,67.837724 L 133.97102,72.759626 C 133.93415,73.093584 133.98514,73.338553 134.12401,73.494535 C 134.26287,73.650518 134.46449,73.732943 134.72888,73.74181 L 134.98729,73.75102 L 134.99754,73.93035 C 134.29388,73.930615 133.84641,73.936217 133.65512,73.947158 C 133.46383,73.958098 133.01864,74.003552 132.31954,74.083519 L 132.30928,73.904188 L 132.56495,73.865576 C 132.8266,73.826622 133.01751,73.721746 133.13769,73.550947 C 133.25786,73.38015 133.33439,73.127887 133.36728,72.794157 L 134.17436,64.675701 L 137.88296,71.8462 L 140.7266,64.312942 L 142.46533,72.273796 z M 148.89908,73.184144 C 148.5041,73.196663 147.95616,73.233999 147.25525,73.296152 L 147.24956,73.116619 L 147.50613,73.084524 C 147.76869,73.052241 147.96221,72.952256 148.08669,72.784571 C 148.21116,72.616886 148.27015,72.367411 148.26365,72.036143 C 148.26292,71.257407 148.24043,70.169853 148.19617,68.773476 C 148.15191,67.377109 148.10548,66.290313 148.05689,65.513085 C 148.0424,65.18208 147.96773,64.936841 147.83289,64.777367 C 147.69804,64.61791 147.49851,64.528387 147.23431,64.508797 L 147.06618,64.496155 L 147.06049,64.316621 C 147.70408,64.336167 148.22337,64.339676 148.61834,64.327147 C 149.01331,64.314637 149.53134,64.278249 150.1724,64.217984 L 150.1781,64.397518 L 150.0111,64.420782 C 149.74867,64.457065 149.55521,64.559044 149.43074,64.72672 C 149.30625,64.894414 149.24727,65.143889 149.25378,65.475148 C 149.2545,66.253893 149.27699,67.341448 149.32125,68.737815 C 149.36551,70.134191 149.41194,71.220987 149.46054,71.998206 C 149.47502,72.32922 149.54969,72.57446 149.68454,72.733924 C 149.81938,72.89339 150.01884,72.980918 150.28292,72.996509 L 150.54101,73.012291 L 150.5467,73.191824 C 149.84326,73.174185 149.29405,73.171625 148.89908,73.184144 L 148.89908,73.184144 z M 156.01058,66.280682 C 155.97396,67.058565 155.94683,67.989296 155.92919,69.072878 C 155.91155,70.156468 155.90837,71.087589 155.91964,71.866244 C 155.91824,72.197572 155.98106,72.446109 156.10811,72.611856 C 156.23516,72.777604 156.43019,72.874595 156.69322,72.90283 L 156.95026,72.930968 L 156.94733,73.110568 C 156.24554,73.059221 155.79687,73.031955 155.60131,73.028771 C 155.40574,73.025587 154.95641,73.038233 154.25333,73.066708 L 154.25625,72.887108 L 154.51407,72.867352 C 154.77787,72.847694 154.97596,72.757103 155.10834,72.595579 C 155.24071,72.434056 155.31159,72.187696 155.32098,71.856497 C 155.35759,71.078622 155.38727,69.99124 155.41002,68.594347 C 155.43276,67.197464 155.44645,65.620781 155.4511,63.864294 L 161.92132,71.041765 C 161.95793,70.26389 161.98511,69.330166 162.00286,68.240588 C 162.02059,67.15102 162.02382,66.216906 162.01255,65.438242 C 162.01395,65.106923 161.95113,64.858386 161.82409,64.69263 C 161.69703,64.526891 161.50203,64.427904 161.23908,64.395669 L 161.07174,64.37498 L 161.07467,64.19538 C 161.71658,64.245762 162.13532,64.27254 162.33089,64.275715 C 162.52645,64.278908 162.94584,64.265775 163.58907,64.236317 L 163.58614,64.415917 L 163.41823,64.431148 C 163.15435,64.454805 162.95623,64.547392 162.82386,64.708907 C 162.69148,64.870439 162.6206,65.116799 162.61122,65.447989 C 162.57459,66.225873 162.54491,67.313255 162.52218,68.710139 C 162.49943,70.107031 162.48574,71.683714 162.4811,73.440192 L 156.01058,66.280682 z M 168.67453,69.055971 C 168.60505,70.237641 168.8594,71.250132 169.4376,72.093447 C 170.01579,72.936765 170.78047,73.415514 171.73164,73.529696 C 172.68676,73.644354 173.49843,73.354838 174.16667,72.661148 C 174.83489,71.967459 175.20375,71.029781 175.27324,69.848111 C 175.34177,68.674375 175.08694,67.665847 174.50875,66.822524 C 173.93055,65.979215 173.16587,65.500465 172.21471,65.386275 C 171.26354,65.272101 170.45286,65.561736 169.78265,66.25518 C 169.11244,66.948639 168.74307,67.882235 168.67453,69.055971 L 168.67453,69.055971 z M 167.48558,68.913243 C 167.64115,67.617286 168.19478,66.597261 169.14646,65.853164 C 170.09813,65.109082 171.21997,64.814586 172.51197,64.969676 C 173.80793,65.125257 174.82906,65.678011 175.57538,66.627938 C 176.32168,67.577879 176.61729,68.698845 176.4622,69.990839 C 176.30614,71.290767 175.75414,72.314002 174.80619,73.060548 C 173.85823,73.807095 172.7343,74.102344 171.43438,73.946296 C 170.14237,73.791197 169.12223,73.238563 168.37394,72.28839 C 167.62565,71.338219 167.32953,70.213171 167.48558,68.913243 L 167.48558,68.913243 z"
         style="font-size:12.26232338px;font-style:normal;font-variant:normal;font-weight:normal;font-stretch:normal;text-align:center;line-height:125%;writing-mode:lr-tb;text-anchor:middle;fill:#000000;fill-opacity:1;fill-rule:nonzero;stroke:none;stroke-width:1;stroke-linecap:round;stroke-linejoin:round;stroke-miterlimit:4;stroke-dashoffset:0;stroke-opacity:1;font-family:Flanker" />
      <path
         id="text3289"
         d="M 73.178583,177.0892 C 73.272203,177.49364 73.419923,178.0433 73.621741,178.73816 L 73.446744,178.77867 L 73.36535,178.53324 C 73.282607,178.28199 73.146887,178.11162 72.958188,178.02213 C 72.769493,177.93266 72.529511,177.99333 72.238244,178.20415 L 71.211487,178.94578 L 72.028397,182.47488 L 73.267145,182.64907 C 73.618724,182.6988 73.859605,182.64201 73.98979,182.47872 C 74.119976,182.31543 74.16703,182.10275 74.13095,181.84068 L 74.096222,181.58445 L 74.271219,181.54394 C 74.390762,182.23738 74.473713,182.68423 74.520072,182.88451 C 74.566431,183.08478 74.68827,183.52263 74.885589,184.19806 L 74.710592,184.23857 L 74.629198,183.99314 C 74.546454,183.74188 74.410733,183.57151 74.222035,183.48203 C 74.033339,183.39255 73.763202,183.32295 73.411624,183.27322 L 64.862018,182.0749 L 71.945236,176.93834 C 72.236504,176.72753 72.44723,176.54047 72.577413,176.37717 C 72.707601,176.21388 72.754654,176.0012 72.718573,175.73913 L 72.683845,175.4829 L 72.858842,175.44239 C 72.978386,176.13583 73.084967,176.68477 73.178583,177.0892 L 73.178583,177.0892 z M 67.264603,181.80761 L 71.551748,182.40698 L 70.817204,179.23371 L 67.264603,181.80761 z M 72.697313,170.65866 L 65.05069,174.92095 C 64.736688,175.0993 64.505271,175.26173 64.35644,175.40824 C 64.207627,175.55475 64.135417,175.76026 64.139811,176.02475 L 64.143572,176.2833 L 63.964981,176.30254 C 63.929438,175.59977 63.888898,175.03706 63.84336,174.61439 C 63.797841,174.19173 63.717614,173.63329 63.602679,172.93908 L 63.78127,172.91984 L 63.832655,173.17326 C 63.884691,173.43263 63.999009,173.61804 64.17561,173.72949 C 64.352228,173.84095 64.597538,173.8075 64.911541,173.62914 L 70.370771,170.58407 L 64.387645,168.76552 C 64.043291,168.6621 63.796698,168.68365 63.647867,168.83015 C 63.499054,168.97667 63.42486,169.18238 63.425284,169.4473 L 63.42538,169.61591 L 63.246789,169.63515 C 63.217659,168.99192 63.191974,168.56712 63.169734,168.36074 C 63.147514,168.15438 63.082143,167.73385 62.973619,167.09916 L 63.15221,167.07992 L 63.188024,167.24468 C 63.244029,167.50363 63.360332,167.68883 63.536932,167.80028 C 63.713551,167.91174 63.974037,168.01918 64.318391,168.12259 L 72.697313,170.65866 z M 66.672706,158.29872 L 70.1782,156.22094 C 70.602788,155.97309 70.922599,155.72631 71.137634,155.4806 C 71.352671,155.23489 71.478366,154.93821 71.514719,154.59054 L 71.530961,154.42271 L 71.710575,154.42087 C 71.677251,155.06391 71.663515,155.67081 71.669368,156.24158 C 71.67518,156.80837 71.701338,157.41286 71.747842,158.05507 L 71.568228,158.05691 L 71.548547,157.88946 C 71.517906,157.62631 71.420096,157.43072 71.255117,157.30267 C 71.090139,157.17463 70.842987,157.2081 70.513662,157.40308 L 67.86516,158.9691 L 70.54522,160.48048 C 70.878474,160.66867 71.12626,160.69707 71.288577,160.56566 C 71.450896,160.43427 71.544675,160.23671 71.569913,159.97298 L 71.586155,159.80516 L 71.76577,159.80332 C 71.732445,160.44635 71.717543,160.9395 71.721063,161.28276 C 71.724583,161.62602 71.749595,162.11876 71.796099,162.76097 L 71.616485,162.76281 L 71.596804,162.59535 C 71.553329,162.24851 71.421577,161.95446 71.201547,161.71322 C 70.981518,161.47197 70.656713,161.2318 70.227132,160.9927 L 67.264019,159.32256 L 64.347692,161.047 C 63.923113,161.29486 63.603302,161.54164 63.388257,161.78735 C 63.17323,162.03306 63.047535,162.32974 63.011173,162.67741 L 62.994931,162.84523 L 62.815316,162.84707 C 62.84865,162.20404 62.862406,161.59914 62.856585,161.03235 C 62.850741,160.46158 62.824562,159.85509 62.778049,159.21288 L 62.957664,159.21103 L 62.977344,159.37849 C 63.007994,159.64164 63.105804,159.83724 63.270775,159.96528 C 63.435762,160.09332 63.682913,160.05985 64.012229,159.86486 L 66.071565,158.65218 L 63.987733,157.47599 C 63.654487,157.2878 63.406701,157.25941 63.244375,157.3908 C 63.082065,157.52221 62.988286,157.71977 62.963039,157.98348 L 62.946797,158.15131 L 62.767182,158.15315 C 62.800516,157.51013 62.815418,157.01698 62.811889,156.67371 C 62.808378,156.33045 62.783366,155.83772 62.736853,155.1955 L 62.916467,155.19366 L 62.936148,155.36111 C 62.979632,155.70797 63.111384,156.00201 63.331405,156.24325 C 63.551443,156.4845 63.876248,156.72468 64.30582,156.96377 L 66.672706,158.29872 z M 71.837038,149.01302 C 71.823022,149.40794 71.8235,149.95716 71.838474,150.66066 L 71.658963,150.65429 L 71.64416,150.39614 C 71.629569,150.13201 71.542798,149.93222 71.383844,149.79676 C 71.224892,149.66131 70.979938,149.58572 70.648981,149.56998 C 69.871952,149.51844 68.785339,149.46789 67.389141,149.41833 C 65.992951,149.36878 64.90549,149.34217 64.126753,149.3385 C 63.795521,149.33074 63.545824,149.38878 63.37766,149.51262 C 63.209513,149.63646 63.106801,149.82953 63.069525,150.09182 L 63.045627,150.25872 L 62.866116,150.25235 C 62.928811,149.61152 62.967162,149.09364 62.981169,148.69871 C 62.995194,148.30379 62.993654,147.7845 62.976548,147.14083 L 63.156059,147.1472 L 63.168064,147.31538 C 63.186652,147.57966 63.275418,147.77952 63.434363,147.91497 C 63.593324,148.05042 63.838278,148.12602 64.169226,148.14176 C 64.946264,148.1933 66.032876,148.24385 67.429066,148.2934 C 68.825265,148.34295 69.912726,148.36957 70.691454,148.37324 C 71.022694,148.381 71.272392,148.32296 71.440547,148.19912 C 71.608703,148.07528 71.70942,147.88214 71.742699,147.6197 L 71.775765,147.36326 L 71.955276,147.36963 C 71.890467,148.0703 71.851054,148.6181 71.837038,149.01302 L 71.837038,149.01302 z M 72.16925,141.86976 C 72.146422,142.26428 72.134642,142.81336 72.133909,143.51702 L 71.954586,143.50665 L 71.945548,143.24823 C 71.936857,142.98384 71.854566,142.78216 71.698676,142.6432 C 71.542786,142.50423 71.29958,142.42319 70.969057,142.40006 C 70.193372,142.33119 69.108159,142.2564 67.713414,142.1757 C 66.318678,142.095 65.232081,142.04412 64.453621,142.02306 C 64.122645,142.00791 63.871715,142.06037 63.700828,142.18042 C 63.529959,142.30048 63.422964,142.49121 63.379842,142.7526 L 63.352225,142.91893 L 63.172901,142.90855 C 63.249883,142.26928 63.299784,141.75239 63.322602,141.35787 C 63.345439,140.96336 63.355489,140.44416 63.352754,139.80027 L 63.532078,139.81065 L 63.540326,139.97906 C 63.553011,140.24368 63.637295,140.44548 63.793176,140.58444 C 63.949074,140.72341 64.192281,140.80445 64.522795,140.82757 C 65.298489,140.89645 66.383702,140.97124 67.778438,141.05194 C 69.173183,141.13264 70.211844,141.18275 70.894426,141.20225 C 71.222118,141.20522 71.462707,141.12418 71.616196,140.95913 C 71.769686,140.79409 71.853924,140.58205 71.868912,140.32303 L 71.90592,139.68344 C 71.933129,139.21322 71.806635,138.80807 71.526439,138.46798 C 71.246244,138.12791 70.843386,137.83472 70.317864,137.58839 L 70.388361,137.40655 C 71.287843,137.75448 71.984338,137.9827 72.477849,138.09122 C 72.294943,140.21574 72.192077,141.47525 72.16925,141.86976 L 72.16925,141.86976 z M 72.769017,132.26318 C 72.743398,132.65752 72.727732,133.20651 72.72202,133.91015 L 72.542774,133.8985 L 72.535565,133.64003 C 72.528745,133.37558 72.447884,133.17333 72.292981,133.03326 C 72.138079,132.8932 71.895452,132.81043 71.565101,132.78497 C 70.789923,132.71061 69.705266,132.62814 68.311127,132.53757 C 66.916998,132.447 65.830788,132.38843 65.052496,132.36187 C 64.721636,132.34438 64.47034,132.39505 64.298609,132.5139 C 64.126894,132.63274 64.018552,132.82271 63.973581,133.08379 L 63.944788,133.24992 L 63.765542,133.23827 C 63.847046,132.59956 63.900603,132.08303 63.926213,131.68869 C 63.951841,131.29435 63.965566,130.77524 63.967388,130.13134 L 64.146634,130.14299 L 64.15369,130.31145 C 64.164502,130.57616 64.247355,130.77854 64.402249,130.91861 C 64.55716,131.05867 64.799786,131.14144 65.130129,131.1669 C 65.905316,131.24126 66.989973,131.32373 68.384102,131.4143 C 69.778241,131.50487 70.86445,131.56344 71.642734,131.59 C 71.973603,131.6075 72.224898,131.55682 72.396621,131.43797 C 72.568344,131.31913 72.674695,131.12904 72.715674,130.86769 L 72.756265,130.61232 L 72.935511,130.62397 C 72.850133,131.32244 72.794635,131.86884 72.769017,132.26318 L 72.769017,132.26318 z M 73.715348,122.3648 L 65.514592,125.42839 C 65.177334,125.55748 64.924117,125.68325 64.754942,125.80571 C 64.585783,125.92817 64.483483,126.12047 64.448041,126.38262 L 64.412869,126.63879 L 64.233417,126.63094 C 64.303988,125.93083 64.348552,125.36842 64.36711,124.94372 C 64.385686,124.51901 64.390373,123.95486 64.381169,123.25126 L 64.560622,123.2591 L 64.573304,123.51736 C 64.585733,123.78161 64.670861,123.98211 64.828687,124.11886 C 64.986531,124.25561 65.234081,124.25944 65.57134,124.13035 L 71.426496,121.9411 L 65.784992,119.24326 C 65.460112,119.08922 65.213084,119.07343 65.043909,119.19588 C 64.87475,119.31834 64.770456,119.51056 64.731026,119.77253 L 64.705759,119.93923 L 64.526306,119.93139 C 64.594262,119.2911 64.632768,118.86726 64.641825,118.65989 C 64.650899,118.45253 64.649527,118.02695 64.637709,117.38316 L 64.817162,117.39101 L 64.827785,117.55928 C 64.844201,117.82371 64.931323,118.02429 65.08915,118.16103 C 65.246993,118.29779 65.488354,118.44319 65.813235,118.59723 L 73.715348,122.3648 z M 71.360477,104.57058 C 71.680805,104.47338 71.912104,104.34834 72.054374,104.19545 C 72.196648,104.04258 72.259801,103.83412 72.243833,103.57006 L 72.228767,103.31192 L 72.406346,103.28489 C 72.472602,103.98544 72.535462,104.53104 72.594926,104.92171 C 72.654393,105.31239 72.756714,105.85199 72.901891,106.5405 L 72.724313,106.56753 L 72.661893,106.3166 C 72.598574,106.05977 72.476256,105.87953 72.294939,105.7759 C 72.113626,105.67229 71.863106,105.67105 71.543378,105.7722 L 66.760241,107.29365 L 73.610122,109.16415 L 67.694423,112.95351 L 72.640787,112.98189 C 72.976731,112.98728 73.215838,112.91354 73.35811,112.76066 C 73.500383,112.60778 73.563535,112.39931 73.547568,112.13526 L 73.532503,111.87713 L 73.710081,111.8501 C 73.776336,112.55063 73.823879,112.99561 73.852711,113.18503 C 73.881543,113.37444 73.968548,113.81341 74.113726,114.50194 L 73.936147,114.52897 L 73.873727,114.27804 C 73.810407,114.0212 73.688089,113.84096 73.506773,113.73734 C 73.325459,113.63371 73.06713,113.58118 72.731787,113.57973 L 64.573421,113.53758 L 71.364513,109.17285 L 63.597772,107.04824 L 71.360477,104.57058 z"
         style="font-size:12.26232338px;font-style:normal;font-variant:normal;font-weight:normal;font-stretch:normal;text-align:center;line-height:125%;writing-mode:lr-tb;text-anchor:middle;fill:#000000;fill-opacity:1;fill-rule:nonzero;stroke:none;stroke-width:1;stroke-linecap:round;stroke-linejoin:round;stroke-miterlimit:4;stroke-dashoffset:0;stroke-opacity:1;font-family:Flanker" />
      <path
         id="text3302"
         d="M 59.587857,83.846972 C 59.918011,83.90226 60.180784,83.893038 60.376179,83.819306 C 60.571569,83.745594 60.720788,83.586914 60.823839,83.343264 L 60.925063,83.105329 L 61.096153,83.160035 C 60.844169,83.817042 60.658002,84.33374 60.537652,84.71013 C 60.417296,85.086538 60.269149,85.615393 60.093211,86.296696 L 59.922121,86.24199 L 59.97772,85.989466 C 60.035141,85.731247 60.005667,85.515429 59.889296,85.342012 C 59.772921,85.168613 59.54905,85.05617 59.217681,85.004686 L 54.256697,84.241897 L 59.561653,88.961758 L 52.57819,89.727273 L 56.996619,91.950964 C 57.295167,92.105097 57.542137,92.145301 57.737529,92.071576 C 57.932921,91.997856 58.082141,91.839176 58.185189,91.595535 L 58.286413,91.357599 L 58.457504,91.412305 C 58.205522,92.069305 58.050355,92.489051 57.992002,92.671546 C 57.933649,92.854044 57.816502,93.285948 57.640561,93.967258 L 57.469471,93.912552 L 57.525071,93.660028 C 57.582494,93.401802 57.553019,93.185984 57.436646,93.012575 C 57.320274,92.839167 57.112206,92.677299 56.812443,92.526969 L 49.522766,88.863456 L 57.546126,87.971562 L 51.532762,82.616593 L 59.587857,83.846972 z M 58.416811,78.932672 C 59.659851,79.570385 60.571823,80.027034 61.15273,80.30262 C 61.486759,80.456043 61.757331,80.488303 61.964445,80.399402 C 62.171557,80.310506 62.33433,80.150631 62.452763,79.919778 L 62.745198,79.349757 C 62.960196,78.930679 63.012397,78.544722 62.901803,78.191885 C 62.791205,77.839057 62.509858,77.425542 62.05776,76.951339 L 62.195757,76.813523 C 62.811226,77.371539 63.380585,77.813925 63.903838,78.140682 C 62.883066,79.999221 62.282492,81.104289 62.102112,81.455889 C 61.921731,81.807493 61.68896,82.304939 61.403799,82.948229 L 61.24398,82.866238 L 61.340191,82.626231 C 61.439136,82.380899 61.445409,82.163168 61.359012,81.973039 C 61.272615,81.782912 61.082939,81.610458 60.789983,81.455677 C 60.108367,81.079074 59.14604,80.571918 57.902999,79.934206 C 56.659966,79.2965 55.686707,78.810653 54.983219,78.476662 C 54.686626,78.32899 54.435912,78.275513 54.231076,78.31623 C 54.026255,78.356957 53.851283,78.488141 53.706161,78.709784 L 53.613654,78.850749 L 53.453835,78.768758 C 53.782704,78.215186 54.037325,77.762596 54.217698,77.410989 C 54.398086,77.059392 54.935135,75.96884 55.828847,74.139328 C 56.089937,74.268794 56.515487,74.462437 57.105501,74.72026 L 57.023509,74.880079 L 56.866146,74.819536 C 56.618995,74.724151 56.400353,74.719653 56.21022,74.806042 C 56.020097,74.892447 55.849419,75.083034 55.698185,75.377804 L 54.84821,77.034596 C 55.009672,77.130892 55.236878,77.256427 55.529827,77.411201 C 56.21145,77.787811 57.041506,78.224866 58.019996,78.722367 L 58.566604,77.656905 C 58.717835,77.362134 58.773088,77.112331 58.732364,76.907496 C 58.691645,76.702673 58.56046,76.527702 58.33881,76.38258 L 58.197845,76.290073 L 58.279836,76.130254 C 58.833416,76.459123 59.173244,76.655894 59.299321,76.72057 C 59.425403,76.785258 59.783451,76.946514 60.373468,77.204339 L 60.291476,77.364158 L 60.134113,77.303615 C 59.886958,77.208228 59.668317,77.20373 59.478187,77.290121 C 59.288061,77.376524 59.117383,77.567111 58.966152,77.861883 L 58.416811,78.932672 z M 67.126881,73.925349 L 58.65755,71.709858 C 58.307461,71.621282 58.028004,71.578369 57.819178,71.58112 C 57.610365,71.583881 57.416017,71.682242 57.236134,71.876203 L 57.059915,72.065429 L 56.917691,71.955715 C 57.378405,71.423849 57.738586,70.989614 57.998236,70.653011 C 58.257897,70.316422 58.586473,69.857807 58.983965,69.277165 L 59.126189,69.386878 L 58.987896,69.605361 C 58.845951,69.828592 58.800148,70.041543 58.850487,70.244215 C 58.900836,70.4469 59.101055,70.59253 59.451146,70.681105 L 65.499158,72.261354 L 62.439015,66.807873 C 62.262025,66.494905 62.06912,66.339793 61.860299,66.342538 C 61.651481,66.345305 61.455553,66.442447 61.272514,66.633965 L 61.155892,66.755736 L 61.013668,66.646022 C 61.437807,66.161568 61.713265,65.837163 61.840043,65.672803 C 61.966825,65.508468 62.210678,65.159681 62.571602,64.626442 L 62.713826,64.736156 L 62.625649,64.879869 C 62.486861,65.105544 62.442638,65.319713 62.492981,65.52238 C 62.543326,65.72507 62.656994,65.982899 62.833984,66.295867 L 67.126881,73.925349 z M 77.259097,62.910135 C 77.492541,63.150056 77.709836,63.298102 77.910983,63.354276 C 78.112114,63.410462 78.3263,63.370832 78.553541,63.235385 L 78.775928,63.103463 L 78.881486,63.248798 C 78.289599,63.629357 77.833792,63.935746 77.514063,64.167968 C 77.194319,64.400201 76.761969,64.738887 76.217012,65.184027 L 76.111454,65.038692 L 76.305693,64.868015 C 76.50477,64.693824 76.608706,64.502399 76.617502,64.293741 C 76.626284,64.085095 76.512338,63.861985 76.275664,63.624411 L 72.727635,60.074102 L 74.211591,67.017985 L 68.128827,63.503053 L 70.375063,67.910064 C 70.524543,68.210968 70.699853,68.389509 70.900993,68.445688 C 71.102131,68.501869 71.316316,68.462239 71.54355,68.326797 L 71.765938,68.194875 L 71.871496,68.34021 C 71.279616,68.720764 70.906165,68.967337 70.751142,69.079931 C 70.596117,69.192527 70.246124,69.471397 69.70116,69.916542 L 69.595602,69.771207 L 69.789841,69.60053 C 69.988925,69.426334 70.092861,69.23491 70.101651,69.026256 C 70.110439,68.817605 70.038479,68.564 69.885769,68.265442 L 66.176769,60.998803 L 73.172639,65.027153 L 71.493378,57.152108 L 77.259097,62.910135 z M 91.816524,58.624416 C 91.418769,58.743289 90.879494,58.925287 90.198696,59.17041 L 90.147261,58.998308 L 90.387083,58.901638 C 90.632637,58.803256 90.794133,58.657089 90.871572,58.463135 C 90.949,58.269186 90.873354,58.033496 90.644635,57.756064 L 89.839898,56.777986 L 86.369166,57.815247 L 86.273234,59.062499 C 86.245716,59.416509 86.317538,59.653342 86.488698,59.772998 C 86.659855,59.892656 86.875071,59.92624 87.134348,59.873749 L 87.387886,59.822973 L 87.43932,59.995075 C 86.754777,60.157997 86.314026,60.268889 86.117066,60.327752 C 85.920103,60.386616 85.490782,60.535754 84.829101,60.775164 L 84.777666,60.603062 L 85.017488,60.506392 C 85.263047,60.408008 85.424543,60.261841 85.501977,60.067889 C 85.57941,59.873938 85.631885,59.599958 85.659402,59.245948 L 86.31761,50.6379 L 91.889509,57.384022 C 92.118227,57.661454 92.318169,57.859997 92.489335,57.979651 C 92.660486,58.099311 92.875702,58.132895 93.134985,58.080402 L 93.388523,58.029627 L 93.439958,58.201729 C 92.755408,58.364652 92.214264,58.505548 91.816524,58.624416 L 91.816524,58.624416 z M 86.735489,53.018916 L 86.406946,57.335271 L 89.527736,56.402594 L 86.735489,53.018916 z"
         style="font-size:12.26232338px;font-style:normal;font-variant:normal;font-weight:normal;font-stretch:normal;text-align:center;line-height:125%;writing-mode:lr-tb;text-anchor:middle;fill:#000000;fill-opacity:1;fill-rule:nonzero;stroke:none;stroke-width:1;stroke-linecap:round;stroke-linejoin:round;stroke-miterlimit:4;stroke-dashoffset:0;stroke-opacity:1;font-family:Flanker" />
    </g>
    <g
       transform="matrix(0.4225274,0,0,0.3830498,91.366803,6.2153283)"
       inkscape:label="Meubles"
       id="g3680"
       style="fill:#fcef3c;fill-opacity:1">
      <g
         transform="translate(26.204166,0)"
         style="fill:#fcef3c;fill-opacity:1;stroke:#000000;stroke-width:3.43127799;stroke-miterlimit:4;stroke-dasharray:none;stroke-opacity:1"
         id="g3682">
        <g
           style="fill:#fcef3c;fill-opacity:1;stroke:#000000;stroke-width:4.67728329;stroke-miterlimit:4;stroke-dasharray:none;stroke-opacity:1"
           id="g3684"
           transform="matrix(0.619559,-0.3928394,0.3928394,0.619559,764.83304,-297.49175)"
           inkscape:transform-center-y="-31.112698">
          <path
             sodipodi:nodetypes="csccscccccccsc"
             d="M -1038.5695,468.91682 C -1042.4808,461.02178 -1094.404,474.39274 -1098.2889,488.88626 C -1102.9015,506.09486 -1100.3001,528.87557 -1093.041,540.82401 C -1096.1063,548.90942 -1105.1273,546.19351 -1112.971,549.13099 C -1142.5227,553.63363 -1144.8196,556.26179 -1155.6267,561.30814 C -1159.9964,563.34855 -1166.1924,570.23998 -1170.9958,570.91697 C -1178.6971,573.45839 -1182.8882,579.73173 -1181.1751,585.34083 C -1172.7523,582.56622 -1163.9935,592.34974 -1162.9214,592.81849 C -1160.2865,586.37905 -1151.875,587.67655 -1147.0328,589.95122 C -1139.9344,586.64752 -1143.859,577.71742 -1137.7827,575.64075 C -1126.3387,571.61443 -1099.8528,576.79223 -1088.3248,573.04984 C -1073.2633,574.20653 -1070.8682,570.70091 -1063.8209,568.23066 C -1055.4081,565.61229 -1059.2198,547.49568 -1050.4141,546.3897 C -1039.4045,545.0068 -1021.3633,547.41741 -999.6481,539.57894"
             style="fill:#fcef3c;fill-opacity:1;fill-rule:evenodd;stroke:#000000;stroke-width:3.17698908;stroke-linecap:round;stroke-linejoin:round;stroke-miterlimit:4;stroke-dasharray:none;stroke-opacity:1"
             id="path3686" />
          <g
             style="fill:#fcef3c;fill-opacity:1;stroke:#000000;stroke-width:4.67728329;stroke-miterlimit:4;stroke-dasharray:none;stroke-opacity:1"
             transform="matrix(0.6723595,-0.7402247,0.7402247,0.6723595,-843.5084,-694.79951)"
             id="g3688">
            <g
               style="fill:#fcef3c;fill-opacity:1;stroke:#000000;stroke-width:4.67728329;stroke-miterlimit:4;stroke-dasharray:none;stroke-opacity:1"
               transform="matrix(0.6249696,0.7806492,-0.7806492,0.6249696,-1928.7877,-1049.2377)"
               id="g3690">
              <path
                 sodipodi:nodetypes="ccccc"
                 id="path3692"
                 d="M 1752.2191,462.65092 C 1760.2122,467.24264 1768.9823,467.13139 1776.8368,463.07115 C 1781.4253,460.10501 1785.2466,455.3412 1781.6639,450.88443 C 1776.289,448.79709 1771.2477,447.23935 1765.252,447.10235 C 1761.3307,452.33166 1755.494,457.08086 1752.2191,462.65092 z "
                 style="fill:#fcef3c;fill-opacity:1;fill-rule:evenodd;stroke:#000000;stroke-width:3.17698884;stroke-linecap:butt;stroke-linejoin:miter;stroke-miterlimit:4;stroke-dasharray:none;stroke-opacity:1" />
              <path
                 style="fill:#fcef3c;fill-opacity:1;fill-rule:evenodd;stroke:#000000;stroke-width:3.17698884;stroke-linecap:butt;stroke-linejoin:miter;stroke-miterlimit:4;stroke-dasharray:none;stroke-opacity:1"
                 d="M 1757.6568,467.36229 C 1766.2162,471.52809 1774.8435,470.26922 1781.9825,464.65786 C 1786.0648,460.70709 1789.1242,454.82023 1784.9318,450.23744 C 1779.3246,448.56866 1774.1246,447.45636 1768.1949,448.07579 C 1765.106,454.50256 1760.0581,460.63324 1757.6568,467.36229 z "
                 id="path3694"
                 sodipodi:nodetypes="ccccc" />
            </g>
          </g>
        </g>
        <g
           style="fill:#fcef3c;fill-opacity:1;stroke:#000000;stroke-width:3.99029779;stroke-miterlimit:4;stroke-dasharray:none;stroke-opacity:1"
           id="g3696"
           transform="matrix(0.8170385,-0.2694181,0.2697359,0.8160757,-54.43777,170.77249)">
          <path
             sodipodi:nodetypes="ccscc"
             id="path3698"
             d="M 324.48663,421.94549 C 319.427,434.91448 300.26261,439.78386 307.59416,454.14332 C 312.06574,460.34614 319.87005,462.51179 325.77546,450.38116 C 328.79612,444.17625 323.41905,430.42042 327.73134,423.73077 C 328.28343,414.08895 321.86021,423.96313 324.48663,421.94549 z "
             style="fill:#fcef3c;fill-opacity:1;fill-rule:evenodd;stroke:#000000;stroke-width:2.7103622;stroke-linecap:butt;stroke-linejoin:miter;stroke-miterlimit:4;stroke-dasharray:none;stroke-opacity:1" />
          <path
             style="fill:#fcef3c;fill-opacity:1;fill-rule:evenodd;stroke:#000000;stroke-width:2.7103622;stroke-linecap:round;stroke-linejoin:round;stroke-miterlimit:4;stroke-dasharray:none;stroke-opacity:1"
             d="M 328.09122,422.91921 C 323.03159,435.88822 306.99573,442.40312 314.32729,456.76259 C 318.79886,462.9654 325.67726,462.37462 331.58268,450.244 C 334.60333,444.03908 330.70399,433.22186 335.01628,426.53221 C 335.80458,419.81034 332.73566,422.7335 328.09122,422.91921 z "
             id="path3700"
             sodipodi:nodetypes="ccscc" />
        </g>
        <g
           style="fill:#fcef3c;fill-opacity:1;stroke:#000000;stroke-width:3.43127799;stroke-miterlimit:4;stroke-dasharray:none;stroke-opacity:1"
           id="g3702"
           transform="matrix(0.9513,0.3082666,-0.3082666,0.9513,131.56976,-33.268924)">
          <path
             sodipodi:nodetypes="ccsccccccccccc"
             id="path3704"
             d="M 271.3025,335.52492 C 262.84719,342.68278 253.79232,347.67414 243.24117,350.67534 C 234.04968,353.13088 220.96859,351.98161 210.59187,357.18413 C 199.57698,362.7066 197.84949,366.98672 203.11406,372.64858 C 201.6666,380.96138 202.43392,396.99929 209.32155,402.24954 C 220.36394,409.83579 207.18206,405.05064 207.48848,419.07649 C 207.04048,420.8109 207.69835,420.15142 211.38885,422.50612 C 212.24821,425.14869 211.53395,425.04341 209.38568,427.44645 C 205.082,427.24636 201.10893,431.56515 197.25229,429.28645 C 196.01723,432.1977 192.58401,420.115 193.40696,416.96689 C 191.5631,411.0531 186.21727,403.41306 187.16266,395.07081 C 186.29916,384.85106 182.64411,381.9193 183.01416,371.58653 C 183.55015,349.32518 195.03991,341.99186 206.26471,330.15352 C 205.64891,329.27737 231.92711,314.9808 256.84333,310.26321"
             style="fill:#fcef3c;fill-opacity:1;fill-rule:evenodd;stroke:#000000;stroke-width:2.33065462;stroke-linecap:round;stroke-linejoin:miter;stroke-miterlimit:4;stroke-dasharray:none;stroke-opacity:1" />
          <g
             style="fill:#fcef3c;fill-opacity:1;stroke:#000000;stroke-width:4.67728376;stroke-miterlimit:4;stroke-dasharray:none;stroke-opacity:1"
             transform="matrix(0.2625569,-0.6850109,0.6850109,0.2625569,181.96782,-508.68658)"
             id="g3706">
            <g
               style="fill:#fcef3c;fill-opacity:1;stroke:#000000;stroke-width:4.67728329;stroke-miterlimit:4;stroke-dasharray:none;stroke-opacity:1"
               id="g3708"
               transform="matrix(0.9858655,0.1675395,-0.1675395,0.9858655,-2853.2969,-260.5399)">
              <path
                 sodipodi:nodetypes="ccccc"
                 id="path3710"
                 d="M 1752.2191,462.65092 C 1760.2122,467.24264 1768.9823,467.13139 1776.8368,463.07115 C 1781.4253,460.10501 1785.2466,455.3412 1781.6639,450.88443 C 1776.289,448.79709 1771.2477,447.23935 1765.252,447.10235 C 1761.3307,452.33166 1755.494,457.08086 1752.2191,462.65092 z "
                 style="fill:#fcef3c;fill-opacity:1;fill-rule:evenodd;stroke:#000000;stroke-width:3.17698884;stroke-linecap:round;stroke-linejoin:miter;stroke-miterlimit:4;stroke-dasharray:none;stroke-opacity:1" />
              <path
                 style="fill:#fcef3c;fill-opacity:1;fill-rule:evenodd;stroke:#000000;stroke-width:3.17698884;stroke-linecap:round;stroke-linejoin:miter;stroke-miterlimit:4;stroke-dasharray:none;stroke-opacity:1"
                 d="M 1757.6568,467.36229 C 1766.2162,471.52809 1774.8435,470.26922 1781.9825,464.65786 C 1786.0648,460.70709 1789.1242,454.82023 1784.9318,450.23744 C 1779.3246,448.56866 1774.1246,447.45636 1768.1949,448.07579 C 1765.106,454.50256 1760.0581,460.63324 1757.6568,467.36229 z "
                 id="path3712"
                 sodipodi:nodetypes="ccccc" />
            </g>
          </g>
        </g>
        <path
           id="path3714"
           style="fill:#fcef3c;fill-opacity:1;fill-rule:evenodd;stroke:#000000;stroke-width:2.33065462;stroke-linecap:round;stroke-linejoin:round;stroke-miterlimit:4;stroke-dasharray:none;stroke-opacity:1"
           d="M 391.40665,400.86302 C 408.11116,405.99845 410.384,387.10217 409.33811,374.94434 C 406.21981,350.39951 377.64978,324.91614 359.11199,309.31491 C 347.22033,299.68648 326.83885,276.75898 345.70605,265.91757 C 364.4527,255.14541 381.90143,272.92421 397.32785,287.81769 C 401.16965,291.54438 400.44773,299.86442 402.26801,309.55879 C 403.69761,317.17259 412.57348,321.72386 419.78971,327.84178 C 413.74442,306.28254 417.74015,320.56198 413.46071,306.80653 C 417.17482,315.75953 419.89484,322.13374 430.22878,327.12754 C 423.93797,305.11135 416.88867,293.26838 403.99558,283.50249 C 382.14665,265.30333 365.37143,245.74377 341.75015,259.08514 C 315.09409,274.14054 339.0134,301.91184 352.95096,315.08917 C 364.29399,323.59342 395.29668,353.92252 399.15556,375.47981 C 401.1736,385.91835 394.04617,394.01691 383.14146,389.10902"
           sodipodi:nodetypes="cccscsccccsccc" />
        <path
           style="fill:#fcef3c;fill-opacity:1;fill-rule:evenodd;stroke:#000000;stroke-width:2.33065462;stroke-linecap:round;stroke-linejoin:round;stroke-miterlimit:4;stroke-dasharray:none;stroke-opacity:1"
           d="M 279.32103,414.45432 C 281.75755,412.72397 294.37399,413.85318 283.82156,406.71083 C 273.41048,399.66416 248.83721,382.3256 247.0771,379.99797 C 238.76664,374.5795 228.07528,342.2399 220.75591,335.43132 C 203.19281,319.09398 176.61121,289.31014 177.29508,283.64938 C 179.63598,264.27368 197.09471,226.27855 214.25147,220.66695 C 222.2701,218.04423 238.19174,221.45705 240.7169,222.14437 C 256.06775,226.32274 278.65166,244.58048 289.61559,257.84592 C 309.33714,271.39174 309.85511,280.75984 317.25094,296.62253 C 323.26231,312.49345 333.79164,330.23284 340.15807,341.51759 C 352.02064,354.40951 371.08876,371.58116 381.31041,385.7626 C 381.98858,386.70349 385.40902,392.63217 389.643,398.5276 C 391.32218,400.86571 392.29911,403.25112 393.75941,405.56659 C 394.952,407.45758 378.66735,438.65618 364.63852,444.1889 C 362.97463,444.84511 329.48329,429.20306 314.0216,426.25508 C 297.51013,423.10694 289.50456,420.12963 279.32103,414.45432 z "
           id="path3716"
           sodipodi:nodetypes="cscsssscccsssssc" />
        <g
           style="fill:#fcef3c;fill-opacity:1;stroke:#000000;stroke-width:3.43127799;stroke-miterlimit:4;stroke-dasharray:none;stroke-opacity:1"
           id="g3718">
          <path
             style="fill:#fcef3c;fill-opacity:1;fill-rule:evenodd;stroke:#000000;stroke-width:2.33065462;stroke-linecap:round;stroke-linejoin:miter;stroke-miterlimit:4;stroke-dasharray:none;stroke-opacity:1"
             d="M 294.69085,343.1675 C 284.22774,353.07164 269.8587,356.94308 259.54373,360.46021 C 247.05125,363.83806 263.7132,359.86784 238.29991,367.54748 C 227.66511,370.33171 218.39758,359.76956 208.54986,356.08633 C 207.77461,356.52926 171.76663,347.9029 164.67625,355.47049 C 157.25104,357.27249 163.72893,367.46834 158.95762,370.08861 C 155.94573,371.723 152.12944,366.50463 149.58849,374.37183 C 146.42903,374.23528 132.93398,367.18373 136.17086,366.85127 C 135.53894,370.46381 138.63522,342.99744 155.18833,341.23444 C 171.06235,331.7048 214.09673,333.96761 217.73358,335.49437 C 221.43304,333.21446 226.22695,338.66322 230.01664,335.75655 C 240.68781,323.47149 243.82263,324.63976 248.70891,317.00667 C 249.31374,316.12283 260.38346,309.86408 261.11065,309.07615"
             id="path3720"
             sodipodi:nodetypes="ccccccccccccc" />
          <g
             style="fill:#fcef3c;fill-opacity:1;stroke:#000000;stroke-width:4.67728329;stroke-miterlimit:4;stroke-dasharray:none;stroke-opacity:1"
             transform="matrix(0.2415047,-0.6927132,0.6927132,0.2415047,144.51815,-554.70136)"
             id="g3722">
            <g
               transform="matrix(0.3437392,0.9390652,-0.9390652,0.3437392,-1378.769,-1408.7794)"
               id="g3724"
               style="fill:#fcef3c;fill-opacity:1;stroke:#000000;stroke-width:4.67728329;stroke-miterlimit:4;stroke-dasharray:none;stroke-opacity:1">
              <path
                 style="fill:#fcef3c;fill-opacity:1;fill-rule:evenodd;stroke:#000000;stroke-width:3.17698908;stroke-linecap:round;stroke-linejoin:miter;stroke-miterlimit:4;stroke-dasharray:none;stroke-opacity:1"
                 d="M 1752.2191,462.65092 C 1760.2122,467.24264 1768.9823,467.13139 1776.8368,463.07115 C 1781.4253,460.10501 1785.2466,455.3412 1781.6639,450.88443 C 1776.289,448.79709 1771.2477,447.23935 1765.252,447.10235 C 1761.3307,452.33166 1755.494,457.08086 1752.2191,462.65092 z "
                 id="path3726"
                 sodipodi:nodetypes="ccccc" />
              <path
                 sodipodi:nodetypes="ccccc"
                 id="path3728"
                 d="M 1757.6568,467.36229 C 1766.2162,471.52809 1774.8435,470.26922 1781.9825,464.65786 C 1786.0648,460.70709 1789.1242,454.82023 1784.9318,450.23744 C 1779.3246,448.56866 1774.1246,447.45636 1768.1949,448.07579 C 1765.106,454.50256 1760.0581,460.63324 1757.6568,467.36229 z "
                 style="fill:#fcef3c;fill-opacity:1;fill-rule:evenodd;stroke:#000000;stroke-width:3.17698908;stroke-linecap:round;stroke-linejoin:miter;stroke-miterlimit:4;stroke-dasharray:none;stroke-opacity:1" />
            </g>
          </g>
        </g>
        <g
           style="fill:#fcef3c;fill-opacity:1;stroke:#000000;stroke-width:4.85650492;stroke-miterlimit:4;stroke-dasharray:none;stroke-opacity:1"
           id="g3730"
           transform="matrix(0.2536079,-0.6594476,0.6594476,0.2536079,125.71805,-134.99465)">
          <path
             d="M -499.27149,316.96078 C -506.93273,323.19843 -515.95217,323.09538 -529.08716,318.10823"
             style="fill:#fcef3c;fill-opacity:1;fill-rule:evenodd;stroke:#000000;stroke-width:4.85650492;stroke-linecap:butt;stroke-linejoin:miter;stroke-miterlimit:4;stroke-dasharray:none;stroke-opacity:1"
             id="path3732"
             sodipodi:nodetypes="cc" />
          <path
             style="fill:#fcef3c;fill-opacity:1;fill-rule:evenodd;stroke:#000000;stroke-width:3.29872274;stroke-linecap:round;stroke-linejoin:miter;stroke-miterlimit:4;stroke-dasharray:none;stroke-opacity:1"
             d="M -506.80092,312.9561 L -543.16315,277.86059 C -552.91595,292.49395 -563.63667,295.40155 -564.42226,308.43216 C -565.27393,322.55882 -545.30008,327.14784 -557.67868,352.98196"
             id="path3734"
             sodipodi:nodetypes="ccsc" />
          <path
             sodipodi:nodetypes="cssssssc"
             id="path3736"
             d="M -490.5152,175.9704 C -496.80275,185.99972 -493.00398,193.96011 -487.98924,200.6279 C -482.78859,207.54285 -477.37598,214.48959 -471.07416,220.4881 C -457.42247,233.48277 -444.6891,262.64193 -466.66199,272.80882 C -470.99195,274.81228 -476.41856,270.30428 -479.65449,267.05308 C -483.20304,263.48779 -477.06018,260.26096 -475.01134,257.54509 C -462.12918,240.46888 -480.19408,228.49093 -490.88818,214.64376 C -499.67812,203.26217 -506.79292,184.45674 -490.5152,175.9704 z "
             style="fill:#fcef3c;fill-opacity:1;fill-rule:evenodd;stroke:#000000;stroke-width:3.29872274;stroke-linecap:round;stroke-linejoin:round;stroke-miterlimit:4;stroke-dasharray:none;stroke-opacity:1" />
          <path
             id="path3738"
             d="M -535.82411,324.34383 C -549.75545,318.99847 -534.49729,313.88207 -541.14721,308.01517 C -545.57536,303.24643 -549.46791,297.92031 -553.41082,292.72992 C -557.83262,286.90913 -563.0953,288.63842 -567.84746,283.70273 C -572.49173,278.87911 -577.94558,275.38873 -580.4348,270.43222 C -583.22712,264.87219 -582.67339,257.78034 -580.62459,251.04983 C -578.77342,244.96857 -568.73493,246.10305 -562.27785,244.72799 L -538.60937,239.68769 C -528.55591,237.54676 -522.91081,231.34102 -513.40352,226.57796 C -499.39176,219.55821 -490.27605,228.35994 -484.36779,228.2981 C -477.32404,228.22437 -472.05989,229.50681 -465.16372,231.56258 C -451.41539,235.661 -442.55711,246.80995 -441.0169,260.707 C -424.08514,280.24025 -409.48463,302.31047 -412.78064,333.44686 C -412.91987,334.76213 -412.97676,337.37651 -413.18104,338.72463"
             style="fill:#fcef3c;fill-opacity:1;fill-rule:evenodd;stroke:#000000;stroke-width:3.29872274;stroke-linecap:round;stroke-linejoin:round;stroke-miterlimit:4;stroke-dasharray:none;stroke-opacity:1"
             sodipodi:nodetypes="ccssssccssscsc" />
          <path
             style="fill:#fcef3c;fill-opacity:1;fill-rule:evenodd;stroke:#000000;stroke-width:3.29872274;stroke-linecap:round;stroke-linejoin:round;stroke-miterlimit:4;stroke-dasharray:none;stroke-opacity:1"
             d="M -460.31967,175.40933 C -468.12905,184.30507 -465.65112,192.77019 -461.76629,200.15362 C -457.73744,207.81076 -453.50442,215.53313 -448.24211,222.46156 C -436.8423,237.47071 -428.93202,268.28991 -452.24718,274.81501 C -456.84164,276.10084 -461.47817,270.78362 -464.153,267.05711 C -467.08624,262.97059 -460.50668,260.76683 -458.05019,258.41324 C -442.60488,243.61495 -458.52365,228.90425 -466.86763,213.52615 C -473.72592,200.88623 -477.7443,181.18554 -460.31967,175.40933 z "
             id="path3740"
             sodipodi:nodetypes="cssssssc" />
          <path
             style="fill:#fcef3c;fill-opacity:1;fill-rule:evenodd;stroke:#000000;stroke-width:3.29872274;stroke-linecap:round;stroke-linejoin:miter;stroke-miterlimit:4;stroke-dasharray:none;stroke-opacity:1"
             d="M -476.29849,282.84154 C -482.00149,289.25168 -491.32915,294.54271 -505.84192,298.23283"
             id="path3742"
             sodipodi:nodetypes="cc" />
          <g
             id="g3744"
             transform="matrix(-0.3483156,-0.9373774,0.9373774,-0.3483156,-592.95817,363.11902)"
             inkscape:transform-center-y="9.5077597"
             style="fill:#fcef3c;fill-opacity:1;stroke:#000000;stroke-width:4.85650444;stroke-miterlimit:4;stroke-dasharray:none;stroke-opacity:1">
            <path
               sodipodi:nodetypes="cscsc"
               id="path3746"
               style="fill:#fcef3c;fill-opacity:1;fill-rule:evenodd;stroke:#000000;stroke-width:3.29872251;stroke-linecap:round;stroke-linejoin:round;stroke-miterlimit:4;stroke-dasharray:none;stroke-opacity:1"
               d="M 84.307798,110.85132 C 82.314694,114.83745 82.739506,114.7128 80.431054,115.95572 C 71.164327,120.94511 60.378966,109.312 56.281469,125.05184 C 58.993399,127.89441 69.101439,130.21713 73.578007,123.66649 C 74.646686,122.10267 73.715045,117.87395 78.282998,117.10437" />
            <path
               sodipodi:nodetypes="cc"
               id="path3748"
               style="fill:#fcef3c;fill-opacity:1;fill-rule:evenodd;stroke:#000000;stroke-width:3.29872251;stroke-linecap:round;stroke-linejoin:round;stroke-miterlimit:4;stroke-dasharray:none;stroke-opacity:1"
               d="M 72.063011,125.23551 C 63.906032,129.48478 59.000995,130.02526 54.954795,136.21653" />
            <path
               transform="translate(-1.679378,0.4798223)"
               d="M 71.253613 121.99482 A 4.1984453 5.1580896 0 1 1  62.856723,121.99482 A 4.1984453 5.1580896 0 1 1  71.253613 121.99482 z"
               sodipodi:ry="5.1580896"
               sodipodi:rx="4.1984453"
               sodipodi:cy="121.99482"
               sodipodi:cx="67.055168"
               id="path3750"
               style="opacity:1;fill:#fcef3c;fill-opacity:1;stroke:#000000;stroke-width:3.29872251;stroke-miterlimit:4;stroke-dasharray:none;stroke-opacity:1"
               sodipodi:type="arc" />
          </g>
          <path
             d="M -471.35564,263.17751 C -468.25795,261.83693 -465.5488,263.33775 -460.37403,265.84489 C -454.13196,268.86913 -450.67692,278.39165 -443.10119,283.83006 C -435.7914,289.07756 -425.92256,291.81467 -418.40044,293.50943 C -425.07451,297.90758 -461.26676,309.64252 -468.38213,280.4099 C -469.47654,275.91375 -478.35261,276.13587 -478.91824,270.86999"
             style="fill:#fcef3c;fill-opacity:1;fill-rule:evenodd;stroke:#000000;stroke-width:3.29872274;stroke-linecap:round;stroke-linejoin:round;stroke-miterlimit:4;stroke-dasharray:none;stroke-opacity:1"
             id="path3752"
             sodipodi:nodetypes="csscsc"
             inkscape:transform-center-y="-18.067532"
             inkscape:transform-center-x="6.8305148" />
          <path
             d="M -556.86605,259.09353 C -564.24228,260.74091 -576.43902,252.18217 -567.66065,268.31098 C -567.19567,269.16564 -560.38903,269.002 -559.91476,267.65986"
             style="fill:#fcef3c;fill-opacity:1;fill-rule:evenodd;stroke:#000000;stroke-width:3.29872274;stroke-linecap:round;stroke-linejoin:miter;stroke-miterlimit:4;stroke-dasharray:none;stroke-opacity:1"
             id="path3754" />
          <path
             style="fill:#fcef3c;fill-opacity:1;fill-rule:evenodd;stroke:#000000;stroke-width:3.29872274;stroke-linecap:round;stroke-linejoin:miter;stroke-miterlimit:4;stroke-dasharray:none;stroke-opacity:1"
             d="M -572.07249,279.69042 C -569.57774,281.49289 -568.21382,283.98606 -565.62631,285.31388 C -557.54629,289.46025 -547.32049,290.21027 -533.59226,288.31205"
             id="path3756"
             sodipodi:nodetypes="csc" />
          <path
             style="fill:#fcef3c;fill-opacity:1;fill-rule:evenodd;stroke:#000000;stroke-width:3.29872274;stroke-linecap:butt;stroke-linejoin:round;stroke-miterlimit:4;stroke-dasharray:none;stroke-opacity:1"
             d="M -475.26206,274.20405 C -462.15469,266.33044 -452.18353,292.10851 -421.88527,294.62348"
             id="path3758"
             sodipodi:nodetypes="cc" />
        </g>
        <g
           style="fill:#fcef3c;fill-opacity:1;stroke:#000000;stroke-width:3.43127799;stroke-miterlimit:4;stroke-dasharray:none;stroke-opacity:1"
           id="g3760"
           transform="matrix(0.9689124,-0.2474041,0.2474041,0.9689124,-93.092597,103.7653)">
          <g
             style="fill:#fcef3c;fill-opacity:1;stroke:#000000;stroke-width:4.67728329;stroke-miterlimit:4;stroke-dasharray:none;stroke-opacity:1"
             inkscape:transform-center-x="17.031132"
             transform="matrix(0.4425487,-0.585087,0.585087,0.4425487,320.23651,-203.16789)"
             id="g3762">
            <path
               sodipodi:nodetypes="ccccc"
               id="path3764"
               d="M -810.72984,699.89607 C -804.55773,706.74287 -796.18664,709.36046 -787.45961,707.93996 C -782.17688,706.5453 -777.0652,703.2036 -779.08685,697.85463 C -783.54787,694.20144 -787.85623,691.15525 -793.51299,689.1632 C -798.86428,692.91634 -805.88719,695.61831 -810.72984,699.89607 z "
               style="fill:#fcef3c;fill-opacity:1;fill-rule:evenodd;stroke:#000000;stroke-width:3.17698884;stroke-linecap:butt;stroke-linejoin:miter;stroke-miterlimit:4;stroke-dasharray:none;stroke-opacity:1" />
            <path
               style="fill:#fcef3c;fill-opacity:1;fill-rule:evenodd;stroke:#000000;stroke-width:3.17698884;stroke-linecap:butt;stroke-linejoin:miter;stroke-miterlimit:4;stroke-dasharray:none;stroke-opacity:1"
               d="M -807.02396,706.06308 C -800.18128,712.68086 -791.58956,714.16323 -783.06101,711.04611 C -777.9537,708.5583 -773.21752,703.91248 -775.77959,698.2544 C -780.5914,694.92693 -785.18894,692.25488 -791.01785,691.00237 C -795.94973,696.15225 -802.65182,700.41235 -807.02396,706.06308 z "
               id="path3766"
               sodipodi:nodetypes="ccccc" />
          </g>
          <path
             sodipodi:nodetypes="cscccccccccccscss"
             d="M 338.65074,408.94441 C 337.75287,416.1606 331.43159,425.72259 330.35411,430.32803 C 327.09784,444.24625 327.20424,458.08238 332.91216,466.29903 C 334.77747,468.60148 339.06123,475.80773 342.1367,478.1052 C 346.43605,485.99378 363.23103,492.31128 368.79151,498.3813 C 377.76697,516.63628 378.73179,532.89835 375.35993,545.68073 C 373.95935,550.19149 374.78382,562.44564 374.16033,565.94919 C 374.1758,571.89859 382.17711,561.23403 386.47876,561.31893 C 385.48665,552.80815 392.33815,552.0796 392.90952,551.43894 C 392.92711,548.41153 390.95254,545.74585 389.5053,542.59349 C 388.82077,536.89065 388.71643,531.70726 388.65434,526.99692 C 388.4571,518.09923 390.31628,515.24368 390.33617,506.35225 C 388.79135,500.37261 394.6365,496.17584 394.76772,490.51745 C 394.86083,484.05443 386.44136,480.21816 387.67857,473.82616 C 389.22539,465.83427 399.09897,452.12955 398.58631,435.2009 C 399.04833,431.75961 398.82419,420.27292 396.80894,410.99115 C 396.58496,409.95956 395.36039,407.42821 395.38947,406.72391"
             style="fill:#fcef3c;fill-opacity:1;fill-rule:evenodd;stroke:#000000;stroke-width:2.33065462;stroke-linecap:butt;stroke-linejoin:miter;stroke-miterlimit:4;stroke-dasharray:none;stroke-opacity:1"
             id="path3768" />
        </g>
      </g>
      <g
         transform="matrix(0.6313781,0.7754752,-0.7754752,0.6313781,-430.67349,824.00605)"
         id="g3770"
         style="fill:#fcef3c;fill-opacity:1" />
    </g>
    <text
       xml:space="preserve"
       style="font-size:45.44792175px;font-style:normal;font-weight:normal;fill:#fcef3c;fill-opacity:1;stroke:none;stroke-width:1px;stroke-linecap:butt;stroke-linejoin:miter;stroke-opacity:1;font-family:Times New Roman"
       x="130.30113"
       y="959.63574"
       id="text3772"
       transform="matrix(0.6429128,-0.7709262,0.734051,0.6752096,0,0)"><tspan
         sodipodi:role="line"
         id="tspan3774"
         x="130.30113"
         y="959.63574">1706</tspan></text>
    <path
       id="path3146"
       d="M 0,0 L 0,600 L 900,600 L 900,0 L 0,0 z M 40,40 L 860,40 L 860,560 L 40,560 L 40,40 z"
       style="font-size:12px;opacity:1;fill:#fcef3c;fill-opacity:1;fill-rule:evenodd;stroke-width:1" />
    <use
       x="0"
       y="0"
       xlink:href="#g3680"
       id="use3250"
       transform="translate(0,306.4375)"
       width="900"
       height="600" />
    <use
       x="0"
       y="0"
       xlink:href="#g3680"
       id="use3252"
       transform="translate(459.98437,306.4375)"
       width="900"
       height="600" />
    <use
       x="0"
       y="0"
       xlink:href="#g3680"
       id="use3254"
       transform="translate(459.98437,-7.1073286e-8)"
       width="900"
       height="600" />
  </g>
</svg>
