<?xml version="1.0" encoding="UTF-8"?>
<svg xmlns="http://www.w3.org/2000/svg" xmlns:xlink="http://www.w3.org/1999/xlink" width="1200" height="800">
	<rect width="1200" height="800" fill="#2b5df2"/>
	<use xlink:href="#fleurs" x="100" y="-140"/>
	<g id="fleurs">
		<g id="fleur" fill="#fcef3c">
			<path d="M 100.024,29.61 C 113.555,44.236 121.511,52.301 122.901,74.995 C 124.188,95.996 110.212,113.554 107.2,133.866 C 106.629,137.719 106.139,145.584 106.655,148.773 C 107.037,151.135 108.213,158.351 109.496,149.423 C 109.76,147.586 109.95,138.373 110.759,133.694 C 112.235,125.17 116.959,110.181 125.154,101.876 C 133.347,93.575 146.328,88.191 157.905,92.533 C 168.395,97.373 169.386,111.041 166.402,121.036 C 162.664,133.553 148.38,142.217 135.574,143.066 C 138.111,138.048 144.185,123.725 137.597,124.294 C 129.972,124.952 120.852,137.925 118.477,146.825 C 117.583,150.176 117.944,155.38 113.156,155.165 C 116.313,165.832 125.226,172.891 133.034,180.338 C 124.894,181.014 116.842,177.184 109.74,173.535 C 110.041,180.849 108.621,196.3 100.024,204.736 C 92.045,196.049 91.319,185.453 91.169,173.535 C 84.067,177.184 76.015,181.014 67.876,180.338 C 75.684,172.891 84.596,165.832 87.753,155.165 C 82.965,155.38 82.677,150.501 81.783,147.149 C 79.408,138.25 70.937,124.952 63.312,124.294 C 56.725,123.725 62.798,138.048 65.336,143.066 C 52.53,142.217 38.246,133.553 34.508,121.036 C 31.523,111.041 32.515,97.373 43.004,92.533 C 54.581,88.191 67.563,93.575 75.755,101.876 C 83.951,110.181 88.675,125.17 90.15,133.694 C 90.96,138.373 90.824,146.937 91.088,148.773 C 92.372,157.702 93.872,151.135 94.255,148.773 C 94.771,145.584 94.281,137.719 93.709,133.866 C 90.697,113.554 78.044,95.282 78.008,74.995 C 77.976,56.677 87.186,42.739 100.024,29.61 z"/>
			<rect x="69.225" y="147.132" width="62.459" height="10.104" rx="3.22"/>
		</g>
		<use xlink:href="#fleur" x="-200"/>
		<use xlink:href="#fleur" x="200"/>
		<use xlink:href="#fleur" x="400"/>
		<use xlink:href="#fleur" x="600"/>
		<use xlink:href="#fleur" x="800"/>
		<use xlink:href="#fleur" x="1000"/>
	</g>
	<use xlink:href="#fleurs" x="100" y="140"/>
	<use xlink:href="#fleurs" y="280"/>
	<use xlink:href="#fleurs" x="100" y="420"/>
	<use xlink:href="#fleurs" y="560"/>
	<use xlink:href="#fleurs" x="100" y="700"/>
	<path d="M 50,50 H 1150 V 750 H 50 z" fill="none" stroke="#e20909" stroke-width="100"/>
	<path d="M -87.5,347.5 q 62.5,-35 125,0 t 125,0 t 125,0 t 125,0 t 125,0 t 125,0 t 125,0 t 125,0 t 125,0 t 125,0 t 125,0 v 105 q -62.5,-35 -125,0 t -125,0 t -125,0 t -125,0 t -125,0 t -125,0 t -125,0 t -125,0 t -125,0 t -125,0 t -125,0 z" fill="#fff"/>
</svg>