<?xml version="1.0" encoding="UTF-8" standalone="no"?>
<!-- Created with Sodipodi ("http://www.sodipodi.com/") -->
<svg
   xmlns:dc="http://purl.org/dc/elements/1.1/"
   xmlns:cc="http://web.resource.org/cc/"
   xmlns:rdf="http://www.w3.org/1999/02/22-rdf-syntax-ns#"
   xmlns:svg="http://www.w3.org/2000/svg"
   xmlns="http://www.w3.org/2000/svg"
   xmlns:sodipodi="http://sodipodi.sourceforge.net/DTD/sodipodi-0.dtd"
   xmlns:inkscape="http://www.inkscape.org/namespaces/inkscape"
   height="6.100000cm"
   id="svg1350"
   sodipodi:docbase="d:\Documents and Settings\MARI LUZ\Mis documentos"
   sodipodi:docname="France_alsace.svg"
   sodipodi:version="0.32"
   width="258.72pt"
   inkscape:version="0.45"
   inkscape:output_extension="org.inkscape.output.svg.inkscape"
   sodipodi:modified="true">
  <metadata
     id="metadata2383">
    <rdf:RDF>
      <cc:Work
         rdf:about="">
        <dc:title>France Alsace</dc:title>
        <dc:description />
        <dc:subject>
          <rdf:Bag>
            <rdf:li />
            <rdf:li>europe</rdf:li>
            <rdf:li>france</rdf:li>
            <rdf:li>flag</rdf:li>
            <rdf:li>sign</rdf:li>
            <rdf:li>subnational</rdf:li>
          </rdf:Bag>
        </dc:subject>
        <dc:publisher>
          <cc:Agent
             rdf:about="http://www.openclipart.org">
            <dc:title>Patricia Fidi</dc:title>
          </cc:Agent>
        </dc:publisher>
        <dc:creator>
          <cc:Agent>
            <dc:title>Patricia Fidi</dc:title>
          </cc:Agent>
        </dc:creator>
        <dc:rights>
          <cc:Agent>
            <dc:title>Patricia Fidi</dc:title>
          </cc:Agent>
        </dc:rights>
        <dc:date />
        <dc:format>image/svg+xml</dc:format>
        <dc:type
           rdf:resource="http://purl.org/dc/dcmitype/StillImage" />
        <cc:license
           rdf:resource="http://web.resource.org/cc/PublicDomain" />
        <dc:language>en</dc:language>
      </cc:Work>
      <cc:License
         rdf:about="http://web.resource.org/cc/PublicDomain">
        <cc:permits
           rdf:resource="http://web.resource.org/cc/Reproduction" />
        <cc:permits
           rdf:resource="http://web.resource.org/cc/Distribution" />
        <cc:permits
           rdf:resource="http://web.resource.org/cc/DerivativeWorks" />
      </cc:License>
    </rdf:RDF>
  </metadata>
  <defs
     id="defs1352">
    <defs
       id="defs5117" />
    <sodipodi:namedview
       id="namedview5116" />
  </defs>
  <sodipodi:namedview
     bordercolor="#000000"
     borderlayer="top"
     borderopacity="1"
     id="base"
     showgrid="false"
     inkscape:zoom="1.406947"
     inkscape:cx="123.23875"
     inkscape:cy="110.29587"
     inkscape:window-width="1024"
     inkscape:window-height="712"
     inkscape:window-x="-4"
     inkscape:window-y="-4"
     inkscape:current-layer="svg1350" />
  <path
     style="font-size:12;fill:#ff0000;fill-rule:evenodd;opacity:1"
     d="M 322.84375 179.21875 L 322.84375 1.3125 L 69.75 1.3125 L 322.84375 179.21875 z "
     id="path2728" />
  <path
     style="font-size:12;fill:#ff0000;fill-rule:evenodd;opacity:1"
     d="M 0 37.15625 L 0 216.3125 L 254 216.3125 L 0 37.15625 z "
     id="path2726" />
  <path
     style="font-size:12;fill:#ffd700;fill-rule:evenodd;opacity:1;fill-opacity:1;color:#000000;stroke:none;stroke-width:1.31200071;stroke-linecap:butt;stroke-linejoin:miter;marker:none;marker-start:none;marker-mid:none;marker-end:none;stroke-miterlimit:4;stroke-dasharray:none;stroke-dashoffset:0;stroke-opacity:0.54779998;visibility:visible;display:inline;overflow:visible;enable-background:accumulate"
     d="M 0 37.15625 L 254 216.3125 L 322.84375 216.3125 L 322.84375 179.21875 L 69.75 1.3125 L 0 1.3125 L 0 37.15625 z "
     id="rect624" />
  <g
     id="g4974"
     style="font-size:12;fill:#ffd700;"
     transform="matrix(-1.903675,-2.326722e-16,2.331252e-16,-1.899976,479.3999,-8.891644)" />
  <g
     id="g3305"
     transform="translate(-1.0074082,0.377217)">
    <g
       transform="matrix(0.9932596,-0.1159111,0.1159111,0.9932596,-3.7883854,26.320492)"
       id="g3110">
      <rect
         y="-93.664223"
         x="-205.48201"
         width="46.826794"
         transform="matrix(-0.7462925,-0.6656182,-0.6531774,0.7572049,0,0)"
         style="font-size:12px;opacity:1;fill:#ffd700;fill-opacity:1;fill-rule:evenodd;stroke-width:1.17855096"
         ry="2.652622"
         rx="3.813442"
         id="rect3112"
         height="9.2927952" />
      <path
         style="font-size:12px;opacity:1;fill:#ffd700;fill-opacity:1;fill-rule:evenodd;stroke-width:1.28750002"
         sodipodi:nodetypes="cssccssccccc"
         id="path3114"
         d="M 196.05548,39.298817 C 194.0128,35.829832 193.86076,33.158559 195.49452,31.009192 C 196.47056,29.711694 199.19063,29.572012 200.78358,30.91135 C 205.766,35.088567 201.55624,43.117282 200.10057,44.701294 C 199.89474,44.519819 198.89335,43.611334 198.63406,43.398204 C 199.3121,42.186124 200.60673,41.10842 199.97608,38.688354 C 199.34544,36.268306 197.94624,36.463036 197.17847,36.938147 C 196.41072,37.413242 196.17298,39.518732 196.05547,39.298834 L 196.05547,39.298834 L 196.05547,39.298834 L 196.05548,39.298817 L 196.05548,39.298817 L 196.05548,39.298817 z " />
      <path
         style="font-size:12px;opacity:1;fill:#ffd700;fill-opacity:1;fill-rule:evenodd;stroke-width:1.28750002"
         sodipodi:nodetypes="cssccssccccc"
         id="path3116"
         d="M 209.10403,50.747942 C 212.81822,52.330175 215.50029,52.145591 217.43832,50.263202 C 218.60952,49.136941 218.40796,46.433775 216.8732,45.028759 C 212.08467,40.632727 204.6082,45.795145 203.21146,47.430871 C 203.41816,47.611323 204.44934,48.486263 204.69427,48.715553 C 205.81762,47.894231 206.72981,46.480964 209.22138,46.800418 C 211.71298,47.119889 211.69415,48.525799 211.31672,49.343368 C 210.93927,50.160953 208.87009,50.65947 209.10403,50.747942 L 209.10403,50.747942 L 209.10403,50.747942 L 209.10403,50.747942 L 209.10403,50.747942 L 209.10403,50.747942 z " />
      <path
         style="font-size:12px;opacity:1;fill:#ffd700;fill-opacity:1;fill-rule:evenodd;stroke-width:1.28750002"
         sodipodi:nodetypes="cccccccc"
         id="path3118"
         d="M 215.60323,30.241265 C 209.75133,30.186797 206.28447,32.31176 204.37229,38.910629 C 203.75356,41.13224 202.42143,43.280561 200.67161,45.193137 C 200.98748,45.481221 202.36688,46.668595 202.70782,46.933877 C 204.37712,44.992506 206.54755,43.312338 208.70492,42.394859 C 215.48114,39.888218 216.49174,35.041571 215.69135,30.318584 L 215.64728,30.279915 L 215.60323,30.241265 L 215.60323,30.241265 z " />
      <rect
         y="-98.320808"
         x="-186.77979"
         width="10.464513"
         transform="matrix(-0.7516727,-0.6595364,-0.6631184,0.7485145,0,0)"
         style="font-size:12px;opacity:1;fill:#ffd700;fill-opacity:1;fill-rule:evenodd;stroke-width:1.17855096"
         id="rect3120"
         height="1.2943885" />
      <g
         style="font-size:12px;opacity:1;fill:#ffd700;fill-opacity:1"
         id="g3122"
         transform="matrix(2.1012436,0,0,2.0971607,-105.60725,256.21192)">
        <path
           style="font-size:12px;fill:#ffd700;fill-opacity:1;fill-rule:evenodd;stroke-width:1.28750002"
           sodipodi:nodetypes="cssccssccccc"
           id="path3124"
           d="M 140.191,-105.8351 C 141.6502,-105.8941 142.5196,-106.508 142.9047,-107.7044 C 143.139,-108.4225 142.6961,-109.5459 141.9888,-109.8448 C 139.7801,-110.7829 138.0027,-107.0711 137.7639,-106.0887 C 137.8579,-106.0522 138.3236,-105.8811 138.4372,-105.8312 C 138.6979,-106.4086 138.8059,-107.1986 139.6817,-107.5576 C 140.5575,-107.9165 140.7466,-107.3077 140.7342,-106.8805 C 140.7219,-106.4534 140.1006,-105.8266 140.191,-105.8351 L 140.191,-105.8351 L 140.191,-105.8351 L 140.191,-105.8351 L 140.191,-105.8351 L 140.191,-105.8351 z " />
        <path
           style="font-size:12px;fill:#ffd700;fill-opacity:1;fill-rule:evenodd;stroke-width:1.28750002"
           sodipodi:nodetypes="cccccccc"
           id="path3126"
           d="M 139.5103,-115.9567 C 137.55,-114.8141 136.9236,-107.7177 136.6055,-106.5459 C 136.7509,-106.4848 137.3761,-106.2486 137.5267,-106.2023 C 137.814,-107.3706 138.3048,-108.5262 138.8972,-109.351 C 140.81,-111.7801 140.4737,-114.0676 139.5505,-115.9411 L 139.5304,-115.9489 L 139.5103,-115.9567 L 139.5103,-115.9567 L 139.5103,-115.9567 z " />
      </g>
      <g
         transform="matrix(-0.3870722,-2.061272,-2.065285,0.3863201,50.626683,388.0515)"
         style="font-size:12px;opacity:1;fill:#ffd700;fill-opacity:1"
         id="g3128">
        <path
           style="font-size:12px;fill:#ffd700;fill-opacity:1;fill-rule:evenodd;stroke-width:1.28750002"
           sodipodi:nodetypes="cssccssccccc"
           id="path3130"
           d="M 140.191,-105.8351 C 141.6502,-105.8941 142.5196,-106.508 142.9047,-107.7044 C 143.139,-108.4225 142.6961,-109.5459 141.9888,-109.8448 C 139.7801,-110.7829 138.0027,-107.0711 137.7639,-106.0887 C 137.8579,-106.0522 138.3236,-105.8811 138.4372,-105.8312 C 138.6979,-106.4086 138.8059,-107.1986 139.6817,-107.5576 C 140.5575,-107.9165 140.7466,-107.3077 140.7342,-106.8805 C 140.7219,-106.4534 140.1006,-105.8266 140.191,-105.8351 L 140.191,-105.8351 L 140.191,-105.8351 L 140.191,-105.8351 L 140.191,-105.8351 L 140.191,-105.8351 z " />
        <path
           style="font-size:12px;fill:#ffd700;fill-opacity:1;fill-rule:evenodd;stroke-width:1.28750002"
           sodipodi:nodetypes="cccccccc"
           id="path3132"
           d="M 139.5103,-115.9567 C 137.55,-114.8141 136.9236,-107.7177 136.6055,-106.5459 C 136.7509,-106.4848 137.3761,-106.2486 137.5267,-106.2023 C 137.814,-107.3706 138.3048,-108.5262 138.8972,-109.351 C 140.81,-111.7801 140.4737,-114.0676 139.5505,-115.9411 L 139.5304,-115.9489 L 139.5103,-115.9567 L 139.5103,-115.9567 L 139.5103,-115.9567 z " />
      </g>
      <path
         style="font-size:12px;opacity:1;fill:#ffd700;fill-opacity:1;fill-rule:evenodd;stroke:none;stroke-width:0.625;stroke-linecap:butt;stroke-linejoin:miter;stroke-dasharray:none;stroke-opacity:0.54779998"
         sodipodi:nodetypes="cccccccccc"
         id="path3134"
         d="M 197.12312,43.759055 L 204.57413,50.213696 C 206.26752,55.178578 211.17834,59.646935 216.2583,61.467396 C 216.2583,62.129407 217.61318,64.115334 217.95191,64.777282 L 215.28354,65.109934 L 181.01561,34.809632 L 181.20578,32.505691 C 181.88322,33.167765 184.25384,33.498906 185.43915,34.16056 C 187.13255,38.62919 192.21251,43.097401 197.12312,43.759055 L 197.12312,43.759055 L 197.12312,43.759055 z " />
      <rect
         y="-133.88023"
         x="-251.2316"
         width="46.826794"
         transform="matrix(-0.7462925,-0.6656182,-0.6531774,0.7572049,0,0)"
         style="font-size:12px;opacity:1;fill:#ffd700;fill-opacity:1;fill-rule:evenodd;stroke-width:1.17855096"
         ry="2.652622"
         rx="3.813442"
         id="rect3136"
         height="9.2927952" />
      <path
         style="font-size:12px;opacity:1;fill:#ffd700;fill-opacity:1;fill-rule:evenodd;stroke-width:1.28750002"
         sodipodi:nodetypes="cssccssccccc"
         id="path3138"
         d="M 256.46623,39.298817 C 254.42355,35.829832 254.27151,33.158559 255.90527,31.009192 C 256.88131,29.711694 259.60138,29.572012 261.19433,30.91135 C 266.17675,35.088567 261.96699,43.117282 260.51132,44.701294 C 260.30549,44.519819 259.3041,43.611334 259.04481,43.398204 C 259.72285,42.186124 261.01748,41.10842 260.38683,38.688354 C 259.75619,36.268306 258.35699,36.463036 257.58922,36.938147 C 256.82147,37.413242 256.58373,39.518732 256.46622,39.298834 L 256.46622,39.298834 L 256.46622,39.298834 L 256.46623,39.298817 L 256.46623,39.298817 L 256.46623,39.298817 z " />
      <path
         style="font-size:12px;opacity:1;fill:#ffd700;fill-opacity:1;fill-rule:evenodd;stroke-width:1.28750002"
         sodipodi:nodetypes="cssccssccccc"
         id="path3140"
         d="M 269.51478,50.747942 C 273.22897,52.330175 275.91104,52.145591 277.84907,50.263202 C 279.02027,49.136941 278.81871,46.433775 277.28395,45.028759 C 272.49542,40.632727 265.01895,45.795145 263.62221,47.430871 C 263.82891,47.611323 264.86009,48.486263 265.10502,48.715553 C 266.22837,47.894231 267.14056,46.480964 269.63213,46.800418 C 272.12373,47.119889 272.1049,48.525799 271.72747,49.343368 C 271.35002,50.160953 269.28084,50.65947 269.51478,50.747942 L 269.51478,50.747942 L 269.51478,50.747942 L 269.51478,50.747942 L 269.51478,50.747942 L 269.51478,50.747942 z " />
      <path
         style="font-size:12px;opacity:1;fill:#ffd700;fill-opacity:1;fill-rule:evenodd;stroke-width:1.28750002"
         sodipodi:nodetypes="cccccccc"
         id="path3142"
         d="M 276.01398,30.241265 C 270.16208,30.186797 266.69522,32.31176 264.78304,38.910629 C 264.16431,41.13224 262.83218,43.280561 261.08236,45.193137 C 261.39823,45.481221 262.77763,46.668595 263.11857,46.933877 C 264.78787,44.992506 266.9583,43.312338 269.11567,42.394859 C 275.89189,39.888218 276.90249,35.041571 276.1021,30.318584 L 276.05803,30.279915 L 276.01398,30.241265 L 276.01398,30.241265 z " />
      <rect
         y="-138.16435"
         x="-231.99861"
         width="10.464513"
         transform="matrix(-0.7516727,-0.6595364,-0.6631184,0.7485145,0,0)"
         style="font-size:12px;opacity:1;fill:#ffd700;fill-opacity:1;fill-rule:evenodd;stroke-width:1.17855096"
         id="rect3144"
         height="1.2943885" />
      <g
         style="font-size:12px;opacity:1;fill:#ffd700;fill-opacity:1"
         id="g3146"
         transform="matrix(2.1012436,0,0,2.0971607,-45.196493,256.21192)">
        <path
           style="font-size:12px;fill:#ffd700;fill-opacity:1;fill-rule:evenodd;stroke-width:1.28750002"
           sodipodi:nodetypes="cssccssccccc"
           id="path3148"
           d="M 140.191,-105.8351 C 141.6502,-105.8941 142.5196,-106.508 142.9047,-107.7044 C 143.139,-108.4225 142.6961,-109.5459 141.9888,-109.8448 C 139.7801,-110.7829 138.0027,-107.0711 137.7639,-106.0887 C 137.8579,-106.0522 138.3236,-105.8811 138.4372,-105.8312 C 138.6979,-106.4086 138.8059,-107.1986 139.6817,-107.5576 C 140.5575,-107.9165 140.7466,-107.3077 140.7342,-106.8805 C 140.7219,-106.4534 140.1006,-105.8266 140.191,-105.8351 L 140.191,-105.8351 L 140.191,-105.8351 L 140.191,-105.8351 L 140.191,-105.8351 L 140.191,-105.8351 z " />
        <path
           style="font-size:12px;fill:#ffd700;fill-opacity:1;fill-rule:evenodd;stroke-width:1.28750002"
           sodipodi:nodetypes="cccccccc"
           id="path3150"
           d="M 139.5103,-115.9567 C 137.55,-114.8141 136.9236,-107.7177 136.6055,-106.5459 C 136.7509,-106.4848 137.3761,-106.2486 137.5267,-106.2023 C 137.814,-107.3706 138.3048,-108.5262 138.8972,-109.351 C 140.81,-111.7801 140.4737,-114.0676 139.5505,-115.9411 L 139.5304,-115.9489 L 139.5103,-115.9567 L 139.5103,-115.9567 L 139.5103,-115.9567 z " />
      </g>
      <g
         transform="matrix(-0.3870722,-2.061272,-2.065285,0.3863201,111.03744,388.0515)"
         style="font-size:12px;opacity:1;fill:#ffd700;fill-opacity:1"
         id="g3152">
        <path
           style="font-size:12px;fill:#ffd700;fill-opacity:1;fill-rule:evenodd;stroke-width:1.28750002"
           sodipodi:nodetypes="cssccssccccc"
           id="path3154"
           d="M 140.191,-105.8351 C 141.6502,-105.8941 142.5196,-106.508 142.9047,-107.7044 C 143.139,-108.4225 142.6961,-109.5459 141.9888,-109.8448 C 139.7801,-110.7829 138.0027,-107.0711 137.7639,-106.0887 C 137.8579,-106.0522 138.3236,-105.8811 138.4372,-105.8312 C 138.6979,-106.4086 138.8059,-107.1986 139.6817,-107.5576 C 140.5575,-107.9165 140.7466,-107.3077 140.7342,-106.8805 C 140.7219,-106.4534 140.1006,-105.8266 140.191,-105.8351 L 140.191,-105.8351 L 140.191,-105.8351 L 140.191,-105.8351 L 140.191,-105.8351 L 140.191,-105.8351 z " />
        <path
           style="font-size:12px;fill:#ffd700;fill-opacity:1;fill-rule:evenodd;stroke-width:1.28750002"
           sodipodi:nodetypes="cccccccc"
           id="path3156"
           d="M 139.5103,-115.9567 C 137.55,-114.8141 136.9236,-107.7177 136.6055,-106.5459 C 136.7509,-106.4848 137.3761,-106.2486 137.5267,-106.2023 C 137.814,-107.3706 138.3048,-108.5262 138.8972,-109.351 C 140.81,-111.7801 140.4737,-114.0676 139.5505,-115.9411 L 139.5304,-115.9489 L 139.5103,-115.9567 L 139.5103,-115.9567 L 139.5103,-115.9567 z " />
      </g>
      <path
         style="font-size:12px;opacity:1;fill:#ffd700;fill-opacity:1;fill-rule:evenodd;stroke:none;stroke-width:0.625;stroke-linecap:butt;stroke-linejoin:miter;stroke-dasharray:none;stroke-opacity:0.54779998"
         sodipodi:nodetypes="cccccccccc"
         id="path3158"
         d="M 257.53387,43.759055 L 264.98488,50.213696 C 266.67828,55.178578 271.58909,59.646935 276.66906,61.467396 C 276.66906,62.129407 278.02394,64.115334 278.36266,64.777282 L 275.69429,65.109934 L 241.42637,34.809632 L 241.61653,32.505691 C 242.29398,33.167765 244.6646,33.498906 245.84991,34.16056 C 247.5433,38.62919 252.62327,43.097401 257.53387,43.759055 L 257.53387,43.759055 L 257.53387,43.759055 z " />
      <rect
         y="-96.183807"
         x="-293.02332"
         width="46.826794"
         transform="matrix(-0.7462925,-0.6656182,-0.6531774,0.7572049,0,0)"
         style="font-size:12px;opacity:1;fill:#ffd700;fill-opacity:1;fill-rule:evenodd;stroke-width:1.17855096"
         ry="2.652622"
         rx="3.813442"
         id="rect3160"
         height="9.2927952" />
      <path
         style="font-size:12px;opacity:1;fill:#ffd700;fill-opacity:1;fill-rule:evenodd;stroke-width:1.28750002"
         sodipodi:nodetypes="cssccssccccc"
         id="path3162"
         d="M 263.03262,95.660057 C 260.98994,92.191072 260.8379,89.519799 262.47166,87.370432 C 263.4477,86.072934 266.16777,85.933252 267.76072,87.27259 C 272.74314,91.449807 268.53338,99.478522 267.07771,101.06253 C 266.87188,100.88106 265.87049,99.972574 265.6112,99.759444 C 266.28924,98.547364 267.58387,97.46966 266.95322,95.049594 C 266.32258,92.629546 264.92338,92.824276 264.15561,93.299387 C 263.38786,93.774482 263.15012,95.879972 263.03261,95.660074 L 263.03261,95.660074 L 263.03261,95.660074 L 263.03262,95.660057 L 263.03262,95.660057 L 263.03262,95.660057 z " />
      <path
         style="font-size:12px;opacity:1;fill:#ffd700;fill-opacity:1;fill-rule:evenodd;stroke-width:1.28750002"
         sodipodi:nodetypes="cssccssccccc"
         id="path3164"
         d="M 276.08117,107.10918 C 279.79536,108.69142 282.47743,108.50683 284.41546,106.62444 C 285.58666,105.49818 285.3851,102.79501 283.85034,101.39 C 279.06181,96.993967 271.58534,102.15638 270.1886,103.79211 C 270.3953,103.97256 271.42648,104.8475 271.67141,105.07679 C 272.79476,104.25547 273.70695,102.8422 276.19852,103.16166 C 278.69012,103.48113 278.67129,104.88704 278.29386,105.70461 C 277.91641,106.52219 275.84723,107.02071 276.08117,107.10918 L 276.08117,107.10918 L 276.08117,107.10918 L 276.08117,107.10918 L 276.08117,107.10918 L 276.08117,107.10918 z " />
      <path
         style="font-size:12px;opacity:1;fill:#ffd700;fill-opacity:1;fill-rule:evenodd;stroke-width:1.28750002"
         sodipodi:nodetypes="cccccccc"
         id="path3166"
         d="M 282.58037,86.602505 C 276.72847,86.548037 273.26161,88.673 271.34943,95.271869 C 270.7307,97.49348 269.39857,99.641801 267.64875,101.55438 C 267.96462,101.84246 269.34402,103.02984 269.68496,103.29512 C 271.35426,101.35375 273.52469,99.673578 275.68206,98.756099 C 282.45828,96.249458 283.46888,91.402811 282.66849,86.679824 L 282.62442,86.641155 L 282.58037,86.602505 L 282.58037,86.602505 z " />
      <rect
         y="-100.12949"
         x="-274.2883"
         width="10.464513"
         transform="matrix(-0.7516727,-0.6595364,-0.6631184,0.7485145,0,0)"
         style="font-size:12px;opacity:1;fill:#ffd700;fill-opacity:1;fill-rule:evenodd;stroke-width:1.17855096"
         id="rect3168"
         height="1.2943885" />
      <g
         style="font-size:12px;opacity:1;fill:#ffd700;fill-opacity:1"
         id="g3170"
         transform="matrix(2.1012436,0,0,2.0971607,-38.630105,312.57316)">
        <path
           style="font-size:12px;fill:#ffd700;fill-opacity:1;fill-rule:evenodd;stroke-width:1.28750002"
           sodipodi:nodetypes="cssccssccccc"
           id="path3172"
           d="M 140.191,-105.8351 C 141.6502,-105.8941 142.5196,-106.508 142.9047,-107.7044 C 143.139,-108.4225 142.6961,-109.5459 141.9888,-109.8448 C 139.7801,-110.7829 138.0027,-107.0711 137.7639,-106.0887 C 137.8579,-106.0522 138.3236,-105.8811 138.4372,-105.8312 C 138.6979,-106.4086 138.8059,-107.1986 139.6817,-107.5576 C 140.5575,-107.9165 140.7466,-107.3077 140.7342,-106.8805 C 140.7219,-106.4534 140.1006,-105.8266 140.191,-105.8351 L 140.191,-105.8351 L 140.191,-105.8351 L 140.191,-105.8351 L 140.191,-105.8351 L 140.191,-105.8351 z " />
        <path
           style="font-size:12px;fill:#ffd700;fill-opacity:1;fill-rule:evenodd;stroke-width:1.28750002"
           sodipodi:nodetypes="cccccccc"
           id="path3174"
           d="M 139.5103,-115.9567 C 137.55,-114.8141 136.9236,-107.7177 136.6055,-106.5459 C 136.7509,-106.4848 137.3761,-106.2486 137.5267,-106.2023 C 137.814,-107.3706 138.3048,-108.5262 138.8972,-109.351 C 140.81,-111.7801 140.4737,-114.0676 139.5505,-115.9411 L 139.5304,-115.9489 L 139.5103,-115.9567 L 139.5103,-115.9567 L 139.5103,-115.9567 z " />
      </g>
      <g
         transform="matrix(-0.3870722,-2.061272,-2.065285,0.3863201,117.60383,444.41274)"
         style="font-size:12px;opacity:1;fill:#ffd700;fill-opacity:1"
         id="g3176">
        <path
           style="font-size:12px;fill:#ffd700;fill-opacity:1;fill-rule:evenodd;stroke-width:1.28750002"
           sodipodi:nodetypes="cssccssccccc"
           id="path3178"
           d="M 140.191,-105.8351 C 141.6502,-105.8941 142.5196,-106.508 142.9047,-107.7044 C 143.139,-108.4225 142.6961,-109.5459 141.9888,-109.8448 C 139.7801,-110.7829 138.0027,-107.0711 137.7639,-106.0887 C 137.8579,-106.0522 138.3236,-105.8811 138.4372,-105.8312 C 138.6979,-106.4086 138.8059,-107.1986 139.6817,-107.5576 C 140.5575,-107.9165 140.7466,-107.3077 140.7342,-106.8805 C 140.7219,-106.4534 140.1006,-105.8266 140.191,-105.8351 L 140.191,-105.8351 L 140.191,-105.8351 L 140.191,-105.8351 L 140.191,-105.8351 L 140.191,-105.8351 z " />
        <path
           style="font-size:12px;fill:#ffd700;fill-opacity:1;fill-rule:evenodd;stroke-width:1.28750002"
           sodipodi:nodetypes="cccccccc"
           id="path3180"
           d="M 139.5103,-115.9567 C 137.55,-114.8141 136.9236,-107.7177 136.6055,-106.5459 C 136.7509,-106.4848 137.3761,-106.2486 137.5267,-106.2023 C 137.814,-107.3706 138.3048,-108.5262 138.8972,-109.351 C 140.81,-111.7801 140.4737,-114.0676 139.5505,-115.9411 L 139.5304,-115.9489 L 139.5103,-115.9567 L 139.5103,-115.9567 L 139.5103,-115.9567 z " />
      </g>
      <path
         style="font-size:12px;opacity:1;fill:#ffd700;fill-opacity:1;fill-rule:evenodd;stroke:none;stroke-width:0.625;stroke-linecap:butt;stroke-linejoin:miter;stroke-dasharray:none;stroke-opacity:0.54779998"
         sodipodi:nodetypes="cccccccccc"
         id="path3182"
         d="M 264.10026,100.1203 L 271.55127,106.57494 C 273.24466,111.53982 278.15548,116.00818 283.23545,117.82864 C 283.23545,118.49065 284.59033,120.47657 284.92905,121.13852 L 282.26068,121.47117 L 247.99276,91.170872 L 248.18292,88.866931 C 248.86036,89.529005 251.23099,89.860146 252.4163,90.5218 C 254.10969,94.99043 259.18966,99.458641 264.10026,100.1203 L 264.10026,100.1203 L 264.10026,100.1203 z " />
    </g>
    <g
       transform="translate(-4.6867084,0.1955546)"
       id="g3225">
      <g
         id="g3227"
         style="font-size:12px;fill:#ffd700"
         transform="matrix(-2.101242,2.5320433e-3,-2.5270546e-3,-2.0971592,428.3785,-38.938701)">
        <rect
           height="4.4274592"
           id="rect3229"
           rx="1.8164161"
           ry="1.2638152"
           style="font-size:12px;fill:#ffd700;fill-opacity:1;fill-rule:evenodd;stroke-width:1.17855096"
           transform="matrix(-0.745649,-0.666339,-0.652449,0.757833,0,0)"
           width="22.304508"
           x="-56.245945"
           y="-169.23299" />
        <path
           d="M 40.0485,-90.48841 C 41.4482,-91.04241 42.13727,-91.88096 42.21125,-93.06479 C 42.2587,-93.77647 41.54835,-94.61121 40.78789,-94.63049 C 38.41222,-94.69475 37.61797,-90.82148 37.6323,-89.87608 C 37.7326,-89.87637 38.22678,-89.88623 38.34938,-89.88148 C 38.45766,-90.47854 38.36467,-91.20996 39.1238,-91.82675 C 39.88292,-92.44354 40.21854,-91.97355 40.31344,-91.59398 C 40.40834,-91.21442 39.96305,-90.44981 40.0485,-90.4884 L 40.0485,-90.4884 L 40.0485,-90.4884 L 40.0485,-90.48841 L 40.0485,-90.48841 L 40.0485,-90.48841 z "
           id="path3231"
           sodipodi:nodetypes="cssccssccccc"
           style="font-size:12px;fill:#ffd700;fill-opacity:1;fill-rule:evenodd;stroke-width:1.28750002"
           transform="matrix(-0.978689,-0.860398,-0.717942,0.811976,117.7935,4.500268)" />
        <path
           d="M 33.70336,-90.48841 C 32.30366,-91.04241 31.61459,-91.88097 31.54061,-93.0648 C 31.49316,-93.77648 32.20351,-94.61121 32.96397,-94.6305 C 35.33963,-94.69475 36.13389,-90.82148 36.11956,-89.87608 C 36.01927,-89.87638 35.52507,-89.88624 35.40248,-89.88149 C 35.29421,-90.47854 35.38719,-91.20996 34.62807,-91.82675 C 33.86894,-92.44354 33.53332,-91.97355 33.43842,-91.59399 C 33.34352,-91.21442 33.78881,-90.44982 33.70336,-90.48841 L 33.70336,-90.48841 L 33.70336,-90.48841 L 33.70336,-90.48841 L 33.70336,-90.48841 L 33.70336,-90.48841 z "
           id="path3233"
           sodipodi:nodetypes="cssccssccccc"
           style="font-size:12px;fill:#ffd700;fill-opacity:1;fill-rule:evenodd;stroke-width:1.28750002"
           transform="matrix(-0.978689,-0.860398,-0.717942,0.811976,117.7935,4.500268)" />
        <path
           d="M 36.89568,-99.14832 C 38.50995,-97.46977 38.94342,-95.76256 37.86713,-93.02783 C 37.49793,-92.1144 37.34168,-91.01836 37.35685,-89.87912 C 37.2006,-89.87551 36.5354,-89.88309 36.37782,-89.89428 C 36.39166,-91.01969 36.20508,-92.20408 35.83721,-93.13268 C 34.59082,-95.92543 35.48907,-97.81982 36.85283,-99.14832 L 36.87426,-99.14832 L 36.89568,-99.14832 L 36.89568,-99.14832 z "
           id="path3235"
           sodipodi:nodetypes="cccccccc"
           style="font-size:12px;fill:#ffd700;fill-opacity:1;fill-rule:evenodd;stroke-width:1.28750002"
           transform="matrix(-0.978689,-0.860398,-0.717942,0.811976,117.7935,4.500268)" />
        <rect
           height="0.5689708"
           id="rect3237"
           style="font-size:12px;fill:#ffd700;fill-opacity:1;fill-rule:evenodd;stroke-width:1.17855096"
           transform="matrix(-0.978689,-0.860398,-0.717942,0.811976,117.7935,4.500268)"
           width="3.8249578"
           x="34.943081"
           y="-89.852707" />
        <g
           id="g3239"
           style="fill:#ffd700;fill-opacity:1">
          <path
             d="M 140.191,-105.8351 C 141.6502,-105.8941 142.5196,-106.508 142.9047,-107.7044 C 143.139,-108.4225 142.6961,-109.5459 141.9888,-109.8448 C 139.7801,-110.7829 138.0027,-107.0711 137.7639,-106.0887 C 137.8579,-106.0522 138.3236,-105.8811 138.4372,-105.8312 C 138.6979,-106.4086 138.8059,-107.1986 139.6817,-107.5576 C 140.5575,-107.9165 140.7466,-107.3077 140.7342,-106.8805 C 140.7219,-106.4534 140.1006,-105.8266 140.191,-105.8351 L 140.191,-105.8351 L 140.191,-105.8351 L 140.191,-105.8351 L 140.191,-105.8351 L 140.191,-105.8351 z "
             id="path3241"
             sodipodi:nodetypes="cssccssccccc"
             style="font-size:12px;fill:#ffd700;fill-opacity:1;fill-rule:evenodd;stroke-width:1.28750002" />
          <path
             d="M 139.5103,-115.9567 C 137.55,-114.8141 136.9236,-107.7177 136.6055,-106.5459 C 136.7509,-106.4848 137.3761,-106.2486 137.5267,-106.2023 C 137.814,-107.3706 138.3048,-108.5262 138.8972,-109.351 C 140.81,-111.7801 140.4737,-114.0676 139.5505,-115.9411 L 139.5304,-115.9489 L 139.5103,-115.9567 L 139.5103,-115.9567 L 139.5103,-115.9567 z "
             id="path3243"
             sodipodi:nodetypes="cccccccc"
             style="font-size:12px;fill:#ffd700;fill-opacity:1;fill-rule:evenodd;stroke-width:1.28750002" />
        </g>
        <g
           id="g3245"
           style="fill:#ffd700;fill-opacity:1"
           transform="matrix(-0.184211,-0.982887,-0.982887,0.184211,74.35308,62.86575)">
          <path
             d="M 140.191,-105.8351 C 141.6502,-105.8941 142.5196,-106.508 142.9047,-107.7044 C 143.139,-108.4225 142.6961,-109.5459 141.9888,-109.8448 C 139.7801,-110.7829 138.0027,-107.0711 137.7639,-106.0887 C 137.8579,-106.0522 138.3236,-105.8811 138.4372,-105.8312 C 138.6979,-106.4086 138.8059,-107.1986 139.6817,-107.5576 C 140.5575,-107.9165 140.7466,-107.3077 140.7342,-106.8805 C 140.7219,-106.4534 140.1006,-105.8266 140.191,-105.8351 L 140.191,-105.8351 L 140.191,-105.8351 L 140.191,-105.8351 L 140.191,-105.8351 L 140.191,-105.8351 z "
             id="path3247"
             sodipodi:nodetypes="cssccssccccc"
             style="font-size:12px;fill:#ffd700;fill-opacity:1;fill-rule:evenodd;stroke-width:1.28750002" />
          <path
             d="M 139.5103,-115.9567 C 137.55,-114.8141 136.9236,-107.7177 136.6055,-106.5459 C 136.7509,-106.4848 137.3761,-106.2486 137.5267,-106.2023 C 137.814,-107.3706 138.3048,-108.5262 138.8972,-109.351 C 140.81,-111.7801 140.4737,-114.0676 139.5505,-115.9411 L 139.5304,-115.9489 L 139.5103,-115.9567 L 139.5103,-115.9567 L 139.5103,-115.9567 z "
             id="path3249"
             sodipodi:nodetypes="cccccccc"
             style="font-size:12px;fill:#ffd700;fill-opacity:1;fill-rule:evenodd;stroke-width:1.28750002" />
        </g>
        <path
           d="M 144.072,-101.305 L 147.618,-98.2272 C 148.4239,-95.85977 150.761,-93.7291 153.1786,-92.86104 C 153.1786,-92.54537 153.8234,-91.59841 153.9846,-91.28277 L 152.7147,-91.12415 L 136.4063,-105.5724 L 136.4968,-106.671 C 136.8192,-106.3553 137.9474,-106.1974 138.5115,-105.8819 C 139.3174,-103.7511 141.735,-101.6205 144.072,-101.305 L 144.072,-101.305 L 144.072,-101.305 z "
           id="path3251"
           sodipodi:nodetypes="cccccccccc"
           style="fill:#ffd700;fill-opacity:1;fill-rule:evenodd;stroke:none;stroke-width:0.625;stroke-linecap:butt;stroke-linejoin:miter;stroke-dasharray:none;stroke-opacity:0.54779998" />
      </g>
      <g
         id="g3253"
         style="font-size:12px;fill:#ffd700"
         transform="matrix(-2.101242,2.5320433e-3,-2.5270546e-3,-2.0971592,367.96779,-38.865909)">
        <rect
           height="4.4274592"
           id="rect3255"
           rx="1.8164161"
           ry="1.2638152"
           style="font-size:12px;fill:#ffd700;fill-opacity:1;fill-rule:evenodd;stroke-width:1.17855096"
           transform="matrix(-0.745649,-0.666339,-0.652449,0.757833,0,0)"
           width="22.304508"
           x="-56.245945"
           y="-169.23299" />
        <path
           d="M 40.0485,-90.48841 C 41.4482,-91.04241 42.13727,-91.88096 42.21125,-93.06479 C 42.2587,-93.77647 41.54835,-94.61121 40.78789,-94.63049 C 38.41222,-94.69475 37.61797,-90.82148 37.6323,-89.87608 C 37.7326,-89.87637 38.22678,-89.88623 38.34938,-89.88148 C 38.45766,-90.47854 38.36467,-91.20996 39.1238,-91.82675 C 39.88292,-92.44354 40.21854,-91.97355 40.31344,-91.59398 C 40.40834,-91.21442 39.96305,-90.44981 40.0485,-90.4884 L 40.0485,-90.4884 L 40.0485,-90.4884 L 40.0485,-90.48841 L 40.0485,-90.48841 L 40.0485,-90.48841 z "
           id="path3257"
           sodipodi:nodetypes="cssccssccccc"
           style="font-size:12px;fill:#ffd700;fill-opacity:1;fill-rule:evenodd;stroke-width:1.28750002"
           transform="matrix(-0.978689,-0.860398,-0.717942,0.811976,117.7935,4.500268)" />
        <path
           d="M 33.70336,-90.48841 C 32.30366,-91.04241 31.61459,-91.88097 31.54061,-93.0648 C 31.49316,-93.77648 32.20351,-94.61121 32.96397,-94.6305 C 35.33963,-94.69475 36.13389,-90.82148 36.11956,-89.87608 C 36.01927,-89.87638 35.52507,-89.88624 35.40248,-89.88149 C 35.29421,-90.47854 35.38719,-91.20996 34.62807,-91.82675 C 33.86894,-92.44354 33.53332,-91.97355 33.43842,-91.59399 C 33.34352,-91.21442 33.78881,-90.44982 33.70336,-90.48841 L 33.70336,-90.48841 L 33.70336,-90.48841 L 33.70336,-90.48841 L 33.70336,-90.48841 L 33.70336,-90.48841 z "
           id="path3259"
           sodipodi:nodetypes="cssccssccccc"
           style="font-size:12px;fill:#ffd700;fill-opacity:1;fill-rule:evenodd;stroke-width:1.28750002"
           transform="matrix(-0.978689,-0.860398,-0.717942,0.811976,117.7935,4.500268)" />
        <path
           d="M 36.89568,-99.14832 C 38.50995,-97.46977 38.94342,-95.76256 37.86713,-93.02783 C 37.49793,-92.1144 37.34168,-91.01836 37.35685,-89.87912 C 37.2006,-89.87551 36.5354,-89.88309 36.37782,-89.89428 C 36.39166,-91.01969 36.20508,-92.20408 35.83721,-93.13268 C 34.59082,-95.92543 35.48907,-97.81982 36.85283,-99.14832 L 36.87426,-99.14832 L 36.89568,-99.14832 L 36.89568,-99.14832 z "
           id="path3261"
           sodipodi:nodetypes="cccccccc"
           style="font-size:12px;fill:#ffd700;fill-opacity:1;fill-rule:evenodd;stroke-width:1.28750002"
           transform="matrix(-0.978689,-0.860398,-0.717942,0.811976,117.7935,4.500268)" />
        <rect
           height="0.5689708"
           id="rect3263"
           style="font-size:12px;fill:#ffd700;fill-opacity:1;fill-rule:evenodd;stroke-width:1.17855096"
           transform="matrix(-0.978689,-0.860398,-0.717942,0.811976,117.7935,4.500268)"
           width="3.8249578"
           x="34.943081"
           y="-89.852707" />
        <g
           id="g3265"
           style="fill:#ffd700;fill-opacity:1">
          <path
             d="M 140.191,-105.8351 C 141.6502,-105.8941 142.5196,-106.508 142.9047,-107.7044 C 143.139,-108.4225 142.6961,-109.5459 141.9888,-109.8448 C 139.7801,-110.7829 138.0027,-107.0711 137.7639,-106.0887 C 137.8579,-106.0522 138.3236,-105.8811 138.4372,-105.8312 C 138.6979,-106.4086 138.8059,-107.1986 139.6817,-107.5576 C 140.5575,-107.9165 140.7466,-107.3077 140.7342,-106.8805 C 140.7219,-106.4534 140.1006,-105.8266 140.191,-105.8351 L 140.191,-105.8351 L 140.191,-105.8351 L 140.191,-105.8351 L 140.191,-105.8351 L 140.191,-105.8351 z "
             id="path3267"
             sodipodi:nodetypes="cssccssccccc"
             style="font-size:12px;fill:#ffd700;fill-opacity:1;fill-rule:evenodd;stroke-width:1.28750002" />
          <path
             d="M 139.5103,-115.9567 C 137.55,-114.8141 136.9236,-107.7177 136.6055,-106.5459 C 136.7509,-106.4848 137.3761,-106.2486 137.5267,-106.2023 C 137.814,-107.3706 138.3048,-108.5262 138.8972,-109.351 C 140.81,-111.7801 140.4737,-114.0676 139.5505,-115.9411 L 139.5304,-115.9489 L 139.5103,-115.9567 L 139.5103,-115.9567 L 139.5103,-115.9567 z "
             id="path3269"
             sodipodi:nodetypes="cccccccc"
             style="font-size:12px;fill:#ffd700;fill-opacity:1;fill-rule:evenodd;stroke-width:1.28750002" />
        </g>
        <g
           id="g3271"
           style="fill:#ffd700;fill-opacity:1"
           transform="matrix(-0.184211,-0.982887,-0.982887,0.184211,74.35308,62.86575)">
          <path
             d="M 140.191,-105.8351 C 141.6502,-105.8941 142.5196,-106.508 142.9047,-107.7044 C 143.139,-108.4225 142.6961,-109.5459 141.9888,-109.8448 C 139.7801,-110.7829 138.0027,-107.0711 137.7639,-106.0887 C 137.8579,-106.0522 138.3236,-105.8811 138.4372,-105.8312 C 138.6979,-106.4086 138.8059,-107.1986 139.6817,-107.5576 C 140.5575,-107.9165 140.7466,-107.3077 140.7342,-106.8805 C 140.7219,-106.4534 140.1006,-105.8266 140.191,-105.8351 L 140.191,-105.8351 L 140.191,-105.8351 L 140.191,-105.8351 L 140.191,-105.8351 L 140.191,-105.8351 z "
             id="path3273"
             sodipodi:nodetypes="cssccssccccc"
             style="font-size:12px;fill:#ffd700;fill-opacity:1;fill-rule:evenodd;stroke-width:1.28750002" />
          <path
             d="M 139.5103,-115.9567 C 137.55,-114.8141 136.9236,-107.7177 136.6055,-106.5459 C 136.7509,-106.4848 137.3761,-106.2486 137.5267,-106.2023 C 137.814,-107.3706 138.3048,-108.5262 138.8972,-109.351 C 140.81,-111.7801 140.4737,-114.0676 139.5505,-115.9411 L 139.5304,-115.9489 L 139.5103,-115.9567 L 139.5103,-115.9567 L 139.5103,-115.9567 z "
             id="path3275"
             sodipodi:nodetypes="cccccccc"
             style="font-size:12px;fill:#ffd700;fill-opacity:1;fill-rule:evenodd;stroke-width:1.28750002" />
        </g>
        <path
           d="M 144.072,-101.305 L 147.618,-98.2272 C 148.4239,-95.85977 150.761,-93.7291 153.1786,-92.86104 C 153.1786,-92.54537 153.8234,-91.59841 153.9846,-91.28277 L 152.7147,-91.12415 L 136.4063,-105.5724 L 136.4968,-106.671 C 136.8192,-106.3553 137.9474,-106.1974 138.5115,-105.8819 C 139.3174,-103.7511 141.735,-101.6205 144.072,-101.305 L 144.072,-101.305 L 144.072,-101.305 z "
           id="path3277"
           sodipodi:nodetypes="cccccccccc"
           style="fill:#ffd700;fill-opacity:1;fill-rule:evenodd;stroke:none;stroke-width:0.625;stroke-linecap:butt;stroke-linejoin:miter;stroke-dasharray:none;stroke-opacity:0.54779998" />
      </g>
      <g
         id="g3279"
         style="font-size:12px;fill:#ffd700"
         transform="matrix(-2.101242,2.5320433e-3,-2.5270546e-3,-2.0971592,361.33348,-95.219195)">
        <rect
           height="4.4274592"
           id="rect3281"
           rx="1.8164161"
           ry="1.2638152"
           style="font-size:12px;fill:#ffd700;fill-opacity:1;fill-rule:evenodd;stroke-width:1.17855096"
           transform="matrix(-0.745649,-0.666339,-0.652449,0.757833,0,0)"
           width="22.304508"
           x="-56.245945"
           y="-169.23299" />
        <path
           d="M 40.0485,-90.48841 C 41.4482,-91.04241 42.13727,-91.88096 42.21125,-93.06479 C 42.2587,-93.77647 41.54835,-94.61121 40.78789,-94.63049 C 38.41222,-94.69475 37.61797,-90.82148 37.6323,-89.87608 C 37.7326,-89.87637 38.22678,-89.88623 38.34938,-89.88148 C 38.45766,-90.47854 38.36467,-91.20996 39.1238,-91.82675 C 39.88292,-92.44354 40.21854,-91.97355 40.31344,-91.59398 C 40.40834,-91.21442 39.96305,-90.44981 40.0485,-90.4884 L 40.0485,-90.4884 L 40.0485,-90.4884 L 40.0485,-90.48841 L 40.0485,-90.48841 L 40.0485,-90.48841 z "
           id="path3283"
           sodipodi:nodetypes="cssccssccccc"
           style="font-size:12px;fill:#ffd700;fill-opacity:1;fill-rule:evenodd;stroke-width:1.28750002"
           transform="matrix(-0.978689,-0.860398,-0.717942,0.811976,117.7935,4.500268)" />
        <path
           d="M 33.70336,-90.48841 C 32.30366,-91.04241 31.61459,-91.88097 31.54061,-93.0648 C 31.49316,-93.77648 32.20351,-94.61121 32.96397,-94.6305 C 35.33963,-94.69475 36.13389,-90.82148 36.11956,-89.87608 C 36.01927,-89.87638 35.52507,-89.88624 35.40248,-89.88149 C 35.29421,-90.47854 35.38719,-91.20996 34.62807,-91.82675 C 33.86894,-92.44354 33.53332,-91.97355 33.43842,-91.59399 C 33.34352,-91.21442 33.78881,-90.44982 33.70336,-90.48841 L 33.70336,-90.48841 L 33.70336,-90.48841 L 33.70336,-90.48841 L 33.70336,-90.48841 L 33.70336,-90.48841 z "
           id="path3285"
           sodipodi:nodetypes="cssccssccccc"
           style="font-size:12px;fill:#ffd700;fill-opacity:1;fill-rule:evenodd;stroke-width:1.28750002"
           transform="matrix(-0.978689,-0.860398,-0.717942,0.811976,117.7935,4.500268)" />
        <path
           d="M 36.89568,-99.14832 C 38.50995,-97.46977 38.94342,-95.76256 37.86713,-93.02783 C 37.49793,-92.1144 37.34168,-91.01836 37.35685,-89.87912 C 37.2006,-89.87551 36.5354,-89.88309 36.37782,-89.89428 C 36.39166,-91.01969 36.20508,-92.20408 35.83721,-93.13268 C 34.59082,-95.92543 35.48907,-97.81982 36.85283,-99.14832 L 36.87426,-99.14832 L 36.89568,-99.14832 L 36.89568,-99.14832 z "
           id="path3287"
           sodipodi:nodetypes="cccccccc"
           style="font-size:12px;fill:#ffd700;fill-opacity:1;fill-rule:evenodd;stroke-width:1.28750002"
           transform="matrix(-0.978689,-0.860398,-0.717942,0.811976,117.7935,4.500268)" />
        <rect
           height="0.5689708"
           id="rect3289"
           style="font-size:12px;fill:#ffd700;fill-opacity:1;fill-rule:evenodd;stroke-width:1.17855096"
           transform="matrix(-0.978689,-0.860398,-0.717942,0.811976,117.7935,4.500268)"
           width="3.8249578"
           x="34.943081"
           y="-89.852707" />
        <g
           id="g3291"
           style="fill:#ffd700;fill-opacity:1">
          <path
             d="M 140.191,-105.8351 C 141.6502,-105.8941 142.5196,-106.508 142.9047,-107.7044 C 143.139,-108.4225 142.6961,-109.5459 141.9888,-109.8448 C 139.7801,-110.7829 138.0027,-107.0711 137.7639,-106.0887 C 137.8579,-106.0522 138.3236,-105.8811 138.4372,-105.8312 C 138.6979,-106.4086 138.8059,-107.1986 139.6817,-107.5576 C 140.5575,-107.9165 140.7466,-107.3077 140.7342,-106.8805 C 140.7219,-106.4534 140.1006,-105.8266 140.191,-105.8351 L 140.191,-105.8351 L 140.191,-105.8351 L 140.191,-105.8351 L 140.191,-105.8351 L 140.191,-105.8351 z "
             id="path3293"
             sodipodi:nodetypes="cssccssccccc"
             style="font-size:12px;fill:#ffd700;fill-opacity:1;fill-rule:evenodd;stroke-width:1.28750002" />
          <path
             d="M 139.5103,-115.9567 C 137.55,-114.8141 136.9236,-107.7177 136.6055,-106.5459 C 136.7509,-106.4848 137.3761,-106.2486 137.5267,-106.2023 C 137.814,-107.3706 138.3048,-108.5262 138.8972,-109.351 C 140.81,-111.7801 140.4737,-114.0676 139.5505,-115.9411 L 139.5304,-115.9489 L 139.5103,-115.9567 L 139.5103,-115.9567 L 139.5103,-115.9567 z "
             id="path3295"
             sodipodi:nodetypes="cccccccc"
             style="font-size:12px;fill:#ffd700;fill-opacity:1;fill-rule:evenodd;stroke-width:1.28750002" />
        </g>
        <g
           id="g3297"
           style="fill:#ffd700;fill-opacity:1"
           transform="matrix(-0.184211,-0.982887,-0.982887,0.184211,74.35308,62.86575)">
          <path
             d="M 140.191,-105.8351 C 141.6502,-105.8941 142.5196,-106.508 142.9047,-107.7044 C 143.139,-108.4225 142.6961,-109.5459 141.9888,-109.8448 C 139.7801,-110.7829 138.0027,-107.0711 137.7639,-106.0887 C 137.8579,-106.0522 138.3236,-105.8811 138.4372,-105.8312 C 138.6979,-106.4086 138.8059,-107.1986 139.6817,-107.5576 C 140.5575,-107.9165 140.7466,-107.3077 140.7342,-106.8805 C 140.7219,-106.4534 140.1006,-105.8266 140.191,-105.8351 L 140.191,-105.8351 L 140.191,-105.8351 L 140.191,-105.8351 L 140.191,-105.8351 L 140.191,-105.8351 z "
             id="path3299"
             sodipodi:nodetypes="cssccssccccc"
             style="font-size:12px;fill:#ffd700;fill-opacity:1;fill-rule:evenodd;stroke-width:1.28750002" />
          <path
             d="M 139.5103,-115.9567 C 137.55,-114.8141 136.9236,-107.7177 136.6055,-106.5459 C 136.7509,-106.4848 137.3761,-106.2486 137.5267,-106.2023 C 137.814,-107.3706 138.3048,-108.5262 138.8972,-109.351 C 140.81,-111.7801 140.4737,-114.0676 139.5505,-115.9411 L 139.5304,-115.9489 L 139.5103,-115.9567 L 139.5103,-115.9567 L 139.5103,-115.9567 z "
             id="path3301"
             sodipodi:nodetypes="cccccccc"
             style="font-size:12px;fill:#ffd700;fill-opacity:1;fill-rule:evenodd;stroke-width:1.28750002" />
        </g>
        <path
           d="M 144.072,-101.305 L 147.618,-98.2272 C 148.4239,-95.85977 150.761,-93.7291 153.1786,-92.86104 C 153.1786,-92.54537 153.8234,-91.59841 153.9846,-91.28277 L 152.7147,-91.12415 L 136.4063,-105.5724 L 136.4968,-106.671 C 136.8192,-106.3553 137.9474,-106.1974 138.5115,-105.8819 C 139.3174,-103.7511 141.735,-101.6205 144.072,-101.305 L 144.072,-101.305 L 144.072,-101.305 z "
           id="path3303"
           sodipodi:nodetypes="cccccccccc"
           style="fill:#ffd700;fill-opacity:1;fill-rule:evenodd;stroke:none;stroke-width:0.625;stroke-linecap:butt;stroke-linejoin:miter;stroke-dasharray:none;stroke-opacity:0.54779998" />
      </g>
    </g>
  </g>
</svg>
