<?xml version="1.0" encoding="UTF-8"?>
<svg xmlns="http://www.w3.org/2000/svg" xmlns:xlink="http://www.w3.org/1999/xlink" width="1200" height="800">
	<rect width="1200" height="800" fill="#fcef3c"/>
	<rect x="25" y="25" width="1150" height="350" fill="#2b5df2"/>
	<g id="row">
		<g id="fleur" fill="#fcef3c">
			<path d="M 50.105,11.999 C 56.849,19.337 60.814,23.383 61.507,34.769 C 62.148,45.305 55.183,54.114 53.681,64.305 C 53.397,66.238 53.152,70.184 53.41,71.784 C 53.6,72.969 54.186,76.59 54.826,72.11 C 54.958,71.189 55.052,66.566 55.455,64.219 C 56.191,59.942 58.545,52.422 62.63,48.255 C 66.713,44.091 73.184,41.389 78.954,43.568 C 84.182,45.996 84.676,52.854 83.189,57.868 C 81.326,64.148 74.206,68.495 67.824,68.921 C 69.088,66.403 72.115,59.217 68.832,59.503 C 65.032,59.833 60.486,66.342 59.302,70.807 C 58.856,72.488 59.037,75.099 56.65,74.991 C 58.224,80.343 62.666,83.885 66.557,87.621 C 62.501,87.96 58.487,86.038 54.948,84.208 C 55.097,87.877 54.39,95.629 50.105,99.862 C 46.128,95.503 45.766,90.187 45.691,84.208 C 42.152,86.038 38.138,87.96 34.081,87.621 C 37.973,83.885 42.415,80.343 43.989,74.991 C 41.602,75.099 41.459,72.651 41.013,70.97 C 39.829,66.505 35.607,59.833 31.807,59.503 C 28.523,59.217 31.551,66.403 32.815,68.921 C 26.433,68.495 19.313,64.148 17.45,57.868 C 15.962,52.854 16.457,45.996 21.685,43.568 C 27.455,41.389 33.925,44.091 38.009,48.255 C 42.094,52.422 44.448,59.942 45.183,64.219 C 45.587,66.566 45.519,70.863 45.651,71.784 C 46.291,76.264 47.039,72.969 47.229,71.784 C 47.487,70.184 47.242,66.238 46.957,64.305 C 45.456,54.114 39.15,44.947 39.132,34.769 C 39.116,25.578 43.706,18.586 50.105,11.999 z"/>
			<rect x="34.75" y="70.96" width="30.5" height="5.07" rx="1.6"/>
		</g>
		<use xlink:href="#fleur" x="100"/>
		<use xlink:href="#fleur" x="200"/>
		<use xlink:href="#fleur" x="300"/>
		<use xlink:href="#fleur" x="400"/>
		<use xlink:href="#fleur" x="500"/>
	</g>
	<use xlink:href="#row" x="50" y="70"/>
	<use xlink:href="#row" y="140"/>
	<use xlink:href="#row" x="50" y="210"/>
	<use xlink:href="#row" y="280"/>
	<clipPath id="clip">
		<rect x="625" y="25" width="550" height="350"/>
	</clipPath>
	<g clip-path="url(#clip)">
		<path d="M 625,25 L 1175,375" stroke="#fcef3c" stroke-width="420"/>
		<path d="M 625,25 L 1175,375" stroke="#2b5df2" stroke-width="300"/>
		<path d="M 625,25 L 1175,375" stroke="#fcef3c" stroke-width="180"/>
		<path d="M 625,25 L 1175,375" stroke="#2b5df2" stroke-width="60"/>
	</g>
	<rect x="25" y="25" width="1150" height="350" fill="none" stroke="#e20909" stroke-width="50"/>
	<path d="M 600,25 V 375" stroke="#e20909" stroke-width="100"/>
	<path d="M 0,0 v 100 h 50 v -50 z M 0,200 v 100 h 50 v -100 z M 0,400 h 100 v -50 h -50 z M 200,400 h 100 v -50 h -100 z M 400,400 h 100 v -50 h -100 z M 600,400 v -100 h -50 v 50 z M 600,200 v -100 h -50 v 100 z M 600,0 h -100 v 50 h 50 z M 400,0 h -100 v 50 h 100 z M 200,0 h -100 v 50 h 100 z" fill="#fff"/>
</svg>