<?xml version="1.0" encoding="utf-8"?>
<!-- Generator: Adobe Illustrator 16.0.0, SVG Export Plug-In . SVG Version: 6.00 Build 0)  -->
<!DOCTYPE svg PUBLIC "-//W3C//DTD SVG 1.1//EN" "http://www.w3.org/Graphics/SVG/1.1/DTD/svg11.dtd">
<svg version="1.1"
	 id="svg2" xmlns:dc="http://purl.org/dc/elements/1.1/" xmlns:cc="http://creativecommons.org/ns#" xmlns:svg="http://www.w3.org/2000/svg" xmlns:inkscape="http://www.inkscape.org/namespaces/inkscape" xmlns:rdf="http://www.w3.org/1999/02/22-rdf-syntax-ns#"
	 xmlns="http://www.w3.org/2000/svg" xmlns:xlink="http://www.w3.org/1999/xlink" x="0px" y="0px" width="1125px" height="750px"
	 viewBox="0 0 1125 750" enable-background="new 0 0 1125 750" xml:space="preserve">
<rect x="0" y="0" fill="#FFD203" width="750" height="750"/>
<rect x="750" y="0" fill="#002395" width="375" height="750"/>
<g>
	
		<rect x="70.368" y="64.926" fill="none" stroke="#002395" stroke-width="2" stroke-miterlimit="10" width="74.254" height="222.53"/>
	<g>
		<g id="g26" transform="translate(688.3262,503.1616)">
			<path id="path28" inkscape:connector-curvature="0" fill="#002395" d="M-550.831-367.297c-0.419,0.419-18.038,2.099-18.038,6.712
				c0,4.615,2.525,10.769,8.817,9.93C-567.182-359.044-556.704-362.683-550.831-367.297"/>
		</g>
		<g id="g30" transform="translate(688.3262,503.1616)">
			<path id="path32" inkscape:connector-curvature="0" fill="none" stroke="#002395" stroke-width="2" stroke-miterlimit="10" d="
				M-568.868-360.585c0,4.615,2.525,10.769,8.817,9.93c-7.131-8.389,3.347-12.028,9.22-16.642
				C-551.25-366.878-568.868-365.198-568.868-360.585z"/>
		</g>
		<g id="g34" transform="translate(697.7461,376.1992)">
			<path id="path36" inkscape:connector-curvature="0" fill="#002395" d="M-567.501-142.615
				c-6.254,4.81-13.472,12.027-15.396,25.496c-5.293-15.394-16.357-20.686-25.978-27.902c-9.622-7.217-45.226-23.093-42.338-68.317
				c7.699-65.91,57.735-79.861,96.221-71.202c21.651,7.699,18.762,16.018,18.281,19.244c-0.481,4.813,2.966,13.613,14.434,11.548
				c1.272,7.329-5.174,9.651-9.14,11.545c-0.226,2.746,4.418,4.454,5.291,6.254c-1.203,2.762-9.621,1.984-14.915-0.482
				c-3.334-2.123-6.896-2.912-11.545-3.366C-612.724-247.495-637.557-166.19-567.501-142.615"/>
		</g>
		<g id="g38" transform="translate(697.7461,376.1992)">
			<path id="path40" inkscape:connector-curvature="0" fill="#002395" d="M-582.897-117.119
				c-5.293-15.394-16.357-20.686-25.978-27.902c-9.622-7.217-45.226-23.093-42.338-68.317c7.699-65.91,57.735-79.861,96.221-71.202
				c21.651,7.699,18.762,16.018,18.281,19.244c-0.481,4.813,2.966,13.613,14.434,11.548c1.272,7.329-5.174,9.651-9.14,11.545
				c-0.226,2.746,4.418,4.454,5.291,6.254c-1.203,2.762-9.621,1.984-14.915-0.482c-3.334-2.123-6.896-2.912-11.545-3.366
				c-60.136-7.698-84.97,73.607-14.913,97.182C-573.755-137.805-580.973-130.589-582.897-117.119z"/>
		</g>
		<g id="g42" transform="translate(657.2607,529.3218)">
			<path id="path44" inkscape:connector-curvature="0" fill="#002395" d="M-521.885-417.365c0,0,7.154-6.713,12.188,0.419
				c5.034,8.799,10.488,6.291,13.843,3.354"/>
		</g>
		<g id="g46" transform="translate(681.79,524.5449)">
			<path id="path48" inkscape:connector-curvature="0" fill="#002395" d="M-577.585-395.074c16.443,1.628,31.61,1.688,38.321-10.064
				"/>
		</g>
		<g id="g54" transform="translate(730.8359,378.9014)">
			<path id="path56" inkscape:connector-curvature="0" fill="#002395" d="M-626.058-147.399
				c17.617,28.944,5.212,38.211-14.083,34.019c8.809,7.548,15.08,8.13,23.73,4.573c8.66-3.735,14.489-12.021,22.652-16.779
				c11.617-5.891,17.738-4.194,15.938-11.179c-6.574,4.743-20.083,2.581-23.626-2.454c6.152,2.472,8.106,1.562,13.14,1.143
				c4.195,0,16.851-0.821,26.007-12.257c7.827-10.331,13.891-7.565,17.312-7.608c-4.72-3.613-7.12-6.79-17.086-6.935
				c-0.948-4.931,3.104-18,11.474-10.771c-0.722-6.661-13.377-7.406-18.83,2.664C-584.951-145.72-605.505-142.366-626.058-147.399"
				/>
		</g>
		<g id="g58" transform="translate(730.8359,378.9014)">
			<path id="path60" inkscape:connector-curvature="0" fill="#002395" d="M-640.141-113.38c8.809,7.548,15.08,8.13,23.73,4.573
				c8.66-3.735,14.489-12.021,22.652-16.779c11.617-5.891,17.738-4.194,15.938-11.179c-6.574,4.743-20.083,2.581-23.626-2.454
				c6.152,2.472,8.106,1.562,13.14,1.143c4.195,0,16.851-0.821,26.007-12.257c7.827-10.331,13.891-7.565,17.312-7.608
				c-4.72-3.613-7.12-6.79-17.086-6.935c-0.948-4.931,3.104-18,11.474-10.771c-0.722-6.661-13.377-7.406-18.83,2.664
				c-15.521,27.266-36.074,30.62-56.628,25.587C-608.442-118.454-620.846-109.187-640.141-113.38z"/>
		</g>
		<g id="g74" transform="translate(753.1816,436.1265)">
			<path id="path76" inkscape:connector-curvature="0" fill="none" stroke="#002395" stroke-width="2" stroke-miterlimit="10" d="
				M-648.824-217.209c-2.098-8.388,1.275-9.228,7.985-12.584c-12.584,0-18.893-3.355-24.765-18.874
				C-665.603-237.761-657.214-224.338-648.824-217.209z"/>
		</g>
		<g id="g78" transform="translate(743.3721,541.8555)">
			<path id="path80" inkscape:connector-curvature="0" fill="#002395" d="M-675.507-431.159c3.773-2.936,9.228-2.518,9.646,2.516
				c4.196-4.614,9.648-4.193,14.263,3.357c-0.42-5.454,0.419-8.39,3.354-10.487"/>
		</g>
		<g id="g82" transform="translate(719.3896,501.5264)">
			<path id="path84" inkscape:connector-curvature="0" fill="#002395" d="M-630.972-346.784
				c2.518-5.454,11.747-15.941,25.169-17.619"/>
		</g>
		<g id="g90" transform="translate(749.3672,556.5718)">
			
				<path id="path92" inkscape:connector-curvature="0" fill="#FFD203" stroke="#002395" stroke-width="2" stroke-miterlimit="10" d="
				M-659.272-461.395c-5.452,0.838-25.877,17.771-29.651,26.16c0.42-9.228-6.843-13.576-13.554-12.316
				c5.17-8.1-3.363-15.239-12.171-16.079c4.192-3.356,8.817-1.54,14.268,0.558c5.454,2.097,10.907,5.033,15.101,5.871
				c1.678,0.839,7.825,0.558,10.343,0.137c-2.099-3.773-8.666-6.429-10.343-12.721c7.817,6.559,18.038,7.133,26.426,7.97
				L-659.272-461.395z"/>
		</g>
		<g id="g98" transform="translate(800.5947,495.5317)">
			<path id="path100" inkscape:connector-curvature="0" fill="none" stroke="#002395" stroke-width="2" stroke-miterlimit="10" d="
				M-753.704-316.883c-2.936-2.936-5.033-1.258-9.646,2.936c6.283-11.873,3.772-17.615-5.036-19.295
				c3.354-1.257,13.004-12.165,18.877-20.553C-749.09-354.214-756.221-323.592-753.704-316.883z"/>
		</g>
		<g id="g102" transform="translate(651.6201,506.6885)">
			<path id="path104" inkscape:connector-curvature="0" fill="#002395" d="M-485.651-373.168c0,0.421,0.248,1.209-0.145,1.824
				c-22.95-0.882-18.238-12.239-0.077-2.195L-485.651-373.168z"/>
		</g>
		<g id="g106" transform="translate(651.6201,506.6885)">
			<path id="path108" inkscape:connector-curvature="0" fill="#FFD203" d="M-485.651-373.168c0,0.421,0.248,1.209-0.145,1.824
				c-22.95-0.882-18.238-12.239-0.077-2.195L-485.651-373.168z"/>
		</g>
		<g id="g110" transform="translate(688.8711,515.1519)">
			<path id="path112" inkscape:connector-curvature="0" fill="#002395" d="M-551.794-388.516c0-0.418-7.771,10.937-11.746,13.423
				c-3.356,2.517-12.166,10.083-9.51,18.327c-5.317-3.073-5.984-8.711-4.334-12.454c1.431-3.243,2.518-5.035,2.518-8.81
				s-7.131-6.71-1.258-6.291C-570.251-383.902-559.346-383.062-551.794-388.516"/>
		</g>
		<g id="g114" transform="translate(688.8711,515.1519)">
			<path id="path116" inkscape:connector-curvature="0" fill="none" stroke="#002395" stroke-width="2" stroke-miterlimit="10" d="
				M-563.54-375.093c-3.356,2.517-12.166,10.083-9.51,18.327c-5.317-3.073-5.984-8.711-4.334-12.454
				c1.431-3.243,2.518-5.035,2.518-8.81s-7.131-6.71-1.258-6.291c5.873,0.418,16.777,1.258,24.329-4.196
				C-551.794-388.934-559.565-377.579-563.54-375.093z"/>
		</g>
		<g id="g118" transform="translate(683.5801,527.9585)">
			<path id="path120" inkscape:connector-curvature="0" fill="#FFD203" d="M-542.431-411.179c0,1.595,1.37,2.889,3.06,2.889
				c1.688,0,3.057-1.293,3.057-2.889c0-1.596-1.368-2.887-3.057-2.887C-541.061-414.067-542.431-412.775-542.431-411.179"/>
		</g>
		<g id="g122" transform="translate(647.9287,404.2876)">
			<path id="path124" inkscape:connector-curvature="0" fill="#002395" d="M-476.947-189.662c-1.346,0.415-4.026,2.87-6.483,3.429
				c1.855-2.654,3.275-3.569,4.089-6.089"/>
		</g>
		<g id="g126" transform="translate(696.5137,345.1094)">
			<path id="path128" inkscape:connector-curvature="0" fill="#002395" d="M-568.484-84.756c1.103-3.038-1.314-3.694-1.489-5.02
				c0.908,0.588,0.813,1.372,4.654,2.178"/>
		</g>
		<g id="g130" transform="translate(668.1621,512.0088)">
			<path id="path132" inkscape:connector-curvature="0" fill="#002395" d="M-531.483-376.044c2.82-0.647,6.759-2.11,8.765-4.023
				c1.565-1.571,4.569-3.873,7.572-2.887"/>
		</g>
		<g id="g134" transform="translate(712.8945,562.9766)">
			<path id="path136" inkscape:connector-curvature="0" fill="none" stroke="#002395" stroke-width="2" stroke-miterlimit="10" d="
				M-620.267-467.6c-0.962-1.927-3.232-8.34,0.544-11.276c1.677,1.678,9.648,5.453,14.68,5.453c0-2.517-2.097-5.453-0.837-8.389
				c1.257,2.516,4.86,5.305,11.573,8.662"/>
		</g>
		<g id="g138" transform="translate(768.6689,543.5322)">
			<path id="path140_2_" inkscape:connector-curvature="0" fill="#002395" d="M-693.011-438.74"/>
			<path id="path140_1_" inkscape:connector-curvature="0" fill="#002395" d="M-696.029-435.292"/>
		</g>
	</g>
	<path fill="#002395" d="M69.457,71.056c25.725-4.398,51.449-4.455,77.172,0c0.317-4.062,1.714-9.541,3.668-14.022
		c3.408-7.819,7.791-16.036,12.261-23.049c-3.408-0.145-7.89,2.645-11.183,8.257c-1.317-2.509-6.776-4.396-10.282-1.054
		c2.959,3.223,7.344,7.18,4.399,11.693c-2.11,3.231-6.062,2.674-8.717,1.048c-2.382-1.458-4.585-4.828-5.365-9.819
		c-3.249,5.524-6.96,8.069-10.306,8.153c-5.589,0.141-8.353-1.726-8.354-4.799c-0.002-5.389,6.107-7.414,10.282-8.724
		c-1.366-4.647-7.037-5.743-9.432-4.229c-0.045-6.507-2.533-11.164-5.557-12.743c-3.023,1.581-5.511,6.237-5.556,12.743
		c-2.396-1.514-8.067-0.419-9.433,4.229c4.175,1.31,10.284,3.334,10.282,8.724c-0.001,3.072-2.767,4.939-8.353,4.799
		c-3.347-0.084-7.058-2.629-10.307-8.153c-0.779,4.991-2.983,8.36-5.366,9.819c-2.655,1.626-6.607,2.183-8.716-1.048
		c-2.948-4.514,1.439-8.472,4.398-11.693c-3.505-3.341-8.965-1.455-10.281,1.054c-3.293-5.613-7.774-8.402-11.183-8.257
		c4.47,7.013,8.853,15.23,12.261,23.049C67.745,61.516,69.14,66.995,69.457,71.056L69.457,71.056z"/>
</g>
</svg>
