<?xml version="1.0" encoding="UTF-8"?>
<svg xmlns="http://www.w3.org/2000/svg" xmlns:xlink="http://www.w3.org/1999/xlink" width="900" height="600" viewBox="0 0 240 160">
<rect width="360" height="216" fill="#2b5df2"/>
<g transform="translate(-8,80)">
<path d="M0,0h500" stroke="#fcef3c" stroke-width="78"/>
<path d="M0,0h500" stroke="#2b5df2" stroke-width="36"/>
<path d="M0,0h500" stroke="#fff" stroke-width="30"/>
<path id="line" stroke="#2b5df2" stroke-width="3" fill="none"
	d="M-19.5,22.5 h33v6h-13.5v6h33v-6h-13.5v-6h33v6h-13.5v6h33v-6h-13.5v-6h33v6h-13.5v6h33v-6h-13.5v-6h33v6h-13.5v6h33v-6h-13.5v-6h33v6h-13.5v6h33v-6h-13.5v-6h33v6h-13.5v6h33v-6h-13.5v-6h33v6h-13.5v6h33v-6h-13.5v-6h33v6h-13.5v6h33v-6h-13.5v-6h33v6h-13.5v6h33v-6h-13.5v-6h33v6h-13.5v6h33v-6h-13.5v-6h33v6h-13.5v6h33v-6h-13.5v-6h33v6h-13.5v6h33"/>
<use xlink:href="#line" transform="scale(1,-1)"/>
</g>
</svg>