<?xml version="1.0" encoding="UTF-8" standalone="no"?>
<!-- Created with Inkscape (http://www.inkscape.org/) -->
<svg id="svg2" xmlns:rdf="http://www.w3.org/1999/02/22-rdf-syntax-ns#" xmlns="http://www.w3.org/2000/svg" height="796.92" width="1203.3" version="1.0" xmlns:cc="http://web.resource.org/cc/" xmlns:dc="http://purl.org/dc/elements/1.1/">
 <metadata id="metadata7">
  <rdf:RDF>
   <cc:Work rdf:about="">
    <dc:format>image/svg+xml</dc:format>
    <dc:type rdf:resource="http://purl.org/dc/dcmitype/StillImage"/>
   </cc:Work>
  </rdf:RDF>
 </metadata>
 <g id="layer1" transform="translate(1127.4 -136.15)">
  <g id="g21734">
   <path id="rect2239" d="m-1127.3 136.21h1203.2v796.8h-1203.2v-796.8z" fill="#fcef3c"/>
   <g id="g16651" transform="matrix(1.8077 0 0 1.6675 486.7 -337.69)">
    <path id="path9567" d="m-686.69 412.92c-6.44 10.34-22.32 8.17-27.39 1.11 0 0 10.18-0.38 13.77-4.68 4.88-5.83 5.8-6.35 6.52-5.08l7.1 8.65z" fill-rule="evenodd" stroke="#000" fill="#e20909"/>
    <path id="path9569" d="m-701.78 387.85c-6.92-5.4-15.26-4.78-18.63 4-4.11-17.58 13.42-23.7 28.39-17.09l-9.76 13.09z" fill-rule="evenodd" stroke="#000" fill="#e20909"/>
    <path id="path9571" d="m-689.8 363.45c-3.63-9.93-6.13-20.32-21.74-18.63 0 0 5.55-4.92 16.86-3.55 11.25 1.36 19.45 15.3 18.86 15.53l-13.98 6.65z" fill-rule="evenodd" stroke="#000" fill="#e20909"/>
    <path id="path9573" d="m-664.07 357.46c5.71-4.52 6.16-14.26 5.77-21.96 0 0 6.05 5.27 7.54 12.64 1.5 7.38-1.55 16.86-1.55 16.86l-11.76-7.54z" fill-rule="evenodd" stroke="#000" fill="#e20909"/>
    <path id="path9575" d="m-628.79 445.09l-7.77-3.83c2.82-3-0.4-5.39-3.33-7.82-1.73-2.88-10.51-0.3-14.02 0.95 3.6-9.23 1.84-14.36-7.6-7.51 1.58-8.77 0.37-12.76-6.12-6.09 2.17-6.89-3.27-9.19-5.86-8.53-1.23 1.43-4.69-5.35-8.77 0 0 0-3.55 6.1-7.54 4.43-15.72-6.14-13.24-10.78-3.99-16.41 2.87-1.76-2.78-6.88-5.77-9.32-3-2.44-7.32 0.22-6.55-5.55 0.31-10.44 4.3-23.9 15.42-12.2 0 0 4.3-0.77 3.51-3.3-0.79-2.52-6.67-6.79-4.39-9.79 12-15.37 19.1-9.75 20.52 0.45 3.49 0.72 4.13-7.93 9.65-5.77 9.3 3.2 17.61 8.5 8.06 17.51-1.39 2.89-1.14-1.57 7.84 6.69 6.22 13.53 17.82 29.04 32.11 38.52 5.95 4.76 13.09-0.76 17.03 2.42 3.94 3.19 6.39 5.18 6.39 5.18l-38.82 19.97z" fill-rule="evenodd" stroke="#313131"/>
    <path id="path9577" d="m-672.27 607.94c0.86-11.7-11.49-16.55-22.74-18.35 13.95-8.56 26.53-6.46 32.62 4.86l-9.88 13.49z" fill-rule="evenodd" stroke="#000" fill="#e20909"/>
    <path id="path9579" d="m-678.23 625.51c-10.32-9.02-17.12 0.08-26.04 4.08 0 0 5.81-13.77 12.86-18.04 7.06-4.28 15.38 0.94 15.38 0.94l-2.2 13.02z" fill-rule="evenodd" stroke="#000" fill="#e20909"/>
    <path id="path9581" d="m-670.39 641.35c-4.16 1.94-7.73 6.28-9.41 18.2-2.53-7.07-12.99-20.63 3.65-24.28l5.76 6.08z" fill-rule="evenodd" stroke="#000" fill="#e20909"/>
    <path id="path9583" d="m-646.54 643.23c-3.55 3.62-3.88 8.62-1.57 14.75-5.73-1.82-16.43-10.62-6.28-16.63l7.85 1.88z" fill-rule="evenodd" stroke="#000" fill="#e20909"/>
    <path id="path9585" d="m-597.3 544.48c-13.04-5.37-24.77-3.02-36.32 9.37 10.72-0.44 20.47-3.71 18.43-2.26-7.05 5.04-9.61 10.63-9.61 10.63s14.3 20.96 7.09 30.61c-10.82 3.24-24.75 26.54-40.37 2.99-3.19-12.87-11.82-0.38-15.54 6.77-2.5 6.35 6.23 6.67 6.23 6.67l-2.67 2.2c-8.19-7.41-11.14 6.65-11.41 13 0.11 4.77 6.1 3.88 6.1 3.88l1.33 4.87c-7.84 2.8 0.12 9.42 4.43 11.31 2.41 0.78 3.65-3.75 3.65-3.75l9.66-1.78s-2.45 3.09 1.44 4.42c5.38 2.1 14.32 2.99 11.43-5.21 3-0.89 8.52-5.64 9.09-2.53 0.55 3.06 3.36 6.36 9.7 8.96-0.59-4.84 0.27-14.64 4.79-12.29 3.91 2.02 6.8 10.85 16.19 11.23-2.58-4.32-8.44-12.82 0.44-13.92 2.43-0.31 4.88-0.57 7.36-0.79 12.11-1.09 24.87-1.22 38.51-0.08-1.32-1.35-5.39-7.15-6.88-9.64-1.51-2.51 13.35 6.51 13.35 6.51-2.21-9.38-20.19-23.67-20.19-20.82 0 7.18-6.96-16.5-0.97-21.55 8.18-6.92 23.42 1.94 30.21 5.48 3.27-3.63 8.44-9.43 6.35-13.44-4.06-7.77-10.53-17.46-13.81-28.39-15.82-2.42-32.04-4.71-48.01-2.45z" fill-rule="evenodd" stroke="#313131"/>
    <path id="path9587" d="m-701.92 462.99c-1.93-5.08-10.11-11.41-18.2-14.17 10.55-8.13 19.55-5.33 26.24 6.66l-8.04 7.51z" fill-rule="evenodd" stroke="#000" fill="#e20909"/>
    <path id="path9589" d="m-710.39 481.66c-8.08-5.59-14.15 0.81-20.7 4.39 0 0 5.65-10.02 11.46-14.08 5.63-3.94 11.75-0.66 11.75-0.66l-2.51 10.35z" fill-rule="evenodd" stroke="#000" fill="#e20909"/>
    <path id="path9591" d="m-704.9 500.64c-5.69 0.06-11.75 1.43-20.08 10.98 0 0-0.27-7.64 3.93-12.86 4.19-5.22 12.86-8 12.86-8l3.29 9.88z" fill-rule="evenodd" stroke="#000" fill="#e20909"/>
    <path id="path9593" d="m-697.15 508.22c0.26 3.29-0.88 5.74-8.98 10.4 8.26 2.12 16.13-1.25 19.22-8.41l-10.24-1.99z" fill-rule="evenodd" stroke="#000" fill="#e20909"/>
    <path id="path9595" d="m-534.54 707.19c2.77 1.78 0.6 6.9-4.92 14.48 4.86-1.79 20.13-4.78 13.71-15.1l-8.79 0.62z" fill-rule="evenodd" stroke="#000" fill="#e20909"/>
    <path id="path9597" d="m-554.85 703.86c-0.35 8.14-8.03 7.75-16.63 11.3 10.52 4.18 22.12 6.39 26.9-5.42l-10.27-5.88z" fill-rule="evenodd" stroke="#000" fill="#e20909"/>
    <path id="path9599" d="m-556.5 701.27c-6.9-3.88-17.69-0.14-26.98 1.26 5.96-8.95 15.81-21.73 29.18-8.79l-2.2 7.53z" fill-rule="evenodd" stroke="#000" fill="#e20909"/>
    <path id="path9601" d="m-551.17 682.76c-2.87-14.63-14.84-14.7-25.72-13.8 5.39-10.18 28.2-13.74 31.37-0.31l-5.65 14.11z" fill-rule="evenodd" stroke="#000" fill="#e20909"/>
    <path id="path9603" d="m-546.86 572.21c-11.86 13.06 2.02 13.59 10.47 14.72 3.21-3.63 2.8-7.98 0.91-11.61-16.38-31.49-16.43-71.78-11.38-3.11z" fill-rule="evenodd" stroke="#313131"/>
    <path id="path9605" d="m-600.74 443.07s-32.78 18.12-54.59 22.67c-21.8 4.55-33.88-6.04-33.88-6.04s1.1-6.75-4.39-5.96c-5.49 0.78-9.26 4.55-11.3 8.47-1.02 1.96 2.43 3.14 3.32 5.08 0.88 1.94-1.81 5.14-1.81 5.14s-4.64-7.55-7.15-3.63-5.18 8.78-3.45 14.12c0.86 2.66 4.07-0.24 6.45 0.9 2.37 1.14 2.02 5.37 2.02 5.37s-5.96-2.12-5.02 2.2c0.94 4.31 0.62 8.78 4.07 11.6 3.46 2.83 5.02-3.45 5.02-3.45l5.34 4.4s-3.61 3.13-0.63 5.64 6.43-1.57 9.41-1.57 2.2-5.96 2.2-5.96c2.51-3.03 5.54-5.02 9.72-4.71 6.57 2.45 6.1 7 4.4 11.92 8.37 0.22 14.5-4.04 21.33-6.9 5.16 0.79 8.79 0 5.02 6.28 9.94 0.66 20.9-1.52 30.75-5.02-0.13 3.2 0.61 3.88 0.78 8.47 11.29-16.73 15.13-17.25 26.43-13.49 5.92 22.53 36.43 27.18 37.4 32.83 1.32 7.73 3.29 34.9 13.82 43.88-11.63 17.44-18.29 25.07-8.89 47.22 2.66-5.41 7-7.47 12.03-8.16-4.35 12.89 22.26 18.14 23.88 25.1 1.66 7.15-13.81 20.53-20.4 30.74-5.8 7.19-14.66-1.45-16.03-5.64-5.65 0.83-13.1 14.99-10.3 20.34 2.8-0.91 11.57-2 5.28 7.27-5.01-4.2-9.88-3.65-8.27 9.07 0.79 3.21 3.73 1.22 3.73 1.22l1.25 1.94c-1.17 0.75-2.3-0.32-1.81 1.65 0.75 3 7.62 8.81 10.33 5.05 1.04-1.45 1.36-2.28 1.4-2.28l5.49-1.05c1.29-0.24-0.27 4.2 0.57 4.41 12.42 1.6 14.44-0.4 15.03-2.74 0.13-5.77 3.12-7.59 6.25-4.41 11.38-20.21 28.47-37.72 35.05-37.96-2.72-8.96 2.62-8.61 10.04-8.16 0 0 10.74-4.81 1.25-11.29-1.53-1.05-3.05-2.88-4.48-5.17-1.49-2.36 6.82 0.75 13.07 1.14-3.06-3.23-7.96-6.35-9.66-7.53-4.72-3.27-8.98-8.64-9.39-9.57-0.89-2.01 6.1 3.83 13.57 7.69 5.01 2.58 11.44 6.16 21.36 5.17-6.65-4.12-13.43-6.65-18.08-10.67-8.8-7.6-21.56-16.83-21.17-17.3-2-17.3-16.48-20.7-4.04-37.81 26.29 44.05 76.93 62.03 80.79 2.67 0.27-26.99-11.27-35.37-13.65-43.45-3.63-12.28 11.07-27.31 13.8-31.37-7.55 1.64-15.45 2.09-24.47 16.31-0.8-24.57 8.88-31.49 14.14-41.78-11.24 5.63-19.72 14.79-25.49 23.56-0.54-24.33 19.46-50.08 20.76-54.57-14.52 9.36-27.34 20.09-33.57 36.08-13.3-37.09 22.57-56.48 53.16-85.76 34.07-37.26-1.33-52.31-29.88-39.13-4.01 1.85-21.21-11.93-28.19-6.38 5.59 2.52 12.19 9.13 8.87 7.34-26.07 11.83-24.61 56.18-23.09 68.09 3.46-13.8 23.86-58.61 31.68-57.12-0.93 6.15-6.79 14.61-4.12 28.99 5.65-9.05 11.21-30.13 19.49-33.27 22.73-8.61 43.45-0.65 17.89 25.01l-38.9 36.39c-18.77 17.55-23.79 36.2-13.18 66.2 11.31 31.95 44.92 56.9 44.39 78.12-0.92 68.86-58.34 12.97-65.57-17.73-4.81-20.46-28.43-37.29-36.23-59.77-7.81-22.47 1.88-18.51 1.56-31.68-0.31-13.18-2.82-21.02-2.82-21.02l-79.69 3.76z" fill-rule="evenodd" stroke="#313131"/>
    <path id="path9607" d="m-547.16 382.97c-1.19 3.37-30.77 7.42-47.91 6.21-23.26-1.63-16.49-12.75-13.31-16.41 3.02-3.49 11.8 5.01 22.12 8.81 11.98 4.41 34.21-1.74 39.1 1.39z" fill-rule="evenodd" stroke="#000" fill="#e20909"/>
    <path id="path9609" d="m-554.7 372.77c-3.78-4.02-11.2-4.22-18.74-3.22-1.27-1.72-6.79-9.88-20.97-4.32-5.11-6.48-5.96-16.71 0.22-20.64 5.67-3.59 15.96-1.93 17.09-2.66 6.62-4.28 3.75-9.48 18.19-12.42 14.53-2.97 36.57-1.27 39.93 2.66 13.99-10.03 26.07-12.62 23.74 7.99-0.97 5.92-15.1 2.23-10.86 9.82 0 0-5.31 14.8-1.12 24.34 2.86 6.52 9.78 11.26 14.85 16.15 4.29 4.15 7.05 8.93 7.05 9.52-9-2.82-25.3-4.78-19.69 0.73 10.04 2.18 15.69 9.29 17.06 18.53-5.17-3.35-14.06-6.45-11.73-2.34 1.67 2.95 7.16 8.95 6.95 18.37-2.58-2.26-7.15-1.06-10.98-2.05-3.46-0.91 10.54 15.59 10.1 28.39-13.22-7.85-16.96-17.08-23.37-20.52 0.61 10.69 7.59 28.49 7.98 25.73-14.07-3.34-17.83-9.12-23.97-14.26-0.17 4.9 1.9 15.34-6.63 30.9-3.88-9.21-10.04-13.34-13.46-20.63-0.91 3.8-9.75 20.9-17.06 26.59-4.05-10.63-1.61-21.4 1.3-26.15-14.22 1.36-15.92 18.01-28.03 21.52 1.83-7.5 2.76-12.64 5.55-20.19-13.19 0.83-25.42 11.97-42.6 9.54 8.9-6 13.57-13.68 10.65-24.4-7.31-4.48-16.67-4.04-27.95-6.21 11.75-3.8 70.39-10.05 45.54-26.63 14.86 0.3 37.04 3.99 38.76-13.75-4.99-5.29-13.2-0.88-20.19-2.88-2.94-0.85-6.12-5.41-4.73-6.45 1.99-4.19 4-3.57 10.03-0.94 5.72-0.57 23.9-0.92 29.75-1.93 3.59-6.56 2.08-13.15-2.66-18.19z" fill-rule="evenodd" stroke="#313131"/>
    <path id="path9611" d="m-543.95 343.62c0 1.56-2.67 2.82-5.96 2.82-3.3 0-5.97-1.26-5.96-2.82-0.01-1.56 2.66-2.83 5.96-2.83 3.29 0 5.96 1.27 5.96 2.83z" fill-rule="evenodd" stroke="#313131"/>
    <path id="path9613" d="m-510.09 340.32c-3.42-3.2-3.07-4.36-5.22-4.84 5.53-4.35 9.38-5.59 11.94-5.97" stroke="#000" fill="none"/>
   </g>
  </g>
 </g>
</svg>
