<?xml version="1.0" encoding="utf-8"?>
<!-- Generator: Adobe Illustrator 16.0.0, SVG Export Plug-In . SVG Version: 6.00 Build 0)  -->
<!DOCTYPE svg PUBLIC "-//W3C//DTD SVG 1.1//EN" "http://www.w3.org/Graphics/SVG/1.1/DTD/svg11.dtd">
<svg version="1.1"
	 id="svg2" xmlns:dc="http://purl.org/dc/elements/1.1/" xmlns:cc="http://creativecommons.org/ns#" xmlns:svg="http://www.w3.org/2000/svg" xmlns:inkscape="http://www.inkscape.org/namespaces/inkscape" xmlns:rdf="http://www.w3.org/1999/02/22-rdf-syntax-ns#"
	 xmlns="http://www.w3.org/2000/svg" xmlns:xlink="http://www.w3.org/1999/xlink" x="0px" y="0px" width="625px" height="375px"
	 viewBox="0 0 625 375" enable-background="new 0 0 625 375" xml:space="preserve">
<g id="g10" transform="matrix(1.25,0,0,-1.25,0,375)">
	<path id="path12" inkscape:connector-curvature="0" fill="#ED2939" d="M500,300H0V0h500V300z"/>
	<path id="path14" inkscape:connector-curvature="0" fill="#FFD203" d="M500,300H250V0h250V300z"/>
	<path id="path16" inkscape:connector-curvature="0" fill="#002395" d="M0,222.411h250v77.588H0V222.411L0,222.411z"/>
	<g id="g18">
	</g>
</g>
<g>
	<g>
		<g id="g26" transform="translate(413.3555,69.8887)">
			<path id="path28" inkscape:connector-curvature="0" fill="#FFFFFF" d="M-240.661,212.75c-8.725,4.566-17.026,4.84-22.842,2.101
				c-5.816-2.74,0.969,3.652,3.876,6.393c2.908,2.739,1.939,5.479,1.939,8.219c0,2.741-0.052,6.29,0.729,9.586
				c-5.815,0.914-11.39-1.366-16.236-4.104c2.854,3.136,2.457,4.97,4.606,7.428c-4.91,0.042-9.544-4.125-13.599-6.166
				c2.104,2.455,3.879,6.287,5.684,9.094c-3.96,0.405-8.668-4.323-10.59-5.894c0.62,1.229,1.877,6.558,2.519,9.977
				c-4.736-1.167-5.867-8.093-9.338-7.566c0.012,0.767-0.962,3.271,0.075,5.612c2.049,4.629-2.608,2.722-4.147,2.354
				c-4.067,0.047-5.207,1.15-4.419-4.819c-0.969-1.827-3.746-3.628-3.746,0.027c0,3.652-2.559,8.173-5.046,8.173
				s-4.007-3.117-4.956-5.707c-4.468-3.418-2.029-6.309,1.849-5.395c3.876,0.914,0.949-5.48-1.958-3.654
				c-2.908,1.826-8.743,1.867-7.773-0.875c0.969-2.74,1.519-4.914,0.549-8.566c-0.969-3.654,3.567-3.033,5.506-1.207
				c1.938,1.828,2.798,4.049,6.674,3.137c3.878-0.914,0.29-4.051-2.617-4.981c-2.909,0-2.619-3.489,1.997-5.688
				c3.219-5.455,7.976-6.054,7.205-0.415c0,2.741,1.309,8.24,13.11,6.912c8.724-0.914,10.174-7.541,6.675-11.025
				c-2.179-1.723-4.486-5.239-4.795-11.812c-1.419,1.16-3.353,2.049-5.987,2.113c-4.464,0.269-5.939-1.637-9.774-3.166
				c2.389-1.252,5.938-3.19,9.419-2.559c2.869,0.029,5.651-1.506,6.71-4.208c1.94-4.565,6.139-4.594,9.914-3.757
				c4.227,0.988,14.368,0.5,14.368-1.326c-4.652-1.379-10.375-5.455-12.335-11.113c-0.01,4.219-2.557,7-6.301,6.245
				c-1.812-0.415-4.464-0.274-6.152-0.183c2.075-1.58,5.112-6.795,2.646-10.271c-1.132-1.637-1.392-4.907-1.164-6.916
				c-0.709,0.564-2.894,4.064-1.265,6.75c-2.651,0.241-4.726-3.031-7.805-4.029c-0.548,1.055,1.254,3.604,1.665,4.789
				c-1.384,0.43-2.315,0.95-6.091-0.787c-1.003,2.692-0.485,3.949-0.722,4.911c-1.194-0.083-4.117-0.75-5.555-2.21
				c0.031,1.729-0.957,3.02-1.37,4.473c-1.894-0.377-3.538-0.866-5.194-2.977c-0.129,1.365-1.2,1.971-1.002,4.154
				c-2.592-0.123-5.563-3.791-8.84-6.413c-0.95,2.316,3.057,11.601,0.148,10.687c-4.446-1.12-9.182,1.969-9.312-1.496
				c0.969-2.74-0.528-2.798-3.436-0.058c-2.579,2.844-7.795,5.925-7.754-2.74c-3.37-4.726-2.249-6.101,2.928-5.46
				c4.845-0.914,6.804-2.871,3.018-3.945c-7.306,1.412-8.825-1.742-5.747-4.604c0.771-2.553,0.771-5.17,3.678-4.256
				c4.995,3.088,6.785,0,3.878-1.828c-2.908-1.826-2.271-4.086,2.397-5.479c2.797-3.672,6.325-2.74,6.325,0.912
				c-0.66,4.378,2.269,6.931,4.207,5.104c1.938-1.826,9.463-2.552,12.37-3.465s11.531-8.031,11.531-10.771
				c-6.406,0.22-10.281-1.185-12.529-2.584c-0.292-1.794-0.574-3.183,0.217-5.767c-6.321,3.197-9.059,1.65-10.821-0.025
				c1.395-1.277,3.652-5.898,4.62-7.631c-3.538,1.479-4.692,2.579-6.271,1.863c-0.661-1.807,0.513-3.631,0.933-5.064
				c-3.74,3.227-6.185,3.104-9.45,2.597c3.373-4.925,3.999-7.509,4.753-12.511c-2.265,1.014-4.716,0.848-6.215,0.941
				c-0.32-1.632-0.776-4.127-0.13-6.524c-4.569,1.13-7.465,2.278-6.035-3.361c0-2.74-1.12-6.205,3.127-4.859
				c1.939,0,1.829-3.322-1.079-3.322c-7.525-0.518-9.312-2.636-5.466-7.034c1.099-5.227,3.638-6.517,5.576-2.43
				c1.939,2.74,7.334,5.369,5.814,0c-3.496-5.368-5.785-9.96,0.971-9.132c6.096-1.554,6.056,1.996,4.316,5.771
				c-0.969,3.361,2.468,4.275,3.437,2.449c-0.351-3.483,1.857-6.018,4.937-2.345c3.847,4.501,5.146,7.137-0.179,9.981
				c-2.909,2.74,6.783,9.64,9.931,17.748c4.688,1.479,12.521,5.78,17.298,7.495c2.907-2.74,15.146-8.578,26.169-8.221
				c7.626,0.246,9.692-2.954,10.662-5.694c0.969-2.74-2.867-0.058-3.968-2.486c-1.648,2.026-4.497,1.95-5.706-0.706
				c-4.286,4.699-10.349,7.188-8.563-0.227c0.886-3.78,0.322-6.431,2.969-6.619c16.5,2.505,15.459-7.335,10.441-8.577
				c-5.603-1.33-14.642,5.835-13.35-4.396c0.606-4.806,0.399-3.051-1.538-3.965c-1.94-0.913,2.269-4.774,5.176-4.774
				c4.665-0.103,6.074-2.118,8.213-5.188c0.728-0.456,10.721-0.203,14.419-0.592c4.782-0.91,16.336-4.568,21.708-3.432
				c-1.462,3.485-3.123,3.23-4.041,5.499c3.781,0.56,8.093,1.938,8.954,2.289c-1.938,1.911-3.039,3.223-4.849,4.579
				c4.208,0.894,5.241,0.497,4.717,7.288c-0.086,4.678-0.42,10.79-6.235,10.79s5.323,4.453,4.956,10.78
				c-0.374,4.938-0.61,12.192,2.558,16.393c1.987,2.709,4.837,9.019,0.75,12.616c-1.312-4.45-3.585-8.088-6.047-10.821
				c-1.416,1.852-2.644,5.675-1.228,7.922c1.737,2.859,1.678,5.809,1.678,9.462s-1.138,6.36-0.8,12.982
				c-1.615-0.455-3.708-2.504-4.788-4.638c-0.543,2.434-2.23,3.665-3.036,10.533c-3.711-2.914-4.774-6.354-4.524-8.427
				c0.089-6.431-0.855-5.544-2.794-9.198c-0.548,1.752-0.26,4.024,0.482,7.521c-2.907-1.827-3.897-2.106,0.705,5.251
				c3.794,5.945,4.903,22.447,12.468,26.263c4.846,0.914,7.085,5.085,9.992,6.913c2.907,1.824,8.402,0.797,14.588,8.51
				c11.134,8.022,19.516,0.759,13.329-10.526c-1.89-3.353-9.472-8.343-10.44-11.995c-5.478-0.338-10.723-2.748-9.493-9.443
				c-6.357,0.557-9.773-6.646-5.266-12.891c-8.686-2.512-7.365-13.717,3.147-15.629c0.84-10.611,15.228-20.609,22.294-25.365
				c5.716-3.788,20.758-15.806,12.14-29.101c-5.456-8.433-16.487-2.993-15.049,5.356c0.737,4.155,4.843,4.935,10.572,3.446
				c0.201,4.325-8.068,12.644-13.81,5.79c0.13,3.722-0.689,8.963-7.954,10.997c-4.846,1.827-4.816,5.066-3.767,9.981
				c-8.934-0.217-13.149-8.314-11.212-13.795c1.938-5.479,8.113-5.545,8.113-8.285c0-2.74-7.083-3.549-7.935-8.135
				c-0.977-5.373,1.231-9.809,5.678-10.959c-1.929,6.205,5.761,9.269,10.401,3.634c8.034-9.728,22.18-11.845,28.457-4.924
				c4.254,4.688,10.691,15.769,2.839,27.399c-4.768,7.061-17.1,16.467-21.928,18.954c-1.758,1.002-7.794,5.523-7.826,8.131
				c4.175-2.792,7.543-2.694,10.375-3.791c-0.175,3.145-11.718,8.763-10.309,13.207c2.945-2.264,11.596-5.926,16.117-10.486
				c2.579,8.553-20.194,16.108-17.201,22.032c2.584-3.778,16.103-6.894,21.479-11.948c-0.341,5.445-4.605,11.139-12.619,15.67
				c-9.225,4.941-7.025,10.047-4.485,11.934c1.679-7.552,12.008-9.609,18.344-17.302c1.388,3.909-2.279,10.243-6.726,15.205
				c-4.337,4.237-4.137,7.58-0.26,13.059c3.877,5.481,10.701,15.216,7.794,19.781c-2.907,4.566,6.903-4.661,14.258,2.618
				c1.919,2.086,4.5,4.707,10.561,5.68c-1.812,2.352-4.206,4.23-9.512,2.098c-5.445-3.854-8.272-2.721-11.799-0.02
				c-6.605,5.913-16.097,10.367-28.089,0.52c-4.847-4.568-6.893-7.984-12.561-7.91c2.908,6.394-1.229,12.541-1.229,17.105
				c0,4.569,0.13,7.91,7.884,8.824c7.754,0.912,9.562,6.703,13.438,5.79c1.756-0.724,3.573-0.247,5.439-0.822
				c0.174,1.839,0.819,4.642-2.874,5.555c-4.847,1.826-1.896,2.124,0.042,4.864c0.953,1.643,0.498,3.935,0.734,6.327
				c-0.16,2.938,2.688,4.667,5.781,5.083c-2.163,2.531-6.45,3.149-9.458,0.744c2.23,5.756-0.873,6.854-4.751,4.113
				c3.269,4.719-2.571,5.293-7.417,3.466c2.3,2.629,4.948,5.394,0.503,7.098c-4.557,4.501-4.476,1.017-6.415-1.723
				c-1.938-2.74-3.706,5.573-5.574,6.761c-3.079,0.357-4.118-4.105-7.995-5.02c-2.228-1.432,1.189-2.467,2.558-3.652
				c1.698-1.187-1.229-1.686-5.106,0.141c-3.876,1.826-5.295,1.479-3.996-3.729c1.189-6.242,2.917-4.416,6.703-2.57
				c3.899-0.848-6.063-3.549,0.549-7.789c0.669-2.856,2.75-5.703,6.36,0.066c4.846,1.828,4.125-3.764,3.155-6.503
				c-0.969-2.74-9.213-7.429-11.191-11.497c-2.76,6.607-5.748,10.299-13.703,12.225c0.801-3.508-0.314-6.283,2.017-8.576
				c2.909-4.568-0.914-6.388-0.914-10.954c-4.288-4.773-1.538-14.376-0.42-19.451L-240.661,212.75z"/>
		</g>
		<g id="g30" transform="translate(413.3555,69.8887)">
			<path id="path32" inkscape:connector-curvature="0" fill="none" stroke="#000000" stroke-width="0.892" d="M-240.661,212.75
				c-8.725,4.566-17.026,4.84-22.842,2.101c-5.816-2.74,0.969,3.652,3.876,6.393c2.908,2.739,1.939,5.479,1.939,8.219
				c0,2.741-0.052,6.29,0.729,9.586c-5.815,0.914-11.39-1.366-16.236-4.104c2.854,3.136,2.457,4.97,4.606,7.428
				c-4.91,0.042-9.544-4.125-13.599-6.166c2.104,2.455,3.879,6.287,5.684,9.094c-3.96,0.405-8.668-4.323-10.59-5.894
				c0.62,1.229,1.877,6.558,2.519,9.977c-4.736-1.167-5.867-8.093-9.338-7.566c0.012,0.767-0.962,3.271,0.075,5.612
				c2.049,4.629-2.608,2.722-4.147,2.354c-4.067,0.047-5.207,1.15-4.419-4.819c-0.969-1.827-3.746-3.628-3.746,0.027
				c0,3.652-2.559,8.173-5.046,8.173s-4.007-3.117-4.956-5.707c-4.468-3.418-2.029-6.309,1.849-5.395
				c3.876,0.914,0.949-5.48-1.958-3.654c-2.908,1.826-8.743,1.867-7.773-0.875c0.969-2.74,1.519-4.914,0.549-8.566
				c-0.969-3.654,3.567-3.033,5.506-1.207c1.938,1.828,2.798,4.049,6.674,3.137c3.878-0.914,0.29-4.051-2.617-4.981
				c-2.909,0-2.619-3.489,1.997-5.688c3.219-5.455,7.976-6.054,7.205-0.415c0,2.741,1.309,8.24,13.11,6.912
				c8.724-0.914,10.174-7.541,6.675-11.025c-2.179-1.723-4.486-5.239-4.795-11.812c-1.419,1.16-3.353,2.049-5.987,2.113
				c-4.464,0.269-5.939-1.637-9.774-3.166c2.389-1.252,5.938-3.19,9.419-2.559c2.869,0.029,5.651-1.506,6.71-4.208
				c1.94-4.565,6.139-4.594,9.914-3.757c4.227,0.988,14.368,0.5,14.368-1.326c-4.652-1.379-10.375-5.455-12.335-11.113
				c-0.01,4.219-2.557,7-6.301,6.245c-1.812-0.415-4.464-0.274-6.152-0.183c2.075-1.58,5.112-6.795,2.646-10.271
				c-1.132-1.637-1.392-4.907-1.164-6.916c-0.709,0.564-2.894,4.064-1.265,6.75c-2.651,0.241-4.726-3.031-7.805-4.029
				c-0.548,1.055,1.254,3.604,1.665,4.789c-1.384,0.43-2.315,0.95-6.091-0.787c-1.003,2.692-0.485,3.949-0.722,4.911
				c-1.194-0.083-4.117-0.75-5.555-2.21c0.031,1.729-0.957,3.02-1.37,4.473c-1.894-0.377-3.538-0.866-5.194-2.977
				c-0.129,1.365-1.2,1.971-1.002,4.154c-2.592-0.123-5.563-3.791-8.84-6.413c-0.95,2.316,3.057,11.601,0.148,10.687
				c-4.446-1.12-9.182,1.969-9.312-1.496c0.969-2.74-0.528-2.798-3.436-0.058c-2.579,2.844-7.795,5.925-7.754-2.74
				c-3.37-4.726-2.249-6.101,2.928-5.46c4.845-0.914,6.804-2.871,3.018-3.945c-7.306,1.412-8.825-1.742-5.747-4.604
				c0.771-2.553,0.771-5.17,3.678-4.256c4.995,3.088,6.785,0,3.878-1.828c-2.908-1.826-2.271-4.086,2.397-5.479
				c2.797-3.672,6.325-2.74,6.325,0.912c-0.66,4.378,2.269,6.931,4.207,5.104c1.938-1.826,9.463-2.552,12.37-3.465
				s11.531-8.031,11.531-10.771c-6.406,0.22-10.281-1.185-12.529-2.584c-0.292-1.794-0.574-3.183,0.217-5.767
				c-6.321,3.197-9.059,1.65-10.821-0.025c1.395-1.277,3.652-5.898,4.62-7.631c-3.538,1.479-4.692,2.579-6.271,1.863
				c-0.661-1.807,0.513-3.631,0.933-5.064c-3.74,3.227-6.185,3.104-9.45,2.597c3.373-4.925,3.999-7.509,4.753-12.511
				c-2.265,1.014-4.716,0.848-6.215,0.941c-0.32-1.632-0.776-4.127-0.13-6.524c-4.569,1.13-7.465,2.278-6.035-3.361
				c0-2.74-1.12-6.205,3.127-4.859c1.939,0,1.829-3.322-1.079-3.322c-7.525-0.518-9.312-2.636-5.466-7.034
				c1.099-5.227,3.638-6.517,5.576-2.43c1.939,2.74,7.334,5.369,5.814,0c-3.496-5.368-5.785-9.96,0.971-9.132
				c6.096-1.554,6.056,1.996,4.316,5.771c-0.969,3.361,2.468,4.275,3.437,2.449c-0.351-3.483,1.857-6.018,4.937-2.345
				c3.847,4.501,5.146,7.137-0.179,9.981c-2.909,2.74,6.783,9.64,9.931,17.748c4.688,1.479,12.521,5.78,17.298,7.495
				c2.907-2.74,15.146-8.578,26.169-8.221c7.626,0.246,9.692-2.954,10.662-5.694c0.969-2.74-2.867-0.058-3.968-2.486
				c-1.648,2.026-4.497,1.95-5.706-0.706c-4.286,4.699-10.349,7.188-8.563-0.227c0.886-3.78,0.322-6.431,2.969-6.619
				c16.5,2.505,15.459-7.335,10.441-8.577c-5.603-1.33-14.642,5.835-13.35-4.396c0.606-4.806,0.399-3.051-1.538-3.965
				c-1.94-0.913,2.269-4.774,5.176-4.774c4.665-0.103,6.074-2.118,8.213-5.188c0.728-0.456,10.721-0.203,14.419-0.592
				c4.782-0.91,16.336-4.568,21.708-3.432c-1.462,3.485-3.123,3.23-4.041,5.499c3.781,0.56,8.093,1.938,8.954,2.289
				c-1.938,1.911-3.039,3.223-4.849,4.579c4.208,0.894,5.241,0.497,4.717,7.288c-0.086,4.678-0.42,10.79-6.235,10.79
				s5.323,4.453,4.956,10.78c-0.374,4.938-0.61,12.192,2.558,16.393c1.987,2.709,4.837,9.019,0.75,12.616
				c-1.312-4.45-3.585-8.088-6.047-10.821c-1.416,1.852-2.644,5.675-1.228,7.922c1.737,2.859,1.678,5.809,1.678,9.462
				s-1.138,6.36-0.8,12.982c-1.615-0.455-3.708-2.504-4.788-4.638c-0.543,2.434-2.23,3.665-3.036,10.533
				c-3.711-2.914-4.774-6.354-4.524-8.427c0.089-6.431-0.855-5.544-2.794-9.198c-0.548,1.752-0.26,4.024,0.482,7.521
				c-2.907-1.827-3.897-2.106,0.705,5.251c3.794,5.945,4.903,22.447,12.468,26.263c4.846,0.914,7.085,5.085,9.992,6.913
				c2.907,1.824,8.402,0.797,14.588,8.51c11.134,8.022,19.516,0.759,13.329-10.526c-1.89-3.353-9.472-8.343-10.44-11.995
				c-5.478-0.338-10.723-2.748-9.493-9.443c-6.357,0.557-9.773-6.646-5.266-12.891c-8.686-2.512-7.365-13.717,3.147-15.629
				c0.84-10.611,15.228-20.609,22.294-25.365c5.716-3.788,20.758-15.806,12.14-29.101c-5.456-8.433-16.487-2.993-15.049,5.356
				c0.737,4.155,4.843,4.935,10.572,3.446c0.201,4.325-8.068,12.644-13.81,5.79c0.13,3.722-0.689,8.963-7.954,10.997
				c-4.846,1.827-4.816,5.066-3.767,9.981c-8.934-0.217-13.149-8.314-11.212-13.795c1.938-5.479,8.113-5.545,8.113-8.285
				c0-2.74-7.083-3.549-7.935-8.135c-0.977-5.373,1.231-9.809,5.678-10.959c-1.929,6.205,5.761,9.269,10.401,3.634
				c8.034-9.728,22.18-11.845,28.457-4.924c4.254,4.688,10.691,15.769,2.839,27.399c-4.768,7.061-17.1,16.467-21.928,18.954
				c-1.758,1.002-7.794,5.523-7.826,8.131c4.175-2.792,7.543-2.694,10.375-3.791c-0.175,3.145-11.718,8.763-10.309,13.207
				c2.945-2.264,11.596-5.926,16.117-10.486c2.579,8.553-20.194,16.108-17.201,22.032c2.584-3.778,16.103-6.894,21.479-11.948
				c-0.341,5.445-4.605,11.139-12.619,15.67c-9.225,4.941-7.025,10.047-4.485,11.934c1.679-7.552,12.008-9.609,18.344-17.302
				c1.388,3.909-2.279,10.243-6.726,15.205c-4.337,4.237-4.137,7.58-0.26,13.059c3.877,5.481,10.701,15.216,7.794,19.781
				c-2.907,4.566,6.903-4.661,14.258,2.618c1.919,2.086,4.5,4.707,10.561,5.68c-1.812,2.352-4.206,4.23-9.512,2.098
				c-5.445-3.854-8.272-2.721-11.799-0.02c-6.605,5.913-16.097,10.367-28.089,0.52c-4.847-4.568-6.893-7.984-12.561-7.91
				c2.908,6.394-1.229,12.541-1.229,17.105c0,4.569,0.13,7.91,7.884,8.824c7.754,0.912,9.562,6.703,13.438,5.79
				c1.756-0.724,3.573-0.247,5.439-0.822c0.174,1.839,0.819,4.642-2.874,5.555c-4.847,1.826-1.896,2.124,0.042,4.864
				c0.953,1.643,0.498,3.935,0.734,6.327c-0.16,2.938,2.688,4.667,5.781,5.083c-2.163,2.531-6.45,3.149-9.458,0.744
				c2.23,5.756-0.873,6.854-4.751,4.113c3.269,4.719-2.571,5.293-7.417,3.466c2.3,2.629,4.948,5.394,0.503,7.098
				c-4.557,4.501-4.476,1.017-6.415-1.723c-1.938-2.74-3.706,5.573-5.574,6.761c-3.079,0.357-4.118-4.105-7.995-5.02
				c-2.228-1.432,1.189-2.467,2.558-3.652c1.698-1.187-1.229-1.686-5.106,0.141c-3.876,1.826-5.295,1.479-3.996-3.729
				c1.189-6.242,2.917-4.416,6.703-2.57c3.899-0.848-6.063-3.549,0.549-7.789c0.669-2.856,2.75-5.703,6.36,0.066
				c4.846,1.828,4.125-3.764,3.155-6.503c-0.969-2.74-9.213-7.429-11.191-11.497c-2.76,6.607-5.748,10.299-13.703,12.225
				c0.801-3.508-0.314-6.283,2.017-8.576c2.909-4.568-0.914-6.388-0.914-10.954c-4.288-4.773-1.538-14.376-0.42-19.451
				L-240.661,212.75z"/>
		</g>
		<g id="g34" transform="translate(433.248,74.6377)">
			<path id="path36" inkscape:connector-curvature="0" fill="none" stroke="#666666" stroke-width="0.714" d="M-235.688,202.065
				c-1.196,5.262-6.152,8.756-6.152,8.756"/>
		</g>
		<g id="g38" transform="translate(443.6465,158.1626)">
			<path id="path40" inkscape:connector-curvature="0" fill="none" stroke="#666666" stroke-width="0.714" d="M-233.089,14.134
				c-4.353,4.561-6.263,5.869-8.777,9.022c-2.415,2.946-2.956,8.438-0.504,11.674"/>
		</g>
		<g id="g42" transform="translate(442.3818,130.4883)">
			<path id="path44" inkscape:connector-curvature="0" fill="none" stroke="#666666" stroke-width="0.714" d="M-233.405,76.401
				c-2.394,2.257-3.192,6.392-3.192,7.144"/>
		</g>
		<g id="g46" transform="translate(440.7832,122.6699)">
			<path id="path48" inkscape:connector-curvature="0" fill="none" stroke="#666666" stroke-width="0.714" d="M-233.804,93.992
				c-1.996,3.008-2.394,11.279-2.394,11.279"/>
		</g>
		<g id="g50" transform="translate(444.2861,113.3516)">
			<path id="path52" inkscape:connector-curvature="0" fill="none" stroke="#666666" stroke-width="0.714" d="M-232.928,114.959
				c-4.788,4.135-3.99,9.773-3.99,9.773"/>
		</g>
		<g id="g54" transform="translate(448.4424,100.8545)">
			<path id="path56" inkscape:connector-curvature="0" fill="none" stroke="#666666" stroke-width="0.714" d="M-231.889,143.077
				c-0.811,1.162,2.398,5.756,4.789,5.434"/>
		</g>
		<g id="g58" transform="translate(462.4834,69.1387)">
			<path id="path60" inkscape:connector-curvature="0" fill="none" stroke="#666666" stroke-width="0.714" d="M-228.38,214.437
				c-4.788,2.257-7.191,3.057-11.97,1.128"/>
		</g>
		<g id="g62" transform="translate(444.2861,46.2402)">
			<path id="path64" inkscape:connector-curvature="0" fill="none" stroke="#666666" stroke-width="0.714" d="M-232.928,265.959
				c3.192,3.385,2.402,12.361-2.386,15.746c-4.787,3.383-2.394,0.75-2.394,0.75"/>
		</g>
		<g id="g66" transform="translate(434.5273,72.6934)">
			<path id="path68" inkscape:connector-curvature="0" fill="none" stroke="#666666" stroke-width="0.714" d="M-235.369,206.439
				c-2.394,6.768-8.547,10.473-8.547,10.473"/>
		</g>
		<g id="g70" transform="translate(433.9434,66.125)">
			<path id="path72" inkscape:connector-curvature="0" fill="none" stroke="#666666" stroke-width="0.714" d="M-235.514,221.219
				c-4.389,6.016-10.201,9.773-10.201,9.773"/>
		</g>
		<g id="g74" transform="translate(432.7061,61.0566)">
			<path id="path76" inkscape:connector-curvature="0" fill="none" stroke="#666666" stroke-width="0.714" d="M-235.824,232.623
				c-2.792,4.136-6.269,6.445-6.269,6.445"/>
		</g>
		<g id="g78" transform="translate(433.123,57.4043)">
			<path id="path80" inkscape:connector-curvature="0" fill="none" stroke="#666666" stroke-width="0.714" d="M-235.719,240.84
				c-2.793,3.007-6.384,4.887-6.384,4.887"/>
		</g>
		<g id="g82" transform="translate(435.0273,55.0029)">
			<path id="path84" inkscape:connector-curvature="0" fill="none" stroke="#666666" stroke-width="0.714" d="M-235.244,246.243
				c-1.994,2.633-3.59,5.641-3.59,5.641"/>
		</g>
		<g id="g86" transform="translate(390.668,66.4316)">
			<path id="path88" inkscape:connector-curvature="0" fill="none" stroke="#666666" stroke-width="0.714" d="M-246.333,220.529
				c3.192,4.511,8.378,3.76,7.979,7.52c-1.096,4.371,0.449,10.105,1.696,12.266"/>
		</g>
		<g id="g90" transform="translate(390.3486,62.209)">
			<path id="path92" inkscape:connector-curvature="0" fill="none" stroke="#666666" stroke-width="0.714" d="M-246.413,230.029
				c2.792,3.008,2.792,3.385,2.792,6.016s2.394,6.015,2.394,6.015"/>
		</g>
		<g id="g94" transform="translate(385.8721,58.9043)">
			<path id="path96" inkscape:connector-curvature="0" fill="none" stroke="#666666" stroke-width="0.714" d="M-247.532,237.465
				c1.197,2.257,4.389,5.641,4.389,5.641"/>
		</g>
		<g id="g98" transform="translate(379.4922,56.1973)">
			<path id="path100" inkscape:connector-curvature="0" fill="none" stroke="#666666" stroke-width="0.714" d="M-249.127,243.557
				c1.594,1.504,3.988,3.007,3.988,3.007"/>
		</g>
		<g id="g102" transform="translate(392.5869,165.3794)">
			<path id="path104" inkscape:connector-curvature="0" fill="none" stroke="#666666" stroke-width="0.714" d="M-245.853-2.104
				c2.394-2.631,8.431-3.868,10.427-1.989c1.995,1.88,8.325,8.38,8.325,8.38"/>
		</g>
		<g id="g106" transform="translate(407.9062,117.5596)">
			<path id="path108" inkscape:connector-curvature="0" fill="none" stroke="#666666" stroke-width="0.714" d="M-242.024,105.491
				c-0.398,4.887-3.989,15.037-3.989,15.037"/>
		</g>
		<g id="g110" transform="translate(409.8105,115.1572)">
			<path id="path112" inkscape:connector-curvature="0" fill="none" stroke="#666666" stroke-width="0.714" d="M-241.548,110.897
				c-0.398,5.639-3.99,13.909-3.99,13.909"/>
		</g>
		<g id="g114" transform="translate(411.7285,110.9355)">
			<path id="path116" inkscape:connector-curvature="0" fill="none" stroke="#666666" stroke-width="0.714" d="M-241.068,120.395
				c-0.397,5.641-3.192,10.904-3.192,10.904"/>
		</g>
		<g id="g118" transform="translate(413.9668,105.5205)">
			<path id="path120" inkscape:connector-curvature="0" fill="none" stroke="#666666" stroke-width="0.714" d="M-240.509,132.579
				c-1.595,5.264-3.192,8.647-3.192,8.647"/>
		</g>
		<g id="g122" transform="translate(415.2461,101.3125)">
			<path id="path124" inkscape:connector-curvature="0" fill="none" stroke="#666666" stroke-width="0.714" d="M-240.189,142.047
				c-0.798,3.76-2.792,7.519-2.792,7.519"/>
		</g>
		<g id="g126" transform="translate(416.8447,98.6055)">
			<path id="path128" inkscape:connector-curvature="0" fill="none" stroke="#666666" stroke-width="0.714" d="M-239.789,148.138
				c0,2.257-1.198,4.888-1.198,4.888"/>
		</g>
		<g id="g130" transform="translate(374.3896,115.1572)">
			<path id="path132" inkscape:connector-curvature="0" fill="none" stroke="#666666" stroke-width="0.714" d="M-250.403,110.897
				c-0.797,6.39-2.74,7.773-4.845,4.938c0.283,2.952-1.49,4.882-4.678,3.655c-0.799,1.021-2.848,2.31-2.848,2.31"/>
		</g>
		<g id="g134" transform="translate(361.2949,107.6309)">
			<path id="path136" inkscape:connector-curvature="0" fill="none" stroke="#666666" stroke-width="0.714" d="M-253.676,127.83
				c-0.799,3.008-1.197,7.145-4.39,6.392"/>
		</g>
		<g id="g138" transform="translate(345.3359,145.2207)">
			<path id="path140" inkscape:connector-curvature="0" fill="none" stroke="#666666" stroke-width="0.714" d="M-257.667,43.254
				c3.191,0.376,5.587,0.376,5.587,0.376"/>
		</g>
		<g id="g142" transform="translate(347.2539,141.625)">
			<path id="path144" inkscape:connector-curvature="0" fill="none" stroke="#666666" stroke-width="0.714" d="M-257.187,51.344
				l6.384,0.752"/>
		</g>
		<g id="g146" transform="translate(350.4512,138.3057)">
			<path id="path148" inkscape:connector-curvature="0" fill="none" stroke="#666666" stroke-width="0.714" d="M-256.387,58.811
				c4.39,2.257,7.183,1.129,7.183,1.129"/>
		</g>
		<g id="g150" transform="translate(353.6348,134.6953)">
			<path id="path152" inkscape:connector-curvature="0" fill="none" stroke="#666666" stroke-width="0.714" d="M-255.592,66.936
				c3.192,1.504,6.784,0,6.784,0"/>
		</g>
		<g id="g154" transform="translate(358.4307,130.4883)">
			<path id="path156" inkscape:connector-curvature="0" fill="none" stroke="#666666" stroke-width="0.714" d="M-254.392,76.401
				c4.788,0.753,7.181-1.879,7.181-1.879"/>
		</g>
		<g id="g158" transform="translate(403.75,67.625)">
			<path id="path160" inkscape:connector-curvature="0" fill="none" stroke="#666666" stroke-width="0.714" d="M-243.062,217.844
				c-1.997-6.391-10.774-13.911-10.774-13.911"/>
		</g>
		<g id="g162" transform="translate(398.9678,67.625)">
			<path id="path164" inkscape:connector-curvature="0" fill="none" stroke="#666666" stroke-width="0.714" d="M-244.259,217.844
				c-0.799-4.888-9.576-13.535-9.576-13.535"/>
		</g>
		<g id="g166" transform="translate(395.4502,68.833)">
			<path id="path168" inkscape:connector-curvature="0" fill="none" stroke="#666666" stroke-width="0.714" d="M-245.137,215.126
				c-0.399-3.008-9.177-10.904-9.177-10.904"/>
		</g>
		<g id="g170" transform="translate(393.2129,69.4297)">
			<path id="path172" inkscape:connector-curvature="0" fill="none" stroke="#666666" stroke-width="0.714" d="M-245.697,213.783
				c-1.996-2.631-9.178-7.52-9.178-7.52"/>
		</g>
		<g id="g174" transform="translate(390.3486,67.9307)">
			<path id="path176" inkscape:connector-curvature="0" fill="none" stroke="#666666" stroke-width="0.714" d="M-246.413,217.155
				c0.398-2.631-3.592-4.136-3.592-4.136"/>
		</g>
		<g id="g178" transform="translate(413.0078,72.1387)">
			<path id="path180" inkscape:connector-curvature="0" fill="none" stroke="#666666" stroke-width="0.714" d="M-240.748,207.687
				c-5.187,2.257-11.173-1.127-11.971-5.64c-0.797-4.51-9.176-6.014-9.176-6.014"/>
		</g>
		<g id="g182" transform="translate(410.5889,177.0757)">
			<path id="path184" inkscape:connector-curvature="0" fill="none" stroke="#666666" stroke-width="0.714" d="M-241.353-28.42
				c1.797,1.771,3.979,1.719,5.982,1.36c2.007-0.36,7.499-3.06,8.178-3.467"/>
		</g>
		<g id="g186" transform="translate(417.1641,171.395)">
			<path id="path188" inkscape:connector-curvature="0" fill="none" stroke="#666666" stroke-width="0.714" d="M-239.709-15.639
				c1.996-2.255,8.378-2.631,8.378-2.631"/>
		</g>
		<g id="g190" transform="translate(398.7871,160.3569)">
			<path id="path192" inkscape:connector-curvature="0" fill="#FFFFFF" d="M-244.303,9.197c-4.789-1.878-8.548-2.898-13.335-2.522
				c-4.789,0.376-10.773-1.503-11.97-4.136c-1.198-2.631-3.991-7.143-7.582-7.519c-1.796-0.188-4.479,0.987-5.94,2.38
				c1.31,0.745,2.449,2.93,3.446,4.81c2.523,4.527,8.878,13.864,17.257,9.353c3.192-1.88,9.178-1.468,11.571-1.091
				C-248.463,10.847-243.905,9.573-244.303,9.197"/>
		</g>
		<g id="g194" transform="translate(398.7871,160.3569)">
			<path id="path196" inkscape:connector-curvature="0" fill="none" stroke="#000000" stroke-width="0.714" d="M-244.303,9.197
				c-4.789-1.878-8.548-2.898-13.335-2.522c-4.789,0.376-10.773-1.503-11.97-4.136c-1.198-2.631-3.991-7.143-7.582-7.519
				c-1.796-0.188-4.479,0.987-5.94,2.38c1.31,0.745,2.449,2.93,3.446,4.81c2.523,4.527,8.878,13.864,17.257,9.353
				c3.192-1.88,9.178-1.468,11.571-1.091C-248.463,10.847-243.905,9.573-244.303,9.197z"/>
		</g>
		<g id="g198" transform="translate(353.0645,163.7031)">
			<path id="path200" inkscape:connector-curvature="0" fill="#FFFFFF" d="M-255.734,1.668c5.787-8.129-2.39-17.581-5.981-17.956
				c0.799,2.631,3.592,6.766,0.399,11.279c2.793,3.007,3.987,5.127,5.582,6.63V1.668z"/>
		</g>
		<g id="g202" transform="translate(353.0645,163.7031)">
			<path id="path204" inkscape:connector-curvature="0" fill="none" stroke="#000000" stroke-width="0.714" d="M-255.734,1.668
				c5.787-8.129-2.39-17.581-5.981-17.956c0.799,2.631,3.592,6.766,0.399,11.279c2.793,3.007,3.987,5.127,5.582,6.63V1.668
				L-255.734,1.668z"/>
		</g>
		<g id="g206" transform="translate(343.7646,172.4155)">
			<path id="path208" inkscape:connector-curvature="0" fill="#FFFFFF" d="M-258.059-17.935c-2.712-9.465-15.139-9.469-17.856-7.224
				c2.602,1.22,7.726,2.066,9.106,7.33C-262.569-17.744-260.314-17.839-258.059-17.935"/>
		</g>
		<g id="g210" transform="translate(343.7646,172.4155)">
			<path id="path212" inkscape:connector-curvature="0" fill="none" stroke="#000000" stroke-width="0.714" d="M-258.059-17.935
				c-2.712-9.465-15.139-9.469-17.856-7.224c2.602,1.22,7.726,2.066,9.106,7.33C-262.569-17.744-260.314-17.839-258.059-17.935z"/>
		</g>
		<g id="g214" transform="translate(331.6016,166.1919)">
			<path id="path216" inkscape:connector-curvature="0" fill="#FFFFFF" d="M-261.099-3.932c-11.403-3.39-15.654,2.601-16.392,5.934
				c2.856-0.5,7.49-2.729,11.954,0.692c3.44-2.335,2.706-5.193,4.445-6.549L-261.099-3.932z"/>
		</g>
		<g id="g218" transform="translate(331.6016,166.1919)">
			<path id="path220" inkscape:connector-curvature="0" fill="none" stroke="#000000" stroke-width="0.714" d="M-261.099-3.932
				c-11.403-3.39-15.654,2.601-16.392,5.934c2.856-0.5,7.49-2.729,11.954,0.692c3.44-2.335,2.706-5.193,4.445-6.549L-261.099-3.932z
				"/>
		</g>
		<g id="g222" transform="translate(357.708,66.7227)">
			<path id="path224" inkscape:connector-curvature="0" fill="#FFFFFF" d="M-254.573,219.874c-8.21-6.022-18.937,0.646-18.875,4.353
				c2.856-0.5,8.702-1.738,13.169,1.684C-256.839,223.575-256.313,221.228-254.573,219.874L-254.573,219.874z"/>
		</g>
		<g id="g226" transform="translate(357.708,66.7227)">
			<path id="path228" inkscape:connector-curvature="0" fill="none" stroke="#000000" stroke-width="0.714" d="M-254.573,219.874
				c-8.21-6.022-18.937,0.646-18.875,4.353c2.856-0.5,8.702-1.738,13.169,1.684C-256.839,223.575-256.313,221.228-254.573,219.874
				L-254.573,219.874z"/>
		</g>
		<g id="g230" transform="translate(341.1514,115.5879)">
			<path id="path232" inkscape:connector-curvature="0" fill="#FFFFFF" d="M-258.713,109.928c-6.612-7.57-17.935-2.746-19.429,0.354
				c2.901,0.102,7.941-1.117,11.503,3.143C-262.737,111.854-260.725,110.891-258.713,109.928L-258.713,109.928z"/>
		</g>
		<g id="g234" transform="translate(341.1514,115.5879)">
			<path id="path236" inkscape:connector-curvature="0" fill="none" stroke="#000000" stroke-width="0.714" d="M-258.713,109.928
				c-6.612-7.57-17.935-2.746-19.429,0.354c2.901,0.102,7.941-1.117,11.503,3.143C-262.737,111.854-260.725,110.891-258.713,109.928
				L-258.713,109.928z"/>
		</g>
		<g id="g238" transform="translate(331.3086,107.6729)">
			<path id="path240" inkscape:connector-curvature="0" fill="#FFFFFF" d="M-261.174,127.735
				c-12.243-4.572-14.878-0.008-16.184,3.166c2.905-0.053,8.438-0.666,12.252,3.395
				C-261.306,132.52-262.868,129.405-261.174,127.735"/>
		</g>
		<g id="g242" transform="translate(331.3086,107.6729)">
			<path id="path244" inkscape:connector-curvature="0" fill="none" stroke="#000000" stroke-width="0.714" d="M-261.174,127.735
				c-12.243-4.572-14.878-0.008-16.184,3.166c2.905-0.053,8.438-0.666,12.252,3.395
				C-261.306,132.52-262.868,129.405-261.174,127.735z"/>
		</g>
		<g id="g246" transform="translate(328.2227,95.7441)">
			<path id="path248" inkscape:connector-curvature="0" fill="#FFFFFF" d="M-261.944,154.576c-9.483,1.127-10.14,8.445-9.064,11.695
				c2.237-1.744,5.138-5.814,10.806-4.869C-258.401,157.785-262.765,156.556-261.944,154.576"/>
		</g>
		<g id="g250" transform="translate(328.2227,95.7441)">
			<path id="path252" inkscape:connector-curvature="0" fill="none" stroke="#000000" stroke-width="0.714" d="M-261.944,154.576
				c-9.483,1.127-10.14,8.445-9.064,11.695c2.237-1.744,5.138-5.814,10.806-4.869C-258.401,157.785-262.765,156.556-261.944,154.576
				z"/>
		</g>
		<g id="g254" transform="translate(346.5723,56.9609)">
			<path id="path256" inkscape:connector-curvature="0" fill="#FFFFFF" d="M-257.357,241.838
				c-10.281-1.502-12.531,7.317-11.457,10.568c2.238-1.744,5.537-3.935,11.203-2.99
				C-255.808,245.801-258.178,243.819-257.357,241.838"/>
		</g>
		<g id="g258" transform="translate(346.5723,56.9609)">
			<path id="path260" inkscape:connector-curvature="0" fill="none" stroke="#000000" stroke-width="0.714" d="M-257.357,241.838
				c-10.281-1.502-12.531,7.317-11.457,10.568c2.238-1.744,5.537-3.935,11.203-2.99
				C-255.808,245.801-258.178,243.819-257.357,241.838z"/>
		</g>
		<g id="g262" transform="translate(351.1738,43.7412)">
			<path id="path264" inkscape:connector-curvature="0" fill="#FFFFFF" d="M-256.207,271.583
				c-9.772,3.359-7.512,13.899-4.905,16.256c1.067-2.545,3.141-7.656,8.585-9.408C-252.801,274.442-255.912,273.69-256.207,271.583"
				/>
		</g>
		<g id="g266" transform="translate(351.1738,43.7412)">
			<path id="path268" inkscape:connector-curvature="0" fill="none" stroke="#000000" stroke-width="0.714" d="M-256.207,271.583
				c-9.772,3.359-7.512,13.899-4.905,16.256c1.067-2.545,3.141-7.656,8.585-9.408C-252.801,274.442-255.912,273.69-256.207,271.583z
				"/>
		</g>
		<g id="g270" transform="translate(426.2002,36.5195)">
			<path id="path272" inkscape:connector-curvature="0" fill="#FFFFFF" d="M-237.45,287.831c-9.043-4.851-14.848,1.806-15.069,5.202
				c2.752-0.879,5.705-2.68,10.646,0.101C-238.825,290.357-238.966,289.406-237.45,287.831"/>
		</g>
		<g id="g274" transform="translate(426.2002,36.5195)">
			<path id="path276" inkscape:connector-curvature="0" fill="none" stroke="#000000" stroke-width="0.714" d="M-237.45,287.831
				c-9.043-4.851-14.848,1.806-15.069,5.202c2.752-0.879,5.705-2.68,10.646,0.101C-238.825,290.357-238.966,289.406-237.45,287.831z
				"/>
		</g>
		<g id="g278" transform="translate(420.084,28.8555)">
			<path id="path280" inkscape:connector-curvature="0" fill="#FFFFFF" d="M-238.979,305.075
				c-9.045-2.907-15.438,4.349-15.362,7.754c2.665-1.091,7.845-3.115,13.011-0.727c2.798-3.003,0.978-4.962,2.352-6.651l-0.05-0.046
				L-238.979,305.075z"/>
		</g>
		<g id="g282" transform="translate(420.084,28.8555)">
			<path id="path284" inkscape:connector-curvature="0" fill="none" stroke="#000000" stroke-width="0.714" d="M-238.979,305.075
				c-9.045-2.907-15.438,4.349-15.362,7.754c2.665-1.091,7.845-3.115,13.011-0.727c2.798-3.003,0.978-4.962,2.352-6.651l-0.05-0.046
				L-238.979,305.075z"/>
		</g>
		<g id="g286" transform="translate(424.9072,19.8574)">
			<path id="path288" inkscape:connector-curvature="0" fill="#FFFFFF" d="M-237.773,325.32c-7.335,6.953-2.099,15.291,1.323,16.382
				c-0.183-2.731,0.016-7.513,4.158-11.276C-234.338,326.925-236.556,327.113-237.773,325.32"/>
		</g>
		<g id="g290" transform="translate(424.9072,19.8574)">
			<path id="path292" inkscape:connector-curvature="0" fill="none" stroke="#000000" stroke-width="0.714" d="M-237.773,325.32
				c-7.335,6.953-2.099,15.291,1.323,16.382c-0.183-2.731,0.016-7.513,4.158-11.276
				C-234.338,326.925-236.556,327.113-237.773,325.32z"/>
		</g>
		<g id="g294" transform="translate(442.9102,21.2734)">
			<path id="path296" inkscape:connector-curvature="0" fill="#FFFFFF" d="M-233.272,322.135c3.809,9.124-3.374,13.099-6.976,12.822
				c1.316-2.439,3.299-4.119,1.079-9.121C-235.818,323.387-235.144,323.324-233.272,322.135"/>
		</g>
		<g id="g298" transform="translate(442.9102,21.2734)">
			<path id="path300" inkscape:connector-curvature="0" fill="none" stroke="#000000" stroke-width="0.714" d="M-233.272,322.135
				c3.809,9.124-3.374,13.099-6.976,12.822c1.316-2.439,3.299-4.119,1.079-9.121C-235.818,323.387-235.144,323.324-233.272,322.135z
				"/>
		</g>
		<g id="g302" transform="translate(370.7061,39.3115)">
			<path id="path304" inkscape:connector-curvature="0" fill="#FFFFFF" d="M-251.324,281.55c-1.344,9.722-12.061,11.67-15.072,9.788
				c2.402-1.538,6.25-5.142,6.87-10.532C-255.335,280.186-253.572,281.737-251.324,281.55"/>
		</g>
		<g id="g306" transform="translate(370.7061,39.3115)">
			<path id="path308" inkscape:connector-curvature="0" fill="none" stroke="#000000" stroke-width="0.714" d="M-251.324,281.55
				c-1.344,9.722-12.061,11.67-15.072,9.788c2.402-1.538,6.25-5.142,6.87-10.532C-255.335,280.186-253.572,281.737-251.324,281.55z"
				/>
		</g>
		<g id="g310" transform="translate(346.7119,89.2461)">
			<path id="path312" inkscape:connector-curvature="0" fill="#FFFFFF" d="M-257.322,169.196
				c-1.343,9.722-11.661,9.038-14.673,7.157c2.404-1.537,4.967-1.52,5.586-6.911C-262.218,168.824-259.57,169.387-257.322,169.196
				L-257.322,169.196z"/>
		</g>
		<g id="g314" transform="translate(346.7119,89.2461)">
			<path id="path316" inkscape:connector-curvature="0" fill="none" stroke="#000000" stroke-width="0.714" d="M-257.322,169.196
				c-1.343,9.722-11.661,9.038-14.673,7.157c2.404-1.537,4.967-1.52,5.586-6.911C-262.218,168.824-259.57,169.387-257.322,169.196
				L-257.322,169.196z"/>
		</g>
		<g id="g318" transform="translate(332.7266,147.415)">
			<path id="path320" inkscape:connector-curvature="0" fill="#FFFFFF" d="M-260.818,38.316
				c-10.242-1.729-11.319-13.394-9.18-16.139c1.516,2.336,2.852,7.074,8.537,7.917C-261.004,34.066-260.911,36.191-260.818,38.316
				L-260.818,38.316z"/>
		</g>
		<g id="g322" transform="translate(332.7266,147.415)">
			<path id="path324" inkscape:connector-curvature="0" fill="none" stroke="#000000" stroke-width="0.714" d="M-260.818,38.316
				c-10.242-1.729-11.319-13.394-9.18-16.139c1.516,2.336,2.852,7.074,8.537,7.917C-261.004,34.066-260.911,36.191-260.818,38.316
				L-260.818,38.316z"/>
		</g>
		<g id="g326" transform="translate(397.3408,177.0342)">
			<path id="path328" inkscape:connector-curvature="0" fill="none" stroke="#000000" stroke-width="0.714" d="M-244.665-28.327
				c-1.706,10.936,6.145,9.971,7.851,0.644"/>
		</g>
		<g id="g330" transform="translate(401.1172,173.5605)">
			<path id="path332" inkscape:connector-curvature="0" d="M-243.72-20.511c0,1.079-0.743,1.954-1.659,1.954
				c-0.918,0-1.659-0.875-1.659-1.954s0.741-1.954,1.659-1.954C-244.464-22.465-243.72-21.59-243.72-20.511"/>
		</g>
		<g id="g334" transform="translate(401.1172,173.5605)">
			<path id="path336" inkscape:connector-curvature="0" fill="none" stroke="#000000" d="M-243.72-20.511
				c0,1.079-0.743,1.954-1.659,1.954c-0.918,0-1.659-0.875-1.659-1.954s0.741-1.954,1.659-1.954
				C-244.464-22.465-243.72-21.59-243.72-20.511z"/>
		</g>
		<g id="g338" transform="translate(382.6895,102.2148)">
			<path id="path340" inkscape:connector-curvature="0" fill="none" stroke="#000000" stroke-width="0.714" d="M-248.328,140.017
				c1.196,4.886,2.793,12.03,6.383,14.661c3.591,2.631,11.971,6.016,17.956,7.143c5.985,1.129,11.171,5.264,13.166,9.023
				c1.996,3.76,0.799,9.023,0.799,9.023"/>
		</g>
		<g id="g342" transform="translate(384.2871,140.416)">
			<path id="path344" inkscape:connector-curvature="0" fill="none" stroke="#000000" stroke-width="0.714" d="M-247.928,54.064
				c-5.983,2.256-9.185,7.674-13.965,11.066c-2.851,1.94-8.655,5.67-11.57,6.227c2.82,1.787,9.282,3.283,14.49,0.686
				c-1.86,7.672,2.718,7.588,2.666,19.616c3.054-0.339,6.384-6.768,7.183-10.151s-0.488-6.775,1.036-9.605
				c-0.042,2.986,0.978,5.44,2.973,8.447c1.995,3.01,2.375,6.045,1.178,9.053c4.979-3.898,3.915-11.899,3.845-16.959
				c2.434,2.229,2.973,9.917,1.341,15.08c2.279-0.66,4.628-2.007,5.761-8.352c1.828,2.904,3.971,12.453,3.019,14.743
				c3.393,0.077,6.353-4.556,6.021-9.808c0.623,0.479,2.326,2.229,2.949,2.847c0.712-2.003-0.314-5.646-0.07-8.456
				c0.767,0.709,2.434,1.822,3.055,2.716c0.881,0.812,2.953,3.495,5.996,4.723"/>
		</g>
		<g id="g346" transform="translate(417.4844,153.6499)">
			<path id="path348" inkscape:connector-curvature="0" fill="none" stroke="#000000" stroke-width="0.714" d="M-239.629,24.288
				c5.186,3.008,10.273,7.801,10.273,22.839"/>
		</g>
		<g id="g350" transform="translate(413.9668,148.2344)">
			<path id="path352" inkscape:connector-curvature="0" fill="none" stroke="#000000" stroke-width="0.714" d="M-240.509,36.473
				c5.586,4.137,7.58,9.023,6.784,15.039c-0.799,6.016-3.616,5.529-3.592,10.525c-0.054,2.195,2.396,5.771,3.99,7.896
				c1.834,2.374,2.863,6.332,2.318,8.475"/>
		</g>
		<g id="g354" transform="translate(419.1943,135.3066)">
			<path id="path356" inkscape:connector-curvature="0" fill="none" stroke="#000000" stroke-width="0.714" d="M-239.202,65.561
				c0.398,4.887,0.059,7.501,1.845,10.527c1.603,2.52,3.189,11.22,0.874,16.346"/>
		</g>
		<g id="g358" transform="translate(410.7695,136.209)">
			<path id="path360" inkscape:connector-curvature="0" fill="none" stroke="#000000" stroke-width="0.714" d="M-241.308,63.529
				c3.592,4.512,0,5.641-1.196,9.4c-1.197,3.759,2.668,5.66,4.353,10.121"/>
		</g>
		<g id="g362" transform="translate(407.2666,138.916)">
			<path id="path364" inkscape:connector-curvature="0" fill="none" stroke="#000000" stroke-width="0.714" d="M-242.183,57.439
				c0.799,5.264,0,7.143-1.597,10.525c-1.596,3.385-3.195,8.447-0.414,12.051"/>
		</g>
		<g id="g366" transform="translate(402.1504,131.085)">
			<path id="path368" inkscape:connector-curvature="0" fill="none" stroke="#000000" stroke-width="0.714" d="M-243.463,75.059
				c-2.394,5.64-2.425,13.915,1.565,18.425"/>
		</g>
		<g id="g370" transform="translate(399.9268,135.9033)">
			<path id="path372" inkscape:connector-curvature="0" fill="none" stroke="#000000" stroke-width="0.714" d="M-244.018,64.218
				c-5.187,4.512-6.579,13.984-4.405,19.881"/>
		</g>
		<g id="g374" transform="translate(387.791,131.6953)">
			<path id="path376" inkscape:connector-curvature="0" fill="none" stroke="#000000" stroke-width="0.714" d="M-247.052,73.686
				c-1.995,2.256-3.97,4.861-4.577,6.99"/>
		</g>
		<g id="g378" transform="translate(387.791,138.0137)">
			<path id="path380" inkscape:connector-curvature="0" fill="none" stroke="#000000" stroke-width="0.714" d="M-247.052,59.469
				c-1.995,3.385-6.678,6.257-10.269,7.76c-3.592,1.504-5.293,7.278-5.293,7.278"/>
		</g>
		<g id="g382" transform="translate(418.4297,167.7856)">
			<path id="path384" inkscape:connector-curvature="0" fill="none" stroke="#000000" stroke-width="0.714" d="M-239.392-7.518
				c3.988-3.384,9.574-3.76,9.574-3.76s1.996,5.264,0.399,7.895c-1.596,2.633-9.974,2.633-9.974,2.633"/>
		</g>
		<g id="g386" transform="translate(374.4385,140.8184)">
			<path id="path388" inkscape:connector-curvature="0" fill="none" stroke="#000000" stroke-width="0.714" d="M-250.39,53.158
				c-1.385,1.052-2.794,2.738-2.615,4.145c1.996,0,8.39,0.559,8.39,0.559"/>
		</g>
		<g id="g390" transform="translate(402.1504,153.9551)">
			<path id="path392" inkscape:connector-curvature="0" fill="none" stroke="#000000" stroke-width="0.714" d="M-243.463,23.601
				c0.799,3.759,1.996,7.895,0.799,10.528c-1.196,2.631,7.183-3.76,5.985-6.769c-1.198-3.006,3.19,1.504,1.993,4.888
				c-1.196,3.385,5.986-4.512,5.188-8.271c-0.798-3.76,2.395-1.129,2.395,2.255s3.59-4.511,2.792-6.391l-0.797-1.88"/>
		</g>
		<g id="g394" transform="translate(375.6113,123.2529)">
			<path id="path396" inkscape:connector-curvature="0" fill="none" stroke="#000000" stroke-width="0.714" d="M-250.097,92.681
				c-4.438,0.645-10.051,1.93-12.784,4.182"/>
		</g>
		<g id="g398" transform="translate(397.2988,176.5703)">
			<path id="path400" inkscape:connector-curvature="0" fill="none" stroke="#000000" stroke-width="0.625" d="M-244.676-27.283
				c1.71,0.64,5.982,1.28,7.478,0.427"/>
		</g>
	</g>
	<g id="g438" transform="translate(472.2549,234.1562)">
		<path id="path440" inkscape:connector-curvature="0" fill="#FFD203" d="M-191.395-172.939c9.096-3.596,13.574-9.04,14.056-16.726
			c0.309-4.619-4.307-10.039-9.25-10.164c-15.44-0.417-20.602,24.727-20.509,30.864c0.654-0.001,3.864-0.066,4.662-0.035
			c0.704-3.875,0.099-8.624,5.033-12.628c4.933-4.004,7.114-0.953,7.73,1.511C-189.055-177.652-191.95-172.689-191.395-172.939z"/>
	</g>
	<g id="g442" transform="translate(432.2803,234.1562)">
		<path id="path444" inkscape:connector-curvature="0" fill="#FFD203" d="M-192.657-172.939c-9.096-3.596-13.574-9.04-14.056-16.726
			c-0.309-4.619,4.307-10.039,9.25-10.164c15.439-0.417,20.601,24.727,20.508,30.864c-0.651-0.001-3.863-0.066-4.661-0.035
			c-0.704-3.875-0.099-8.625-5.033-12.628c-4.933-4.004-7.114-0.953-7.731,1.511C-194.996-177.652-192.101-172.689-192.657-172.939z
			"/>
	</g>
	<g id="g446" transform="translate(452.3916,288.6538)">
		<path id="path448" inkscape:connector-curvature="0" fill="#FFD203" d="M-192.022-283.654
			c10.492,10.896,13.308,21.979,6.312,39.732c-2.398,5.929-3.413,13.045-3.316,20.44c-1.015,0.023-5.338-0.026-6.362-0.099
			c0.091-7.305-1.123-14.995-3.512-21.022c-8.101-18.129-2.262-30.428,6.6-39.051h0.139H-192.022z"/>
	</g>
	<g id="g450" transform="translate(457.7354,226.2622)">
		<path id="path452" inkscape:connector-curvature="0" fill="#FFD203" d="M-191.853-156.902c2.148,5.726,5.939,7.89,9.038,9.408
			c-4.723,2.233-10.182-0.193-11.21-1.348c0.125,1.615,0.253,5.979-0.336,8.925c-0.4,2.376-1.411,3.746-3.119,5.642
			c-1.77-1.853-2.864-3.345-3.456-5.45c-0.716-3.057,0.042-7.391-0.02-9.01c-0.82,1.007-7.353,3.429-11.651,1.324
			c4.003-1.742,7.88-3.771,9.143-9.598c0.468,0.029,10.431,0.023,11.612,0.023V-156.902z"/>
	</g>
	<path id="path454" inkscape:connector-curvature="0" fill="#FFD203" d="M247.681,65.345h24.859v3.694h-24.859V65.345z"/>
	<g id="g456" transform="translate(269.9883,234.1562)">
		<path id="path458" inkscape:connector-curvature="0" fill="#FFD203" d="M-197.777-172.939c9.096-3.596,13.573-9.04,14.056-16.726
			c0.309-4.619-4.309-10.039-9.251-10.164c-15.439-0.417-20.601,24.727-20.508,30.864c0.652-0.001,3.863-0.066,4.661-0.035
			c0.703-3.875,0.1-8.624,5.033-12.628c4.934-4.004,7.114-0.953,7.732,1.511C-195.439-177.652-198.333-172.689-197.777-172.939z"/>
	</g>
	<g id="g460" transform="translate(230.0132,234.1562)">
		<path id="path462" inkscape:connector-curvature="0" fill="#FFD203" d="M-199.038-172.939c-9.096-3.596-13.574-9.04-14.056-16.726
			c-0.308-4.619,4.308-10.039,9.25-10.164c15.439-0.417,20.601,24.727,20.508,30.864c-0.652-0.001-3.863-0.066-4.66-0.035
			c-0.704-3.875-0.1-8.625-5.033-12.628c-4.934-4.004-7.115-0.953-7.732,1.511C-201.376-177.652-198.483-172.689-199.038-172.939z"
			/>
	</g>
	<g id="g464" transform="translate(250.125,288.6538)">
		<path id="path466" inkscape:connector-curvature="0" fill="#FFD203" d="M-198.403-283.654
			c10.49,10.896,13.307,21.979,6.312,39.732c-2.399,5.929-3.415,13.045-3.316,20.44c-1.015,0.023-5.338-0.026-6.362-0.099
			c0.091-7.305-1.123-14.995-3.512-21.022c-8.101-18.129-2.264-30.428,6.6-39.051h0.139H-198.403z"/>
	</g>
	<g id="g468" transform="translate(255.4678,226.2622)">
		<path id="path470" inkscape:connector-curvature="0" fill="#FFD203" d="M-198.235-156.902c2.149,5.726,5.938,7.89,9.039,9.408
			c-4.723,2.233-10.182-0.193-11.21-1.348c0.125,1.615,0.252,5.979-0.338,8.925c-0.398,2.376-1.41,3.746-3.118,5.642
			c-1.77-1.853-2.865-3.345-3.455-5.45c-0.717-3.057,0.042-7.391-0.022-9.01c-0.819,1.007-7.352,3.429-11.65,1.324
			c4.002-1.742,7.881-3.771,9.143-9.598c0.468,0.029,10.432,0.023,11.613,0.023v0.084H-198.235z"/>
	</g>
	<path id="path472" inkscape:connector-curvature="0" fill="#FFD203" d="M39.032,65.345h24.859v3.694H39.032V65.345z"/>
	<g id="g474" transform="translate(371.1221,234.1562)">
		<path id="path476" inkscape:connector-curvature="0" fill="#FFD203" d="M-194.586-172.939c9.096-3.596,13.574-9.04,14.056-16.726
			c0.309-4.619-4.308-10.039-9.25-10.164c-15.44-0.417-20.602,24.727-20.507,30.864c0.65-0.001,3.862-0.066,4.66-0.035
			c0.704-3.875,0.099-8.624,5.033-12.628c4.933-4.004,7.113-0.953,7.73,1.511C-192.247-177.652-195.141-172.689-194.586-172.939z"/>
	</g>
	<g id="g478" transform="translate(331.1465,234.1562)">
		<path id="path480" inkscape:connector-curvature="0" fill="#FFD203" d="M-195.847-172.939c-9.096-3.596-13.573-9.04-14.055-16.726
			c-0.309-4.619,4.308-10.039,9.25-10.164c15.439-0.417,20.601,24.727,20.508,30.864c-0.651-0.001-3.863-0.066-4.661-0.035
			c-0.704-3.875-0.098-8.625-5.033-12.628c-4.934-4.004-7.114-0.953-7.73,1.511C-198.186-177.652-195.291-172.689-195.847-172.939z"
			/>
	</g>
	<g id="g482" transform="translate(351.2588,288.6538)">
		<path id="path484" inkscape:connector-curvature="0" fill="#FFD203" d="M-195.213-283.654
			c10.492,10.896,13.308,21.979,6.312,39.732c-2.399,5.929-3.414,13.045-3.316,20.44c-1.015,0.023-5.338-0.026-6.363-0.099
			c0.091-7.305-1.123-14.995-3.514-21.022c-8.099-18.129-2.261-30.428,6.6-39.051h0.141H-195.213z"/>
	</g>
	<g id="g486" transform="translate(356.6016,226.2622)">
		<path id="path488" inkscape:connector-curvature="0" fill="#FFD203" d="M-195.044-156.902c2.147,5.726,5.939,7.89,9.038,9.408
			c-4.723,2.233-10.183-0.193-11.21-1.348c0.125,1.615,0.253,5.979-0.337,8.925c-0.4,2.376-1.411,3.746-3.119,5.642
			c-1.771-1.853-2.864-3.345-3.456-5.45c-0.716-3.057,0.043-7.391-0.021-9.01c-0.818,1.007-7.352,3.429-11.649,1.324
			c4.001-1.742,7.88-3.771,9.143-9.598c0.467,0.029,10.431,0.023,11.611,0.023V-156.902z"/>
	</g>
	<path id="path490" inkscape:connector-curvature="0" fill="#FFD203" d="M143.357,65.345h24.859v3.694h-24.859V65.345z"/>
</g>
<g>
	<g id="g26_1_" transform="translate(413.3555,69.8887)">
		<path id="path28_1_" inkscape:connector-curvature="0" d="M73.957,155.086c-10.768,5.636-21.013,5.974-28.19,2.593
			c-7.178-3.382,1.196,4.508,4.784,7.89c3.589,3.381,2.394,6.763,2.394,10.144c0,3.383-0.064,7.763,0.898,11.83
			c-7.177,1.128-14.057-1.686-20.038-5.065c3.521,3.87,3.032,6.134,5.686,9.167c-6.061,0.052-11.779-5.091-16.783-7.61
			c2.596,3.03,4.787,7.76,7.015,11.224c-4.888,0.5-10.698-5.336-13.069-7.273c0.765,1.518,2.316,8.093,3.107,12.312
			c-5.845-1.44-7.24-9.987-11.524-9.338c0.015,0.946-1.187,4.037,0.093,6.926c2.529,5.713-3.219,3.359-5.118,2.905
			c-5.02,0.058-6.427,1.42-5.454-5.948c-1.195-2.255-4.623-4.478-4.623,0.034c0,4.508-3.157,10.086-6.228,10.086
			c-3.069,0-4.944-3.847-6.116-7.043c-5.514-4.219-2.505-7.786,2.281-6.658c4.784,1.129,1.172-6.764-2.416-4.51
			c-3.59,2.254-10.791,2.305-9.594-1.08c1.195-3.382,1.874-6.064,0.677-10.572c-1.195-4.51,4.403-3.743,6.796-1.489
			c2.391,2.256,3.452,4.997,8.236,3.871c4.786-1.128,0.357-4.999-3.23-6.147c-3.59,0-3.232-4.307,2.465-7.02
			c3.973-6.732,9.844-7.472,8.893-0.513c0,3.384,1.615,10.17,16.18,8.531c10.767-1.128,12.557-9.307,8.238-13.607
			c-2.689-2.126-5.537-6.466-5.918-14.578c-1.751,1.432-4.138,2.528-7.389,2.607c-5.51,0.332-7.331-2.02-12.063-3.907
			c2.948-1.545,7.327-3.938,11.624-3.157c3.541,0.036,6.975-1.858,8.281-5.193c2.395-5.635,7.576-5.67,12.235-4.637
			c5.217,1.22,17.733,0.617,17.733-1.637c-5.742-1.702-12.805-6.732-15.224-13.716c-0.012,5.207-3.155,8.64-7.776,7.708
			c-2.236-0.513-5.509-0.339-7.593-0.226c2.561-1.95,6.31-8.386,3.266-12.677c-1.396-2.02-1.717-6.056-1.437-8.536
			c-0.875,0.697-3.57,5.016-1.561,8.331c-3.272,0.298-5.832-3.741-9.632-4.973c-0.677,1.302,1.547,4.449,2.055,5.911
			c-1.708,0.53-2.857,1.172-7.518-0.972c-1.237,3.323-0.599,4.874-0.891,6.061c-1.474-0.102-5.081-0.925-6.854-2.727
			c0.038,2.133-1.182,3.727-1.691,5.52c-2.337-0.465-4.366-1.069-6.411-3.673c-0.158,1.685-1.48,2.432-1.236,5.127
			c-3.198-0.151-6.866-4.679-10.909-7.915c-1.173,2.859,3.772,14.317,0.183,13.189c-5.487-1.383-11.331,2.43-11.493-1.847
			c1.196-3.382-0.651-3.453-4.24-0.071c-3.183,3.51-9.62,7.312-9.569-3.382c-4.159-5.832-2.775-7.529,3.613-6.738
			c5.979-1.128,8.397-3.543,3.725-4.869c-9.017,1.743-10.892-2.15-7.093-5.682c0.951-3.15,0.951-6.38,4.539-5.252
			c6.164,3.811,8.374,0,4.785-2.256c-3.589-2.254-2.802-5.043,2.959-6.762c3.452-4.532,7.807-3.382,7.807,1.126
			c-0.814,5.403,2.8,8.553,5.192,6.298c2.391-2.254,11.679-3.149,15.267-4.276S0.312,81.032,0.312,77.651
			c-7.906,0.271-12.688-1.462-15.463-3.189c-0.36-2.214-0.709-3.928,0.268-7.117c-7.802,3.946-11.181,2.037-13.355-0.031
			c1.721-1.577,4.508-7.28,5.702-9.418c-4.367,1.825-5.792,3.183-7.739,2.3c-0.815-2.23,0.633-4.481,1.151-6.25
			c-4.616,3.982-7.633,3.83-11.663,3.205c4.163-6.078,4.936-9.267,5.865-15.44c-2.795,1.251-5.819,1.046-7.67,1.162
			c-0.396-2.014-0.958-5.093-0.16-8.052c-5.64,1.395-9.213,2.812-7.448-4.148c0-3.381-1.383-7.658,3.859-5.997
			c2.394,0,2.257-4.1-1.332-4.1c-9.287-0.639-11.493-3.253-6.746-8.681c1.356-6.451,4.49-8.042,6.882-3
			c2.394,3.382,9.052,6.626,7.177,0c-4.315-6.625-7.141-12.292,1.197-11.271c7.523-1.917,7.474,2.463,5.327,7.123
			c-1.195,4.148,3.046,5.276,4.241,3.022c-0.433-4.299,2.293-7.427,6.093-2.894c4.747,5.555,6.351,8.809-0.221,12.318
			c-3.59,3.382,8.372,11.897,12.256,21.903c5.785,1.826,15.453,7.134,21.349,9.25c3.588-3.382,18.693-10.586,32.297-10.146
			c9.411,0.304,11.962-3.646,13.158-7.028c1.196-3.381-3.538-0.071-4.896-3.068c-2.034,2.501-5.55,2.407-7.042-0.872
			c-5.29,5.8-12.772,8.872-10.569-0.279c1.094-4.665,0.398-7.938,3.664-8.169c20.364,3.092,19.079-9.052,12.887-10.585
			c-6.914-1.642-18.07,7.201-16.476-5.426c0.748-5.932,0.493-3.766-1.898-4.894c-2.395-1.126,2.8-5.892,6.388-5.892
			c5.758-0.126,7.497-2.614,10.137-6.402c0.897-0.562,13.23-0.25,17.795-0.731c5.902-1.123,20.161-5.637,26.791-4.235
			c-1.804,4.301-3.854,3.986-4.987,6.787c4.667,0.691,9.988,2.392,11.051,2.824c-2.393,2.359-3.751,3.978-5.983,5.651
			c5.193,1.104,6.468,0.613,5.821,8.994c-0.106,5.773-0.519,13.316-7.696,13.316c-7.177,0,6.57,5.496,6.117,13.305
			c-0.462,6.094-0.754,15.047,3.156,20.231c2.453,3.344,5.97,11.13,0.926,15.571c-1.619-5.493-4.425-9.982-7.463-13.355
			c-1.748,2.285-3.263,7.004-1.515,9.777c2.144,3.529,2.07,7.169,2.07,11.678s-1.404,7.85-0.987,16.022
			c-1.993-0.562-4.576-3.09-5.909-5.724c-0.67,3.003-2.753,4.523-3.747,13c-4.58-3.597-5.893-7.842-5.584-10.4
			c0.11-7.937-1.056-6.842-3.448-11.352c-0.676,2.162-0.32,4.967,0.596,9.281c-3.588-2.255-4.811-2.6,0.87,6.48
			c4.683,7.337,6.052,27.704,15.388,32.413c5.979,1.128,8.743,6.275,12.331,8.532c3.589,2.251,10.37,0.983,18.004,10.502
			c13.741,9.901,24.086,0.937,16.45-12.991c-2.332-4.138-11.689-10.296-12.885-14.804c-6.76-0.417-13.233-3.392-11.716-11.655
			c-7.847,0.687-12.062-8.203-6.499-15.909c-10.719-3.1-9.09-16.929,3.885-19.289c1.036-13.096,18.793-25.435,27.515-31.305
			c7.054-4.675,25.618-19.507,14.981-35.915c-6.733-10.407-20.348-3.693-18.572,6.611c0.91,5.128,5.977,6.091,13.048,4.253
			c0.248,5.337-9.958,15.604-17.043,7.146c0.16,4.594-0.852,11.062-9.817,13.572c-5.979,2.255-5.943,6.253-4.648,12.319
			c-11.025-0.268-16.229-10.261-13.837-17.025c2.393-6.762,10.013-6.844,10.013-10.226c0-3.381-8.741-4.38-9.792-10.04
			c-1.205-6.63,1.52-12.106,7.007-13.525c-2.38,7.658,7.11,11.439,12.837,4.484c9.916-12.005,27.373-14.618,35.121-6.077
			c5.25,5.785,13.194,19.461,3.503,33.815c-5.884,8.714-21.104,20.323-27.062,23.392c-2.17,1.236-9.619,6.817-9.659,10.035
			c5.152-3.446,9.31-3.325,12.805-4.679c-0.216,3.881-14.462,10.814-12.723,16.3c3.635-2.794,14.311-7.313,19.891-12.942
			c3.184,10.555-24.923,19.88-21.229,27.191c3.189-4.663,19.873-8.508,26.508-14.746c-0.421,6.72-5.684,13.747-15.574,19.339
			c-11.385,6.099-8.67,12.4-5.535,14.728c2.071-9.32,14.819-11.859,22.639-21.353c1.713,4.825-2.812,12.642-8.3,18.766
			c-5.353,5.229-5.105,9.355-0.321,16.116c4.785,6.765,13.207,18.779,9.619,24.413c-3.588,5.636,8.52-5.752,17.597,3.231
			c2.368,2.574,5.554,5.81,13.033,7.01c-2.236,2.902-5.19,5.221-11.739,2.589c-6.72-4.756-10.209-3.357-14.562-0.024
			c-8.152,7.298-19.865,12.795-34.666,0.642c-5.981-5.639-8.507-9.854-15.502-9.763c3.59,7.891-1.516,15.478-1.516,21.111
			c0,5.639,0.16,9.762,9.729,10.891c9.569,1.125,11.802,8.272,16.585,7.146c2.167-0.894,4.41-0.305,6.714-1.015
			c0.214,2.27,1.011,5.729-3.547,6.855c-5.982,2.254-2.341,2.621,0.052,6.003c1.176,2.027,0.614,4.855,0.906,7.809
			c-0.198,3.626,3.316,5.76,7.135,6.273c-2.67,3.124-7.961,3.887-11.673,0.918c2.753,7.104-1.077,8.459-5.863,5.077
			c4.034,5.823-3.174,6.532-9.154,4.277c2.839,3.244,6.107,6.656,0.621,8.76c-5.624,5.555-5.523,1.254-7.917-2.126
			c-2.393-3.383-4.574,6.878-6.88,8.344c-3.8,0.44-5.082-5.067-9.867-6.195c-2.749-1.767,1.468-3.044,3.156-4.508
			c2.097-1.464-1.517-2.08-6.302,0.174c-4.783,2.254-6.535,1.825-4.932-4.602c1.468-7.704,3.6-5.45,8.272-3.172
			c4.812-1.047-7.483-4.38,0.678-9.613c0.825-3.525,3.394-7.038,7.85,0.082c5.98,2.256,5.091-4.646,3.894-8.025
			c-1.195-3.382-11.37-9.169-13.812-14.189c-3.406,8.154-7.094,12.71-16.912,15.087c0.988-4.329-0.388-7.754,2.489-10.584
			c3.59-5.639-1.129-7.884-1.129-13.52c-5.292-5.891-1.897-17.742-0.518-24.006L73.957,155.086z"/>
	</g>
	<g id="g30_1_" transform="translate(413.3555,69.8887)">
		<path id="path32_1_" inkscape:connector-curvature="0" stroke="#000000" stroke-width="0.892" d="M73.957,155.086
			c-10.768,5.636-21.013,5.974-28.19,2.593c-7.178-3.382,1.196,4.508,4.784,7.89c3.589,3.381,2.394,6.763,2.394,10.144
			c0,3.383-0.064,7.763,0.898,11.83c-7.177,1.128-14.057-1.686-20.038-5.065c3.521,3.87,3.032,6.134,5.686,9.167
			c-6.061,0.052-11.779-5.091-16.783-7.61c2.596,3.03,4.787,7.76,7.015,11.224c-4.888,0.5-10.698-5.336-13.069-7.273
			c0.765,1.518,2.316,8.093,3.107,12.312c-5.845-1.44-7.24-9.987-11.524-9.338c0.015,0.946-1.187,4.037,0.093,6.926
			c2.529,5.713-3.219,3.359-5.118,2.905c-5.02,0.058-6.427,1.42-5.454-5.948c-1.195-2.255-4.623-4.478-4.623,0.034
			c0,4.508-3.157,10.086-6.228,10.086c-3.069,0-4.944-3.847-6.116-7.043c-5.514-4.219-2.505-7.786,2.281-6.658
			c4.784,1.129,1.172-6.764-2.416-4.51c-3.59,2.254-10.791,2.305-9.594-1.08c1.195-3.382,1.874-6.064,0.677-10.572
			c-1.195-4.51,4.403-3.743,6.796-1.489c2.391,2.256,3.452,4.997,8.236,3.871c4.786-1.128,0.357-4.999-3.23-6.147
			c-3.59,0-3.232-4.307,2.465-7.02c3.973-6.732,9.844-7.472,8.893-0.513c0,3.384,1.615,10.17,16.18,8.531
			c10.767-1.128,12.557-9.307,8.238-13.607c-2.689-2.126-5.537-6.466-5.918-14.578c-1.751,1.432-4.138,2.528-7.389,2.607
			c-5.51,0.332-7.331-2.02-12.063-3.907c2.948-1.545,7.327-3.938,11.624-3.157c3.541,0.036,6.975-1.858,8.281-5.193
			c2.395-5.635,7.576-5.67,12.235-4.637c5.217,1.22,17.733,0.617,17.733-1.637c-5.742-1.702-12.805-6.732-15.224-13.716
			c-0.012,5.207-3.155,8.64-7.776,7.708c-2.236-0.513-5.509-0.339-7.593-0.226c2.561-1.95,6.31-8.386,3.266-12.677
			c-1.396-2.02-1.717-6.056-1.437-8.536c-0.875,0.697-3.57,5.016-1.561,8.331c-3.272,0.298-5.832-3.741-9.632-4.973
			c-0.677,1.302,1.547,4.449,2.055,5.911c-1.708,0.53-2.857,1.172-7.518-0.972c-1.237,3.323-0.599,4.874-0.891,6.061
			c-1.474-0.102-5.081-0.925-6.854-2.727c0.038,2.133-1.182,3.727-1.691,5.52c-2.337-0.465-4.366-1.069-6.411-3.673
			c-0.158,1.685-1.48,2.432-1.236,5.127c-3.198-0.151-6.866-4.679-10.909-7.915c-1.173,2.859,3.772,14.317,0.183,13.189
			c-5.487-1.383-11.331,2.43-11.493-1.847c1.196-3.382-0.651-3.453-4.24-0.071c-3.183,3.51-9.62,7.312-9.569-3.382
			c-4.159-5.832-2.775-7.529,3.613-6.738c5.979-1.128,8.397-3.543,3.725-4.869c-9.017,1.743-10.892-2.15-7.093-5.682
			c0.951-3.15,0.951-6.38,4.539-5.252c6.164,3.811,8.374,0,4.785-2.256c-3.589-2.254-2.802-5.043,2.959-6.762
			c3.452-4.532,7.807-3.382,7.807,1.126c-0.814,5.403,2.8,8.553,5.192,6.298c2.391-2.254,11.679-3.149,15.267-4.276
			S0.312,81.032,0.312,77.651c-7.906,0.271-12.688-1.462-15.463-3.189c-0.36-2.214-0.709-3.928,0.268-7.117
			c-7.802,3.946-11.181,2.037-13.355-0.031c1.721-1.577,4.508-7.28,5.702-9.418c-4.367,1.825-5.792,3.183-7.739,2.3
			c-0.815-2.23,0.633-4.481,1.151-6.25c-4.616,3.982-7.633,3.83-11.663,3.205c4.163-6.078,4.936-9.267,5.865-15.44
			c-2.795,1.251-5.819,1.046-7.67,1.162c-0.396-2.014-0.958-5.093-0.16-8.052c-5.64,1.395-9.213,2.812-7.448-4.148
			c0-3.381-1.383-7.658,3.859-5.997c2.394,0,2.257-4.1-1.332-4.1c-9.287-0.639-11.493-3.253-6.746-8.681
			c1.356-6.451,4.49-8.042,6.882-3c2.394,3.382,9.052,6.626,7.177,0c-4.315-6.625-7.141-12.292,1.197-11.271
			c7.523-1.917,7.474,2.463,5.327,7.123c-1.195,4.148,3.046,5.276,4.241,3.022c-0.433-4.299,2.293-7.427,6.093-2.894
			c4.747,5.555,6.351,8.809-0.221,12.318c-3.59,3.382,8.372,11.897,12.256,21.903c5.785,1.826,15.453,7.134,21.349,9.25
			c3.588-3.382,18.693-10.586,32.297-10.146c9.411,0.304,11.962-3.646,13.158-7.028c1.196-3.381-3.538-0.071-4.896-3.068
			c-2.034,2.501-5.55,2.407-7.042-0.872c-5.29,5.8-12.772,8.872-10.569-0.279c1.094-4.665,0.398-7.938,3.664-8.169
			c20.364,3.092,19.079-9.052,12.887-10.585c-6.914-1.642-18.07,7.201-16.476-5.426c0.748-5.932,0.493-3.766-1.898-4.894
			c-2.395-1.126,2.8-5.892,6.388-5.892c5.758-0.126,7.497-2.614,10.137-6.402c0.897-0.562,13.23-0.25,17.795-0.731
			c5.902-1.123,20.161-5.637,26.791-4.235c-1.804,4.301-3.854,3.986-4.987,6.787c4.667,0.691,9.988,2.392,11.051,2.824
			c-2.393,2.359-3.751,3.978-5.983,5.651c5.193,1.104,6.468,0.613,5.821,8.994c-0.106,5.773-0.519,13.316-7.696,13.316
			c-7.177,0,6.57,5.496,6.117,13.305c-0.462,6.094-0.754,15.047,3.156,20.231c2.453,3.344,5.97,11.13,0.926,15.571
			c-1.619-5.493-4.425-9.982-7.463-13.355c-1.748,2.285-3.263,7.004-1.515,9.777c2.144,3.529,2.07,7.169,2.07,11.678
			s-1.404,7.85-0.987,16.022c-1.993-0.562-4.576-3.09-5.909-5.724c-0.67,3.003-2.753,4.523-3.747,13
			c-4.58-3.597-5.893-7.842-5.584-10.4c0.11-7.937-1.056-6.842-3.448-11.352c-0.676,2.162-0.32,4.967,0.596,9.281
			c-3.588-2.255-4.811-2.6,0.87,6.48c4.683,7.337,6.052,27.704,15.388,32.413c5.979,1.128,8.743,6.275,12.331,8.532
			c3.589,2.251,10.37,0.983,18.004,10.502c13.741,9.901,24.086,0.937,16.45-12.991c-2.332-4.138-11.689-10.296-12.885-14.804
			c-6.76-0.417-13.233-3.392-11.716-11.655c-7.847,0.687-12.062-8.203-6.499-15.909c-10.719-3.1-9.09-16.929,3.885-19.289
			c1.036-13.096,18.793-25.435,27.515-31.305c7.054-4.675,25.618-19.507,14.981-35.915c-6.733-10.407-20.348-3.693-18.572,6.611
			c0.91,5.128,5.977,6.091,13.048,4.253c0.248,5.337-9.958,15.604-17.043,7.146c0.16,4.594-0.852,11.062-9.817,13.572
			c-5.979,2.255-5.943,6.253-4.648,12.319c-11.025-0.268-16.229-10.261-13.837-17.025c2.393-6.762,10.013-6.844,10.013-10.226
			c0-3.381-8.741-4.38-9.792-10.04c-1.205-6.63,1.52-12.106,7.007-13.525c-2.38,7.658,7.11,11.439,12.837,4.484
			c9.916-12.005,27.373-14.618,35.121-6.077c5.25,5.785,13.194,19.461,3.503,33.815c-5.884,8.714-21.104,20.323-27.062,23.392
			c-2.17,1.236-9.619,6.817-9.659,10.035c5.152-3.446,9.31-3.325,12.805-4.679c-0.216,3.881-14.462,10.814-12.723,16.3
			c3.635-2.794,14.311-7.313,19.891-12.942c3.184,10.555-24.923,19.88-21.229,27.191c3.189-4.663,19.873-8.508,26.508-14.746
			c-0.421,6.72-5.684,13.747-15.574,19.339c-11.385,6.099-8.67,12.4-5.535,14.728c2.071-9.32,14.819-11.859,22.639-21.353
			c1.713,4.825-2.812,12.642-8.3,18.766c-5.353,5.229-5.105,9.355-0.321,16.116c4.785,6.765,13.207,18.779,9.619,24.413
			c-3.588,5.636,8.52-5.752,17.597,3.231c2.368,2.574,5.554,5.81,13.033,7.01c-2.236,2.902-5.19,5.221-11.739,2.589
			c-6.72-4.756-10.209-3.357-14.562-0.024c-8.152,7.298-19.865,12.795-34.666,0.642c-5.981-5.639-8.507-9.854-15.502-9.763
			c3.59,7.891-1.516,15.478-1.516,21.111c0,5.639,0.16,9.762,9.729,10.891c9.569,1.125,11.802,8.272,16.585,7.146
			c2.167-0.894,4.41-0.305,6.714-1.015c0.214,2.27,1.011,5.729-3.547,6.855c-5.982,2.254-2.341,2.621,0.052,6.003
			c1.176,2.027,0.614,4.855,0.906,7.809c-0.198,3.626,3.316,5.76,7.135,6.273c-2.67,3.124-7.961,3.887-11.673,0.918
			c2.753,7.104-1.077,8.459-5.863,5.077c4.034,5.823-3.174,6.532-9.154,4.277c2.839,3.244,6.107,6.656,0.621,8.76
			c-5.624,5.555-5.523,1.254-7.917-2.126c-2.393-3.383-4.574,6.878-6.88,8.344c-3.8,0.44-5.082-5.067-9.867-6.195
			c-2.749-1.767,1.468-3.044,3.156-4.508c2.097-1.464-1.517-2.08-6.302,0.174c-4.783,2.254-6.535,1.825-4.932-4.602
			c1.468-7.704,3.6-5.45,8.272-3.172c4.812-1.047-7.483-4.38,0.678-9.613c0.825-3.525,3.394-7.038,7.85,0.082
			c5.98,2.256,5.091-4.646,3.894-8.025c-1.195-3.382-11.37-9.169-13.812-14.189c-3.406,8.154-7.094,12.71-16.912,15.087
			c0.988-4.329-0.388-7.754,2.489-10.584c3.59-5.639-1.129-7.884-1.129-13.52c-5.292-5.891-1.897-17.742-0.518-24.006
			L73.957,155.086z"/>
	</g>
	<g id="g34_1_" transform="translate(433.248,74.6377)">
		<path id="path36_1_" inkscape:connector-curvature="0" stroke="#666666" stroke-width="0.714" d="M84.752,143.012
			c-1.476,6.494-7.593,10.807-7.593,10.807"/>
	</g>
	<g id="g38_1_" transform="translate(443.6465,158.1626)">
		<path id="path40_1_" inkscape:connector-curvature="0" stroke="#666666" stroke-width="0.714" d="M90.396-69.367
			c-5.372,5.629-7.729,7.243-10.833,11.135c-2.98,3.636-3.647,10.415-0.621,14.407"/>
	</g>
	<g id="g42_1_" transform="translate(442.3818,130.4883)">
		<path id="path44_1_" inkscape:connector-curvature="0" stroke="#666666" stroke-width="0.714" d="M89.709,1
			c-2.954,2.786-3.939,7.889-3.939,8.816"/>
	</g>
	<g id="g46_1_" transform="translate(440.7832,122.6699)">
		<path id="path48_1_" inkscape:connector-curvature="0" stroke="#666666" stroke-width="0.714" d="M88.842,20.879
			c-2.464,3.712-2.954,13.92-2.954,13.92"/>
	</g>
	<g id="g50_1_" transform="translate(444.2861,113.3516)">
		<path id="path52_1_" inkscape:connector-curvature="0" stroke="#666666" stroke-width="0.714" d="M90.743,44.574
			c-5.909,5.103-4.925,12.062-4.925,12.062"/>
	</g>
	<g id="g54_1_" transform="translate(448.4424,100.8545)">
		<path id="path56_1_" inkscape:connector-curvature="0" stroke="#666666" stroke-width="0.714" d="M92.999,76.35
			c-1.001,1.435,2.96,7.104,5.91,6.706"/>
	</g>
	<g id="g58_1_" transform="translate(462.4834,69.1387)">
		<path id="path60_1_" inkscape:connector-curvature="0" stroke="#666666" stroke-width="0.714" d="M100.618,156.993
			c-5.909,2.785-8.875,3.772-14.772,1.393"/>
	</g>
	<g id="g62_1_" transform="translate(444.2861,46.2402)">
		<path id="path64_1_" inkscape:connector-curvature="0" stroke="#666666" stroke-width="0.714" d="M90.743,215.217
			c3.939,4.178,2.965,15.256-2.944,19.434c-5.908,4.175-2.954,0.926-2.954,0.926"/>
	</g>
	<g id="g66_1_" transform="translate(434.5273,72.6934)">
		<path id="path68_1_" inkscape:connector-curvature="0" stroke="#666666" stroke-width="0.714" d="M85.447,147.955
			c-2.954,8.352-10.549,12.925-10.549,12.925"/>
	</g>
	<g id="g70_1_" transform="translate(433.9434,66.125)">
		<path id="path72_1_" inkscape:connector-curvature="0" stroke="#666666" stroke-width="0.714" d="M85.13,164.657
			c-5.416,7.424-12.59,12.062-12.59,12.062"/>
	</g>
	<g id="g74_1_" transform="translate(432.7061,61.0566)">
		<path id="path76_1_" inkscape:connector-curvature="0" stroke="#666666" stroke-width="0.714" d="M84.458,177.545
			c-3.445,5.104-7.736,7.954-7.736,7.954"/>
	</g>
	<g id="g78_1_" transform="translate(433.123,57.4043)">
		<path id="path80_1_" inkscape:connector-curvature="0" stroke="#666666" stroke-width="0.714" d="M84.685,186.83
			c-3.447,3.711-7.879,6.031-7.879,6.031"/>
	</g>
	<g id="g82_1_" transform="translate(435.0273,55.0029)">
		<path id="path84_1_" inkscape:connector-curvature="0" stroke="#666666" stroke-width="0.714" d="M85.718,192.937
			c-2.462,3.249-4.431,6.962-4.431,6.962"/>
	</g>
	<g id="g86_1_" transform="translate(390.668,66.4316)">
		<path id="path88_1_" inkscape:connector-curvature="0" stroke="#666666" stroke-width="0.714" d="M61.645,163.878
			c3.94,5.566,10.34,4.64,9.849,9.28c-1.353,5.395,0.554,12.472,2.093,15.138"/>
	</g>
	<g id="g90_1_" transform="translate(390.3486,62.209)">
		<path id="path92_1_" inkscape:connector-curvature="0" stroke="#666666" stroke-width="0.714" d="M61.471,174.613
			c3.446,3.712,3.446,4.178,3.446,7.425c0,3.246,2.954,7.423,2.954,7.423"/>
	</g>
	<g id="g94_1_" transform="translate(385.8721,58.9043)">
		<path id="path96_1_" inkscape:connector-curvature="0" stroke="#666666" stroke-width="0.714" d="M59.042,183.017
			c1.478,2.785,5.416,6.961,5.416,6.961"/>
	</g>
	<g id="g98_1_" transform="translate(379.4922,56.1973)">
		<path id="path100_1_" inkscape:connector-curvature="0" stroke="#666666" stroke-width="0.714" d="M55.58,189.9
			c1.967,1.856,4.922,3.711,4.922,3.711"/>
	</g>
	<g id="g102_1_" transform="translate(392.5869,165.3794)">
		<path id="path104_1_" inkscape:connector-curvature="0" stroke="#666666" stroke-width="0.714" d="M62.686-87.717
			c2.954-3.248,10.405-4.773,12.868-2.455c2.463,2.32,10.275,10.342,10.275,10.342"/>
	</g>
	<g id="g106_1_" transform="translate(407.9062,117.5596)">
		<path id="path108_1_" inkscape:connector-curvature="0" stroke="#666666" stroke-width="0.714" d="M70.999,33.874
			c-0.492,6.031-4.924,18.558-4.924,18.558"/>
	</g>
	<g id="g110_1_" transform="translate(409.8105,115.1572)">
		<path id="path112_1_" inkscape:connector-curvature="0" stroke="#666666" stroke-width="0.714" d="M72.034,39.983
			c-0.492,6.959-4.925,17.166-4.925,17.166"/>
	</g>
	<g id="g114_1_" transform="translate(411.7285,110.9355)">
		<path id="path116_1_" inkscape:connector-curvature="0" stroke="#666666" stroke-width="0.714" d="M73.074,50.716
			c-0.491,6.961-3.94,13.458-3.94,13.458"/>
	</g>
	<g id="g118_1_" transform="translate(413.9668,105.5205)">
		<path id="path120_1_" inkscape:connector-curvature="0" stroke="#666666" stroke-width="0.714" d="M74.288,64.486
			c-1.968,6.496-3.939,10.672-3.939,10.672"/>
	</g>
	<g id="g122_1_" transform="translate(415.2461,101.3125)">
		<path id="path124_1_" inkscape:connector-curvature="0" stroke="#666666" stroke-width="0.714" d="M74.983,75.186
			c-0.985,4.64-3.446,9.279-3.446,9.279"/>
	</g>
	<g id="g126_1_" transform="translate(416.8447,98.6055)">
		<path id="path128_1_" inkscape:connector-curvature="0" stroke="#666666" stroke-width="0.714" d="M75.851,82.069
			c0,2.785-1.479,6.032-1.479,6.032"/>
	</g>
	<g id="g130_1_" transform="translate(374.3896,115.1572)">
		<path id="path132_1_" inkscape:connector-curvature="0" stroke="#666666" stroke-width="0.714" d="M52.81,39.983
			c-0.983,7.886-3.382,9.594-5.979,6.094c0.35,3.643-1.839,6.025-5.772,4.511c-0.986,1.26-3.515,2.85-3.515,2.85"/>
	</g>
	<g id="g134_1_" transform="translate(361.2949,107.6309)">
		<path id="path136_1_" inkscape:connector-curvature="0" stroke="#666666" stroke-width="0.714" d="M45.703,59.119
			c-0.985,3.712-1.478,8.817-5.417,7.888"/>
	</g>
	<g id="g138_1_" transform="translate(345.3359,145.2207)">
		<path id="path140_1_" inkscape:connector-curvature="0" stroke="#666666" stroke-width="0.714" d="M37.042-36.459
			c3.938,0.464,6.895,0.464,6.895,0.464"/>
	</g>
	<g id="g142_1_" transform="translate(347.2539,141.625)">
		<path id="path144_1_" inkscape:connector-curvature="0" stroke="#666666" stroke-width="0.714" d="M38.083-27.317l7.878,0.928"/>
	</g>
	<g id="g146_1_" transform="translate(350.4512,138.3057)">
		<path id="path148_1_" inkscape:connector-curvature="0" stroke="#666666" stroke-width="0.714" d="M39.819-18.878
			c5.418,2.785,8.864,1.393,8.864,1.393"/>
	</g>
	<g id="g150_1_" transform="translate(353.6348,134.6953)">
		<path id="path152_1_" inkscape:connector-curvature="0" stroke="#666666" stroke-width="0.714" d="M41.546-9.697
			c3.94,1.856,8.373,0,8.373,0"/>
	</g>
	<g id="g154_1_" transform="translate(358.4307,130.4883)">
		<path id="path156_1_" inkscape:connector-curvature="0" stroke="#666666" stroke-width="0.714" d="M44.15,1
			c5.909,0.93,8.862-2.319,8.862-2.319"/>
	</g>
	<g id="g158_1_" transform="translate(403.75,67.625)">
		<path id="path160_1_" inkscape:connector-curvature="0" stroke="#666666" stroke-width="0.714" d="M68.744,160.843
			c-2.465-7.887-13.297-17.169-13.297-17.169"/>
	</g>
	<g id="g162_1_" transform="translate(398.9678,67.625)">
		<path id="path164_1_" inkscape:connector-curvature="0" stroke="#666666" stroke-width="0.714" d="M66.149,160.843
			c-0.986-6.032-11.818-16.704-11.818-16.704"/>
	</g>
	<g id="g166_1_" transform="translate(395.4502,68.833)">
		<path id="path168_1_" inkscape:connector-curvature="0" stroke="#666666" stroke-width="0.714" d="M64.24,157.771
			c-0.493-3.712-11.326-13.458-11.326-13.458"/>
	</g>
	<g id="g170_1_" transform="translate(393.2129,69.4297)">
		<path id="path172_1_" inkscape:connector-curvature="0" stroke="#666666" stroke-width="0.714" d="M63.026,156.254
			c-2.464-3.247-11.327-9.28-11.327-9.28"/>
	</g>
	<g id="g174_1_" transform="translate(390.3486,67.9307)">
		<path id="path176_1_" inkscape:connector-curvature="0" stroke="#666666" stroke-width="0.714" d="M61.471,160.064
			c0.492-3.247-4.433-5.104-4.433-5.104"/>
	</g>
	<g id="g178_1_" transform="translate(413.0078,72.1387)">
		<path id="path180_1_" inkscape:connector-curvature="0" stroke="#666666" stroke-width="0.714" d="M73.769,149.365
			c-6.401,2.785-13.789-1.391-14.773-6.96c-0.983-5.566-11.324-7.422-11.324-7.422"/>
	</g>
	<g id="g182_1_" transform="translate(410.5889,177.0757)">
		<path id="path184_1_" inkscape:connector-curvature="0" stroke="#666666" stroke-width="0.714" d="M72.455-117.458
			c2.218,2.187,4.911,2.122,7.383,1.679c2.478-0.444,9.255-3.776,10.093-4.279"/>
	</g>
	<g id="g186_1_" transform="translate(417.1641,171.395)">
		<path id="path188_1_" inkscape:connector-curvature="0" stroke="#666666" stroke-width="0.714" d="M76.025-103.013
			c2.463-2.783,10.34-3.248,10.34-3.248"/>
	</g>
	<g id="g190_1_" transform="translate(398.7871,160.3569)">
		<path id="path192_1_" inkscape:connector-curvature="0" d="M66.051-74.947c-5.911-2.318-10.55-3.577-16.458-3.113
			c-5.91,0.464-13.296-1.855-14.772-5.105c-1.479-3.248-4.926-8.815-9.357-9.279c-2.217-0.231-5.528,1.218-7.331,2.937
			c1.616,0.919,3.022,3.616,4.253,5.937c3.114,5.587,10.957,17.11,21.298,11.542c3.939-2.32,11.326-1.812,14.28-1.347
			S66.542-74.482,66.051-74.947"/>
	</g>
	<g id="g194_1_" transform="translate(398.7871,160.3569)">
		<path id="path196_1_" inkscape:connector-curvature="0" fill="#ED2939" stroke="#000000" stroke-width="0.714" d="M66.051-74.947
			c-5.911-2.318-10.55-3.577-16.458-3.113c-5.91,0.464-13.296-1.855-14.772-5.105c-1.479-3.248-4.926-8.815-9.357-9.279
			c-2.217-0.231-5.528,1.218-7.331,2.937c1.616,0.919,3.022,3.616,4.253,5.937c3.114,5.587,10.957,17.11,21.298,11.542
			c3.939-2.32,11.326-1.812,14.28-1.347S66.542-74.482,66.051-74.947z"/>
	</g>
	<g id="g198_1_" transform="translate(353.0645,163.7031)">
		<path id="path200_1_" inkscape:connector-curvature="0" d="M41.237-83.455c7.143-10.033-2.949-21.698-7.382-22.161
			c0.986,3.247,4.433,8.35,0.493,13.92c3.447,3.711,4.921,6.328,6.889,8.182V-83.455z"/>
	</g>
	<g id="g202_1_" transform="translate(353.0645,163.7031)">
		<path id="path204_1_" inkscape:connector-curvature="0" fill="#ED2939" stroke="#000000" stroke-width="0.714" d="M41.237-83.455
			c7.143-10.033-2.949-21.698-7.382-22.161c0.986,3.247,4.433,8.35,0.493,13.92c3.447,3.711,4.921,6.328,6.889,8.182V-83.455
			L41.237-83.455z"/>
	</g>
	<g id="g206_1_" transform="translate(343.7646,172.4155)">
		<path id="path208_1_" inkscape:connector-curvature="0" d="M36.19-105.608c-3.347-11.681-18.684-11.686-22.038-8.915
			c3.211,1.506,9.535,2.55,11.239,9.046C30.624-105.372,33.407-105.49,36.19-105.608"/>
	</g>
	<g id="g210_1_" transform="translate(343.7646,172.4155)">
		<path id="path212_1_" inkscape:connector-curvature="0" fill="#ED2939" stroke="#000000" stroke-width="0.714" d="M36.19-105.608
			c-3.347-11.681-18.684-11.686-22.038-8.915c3.211,1.506,9.535,2.55,11.239,9.046C30.624-105.372,33.407-105.49,36.19-105.608z"/>
	</g>
	<g id="g214_1_" transform="translate(331.6016,166.1919)">
		<path id="path216_1_" inkscape:connector-curvature="0" d="M29.589-89.783C15.516-93.967,10.27-86.573,9.36-82.46
			c3.525-0.617,9.244-3.367,14.753,0.854c4.246-2.881,3.34-6.409,5.486-8.082L29.589-89.783z"/>
	</g>
	<g id="g218_1_" transform="translate(331.6016,166.1919)">
		<path id="path220_1_" inkscape:connector-curvature="0" fill="#ED2939" stroke="#000000" stroke-width="0.714" d="M29.589-89.783
			C15.516-93.967,10.27-86.573,9.36-82.46c3.525-0.617,9.244-3.367,14.753,0.854c4.246-2.881,3.34-6.409,5.486-8.082L29.589-89.783z
			"/>
	</g>
	<g id="g222_1_" transform="translate(357.708,66.7227)">
		<path id="path224_1_" inkscape:connector-curvature="0" d="M43.757,163.137c-10.132-7.433-23.37,0.797-23.295,5.372
			c3.525-0.617,10.74-2.146,16.253,2.078C40.961,167.705,41.61,164.809,43.757,163.137L43.757,163.137z"/>
	</g>
	<g id="g226_1_" transform="translate(357.708,66.7227)">
		<path id="path228_1_" inkscape:connector-curvature="0" fill="#ED2939" stroke="#000000" stroke-width="0.714" d="M43.757,163.137
			c-10.132-7.433-23.37,0.797-23.295,5.372c3.525-0.617,10.74-2.146,16.253,2.078C40.961,167.705,41.61,164.809,43.757,163.137
			L43.757,163.137z"/>
	</g>
	<g id="g230_1_" transform="translate(341.1514,115.5879)">
		<path id="path232_1_" inkscape:connector-curvature="0" d="M34.772,38.888c-8.161-9.343-22.135-3.389-23.979,0.436
			c3.581,0.125,9.801-1.379,14.196,3.878c4.815-1.938,7.298-3.126,9.78-4.314H34.772z"/>
	</g>
	<g id="g234_1_" transform="translate(341.1514,115.5879)">
		<path id="path236_1_" inkscape:connector-curvature="0" fill="#ED2939" stroke="#000000" stroke-width="0.714" d="M34.772,38.888
			c-8.161-9.343-22.135-3.389-23.979,0.436c3.581,0.125,9.801-1.379,14.196,3.878c4.815-1.938,7.298-3.126,9.78-4.314H34.772z"/>
	</g>
	<g id="g238_1_" transform="translate(331.3086,107.6729)">
		<path id="path240_1_" inkscape:connector-curvature="0" d="M29.429,59.012c-15.109-5.643-18.361-0.01-19.973,3.907
			c3.586-0.065,10.413-0.822,15.121,4.189C29.266,64.918,27.338,61.073,29.429,59.012"/>
	</g>
	<g id="g242_1_" transform="translate(331.3086,107.6729)">
		<path id="path244_1_" inkscape:connector-curvature="0" fill="#ED2939" stroke="#000000" stroke-width="0.714" d="M29.429,59.012
			c-15.109-5.643-18.361-0.01-19.973,3.907c3.586-0.065,10.413-0.822,15.121,4.189C29.266,64.918,27.338,61.073,29.429,59.012z"/>
	</g>
	<g id="g246_1_" transform="translate(328.2227,95.7441)">
		<path id="path248_1_" inkscape:connector-curvature="0" d="M27.756,89.345c-11.704,1.391-12.515,10.423-11.188,14.434
			c2.762-2.152,6.341-7.176,13.336-6.009C32.128,93.306,26.742,91.788,27.756,89.345"/>
	</g>
	<g id="g250_1_" transform="translate(328.2227,95.7441)">
		<path id="path252_1_" inkscape:connector-curvature="0" fill="#ED2939" stroke="#000000" stroke-width="0.714" d="M27.756,89.345
			c-11.704,1.391-12.515,10.423-11.188,14.434c2.762-2.152,6.341-7.176,13.336-6.009C32.128,93.306,26.742,91.788,27.756,89.345z"/>
	</g>
	<g id="g254_1_" transform="translate(346.5723,56.9609)">
		<path id="path256_1_" inkscape:connector-curvature="0" d="M37.713,187.958c-12.688-1.854-15.465,9.031-14.14,13.043
			c2.763-2.152,6.834-4.855,13.827-3.69C39.625,192.85,36.701,190.403,37.713,187.958"/>
	</g>
	<g id="g258_1_" transform="translate(346.5723,56.9609)">
		<path id="path260_1_" inkscape:connector-curvature="0" fill="#ED2939" stroke="#000000" stroke-width="0.714" d="M37.713,187.958
			c-12.688-1.854-15.465,9.031-14.14,13.043c2.763-2.152,6.834-4.855,13.827-3.69C39.625,192.85,36.701,190.403,37.713,187.958z"/>
	</g>
	<g id="g262_1_" transform="translate(351.1738,43.7412)">
		<path id="path264_1_" inkscape:connector-curvature="0" d="M40.211,221.573c-12.062,4.146-9.271,17.154-6.055,20.062
			c1.317-3.142,3.877-9.449,10.596-11.611C44.414,225.102,40.574,224.174,40.211,221.573"/>
	</g>
	<g id="g266_1_" transform="translate(351.1738,43.7412)">
		<path id="path268_1_" inkscape:connector-curvature="0" fill="#ED2939" stroke="#000000" stroke-width="0.714" d="M40.211,221.573
			c-12.062,4.146-9.271,17.154-6.055,20.062c1.317-3.142,3.877-9.449,10.596-11.611C44.414,225.102,40.574,224.174,40.211,221.573z"
			/>
	</g>
	<g id="g270_1_" transform="translate(426.2002,36.5195)">
		<path id="path272_1_" inkscape:connector-curvature="0" d="M80.928,239.935c-11.16-5.986-18.324,2.229-18.598,6.42
			c3.396-1.084,7.041-3.307,13.138,0.125C79.231,243.053,79.058,241.879,80.928,239.935"/>
	</g>
	<g id="g274_1_" transform="translate(426.2002,36.5195)">
		<path id="path276_1_" inkscape:connector-curvature="0" fill="#ED2939" stroke="#000000" stroke-width="0.714" d="M80.928,239.935
			c-11.16-5.986-18.324,2.229-18.598,6.42c3.396-1.084,7.041-3.307,13.138,0.125C79.231,243.053,79.058,241.879,80.928,239.935z"/>
	</g>
	<g id="g278_1_" transform="translate(420.084,28.8555)">
		<path id="path280_1_" inkscape:connector-curvature="0" d="M77.609,259.422c-11.163-3.588-19.054,5.367-18.96,9.569
			c3.289-1.346,9.682-3.845,16.058-0.896c3.453-3.706,1.206-6.124,2.902-8.209l-0.062-0.057L77.609,259.422z"/>
	</g>
	<g id="g282_1_" transform="translate(420.084,28.8555)">
		<path id="path284_1_" inkscape:connector-curvature="0" fill="#ED2939" stroke="#000000" stroke-width="0.714" d="M77.609,259.422
			c-11.163-3.588-19.054,5.367-18.96,9.569c3.289-1.346,9.682-3.845,16.058-0.896c3.453-3.706,1.206-6.124,2.902-8.209l-0.062-0.057
			L77.609,259.422z"/>
	</g>
	<g id="g286_1_" transform="translate(424.9072,19.8574)">
		<path id="path288_1_" inkscape:connector-curvature="0" d="M80.227,282.301c-9.053,8.581-2.591,18.872,1.633,20.218
			c-0.226-3.371,0.02-9.271,5.132-13.917C84.466,284.281,81.728,284.514,80.227,282.301"/>
	</g>
	<g id="g290_1_" transform="translate(424.9072,19.8574)">
		<path id="path292_1_" inkscape:connector-curvature="0" fill="#ED2939" stroke="#000000" stroke-width="0.714" d="M80.227,282.301
			c-9.053,8.581-2.591,18.872,1.633,20.218c-0.226-3.371,0.02-9.271,5.132-13.917C84.466,284.281,81.728,284.514,80.227,282.301z"/>
	</g>
	<g id="g294_1_" transform="translate(442.9102,21.2734)">
		<path id="path296_1_" inkscape:connector-curvature="0" d="M89.997,278.701c4.7,11.261-4.164,16.166-8.609,15.824
			c1.625-3.011,4.071-5.083,1.332-11.257C86.855,280.246,87.687,280.169,89.997,278.701"/>
	</g>
	<g id="g298_1_" transform="translate(442.9102,21.2734)">
		<path id="path300_1_" inkscape:connector-curvature="0" fill="#ED2939" stroke="#000000" stroke-width="0.714" d="M89.997,278.701
			c4.7,11.261-4.164,16.166-8.609,15.824c1.625-3.011,4.071-5.083,1.332-11.257C86.855,280.246,87.687,280.169,89.997,278.701z"/>
	</g>
	<g id="g302_1_" transform="translate(370.7061,39.3115)">
		<path id="path304_1_" inkscape:connector-curvature="0" d="M50.811,232.836c-1.658,11.999-14.885,14.403-18.602,12.08
			c2.965-1.897,7.714-6.345,8.479-12.998C45.861,231.152,48.036,233.067,50.811,232.836"/>
	</g>
	<g id="g306_1_" transform="translate(370.7061,39.3115)">
		<path id="path308_1_" inkscape:connector-curvature="0" fill="#ED2939" stroke="#000000" stroke-width="0.714" d="M50.811,232.836
			c-1.658,11.999-14.885,14.403-18.602,12.08c2.965-1.897,7.714-6.345,8.479-12.998C45.861,231.152,48.036,233.067,50.811,232.836z"
			/>
	</g>
	<g id="g310_1_" transform="translate(346.7119,89.2461)">
		<path id="path312_1_" inkscape:connector-curvature="0" d="M37.789,105.867c-1.657,11.998-14.392,11.154-18.108,8.833
			c2.968-1.897,6.13-1.876,6.895-8.529c5.173-0.764,8.439-0.069,11.216-0.304H37.789z"/>
	</g>
	<g id="g314_1_" transform="translate(346.7119,89.2461)">
		<path id="path316_1_" inkscape:connector-curvature="0" fill="#ED2939" stroke="#000000" stroke-width="0.714" d="M37.789,105.867
			c-1.657,11.998-14.392,11.154-18.108,8.833c2.968-1.897,6.13-1.876,6.895-8.529c5.173-0.764,8.439-0.069,11.216-0.304H37.789z"/>
	</g>
	<g id="g318_1_" transform="translate(332.7266,147.415)">
		<path id="path320_1_" inkscape:connector-curvature="0" d="M30.2-42.039c-12.641-2.135-13.97-16.53-11.329-19.918
			c1.87,2.883,3.519,8.731,10.536,9.77C29.971-47.284,30.085-44.662,30.2-42.039L30.2-42.039z"/>
	</g>
	<g id="g322_1_" transform="translate(332.7266,147.415)">
		<path id="path324_1_" inkscape:connector-curvature="0" fill="#ED2939" stroke="#000000" stroke-width="0.714" d="M30.2-42.039
			c-12.641-2.135-13.97-16.53-11.329-19.918c1.87,2.883,3.519,8.731,10.536,9.77C29.971-47.284,30.085-44.662,30.2-42.039
			L30.2-42.039z"/>
	</g>
	<g id="g326_1_" transform="translate(397.3408,177.0342)">
		<path id="path328_1_" inkscape:connector-curvature="0" fill="#FFFFFF" stroke="#000000" stroke-width="0.714" d="M65.266-117.352
			c-2.105,13.497,7.584,12.306,9.689,0.794"/>
	</g>
	<g id="g330_1_" transform="translate(401.1172,173.5605)">
		<path id="path332_1_" inkscape:connector-curvature="0" d="M67.316-108.519c0,1.331-0.917,2.411-2.048,2.411
			c-1.133,0-2.048-1.08-2.048-2.411c0-1.332,0.915-2.411,2.048-2.411C66.399-110.931,67.316-109.851,67.316-108.519"/>
	</g>
	<g id="g334_1_" transform="translate(401.1172,173.5605)">
		<path id="path336_1_" inkscape:connector-curvature="0" stroke="#000000" d="M67.316-108.519c0,1.331-0.917,2.411-2.048,2.411
			c-1.133,0-2.048-1.08-2.048-2.411c0-1.332,0.915-2.411,2.048-2.411C66.399-110.931,67.316-109.851,67.316-108.519z"/>
	</g>
	<g id="g338_1_" transform="translate(382.6895,102.2148)">
		<path id="path340_1_" inkscape:connector-curvature="0" stroke="#000000" stroke-width="0.714" d="M57.315,72.891
			c1.477,6.03,3.446,14.847,7.877,18.094c4.432,3.247,14.774,7.424,22.161,8.815c7.387,1.393,13.786,6.496,16.249,11.136
			c2.463,4.641,0.985,11.137,0.985,11.137"/>
	</g>
	<g id="g342_1_" transform="translate(384.2871,140.416)">
		<path id="path344_1_" inkscape:connector-curvature="0" stroke="#000000" stroke-width="0.714" d="M58.182-24.243
			c-7.385,2.784-11.336,9.471-17.235,13.658C37.429-8.19,30.265-3.587,26.667-2.9c3.48,2.206,11.455,4.052,17.883,0.846
			c-2.296,9.468,3.354,9.365,3.29,24.209c3.77-0.418,7.879-8.352,8.865-12.528c0.985-4.176-0.603-8.362,1.278-11.854
			c-0.052,3.686,1.207,6.714,3.669,10.425c2.462,3.714,2.931,7.46,1.453,11.172c6.146-4.811,4.832-14.686,4.745-20.93
			c3.004,2.75,3.669,12.239,1.655,18.611c2.812-0.814,5.711-2.477,7.109-10.307c2.256,3.584,4.9,15.369,3.726,18.195
			c4.187,0.095,7.84-5.622,7.432-12.104c0.769,0.59,2.87,2.75,3.64,3.513c0.879-2.472-0.389-6.969-0.087-10.436
			c0.946,0.875,3.004,2.249,3.77,3.352c1.088,1.001,3.646,4.313,7.4,5.829"/>
	</g>
	<g id="g346_1_" transform="translate(417.4844,153.6499)">
		<path id="path348_1_" inkscape:connector-curvature="0" stroke="#000000" stroke-width="0.714" d="M76.198-57.893
			c6.399,3.712,12.679,9.627,12.679,28.187"/>
	</g>
	<g id="g350_1_" transform="translate(413.9668,148.2344)">
		<path id="path352_1_" inkscape:connector-curvature="0" stroke="#000000" stroke-width="0.714" d="M74.288-44.123
			c6.895,5.105,9.355,11.137,8.373,18.561c-0.985,7.424-4.463,6.824-4.433,12.99c-0.066,2.709,2.957,7.122,4.925,9.746
			c2.263,2.93,3.533,7.815,2.861,10.459"/>
	</g>
	<g id="g354_1_" transform="translate(419.1943,135.3066)">
		<path id="path356_1_" inkscape:connector-curvature="0" stroke="#000000" stroke-width="0.714" d="M77.125-11.251
			c0.492,6.031,0.072,9.257,2.276,12.993c1.979,3.109,3.937,13.847,1.079,20.173"/>
	</g>
	<g id="g358_1_" transform="translate(410.7695,136.209)">
		<path id="path360_1_" inkscape:connector-curvature="0" stroke="#000000" stroke-width="0.714" d="M72.553-13.546
			c4.433,5.568,0,6.961-1.477,11.602c-1.478,4.639,3.293,6.985,5.372,12.491"/>
	</g>
	<g id="g362_1_" transform="translate(407.2666,138.916)">
		<path id="path364_1_" inkscape:connector-curvature="0" stroke="#000000" stroke-width="0.714" d="M70.653-20.428
			c0.986,6.496,0,8.815-1.971,12.99c-1.969,4.177-3.943,10.425-0.511,14.873"/>
	</g>
	<g id="g366_1_" transform="translate(402.1504,131.085)">
		<path id="path368_1_" inkscape:connector-curvature="0" stroke="#000000" stroke-width="0.714" d="M67.876-0.517
			c-2.954,6.96-2.993,17.173,1.932,22.739"/>
	</g>
	<g id="g370_1_" transform="translate(399.9268,135.9033)">
		<path id="path372_1_" inkscape:connector-curvature="0" stroke="#000000" stroke-width="0.714" d="M66.669-12.769
			c-6.4,5.568-8.119,17.259-5.437,24.537"/>
	</g>
	<g id="g374_1_" transform="translate(387.791,131.6953)">
		<path id="path376_1_" inkscape:connector-curvature="0" stroke="#000000" stroke-width="0.714" d="M60.083-2.069
			c-2.463,2.784-4.899,6-5.649,8.627"/>
	</g>
	<g id="g378_1_" transform="translate(387.791,138.0137)">
		<path id="path380_1_" inkscape:connector-curvature="0" stroke="#000000" stroke-width="0.714" d="M60.083-18.135
			c-2.463,4.177-8.241,7.722-12.673,9.577c-4.434,1.856-6.533,8.983-6.533,8.983"/>
	</g>
	<g id="g382_1_" transform="translate(418.4297,167.7856)">
		<path id="path384_1_" inkscape:connector-curvature="0" stroke="#000000" stroke-width="0.714" d="M76.711-93.835
			c4.922-4.176,11.816-4.641,11.816-4.641s2.463,6.497,0.493,9.744c-1.97,3.25-12.31,3.25-12.31,3.25"/>
	</g>
	<g id="g386_1_" transform="translate(374.4385,140.8184)">
		<path id="path388_1_" inkscape:connector-curvature="0" stroke="#000000" stroke-width="0.714" d="M52.837-25.267
			c-1.709,1.298-3.448,3.379-3.228,5.115c2.463,0,10.354,0.689,10.354,0.689"/>
	</g>
	<g id="g390_1_" transform="translate(402.1504,153.9551)">
		<path id="path392_1_" inkscape:connector-curvature="0" stroke="#000000" stroke-width="0.714" d="M67.876-58.669
			c0.985,4.639,2.463,9.744,0.985,12.993c-1.477,3.247,8.864-4.64,7.387-8.354c-1.479-3.71,3.938,1.856,2.46,6.033
			c-1.477,4.177,7.389-5.569,6.403-10.207c-0.984-4.641,2.956-1.394,2.956,2.783s4.43-5.567,3.445-7.888L90.53-65.63"/>
	</g>
	<g id="g394_1_" transform="translate(375.6113,123.2529)">
		<path id="path396_1_" inkscape:connector-curvature="0" stroke="#000000" stroke-width="0.714" d="M53.473,19.397
			c-5.477,0.795-12.404,2.381-15.777,5.161"/>
	</g>
	<g id="g398_1_" transform="translate(397.2988,176.5703)">
		<path id="path400_1_" inkscape:connector-curvature="0" stroke="#000000" stroke-width="0.625" d="M65.243-117.173
			c2.11,0.79,7.383,1.58,9.228,0.527"/>
	</g>
</g>
<path id="path3848" fill="#ED2939" stroke="#000000" stroke-width="0.714" d="M374.926,121.598v0.035l-7.26,0.046l-13.03,38.689
	h37.518l-9.46-28.097h28.044l-9.46,28.097h37.519l-9.46-28.097h28.044l-9.46,28.097h37.518l-9.459-28.097h28.043l-9.459,28.097
	h37.518l-9.46-28.097h28.044l-9.46,28.097h37.519l-13.06-38.771l-7.667,0.058v-0.058h-38.976h-46.643h-46.642h-46.643H374.926z"/>
</svg>
