<?xml version="1.0" encoding="UTF-8" standalone="no"?>
<svg xmlns="http://www.w3.org/2000/svg" width="500" height="300">
 <rect width="500" height="150" y="-300" transform="scale(1-1)" fill="#da121a"/>
 <g stroke="#000">
  <g fill="#fff">
   <path d="m.2 149.8l.715-149.6 498.89.255-.031 149.18" color="#000" stroke-width=".4"/>
   <path d="m170.18 49.27h159.72v105.27c0 58.08-65.34 96.19-79.86 96.19-14.52 0-79.86-38.12-79.86-96.19v-105.27" fill-rule="evenodd" stroke-linejoin="round" stroke-linecap="round" stroke-width="1.452"/>
  </g>
  <g stroke-linejoin="round" stroke-linecap="round">
   <g stroke-width=".181">
    <g fill-rule="evenodd">
     <path d="m235.68 87.83c1.811-2.276 5.171-4.393 14.12-5.573 1.157-.153 1.378 3.482-.162 3.409-2.055-.098-2.903-.623-6.493-.216-4.308.487-4.653 1.912-7.467 2.381z" fill="#da121a"/>
     <g fill="#fcdd09">
      <path d="m232.65 187.17l-3.056 7.765c-.878 2.232-1.852.746-2.814-1.299-1.268-2.699-1.678-7.703-5.194-5.422-2.695-1.227-6.156-.052-5.564 3.489.767-1.238 2.953-1.436 4.941-.638-3.897 2.087 1.681 3.01 3.297 6.633-2.092 1.431-11.731-.352-11.442 2.905-3.02 2.825-1.542 4.832-.192 6.862.795-1.481.506-3.504 3.144-4.064 1.252 1.28 2.243 1.622 5.115-.689 2.174-1.749 6.23-3.186 4.407-.177-.703 1.161-2.444 2.766-3.454 4.476-1.375 2.33-1.097 6.177.922 5.853 1.331 1.115 3.366 1.217 6.02.072-2.664-.569-2.803-1.281-2.846-2.283 2.45-2.242.525-4.266 1.928-7.448 2.259.505 3.971.408 4.199-1.32 2.163 2.05 3.343 5.802 8.369 2.89 1.388.9 2.165 1.17 1.615 4.394 2.079-1.452 3.324-5.625 1.021-6.746.322-4.09-12.603.638-9.438-5.605l3.157-6.226c-2.043-1.064-3.101-1.553-4.136-3.423"/>
      <path d="m233.84 93.67c5.591-2.285 12.409-4.74 17.242-4.112 2.59-2.617 2.848-4.472 1.84-6.926-.888-2.16-4.209-3.898-7.395-5.375-3.502-1.624-6.402-2.588-9.414-4.905-2.77 2.569-7.677 2.519-8.873 8.116-1.438 6.731 1.539 7.456 5.194 8.549-2.264-4.03-1.47-6.381 4.329-5.735 4.536.505 5.918-2.426 10.172-2.164 2.267.14 5.41 1.926 2.705 4.653-1.207 1.217-4.572 1.579-7.683 2.272-5.252 1.17-7.168 3.283-8.116 5.627z"/>
      <path d="m267.42 187.17l3.056 7.765c.878 2.232 1.852.746 2.814-1.299 1.268-2.699 1.678-7.703 5.194-5.422 2.695-1.227 6.156-.052 5.564 3.489-.767-1.238-2.953-1.436-4.941-.638 3.897 2.087-1.681 3.01-3.297 6.633 2.092 1.431 11.731-.352 11.442 2.905 3.02 2.825 1.542 4.832.192 6.862-.795-1.481-.506-3.504-3.144-4.064-1.252 1.28-2.243 1.622-5.115-.689-2.174-1.749-6.23-3.186-4.407-.177.703 1.161 2.444 2.766 3.454 4.476 1.375 2.33 1.097 6.177-.922 5.853-1.331 1.115-3.366 1.217-6.02.072 2.664-.569 2.803-1.281 2.846-2.283-2.45-2.242-.525-4.266-1.928-7.448-2.259.505-3.971.408-4.199-1.32-2.163 2.05-3.343 5.802-8.369 2.89-1.388.9-2.165 1.17-1.615 4.394-2.079-1.452-3.324-5.625-1.021-6.746-.322-4.09 12.574.653 9.438-5.605l-3.12-6.226c2.043-1.064 3.065-1.553 4.1-3.423"/>
     </g>
     <path d="m273.47 113.32c3.705.572 8.878.405 12.148-1.39 5.04-2.768 7.04-6.561 8.642-11.761 1.194-3.874.27-8.531-2.534-10.945-1.414 3.186-1.65 6.898-5.765 8.05-2.451.688-7.02-1.17-8.303 1.486-1.14 2.352 3.622 6.36 2.217 8.982-2.883 5.379-6.459 2.385-6.78.212 5.677-.315 1.108-3.548-.261-6.921-.944-2.324.183-4.083 2.164-6.276 3.356-3.716 5.936-1.084 8.784-1.462 5.384-.716 7.418-7.215 6.15-10.874-1.141-3.291-2.41-5.442-3.31-9.82-.722-3.509.144-7.918 3.869-8.01 3.809-.09 5.555 2.83 8.187 4.97 2.233 1.815 6.38 2.723 7.03-1.999.327-2.391.122-4.713 2.455-6.377 3.59-2.561 4.683.411 6.878 1.104 2.197.693 5.103-.34 6.482-2.903 1.436 3.043-1.052 6.295-3.389 6.878-2.253.562-6.168-5.495-7.726-.971-1.01 2.933-2.078 5.188-4.241 7.195-1.792 1.663.218 5.796 2.164 6.899 3.466 1.965 6.744 1.764 8.594-3.859 3.395 3.198 2.389 7.162.28 8.403-2.789 1.642-5.591.094-8.53-1.01 5.667 11.362 10.315 22.387 11.08 36.956-.662 7.797 2.554 7.629 5.05 7.923.188 4.239-2.387 7.103-5.22 5.907-3.29-1.389-5.448-4.519-5.627-10.172-1.065.9-2.129.865-3.194.549l1.779 26.795c.282 4.24.81 8.04 5.247 8.694-2.08 4.481-5.492 5.03-7.691 2.571-5.154-5.768-4.098-14-4.952-20.825-.739.307-1.867.366-2.877 0l1.515 26.8c.242 4.283 1.389 10.641 6.086 10.821-.743 4.168-6.714 6.622-9.792.302-5.258-10.799-3.95-22.14-4.339-33.441-.975.597-2.02.642-3.542.153l.691 36.18c.221 11.561.592 16.245 3.933 16.501.587 3.831-6.831 6.548-8.799-1.863-2.9-12.39-2.117-32.413-3.13-48.971-.842.427-1.71.827-3.399.407l-.216 20.777c-.066 6.363.083 11.873 3.093 12.986-1.698 4.497-8.285 2.333-8.229-3.487.094-9.741.294-19.78-.376-29.499-1.13.419-2.412.417-3.542-.026.299 4.03-1.223 13.189 1.694 16.348-2.72 3.296-6.493 2.901-6.493-5.669v-10.679c-1.111.219-2.079.416-3.59-.164-.142 4.167-.213 10.535 1.261 14.796 3.187 9.212 1.136 15.06 2.436 23.845-1.098 1.898-1.944 2.465-4.114 3.392-1.144-3.842-5.473-4.201-6.7-12.905-.483-3.43-2.163 12.507-2.394 18.905-.196 5.441-.507 12.876 2.151 17.1 2.01 3.189 3.869 3.51 9.394 1.716 4.091-1.328 8.803-1.37 10.9 1.655 1.66 2.395 2.71 4.092 6.084 4.01-2.718 4.482-6.114.864-10.235-.813-2.426-.987-5.739 2.472-9.475 3.526-3.38.954-4.653-2.396-9.02-6.313-1.881-1.687.115 3.325 3.347 6.3 2.538 2.337 5.326 1.203 8.604 1.769 3.188.55 5.348 3.974 3.515 7.487-1.715-2.662-4.901-2.578-8.224-2.597-4.113-.023-5.39-2.731-6.926-5.194-3.605 1.58 5.799 6.848 5.45 11.341-.096 1.235-2.556-1.341-3.493-1.311-1.308.042-.501 1.077-1.551 1.06-.887-.015-2.058-2.255-2.136-1.135-.234 3.377-1.954 3.25-2.674 4.491-.72-1.248-2.44-1.121-2.674-4.498-.078-1.121-1.249 1.12-2.136 1.135-1.05.018-.243-1.018-1.551-1.06-.936-.03-3.397 2.546-3.493 1.311-.349-4.493 9.06-9.762 5.45-11.341-1.535 2.463-2.812 5.171-6.926 5.194-3.323.019-6.509-.065-8.224 2.597-1.833-3.513.327-6.938 3.515-7.488 3.279-.565 6.066.568 8.604-1.769 3.232-2.975 5.228-7.987 3.347-6.3-4.369 3.917-5.642 7.267-9.02 6.313-3.735-1.054-7.05-4.513-9.475-3.526-4.122 1.677-7.518 5.295-10.235.813 3.374.083 4.424-1.615 6.084-4.01 2.097-3.02 6.809-2.983 10.9-1.655 5.525 1.794 7.387 1.473 9.394-1.716 2.659-4.224 2.347-11.659 2.151-17.1-.231-6.398-1.911-22.335-2.394-18.906-1.226 8.704-5.466 8.901-6.61 12.743-2.169-.927-3.151-1.22-4.249-3.117 1.3-8.784-.706-14.746 2.481-23.958 1.474-4.261 1.403-10.629 1.261-14.796-1.51.58-2.479.383-3.59.164v10.679c0 8.57-3.773 8.965-6.493 5.669 2.918-3.159 1.396-12.321 1.694-16.348-1.13.505-2.412.387-3.542.026-.67 9.719-.47 19.758-.376 29.499.056 5.82-6.531 7.984-8.229 3.487 3.01-1.112 3.16-6.623 3.093-12.986l-.216-20.777c-1.744.286-2.557.017-3.399-.407-1.013 16.558-.231 36.581-3.13 48.971-1.968 8.41-9.386 5.693-8.799 1.863 3.34-.256 3.712-4.94 3.933-16.501l.691-36.18c-1.181.486-2.361.28-3.542-.153-.389 11.3.918 22.642-4.339 33.441-3.077 6.32-9.05 3.866-9.792-.302 4.697-.181 5.844-6.539 6.086-10.821l1.515-26.8c-1.01.529-1.867.268-2.877 0-.853 6.82.203 15.06-4.952 20.825-2.198 2.46-5.61 1.91-7.691-2.571 4.436-.657 4.965-4.454 5.247-8.694l1.779-26.795c-1.065.316-2.129.351-3.194-.549-.179 5.653-2.337 8.783-5.627 10.172-2.834 1.196-5.408-1.668-5.22-5.907 2.498-.294 5.714-.126 5.05-7.923.764-14.569 5.412-25.594 11.08-36.956-2.939 1.102-5.741 2.65-8.53 1.01-2.109-1.241-3.116-5.206.28-8.403 1.849 5.622 5.128 5.824 8.594 3.859 1.946-1.103 3.956-5.236 2.164-6.899-2.163-2.01-3.231-4.262-4.241-7.195-1.558-4.524-5.473 1.533-7.726.971-2.336-.583-4.825-3.834-3.389-6.878 1.379 2.563 4.285 3.596 6.482 2.903 2.195-.693 3.288-3.665 6.878-1.104 2.333 1.664 2.128 3.986 2.455 6.377.647 4.722 4.793 3.814 7.03 1.999 2.632-2.14 4.378-5.06 8.187-4.97 3.725.088 4.591 4.496 3.869 8.01-.9 4.378-2.169 6.529-3.31 9.82-1.268 3.659.765 10.157 6.15 10.874 2.848.379 5.428-2.253 8.784 1.462 1.981 2.193 3.108 3.952 2.164 6.276-1.369 3.373-5.938 6.606-.261 6.921-.32 2.174-3.897 5.167-6.78-.212-1.405-2.621 3.356-6.629 2.217-8.982-1.287-2.656-5.852-.797-8.303-1.486-4.114-1.155-4.35-4.794-5.765-7.98-2.804 2.415-3.728 6.998-2.534 10.873 1.603 5.201 3.598 8.993 8.642 11.761 3.27 1.795 8.29 1.951 11.919 1.01 3.32-.863 6.65 3.22 9.422 2.899 1.561-.181 2.278-3.647 4.213-5.496 1.188-1.331-1.445-1.078-2.922-.108-.457-3.85 2.665-3.995 6.601-7.358 2.01-1.72 3.771-2.718 4.328-7.03-.938-.559-1.876-.83-2.814.325-.735-3.787 2.901-3.195 5.411-5.952 4.889-5.369 2.788-8.582-1.948-11.362-5.02-2.945-9.688-3.502-12.661-6.493 4.86-3.683 7.07-8.07 14.284-11.471 5.221-2.46 5.539 2.1 6.817 1.407 1.76-.954 2.922-1.152 4.545-.649-.535 1.503-2.629 2.494-1.515 3.463 1.455 1.265 3.769.381 6.385-1.407 1.088 4.211-1.1 5.154-3.355 5.952.721 2.426 4.256 1.453 6.06 4.545 1.587-.385 3.548-2.152 4.761.866.812 2.02 1.916 2.458 3.138 3.246-1.84 2.117-3.385.974-5.519.216-1.615-.573.509 3.985-.649 4.978-3.454 2.96 1.427 7.319.433 11.04-.503 1.883-1.398 3.657-2.381 3.787.131 2.85 1.232 5.584-.866 8.549-1.783 2.521 1.173 4.116-1.726 6.859-1.504 1.423 4.254-.842 7.06-.409z" fill="#da121a"/>
     <path d="m274.15 210.73c1.576-.222 2.709.375 3.061 1.989m-20.2-10.253c2.148.065 2.117 1.341 2.525 2.372m19.627-13.735c-1.409-.647-1.161-2.01-.727-2.908m8.761 12.396c-1.943-.189-3.435.348-2.946 2.793m-58.34 7.338c-1.576-.222-2.709.375-3.061 1.989m20.2-10.253c-2.148.065-2.117 1.341-2.525 2.372m-19.665-13.773c1.294-.379 1.352-1.862.918-2.755m-8.8 12.396c1.943-.189 3.321.233 2.831 2.678" fill="none"/>
     <g fill="#fcdd09">
      <path d="m232.22 123c-.117-1.147-5.435-1.379-11.347-3.293-6.72-2.175-14.388-5.772-19.11-8.595-5.097-3.047-11.566-11.287-14.777-18.628-1.704 3.96-2.997 7.468-4.471 12.769 5.346 4.931 12.561 9.303 20.411 12.57 10.308 4.289 29.516 7.357 29.29 5.177z"/>
      <path d="m267.86 123c.117-1.147 5.435-1.379 11.347-3.293 6.72-2.175 14.388-5.772 19.11-8.595 5.097-3.047 11.872-11.287 14.776-18.628 1.587 3.168 3.11 7.241 4.508 12.769-5.346 4.931-12.598 9.303-20.448 12.57-10.308 4.289-29.516 7.357-29.29 5.177z"/>
     </g>
    </g>
    <ellipse transform="matrix(.86809-.49641.49628.86816 0 0)" ry="2.255" rx="1.503" cy="187.29" cx="175.11"/>
   </g>
   <path d="m246.34 74.991c-.223-1.103-3.07-2.119-3-.158 2.349-.763 1.933.582 2.561 1.733.405.742.846.42.443-1.575z" fill="#fff" fill-rule="evenodd" stroke-width=".363"/>
  </g>
 </g>
</svg>
