<?xml version="1.0" encoding="UTF-8"?>
<svg xmlns="http://www.w3.org/2000/svg" width="600" height="400">
<rect width="600" height="400" fill="#00319c"/>
<g fill="#fff" transform="matrix(25,0,0,25,300,200)">
<path d="M-6,-1V1L6,-1V1zM-1,-6H1L-1,6H1z"/>
<path d="M-6,-1V1L6,-1V1zM-1,-6H1L-1,6H1z" transform="rotate(45)"/>
<circle r="5"/>
<circle r="4" fill="#00319c"/>
</g>
<path fill="#f00" d="m297.4,296.1c5.4,-42.8 23.9,-24.3 30.1,-96.5c-5.1,5.5 -9.5,15.2 -13.7,25.9c-8.7,-21.6 9.8,-32.7 4.3,-66.2c-5,8.2 -8.2,13.7 -12,16.2c-2,-5.6 3.7,-37 -5,-40.2c-1.5,8.3 -2.8,19.3 -2.3,28.2c-3.4,0.5 -4.3,-2.5 -9.3,-10.6c-4.8,18.8 3.1,42.9 -6.2,45.1c-3.2,-3.6 0.5,-13.9 -3.9,-19.7c-8.7,20.9 -1.6,23.6 3.1,32.9c-3.1,2.9 -6,3.8 -11.8,-2.5c7.6,32.9 16.6,46.2 25.5,50.3c-4.6,29.2 -2.9,38 1.3,37z"/>
</svg>
