<?xml version="1.0" encoding="UTF-8" standalone="no"?>
<!-- Creator: CorelDRAW -->
<svg
   xmlns:dc="http://purl.org/dc/elements/1.1/"
   xmlns:cc="http://web.resource.org/cc/"
   xmlns:rdf="http://www.w3.org/1999/02/22-rdf-syntax-ns#"
   xmlns:svg="http://www.w3.org/2000/svg"
   xmlns="http://www.w3.org/2000/svg"
   xmlns:sodipodi="http://sodipodi.sourceforge.net/DTD/sodipodi-0.dtd"
   xmlns:inkscape="http://www.inkscape.org/namespaces/inkscape"
   xml:space="preserve"
   width="800"
   height="500"
   style="shape-rendering:geometricPrecision; text-rendering:geometricPrecision; image-rendering:optimizeQuality; fill-rule:evenodd; clip-rule:evenodd"
   viewBox="0 0 210 297"
   id="svg2"
   sodipodi:version="0.32"
   inkscape:version="0.45.1"
   sodipodi:docname="POL powiat cieszyński flag.svg"
   inkscape:output_extension="org.inkscape.output.svg.inkscape"
   sodipodi:docbase="C:\Users\Mistrz\Desktop"
   version="1.0"><metadata
   id="metadata20"><rdf:RDF><cc:Work
       rdf:about=""><dc:format>image/svg+xml</dc:format><dc:type
         rdf:resource="http://purl.org/dc/dcmitype/StillImage" /></cc:Work></rdf:RDF></metadata><sodipodi:namedview
   inkscape:window-height="480"
   inkscape:window-width="640"
   inkscape:pageshadow="2"
   inkscape:pageopacity="0.0"
   guidetolerance="10.0"
   gridtolerance="10.0"
   objecttolerance="10.0"
   borderopacity="1.0"
   bordercolor="#666666"
   pagecolor="#ffffff"
   id="base" />
 <defs
   id="defs4">
  <style
   type="text/css"
   id="style6">
   
    .fil1 {fill:#0A0B0C}
    .fil3 {fill:#DA251D}
    .fil0 {fill:#005CA1}
    .fil2 {fill:#FACF00}
   
  </style>
 </defs>
 <g
   id="Warstwa_x0020_1"
   transform="matrix(2.2628571,0,0,2.2628571,-132.6,-187.53428)">
  <metadata
   id="CorelCorpID_0Corel-Layer" />
  <g
   id="_72259888">
   <rect
   id="_72260296"
   class="fil0"
   y="82.875"
   width="210"
   height="131.25"
   x="0"
   style="fill:#005ca1" />
   <g
   id="g12">
    <path
   id="_72260224"
   class="fil1"
   d="M 114.987,134.887 C 115.5688,134.7992 116.1202,134.8205 116.5093,134.8795 C 118.2921,135.1498 118.8187,136.0082 119.5153,136.5831 C 120.7306,137.5863 121.641,137.7816 121.859,136.5198 C 121.8983,136.2926 121.8062,136.0668 121.637,135.7635 C 120.7033,134.0898 121.2274,132.135 123.1104,131.5113 C 125.1702,130.8291 125.9449,129.3262 123.3397,129.031 C 122.1797,128.8996 120.2194,128.7887 119.1656,126.5887 C 117.7395,123.6112 119.2781,119.5133 120.7665,117.2893 C 122.3494,114.8596 124.3902,112.2369 126.2342,109.4718 C 127.7543,107.0861 128.5764,104.8142 128.338,100.0826 C 132.3872,100.0945 134.8267,102.1489 134.4614,106.252 C 134.2686,108.4182 133.2597,110.7769 132.0453,112.646 C 130.7406,114.654 129.2337,116.8256 128.4588,118.0241 C 132.755,113.5948 136.4543,108.7376 139.1749,104.0052 C 139.2533,109.0002 133.5207,116.6556 129.9356,120.2407 C 137.145,115.8922 142.8948,111.3822 144.3008,106.5508 C 148.1608,108.6253 149.1436,111.7143 146.8413,115.5067 C 145.1448,118.4209 141.6232,122.2398 133.0669,126.1196 C 140.268,124.3304 146.0223,121.3193 149.2344,119.7675 C 146.135,124.6053 139.6346,127.1527 132.4958,128.8194 C 132.4804,129.113 132.3887,129.4288 132.2336,129.7922 C 135.4356,129.781 138.655,129.7836 141.8552,129.7141 C 143.9756,129.6677 145.9323,129.2069 147.5571,128.4388 C 146.1685,137.9159 137.5482,136.7558 131.3913,136.4938 C 135.3631,137.6607 140.9447,140.045 147.8367,140.1076 C 145.5984,141.5523 142.5847,141.8976 139.353,141.3521 C 137.1078,140.9731 134.9372,140.2103 131.7364,139.2741 C 136.766,142.595 143.0916,147.9135 150.1248,148.1733 C 147.5877,152.655 143.5049,154.0781 138.9771,152.0557 C 135.0746,150.3319 130.7945,146.3207 126.8338,141.772 L 127.1531,142.5455 C 133.2343,151.4047 137.1227,155.7469 140.0971,158.1233 C 135.6763,157.1105 131.8714,153.7551 126.204,145.7161 C 129.5518,154.8917 133.1328,161.7342 138.7566,165.3286 C 131.5798,169.5307 125.0308,164.0774 119.4751,147.5258 C 117.554,149.552 114.5808,148.0909 113.6644,145.9927 C 113.3678,146.5342 112.0506,148.8772 111.4911,149.9145 C 114.8134,149.2133 116.5664,150.5951 117.6207,152.5345 C 118.4519,154.0637 119.0965,155.7819 119.5857,157.4449 C 120.2542,159.9645 121.725,164.5251 125.3433,164.7474 C 124.7028,166.5091 123.0075,167.4061 121.4183,167.375 L 123.1724,170.4124 C 123.6834,171.3018 125.1081,171.2258 125.9774,170.9876 C 127.2853,170.6288 128.9413,169.8737 130.5131,169.2809 C 130.5471,169.1929 132.2284,167.671 132.9825,168.7387 C 135.4573,168.0722 137.7896,169.5377 137.97,171.9567 C 136.9579,171.2082 135.4987,170.8475 134.4086,171.5893 C 134.8799,173.5003 132.2573,174.2579 130.6894,172.5971 L 127.472,173.2661 C 126.8142,173.3874 126.5299,173.4914 127.4932,173.8672 L 132.2922,175.7283 C 133.7453,175.4612 134.7901,175.628 134.7516,177.0461 C 137.2749,178.6469 137.3238,180.9733 135.9967,182.8485 C 135.5201,180.8673 134.8189,180.3968 133.9171,180.1482 C 133.4701,181.0461 132.6394,181.2635 131.915,181.0536 C 131.1677,180.8436 130.6477,179.6968 130.4598,178.5445 L 125.3747,175.3528 L 127.6922,180.3329 C 128.4377,181.1423 128.6986,182.113 128.2088,182.6926 C 128.0493,184.4741 126.9625,186.9295 123.6276,186.5383 C 125.04,185.3356 125.2082,184.4463 125.1132,183.5783 C 123.4185,183.7515 122.1017,181.9509 123.8082,179.8674 L 122.5499,174.9838 C 122.4671,174.664 122.2672,174.6205 122.0081,174.7633 L 120.243,175.7365 C 119.8529,177.4195 118.6657,178.5561 117.2646,177.4184 C 116.052,177.9528 115.8123,179.4352 115.8405,180.4387 C 114.1199,178.9523 113.8264,176.4886 115.8406,174.5303 C 115.6658,173.5279 116.2606,173.4361 117.1679,173.5385 C 117.4474,173.5699 117.6886,173.5444 117.9647,173.4904 C 118.7692,173.3331 119.9736,173.0114 120.7734,172.8461 C 120.9906,172.8013 121.0567,172.5794 120.8659,172.3241 L 118.3236,168.8843 C 117.9551,169.9606 117.1495,171.3043 115.857,172.7893 C 115.8611,168.499 113.3289,166.4258 111.1648,163.7887 C 109.6209,161.9484 108.856,160.3024 108.5514,158.1554 C 107.8676,161.0005 107.576,164.2242 108.1199,167.0633 C 109.1175,172.2701 112.4791,169.0806 112.7274,168.7251 C 113.5916,170.533 112.9961,172.6263 111.4463,173.4629 C 109.9847,174.2519 108.2073,174.2439 106.7803,172.9158 C 107.366,176.1476 109.8012,179.5978 113.1744,177.7867 C 113.8658,181.2337 112.0568,183.8415 108.2137,182.3345 C 110.0508,184.0089 111.3767,185.1464 113.6298,186.0487 C 115.674,186.8672 117.9937,186.3572 119.2311,183.8224 C 120.6847,186.2396 120.5585,188.2307 118.8822,189.5315 C 123.3186,191.0505 123.7479,195.156 119.2282,197.3681 C 119.3366,195.1116 118.4516,193.3327 115.2545,192.8553 C 115.6224,197.2827 110.4626,197.9614 109.0244,194.16 C 111.2199,193.3603 111.6343,192.2156 111.1989,191.0476 C 110.7982,189.9722 109.9782,188.8564 109.2397,187.9932 C 108.5197,187.1517 107.6118,186.4913 106.9558,185.586 C 107.2708,186.6749 107.6864,187.6457 108.0196,188.6286 C 108.673,190.5557 108.8653,192.3137 107.4473,194.8297 C 106.3268,196.8178 105.4539,198.8925 104.5855,200.9995 C 103.6419,198.6062 102.6541,196.6994 101.6835,194.762 C 99.7555,190.9137 100.8864,189.331 102.0677,185.9458 C 100.3555,187.1766 98.4375,189.939 98.0479,190.7872 C 97.3476,192.3119 97.9275,193.4188 100.138,194.1253 C 98.5984,198.1759 93.5258,197.167 93.8451,192.8715 C 90.1273,193.5597 89.7451,195.7967 89.8776,197.4925 C 86.5623,195.9732 84.7675,191.8252 90.1483,189.5889 C 88.8389,188.4247 88.2624,186.8162 89.8984,183.8111 C 92.5436,189.583 98.7374,184.6615 100.9314,182.4032 C 95.7888,184.1249 95.5973,180.0891 95.9586,177.7063 C 99.6603,179.8568 101.6826,175.8485 102.3485,173.0404 C 100.2463,174.8445 97.9101,173.9808 96.7425,172.6916 C 95.768,171.6156 95.8079,169.799 96.3578,168.6015 C 97.5107,169.9743 98.6446,170.2307 99.3759,169.7719 C 101.1575,168.6543 101.5443,166.292 101.5297,164.3609 C 101.514,162.2771 101.0721,160.4211 100.8391,158.6935 C 100.4463,161.0237 99.4974,162.8076 97.8827,164.73 C 95.8084,167.1996 93.6647,168.8025 93.524,173.3469 C 92.2441,171.8269 91.4577,170.5408 91.0982,169.4441 L 88.1595,173.3696 C 87.9665,173.6273 88.0729,173.8709 88.2897,173.9183 C 89.088,174.0931 90.2056,174.378 91.0088,174.5448 C 91.2844,174.602 91.5253,174.63 91.8051,174.6005 C 92.7133,174.5042 93.358,174.603 93.1747,175.62 C 95.2011,177.5697 94.9181,180.0164 93.1678,181.5462 C 93.2044,180.5269 92.9814,179.022 91.7733,178.4686 C 90.3627,179.6125 89.1559,178.5114 88.78,176.798 L 87.0574,175.8142 C 86.7994,175.6669 86.5894,175.7093 86.5039,176.0335 L 85.2134,180.9232 C 86.9023,183.0547 85.6214,184.8303 83.9283,184.6398 C 83.8437,185.5394 83.9804,186.3763 85.3556,187.5825 C 82.0175,187.9512 80.9678,185.5246 80.8233,183.7133 C 80.3385,183.1201 80.5726,182.2647 81.3249,181.4487 L 83.6506,176.4083 L 78.5556,179.6163 C 78.4598,180.7477 77.8233,181.8732 76.995,182.1094 C 76.2688,182.3166 75.4993,182.089 75.0598,181.1729 C 74.1834,181.5187 73.5181,181.9335 73.0084,183.8819 C 71.7805,182.0226 71.7571,179.7659 74.2422,178.1255 C 74.1951,176.6997 75.1861,176.5273 76.7216,176.7476 L 81.5278,174.8893 C 82.4943,174.5156 82.1938,174.4246 81.537,174.2957 L 78.2825,173.6568 C 77.0109,175.2584 74.0658,174.5389 74.6468,172.6615 C 73.4712,171.8812 71.7912,172.2552 71.0374,173.0568 C 71.2382,170.6005 73.598,169.0939 76.0671,169.7923 C 76.8302,168.714 78.4916,170.2293 78.5248,170.319 C 80.0915,170.9348 81.7226,171.6797 83.0274,172.0554 C 83.8946,172.305 85.3742,172.2947 85.8927,171.3955 L 87.9058,167.9038 C 86.3163,167.9218 84.7049,167.0776 84.0793,165.2821 C 87.5435,165.0413 89.1555,160.6234 89.8486,158.3018 C 90.0628,157.5844 90.5887,156.0499 91.2209,154.5257 C 92.2607,152.0184 94.1853,149.4742 98.2636,150.5303 C 97.6964,149.3182 97.0903,148.1192 96.4413,146.9345 C 94.9772,150.1439 91.9147,150.1982 90.5259,148.6072 C 84.923,165.0642 78.4685,170.5616 71.3273,166.4307 C 76.7467,162.5357 80.7473,155.5444 84.0248,146.8182 C 78.551,154.5861 74.4541,158.11 69.9453,159.2461 C 73.4909,156.428 77.7167,151.6201 83.1982,142.8611 C 79.2376,147.4099 74.9264,151.4133 71.0239,153.1371 C 66.4455,155.1595 62.2097,153.7363 59.8762,149.2547 C 66.4048,149.3101 73.1904,143.751 78.306,140.3762 C 75.1052,141.3125 72.8725,142.096 70.6273,142.4749 C 67.3956,143.0204 64.444,142.6751 62.2058,141.2304 C 68.9423,141.1678 74.3375,138.9078 78.4855,137.7408 C 72.6494,137.9282 63.8346,138.886 62.4646,129.5823 C 64.0894,130.3505 66.0254,130.7905 68.1458,130.8369 C 71.346,130.9064 74.5654,130.8624 77.7674,130.8736 C 77.6123,130.5101 77.5206,130.1943 77.5052,129.9008 C 70.3664,128.2341 63.9074,125.7488 60.808,120.911 C 64.0201,122.4628 69.733,125.4118 76.9341,127.2009 C 69.1911,123.7649 64.965,119.5617 63.1597,116.5881 C 60.8574,112.7957 61.8402,109.7067 65.7002,107.6322 C 67.1062,112.4636 72.9388,117.015 80.1482,121.3636 C 76.5631,117.7784 70.7477,110.0816 70.8261,105.0866 C 73.5467,109.819 77.0182,114.407 81.3144,118.8363 C 80.5395,117.6378 79.2604,115.7354 77.9557,113.7273 C 76.7413,111.8583 75.7324,109.4996 75.5396,107.3334 C 75.1743,103.2303 77.6139,101.1759 81.663,101.164 C 81.4246,105.8956 82.2467,108.1675 83.7668,110.5532 C 85.5286,113.3182 87.6085,115.941 89.2345,118.3707 C 90.7229,120.5947 92.2965,124.6926 90.8703,127.6701 C 89.8165,129.87 87.8795,130.0276 86.7195,130.159 C 84.1142,130.4541 84.8191,131.9337 86.879,132.616 C 88.762,133.2397 89.3093,135.2643 88.3756,136.938 C 88.2064,137.2413 88.1376,137.4322 88.1768,137.6594 C 88.3949,138.9212 89.282,138.7142 90.4974,137.7111 C 91.1939,137.1361 91.7671,136.2545 93.5499,135.9842 C 93.9418,135.9248 94.4802,135.8962 95.0507,135.9799 L 95.1466,135.3805 C 93.427,134.3342 92.9846,133.2833 92.6901,132.498 C 95.5313,133.356 97.0482,132.4391 97.8532,131.7163 C 95.3687,131.6729 94.3272,130.3876 94.0733,128.9863 C 93.8335,127.6622 94.5314,126.2471 95.4382,125.5079 C 95.7326,128.5309 97.1908,128.6358 98.5532,127.843 C 99.4401,127.3269 101.8257,124.9173 102.2787,124.1303 C 102.7425,123.3243 102.407,122.2909 101.4565,122.0817 C 99.7168,121.9223 96.4243,122.6613 94.9202,120.5975 C 97.0634,120.5975 99.3066,119.3794 101.7294,119.3794 C 100.8179,119.1483 98.7847,119.0295 96.4792,119.6561 C 93.8852,120.3611 90.7153,120.508 90.2809,117.1628 C 92.3156,118.0065 94.7775,117.2463 95.5865,116.975 C 97.3425,116.386 100.3084,116.2783 102.1321,116.8047 C 100.3325,115.0058 98.5492,114.896 96.6662,115.9013 C 95.2282,113.6104 92.8217,113.9659 91.2756,116.6801 C 89.914,111.8282 90.2774,109.2072 96.6427,108.5329 C 96.8511,107.4213 97.3157,105.4228 99.5997,104.872 C 98.6937,101.975 97.4837,99.5595 95.7833,97.9202 C 96.4547,96.7924 99.6995,96.2672 99.5935,98.645 C 100.6642,98.2779 101.5339,98.6444 101.8439,99.2813 C 102.2988,100.216 102.0383,101.482 100.4219,101.5752 C 100.4704,102.3145 100.9218,102.6178 101.3847,102.6024 C 101.9239,102.5845 102.4955,102.0163 102.6065,101.2542 C 102.7343,102.1833 103.2481,102.6199 103.8441,102.5845 C 104.2468,102.5606 104.6569,102.2951 104.7084,101.6891 C 102.4528,101.8978 101.8402,98.8406 104.1907,98.5829 C 103.475,97.0775 104.4061,96.0097 105.9532,95.9995 C 108.0393,95.9858 108.539,98.0955 107.4625,98.9246 C 109.3564,98.9309 109.3125,102.32 106.5203,101.9065 C 106.6037,102.6436 106.9801,102.9013 107.3459,102.9281 C 107.9054,102.9691 108.381,102.5228 108.6842,101.6373 C 108.7819,102.6837 109.1793,103.1913 109.6605,103.2636 C 110.1854,103.3424 110.6671,102.9325 110.7446,102.4656 C 109.5979,102.2121 109.0643,100.9751 109.642,100.1204 C 110.2717,99.1888 111.3638,99.3195 112.0855,99.6959 C 112.3126,97.5409 115.1204,98.1636 116.0199,99.5642 C 114.2159,100.7852 112.5791,102.8609 111.0946,105.7145 C 111.4318,105.6701 111.769,105.5925 112.1063,105.4416 C 111.931,106.3393 111.6246,107.3766 110.6219,107.7778 C 111.2098,108.6671 111.3566,109.6681 111.5511,110.2966 C 112.0717,111.9791 114.336,111.8111 114.9483,109.7547 C 117.4072,114.1125 113.5744,115.926 112.013,114.9398 C 112.4335,115.8205 112.9301,118.6305 113.1118,120.2938 C 113.2233,121.3143 113.3191,121.8688 113.662,122.4503 C 114.387,123.68 115.7946,123.9328 116.8931,121.7985 C 117.2337,124.6924 116.8559,126.8279 113.8187,126.1668 C 113.6302,127.1523 113.7585,131.6981 116.9286,130.092 C 116.7571,131.523 116.7201,132.9656 114.7734,133.5634 C 114.8536,133.9956 114.9239,134.4377 114.987,134.887 L 114.987,134.887 z "
   style="fill:#0a0b0c" />
    <path
   id="_72260152"
   class="fil2"
   d="M 94.9187,136.496 C 92.8143,136.3726 92.2817,136.8181 90.8195,138.096 C 89.8129,138.9755 88.144,139.8361 87.6656,137.8408 C 87.5508,137.362 87.5732,137.1834 87.848,136.7431 C 88.1364,136.2811 88.3441,135.3052 88.2677,134.8371 C 88.1102,133.8724 87.3193,133.2856 86.2405,132.9546 C 85.0097,132.5771 84.484,131.7069 84.4833,131.0434 C 84.4825,130.2544 85.2479,129.7001 86.8921,129.5684 C 88.732,129.4211 90.1767,128.7287 90.6573,126.5046 C 91.2161,123.9194 90.4615,121.543 89.1688,119.3362 C 87.7394,116.8963 85.8351,114.5517 84.169,112.1194 C 81.761,108.604 80.7974,106.0862 81.0967,101.7712 C 74.3703,101.9832 75.5535,108.613 77.7926,112.444 C 79.797,115.8735 82.2476,119.0583 82.6482,119.8736 C 82.845,118.9174 83.2705,118.3083 84.1349,118.0561 C 79.4941,111.7285 78.3908,108.7414 78.8562,104.4411 C 79.2479,109.2208 81.4634,113.6833 84.8103,117.9491 C 85.5353,118.0147 86.0929,118.341 86.5899,118.7614 L 86.2146,119.1557 C 85.0655,118.0746 84.0582,118.4526 83.5706,119.0364 C 82.8102,119.9469 83.0919,121.6256 84.0716,122.4782 L 83.572,122.8922 C 82.402,122.079 80.8229,122.1389 80.1914,123.2629 C 79.6775,124.1778 79.5586,125.9449 81.4239,126.9383 L 81.2597,127.5099 C 79.509,126.7759 78.4005,127.7319 78.1255,128.9551 C 77.868,130.1006 78.4663,131.8679 79.9198,131.8857 L 80.0811,132.4844 C 78.3899,132.3755 76.901,133.524 77.3153,135.2473 C 77.6146,136.4923 78.5282,137.5643 80.6241,136.9633 L 80.9924,137.4987 C 78.7294,138.9671 79.2599,140.8384 80.2255,141.7034 C 81.2951,142.6616 83.0644,142.6096 83.8628,141.2467 L 84.3795,141.649 C 83.6917,143.2933 83.6692,145.2051 85.1943,146.3901 C 86.8759,147.6968 89.1391,146.7131 89.838,144.8215 L 90.4036,145.2239 C 90.0161,147.5644 90.9411,148.6998 92.2083,148.9764 C 93.5706,149.2738 95.2236,148.3465 96.0976,146.3668 C 94.6797,143.5633 94.4624,140.1896 94.9187,136.496 L 94.9187,136.496 z M 91.5115,115.3501 C 91.075,112.6716 90.856,110.7187 93.4154,109.8141 C 94.4391,109.4523 95.8255,109.1294 96.9891,109.0341 C 97.9821,108.9527 99.1507,109.1804 99.8705,110.2563 C 100.2645,110.8453 100.5446,111.727 100.6241,113.0277 C 104.5918,114.2797 105.8276,117.9687 105.2256,122.4445 C 103.6309,121.5859 101.4912,121.4933 100.8628,121.5031 C 99.0102,121.5322 97.2001,121.7826 96.1471,120.9542 C 97.1704,120.8946 97.7469,120.7341 98.3794,120.5216 C 100.0976,119.9441 102.494,119.772 104.4462,120.0568 C 103.4731,116.9601 101.0226,113.3399 96.7928,115.2134 C 95.5659,113.1759 92.9979,113.5645 91.5115,115.3501 L 91.5115,115.3501 z M 116.1769,175.0171 C 115.5581,175.6528 114.3327,177.2101 115.4378,179.1343 C 115.8486,177.869 115.9663,177.6218 116.9816,176.9566 C 116.9043,176.1906 116.6304,175.5518 116.1769,175.0171 L 116.1769,175.0171 z M 127.6674,182.738 C 127.5372,183.5407 127.2033,185.7285 124.9468,185.9906 C 125.7941,184.8166 125.7265,184.3535 125.6321,183.224 C 125.8642,183.1384 126.5158,182.4746 127.6674,182.738 z M 134.548,177.5474 C 135.2279,178.012 136.8926,179.3785 136.1318,181.5213 C 135.574,180.3002 135.1923,180.058 134.1027,179.656 C 134.1244,179.3468 134.2472,178.0309 134.548,177.5474 z M 133.2627,169.2177 C 134.0538,169.1293 136.1375,168.8715 137.1068,170.9101 C 135.6791,170.4136 135.1776,170.6665 134.175,171.0893 C 134.1115,170.9177 133.951,170.7174 133.7362,170.4974 C 133.441,170.195 133.2567,169.7282 133.2627,169.2177 z M 120.7675,167.3445 C 122.0588,169.5586 122.5003,170.4862 122.9859,171.0256 C 123.6183,171.728 125.4386,171.7655 126.343,171.4435 C 127.5933,170.9984 129.7596,170.0467 130.7762,169.7128 C 132.2664,168.3359 132.6662,168.9014 132.7595,169.6882 C 132.8212,170.2084 133.1893,170.6431 133.5208,171.0373 C 134.083,171.706 133.9539,172.4344 133.4593,172.7862 C 132.6138,173.3875 131.5157,172.7147 130.9226,172.0878 C 129.0008,172.4812 127.8127,172.7129 127.2537,172.8151 C 126.1817,173.0109 125.8803,173.7019 127.0079,174.2048 C 128.7654,174.9886 130.507,175.5413 132.2954,176.2568 C 133.7186,175.7846 134.6713,176.474 134.0767,177.2694 C 133.7601,177.6929 133.6218,178.675 133.5646,179.5573 C 133.5324,180.0549 133.0793,180.6275 132.5602,180.6458 C 131.5744,180.6807 131.0224,179.2703 131.0306,178.2994 C 130.4816,177.979 127.0291,175.7748 125.6384,174.9334 C 125.1205,174.62 124.5433,174.9198 124.8539,175.5527 C 125.6708,177.2177 126.4723,178.9638 127.2209,180.6282 C 127.6188,181.0316 128.0181,181.5538 127.8877,182.2414 C 126.9969,182.025 125.8858,182.1438 124.9674,183.1222 C 123.5813,183.0283 123.0133,181.5775 124.3618,180.0503 C 124.1903,179.1673 123.5401,176.6112 123.124,174.9312 C 122.9414,174.1941 122.3627,173.9994 121.7084,174.3384 L 119.7303,175.4383 C 119.5527,177.6199 117.6116,177.8833 117.5174,176.5502 C 117.464,175.7955 116.9196,175.1013 116.4924,174.5052 C 116.3115,174.2527 116.1171,173.9293 116.7787,174.0189 C 117.1168,174.0647 117.7458,174.0373 118.4609,173.8692 C 119.3033,173.6712 120.2363,173.5383 121.0242,173.2915 C 121.5089,173.1397 121.6953,172.5325 121.256,171.9437 L 118.4864,168.2311 C 118.6129,167.7408 118.6905,167.1323 118.6724,166.6408 C 119.2838,166.9338 119.8695,167.2197 120.7675,167.3445 L 120.7675,167.3445 z M 111.2028,150.5366 C 115.0932,149.446 116.4977,151.351 117.5413,153.5378 C 118.3038,155.1358 118.8096,157.022 119.3654,158.6891 C 120.5604,162.2731 121.9702,164.469 124.5252,165.1522 C 122.9783,167.7372 120.2177,166.9306 118.6482,166.0726 C 118.635,165.2245 118.5958,164.3636 118.4416,163.5144 C 119.1219,164.3863 119.9302,165.1475 120.8951,165.7165 C 120.4355,165.2574 118.8584,163.3744 117.8328,161.5626 C 117.3914,160.5915 116.827,159.3698 116.0632,158.4293 L 115.6011,158.7474 C 118.1033,161.779 119.4048,167.7467 116.3024,171.3766 C 116.13,169.0003 114.0747,166.2683 112.5852,164.6601 C 110.2048,162.0899 109.3692,160.4364 108.9122,156.4981 C 108.9878,156.2292 109.5679,154.3254 109.8227,153.7067 C 111.1589,151.8519 114.0755,151.2179 115.6007,153.4962 C 116.2523,154.4696 116.8178,156.1635 117.4902,157.5241 C 117.2514,156.0257 116.7153,154.3063 115.8519,153.0715 C 114.5108,151.1533 112.2825,151.1088 110.4406,152.2521 C 110.686,151.6425 110.8974,151.056 111.2028,150.5366 L 111.2028,150.5366 z M 125.4436,145.4526 C 127.8039,151.0617 130.6892,160.1204 137.6541,165.2405 C 130.885,168.4141 124.9238,162.3517 119.8573,147.0035 C 120.1365,146.5407 120.2599,145.8283 120.266,144.955 C 120.8855,145.7188 121.6221,146.2192 122.4584,146.3554 C 125.0882,153.053 127.4156,161.1854 133.727,164.3032 C 128.1911,160.4059 125.384,152.3052 123.2034,146.406 C 124.0665,146.4036 124.9065,146.0008 125.4436,145.4526 L 125.4436,145.4526 z M 126.613,142.7617 C 130.9576,149.0505 134.2816,153.3147 137.4595,156.6059 C 133.9298,154.7646 131.2155,151.7895 126.0943,144.6914 C 126.4223,144.1689 126.6341,143.371 126.613,142.7617 L 126.613,142.7617 z M 131.0957,139.5205 C 134.678,141.8779 138.1474,144.5065 141.8318,146.3616 C 144.002,147.4543 146.3337,148.3186 149.1795,148.6714 C 144.9265,154.9756 138.1438,153.7674 127.5249,141.7404 C 128.0606,141.8427 128.779,141.826 129.3955,141.4785 C 133.0197,144.1462 135.2338,146.1427 137.8527,147.5807 C 140.1206,148.8259 142.4129,149.5194 145.7481,149.6587 C 143.1288,149.2478 140.3918,148.3234 137.9106,146.7973 C 135.2984,145.1906 132.7708,143.1251 130.1585,140.9749 C 130.7899,140.5328 131.0527,139.7609 131.0957,139.5205 L 131.0957,139.5205 z M 130.0644,136.6102 C 135.6382,138.5591 141.2358,140.3533 145.4273,140.543 C 143.8191,141.0606 141.6134,141.2914 138.6816,140.6353 C 136.7653,140.2064 134.5033,139.5102 131.147,138.5376 C 131.1564,137.8765 130.4436,136.9224 130.0644,136.6102 L 130.0644,136.6102 z M 131.088,131.0517 C 131.4292,130.9076 131.6841,130.6517 131.9563,130.3277 C 136.9506,130.3038 140.1297,130.4037 142.4755,130.2406 C 144.3466,130.1106 145.8024,129.7504 146.8442,129.3243 C 145.0137,137.7315 135.5468,136.0438 132.123,136.0035 C 132.8508,135.5793 133.2676,134.6702 133.2783,133.8502 C 138.0872,134.1827 141.7102,133.4918 144.2537,131.8692 C 141.4743,133.0383 138.2312,133.4844 133.236,133.2093 C 133.0681,132.231 132.5806,131.4204 131.088,131.0517 L 131.088,131.0517 z M 132.0625,126.927 C 137.1236,125.7557 142.1545,123.8526 147.0914,121.4388 C 144.4783,124.272 140.5056,126.2382 132.4807,128.2528 C 132.4323,127.7139 132.31,127.2848 132.0625,126.927 L 132.0625,126.927 z M 129.5334,121.1725 C 137.1919,116.5008 142.9703,111.9341 144.6122,107.4151 C 148.0716,109.4881 148.1564,112.6587 146.0754,115.7063 C 142.3904,121.1027 136.5631,123.8781 131.4921,126.2437 C 130.9986,125.7794 130.2516,125.701 129.6678,125.7295 C 130.2426,125.2158 130.6338,124.4844 130.6802,123.7916 C 134.4019,121.653 138.037,119.7752 140.8106,117.3982 C 142.8593,115.6424 144.4694,113.1956 145.2605,110.6639 C 144.0783,113.0642 142.1799,115.4568 139.6704,117.444 C 137.3215,119.3041 134.4114,120.9651 130.6706,123.1139 C 130.5525,122.2681 130.2076,121.6807 129.5334,121.1725 L 129.5334,121.1725 z M 127.3838,119.9271 C 131.5455,115.8566 135.0508,111.551 138.0792,106.9427 C 136.6407,111.9071 132.1489,116.9742 128.7438,120.8485 C 128.2636,120.709 127.678,120.7452 126.9739,120.9994 C 127.2176,120.5828 127.3372,120.2452 127.3838,119.9271 L 127.3838,119.9271 z M 115.0813,135.4146 C 117.2582,135.255 117.7697,135.6897 119.165,136.9835 C 120.1279,137.8763 121.856,138.708 122.3344,136.7594 C 122.4518,136.2812 122.4268,136.102 122.152,135.6617 C 121.8636,135.1997 121.6559,134.2238 121.7323,133.7557 C 121.8898,132.791 122.6341,132.1886 123.7129,131.8577 C 124.9436,131.4801 125.516,130.6255 125.5167,129.962 C 125.5175,129.173 124.7676,128.5721 123.1234,128.4404 C 121.2836,128.2931 119.8233,127.6473 119.3427,125.4233 C 118.7839,122.838 119.5385,120.4616 120.8312,118.2548 C 122.2606,115.8149 124.1649,113.4703 125.831,111.038 C 128.239,107.5226 129.2406,104.9795 128.9413,100.6645 C 136.0069,100.8882 134.2815,108.0736 131.9053,111.8469 C 129.8488,115.1123 127.6357,118.0152 127.3518,118.7923 C 127.155,117.8361 126.8608,117.2816 125.9964,117.0294 C 130.6806,110.6802 131.8121,107.5804 131.3189,103.294 C 130.9273,108.0738 128.7226,112.6348 125.3758,116.9005 C 124.4704,116.8863 123.9958,117.1845 123.4101,117.7019 L 123.8073,118.0962 C 124.9564,117.0151 125.9414,117.3716 126.4294,117.955 C 127.1971,118.8728 126.9199,120.556 125.9284,121.3968 L 126.428,121.8109 C 127.598,120.9976 129.1771,121.0575 129.8086,122.1815 C 130.3225,123.0964 130.4414,124.8635 128.5761,125.857 L 128.7403,126.4285 C 130.4909,125.8076 131.5995,126.6793 131.8745,127.8737 C 132.1379,129.0179 131.5337,130.7865 130.0802,130.8043 L 129.981,131.4806 C 131.6722,131.3718 133.099,132.4426 132.6847,134.1659 C 132.3854,135.4109 131.4718,136.4829 129.3759,135.8819 L 129.0076,136.4173 C 131.2706,137.8857 130.7401,139.757 129.7745,140.622 C 128.7049,141.5802 126.9356,141.5283 126.1372,140.1653 L 125.6205,140.5676 C 126.3083,142.2119 126.3308,144.1237 124.8057,145.3087 C 123.1241,146.6154 120.8609,145.6317 120.162,143.7401 L 119.5964,144.1425 C 119.9839,146.483 119.0588,147.6029 117.7917,147.8795 C 116.4295,148.1768 114.9006,147.4205 114.0266,145.4407 C 115.3611,142.5747 115.4553,139.0466 115.0813,135.4146 L 115.0813,135.4146 z M 97.2228,108.4699 C 97.7502,105.717 99.4327,105.2193 101.32,105.2002 C 103.1418,105.1817 104.8901,105.3481 106.671,105.6222 C 108.2768,105.8693 110.0367,106.1804 111.3254,106.2307 C 111.2586,106.4808 110.5438,107.9686 108.6284,107.2814 L 108.9467,107.7898 C 109.4194,107.9064 109.8356,107.9494 110.1277,107.8432 C 110.4655,108.5828 110.7675,109.3075 110.9341,110.1145 C 111.0802,110.8222 111.5854,111.6512 112.2996,111.8965 C 113.0151,112.1423 114.3875,111.8903 114.9373,110.9195 C 115.3263,111.7379 115.3313,113.352 114.3735,114.1454 C 112.6799,115.5483 110.8402,113.6192 110.4199,112.0561 L 110.1488,112.5588 C 110.1813,112.9502 110.741,113.9422 111.2138,114.36 C 111.8378,116.2447 112.4415,118.2468 112.5486,120.2444 C 112.594,121.0936 112.6187,121.923 113.1409,122.687 C 113.9131,123.8169 114.9405,124.5242 116.409,123.3449 C 116.4001,125.2806 115.8662,125.9613 113.9686,125.599 C 111.7726,125.1796 111.5844,123.6358 111.2978,122.7968 L 111.088,123.5086 C 111.303,124.9301 111.9212,125.6056 113.2313,126.0441 C 113.0643,128.5957 113.7342,131.4455 116.2041,130.8802 C 116.0754,132.3665 115.5008,132.7248 114.5431,133.0358 C 113.6562,133.3238 112.6493,133.4396 111.9968,132.9244 C 110.802,131.9812 111.1774,130.3086 111.2395,129.0173 L 110.634,129.5389 C 110.5102,130.6984 109.8494,131.3807 108.8876,131.7954 C 109.0996,131.3052 108.8356,129.7908 108.6645,129.4662 C 108.218,128.6193 108.7764,127.8586 109.4045,126.5467 L 108.6314,126.8378 C 108.1954,127.6351 107.8432,128.5613 108.2331,129.7532 C 108.5653,130.7686 108.4255,131.7186 107.8538,132.4661 C 108.7592,132.4804 110.0335,132.3115 110.7225,130.9617 C 110.5127,133.1708 112.1958,134.1795 114.241,133.6931 C 114.9351,138.0813 114.8906,141.6284 113.8768,144.2743 C 113.375,145.5837 112.4383,146.8977 111.8077,148.0978 C 110.9827,149.668 110.1453,151.3275 109.5201,152.8923 C 107.9424,156.841 106.7288,163.2416 107.5667,167.1391 C 108.2805,170.459 109.8718,171.5015 112.4836,169.6937 C 112.7465,171.7582 111.9012,172.9669 109.9151,173.4066 C 108.5383,173.7114 106.983,173.0596 106.0124,170.6255 C 105.7098,173.7191 108.035,180.2127 112.7062,178.51 C 112.9595,180.5891 112.1211,182.0228 110.6831,182.1653 C 109.6815,182.2646 108.3688,181.9641 107.0944,181.2486 L 107.0944,182.1028 C 108.4752,183.3991 110.3653,185.1442 112.364,186.1564 C 114.9393,187.4607 117.5111,187.378 119.2032,184.8983 C 120.023,186.6012 119.9323,188.8755 117.3157,189.5941 C 120.0288,190.1476 124.5154,192.9389 119.7979,196.3961 C 119.3884,193.3664 117.076,192.4885 114.563,192.1962 C 115.1447,193.6864 114.3271,195.7432 112.7815,196.0209 C 111.4073,196.2677 110.2719,195.4436 109.7881,194.4132 C 112.108,193.3962 112.1324,191.9472 111.6724,190.7291 C 111.2597,189.6361 110.5047,188.6025 109.7403,187.7382 C 108.4224,186.2482 106.6627,184.8874 105.9833,183.5138 L 105.4812,183.7963 C 106.0283,185.0384 106.6236,186.3121 107.0873,187.6357 C 107.9455,190.0855 108.327,191.8411 107.3246,193.8733 C 106.9478,194.6372 106.0939,195.905 104.5733,199.6784 C 103.4743,196.8051 102.11,194.4491 101.8597,193.8786 C 100.6873,191.2068 101.1802,189.8528 102.1584,187.2411 C 102.6198,186.0094 103.1059,184.8029 103.6379,183.7832 L 103.0891,183.7125 C 102.5623,184.5971 101.4802,185.6995 100.2958,186.8239 C 99.5491,187.5328 98.8084,188.3749 98.303,189.19 C 96.9427,191.3836 96.2985,193.1378 99.417,194.4664 C 98.7279,195.6409 97.7675,196.1541 96.7952,196.0766 C 94.5679,195.899 94.2152,194.1271 94.5342,192.1613 C 92.1514,192.6063 89.4669,193.4772 89.3176,196.5149 C 86.8754,195.1623 85.6206,191.0905 91.9037,189.7101 C 88.4211,188.9764 89.5619,185.6406 89.9097,184.9473 C 91.6819,187.7581 94.6136,187.2878 96.9412,186.1015 C 98.8824,185.112 100.4356,183.6406 102.0445,182.1531 L 102.0596,181.2932 C 99.2467,182.9301 95.8937,182.8663 96.4248,178.5574 C 101.4871,180.3289 103.2704,173.2684 103.0558,170.6682 C 102.3885,172.7309 100.7264,174.1088 98.537,173.2936 C 96.928,172.6945 96.3309,171.3382 96.6032,169.7082 C 98.525,171.3576 100.3513,170.4028 101.5542,167.8482 C 102.7326,165.3458 101.6094,158.793 100.434,154.7434 C 99.5311,151.6326 98.212,148.8727 96.8005,146.4997 C 95.3809,144.113 94.7071,139.9306 95.6667,135.6113 C 96.943,136.1671 98.1811,136.0142 99.3954,135.4218 L 99.1664,134.9135 C 97.3647,136.0202 94.7321,135.064 93.7096,133.2836 C 96.721,133.7314 97.6653,132.578 99.0369,131.449 C 100.4737,131.195 101.4397,130.5139 101.4496,129.4481 C 97.797,132.8608 92.9394,130.6838 95.1078,126.7233 C 95.6139,128.4566 96.7133,129.3479 98.5179,128.465 C 99.647,127.9125 101.3429,126.0693 102.2939,125.1124 C 103.1763,124.2244 103.2252,123.243 102.6563,122.161 C 102.9935,122.1553 105.1269,122.8584 105.6501,123.284 C 106.6931,117.3852 104.6513,114.0046 101.0929,112.5655 C 101.0828,111.2495 100.6555,110.1815 99.8108,109.3617 C 99.7637,108.9991 100.0524,108.003 100.7019,107.7585 C 100.3583,108.7181 100.5738,109.4513 100.9906,109.9648 C 101.6863,110.8221 103.168,110.7145 104.0726,110.2854 C 104.7222,109.9772 105.2129,109.53 105.7204,109.0733 C 104.997,109.085 104.4526,109.3421 104.1044,109.5826 C 103.4614,110.0267 102.4022,110.2665 101.7174,109.7687 C 101.3521,109.5031 101.251,109.1467 101.2624,108.8098 C 101.2876,108.0653 101.8473,107.3929 102.4892,107.5627 C 102.1438,107.8983 101.4714,108.9919 102.1393,109.3404 C 103.1505,109.8682 104.2142,108.9236 104.3026,108.1498 C 104.7986,108.3063 105.6594,108.2551 106.3471,107.5974 C 104.4747,107.6858 103.8935,107.3294 102.9986,107.0977 C 101.1403,106.6165 99.6982,106.7805 99.1119,108.8641 C 98.5754,108.6042 97.925,108.5013 97.2228,108.4699 L 97.2228,108.4699 z M 96.5414,97.9289 C 97.9101,99.3751 99.0867,101.4101 100.09,104.6922 C 105.1678,104.5061 108.7456,105.2862 110.5474,105.5722 C 111.9719,102.9311 113.5198,100.8172 115.2481,99.4738 C 114.5003,98.7291 112.2613,98.1977 112.7321,100.2814 L 112.4422,100.737 C 112.1008,100.1943 110.8821,99.4641 110.2416,100.2151 C 109.3736,101.2327 110.5168,101.9678 111.3033,102.1451 C 111.3435,103.7995 109.3767,104.3908 108.5049,103.0067 C 107.1045,104.1849 105.5389,102.79 106.1116,101.2117 C 107.2196,101.8007 108.2549,101.1339 108.2614,100.381 C 108.2663,99.8182 107.9323,99.2112 106.4745,99.3365 L 106.5072,98.8902 C 107.2097,98.6067 107.4947,98.185 107.4934,97.7724 C 107.4882,96.0859 104.5612,96.0626 104.4698,97.5509 C 104.4458,97.9418 104.6703,98.42 105.1716,98.8166 L 104.9671,99.2041 C 104.2264,98.8498 103.2049,99.2315 103.2875,100.1539 C 103.3449,100.7935 103.9488,101.464 105.1912,101.1513 C 105.6415,102.6147 103.7955,103.9027 102.6278,102.4868 C 101.2718,103.8996 99.5503,102.5639 99.9728,101.1511 C 101.0926,101.2025 101.8567,100.4884 101.4018,99.5718 C 100.9722,98.7062 99.8231,98.8476 99.2617,99.5049 L 98.915,99.1222 C 99.7355,97.4717 97.5356,97.0354 96.5414,97.9289 L 96.5414,97.9289 z M 82.6448,121.0085 C 78.4831,116.938 74.9492,112.6324 71.9208,108.0241 C 73.3593,112.9884 77.8583,118.0413 81.2633,121.9156 C 81.7435,121.7761 82.322,121.8266 83.0261,122.0808 C 82.7824,121.6642 82.6915,121.3265 82.6448,121.0085 z M 80.4666,122.2539 C 72.808,117.6681 67.0297,113.0823 65.3878,108.4965 C 61.8683,110.6054 61.9046,113.5365 63.3968,115.9722 C 67.0346,121.9102 73.1875,124.8432 78.5079,127.325 C 79.0014,126.8608 79.7484,126.7824 80.3322,126.8109 C 79.7704,126.2067 79.412,125.6081 79.3509,125.0179 C 75.6291,122.8794 71.963,120.8852 69.1894,118.5083 C 67.1407,116.7524 65.5879,114.4346 64.7969,111.9029 C 65.979,114.3032 67.7954,116.5726 70.2866,118.5827 C 72.6161,120.4624 75.5489,122.2 79.3294,124.3092 C 79.3989,123.4472 79.7581,122.7507 80.4666,122.2539 L 80.4666,122.2539 z M 77.9375,128.0084 C 72.8764,126.8371 67.8804,125.0154 62.9435,122.6016 C 65.5566,125.4348 69.4855,127.3728 77.5104,129.3874 C 77.5589,128.8485 77.69,128.3662 77.9375,128.0084 z M 78.9448,132.1221 C 78.6036,131.9781 78.3487,131.7441 78.0765,131.42 C 73.0823,131.3961 69.8704,131.5175 67.5245,131.3544 C 65.6533,131.2243 64.2381,130.8722 63.1963,130.4462 C 64.9564,138.8885 74.5817,137.2907 78.0521,137.2272 C 77.3197,136.8002 76.7341,135.8784 76.7217,134.9316 C 71.9128,135.2641 68.2898,134.5732 65.7463,132.9506 C 68.5257,134.1197 71.7688,134.5658 76.764,134.2907 C 76.9319,133.2983 77.4522,132.4758 78.9448,132.1221 L 78.9448,132.1221 z M 79.6719,137.9559 C 73.852,139.9048 68.4763,141.4719 64.5354,141.6616 C 66.1436,142.1793 68.2934,142.4474 71.2252,141.7912 C 73.1416,141.3623 75.5149,140.628 78.8712,139.6554 C 78.8721,139.036 79.2957,138.2801 79.6719,137.9559 L 79.6719,137.9559 z M 78.9446,140.612 C 75.3623,142.9694 71.8786,145.5934 68.2054,147.471 C 66.0677,148.5636 63.7046,149.4137 60.8412,149.7666 C 65.0671,156.0979 71.9425,154.8324 82.5761,142.7906 C 82.3275,142.8347 81.4453,143.0602 80.5735,142.4821 C 76.9493,145.1497 74.7911,147.1124 72.1721,148.5503 C 69.9042,149.7956 67.6151,150.4425 64.2798,150.5818 C 66.8991,150.1708 69.5585,149.38 72.0397,147.8539 C 74.652,146.2472 77.2343,144.1509 79.8466,142.0007 C 79.2151,141.5586 78.9876,140.8523 78.9446,140.612 z M 83.4277,143.6398 C 80.1809,148.7124 76.5341,153.5627 72.615,157.6873 C 75.6008,156.327 79.1229,152.7055 84.0509,145.9238 C 83.5759,145.2404 83.3509,144.484 83.4277,143.6398 z M 84.735,146.6352 C 82.8246,151.3761 79.3611,160.8622 72.3412,166.3591 C 79.0575,169.5151 84.9569,163.346 90.1208,148.0301 C 89.8416,147.5674 89.7401,146.9096 89.734,146.0363 C 89.1145,146.8002 88.3998,147.2897 87.5635,147.4259 C 84.9337,154.1234 82.5977,162.4132 76.2863,165.531 C 81.8222,161.6337 84.5927,153.3477 86.7733,147.4484 C 85.9974,147.4315 85.3117,147.1769 84.735,146.6352 L 84.735,146.6352 z M 98.4743,151.1374 C 94.5934,149.9822 92.9599,152.0329 91.8977,154.2658 C 91.1273,155.8856 90.6499,157.5781 90.08,159.2672 C 88.8547,162.8984 87.4167,164.9941 84.856,165.6663 C 86.3526,168.2913 89.0736,167.4652 90.688,166.6263 C 90.7084,165.7648 90.7795,164.9033 90.9408,164.0418 C 90.2533,164.9218 89.4511,165.6758 88.4813,166.2455 C 88.9448,165.783 90.4752,163.9459 91.5161,162.1139 C 91.9911,161.0311 92.6137,159.7167 93.3368,158.9583 L 93.759,159.2852 C 91.2153,162.3484 90.0104,168.4589 93.1013,171.9482 C 92.9777,170.2198 95.1099,166.9042 96.44,165.5844 C 98.9481,163.0958 99.9886,161.0801 100.4788,157.0826 C 100.37,156.7904 99.9594,155.055 99.7401,154.44 C 98.0424,152.0906 95.0322,151.8321 93.5773,154.3136 C 92.9783,155.3353 92.5637,156.6999 91.8799,158.0765 C 92.1313,156.5632 92.6819,154.8103 93.556,153.5288 C 94.8891,151.5745 97.4056,151.7588 99.2377,152.9363 C 98.9976,152.3148 98.7753,151.6677 98.4743,151.1374 L 98.4743,151.1374 z M 88.5247,167.91 C 87.2148,170.1485 86.4771,171.5728 85.9869,172.1167 C 85.3486,172.825 83.5177,172.7324 82.5975,172.4524 C 81.3348,172.0683 79.2104,171.1379 78.2078,170.7359 C 76.7293,169.3241 76.3243,169.945 76.2244,170.7436 C 76.1583,171.2717 75.816,171.7104 75.4811,172.1081 C 74.9132,172.7827 75.0855,173.4944 75.5771,173.856 C 76.4175,174.4743 77.5116,173.7801 78.11,173.1483 C 80.0284,173.5645 81.1659,173.7599 81.724,173.8685 C 82.7943,174.0767 83.1588,174.7421 82.027,175.2433 C 80.2629,176.0247 78.5659,176.5518 76.7716,177.2634 C 75.3848,176.8501 74.3505,177.5211 74.8939,178.2264 C 75.22,178.6496 75.3862,179.6189 75.436,180.5159 C 75.4641,181.0219 75.9313,181.6674 76.4503,181.6905 C 77.4358,181.7344 77.9796,180.3557 77.9796,179.3692 C 78.5313,179.0483 81.986,176.8236 83.3838,175.9805 C 83.9043,175.6666 84.4788,176.0041 84.1628,176.6445 C 83.3318,178.3292 82.5622,180.0139 81.7995,181.6986 C 81.3983,182.1051 81.0046,182.6123 81.1291,183.312 C 82.0217,183.0999 83.1222,183.1901 84.0324,184.1921 C 85.4638,184.091 86.0483,182.5943 84.6248,181.0659 C 84.9293,180.082 85.4672,177.6077 85.8948,176.0147 C 86.0947,175.2702 86.6445,175.0643 87.2958,175.4144 L 89.3141,176.4995 C 89.4732,178.7176 91.4221,178.9522 91.5277,177.5985 C 91.5874,176.8321 92.118,176.1414 92.5502,175.5394 C 92.7333,175.2843 92.8712,174.9967 92.2089,175.0821 C 91.8703,175.1258 91.222,175.1024 90.5084,174.9254 C 89.6677,174.7169 88.7358,174.574 87.95,174.3164 C 87.4665,174.158 87.2882,173.6819 87.7284,173.0845 L 90.9066,168.7715 C 90.7842,168.2723 90.7206,167.773 90.7428,167.2737 C 90.0147,167.5535 89.2768,167.7747 88.5247,167.91 L 88.5247,167.91 z M 75.7546,170.2616 C 74.9643,170.1649 72.8828,169.8851 71.8964,171.9481 C 73.3282,171.4558 73.8275,171.7171 74.8265,172.1554 C 74.8915,171.9815 75.0537,171.7794 75.2703,171.5577 C 75.568,171.253 75.7563,170.7803 75.7546,170.2616 z M 74.5177,178.5753 C 73.8339,179.0416 72.168,180.366 72.9106,182.5496 C 73.4787,181.3137 73.8527,181.0709 74.9456,180.6718 C 74.9266,180.3574 74.8144,179.0692 74.5177,178.5753 z M 81.3652,183.7789 C 81.4886,184.5955 81.8337,186.7717 84.0879,187.0574 C 83.2506,185.8573 83.3219,185.4073 83.4259,184.2605 C 83.1946,184.1715 82.5189,183.5211 81.3652,183.7789 L 81.3652,183.7789 z M 92.831,176.0467 C 93.3831,176.6203 94.6661,178.1924 93.6099,180.2206 C 93.143,178.8079 92.9659,178.5914 92.0152,178.0158 C 92.099,177.2381 92.373,176.586 92.831,176.0467 L 92.831,176.0467 z "
   style="fill:#facf00" />
    <path
   id="_72260080"
   class="fil3"
   d="M 91.0323,117.947 C 93.2552,118.4303 94.4641,117.843 95.9388,117.4319 C 98.2012,116.8012 100.5639,116.998 102.6563,117.4444 C 103.0372,118.0294 103.3207,118.6306 103.5155,119.2467 C 99.3335,118.216 97.525,118.7898 96.5321,119.1163 C 95.5909,119.4259 91.7618,120.2001 91.0323,117.947 L 91.0323,117.947 z "
   style="fill:#da251d" />
    <path
   id="_72260008"
   class="fil1"
   d="M 110.11,135.243 L 109.1695,135.2395 L 109.1696,136.0467 C 107.7902,135.1322 106.1727,134.9022 104.5532,134.8956 C 100.8484,134.8804 97.7429,137.8346 97.8451,142.2358 C 97.9441,146.4995 101.0447,149.0766 105.1073,148.9744 C 106.124,148.9488 106.9381,148.8907 107.8754,148.5558 C 108.3125,148.3996 108.4181,148.4004 108.5297,148.5346 C 108.6244,148.6485 108.7498,148.854 108.8339,148.976 L 110.2628,148.976 C 110.2142,147.231 110.3464,145.5276 110.6774,143.8702 L 109.4328,143.8714 C 109.2027,145.8116 108.0745,147.492 105.9757,147.5362 C 103.1007,147.5969 101.0787,144.692 101.0469,142.0301 C 101.018,139.6177 102.3623,136.2365 105.2722,136.1753 C 107.649,136.1253 109.2191,137.7176 109.4014,139.7081 L 110.6645,139.7081 C 110.3873,138.1471 110.0524,136.341 110.11,135.243 z "
   style="fill:#0a0b0c" />
    <path
   id="_72259936"
   class="fil3"
   d="M 109.625,136.27 C 109.3629,136.7942 108.7853,136.4885 108.2964,136.216 C 107.1536,135.5791 105.6534,135.381 104.3679,135.4318 C 100.2544,135.5943 98.231,139.0356 98.3768,142.3475 C 98.5554,146.4033 101.5777,148.5139 105.2012,148.4713 C 106.2183,148.4594 106.9428,148.3251 107.8802,147.9901 C 108.7031,147.696 108.9066,148.1664 109.0437,148.4267 L 109.6762,148.4267 C 109.7455,147.0018 109.8418,145.6202 110.0494,144.4166 L 109.8462,144.4169 C 109.5858,146.6127 107.8816,148.0242 106.1976,148.0598 C 102.8853,148.1298 100.5595,145.2697 100.522,142.1099 C 100.4859,139.0761 101.9412,135.7905 105.2996,135.6562 C 107.5127,135.5676 109.5031,137.0273 109.8553,139.1503 L 110.0438,139.1503 C 109.7938,137.978 109.6672,137.0428 109.625,136.27 L 109.625,136.27 z "
   style="fill:#da251d" />
   </g>
  </g>
 </g>
</svg>