<?xml version="1.0" encoding="UTF-8" standalone="no"?>
<svg
   xmlns:svg="http://www.w3.org/2000/svg"
   xmlns="http://www.w3.org/2000/svg"
   xmlns:xlink="http://www.w3.org/1999/xlink"
   version="1.1"
   width="744.09003"
   height="494.81985"
   id="svg2844">
  <defs
     id="defs2846">
    <path
       d="m 372.92366,295.79842 c -3.88708,9.3327 -7.77415,13.08717 -11.66123,17.45797 2.81361,1.79287 5.62721,0.90352 8.44082,-0.71183 -4.13291,5.13475 -8.82379,10.08351 -18.0343,13.52573 9.99691,2.98911 11.99349,-0.022 15.45797,-1.93225 2.44577,14.2244 -15.41227,17.71309 -18.67838,22.54288 11.3732,1.37069 15.81164,-1.41947 18.67838,-5.15266 -1.20548,7.51429 -10.24817,13.02859 -25.18696,20.54288 7.06788,1.63243 15.94731,4.3226 21.32247,-2.50857 0.3022,9.03974 -14.02037,18.07947 -26.98371,27.11921 10.78038,3.19286 18.56242,1.88823 22.47513,-5.22041 0.73598,9.39132 -12.04047,17.4314 -28.33962,25.11921 14.53678,8.33809 24.7417,-2.65126 36.06861,-7.15266 -12.0298,13.2736 -18.95002,18.54201 -45.72984,26.47513 13.78357,7.94157 31.33002,16.25441 48.44168,-9.08491 l 0.0677,43.9331 c -10.63547,3.63787 -17.69244,8.17037 -21.45798,13.52573 8.09436,-4.27503 14.08276,-6.44411 18.74614,-7.28816 -0.28886,6.85542 0.43713,10.66633 1.8645,12.37307 1.12569,-4.95702 2.57767,-9.7509 7.0849,-13.01715 8.72654,1.05578 16.81934,3.37904 23.83105,7.86449 -4.24423,-5.05772 -8.38302,-10.14181 -19.32247,-13.52573 l -0.64408,-40.57718 c 24.74968,25.53724 36.75554,13.25612 48.95025,7.72898 -20.19694,-4.07637 -34.59147,-15.40574 -48.00085,-27.96655 9.71103,7.59525 24.84118,13.24747 36.40737,7.35592 -13.14303,-7.03227 -25.76209,-14.27413 -30.47513,-24.67839 10.93787,7.84133 18.28592,4.91323 25.8988,2.77959 -11.09266,-8.14321 -23.68618,-15.53599 -31.62778,-25.25472 11.38982,4.30492 20.62412,6.45431 25.25471,4 -17.79636,-12.13386 -20.58478,-15.69175 -27.11921,-21.39022 11.12685,2.38968 14.54121,4.89435 17.45798,4 -11.70945,-5.42943 -16.09193,-13.78964 -19.32247,-22.61063 7.69202,3.83163 12.44506,3.25478 16.74614,2 -6.47671,-1.70024 -12.05466,-6.09676 -16.8139,-12.9494 3.5886,-0.0306 7.64237,1.17138 7.79675,-0.57633 -8.49613,-4.42414 -9.73772,-10.66191 -11.59349,-16.74614 z"
       id="tree" />
    <g
       id="bird">
      <path
         d="m 232.22584,308.29419 c -1.55958,-3.73253 -4.05465,-8.61214 -5.54459,-10.84358 -4.21129,-6.30708 -6.61886,-12.79543 -8.05404,-21.70551 -0.68811,-4.27207 -1.33351,-7.75795 -1.43424,-7.7464 -0.10075,0.0114 -2.57824,1.87242 -5.5056,4.13529 -6.61804,5.11578 -14.72569,6.63655 -15.43824,2.89581 -0.25201,-1.32298 0.23556,-2.8347 1.22503,-3.79828 0.90401,-0.88035 2.85023,-5.62631 4.32494,-10.54659 l 2.68129,-8.94594 -5.0654,-0.24269 c -3.98344,-0.19085 -6.48746,-1.1569 -11.723,-4.52277 -3.66168,-2.35405 -7.8102,-5.42761 -9.21892,-6.83015 -1.40873,-1.40254 -2.86901,-2.51899 -3.24507,-2.48102 -0.37607,0.038 -1.03992,-0.97029 -1.47524,-2.24058 -1.21241,-3.53789 0.88006,-4.08159 9.81373,-2.54999 4.36126,0.74771 9.70555,1.17545 11.8762,0.95054 5.45107,-0.56486 11.65015,-3.98357 11.22931,-6.19291 -0.26929,-1.4137 -0.96143,-1.51643 -3.78937,-0.56248 -6.023,2.03176 -8.10073,-0.28807 -5.43189,-6.06486 l 1.49723,-3.2408 -5.6559,-0.13612 c -9.5178,-0.22905 -10.66625,-2.13535 -5.53568,-9.18865 3.15184,-4.33303 7.34614,-13.37377 7.01385,-15.11825 -0.0849,-0.44557 -0.67682,0.0122 -1.31543,1.01724 -0.63862,1.00505 -3.2741,3.80756 -5.85663,6.2278 -2.58253,2.42024 -4.63954,4.73687 -4.57114,5.14808 0.0684,0.4112 -0.7955,2.1396 -1.91979,3.84088 -1.1243,1.70128 -1.92474,4.19101 -1.77877,5.53272 0.47303,4.34804 -1.62555,3.76272 -4.23776,-1.18195 -1.64182,-3.10782 -2.70683,-4.34824 -3.28839,-3.82998 -0.47307,0.42158 -1.61887,1.14088 -2.54623,1.59844 -1.41888,0.70008 -1.76145,0.43636 -2.16154,-1.66399 -0.26148,-1.37275 0.009,-4.81985 0.60116,-7.66023 l 1.07659,-5.16429 -1.75329,-1.02924 c -5.56033,-3.26406 -7.46436,-7.4302 -4.28911,-9.38485 l 1.8565,-1.14283 -3.08112,-2.64516 c -2.08154,-1.78702 -3.33761,-3.64172 -3.87174,-5.71702 l -0.79063,-3.07186 7.98169,-1.43244 c 11.94048,-2.14292 17.10567,-5.07615 19.25299,-10.93346 1.50185,-4.09666 1.92646,-14.01232 0.89411,-20.87916 -1.09107,-7.25739 -2.33803,-10.05984 -1.88995,-4.2475 0.37522,4.86723 -2.46657,12.31519 -6.55739,17.18603 -3.30806,3.93881 -6.97085,5.64729 -7.38998,3.44697 -0.10917,-0.57313 0.34832,-3.70436 1.01664,-6.9583 1.44792,-7.04959 3.04594,-22.19426 2.42406,-22.97314 -0.24163,-0.30263 -0.74883,2.85481 -1.12713,7.01653 -0.94638,10.41148 -3.16696,19.74049 -5.29403,22.24113 -5.92449,6.96499 -8.48309,8.8523 -12.42033,9.1617 -4.57572,0.35962 -8.98148,-1.36735 -9.70489,-3.80403 -0.27917,-0.94031 0.51024,-2.74664 1.85963,-4.25522 4.49274,-5.02278 8.07353,-12.10846 9.30736,-18.41742 0.68079,-3.48111 1.00231,-6.61063 0.71448,-6.95449 -0.28782,-0.34386 -0.66873,0.40625 -0.84647,1.66692 -0.17774,1.26066 -0.83431,3.57017 -1.45905,5.13223 -1.60252,4.00686 -9.53413,16.96788 -10.43958,17.05931 -0.41406,0.0418 -3.08327,0.86421 -5.93159,1.82756 -4.62039,1.56271 -5.72483,1.53421 -10.24376,-0.26433 -5.40196,-2.14998 -11.455,-7.20247 -11.98932,-10.00752 -0.18599,-0.97641 0.63174,-2.31405 1.91777,-3.13706 2.69736,-1.72619 9.43793,-9.98615 10.41241,-12.75948 0.63994,-1.82121 0.57619,-1.89617 -0.77526,-0.91157 -0.80989,0.59005 -3.4465,1.80203 -5.85914,2.69326 -8.87613,3.27888 -16.85076,0.64283 -21.099388,-6.97449 -2.821493,-5.05863 -3.11738,-7.29955 -1.099437,-8.32671 3.982935,-2.02738 7.341925,-4.10578 10.350565,-6.4045 1.77125,-1.3533 4.81436,-3.60041 6.76247,-4.99358 l 3.54203,-2.53304 -5.79526,-0.13364 c -3.94725,-0.091 -6.91943,-0.86723 -9.32062,-2.43412 -3.76935,-2.459702 -13.582,-14.786976 -13.573853,-17.05233 0.003,-0.821747 1.672206,-1.552511 4.208389,-1.842321 2.311919,-0.264196 6.548654,-0.845485 9.414964,-1.291769 l 5.21147,-0.811414 -3.69341,-1.783053 C 100.13662,76.468051 95.778038,73.264585 92.244226,69.288315 88.917092,65.544596 85.266781,58.406846 84.389184,53.9287 c -0.464829,-2.3719 -0.264533,-2.640541 1.724614,-2.313092 1.237787,0.203763 3.792616,0.543174 5.677397,0.754249 1.884781,0.211074 5.027155,0.988603 6.983054,1.727848 1.955901,0.739245 3.648841,1.08091 3.762091,0.759254 0.11325,-0.321644 -0.41509,-0.845087 -1.17409,-1.1632 -3.081538,-1.291534 -6.257392,-4.104357 -10.669003,-9.449436 -5.313488,-6.437785 -8.514025,-12.40407 -9.538164,-17.780579 l -0.709575,-3.725114 4.251519,0.267931 c 2.338336,0.147363 4.854048,0.577814 5.590474,0.956561 0.965742,0.496684 0.222465,-1.252364 -2.666613,-6.274963 C 85.417825,13.858183 83.127413,9.1903396 82.531081,7.3151716 81.934751,5.4400046 81.216565,3.9290295 80.935114,3.9574492 80.202361,4.0314392 75.368045,-17.82232 74.875237,-23.436519 c -0.566355,-6.452072 0.99224,-6.994264 3.455382,-1.202033 1.041089,2.448187 3.947744,6.812455 6.461524,9.701816 4.257804,4.893955 18.156427,17.8636517 19.046757,17.7737502 0.21888,-0.022101 -1.51058,-2.93250667 -3.843231,-6.4675677 -2.332655,-3.5350611 -5.886781,-9.9910945 -7.89806,-14.3467415 -3.448289,-7.467649 -3.739706,-8.470929 -5.109141,-17.589546 -1.72192,-11.4657 -1.36393,-18.68976 0.996103,-20.100867 2.117631,-1.266171 2.593643,-0.695538 4.719698,5.657876 1.011866,3.023818 3.678842,8.898328 5.926612,13.054469 4.344569,8.033142 16.805699,24.301499 22.775449,29.7339976 1.97477,1.7970508 3.67013,3.685469 3.76747,4.1964838 0.26041,1.3670989 11.19739,7.9807565 16.98738,10.272375 9.28584,3.6752396 13.48012,8.8600956 15.43045,19.0747306 0.58345,3.055932 0.78826,5.58376 0.45508,5.617403 -0.3332,0.03364 -0.50379,1.60482 -0.37909,3.491503 0.33212,5.02465 -1.02648,7.44457 -4.97453,8.860623 -1.92984,0.69218 -3.62406,1.585886 -3.76495,1.986016 -0.14088,0.400131 0.17563,3.8393 0.70336,7.642612 0.91756,6.612702 1.08606,7.073591 3.85334,10.539537 3.60101,4.510187 4.96203,5.208561 10.99443,5.641589 l 4.81907,0.345917 1.10737,-4.013773 c 1.86651,-6.765356 1.82099,-7.084714 -1.36919,-9.604885 -2.91028,-2.299044 -2.91929,-2.31969 -1.54803,-3.543682 0.75861,-0.677143 2.59487,-2.477523 4.08059,-4.000853 l 2.7013,-2.769673 -4.04762,-2.763077 -4.04762,-2.763073 2.01293,-1.558247 c 1.96343,-1.519919 4.65827,-6.984801 4.32001,-8.760571 -0.0931,-0.488669 -0.5208,-1.362691 -0.95049,-1.942272 -0.42969,-0.579581 -2.35332,-4.919006 -4.27474,-9.643166 -1.92142,-4.72416 -3.84505,-9.063585 -4.27474,-9.6431663 -1.45612,-1.9640639 -3.35222,-14.3869311 -3.2207,-21.1013277 0.16279,-8.311245 1.6736,-11.644231 7.10193,-15.667576 3.79323,-2.811447 4.72828,-3.079474 7.46506,-2.139807 3.83662,1.317297 8.28972,5.634604 10.58483,10.262087 2.35805,4.754372 6.31249,22.6272153 6.14956,27.7940626 -0.0682,2.1622884 -0.32708,4.7567324 -0.57531,5.7654334 -0.24824,1.008701 -0.44804,3.561294 -0.44401,5.672427 0.007,3.67709 0.17171,4.023786 3.91829,8.248417 l 3.91096,4.409992 -2.72504,0.275162 c -1.49877,0.151339 -2.63369,0.754771 -2.52203,1.34096 0.30912,1.622808 5.26916,6.727643 6.42356,6.611077 0.82959,-0.08377 0.92776,0.236219 0.53221,1.734687 -0.30255,1.146159 -1.63016,1.955992 -3.52892,2.15262 l -3.04382,0.315697 2.417,2.124798 c 1.44114,1.266909 3.53117,2.015466 5.17654,1.85401 3.61927,-0.354727 4.4312,1.324591 2.05089,4.242483 l -1.91597,2.348677 3.52344,5.328223 3.52346,5.328223 4.68029,-1.16511 c 5.7786,-1.43852 6.91494,-2.422784 8.72181,-7.554589 1.36734,-3.88344 1.35721,-4.360321 -0.23155,-10.905248 -0.91378,-3.764332 -1.8947,-7.136411 -2.17983,-7.493525 -0.28513,-0.357114 -2.24946,-0.881395 -4.36518,-1.165072 -4.32833,-0.580342 -6.54016,-2.639736 -8.09869,-7.540548 -0.5853,-1.840663 -1.33672,-3.318738 -1.66992,-3.285094 -0.33318,0.03364 -1.08098,-2.439356 -1.66176,-5.495557 -1.9412,-10.215557 0.15669,-16.0357682 7.71834,-21.41219131 4.71491,-3.35235459 12.76705,-11.88344669 12.50664,-13.25054469 -0.0973,-0.511015 0.82818,-2.664079 2.05672,-4.784585 3.71389,-6.410308 9.62393,-24.533703 10.80192,-33.124488 0.60946,-4.44465 0.98001,-10.625877 0.82344,-13.736059 -0.32896,-6.534876 -0.0842,-7.178289 2.42678,-6.379494 2.7984,0.890232 5.84307,7.770707 8.47178,19.144843 2.09059,9.045798 2.18517,10.068953 1.65828,17.937998 -0.30731,4.589769 -1.31418,11.50635 -2.23746,15.370181 -0.92328,3.863831 -1.49962,7.007064 -1.28074,6.984963 0.89033,-0.0899 9.41659,-15.32396 11.68444,-20.876847 1.33892,-3.278389 2.5046,-8.053863 2.59132,-10.615931 0.20516,-6.061664 1.90759,-5.848755 3.77426,0.472017 1.62426,5.49995 5.14087,27.486765 4.40811,27.560755 -0.28144,0.02842 -0.40775,1.624668 -0.28068,3.547219 0.12707,1.9225515 -0.33215,6.8680407 -1.02051,10.98997795 -0.9027,5.40547565 -0.96416,7.23578335 -0.22052,6.56649295 0.56707,-0.5103673 2.82694,-1.4230353 5.02194,-2.0281536 l 3.9909,-1.100214 0.70958,3.7251146 c 1.02414,5.3765091 0.17446,11.7517651 -2.53217,18.9993861 -2.24723,6.017459 -4.25185,9.353382 -6.73434,11.206747 -0.61145,0.456494 -0.92419,1.064866 -0.69499,1.351931 0.2292,0.287077 1.73054,-0.377133 3.33631,-1.476019 1.60576,-1.098885 4.33891,-2.469697 6.07366,-3.046256 1.73475,-0.576558 4.06629,-1.409372 5.1812,-1.850699 1.79168,-0.70922 2.08482,-0.490404 2.5241,1.884075 0.82933,4.48302 -0.0152,12.074643 -1.81747,16.336302 -1.9142,4.526385 -4.91089,8.472553 -9.18542,12.09578 l -2.88755,2.447569 5.31807,-0.251811 c 2.92493,-0.138491 7.21904,-0.418607 9.54245,-0.622465 2.54879,-0.223624 4.42818,0.148791 4.73817,0.938938 0.85459,2.178238 -3.98004,15.984529 -6.68775,19.09825 -1.72488,1.983524 -4.29477,3.319342 -8.05901,4.189039 l -5.52658,1.276865 4.35514,1.735622 c 2.39532,0.954589 6.16351,2.513931 8.37374,3.465201 3.75429,1.615828 7.76337,2.950232 12.35377,4.111918 2.32571,0.588553 2.8786,2.803525 2.0544,8.230275 -1.24108,8.17165 -7.92943,12.2883 -17.69613,10.89189 -2.6547,-0.37955 -5.64481,-1.02337 -6.64468,-1.43068 -1.66846,-0.67967 -1.70179,-0.59491 -0.40527,1.03077 1.97431,2.47557 11.54786,9.08821 14.78863,10.2148 1.54512,0.53713 2.83197,1.66226 3.01796,2.63867 0.53431,2.80505 -3.40176,8.86619 -7.79622,12.00537 -3.67611,2.62604 -4.72822,2.8723 -9.75833,2.28405 -3.1009,-0.36262 -5.97676,-0.62511 -6.39082,-0.5833 -0.90545,0.0914 -13.38226,-10.80885 -16.42197,-14.34695 -1.18502,-1.37931 -2.68006,-3.47157 -3.3223,-4.64943 -0.64224,-1.17787 -1.28916,-1.8242 -1.43759,-1.43629 -0.14843,0.38791 1.3307,3.33561 3.28696,6.55045 3.54541,5.82637 9.63954,11.93512 15.84012,15.87813 1.86233,1.18429 3.29711,2.76603 3.37995,3.72616 0.21467,2.48804 -3.37931,5.02274 -7.91674,5.58338 -3.90429,0.48235 -7.07175,-0.82672 -15.376,-6.35495 -2.98148,-1.9848 -8.60523,-10.52173 -13.40748,-20.35274 -1.91958,-3.92969 -3.58783,-6.86746 -3.70722,-6.52838 -0.30728,0.87271 6.89118,15.12914 10.91944,21.62578 1.85935,2.9987 3.46995,5.92111 3.57913,6.49424 0.41912,2.20031 -3.74402,1.28206 -8.39947,-1.85263 -5.75703,-3.87644 -11.27546,-10.48023 -12.73366,-15.2381 -1.74136,-5.68176 -1.89376,-2.738 -0.231,4.46166 1.57329,6.81222 5.68814,16.2695 8.66455,19.91397 4.25561,5.21077 10.32223,7.00987 22.61303,6.70602 l 8.21585,-0.20312 0.38741,3.11258 c 0.26173,2.10281 -0.25368,4.13638 -1.58872,6.26839 l -1.97613,3.15582 2.2136,0.73186 c 3.78602,1.25173 3.51107,5.63789 -0.61937,9.88048 l -1.30241,1.33778 2.96626,4.75607 c 1.63145,2.61585 3.18021,5.87925 3.4417,7.252 0.40008,2.10035 0.16901,2.422 -1.45799,2.02947 -1.06339,-0.25654 -2.4348,-0.72167 -3.04759,-1.0336 -0.75332,-0.38347 -1.3145,1.02115 -1.73272,4.33699 -0.6654,5.27563 -2.46599,6.25467 -3.63602,1.97701 -0.36105,-1.31999 -2.06189,-3.55715 -3.77965,-4.97146 -1.71776,-1.4143 -3.1951,-2.90629 -3.28297,-3.31553 -0.0879,-0.40924 -2.93317,-2.23086 -6.32286,-4.04805 -3.3897,-1.81719 -6.97323,-3.99174 -7.9634,-4.83231 -0.99018,-0.84059 -1.73088,-1.16378 -1.64601,-0.71821 0.3323,1.74448 7.74753,9.61294 12.40001,13.15792 7.5733,5.77052 7.18073,7.83243 -1.89223,9.93869 l -5.39155,1.25165 2.65206,2.82182 c 4.72735,5.02995 3.59514,7.67391 -2.95997,6.91223 -3.07776,-0.35762 -3.70539,-0.12163 -3.4361,1.29207 0.42084,2.20934 7.66381,4.27079 13.12026,3.7342 2.17284,-0.21344 7.1555,-1.68418 11.07268,-3.26781 8.02401,-3.24391 10.24073,-3.13533 10.39647,0.50926 0.0559,1.3086 -0.20602,2.41034 -0.58208,2.44832 -0.37606,0.038 -1.36392,1.40162 -2.19524,3.03035 -0.83132,1.62873 -3.67443,5.40828 -6.31802,8.399 -3.77985,4.2762 -5.82827,5.70194 -9.59003,6.67486 l -4.78351,1.23719 5.9239,8.07703 c 3.25814,4.44238 6.90485,8.62359 8.10379,9.29159 1.31229,0.73116 2.3465,2.08922 2.59851,3.4122 0.71255,3.74074 -7.65753,3.88381 -15.93797,0.27241 -3.66269,-1.59743 -6.74226,-2.89717 -6.84349,-2.88833 -0.10119,0.009 0.58068,3.49103 1.51532,7.73821 1.95539,8.88541 2.05766,15.57966 0.34461,22.55704 -0.60977,2.48363 -1.15392,7.67012 -1.20922,11.52555 -0.0553,3.85541 -0.43257,7.04337 -0.83835,7.08434 -0.40579,0.041 -2.01381,-2.97939 -3.57338,-6.71193 z"
         id="path11900"
         style="fill:#000000;fill-opacity:1;stroke:none" />
      <path
         d="m 235.52907,291.3864 c 1.78974,-9.88051 1.16515,-15.87176 -2.5773,-24.72252 -1.40596,-3.32503 -2.65285,-6.55243 -2.77087,-7.17199 -0.33831,-1.77606 1.03392,-1.45375 3.44529,0.80926 1.2198,1.14474 3.15505,2.34453 4.30056,2.66619 1.14552,0.32166 4.44612,1.63364 7.33466,2.91551 2.88855,1.28187 5.87208,2.26805 6.63007,2.19151 1.22114,-0.12331 0.99153,-0.65961 -2.01552,-4.70752 -7.36883,-9.91951 -8.84643,-11.73676 -10.52679,-12.94641 -0.95972,-0.69089 -1.92723,-2.2131 -2.15002,-3.3827 -0.35492,-1.86327 0.37149,-2.29062 5.86755,-3.4519 5.91416,-1.24962 6.59659,-1.70885 11.94134,-8.03598 3.11778,-3.69085 5.47756,-6.95002 5.24394,-7.24262 -0.23362,-0.29262 -3.17343,0.65069 -6.5329,2.09622 -7.26043,3.12405 -17.57719,3.61268 -21.62348,1.02415 -1.4292,-0.91431 -4.05353,-3.21418 -5.83185,-5.11085 -2.83605,-3.02477 -3.09904,-3.55687 -2.14043,-4.33079 0.60109,-0.48527 3.13212,-1.20341 5.62453,-1.59587 2.49241,-0.39244 4.61525,-0.95095 4.71741,-1.24111 0.10217,-0.29017 -0.95406,-1.36815 -2.34717,-2.39553 -5.16178,-3.80668 -7.5802,-6.26923 -8.21265,-8.36253 -0.53818,-1.78125 -0.35584,-2.02652 1.06415,-1.43168 4.19445,1.75705 13.00153,3.02094 14.90318,2.13876 1.73004,-0.80259 1.89753,-1.243 0.97904,-2.57432 -0.60944,-0.88336 -1.52309,-1.56419 -2.03034,-1.51297 -0.50726,0.0512 -4.35156,-4.23325 -8.54289,-9.52105 -4.19133,-5.28779 -8.84635,-10.49781 -10.34448,-11.57782 -3.1229,-2.25129 -4.98776,-4.39815 -5.31564,-6.11948 -0.12517,-0.65711 0.22657,-4.35253 0.78165,-8.21202 1.06377,-7.39635 1.76328,-6.63137 1.69667,1.85547 -0.0219,2.79013 0.0274,5.40113 0.10953,5.8022 0.16036,0.78308 2.85848,2.53407 15.29544,9.92619 9.31298,5.53535 13.46678,8.20006 15.65389,10.04217 2.01061,1.69345 4.69888,5.25125 4.94529,6.54489 0.10381,0.54494 0.47146,0.96225 0.81701,0.92736 0.34555,-0.0349 0.46942,-1.9536 0.27525,-4.26378 -0.32781,-3.90027 -0.20762,-4.16118 1.68238,-3.65201 2.26432,0.61001 2.37084,-0.2996 0.35513,-3.03267 -0.74015,-1.00355 -1.85364,-3.48188 -2.47442,-5.50738 -0.91258,-2.9776 -0.91565,-3.70423 -0.016,-3.79507 0.61197,-0.0618 1.62106,-0.7657 2.24241,-1.56424 1.08821,-1.39852 1.04234,-1.50136 -1.24766,-2.79718 -3.55972,-2.0143 -3.64461,-4.96583 -0.25389,-8.82852 l 2.87096,-3.27061 -7.70413,0.0501 c -8.01152,0.0521 -13.83311,-0.8829 -17.64403,-2.83378 -1.22633,-0.62777 -4.91651,-4.55067 -8.20041,-8.71756 -5.87182,-7.45065 -5.99023,-7.67938 -7.14797,-13.80762 -0.64748,-3.4273 -1.15863,-8.64771 -1.13592,-11.60091 0.0568,-7.37993 -0.39311,-17.50284 -0.89493,-20.1373 -0.22891,-1.20176 -0.13542,-2.40451 0.20777,-2.67278 0.86171,-0.67361 -0.9706,-15.249335 -2.87408,-22.862866 -1.92409,-7.695925 -0.90395,-8.674154 1.58609,-1.520948 1.21345,3.485923 2.09978,7.944326 3.07877,15.486899 1.15167,8.873015 1.59838,10.907745 2.75287,12.539095 1.47508,2.08433 3.62118,2.41882 3.89631,0.60729 0.26191,-1.7245 -0.56434,-6.19087 -2.02214,-10.93096 -1.77951,-5.78608 -0.79022,-5.721152 3.90774,0.25647 5.20363,6.62101 7.40477,8.4376 9.91649,8.18397 1.74795,-0.1765 2.18747,-0.84209 2.24611,-3.40152 0.0975,-4.25367 -3.13866,-14.634305 -5.36212,-17.200273 -0.92321,-1.065382 -1.8134,-2.645087 -1.97824,-3.510448 -0.43957,-2.307647 1.64699,-2.120711 3.70922,0.332318 0.98473,1.17134 3.24257,2.622544 5.01743,3.224894 4.62451,1.569473 7.45139,-1.280685 6.96851,-7.025919 -0.5443,-6.476044 -4.68638,-14.798116 -8.83886,-17.758601 -3.41647,-2.435751 -2.5873,-4.194888 2.17024,-4.60427 3.21892,-0.276983 4.87161,-1.017567 5.86121,-2.626497 3.33073,-5.415194 -0.22568,-13.562955 -7.19,-16.472295 -5.2432,-2.190347 -6.45717,-5.055572 -2.70694,-6.388924 2.59503,-0.922634 6.01083,-5.582434 6.08399,-8.299738 0.0792,-2.941409 -2.54588,-4.645056 -7.65818,-4.970074 -6.46814,-0.411213 -7.19416,-1.843121 -4.35287,-8.584947 2.54775,-6.0453338 2.19871,-10.1508162 -1.00867,-11.86436458 -2.99546,-1.60032968 -11.08708,-0.46666484 -13.99096,1.96018398 -1.37956,1.1529293 -3.21041,2.4563574 -4.06856,2.8965068 -0.85816,0.4401482 -2.33839,2.5729496 -3.28941,4.7395578 -1.63441,3.72351 -1.65651,4.320521 -0.40339,10.899124 1.16819,6.132737 1.63175,7.343107 3.90074,10.184966 2.04558,2.562045 3.16116,3.169695 5.42595,2.955511 4.23747,-0.400744 4.81362,0.445039 7.07411,10.384883 2.28122,10.031007 2.71167,14.839011 1.34088,14.977427 -0.5233,0.05284 -1.06323,1.137446 -1.19985,2.410235 -0.29654,2.762744 -2.7258,4.716835 -7.87698,6.336229 -2.08843,0.656544 -4.0744,1.772921 -4.41328,2.480828 -1.02258,2.13615 -4.24651,-0.984327 -9.0336,-8.743728 -3.46241,-5.612226 -4.2538,-7.377316 -3.6907,-8.23154 0.5666,-0.85955 0.41464,-1.218655 -0.72524,-1.713826 -4.28781,-1.862661 -5.45571,-2.81364 -6.24244,-5.083025 -1.8652,-5.380346 -1.72054,-5.769036 2.00126,-5.377046 l 3.50419,0.369073 -3.16521,-3.871477 c -3.60014,-4.403438 -4.49503,-7.199266 -2.37293,-7.413546 1.38117,-0.139465 1.33632,-0.278844 -1.1103,-3.450282 -2.82878,-3.666814 -2.71196,-2.446153 -1.5835,-16.546559 0.78614,-9.823136 -0.44687,-16.9928615 -4.37667,-25.449496 -4.68356,-10.078642 -11.07237,-12.407725 -17.28591,-6.301689 -2.41966,2.377796 -4.72676,8.887403 -4.17551,11.7813826 0.23392,1.2280395 0.52216,4.5109658 0.64052,7.2953912 0.20298,4.7748753 0.48584,5.6451023 4.97711,15.3123242 2.61904,5.637353 5.45921,11.763786 6.31149,13.614296 1.80693,3.923289 1.74886,6.015425 -0.29354,10.575709 -1.50458,3.35943 -0.83589,4.497721 2.44741,4.166189 0.85392,-0.08623 1.8103,0.305314 2.12532,0.870085 1.26232,2.263202 0.31165,4.824472 -3.08539,8.312596 -3.44258,3.53488 -3.94046,5.619573 -1.2779,5.35072 0.70255,-0.07094 1.34058,0.202957 1.41786,0.608651 0.28417,1.49185 -2.4153,13.076595 -3.73235,16.017308 -0.74722,1.668404 -1.17288,4.008417 -0.9459,5.200019 0.73817,3.875242 -0.53387,3.751877 -1.49334,-0.144836 l -0.93267,-3.787939 -5.52393,-0.828894 c -6.57119,-0.986046 -7.83718,-1.588082 -9.26601,-4.406406 -0.59533,-1.174248 -1.51056,-2.091769 -2.03386,-2.038929 -1.37079,0.138416 -2.75372,-4.57341 -4.30797,-14.677823 -1.54013,-10.012583 -1.30186,-10.940602 2.92547,-11.394595 2.25937,-0.242651 3.10571,-1.048401 4.11645,-3.919059 1.12113,-3.184178 1.11478,-4.440715 -0.0534,-10.573452 -1.25312,-6.578604 -1.49753,-7.148704 -4.46203,-10.407837 -1.72496,-1.8964 -3.94652,-3.655411 -4.9368,-3.908913 -0.99028,-0.253503 -3.23923,-1.144971 -4.99765,-1.981042 -3.7014,-1.7598777 -11.91135,-1.2474841 -14.19559,0.885966 -2.44584,2.284385 -1.24716,6.304074 3.46405,11.616431 5.254,5.924401 5.09059,7.44612 -0.97972,9.123408 -4.79787,1.325702 -6.68708,3.485182 -5.51143,6.299882 1.08607,2.600249 6.11468,6.407372 8.95663,6.781004 4.10707,0.539957 4.00987,3.537579 -0.21673,6.684143 -5.61402,4.179442 -5.99075,12.724354 -0.76164,17.275215 1.55363,1.352125 3.42075,1.737296 6.62172,1.366027 4.73098,-0.548773 6.1864,0.979725 3.80931,4.000484 -2.88919,3.671519 -3.76433,12.500208 -1.86748,18.839677 1.6828,5.624072 5.4683,7.806545 9.33164,5.380004 1.48273,-0.931285 3.11292,-2.775086 3.62266,-4.09733 1.06751,-2.769056 3.00545,-3.362367 3.44501,-1.05472 0.16484,0.86536 -0.10129,2.561826 -0.59141,3.769919 -1.18044,2.909682 -0.41437,13.539722 1.26935,17.613542 1.01309,2.45121 1.6848,3.0046 3.43275,2.8281 2.51172,-0.25362 3.95078,-2.43778 6.48322,-9.83994 2.28635,-6.68287 3.21403,-6.94136 3.66439,-1.02107 0.62152,8.17038 1.8904,12.03004 3.88858,11.82827 2.51387,-0.25384 2.58403,-3.78062 0.24955,-12.54419 -2.87767,-10.802666 -4.50229,-22.794944 -3.10717,-22.935817 0.84869,-0.0857 1.17172,0.996877 1.86197,6.239989 1.01413,7.703334 4.69908,22.091988 5.78004,22.569438 0.43051,0.19015 0.97004,1.32898 1.19896,2.53073 0.50182,2.63447 3.85265,12.46445 6.66574,19.55459 1.1257,2.83724 2.5851,7.9619 3.24312,11.38814 1.17656,6.12634 1.1481,6.3699 -1.71719,14.70278 -1.60247,4.66029 -3.68708,9.1663 -4.63247,10.01337 -2.9379,2.63234 -8.19028,4.68554 -15.9189,6.22281 l -7.43208,1.4783 3.98509,2.57832 c 4.70653,3.04507 5.72808,5.90202 3.05561,8.54562 -1.71922,1.70065 -1.72492,1.8087 -0.15505,2.93882 0.89638,0.64528 2.13049,1.12268 2.74246,1.06089 0.89963,-0.0908 1.16827,0.60897 1.4031,3.65501 0.15974,2.07205 0.0146,4.67747 -0.32249,5.7898 -0.91807,3.02931 -0.47558,3.88348 1.47527,2.84784 1.62835,-0.86444 1.84153,-0.63719 2.98393,3.18083 0.67666,2.26146 1.51302,4.08321 1.85857,4.04831 0.34555,-0.0349 0.54335,-0.5093 0.43954,-1.05423 -0.24641,-1.29365 1.01056,-5.24982 2.31231,-7.27774 2.10115,-3.27326 15.56078,-17.74286 18.08639,-19.44355 2.54312,-1.71249 2.65841,-2.75521 0.96138,-8.69423 -3.19949,-11.19702 -2.35378,-11.18294 1.79272,0.0299 2.15454,5.82622 2.39934,6.91691 1.67791,7.47568 -0.46457,0.35983 -2.83509,6.40176 -5.26782,13.42652 -2.43274,7.02475 -4.83957,12.81433 -5.34853,12.86572 -0.50895,0.0514 -1.13502,0.8877 -1.39127,1.85848 -0.38621,1.46306 -0.0604,1.85366 1.90431,2.28317 2.15962,0.47209 10.16188,-2.48913 13.54128,-5.01095 1.14408,-0.85375 1.41118,-0.65387 1.55911,1.16679 0.17385,2.13961 -1.23284,4.9884 -4.77695,9.67416 -0.95652,1.26464 -1.5594,2.52443 -1.33974,2.79955 0.21965,0.27511 2.54564,0.387 5.16887,0.24863 4.42543,-0.23343 4.80469,-0.0668 5.25739,2.30979 0.66171,3.47383 -2.75219,8.92022 -6.7705,10.80132 -4.57405,2.14129 -11.28726,2.5596 -18.51776,1.15388 -3.48515,-0.67757 -6.43227,-0.96036 -6.54914,-0.62843 -0.11687,0.33193 3.37088,3.00386 7.75055,5.93765 7.50797,5.02932 8.33629,5.33601 14.49431,5.36663 5.7227,0.0285 6.58143,0.29575 6.93635,2.15902 0.22279,1.1696 -0.13923,2.82606 -0.80449,3.68103 -1.1648,1.49694 -1.90738,3.53837 -5.2904,14.54356 -1.38053,4.49094 -1.40102,5.0525 -0.17987,4.9292 0.75799,-0.0765 3.26029,-1.61665 5.56069,-3.42248 2.30039,-1.80582 4.98602,-3.72227 5.96807,-4.25876 0.98205,-0.53649 2.3958,-2.07445 3.14169,-3.41767 1.47449,-2.65538 2.67446,-3.23743 3.01277,-1.46137 0.11801,0.61957 0.12452,3.97221 0.0145,7.45032 -0.28124,8.88722 1.45209,15.55843 5.91126,22.75112 1.89988,3.06454 4.30508,7.2872 5.34488,9.38368 1.737,3.50219 1.91552,3.62786 2.19793,1.54734 0.16906,-1.24543 0.95705,-5.85106 1.75109,-10.23472 z"
         id="path11902"
         style="fill:#ffffff;fill-opacity:1;stroke:none" />
      <path
         d="m 173.51566,4.1776959 c -0.95669,-1.1982315 -2.16412,-3.44071633 -2.68317,-4.98329887 -0.99202,-2.94823983 -0.84913,-7.80548963 0.23283,-7.91474133 0.95675,-0.096608 0.28873,-2.5660557 -1.26348,-4.6706707 -1.02554,-1.390504 -1.35177,-2.597373 -1.27961,-4.733814 0.0533,-1.577125 0.26763,-2.071354 0.47637,-1.098287 0.36978,1.723688 6.29767,7.422859 10.23788,9.8428237 1.82323,1.1197721 5.84815,7.477176 6.32769,9.99463818 0.11555,0.60660622 -0.34603,1.15907462 -1.02574,1.22770852 -0.6797,0.068633 -2.14857,1.021745 -3.26415,2.1180272 -2.78605,2.7378443 -5.68158,2.8190592 -7.75862,0.2176143 z"
         id="path11904"
         style="fill:#000000;fill-opacity:1;stroke:none" />
      <path
         d="m 179.81921,-1.3749112 c -0.26769,-1.4053098 -0.6814,-1.2874821 -1.86568,0.53136228 -1.27722,1.96156562 -3.72648,-0.40423508 -3.86889,-3.73705938 -0.0933,-2.1837561 -0.13101,-2.185884 -0.99503,-0.056149 -1.15715,2.8522774 -0.31557,5.5747577 1.94311,6.2858567 1.96494,0.6186206 5.10274,-1.36377778 4.78649,-3.0240108 z"
         id="path11906"
         style="fill:#ffffff;fill-opacity:1;stroke:none" />
      <path
         d="m 177.42107,-3.4006928 c -0.12256,-0.6433819 -0.51897,-1.139882 -0.88092,-1.1033337 -0.36196,0.036548 -0.55783,0.592855 -0.43527,1.2362369 0.12255,0.6433819 0.51896,1.1398821 0.88092,1.1033337 0.36195,-0.036548 0.55782,-0.5928549 0.43527,-1.2362369 z"
         id="path11908"
         style="fill:#ffffff;fill-opacity:1;stroke:none" />
      <path
         d="m 162.48778,156.18475 c 3.72051,-5.02568 4.66366,-8.27924 6.26057,-21.59691 0.59696,-4.97846 1.28109,-10.14456 1.52028,-11.48022 0.31726,-1.77166 0.0657,-3.4775 -0.93004,-6.30698 l -1.36493,-3.87849 -0.99745,2.47768 c -1.41648,3.51858 -3.10515,5.37307 -5.07363,5.57184 -1.23966,0.12517 -1.73677,1.06689 -1.82823,3.46339 -0.65281,17.10387 -2.00681,22.49894 -7.80324,31.09208 -4.03258,5.97824 -3.35261,7.82389 2.34258,6.35851 3.53078,-0.90847 5.24508,-2.14964 7.87409,-5.7009 z"
         id="path11910"
         style="fill:#ffffff;fill-opacity:1;stroke:none" />
      <path
         d="m 260.9668,149.9698 c -0.15794,-0.82913 -2.20447,-3.06071 -4.54785,-4.95903 -8.78959,-7.12031 -12.10905,-12.04348 -19.13028,-28.37246 -0.98377,-2.28793 -1.81411,-3.09561 -3.05378,-2.97043 -1.96847,0.19877 -4.28657,-1.25113 -6.96477,-4.35625 l -1.88591,-2.18653 0.13629,4.00254 c 0.0994,2.91999 0.49498,4.6113 1.46248,6.25322 0.7294,1.23786 3.31868,6.07343 5.75395,10.7457 6.36328,12.20849 8.56645,15.3336 13.4543,19.08437 4.96123,3.80708 7.45178,4.73991 11.91396,4.46229 2.16263,-0.13455 3.05883,-0.66803 2.86161,-1.70342 z"
         id="path11912"
         style="fill:#ffffff;fill-opacity:1;stroke:none" />
      <path
         d="m 176.24118,147.60238 c 1.45938,-2.4111 3.04689,-5.65706 3.52782,-7.21324 1.057,-3.42023 0.82032,-15.00081 -0.37805,-18.49773 l -0.86398,-2.52116 -2.062,2.85223 c -1.1835,1.63706 -1.89424,3.74448 -1.66825,4.94648 0.55561,2.95518 -0.30488,11.05869 -1.95377,18.39911 -2.15066,9.57413 -1.42747,10.00705 3.39823,2.03431 z"
         id="path11914"
         style="fill:#ffffff;fill-opacity:1;stroke:none" />
      <path
         d="m 236.73676,146.01337 c -0.0808,-0.42407 -1.80684,-3.35343 -3.8357,-6.50969 -4.33036,-6.73666 -8.1873,-14.36383 -8.75723,-17.31757 -0.23154,-1.20144 -1.70344,-3.08846 -3.45417,-4.42923 l -3.05028,-2.33602 0.11099,2.59719 c 0.1547,3.62045 4.25916,14.79836 6.57737,17.91253 2.00168,2.68897 11.18288,10.99247 12.05683,10.90422 0.27448,-0.0277 0.43296,-0.39736 0.35219,-0.82143 z"
         id="path11916"
         style="fill:#ffffff;fill-opacity:1;stroke:none" />
      <path
         d="m 142.34602,151.06184 c 4.47536,-5.5347 8.31994,-13.05591 10.83426,-21.19517 2.71361,-8.78441 2.72845,-8.94131 1.2785,-13.50864 -0.80684,-2.54156 -1.8006,-6.87522 -2.20835,-9.63037 -0.56357,-3.80797 -0.9254,-4.84371 -1.50872,-4.31873 -0.42203,0.37986 -1.18733,0.73304 -1.70066,0.78487 -0.51333,0.0518 -0.77392,0.93108 -0.57909,1.95387 0.44772,2.35044 -1.05471,5.84436 -4.18359,9.72894 -6.89934,8.56571 -9.75011,12.52276 -12.82824,17.80643 -1.85764,3.18869 -5.32617,8.07712 -7.70783,10.8632 l -4.3303,5.0656 1.97207,1.94759 c 4.97037,4.90867 17.16277,5.20091 20.96195,0.50241 z"
         id="path11918"
         style="fill:#ffffff;fill-opacity:1;stroke:none" />
      <path
         d="m 279.83747,138.34442 c 1.82591,-1.12934 3.83638,-3.05353 4.46772,-4.276 l 1.14789,-2.22265 -6.06027,-4.01641 c -3.33315,-2.20902 -8.49796,-6.2257 -11.47735,-8.92596 -4.93688,-4.47436 -9.15912,-7.71721 -18.99974,-14.5926 -4.46276,-3.11801 -7.21443,-6.182359 -7.66215,-8.532809 -0.19483,-1.02279 -0.77423,-1.81721 -1.28755,-1.765377 -0.51333,0.05183 -1.38176,-0.136383 -1.92984,-0.418278 -0.75753,-0.389596 -0.71857,0.678751 0.16247,4.454664 0.63745,2.73196 1.30106,7.09895 1.47462,9.70445 0.31194,4.68225 0.38488,4.83029 6.27949,12.74548 5.2245,7.01537 11.48883,13.33856 17.55862,17.7236 4.476,3.23363 11.21376,3.28394 16.32609,0.12189 z"
         id="path11920"
         style="fill:#ffffff;fill-opacity:1;stroke:none" />
      <path
         d="m 119.68033,130.11614 c 3.69823,-1.2797 19.87666,-15.04862 21.03837,-17.90505 0.23868,-0.58687 0.91369,-1.11548 1.50001,-1.17469 0.58632,-0.0592 1.76034,-1.78733 2.60892,-3.84029 1.07534,-2.60155 1.21459,-3.6995 0.45952,-3.62325 -0.59584,0.0602 -2.26996,-0.65346 -3.72026,-1.5858 -2.00136,-1.28662 -2.91693,-2.63101 -3.79866,-5.577856 -0.63896,-2.135474 -1.29053,-3.869662 -1.44794,-3.853768 -0.65928,0.06657 -8.33595,7.515354 -12.45542,12.085654 -4.31097,4.78278 -10.64213,9.66939 -19.24997,14.85781 -2.29833,1.38534 -4.17517,3.0089 -4.17076,3.60792 0.0107,1.44977 4.91785,5.81241 8.40246,7.47007 3.26361,1.55254 5.26095,1.46759 10.83373,-0.46075 z"
         id="path11922"
         style="fill:#ffffff;fill-opacity:1;stroke:none" />
      <path
         d="m 288.87865,112.39808 c 2.73349,-2.28554 5.82478,-7.45583 5.29317,-8.853 -0.21965,-0.57729 -2.63251,-1.76769 -5.36191,-2.64535 -10.22228,-3.287047 -18.141,-6.734764 -24.07696,-10.482855 -5.67227,-3.581579 -15.8434,-9.228171 -16.50268,-9.161599 -0.15741,0.01589 -0.13618,1.813732 0.0472,3.995211 0.25301,3.010332 -0.1255,4.485387 -1.57041,6.119998 -1.04708,1.184521 -2.39128,2.202913 -2.98712,2.263078 -0.75506,0.07624 -0.21068,1.105156 1.79648,3.395455 1.58391,1.807335 3.35955,3.237622 3.94587,3.178422 0.58633,-0.0592 1.43344,0.3157 1.88247,0.83313 0.44903,0.51742 5.69053,3.55223 11.64778,6.74402 13.41017,7.18493 21.15903,8.56595 25.88614,4.61349 z"
         id="path11924"
         style="fill:#ffffff;fill-opacity:1;stroke:none" />
      <path
         d="m 123.21647,97.621017 c 2.30978,-1.431216 6.12651,-4.8761 8.48163,-7.655312 3.50463,-4.135703 4.23636,-5.645495 4.03048,-8.316087 -0.13835,-1.794631 0.058,-3.941503 0.43626,-4.770819 0.56797,-1.245105 0.12157,-1.690523 -2.56193,-2.556281 -3.34385,-1.078788 -7.7665,0.41649 -15.18782,5.13493 -7.00738,4.455272 -9.3967,5.456664 -15.93952,6.680456 l -6.904713,1.291466 2.776735,3.748755 c 1.527205,2.061818 4.852608,5.146522 7.389778,6.854905 5.57256,3.75222 10.96366,3.62514 17.4791,-0.412013 z"
         id="path11926"
         style="fill:#ffffff;fill-opacity:1;stroke:none" />
      <path
         d="m 279.70632,80.466438 c 1.80286,-2.14662 3.84976,-5.773794 4.54866,-8.060395 l 1.27073,-4.157449 -7.12684,0.125377 c -6.7533,0.118789 -9.42674,-0.371389 -17.83493,-3.270066 -8.90487,-3.069896 -13.71951,-3.632435 -16.53392,-1.931813 -2.25861,1.364789 -2.52169,1.881847 -1.50976,2.967422 0.674,0.723059 1.66537,2.750004 2.20303,4.504315 0.79986,2.609804 2.07022,3.920462 6.98785,7.20949 7.6703,5.13009 14.11261,7.343326 20.03105,6.881628 3.95479,-0.308484 5.19782,-0.974736 7.96413,-4.268509 z"
         id="path11928"
         style="fill:#ffffff;fill-opacity:1;stroke:none" />
      <path
         d="m 119.28213,73.445267 c 1.2712,-1.073342 3.46332,-2.091412 4.87136,-2.262372 2.50284,-0.303874 2.52413,-0.359557 0.95197,-2.491247 -1.0066,-1.364833 -1.70011,-3.301672 -1.85407,-5.178068 -0.22609,-2.755518 -0.43857,-2.98164 -2.63049,-2.799345 -1.3115,0.109072 -4.30667,-0.3849 -6.65594,-1.097718 -2.34927,-0.712818 -5.89872,-1.140091 -7.88766,-0.949498 -1.98904,0.190113 -6.718448,-0.517786 -10.510006,-1.574187 -3.791555,-1.05639 -7.019561,-1.563347 -7.173348,-1.126584 -0.488797,1.388257 9.359498,14.362205 12.136524,15.988412 7.47761,4.378854 14.65523,4.949413 18.75166,1.490607 z"
         id="path11930"
         style="fill:#ffffff;fill-opacity:1;stroke:none" />
      <path
         d="m 270.00108,58.305819 c 1.64055,-1.071112 3.8756,-2.858512 4.96678,-3.972003 2.06415,-2.106356 6.69426,-16.542159 5.70364,-17.78288 -0.31123,-0.389807 -3.22791,0.737613 -6.48151,2.50539 -3.2536,1.767788 -7.53982,3.386533 -9.52494,3.597223 -1.98502,0.211169 -5.24089,1.325123 -7.23505,2.476522 -1.99417,1.151398 -4.69166,2.220189 -5.99443,2.375094 -2.17734,0.258846 -2.29727,0.518581 -1.48487,3.214895 0.55321,1.836082 0.60982,3.837231 0.15136,5.35 -0.71601,2.362572 -0.67454,2.412419 1.85,2.22328 1.42036,-0.106341 3.75173,0.398967 5.18085,1.123038 3.48741,1.766918 9.21848,1.272313 12.86817,-1.110559 z"
         id="path11932"
         style="fill:#ffffff;fill-opacity:1;stroke:none" />
      <path
         d="m 125.42131,52.522126 c 0.67,-1.707045 1.83683,-3.189899 2.59295,-3.295231 1.06737,-0.148686 0.73989,-0.642856 -1.46455,-2.210008 -3.22657,-2.293778 -6.58886,-6.982299 -7.16091,-9.98547 -0.32092,-1.684771 -1.2123,-2.043741 -5.26701,-2.121113 -3.12824,-0.05969 -6.63179,-1.06753 -9.75754,-2.806868 -3.74127,-2.081848 -17.69944,-5.974801 -20.654042,-5.760441 -1.246952,0.09047 1.857406,5.735947 6.5972,11.997446 5.945298,7.854028 10.371242,11.281715 16.702762,12.935496 2.32939,0.608429 6.49192,1.861119 9.25007,2.783745 6.73815,2.25397 7.73885,2.086012 9.16107,-1.537556 z"
         id="path11934"
         style="fill:#ffffff;fill-opacity:1;stroke:none" />
      <path
         d="m 252.78739,40.364418 c 2.50519,-1.505637 6.20287,-3.593483 8.21708,-4.639665 5.47382,-2.843102 8.45208,-7.018643 11.23764,-15.75525 2.22049,-6.964316 3.09752,-13.0118176 1.86382,-12.8518008 -2.92321,0.3791572 -14.89947,6.8908478 -17.72138,9.6354168 -2.35765,2.293026 -5.35226,3.957018 -8.34012,4.634286 -3.87276,0.877852 -4.59631,1.399891 -4.27539,3.084661 0.57206,3.003171 -0.91086,8.18094 -3.15828,11.027456 -1.52533,1.931932 -1.6606,2.484929 -0.59139,2.417607 0.76248,-0.04801 2.33966,1.101169 3.50484,2.55373 2.64819,3.301323 3.61149,3.290255 9.26318,-0.106441 z"
         id="path11936"
         style="fill:#ffffff;fill-opacity:1;stroke:none" />
      <path
         d="m 126.43788,28.260468 2.11679,-1.211943 -2.38124,-2.817376 c -1.30969,-1.549557 -2.54522,-3.67822 -2.74564,-4.730361 -0.25192,-1.322522 -0.94229,-1.85463 -2.23668,-1.723928 -1.03652,0.104663 -2.60295,-0.801621 -3.50908,-2.030239 -0.90024,-1.220612 -2.17283,-2.165168 -2.82799,-2.099013 -4.54787,0.459223 -19.714051,-11.8282475 -30.26402,-24.519575 -3.431971,-4.128568 -6.388125,-7.085641 -6.56923,-6.571274 -0.408866,1.161242 3.134929,13.7988501 6.241243,22.2570382 1.840073,5.0103365 3.43935,7.6954748 7.703205,12.9334448 5.186793,6.371763 6.35468,7.241461 16.095702,11.986114 3.69041,1.79752 14.12564,0.961151 18.37694,-1.472888 z"
         id="path11938"
         style="fill:#ffffff;fill-opacity:1;stroke:none" />
      <path
         d="m 255.39963,12.285373 c 6.37713,-5.8014208 10.32372,-15.8450215 10.12814,-25.774965 -0.17241,-8.75444 -1.48604,-21.617241 -2.31351,-22.653642 -0.36654,-0.459069 -2.10582,2.972129 -3.86509,7.624884 -5.40804,14.302695 -15.40902,29.13142972 -19.95689,29.5906534 -0.65516,0.066155 -1.52667,1.2272123 -1.93669,2.580128 -0.41271,1.3617897 -1.58126,2.5442395 -2.61778,2.6489021 -1.44321,0.1457283 -1.76855,0.7336478 -1.41965,2.5653398 0.24896,1.3069557 0.059,2.7305797 -0.42215,3.1636107 -0.48113,0.433029 -0.97938,1.761746 -1.10721,2.952704 -0.20718,1.930212 0.23726,2.245061 4.09232,2.899068 7.37764,1.251607 13.98345,-0.652279 19.41851,-5.596683 z"
         id="path11940"
         style="fill:#ffffff;fill-opacity:1;stroke:none" />
      <path
         d="m 121.48351,11.824772 c -0.0716,-1.676049 0.92692,-3.0102066 3.53591,-4.7243693 l 3.63571,-2.3887418 -2.30841,-1.8759641 C 125.0771,1.8039171 123.65564,0.27830183 123.18792,-0.55455867 122.7202,-1.3874192 121.25991,-2.9722577 119.94284,-4.0764204 115.43897,-7.8522348 102.9192,-23.888036 98.559767,-31.464688 96.16462,-35.627429 93.086903,-41.974362 91.720397,-45.568983 l -2.484556,-6.535676 -0.670114,4.412222 c -0.514264,3.386062 -0.320819,6.391477 0.831765,12.922488 1.304664,7.392753 1.963909,9.481273 5.02039,15.904836 3.59007,7.544965 13.807488,22.8097064 17.297048,25.8416561 1.06344,0.9239802 2.72797,2.0109767 3.69896,2.4155466 0.97099,0.4045699 2.55058,1.6637233 3.51019,2.7981173 2.20905,2.611416 2.68374,2.543639 2.55943,-0.365436 z"
         id="path11942"
         style="fill:#ffffff;fill-opacity:1;stroke:none" />
      <path
         d="m 234.93111,0.47634505 c 0.49938,-1.28171575 1.5487,-2.80632425 2.33182,-3.38801615 0.78312,-0.5816925 1.97854,-1.9574737 2.65647,-3.0572894 2.22458,-3.608938 6.35074,-20.3220275 6.98517,-28.2935635 0.54012,-6.786732 0.39385,-8.92705 -1.11398,-16.299288 -1.33207,-6.512887 -2.26929,-9.443199 -4.02978,-12.599566 l -2.29401,-4.112919 0.0521,6.781294 c 0.0287,3.729711 -0.56054,10.446912 -1.30934,14.927115 -1.36291,8.154469 -7.41631,26.065704 -10.33889,30.591407 -0.85464,1.323453 -1.66744,3.137816 -1.8062,4.031917 -0.13876,0.8941 -0.93633,2.6437833 -1.77237,3.8881832 l -1.52009,2.2625472 4.39135,1.5782063 c 3.15123,1.1325213 4.61077,2.21847416 5.16832,3.84545599 0.96773,2.82390881 1.44984,2.79507181 2.59943,-0.15548247 z"
         id="path11944"
         style="fill:#ffffff;fill-opacity:1;stroke:none" />
    </g>
  </defs>
  <g
     id="layer2"
     style="display:inline">
    <rect
       width="744.09003"
       height="248.46161"
       x="0"
       y="246.35825"
       id="rect2869"
       style="fill:#ffffff;fill-opacity:1;stroke:none" />
  </g>
  <g
     id="layer3"
     style="display:inline">
    <path
       d="m 0.50055194,159.1202 0,335.1991 L 372.04501,272.24598 743.58945,494.3193 l 3e-5,-335.1991 -743.08892806,0 z"
       id="path2872"
       style="fill:#00a85a;fill-opacity:1;stroke:none" />
  </g>
  <g
     id="layer4"
     style="display:inline">
    <rect
       width="744.09003"
       height="161.75702"
       x="0"
       y="0"
       id="rect2875"
       style="fill:#fff215;fill-opacity:1;stroke:none" />
  </g>
  <g
     id="layer5"
     style="display:inline">
    <path
       d="M 0.49751598,54.973183 601.10583,162.63733 l 142.48665,0 0,-47.9013 L 95.893459,0.49751598 l -95.39594302,0 0,54.47566702 z"
       id="path2878"
       style="fill:#ee3338;fill-opacity:1;stroke:none" />
  </g>
  <g
     id="layer6"
     style="display:inline">
    <use
       id="tree1"
       style="fill:#00a85a;fill-opacity:1;stroke:none"
       x="0"
       y="0"
       width="744.09003"
       height="494.81985"
       xlink:href="#tree" />
    <use
       transform="translate(246,-108)"
       id="tree2"
       style="fill:#ffffff;fill-opacity:1;stroke:none"
       x="0"
       y="0"
       width="744.09003"
       height="494.81985"
       xlink:href="#tree" />
    <use
       transform="translate(-242,-108)"
       id="tree3"
       style="fill:#ffffff;fill-opacity:1;stroke:none"
       x="0"
       y="0"
       width="744.09003"
       height="494.81985"
       xlink:href="#tree" />
  </g>
  <g
     transform="matrix(0.101623,-0.282262,0.282262,0.101623,116.9585,92.45891)"
     id="layer7"
     style="display:inline">
    <use
       id="b1"
       x="0"
       y="0"
       width="744.09003"
       height="494.81985"
       xlink:href="#bird" />
    <use
       transform="translate(215.81243,1268.5677)"
       id="b2"
       x="0"
       y="0"
       width="744.09003"
       height="494.81985"
       xlink:href="#bird" />
    <use
       transform="translate(105.64792,628.01132)"
       id="b3"
       x="0"
       y="0"
       width="744.09003"
       height="494.81985"
       xlink:href="#bird" />
  </g>
</svg>
