<?xml version="1.0" encoding="UTF-8" standalone="no"?>
<!-- Generator: Adobe Illustrator 15.0.2, SVG Export Plug-In  -->

<svg
   xmlns:dc="http://purl.org/dc/elements/1.1/"
   xmlns:cc="http://creativecommons.org/ns#"
   xmlns:rdf="http://www.w3.org/1999/02/22-rdf-syntax-ns#"
   xmlns:svg="http://www.w3.org/2000/svg"
   xmlns="http://www.w3.org/2000/svg"
   xmlns:xlink="http://www.w3.org/1999/xlink"
   xmlns:sodipodi="http://sodipodi.sourceforge.net/DTD/sodipodi-0.dtd"
   xmlns:inkscape="http://www.inkscape.org/namespaces/inkscape"
   version="1.1"
   x="0px"
   y="0px"
   width="736px"
   height="568px"
   viewBox="0 0 736 568"
   enable-background="new 0 0 736 568"
   xml:space="preserve"
   id="svg2"
   inkscape:version="0.48.4 r9939"
   sodipodi:docname="Flag_of_Serbian_Vojvodina.svg"><metadata
   id="metadata558"><rdf:RDF><cc:Work
       rdf:about=""><dc:format>image/svg+xml</dc:format><dc:type
         rdf:resource="http://purl.org/dc/dcmitype/StillImage" /></cc:Work></rdf:RDF></metadata><sodipodi:namedview
   pagecolor="#ffffff"
   bordercolor="#666666"
   borderopacity="1"
   objecttolerance="10"
   gridtolerance="10"
   guidetolerance="10"
   inkscape:pageopacity="0"
   inkscape:pageshadow="2"
   inkscape:window-width="926"
   inkscape:window-height="774"
   id="namedview556"
   showgrid="false"
   inkscape:zoom="0.55"
   inkscape:cx="368"
   inkscape:cy="284"
   inkscape:window-x="177"
   inkscape:window-y="80"
   inkscape:window-maximized="0"
   inkscape:current-layer="svg2" />
<defs
   id="defs4" />
<rect
   fill="#E8AF3C"
   width="736"
   height="568"
   id="rect6"
   style="fill:#ffcc33;fill-opacity:1" />
<g
   id="g8"
   style="fill:#000000">
	<g
   id="g10"
   style="fill:#000000">
		<polygon
   points="691.5,69.767 714,1 736.5,69.767   "
   id="polygon12"
   style="fill:#000000" />
	</g>
	<g
   id="g14"
   style="fill:#000000">
		<polygon
   points="645.5,69.767 668,1 690.5,69.767   "
   id="polygon16"
   style="fill:#000000" />
	</g>
	<g
   id="g18"
   style="fill:#000000">
		<polygon
   points="599.5,69.767 622,1 644.5,69.767   "
   id="polygon20"
   style="fill:#000000" />
	</g>
	<g
   id="g22"
   style="fill:#000000">
		<polygon
   points="553.5,69.767 576,1 598.5,69.767   "
   id="polygon24"
   style="fill:#000000" />
	</g>
	<g
   id="g26"
   style="fill:#000000">
		<polygon
   points="507.5,69.767 530,1 552.5,69.767   "
   id="polygon28"
   style="fill:#000000" />
	</g>
	<g
   id="g30"
   style="fill:#000000">
		<polygon
   points="461.5,69.767 484,1 506.5,69.767   "
   id="polygon32"
   style="fill:#000000" />
	</g>
	<g
   id="g34"
   style="fill:#000000">
		<polygon
   points="415.5,69.767 438,1 460.5,69.767   "
   id="polygon36"
   style="fill:#000000" />
	</g>
	<g
   id="g38"
   style="fill:#000000">
		<polygon
   points="369.5,69.767 392,1 414.5,69.767   "
   id="polygon40"
   style="fill:#000000" />
	</g>
	<g
   id="g42"
   style="fill:#000000">
		<polygon
   points="323.5,69.767 346,1 368.5,69.767   "
   id="polygon44"
   style="fill:#000000" />
	</g>
	<g
   id="g46"
   style="fill:#000000">
		<polygon
   points="277.5,69.767 300,1 322.5,69.767   "
   id="polygon48"
   style="fill:#000000" />
	</g>
	<g
   id="g50"
   style="fill:#000000">
		<polygon
   points="231.5,69.767 254,1 276.5,69.767   "
   id="polygon52"
   style="fill:#000000" />
	</g>
	<g
   id="g54"
   style="fill:#000000">
		<polygon
   points="185.5,69.767 208,1 230.5,69.767   "
   id="polygon56"
   style="fill:#000000" />
	</g>
	<g
   id="g58"
   style="fill:#000000">
		<polygon
   points="139.5,69.767 162,1 184.5,69.767   "
   id="polygon60"
   style="fill:#000000" />
	</g>
	<g
   id="g62"
   style="fill:#000000">
		<polygon
   points="93.5,69.767 116,1 138.5,69.767   "
   id="polygon64"
   style="fill:#000000" />
	</g>
	<g
   id="g66"
   style="fill:#000000">
		<polygon
   points="47.5,69.767 70,1 92.5,69.767   "
   id="polygon68"
   style="fill:#000000" />
	</g>
	<g
   id="g70"
   style="fill:#000000">
		<polygon
   points="1.5,69.767 24,1 46.5,69.767   "
   id="polygon72"
   style="fill:#000000" />
	</g>
</g>
<g
   id="g74"
   style="fill:#000000">
	<g
   id="g76"
   style="fill:#000000">
		<polygon
   points="736.5,499.233 714,568 691.5,499.233   "
   id="polygon78"
   style="fill:#000000" />
	</g>
	<g
   id="g80"
   style="fill:#000000">
		<polygon
   points="690.5,499.233 668,568 645.5,499.233   "
   id="polygon82"
   style="fill:#000000" />
	</g>
	<g
   id="g84"
   style="fill:#000000">
		<polygon
   points="644.5,499.233 622,568 599.5,499.233   "
   id="polygon86"
   style="fill:#000000" />
	</g>
	<g
   id="g88"
   style="fill:#000000">
		<polygon
   points="598.5,499.233 576,568 553.5,499.233   "
   id="polygon90"
   style="fill:#000000" />
	</g>
	<g
   id="g92"
   style="fill:#000000">
		<polygon
   points="552.5,499.233 530,568 507.5,499.233   "
   id="polygon94"
   style="fill:#000000" />
	</g>
	<g
   id="g96"
   style="fill:#000000">
		<polygon
   points="506.5,499.233 484,568 461.5,499.233   "
   id="polygon98"
   style="fill:#000000" />
	</g>
	<g
   id="g100"
   style="fill:#000000">
		<polygon
   points="460.5,499.233 438,568 415.5,499.233   "
   id="polygon102"
   style="fill:#000000" />
	</g>
	<g
   id="g104"
   style="fill:#000000">
		<polygon
   points="414.5,499.233 392,568 369.5,499.233   "
   id="polygon106"
   style="fill:#000000" />
	</g>
	<g
   id="g108"
   style="fill:#000000">
		<polygon
   points="368.5,499.233 346,568 323.5,499.233   "
   id="polygon110"
   style="fill:#000000" />
	</g>
	<g
   id="g112"
   style="fill:#000000">
		<polygon
   points="322.5,499.233 300,568 277.5,499.233   "
   id="polygon114"
   style="fill:#000000" />
	</g>
	<g
   id="g116"
   style="fill:#000000">
		<polygon
   points="276.5,499.233 254,568 231.5,499.233   "
   id="polygon118"
   style="fill:#000000" />
	</g>
	<g
   id="g120"
   style="fill:#000000">
		<polygon
   points="230.5,499.233 208,568 185.5,499.233   "
   id="polygon122"
   style="fill:#000000" />
	</g>
	<g
   id="g124"
   style="fill:#000000">
		<polygon
   points="184.5,499.233 162,568 139.5,499.233   "
   id="polygon126"
   style="fill:#000000" />
	</g>
	<g
   id="g128"
   style="fill:#000000">
		<polygon
   points="138.5,499.233 116,568 93.5,499.233   "
   id="polygon130"
   style="fill:#000000" />
	</g>
	<g
   id="g132"
   style="fill:#000000">
		<polygon
   points="92.5,499.233 70,568 47.5,499.233   "
   id="polygon134"
   style="fill:#000000" />
	</g>
	<g
   id="g136"
   style="fill:#000000">
		<polygon
   points="46.5,499.233 24,568 1.5,499.233   "
   id="polygon138"
   style="fill:#000000" />
	</g>
</g>
<path
   fill="#96AED2"
   d="M504.897,277.287c0,103.559-61.292,172.203-136.897,172.203s-136.897-68.645-136.897-172.203  S292.394,118.51,368,118.51S504.897,173.728,504.897,277.287z"
   id="path140" />
<path
   fill="none"
   stroke="#231F20"
   stroke-width="8"
   d="M504.897,277.287c0,103.559-61.292,172.203-136.897,172.203  s-136.897-68.645-136.897-172.203S292.394,118.51,368,118.51S504.897,173.728,504.897,277.287z"
   id="path142" />
<path
   fill="none"
   stroke="#DE9323"
   stroke-width="3"
   d="M504.897,277.287c0,103.559-61.292,172.203-136.897,172.203  s-136.897-68.645-136.897-172.203S292.394,118.51,368,118.51S504.897,173.728,504.897,277.287z"
   id="path144" />
<path
   fill="none"
   stroke="#F2D4A7"
   stroke-width="16"
   stroke-miterlimit="10"
   d="M251.337,333.992  c15.19,62.215,61.611,101.133,116.53,101.133s101.339-38.918,116.53-101.133"
   id="path146" />
<polygon
   fill="#F2D4A7"
   points="244.781,336.227 242.771,327.585 251.337,332.754 256.273,324.008 258.195,333.03 "
   id="polygon148" />
<polygon
   fill="#F2D4A7"
   points="491.049,335.838 493.06,327.196 484.493,332.364 479.557,323.618 477.635,332.642 "
   id="polygon150" />
<path
   fill="#D84F25"
   d="M352.055,180.425c0,0,6.669,2.98,17.88,2.98c11.21,0,18.174-2.98,18.174-2.98s-12.029-2.183-18.438-2.183  S352.055,180.425,352.055,180.425z"
   id="path152" />
<path
   fill="none"
   stroke="#DE9323"
   stroke-width="8"
   stroke-linecap="square"
   d="M379.798,178.243  c1.939,8.719,16.376,12.489,22.841,11.089"
   id="path154" />
<path
   fill="none"
   stroke="#2D5DA5"
   stroke-width="5"
   stroke-linecap="square"
   d="M379.798,178.243  c1.939,8.719,16.376,12.489,22.841,11.089"
   id="path156" />
<g
   id="g158">
	<defs
   id="defs160"><rect
     id="SVGID_11_"
     x="423.71"
     y="168.358"
     width="43.788"
     height="21.259" /></defs>
	<clipPath
   id="SVGID_54_">
		<use
   xlink:href="#SVGID_11_"
   overflow="visible"
   id="use164" />
	</clipPath>
	<g
   clip-path="url(#SVGID_54_)"
   id="g166">
		<path
   fill="none"
   stroke="#DE9323"
   stroke-width="8"
   stroke-linecap="square"
   d="M430.005,183.406    c2.586-4.633,12.175-11.414,13.79-14.919"
   id="path168" />
		<path
   fill="none"
   stroke="#2D5DA5"
   stroke-width="5"
   stroke-linecap="square"
   d="M430.005,183.406    c2.586-4.633,12.175-11.414,13.79-14.919"
   id="path170" />
	</g>
</g>
<g
   id="g172">
	<defs
   id="defs174"><rect
     id="SVGID_10_"
     x="423.71"
     y="168.358"
     width="43.788"
     height="21.259" /></defs>
	<clipPath
   id="SVGID_57_">
		<use
   xlink:href="#SVGID_10_"
   overflow="visible"
   id="use178" />
	</clipPath>
	<g
   clip-path="url(#SVGID_57_)"
   id="g180">
		<path
   fill="none"
   stroke="#DE9323"
   stroke-width="8"
   stroke-linecap="square"
   d="M445.088,168.358    c2.37,3.088,5.064,10.091,7.649,14.293"
   id="path182" />
		<path
   fill="none"
   stroke="#2D5DA5"
   stroke-width="5"
   stroke-linecap="square"
   d="M445.088,168.358    c2.37,3.088,5.064,10.091,7.649,14.293"
   id="path184" />
	</g>
</g>
<polygon
   fill="#DE9323"
   points="457.263,183.406 460.818,185.992 455,190.194 451.553,187.123 "
   id="polygon186" />
<path
   fill="none"
   stroke="#DE9323"
   stroke-width="8"
   stroke-linecap="square"
   d="M360.458,178.243  c-1.939,8.719-16.376,12.489-22.841,11.089"
   id="path188" />
<path
   fill="none"
   stroke="#2D5DA5"
   stroke-width="5"
   stroke-linecap="square"
   d="M360.458,178.243  c-1.939,8.719-16.376,12.489-22.841,11.089"
   id="path190" />
<g
   id="g192">
	<defs
   id="defs194"><rect
     id="SVGID_9_"
     x="272.758"
     y="168.358"
     width="43.788"
     height="21.259" /></defs>
	<clipPath
   id="SVGID_63_">
		<use
   xlink:href="#SVGID_9_"
   overflow="visible"
   id="use198" />
	</clipPath>
	<g
   clip-path="url(#SVGID_63_)"
   id="g200">
		<path
   fill="none"
   stroke="#DE9323"
   stroke-width="8"
   stroke-linecap="square"
   d="M310.251,183.406    c-2.586-4.633-12.175-11.414-13.791-14.919"
   id="path202" />
		<path
   fill="none"
   stroke="#2D5DA5"
   stroke-width="5"
   stroke-linecap="square"
   d="M310.251,183.406    c-2.586-4.633-12.175-11.414-13.791-14.919"
   id="path204" />
	</g>
</g>
<g
   id="g206">
	<defs
   id="defs208"><rect
     id="SVGID_8_"
     x="272.758"
     y="168.358"
     width="43.788"
     height="21.259" /></defs>
	<clipPath
   id="SVGID_66_">
		<use
   xlink:href="#SVGID_8_"
   overflow="visible"
   id="use212" />
	</clipPath>
	<g
   clip-path="url(#SVGID_66_)"
   id="g214">
		<path
   fill="none"
   stroke="#DE9323"
   stroke-width="8"
   stroke-linecap="square"
   d="M295.167,168.358    c-2.37,3.088-5.063,10.091-7.649,14.293"
   id="path216" />
		<path
   fill="none"
   stroke="#2D5DA5"
   stroke-width="5"
   stroke-linecap="square"
   d="M295.167,168.358    c-2.37,3.088-5.063,10.091-7.649,14.293"
   id="path218" />
	</g>
</g>
<circle
   fill="#D8620D"
   cx="370.115"
   cy="144.733"
   r="3.345"
   id="circle220" />
<path
   fill="#D53439"
   d="M369.67,144.728c-13.3,0-24.081,7.332-24.081,16.376c0,2.506,0.831,4.879,2.31,8.727h43.54  c1.479-3.848,2.311-6.221,2.311-8.727C393.75,152.06,382.969,144.728,369.67,144.728z"
   id="path222" />
<path
   d="M455.917,274.663c2.154-0.431,11.636,0,25.857-6.033c14.222-6.034,9.912-13.36,2.155-13.791  c-7.758-0.431-19.824,3.017-24.996,3.448s-5.603-1.724-2.586-2.586c3.017-0.862,15.945-9.05,24.134-16.376  c8.188-7.326,9.912-19.824,1.293-16.808c-8.619,3.017-24.996,15.084-29.306,17.669c-4.31,2.586-7.757-0.431-3.878-3.017  c3.878-2.586,17.669-15.515,23.702-29.736c6.034-14.222-5.962-9.396-12.066-4.31c-10.343,8.619-38.787,37.063-53.009,45.251  l-6.177,1.724c-7.183-4.022-10.559-14.792-5.172-25.283c5.459-10.63,9.686-19.371,20.758-20.327  c15.802-1.364,4.813-5.782,15.73-10.918c5.465-2.571,1.724-15.874-9.769-15.299s-27.295,8.619-35.052,14.94  c-6.655,5.422-13.085,14.646-15.508,22.783c-1.783-0.467-3.444-0.489-5.244-0.114c-2.466-8.108-8.91-17.272-15.581-22.669  c-7.812-6.321-23.725-14.366-35.297-14.941c-11.573-0.575-13.598,8.044-13.309,14.078c0.101,2.124,7.484,1.963,7.976,4.633  c0.754,4.094,3.017,5.71,10.541,7.721c12.608,3.37,16.202,9.481,21.7,20.111c5.425,10.49,2.025,21.261-5.208,25.283l-6.22-1.724  c-14.322-8.188-42.965-36.632-53.381-45.251c-6.147-5.087-18.227-9.912-12.152,4.31c6.076,14.222,19.964,27.151,23.869,29.737  c3.905,2.585,0.435,5.602-3.906,3.017c-4.34-2.586-20.831-14.653-29.511-17.669c-8.681-3.017-6.944,9.481,1.302,16.808  c8.245,7.326,21.265,15.515,24.304,16.376c3.038,0.862,2.604,3.017-2.604,2.586c-5.208-0.431-17.359-3.879-25.171-3.448  c-7.813,0.431-12.151,7.757,2.17,13.791c14.321,6.034,23.869,5.603,26.039,6.034c2.17,0.431,3.906,3.878-2.169,4.741  c-6.076,0.862-25.606,2.585-28.788,7.757c-5.026,8.165,2.749,9.912,10.56,9.481c7.812-0.432,20.397-3.879,23.869-3.879  s3.038,3.447-2.17,5.603c-5.208,2.154-13.453,5.603-19.095,10.343c-5.643,4.74-3.038,12.929,6.943,9.481  c9.982-3.448,15.623-6.896,21.7-9.051c6.076-2.154,5.208,1.293,2.169,3.448c-3.039,2.154-14.596,11.493-17.2,14.941  c-2.604,3.447,0,10.343,7.378,6.465c7.378-3.879,19.805-14.94,21.974-16.233c2.169-1.293,3.038,0.432,1.736,3.448  c-1.302,3.017-3.906,7.326-5.208,11.636c-1.302,4.31,3.906,8.188,9.114,3.879c4.684-3.877,8.316-12.052,12.79-14.492l0.785,11.102  c-2.388,0.141-5.738,0.897-7.644,3.821c-3.182,4.885,0,8.044,2.026,12.067c2.025,4.022-1.736,13.79-1.736,13.79  s7.812-9.768,7.523-6.033c-0.29,3.734-6.944,10.918-9.548,13.504c-2.604,2.586-2.604,5.746,0,7.758  c2.604,2.011,8.101,0,10.126-3.161c2.026-3.161,5.786-3.734,5.497-2.299s-2.024,4.022-4.339,6.32  c-2.315,2.299-2.026,8.045,0.29,10.344c2.314,2.298,8.679,0.286,10.705-3.161c2.025-3.447,5.497-4.022,4.919-0.862  c-0.578,3.161-3.472,8.62-4.34,12.643s2.025,8.044,6.944,6.32c4.919-1.724,9.257-12.642,10.994-15.802s3.762-3.447,3.762,0  s-0.29,11.78,0.29,18.676c0.434,5.164,4.599,7.427,6.664,8.238l-0.001,0.381c0,0,0.222-0.056,0.573-0.175  c0.354,0.118,0.576,0.175,0.576,0.175v-0.385c2.052-0.813,6.179-3.076,6.608-8.234c0.575-6.896,0.287-15.229,0.287-18.676  s2.011-3.161,3.735,0c1.724,3.16,6.033,14.078,10.918,15.802c4.884,1.724,7.757-2.299,6.896-6.32  c-0.862-4.022-3.735-9.481-4.31-12.643c-0.575-3.16,2.872-2.585,4.884,0.862s8.333,5.459,10.631,3.161s2.585-8.045,0.286-10.344  c-2.298-2.299-4.022-4.884-4.31-6.32c-0.286-1.437,3.448-0.862,5.459,2.299s7.471,5.172,10.056,3.161  c2.586-2.012,2.586-5.172,0-7.758c-2.585-2.586-9.193-9.769-9.48-13.504s7.47,6.033,7.47,6.033s-3.734-9.768-1.724-13.79  c2.011-4.023,5.172-7.183,2.011-12.067c-1.892-2.925-5.219-3.682-7.59-3.821l0.778-11.102c4.442,2.44,8.048,10.615,12.7,14.492  c5.172,4.31,10.344,0.431,9.051-3.879s-3.879-8.619-5.172-11.636s-0.431-4.741,1.724-3.448c2.155,1.293,6.896,7.758,14.222,11.636  c7.327,3.879,9.912-3.017,7.327-6.464c-2.586-3.448-6.465-8.188-9.481-10.343c-3.017-2.155-3.879-5.603,2.154-3.448  c6.034,2.155,11.637,5.603,21.549,9.051c9.912,3.447,12.497-4.741,6.896-9.481c-5.603-4.741-13.791-8.188-18.963-10.344  c-5.172-2.154-5.603-5.602-2.154-5.602c3.447,0,15.945,3.447,23.702,3.878c7.758,0.432,15.478-1.315,10.487-9.481  c-3.16-5.171-22.554-6.895-28.588-7.757C452.037,278.542,453.762,275.094,455.917,274.663z"
   id="path224" />
<path
   fill="#D8620D"
   d="M434.273,186.907c1.629,7.075-6.692,6.843-9.063,11.044c8.403,0.431,7.434-3.017,12.929-2.478  c4.4,0.431,6.788,3.125,6.788,3.125s1.4-5.495-2.371-7.649c-3.327-1.901-6.031-2.538-6.713-3.519  C435.224,186.538,434.103,186.159,434.273,186.907z"
   id="path226" />
<path
   fill="#EF4A3E"
   d="M423.65,186.154c-0.239-0.828-1.377-1.455-2.749-1.455c-1.548,0-2.802,0.795-2.802,1.778  c0,0.053,0.018,0.101,0.024,0.152c0.878-0.39,2.156-0.637,3.586-0.637C422.4,185.992,423.057,186.051,423.65,186.154z"
   id="path228" />
<path
   fill="#FFFFFF"
   d="M420.901,188.255c1.547,0,2.801-0.796,2.801-1.778c0-0.11-0.021-0.217-0.052-0.322  c-0.594-0.104-1.25-0.162-1.941-0.162c-1.429,0-2.708,0.248-3.586,0.637C418.247,187.538,419.436,188.255,420.901,188.255z"
   id="path230" />
<path
   fill="#D84F25"
   d="M425.749,202.907c3.52,1.222,7.315-3.796,11.708-1.221c2.083,1.221,3.95,1.795,5.531,1.652  c3.021-0.274,3.878-4.525,3.878-4.525s-1.086,2.802-4.237,2.945c-2.371,0.108-4.813-2.298-6.465-2.729  c-3.563-0.93-4.381,1.508-7.82-0.346c-1.688-0.91-2.919-1.838-4.584,0.865C423.312,200.276,423.69,202.193,425.749,202.907z"
   id="path232" />
<path
   fill="none"
   stroke="#D8620D"
   stroke-miterlimit="10"
   d="M412.82,179.132c0,0-3.734-2.585-5.746-6.608  c-2.012-4.022,3.882-6.312,5.854-0.646c0.39,1.122,1.179,3.489,1.179,3.489"
   id="path234" />
<path
   fill="none"
   stroke="#D8620D"
   stroke-miterlimit="10"
   d="M412.497,170.908c-2.092-5.694,4.123-5.475,4.849-1.993  c0.539,2.585,0.701,5.387,0.701,5.387"
   id="path236" />
<path
   fill="none"
   stroke="#D8620D"
   stroke-miterlimit="10"
   d="M422.364,174.441c0,0,0.221-3.082,0.422-5.418  c0.307-3.565-4.072-3.912-4.849-1.778c-0.483,1.329-0.431,2.209-0.431,2.209"
   id="path238" />
<path
   fill="none"
   stroke="#D8620D"
   stroke-miterlimit="10"
   d="M425.246,177.983c0,0,1.688-5.017,3.376-8.333  c1.396-2.744-2.355-4.924-4.759-2.245c-1.047,1.168-1.077,2.425-1.077,2.425"
   id="path240" />
<path
   fill="#D8620D"
   d="M425.479,179.312c-3.395-1.405-9.428-0.377-12.229,1.455l-2.689-3.586c3.626-2.78,11.521-3.947,16.032-1.933  L425.479,179.312z"
   id="path242" />
<path
   fill="#D8620D"
   d="M417.202,166.792c0.573-1.006,1.717-1.702,3.053-1.702c0.037,0,0.072,0.008,0.109,0.01  c-0.343-0.934-1.56-1.626-3.019-1.626c-1.726,0-3.125,0.964-3.125,2.154c0,0.01,0.005,0.019,0.005,0.03  c0.106-0.009,0.209-0.03,0.318-0.03C415.623,165.629,416.573,166.087,417.202,166.792z"
   id="path244" />
<line
   fill="none"
   stroke="#D8620D"
   stroke-miterlimit="10"
   x1="416.699"
   y1="163.475"
   x2="416.376"
   y2="159.811"
   id="line246" />
<line
   fill="none"
   stroke="#D8620D"
   stroke-miterlimit="10"
   x1="415.256"
   y1="161.502"
   x2="417.734"
   y2="161.287"
   id="line248" />
<path
   fill="#D8620D"
   d="M418.135,345.483c0,0,10.774,6.178,13.936,7.327c3.16,1.148,5.836,0.585,5.836,0.585s1.101,4.56,2.681,6.141  c1.581,1.581,3.993,2.07,5.849,0.026c1.76-1.939,4.273,0.036,3.125,1.616c-1.149,1.58-4.813,4.74-8.404,3.447  s-3.627-2.765-6.644-4.776s-18.531-10.63-18.531-10.63L418.135,345.483z"
   id="path250" />
<path
   fill="#D8620D"
   d="M450.854,361.286c1.006-2.083,3.914-1.006,2.801,1.293c-1.196,2.47-5.287,2.993-6.788,2.838  c-1.724-0.18,0.252-0.468,1.58-1.401C449.714,363.125,450.212,362.613,450.854,361.286z"
   id="path252" />
<path
   fill="#D8620D"
   d="M454.84,362.22c0.414-1.521,2.693-0.61,2.011,0.79c-0.683,1.401-2.442,2.802-4.741,2.766  c-1.477-0.023-0.146-0.372,0.898-0.934C453.941,364.338,454.624,363.01,454.84,362.22z"
   id="path254" />
<path
   fill="#D8620D"
   d="M303.326,186.907c-1.628,7.075,6.693,6.843,9.063,11.044c-8.404,0.431-7.434-3.017-12.929-2.478  c-4.401,0.431-6.788,3.125-6.788,3.125s-1.4-5.495,2.37-7.649c3.327-1.901,6.032-2.538,6.714-3.519  C302.376,186.538,303.498,186.159,303.326,186.907z"
   id="path256" />
<path
   fill="#EF4A3E"
   d="M313.949,186.154c0.239-0.828,1.376-1.455,2.75-1.455c1.547,0,2.801,0.795,2.801,1.778  c0,0.053-0.018,0.101-0.024,0.152c-0.878-0.39-2.157-0.637-3.585-0.637C315.199,185.992,314.543,186.051,313.949,186.154z"
   id="path258" />
<path
   fill="#FFFFFF"
   d="M316.699,188.255c-1.547,0-2.801-0.796-2.801-1.778c0-0.11,0.021-0.217,0.052-0.322  c0.594-0.104,1.25-0.162,1.942-0.162c1.428,0,2.707,0.248,3.585,0.637C319.353,187.538,318.164,188.255,316.699,188.255z"
   id="path260" />
<path
   fill="#D84F25"
   d="M311.85,202.907c-3.519,1.222-7.315-3.796-11.708-1.221c-2.083,1.221-3.95,1.795-5.531,1.652  c-3.021-0.274-3.879-4.525-3.879-4.525s1.087,2.802,4.238,2.945c2.37,0.108,4.812-2.298,6.464-2.729  c3.563-0.93,4.381,1.508,7.82-0.346c1.688-0.91,2.919-1.838,4.584,0.865C314.288,200.276,313.908,202.193,311.85,202.907z"
   id="path262" />
<path
   fill="none"
   stroke="#D8620D"
   stroke-miterlimit="10"
   d="M324.779,179.132c0,0,3.734-2.585,5.746-6.608  c2.012-4.022-3.882-6.312-5.854-0.646c-0.391,1.122-1.179,3.489-1.179,3.489"
   id="path264" />
<path
   fill="none"
   stroke="#D8620D"
   stroke-miterlimit="10"
   d="M325.103,170.908c2.091-5.694-4.124-5.475-4.849-1.993  c-0.539,2.585-0.701,5.387-0.701,5.387"
   id="path266" />
<path
   fill="none"
   stroke="#D8620D"
   stroke-miterlimit="10"
   d="M315.234,174.441c0,0-0.22-3.082-0.421-5.418  c-0.307-3.565,4.072-3.912,4.849-1.778c0.483,1.329,0.431,2.209,0.431,2.209"
   id="path268" />
<path
   fill="none"
   stroke="#D8620D"
   stroke-miterlimit="10"
   d="M312.354,177.983c0,0-1.688-5.017-3.376-8.333  c-1.396-2.744,2.355-4.924,4.759-2.245c1.047,1.168,1.077,2.425,1.077,2.425"
   id="path270" />
<path
   fill="#D8620D"
   d="M312.12,179.312c3.394-1.405,9.428-0.377,12.229,1.455l2.689-3.586c-3.626-2.78-11.521-3.947-16.033-1.933  L312.12,179.312z"
   id="path272" />
<path
   fill="#D8620D"
   d="M320.398,166.792c-0.573-1.006-1.718-1.702-3.053-1.702c-0.037,0-0.073,0.008-0.11,0.01  c0.343-0.934,1.56-1.626,3.019-1.626c1.726,0,3.125,0.964,3.125,2.154c0,0.01-0.004,0.019-0.004,0.03  c-0.106-0.009-0.209-0.03-0.319-0.03C321.976,165.629,321.026,166.087,320.398,166.792z"
   id="path274" />
<line
   fill="none"
   stroke="#D8620D"
   stroke-miterlimit="10"
   x1="320.9"
   y1="163.475"
   x2="321.224"
   y2="159.811"
   id="line276" />
<line
   fill="none"
   stroke="#D8620D"
   stroke-miterlimit="10"
   x1="322.342"
   y1="161.502"
   x2="319.864"
   y2="161.287"
   id="line278" />
<path
   fill="#D8620D"
   d="M320.451,346.347c0,0-11.628,7.198-15.066,7.482c-4.427,0.365-12.247-1.645-14.957,1.28  c-1.791,1.932-0.479,3.354,0.511,2.819c0.934-0.502,2.658-0.916,3.018-1.06c0.791,4.417,3.043,11.528,3.043,11.528  s6.788-5.962,10.522-7.542c3.735-1.58,15.515-8.906,15.515-8.906s0.143-2.011-0.575-3.304S320.451,346.347,320.451,346.347z"
   id="path280" />
<path
   fill="#D8620D"
   d="M283.172,361.179c2.286,0.279,3.784,0.4,5.652,0.258c1.869-0.144,3.017-2.989-0.144-2.847  c-3.161,0.144-3.542,0.018-4.539-0.5c-0.036-1.329-2.231-1.218-2.55-0.108C281.152,359.507,281.702,360.998,283.172,361.179z"
   id="path282" />
<path
   fill="#D8620D"
   d="M284.07,365.488c1.717,0.313,2.62,0.304,5.046,0.262c1.873-0.032,2.817-3.434,0.054-3.495  c-3.163-0.069-6.153-0.245-6.799-0.963C281.709,362.845,282.612,365.221,284.07,365.488z"
   id="path284" />
<path
   fill="#D8620D"
   d="M285.184,369.223c1.345,0.203,2.022,0.108,3.911,0.036c1.907-0.072,2.598-3.14,0.132-3.095  c-2.464,0.044-4.392,0.149-5.649-0.46C282.673,367.084,284.042,369.051,285.184,369.223z"
   id="path286" />
<path
   fill="#D8620D"
   d="M452.9,338.122c0.886,0.206,1.709,0.509,2.479,0.884c0.025-0.096,0.059-0.188,0.074-0.287  c0.235-1.56-0.861-3.018-2.449-3.258c-1.576-0.238-3.041,0.813-3.294,2.353C450.759,337.774,451.831,337.874,452.9,338.122z"
   id="path288" />
<line
   fill="none"
   stroke="#D8620D"
   stroke-miterlimit="10"
   x1="453.008"
   y1="334.998"
   x2="453.654"
   y2="330.364"
   id="line290" />
<line
   fill="none"
   stroke="#D8620D"
   stroke-miterlimit="10"
   x1="452.038"
   y1="331.766"
   x2="455.055"
   y2="332.089"
   id="line292" />
<g
   id="g294">
	<defs
   id="defs296"><path
     id="SVGID_7_"
     d="M452.9,338.984c-5.854-1.36-11.838,1.611-13.527,8.883c-1.351,5.814,0.601,10.294,4.427,12.553    c-0.001-0.036-0.046-0.092-0.013-0.105c1.816-0.692,2.299-2.423,4.065-2.423c1.257,0,2.768,0.692,2.94,2.075    c0.559-0.356,1.041-0.683,1.903-0.604c0.952,0.087,1.816,0.506,1.816,1.557c0,0.043,0.589-0.349,0.585-0.307    c2.567-1.461,4.602-4.065,5.475-7.823C462.261,345.52,458.754,340.344,452.9,338.984z" /></defs>
	<clipPath
   id="SVGID_106_">
		<use
   xlink:href="#SVGID_7_"
   overflow="visible"
   id="use300" />
	</clipPath>
	<path
   clip-path="url(#SVGID_106_)"
   fill="#2D5DA5"
   d="M460.572,352.791c-1.69,7.272-7.716,10.261-13.569,8.9   c-5.854-1.359-9.319-6.553-7.631-13.824c1.688-7.272,7.674-10.243,13.527-8.883C458.754,340.344,462.261,345.52,460.572,352.791z"
   id="path302" />
</g>
<g
   id="g304">
	<defs
   id="defs306"><path
     id="SVGID_6_"
     d="M452.9,338.984c-5.854-1.36-11.838,1.611-13.527,8.883c-1.351,5.814,0.601,10.294,4.427,12.553    c-0.001-0.036-0.046-0.092-0.013-0.105c1.816-0.692,2.299-2.423,4.065-2.423c1.257,0,2.768,0.692,2.94,2.075    c0.559-0.356,1.041-0.683,1.903-0.604c0.952,0.087,1.816,0.506,1.816,1.557c0,0.043,0.589-0.349,0.585-0.307    c2.567-1.461,4.602-4.065,5.475-7.823C462.261,345.52,458.754,340.344,452.9,338.984z" /></defs>
	<clipPath
   id="SVGID_108_">
		<use
   xlink:href="#SVGID_6_"
   overflow="visible"
   id="use310" />
	</clipPath>
	<g
   clip-path="url(#SVGID_108_)"
   id="g312">
		<path
   fill="none"
   stroke="#D8620D"
   stroke-width="5"
   stroke-miterlimit="10"
   d="M438.355,348.465    c6.572-0.861,17.992,0.97,22.732,5.388"
   id="path314" />
		<path
   fill="none"
   stroke="#DE9323"
   stroke-miterlimit="10"
   d="M438.355,348.465c6.572-0.861,17.992,0.97,22.732,5.388"
   id="path316" />
	</g>
</g>
<g
   id="g318">
	<defs
   id="defs320"><path
     id="SVGID_5_"
     d="M452.9,338.984c-5.854-1.36-11.838,1.611-13.527,8.883c-1.351,5.814,0.601,10.294,4.427,12.553    c-0.001-0.036-0.046-0.092-0.013-0.105c1.816-0.692,2.299-2.423,4.065-2.423c1.257,0,2.768,0.692,2.94,2.075    c0.559-0.356,1.041-0.683,1.903-0.604c0.952,0.087,1.816,0.506,1.816,1.557c0,0.043,0.589-0.349,0.585-0.307    c2.567-1.461,4.602-4.065,5.475-7.823C462.261,345.52,458.754,340.344,452.9,338.984z" /></defs>
	<clipPath
   id="SVGID_111_">
		<use
   xlink:href="#SVGID_5_"
   overflow="visible"
   id="use324" />
	</clipPath>
	<g
   clip-path="url(#SVGID_111_)"
   id="g326">
		<path
   fill="none"
   stroke="#D8620D"
   stroke-width="5"
   stroke-miterlimit="10"
   d="M452.955,338.26    c0.514,4.252-0.086,7.092-1.124,10.726"
   id="path328" />
		<path
   fill="none"
   stroke="#DE9323"
   stroke-miterlimit="10"
   d="M452.955,338.26c0.514,4.252-0.086,7.092-1.124,10.726"
   id="path330" />
	</g>
</g>
<path
   fill="#D84F25"
   d="M288.847,357.623c-0.431-1.293,0.24-2.287,1.006-3.017c0.611-0.583,2.144-1.11,3.169-1.461  c-0.205-1.308-0.296-1.915-0.296-1.915l-8.906,2.299c0,0,0.515,1.647,1.26,4.064C286.464,358.064,287.501,357.652,288.847,357.623z"
   id="path332" />
<path
   fill="#D84F25"
   d="M297.896,370.768c-1.835-2.502-3.281-8.685-4.173-13.43c-0.488,0.279-1.426,0.798-1.977,0.981  c-0.765,0.255-0.29,0.62-0.328,1.712c-0.036,1.057-1.42,1.821-1.42,1.821s1.639,0.327,1.639,2.077c0,1.785-0.987,1.89-0.987,1.89  s0.895,0.615,0.919,1.71c0.037,1.566-1.891,2.146-2.722,2.57c0.382,1.313,0.727,2.524,1.004,3.54  c0.919,3.372,1.437,6.608,4.884,4.884C298.185,376.8,301.057,375.077,297.896,370.768z"
   id="path334" />
<polygon
   fill="#D5DFED"
   points="281.885,347.771 264.928,257.424 275.486,262.452 287.66,347.979 "
   id="polygon336" />
<polygon
   fill="#DE9323"
   points="292.438,345.771 275.486,262.452 270.315,260.153 287.66,347.979 "
   id="polygon338" />
<path
   fill="#D8620D"
   d="M274.05,354.391c0.328-5.232,4.597-6.033,8.907-5.746c4.31,0.287,6.32-0.575,6.32-0.575  s3.403-3.754,7.757-3.16c6.32,0.861,4.884,6.033,0.287,6.32c-4.598,0.287-6.896,0.861-9.481,2.873  c-0.818,0.636-5.171-0.862-7.757,2.011C277.498,358.986,273.763,358.987,274.05,354.391z"
   id="path340" />
<line
   fill="none"
   stroke="#D8620D"
   stroke-miterlimit="10"
   x1="370.115"
   y1="142.608"
   x2="370.115"
   y2="135.282"
   id="line342" />
<line
   fill="none"
   stroke="#D8620D"
   stroke-miterlimit="10"
   x1="367.745"
   y1="138.083"
   x2="372.486"
   y2="138.083"
   id="line344" />
<g
   id="g346">
	<defs
   id="defs348"><path
     id="SVGID_4_"
     d="M369.67,144.728c-13.3,0-24.081,7.332-24.081,16.376c0,2.506,0.831,4.879,2.31,8.727h43.54    c1.479-3.848,2.311-6.221,2.311-8.727C393.75,152.06,382.969,144.728,369.67,144.728z" /></defs>
	<clipPath
   id="SVGID_121_">
		<use
   xlink:href="#SVGID_4_"
   overflow="visible"
   id="use352" />
	</clipPath>
	<g
   clip-path="url(#SVGID_121_)"
   id="g354">
		<path
   fill="none"
   stroke="#D84F25"
   stroke-width="6"
   d="M364.661,168.754c0,0-6.572-18.316-11.313-21.764"
   id="path356" />
		<path
   fill="none"
   stroke="#D8620D"
   stroke-width="3"
   d="M364.661,168.754c0,0-6.572-18.316-11.313-21.764"
   id="path358" />
		<path
   fill="none"
   stroke="#2D5DA5"
   stroke-width="3"
   stroke-linecap="round"
   stroke-dasharray="0,6"
   d="M364.661,168.754    c0,0-6.572-18.316-11.313-21.764"
   id="path360" />
	</g>
</g>
<g
   id="g362">
	<defs
   id="defs364"><path
     id="SVGID_3_"
     d="M369.67,144.728c-13.3,0-24.081,7.332-24.081,16.376c0,2.506,0.831,4.879,2.31,8.727h43.54    c1.479-3.848,2.311-6.221,2.311-8.727C393.75,152.06,382.969,144.728,369.67,144.728z" /></defs>
	<clipPath
   id="SVGID_125_">
		<use
   xlink:href="#SVGID_3_"
   overflow="visible"
   id="use368" />
	</clipPath>
	<g
   clip-path="url(#SVGID_125_)"
   id="g370">
		<line
   fill="none"
   stroke="#D84F25"
   stroke-width="6"
   x1="370.048"
   y1="168.754"
   x2="370.115"
   y2="144.732"
   id="line372" />
		<line
   fill="none"
   stroke="#D8620D"
   stroke-width="3"
   x1="370.048"
   y1="168.754"
   x2="370.115"
   y2="144.732"
   id="line374" />
		
			<line
   fill="none"
   stroke="#2D5DA5"
   stroke-width="3"
   stroke-linecap="round"
   stroke-dasharray="0,6"
   x1="370.048"
   y1="168.754"
   x2="370.115"
   y2="144.732"
   id="line376" />
	</g>
</g>
<g
   id="g378">
	<defs
   id="defs380"><path
     id="SVGID_2_"
     d="M369.67,144.728c-13.3,0-24.081,7.332-24.081,16.376c0,2.506,0.831,4.879,2.31,8.727h43.54    c1.479-3.848,2.311-6.221,2.311-8.727C393.75,152.06,382.969,144.728,369.67,144.728z" /></defs>
	<clipPath
   id="SVGID_129_">
		<use
   xlink:href="#SVGID_2_"
   overflow="visible"
   id="use384" />
	</clipPath>
	<g
   clip-path="url(#SVGID_129_)"
   id="g386">
		<path
   fill="none"
   stroke="#D84F25"
   stroke-width="6"
   d="M375.503,168.754c0,0,6.572-18.316,11.313-21.764"
   id="path388" />
		<path
   fill="none"
   stroke="#D8620D"
   stroke-width="3"
   d="M375.503,168.754c0,0,6.572-18.316,11.313-21.764"
   id="path390" />
		<path
   fill="none"
   stroke="#2D5DA5"
   stroke-width="3"
   stroke-linecap="round"
   stroke-dasharray="0,6"
   d="M375.503,168.754    c0,0,6.572-18.316,11.313-21.764"
   id="path392" />
	</g>
</g>
<path
   fill="#DE9323"
   d="M396.081,164.875c-1.148-1.724-3.232-0.162-3.232-0.162s1.438,1.06,0.432,2.065s-2.873,2.011-4.885,2.011  c-2.013,0-4.31-1.724-4.022-3.304c0.287-1.58,2.154-2.155,2.154-2.155s-1.599-2.226-2.783-0.61  c-1.006-1.868-3.394,0.754-3.394,0.754s1.724,0.431,1.437,2.011c-0.287,1.58-4.454,2.873-5.746,2.729  c-1.293-0.143-4.311,0.144-4.023-2.299c0.287-2.442,1.761-4.543,3.879-5.458c-0.718-0.97-2.928-0.916-3.95,0.27  c0.257-1.802-1.467-3.93-1.83-4.355l-0.001-0.081c0,0-0.015,0.016-0.035,0.039c-0.021-0.023-0.034-0.039-0.034-0.039l-0.002,0.081  c-0.363,0.425-2.087,2.553-1.83,4.355c-1.023-1.186-3.232-1.24-3.95-0.27c2.119,0.917,3.591,3.017,3.878,5.458  c0.287,2.442-2.729,2.155-4.022,2.299s-5.458-1.149-5.747-2.729c-0.288-1.581,1.437-2.011,1.437-2.011s-2.389-2.622-3.395-0.754  c-1.185-1.616-2.783,0.61-2.783,0.61s1.868,0.575,2.155,2.155c0.287,1.58-2.011,3.304-4.023,3.304s-3.878-1.005-4.884-2.011  s0.431-2.065,0.431-2.065s-2.083-1.563-3.232,0.162c-0.431-1.185-2.568-1.85-3.395-1.67c0.934,1.167,7.542,8.458,8.727,11.044  c0.881,1.921,2.64,6.177,2.64,6.177s6.249-1.329,10.505-1.383c1.709-0.021,5.026,0.031,6.866,0.065v0.025  c0,0,0.25-0.005,0.655-0.013c0.405,0.008,0.656,0.013,0.656,0.013l-0.001-0.025c1.84-0.034,5.157-0.086,6.867-0.065  c4.256,0.055,10.505,1.383,10.505,1.383s1.76-4.255,2.64-6.177c1.186-2.586,7.794-9.876,8.728-11.044  C398.648,163.025,396.512,163.69,396.081,164.875z"
   id="path394" />
<g
   id="g396">
	<defs
   id="defs398"><polygon
     id="SVGID_1_"
     points="348.729,173.066 352.055,180.425 388.108,180.425 391.434,173.066 369.67,170.371   " /></defs>
	<clipPath
   id="SVGID_134_">
		<use
   xlink:href="#SVGID_1_"
   overflow="visible"
   id="use402" />
	</clipPath>
	<g
   clip-path="url(#SVGID_134_)"
   id="g404">
		<path
   fill="none"
   stroke="#D8620D"
   stroke-width="6"
   d="M350.535,176.808c6.256-2.999,34.405-2.346,39.092,0"
   id="path406" />
		<path
   fill="none"
   stroke="#DE9323"
   stroke-width="3"
   d="M350.535,176.808c6.256-2.999,34.405-2.346,39.092,0"
   id="path408" />
		<g
   id="g410">
			
				<line
   fill="none"
   stroke="#D53439"
   stroke-width="4"
   stroke-linecap="round"
   x1="350.535"
   y1="176.808"
   x2="350.535"
   y2="176.808"
   id="line412" />
			<path
   fill="none"
   stroke="#D53439"
   stroke-width="4"
   stroke-linecap="round"
   stroke-dasharray="0,9.1575"
   d="M358.245,175.248     c8.516-0.811,20.982-0.477,27.574,0.581"
   id="path414" />
			
				<line
   fill="none"
   stroke="#D53439"
   stroke-width="4"
   stroke-linecap="round"
   x1="389.627"
   y1="176.808"
   x2="389.627"
   y2="176.808"
   id="line416" />
		</g>
	</g>
</g>
<polygon
   fill="#DE9323"
   points="282.993,183.406 279.438,185.992 285.255,190.194 288.703,187.123 "
   id="polygon418" />
<path
   fill="#FFFFFF"
   d="M356.791,236.881c0.258-5.327,1.171-10.011,1.171-10.011s7.877-1.078,12.524-0.867  c4.646,0.21,11.708,1.389,11.708,1.389s0.736,3.719,0.883,9.49L356.791,236.881L356.791,236.881z"
   id="path420" />
<circle
   fill="#D8620D"
   cx="369.875"
   cy="221.005"
   r="4.379"
   id="circle422" />
<path
   opacity="0.2"
   enable-background="new    "
   d="M357,230.387c0,0,5.564-3.259,12.7-3.267c7.135-0.008,13.528,2.536,13.528,2.536  l-0.401-2.257l-12.603-2.016l-12.719,1.347L357,230.387z"
   id="path424" />
<path
   fill="#D53439"
   d="M388.327,217.775c-3.161-5.603-11.492-1.868-11.205,1.293s-0.007,4.597-0.007,4.597l-7.067,0.287  l-7.068-0.287c0,0-0.294-1.437-0.007-4.597c0.287-3.16-8.044-6.896-11.205-1.293s4.31,5.028,4.454,8.222l0.329,1.123l13.498-1.123  l13.497,1.123l0.329-1.123C384.018,222.803,391.488,223.378,388.327,217.775z"
   id="path426" />
<ellipse
   fill="#D53439"
   cx="409.157"
   cy="253.007"
   rx="1.724"
   ry="6.356"
   id="ellipse428" />
<ellipse
   transform="matrix(0.7071 -0.7071 0.7071 0.7071 -59.2825 366.8286)"
   fill="#D53439"
   cx="413.143"
   cy="254.972"
   rx="6.357"
   ry="1.724"
   id="ellipse430" />
<ellipse
   fill="#D53439"
   cx="415.227"
   cy="258.071"
   rx="6.356"
   ry="1.724"
   id="ellipse432" />
<path
   fill="#FFFFFF"
   d="M416.269,260.656c0,0-31.461-14.222-33.185-24.134h-13.099h-0.046h-13.099  c-1.724,9.912-33.184,24.134-33.184,24.134l-7.111,43.312l5.171,2.802l0.215,13.791l4.956,2.154l0.216,12.498  c11.451,14.844,41.868,16.122,42.835,16.159v0.002c0,0,0.02-0.001,0.022-0.001c0.004,0,0.023,0.001,0.023,0.001v-0.002  c0.967-0.037,31.385-1.315,42.835-16.159l0.216-12.498l4.956-2.154l0.216-13.791l5.171-2.802L416.269,260.656z"
   id="path434" />
<path
   fill="#D53439"
   d="M403.741,259.006c-0.172,6.742-0.651,13.448-1.231,20.161c-0.298,3.355-0.615,6.709-1.006,10.063  l-0.576,5.033l-0.676,5.037c-0.234,1.683-0.477,3.366-0.741,5.064c-0.322,2.033-0.962,4.099-1.92,5.963  c-1.881,3.784-5.171,6.763-8.933,8.314c-1.894,0.759-3.906,1.171-5.91,1.194c-2.003,0.038-3.995-0.387-5.787-1.146  c-1.803-0.754-3.367-1.933-4.62-3.287c-1.246-1.374-2.16-2.95-2.773-4.584l0.743-0.437c2.161,2.531,4.929,4.254,7.775,4.662  c2.833,0.436,5.662-0.287,7.874-1.781c2.263-1.441,3.828-3.66,4.646-6.026c0.407-1.204,0.602-2.435,0.623-3.739l0.205-4.965  l0.147-5.001l0.178-5.012c0.095-3.344,0.234-6.689,0.376-10.036c0.296-6.689,0.631-13.39,1.216-20.058L403.741,259.006z"
   id="path436" />
<polygon
   opacity="0.2"
   enable-background="new    "
   points="406.356,311.726 405.063,289.746 408.08,311.005 "
   id="polygon438" />
<path
   opacity="0.2"
   enable-background="new    "
   d="M404.201,288.885l-5.655,56.412c5.601-2.35,10.809-5.592,14.274-10.084  l-9.696-7.973L404.201,288.885z"
   id="path440" />
<path
   opacity="0.2"
   enable-background="new    "
   d="M369.939,236.522c0,0,5.603,26.935,36.417,25.427l0.215-2.155L369.939,236.522z"
   id="path442" />
<polygon
   fill="#D53439"
   points="406.356,258.933 404.201,289.746 416.915,290.824 411.097,259.579 "
   id="polygon444" />
<path
   fill="#D53439"
   d="M411.097,259.579l5.172,1.077l7.11,43.312c0,0-6.896-0.646-11.205-2.37c-4.31-1.724-6.896-5.171-6.896-5.171  l11.637-5.603L411.097,259.579z"
   id="path446" />
<polygon
   opacity="0.2"
   enable-background="new    "
   points="420.003,293.948 411.097,259.579 416.915,290.824 405.278,296.427 "
   id="polygon448" />
<path
   fill="#D53439"
   d="M406.356,311.726l11.852-4.956l-0.216,13.791C417.992,320.561,409.157,317.112,406.356,311.726z"
   id="path450" />
<polygon
   opacity="0.2"
   enable-background="new    "
   points="418.208,306.77 406.356,311.726 418.208,310.289 "
   id="polygon452" />
<path
   fill="#D53439"
   d="M403.124,328.103l9.912-5.388l-0.216,12.498C412.82,335.213,405.71,333.273,403.124,328.103z"
   id="path454" />
<polygon
   opacity="0.2"
   enable-background="new    "
   points="413.036,322.715 403.124,328.103 413.036,325.857 "
   id="polygon456" />
<path
   fill="#D8620D"
   d="M418.23,259.364c1.136,0.178,2.2,0.396,3.284,0.688c1.073,0.301,2.146,0.669,3.177,1.197  c1.037,0.515,2.031,1.2,2.924,2.071c0.885,0.877,1.657,1.94,2.276,3.127l0.094,0.18c0.493,0.946,0.126,2.113-0.82,2.606  s-2.113,0.127-2.606-0.82c-0.174-0.333-0.24-0.702-0.213-1.051c0.075-0.914-0.082-1.856-0.502-2.718  c-0.407-0.87-1.063-1.651-1.852-2.306c-0.797-0.645-1.728-1.165-2.722-1.523c-0.984-0.36-2.059-0.597-3.088-0.592h-0.017  c-0.238,0.001-0.434-0.191-0.436-0.431c-0.001-0.239,0.191-0.435,0.432-0.436C418.185,259.359,418.209,259.361,418.23,259.364z"
   id="path458" />
<path
   fill="#D8620D"
   d="M418.255,260.231c1.616,0.293,2.831,1.223,3.904,2.29c1.037,1.097,1.877,2.371,2.526,3.722  c0.647,1.352,1.154,2.763,1.569,4.191c0.4,1.433,0.747,2.881,1.008,4.342l0.005,0.031c0.213,1.188-0.577,2.324-1.765,2.537  s-2.323-0.578-2.537-1.765c-0.035-0.197-0.041-0.405-0.024-0.597c0.26-2.677,0.271-5.4-0.341-7.979  c-0.312-1.279-0.744-2.55-1.483-3.631c-0.359-0.545-0.788-1.046-1.298-1.447c-0.486-0.404-1.113-0.736-1.661-0.836l-0.058-0.01  c-0.233-0.043-0.389-0.267-0.347-0.5C417.797,260.346,418.021,260.189,418.255,260.231z"
   id="path460" />
<rect
   x="351.516"
   y="266.905"
   fill="#D53439"
   width="37.063"
   height="42.342"
   id="rect462" />
<polygon
   fill="#FFFFFF"
   points="387.777,282.51 373.964,282.51 373.964,267.821 366.13,267.821 366.13,282.51 352.316,282.51   352.316,290.344 366.13,290.344 366.13,308.331 373.964,308.331 373.964,290.344 387.777,290.344 "
   id="polygon464" />
<path
   fill="#D53439"
   d="M369.939,236.522h13.145c4.31,10.559,18.101,13.791,24.996,17.239s8.188,6.895,8.188,6.895  s-19.824,0.216-27.366-2.801C381.36,254.838,372.525,246.65,369.939,236.522z"
   id="path466" />
<path
   d="M373.172,236.522c0.583,1.561,1.341,3.044,2.214,4.449c0.856,1.415,1.825,2.758,2.894,4.011  c2.129,2.513,4.605,4.728,7.378,6.5c2.732,1.834,5.752,3.215,8.872,4.292c1.562,0.541,3.158,0.985,4.775,1.354  c1.611,0.396,3.25,0.679,4.896,0.943c-1.667-0.069-3.326-0.27-4.979-0.529c-1.647-0.287-3.283-0.664-4.894-1.135  c-3.216-0.963-6.305-2.381-9.143-4.203c-2.799-1.875-5.352-4.145-7.418-6.806C375.718,242.739,374.026,239.757,373.172,236.522z"
   id="path468" />
<polyline
   fill="none"
   stroke="#FFFFFF"
   stroke-width="2"
   stroke-miterlimit="10"
   points="383.3,271.861 379.421,271.861   379.421,278.003 383.3,278.003 "
   id="polyline470" />
<polyline
   fill="none"
   stroke="#FFFFFF"
   stroke-width="2"
   stroke-miterlimit="10"
   points="383.3,296.427 379.421,296.427   379.421,302.567 383.3,302.567 "
   id="polyline472" />
<path
   fill="#D53439"
   d="M377.912,265.72c-0.215-3.555,6.791-6.026,3.664-9.912s-10.774-2.37-11.637,0.539v9.374H377.912z"
   id="path474" />
<path
   fill="#FFFFFF"
   d="M369.939,261.303c6.221,0,6.896,3.232,6.896,3.232h-6.896V261.303z"
   id="path476" />
<line
   fill="none"
   stroke="#DE9323"
   stroke-miterlimit="10"
   x1="369.939"
   y1="253.977"
   x2="369.939"
   y2="248.591"
   id="line478" />
<line
   fill="none"
   stroke="#DE9323"
   stroke-miterlimit="10"
   x1="368.323"
   y1="250.422"
   x2="371.771"
   y2="250.422"
   id="line480" />
<line
   fill="none"
   stroke="#D8620D"
   stroke-miterlimit="10"
   x1="385.777"
   y1="235.661"
   x2="354.065"
   y2="235.661"
   id="line482" />
<circle
   fill="#D8620D"
   cx="369.939"
   cy="254.838"
   r="1.293"
   id="circle484" />
<ellipse
   fill="#D53439"
   cx="330.768"
   cy="253.007"
   rx="1.724"
   ry="6.356"
   id="ellipse486" />
<ellipse
   transform="matrix(0.7071 0.7071 -0.7071 0.7071 276.0171 -156.3914)"
   fill="#D53439"
   cx="326.782"
   cy="254.974"
   rx="6.357"
   ry="1.724"
   id="ellipse488" />
<ellipse
   fill="#D53439"
   cx="324.698"
   cy="258.071"
   rx="6.357"
   ry="1.724"
   id="ellipse490" />
<path
   fill="#D53439"
   d="M346.573,258.428c0.585,6.667,0.92,13.369,1.216,20.058c0.142,3.346,0.281,6.691,0.376,10.036l0.178,5.012  l0.147,5.002l0.206,4.963c0.021,1.306,0.215,2.536,0.623,3.74c0.817,2.366,2.382,4.585,4.645,6.025  c2.211,1.494,5.042,2.218,7.875,1.782c2.847-0.409,5.615-2.132,7.776-4.662l0.742,0.436c-0.613,1.634-1.527,3.211-2.773,4.585  c-1.253,1.354-2.817,2.532-4.62,3.287c-1.792,0.759-3.784,1.184-5.787,1.145c-2.004-0.022-4.017-0.435-5.91-1.193  c-3.762-1.553-7.052-4.53-8.933-8.314c-0.958-1.865-1.598-3.93-1.92-5.964c-0.264-1.697-0.506-3.381-0.741-5.063l-0.676-5.037  l-0.577-5.034c-0.39-3.353-0.708-6.707-1.006-10.063c-0.579-6.713-1.06-13.417-1.231-20.161L346.573,258.428z"
   id="path492" />
<polygon
   opacity="0.2"
   enable-background="new    "
   points="333.569,311.726 334.862,289.746 331.845,311.005 "
   id="polygon494" />
<path
   opacity="0.2"
   enable-background="new    "
   d="M335.724,288.885l5.655,56.412c-5.601-2.35-10.809-5.592-14.274-10.084  l9.697-7.973L335.724,288.885z"
   id="path496" />
<path
   opacity="0.2"
   enable-background="new    "
   d="M369.985,236.522c0,0-5.603,26.935-36.417,25.427l-0.215-2.155L369.985,236.522z  "
   id="path498" />
<polygon
   fill="#D53439"
   points="333.569,258.933 335.724,289.746 323.01,290.824 328.828,259.579 "
   id="polygon500" />
<path
   fill="#D53439"
   d="M328.828,259.579l-5.171,1.077l-7.111,43.312c0,0,6.896-0.646,11.205-2.37  c4.31-1.724,6.896-5.171,6.896-5.171l-11.636-5.603L328.828,259.579z"
   id="path502" />
<polygon
   opacity="0.2"
   enable-background="new    "
   points="319.921,293.948 328.828,259.579 323.01,290.824 334.646,296.427 "
   id="polygon504" />
<path
   fill="#D53439"
   d="M333.569,311.726l-11.852-4.956l0.215,13.791C321.933,320.561,330.768,317.112,333.569,311.726z"
   id="path506" />
<polygon
   opacity="0.2"
   enable-background="new    "
   points="321.717,306.77 333.569,311.726 321.717,310.289 "
   id="polygon508" />
<path
   fill="#D53439"
   d="M336.801,328.103l-9.913-5.388l0.216,12.498C327.104,335.213,334.215,333.273,336.801,328.103z"
   id="path510" />
<polygon
   opacity="0.2"
   enable-background="new    "
   points="326.889,322.715 336.801,328.103 326.889,325.857 "
   id="polygon512" />
<path
   fill="#D8620D"
   d="M321.742,260.225c-1.029-0.005-2.104,0.232-3.088,0.592c-0.994,0.358-1.923,0.878-2.721,1.523  c-0.79,0.654-1.445,1.435-1.851,2.306c-0.421,0.862-0.578,1.804-0.503,2.718c0.087,1.063-0.704,1.996-1.768,2.083  c-1.064,0.087-1.997-0.705-2.083-1.768c-0.031-0.375,0.047-0.734,0.208-1.045l0.098-0.187c0.62-1.187,1.392-2.251,2.276-3.127  c0.893-0.871,1.887-1.556,2.924-2.071c1.031-0.528,2.103-0.897,3.176-1.197c1.084-0.292,2.149-0.51,3.284-0.688  c0.236-0.037,0.458,0.125,0.494,0.36c0.038,0.235-0.125,0.458-0.36,0.495c-0.022,0.003-0.045,0.005-0.067,0.005H321.742z"
   id="path514" />
<path
   fill="#D8620D"
   d="M321.765,261.088c-0.546,0.099-1.173,0.433-1.661,0.835c-0.509,0.401-0.938,0.902-1.298,1.448  c-0.738,1.082-1.171,2.352-1.483,3.63c-0.611,2.58-0.601,5.302-0.342,7.979c0.117,1.202-0.763,2.269-1.964,2.385  c-1.201,0.117-2.269-0.763-2.386-1.964c-0.019-0.2-0.011-0.396,0.021-0.586l0.008-0.042c0.262-1.46,0.609-2.909,1.009-4.341  c0.415-1.429,0.921-2.839,1.568-4.191c0.648-1.351,1.489-2.625,2.526-3.723c1.074-1.066,2.288-1.997,3.905-2.29  c0.234-0.042,0.457,0.113,0.5,0.347c0.042,0.233-0.113,0.457-0.346,0.5L321.765,261.088z"
   id="path516" />
<path
   fill="#D53439"
   d="M369.985,236.522h-13.145c-4.31,10.559-18.101,13.791-24.996,17.239c-6.895,3.448-8.188,6.895-8.188,6.895  s19.824,0.216,27.366-2.801C358.564,254.838,367.399,246.65,369.985,236.522z"
   id="path518" />
<path
   d="M366.753,236.522c-0.854,3.235-2.546,6.217-4.596,8.875c-2.066,2.661-4.619,4.932-7.418,6.806  c-2.837,1.822-5.926,3.24-9.142,4.203c-1.611,0.473-3.247,0.849-4.894,1.136c-1.653,0.259-3.313,0.459-4.979,0.529  c1.646-0.264,3.285-0.546,4.896-0.943c1.616-0.368,3.213-0.813,4.775-1.354c3.12-1.077,6.14-2.458,8.873-4.292  c2.772-1.772,5.248-3.987,7.377-6.5c1.068-1.254,2.037-2.597,2.894-4.011C365.412,239.566,366.17,238.083,366.753,236.522z"
   id="path520" />
<polyline
   fill="none"
   stroke="#FFFFFF"
   stroke-width="2"
   stroke-miterlimit="10"
   points="356.625,271.861 360.504,271.861   360.504,278.003 356.625,278.003 "
   id="polyline522" />
<polyline
   fill="none"
   stroke="#FFFFFF"
   stroke-width="2"
   stroke-miterlimit="10"
   points="356.625,296.427 360.504,296.427   360.504,302.567 356.625,302.567 "
   id="polyline524" />
<path
   fill="#D53439"
   d="M362.012,265.72c0.216-3.555-6.79-6.026-3.663-9.912s10.774-2.37,11.636,0.539v9.374H362.012z"
   id="path526" />
<path
   fill="#FFFFFF"
   d="M369.985,261.303c-6.221,0-6.896,3.232-6.896,3.232h6.896V261.303z"
   id="path528" />
<polyline
   opacity="0.5"
   fill="none"
   stroke="#000000"
   stroke-width="0.25"
   stroke-miterlimit="10"
   enable-background="new    "
   points="  379.982,342.063 379.293,344.647 378.604,342.063 "
   id="polyline530" />
<polyline
   opacity="0.5"
   fill="none"
   stroke="#000000"
   stroke-width="0.25"
   stroke-miterlimit="10"
   enable-background="new    "
   points="  384.932,328.964 384.242,331.55 383.554,328.964 "
   id="polyline532" />
<polyline
   opacity="0.5"
   fill="none"
   stroke="#000000"
   stroke-width="0.25"
   stroke-miterlimit="10"
   enable-background="new    "
   points="  353.696,328.964 353.006,331.55 352.316,328.964 "
   id="polyline534" />
<polyline
   opacity="0.5"
   fill="none"
   stroke="#000000"
   stroke-width="0.25"
   stroke-miterlimit="10"
   enable-background="new    "
   points="  395.582,336.227 394.893,338.813 394.203,336.227 "
   id="polyline536" />
<polyline
   opacity="0.5"
   fill="none"
   stroke="#000000"
   stroke-width="0.25"
   stroke-miterlimit="10"
   enable-background="new    "
   points="  344.842,336.227 344.153,338.813 343.464,336.227 "
   id="polyline538" />
<polyline
   opacity="0.5"
   fill="none"
   stroke="#000000"
   stroke-width="0.25"
   stroke-miterlimit="10"
   enable-background="new    "
   points="  396.96,321.422 396.271,324.008 395.582,321.422 "
   id="polyline540" />
<polyline
   opacity="0.5"
   fill="none"
   stroke="#000000"
   stroke-width="0.25"
   stroke-miterlimit="10"
   enable-background="new    "
   points="  344.153,321.422 343.464,324.008 342.774,321.422 "
   id="polyline542" />
<polyline
   opacity="0.5"
   fill="none"
   stroke="#000000"
   stroke-width="0.25"
   stroke-miterlimit="10"
   enable-background="new    "
   points="  361.367,342.063 360.677,344.647 359.988,342.063 "
   id="polyline544" />
<polygon
   fill="#D53439"
   points="379.874,322.599 370.986,326.539 374.926,317.651 364.953,317.651 368.894,326.539 360.005,322.599   360.005,332.572 368.893,328.633 364.953,337.52 374.926,337.52 370.986,328.633 379.874,332.572 "
   id="polygon546" />
<path
   fill="#DE9323"
   d="M379.443,323.229l-8.457,3.31l0,0l0,0l3.547-9.063l0.394,0.605h-9.973l0.394-0.605l3.546,9.063l0,0l0,0  l-9.063-3.546l0.606-0.395v9.973l-0.606-0.394l9.063-3.545l0,0l0,0l-3.545,9.061l-0.394-0.605h9.973l-0.394,0.605l-3.546-9.061l0,0  l0,0l9.062,3.545l-0.605,0.394L379.443,323.229L379.443,323.229z M380.305,321.904v10.668v0.695l-0.605-0.302l-8.713-4.333l0,0  l4.333,8.713l0.302,0.605h-0.695h-9.973h-0.695l0.302-0.605l4.333-8.713l0,0l-8.713,4.333l-0.606,0.302v-0.695V322.6v-0.695  l0.606,0.302l8.713,4.333l0,0l-4.333-8.712l-0.302-0.606h0.695h9.973h0.695l-0.302,0.606l-4.333,8.712l0,0L380.305,321.904z"
   id="path548" />
<path
   fill="none"
   stroke="#D8620D"
   stroke-miterlimit="10"
   d="M355.646,227.4c5.458-2.011,23.302-1.724,28.459,0"
   id="path550" />
<line
   fill="none"
   stroke="#D8620D"
   stroke-miterlimit="10"
   x1="369.875"
   y1="216.626"
   x2="369.875"
   y2="209.299"
   id="line552" />
<line
   fill="none"
   stroke="#D8620D"
   stroke-miterlimit="10"
   x1="367.505"
   y1="212.101"
   x2="372.245"
   y2="212.101"
   id="line554" />
</svg>