<?xml version="1.0" encoding="utf-8"?>
<!-- Generator: Adobe Illustrator 16.0.0, SVG Export Plug-In . SVG Version: 6.00 Build 0)  -->
<!DOCTYPE svg PUBLIC "-//W3C//DTD SVG 1.1//EN" "http://www.w3.org/Graphics/SVG/1.1/DTD/svg11.dtd">
<svg version="1.1" id="Layer_1" xmlns="http://www.w3.org/2000/svg" xmlns:xlink="http://www.w3.org/1999/xlink" x="0px" y="0px"
	 width="600px" height="600px" viewBox="0 0 600 600" enable-background="new 0 0 600 600" xml:space="preserve">
<g>
	<rect x="-1" y="-1" fill="#FFFFFF" width="301" height="301"/>
	<rect x="-1" y="300" fill="#A8432F" width="301" height="301"/>
	<rect x="300" y="-1" fill="#FFFFFF" width="301" height="301"/>
	<rect x="300" y="300" fill="#FFFFFF" width="301" height="301"/>
	<rect x="300" y="144" fill="#4368A3" width="301" height="55"/>
	<rect x="300" y="44" fill="#4368A3" width="301" height="55"/>
	<rect x="300" y="244" fill="#4368A3" width="301" height="55"/>
	<g>
		<path fill="#CE9736" stroke="#282828" stroke-miterlimit="10" d="M364.5,353.105l3-11.363c0,0,5.165,4.258,2.5,13.758
			L364.5,353.105z"/>
		<path fill="#CE9736" stroke="#282828" stroke-miterlimit="10" d="M339.831,352.629l-8.143-8.475c0,0,6.324-2.196,13.049,5.022
			L339.831,352.629z"/>
		<path fill="#CE9736" stroke="#282828" stroke-miterlimit="10" d="M333.633,384.402l-8.445,8.174c0,0-2.219-6.316,4.977-13.067
			L333.633,384.402z"/>
		<path fill="#CE9736" stroke="#282828" stroke-miterlimit="10" d="M350.52,394.438l-10.82,4.588c0,0,4.95,4.508,13.975,0.516
			L350.52,394.438z"/>
		<path fill="#CE9736" stroke="#282828" stroke-miterlimit="10" d="M344.406,442.309l-7.969-8.638c0,0,6.367-2.067,12.945,5.287
			L344.406,442.309z"/>
		<path fill="#CE9736" stroke="#282828" stroke-miterlimit="10" d="M330.744,462.853l-11.522,2.313c0,0,1.548-6.514,11.25-8.304
			L330.744,462.853z"/>
		<path fill="#CE9736" stroke="#282828" stroke-miterlimit="10" d="M354.203,485.16l2.354,11.516c0,0-6.52-1.523-8.344-11.221
			L354.203,485.16z"/>
		<path fill="#CE9736" stroke="#282828" stroke-miterlimit="10" d="M371.744,476.315l-1.948,11.591c0,0,6.462-1.751,7.945-11.507
			L371.744,476.315z"/>
		<path fill="#CE9736" stroke="#282828" stroke-miterlimit="10" d="M397.459,507.502l-10.556-5.167c0,0,5.188-4.231,13.98,0.243
			L397.459,507.502z"/>
		<path fill="#CE9736" stroke="#282828" stroke-miterlimit="10" d="M392.16,531.598l-9.904,6.326c0,0-0.916-6.632,7.48-11.813
			L392.16,531.598z"/>
		<path fill="#CE9736" stroke="#282828" stroke-miterlimit="10" d="M422.104,543.9l6.361,9.884c0,0-6.629,0.938-11.839-7.439
			L422.104,543.9z"/>
		<path fill="#CE9736" stroke="#282828" stroke-miterlimit="10" d="M439.459,526.771l3.725,11.146c0,0-6.655-0.727-9.636-10.132
			L439.459,526.771z"/>
		<path fill="#CE9736" stroke="#282828" stroke-miterlimit="10" d="M538.306,568.332l0.577,11.737c0,0-6.213-2.496-6.543-12.356
			L538.306,568.332z"/>
		<path fill="#CE9736" stroke="#282828" stroke-miterlimit="10" d="M525.16,552.598l-9.904,6.326c0,0-0.916-6.632,7.48-11.813
			L525.16,552.598z"/>
		<path fill="#CE9736" stroke="#282828" stroke-miterlimit="10" d="M560.104,532.9l6.361,9.884c0,0-6.629,0.938-11.839-7.439
			L560.104,532.9z"/>
		<path fill="#CE9736" stroke="#282828" stroke-miterlimit="10" d="M559.104,559.9l6.361,9.884c0,0-6.629,0.938-11.839-7.439
			L559.104,559.9z"/>
		<path fill="#CE9736" stroke="#282828" stroke-miterlimit="10" d="M441.282,377.501c0,0-28.123,4.332-57.87-8.501
			c0,0,5.338,12.668,58.713,16.001L441.282,377.501z"/>
		<path fill="#A8432F" stroke="#282828" stroke-miterlimit="10" d="M492.334,480.006c0,0-19.168,9.995-21.168,22.331
			s-9.464,26.345-28.647,25.177c0,0-2.249,10.873-9.884,0.854c0,0-6.693-2.045-8.914,4.134s7.787,11.302-0.884,13.99
			c-8.671,2.688-15.083-3.679-9.21-14.828c0,0-2.806-3.402-6.189-0.13c-3.384,3.271-9.979,8.229-17.125,0.104
			c-7.146-8.125-2.119-14.658,5.201-12.642c7.318,2.017,9.57,2.601,11.361-0.691c1.79-3.292-4.146-6.002-7.012-6.313
			c-2.865-0.312-12.814-4.828-0.673-10.653s14.727,7.337,19.185,9.173c4.457,1.836,22.209,3.318,23.75-13.59
			s23.559-30.596,44.8-31.252C486.925,465.668,502.334,469.666,492.334,480.006z"/>
		<path fill="#A8432F" stroke="#282828" stroke-miterlimit="10" d="M499.334,484.334c0,0-9.484,1.334-12.409-8.333
			c0,0-3.759-8-9.425-6c0,0,0.594-6.166,7.797-4.333C485.297,465.668,505.166,473.667,499.334,484.334z"/>
		<path fill="#A8432F" stroke="#282828" stroke-miterlimit="10" d="M403.022,418.162c0,0,3.386,11.412-5.079,17.75
			c-8.467,6.338-26.85,3.662-29.752-17.75c0,0-6.047-19.037-12.82-17.1c-6.771,1.938-11.368-4.313-4.354-9.188
			c0,0,0-9.375-7.499-7.625c-7.498,1.75-7.74,10-12.819,1c-5.08-9,3.388-14,13.063-11.25c0,0,3.145-4.25-2.419-6.75
			c-5.564-2.5-8.708-11.881,0.726-19.19c9.435-7.309,10.884,5.941,10.401,10.941c-0.484,5,5.079,8.5,6.531,2.75
			c1.45-5.75,1.691-17.262,9.19-10.631c7.498,6.631,3.741,15.012-1.758,21.57c-5.499,6.56,4.418,10.311,9.014,10.311
			C380.043,383,403.022,418.162,403.022,418.162z"/>
		<path fill="#A8432F" stroke="#282828" stroke-miterlimit="10" d="M577.75,434.25c0,0-24.75-4-32,14.75c0,0-13.25-6.715-6.5-15.107
			c6.75-8.392,28.25,4.357,30.5-16.893c0,0-29-6.5-41,10c0,0-14,2.25-6.25-10s39.75,9.5,51-30.5c0,0-34.75,27.25-41,8
			s52.5-2.25,40.75-55.5c0,0-4.5,24.5-21.75,26.5s2-53.25-49.75-24.75c0,0-8.25,1.059-10.5-6.971c-2.25-8.03-17.75-9.279-22.5-2.279
			c0,0,7.339-0.5,8.92,5.5c1.58,6,5.83,17,12.08,15c0,0,4-2.75,0,3.5s-13.161,18.25-12.08,25.75c1.08,7.5,4.33,24.75-4.42,28
			s-9,12-1,14c0,0-1.5-8.5,7.75-9.75s10.5-5.25,9.5-20.75s0-26.25,8-32.75c0,0,5,1.5,2.5,9.5s0,16.5,7.75,15.75
			c0,0,4.25-9.25,0.5-20s4.75-21,16-17.25s17.25,15,4.5,27.25S486.5,408,510,436.25s38.25,22.25,31.25,40
			c-6.454,16.365-13.546-11.047-29.699-7.979c-0.853-3.685,5.313-14.482-9.385-15.321c-16.666-0.951-21.5-30.954-55.832-26.287
			c0,0,1.29-5.788-2.46-7.663c0,0-4-5.75,3.625-7.625s1.125,3.625,9,2.75c0,0,2.625-6-0.875-7.75s-3.625-3.25-1.875-5.625
			c0,0,0.375,1.375,3.375,0.25c0,0-3-4.5-0.75-8.625s4.875-9.25,3.5-16c0,0,7.292-2.708,5.292-12.208c0,0-8.001,1.333-8.667-11.667
			c0,0-4.25-31.25-36-13c0,0-15.75-6-18,8.75c0,0-11,14.75,3,19s20-9.75,23,0s15.5,9.25,8.75,17s-35.5-6.5-35.25,5.75
			s23-0.75,8.5,14s-23.25,31.5-13.75,49.25l4,6c0,0,15.034,5.75,23.894,0c8.856-5.75,66.856-3,74.606,30.5
			c0,0-2.75,39.5,37.501,38.25c0,0,8.75,9-5.5,17.5c0,0-9.75-3-12.25,4.5c0,0-2.334,5.504,3,5.837s11.666-5.833,13.334,0
			c1.666,5.833-10.002,3.334-6.334,12c3.666,8.666,11.666,2,11.834-1c0.166-3,5-10.334,9.332-3.834
			c4.334,6.5,10.168,3.834,11.5,1.834c1.334-2,1.668-9.333-8.832-10.5c0,0-4.334-4.334,1.166-13.334c0,0,6.505,2.834,8.336-5.166
			c1.83-8-8.502-6.168-6.002-14.334s1.5-17.332-10.168-15.166c-11.395,2.115-28.182-6.9-25.699-23.158
			c4.891,3.22,16.049,10.001,24.033,10.571c10.5,0.75,23.5,5,24.75,13.75c0,0,5.5-5-1.75-14.25s-25.25-5-11.75-13.5
			s18-6.25,19.5-20.5c0,0-21.75,9.25-18.5-2.5S579,446.5,577.75,434.25z"/>
		<path fill="#DDD4D3" d="M436.58,353.105c0,0-7.218-0.164-7.874-5.741c-0.655-5.577,2.789-5.085,5.906-2.462
			C437.729,347.527,437.565,349.333,436.58,353.105z"/>
		<path fill="#282828" d="M434.038,344.822c0-0.133-0.014-0.26-0.02-0.391c-2.942-2.19-5.927-2.293-5.313,2.932
			c0.201,1.712,1.021,2.912,2.062,3.756C432.743,349.723,434.038,347.426,434.038,344.822z"/>
		<path fill="none" stroke="#282828" stroke-miterlimit="10" d="M436.58,353.105c0,0-7.218-0.164-7.874-5.741
			c-0.655-5.577,2.789-5.085,5.906-2.462C437.729,347.527,437.565,349.333,436.58,353.105z"/>
		<path fill="none" stroke="#282828" stroke-miterlimit="10" d="M411.166,348.833c0,0,1.834-3.867,5.5-1.767"/>
		<path fill="none" stroke="#282828" stroke-miterlimit="10" d="M430.415,343.032c0,0,7.585-3.532,8.585,1.093
			s-1.125,10.75,1.875,12.875"/>
		<path fill="none" stroke="#282828" stroke-miterlimit="10" d="M459.875,376.375c0,0-6.75,0.5-9-7.375"/>
		<path fill="none" stroke="#282828" stroke-miterlimit="10" d="M453.75,400.75c0,0,0-7.625-6.5-8.875"/>
		<path fill="none" stroke="#282828" stroke-miterlimit="10" d="M439.5,394.125c0,0,8.75,6.25,9.375,13.875"/>
		<path fill="none" stroke="#282828" stroke-miterlimit="10" d="M442.125,409.25c0,0-0.875-9-7.25-9.75"/>
		<path fill="none" stroke="#282828" stroke-miterlimit="10" d="M440.875,420.75c0,0-7,0.625-8.75-7.625"/>
		<path fill="none" stroke="#282828" stroke-miterlimit="10" d="M413.25,394.125c0,0,7.875-0.625,3.125,6.938"/>
		<path fill="none" stroke="#282828" stroke-miterlimit="10" d="M502.165,492.504c0,0,3.739,8.297,15.001,8.833"/>
		<path fill="none" stroke="#282828" stroke-miterlimit="10" d="M504.831,502.337c0,0,2.169,6.667,15.335,7.167"/>
		<path fill="none" stroke="#282828" stroke-miterlimit="10" d="M508.998,512.337c0,0,2.168,7,15.5,4.5"/>
		<path fill="none" stroke="#282828" stroke-miterlimit="10" d="M552,515.875c0,0,1.25-5.75-4.125-4.875"/>
		<path fill="none" stroke="#282828" stroke-miterlimit="10" d="M554,541.003c0,0-4.125-2.378-4-8.503"/>
		<path fill="none" stroke="#282828" stroke-miterlimit="10" d="M513.834,418.162c0,0-0.5-8.667,17-12.167"/>
		<path fill="none" stroke="#282828" stroke-miterlimit="10" d="M509.334,413.125c0,0,2.498-15.203,15.332-19"/>
		<path fill="none" stroke="#282828" stroke-miterlimit="10" d="M547.834,371.328c0,0-35.834,14.677-40.169,36.672"/>
		<path fill="none" stroke="#282828" stroke-miterlimit="10" d="M540.834,424.162c0,0-15.524,7.467-7.669,23.5"/>
		<path fill="none" stroke="#282828" stroke-miterlimit="10" d="M562.166,442.668c0,0-12.832,0.333-10.166,23"/>
		<path fill="none" stroke="#282828" stroke-miterlimit="10" d="M570.666,464.668c0,0-6.305,7.006-12.666,1"/>
		<path fill="#A8432F" d="M418.895,445.601c0,0,11.428,3.333,12.17,13.884c0.743,10.549-11.462,24.554-31.034,15.396
			c0,0-19.277-5.227-21.316,1.518c-2.039,6.743-9.782,7.222-10.082-1.315c0,0-7.881-5.076-10.472,2.174
			c-2.59,7.252,4.216,11.923-6.103,11.318c-10.316-0.604-9.936-10.429-2.384-17.073c0,0-1.869-4.944-6.983-1.621
			c-5.114,3.322-14.704,0.886-15.739-11.004c-1.037-11.889,10.889-5.932,14.83-2.819c3.94,3.115,9.896,0.335,5.85-4
			c-4.049-4.333-13.596-10.771-3.96-13.483c9.636-2.712,14.646,4.984,17.183,13.16c2.537,8.175,11.06,1.868,13.549-1.995
			C376.891,445.874,418.895,445.601,418.895,445.601z"/>
		<path fill="none" stroke="#282828" stroke-miterlimit="10" d="M429.953,454.902c0.59,1.348,0.99,2.869,1.11,4.581
			c0.743,10.549-11.462,24.554-31.034,15.396c0,0-19.277-5.227-21.316,1.518c-2.039,6.743-9.782,7.222-10.082-1.315
			c0,0-7.881-5.076-10.472,2.174c-2.59,7.252,4.216,11.923-6.103,11.318c-10.316-0.604-9.936-10.43-2.384-17.073
			c0,0-1.869-4.944-6.983-1.621c-5.114,3.322-14.704,0.886-15.739-11.004c-1.037-11.889,10.889-5.932,14.83-2.819
			c3.94,3.115,9.896,0.335,5.85-4c-4.049-4.333-13.596-10.771-3.96-13.483c9.636-2.712,14.646,4.984,17.183,13.16
			c2.537,8.175,11.06,1.868,13.549-1.995c1.296-2.013,13.309-3.05,24.522-3.583"/>
		<path fill="none" stroke="#282828" stroke-miterlimit="10" d="M396.625,442.125c0,0,1.5,4.75,4.125,5.375c0,0-1.625-4.75,0-7.75
			c0,0,1.25,2.625,5,2.75c0,0-3.25-5.875-1.25-10.25c0,0,5,7.875,12.625,10.125"/>
		<path fill="none" stroke="#282828" stroke-miterlimit="10" d="M411.875,427.75c0,0,2,10.59,13,11.17"/>
		<path fill="none" stroke="#282828" stroke-miterlimit="10" d="M420.875,424.5c0,0-0.875,9,7.75,11"/>
		<path fill="none" stroke="#282828" stroke-miterlimit="10" d="M428.625,423.375c0,0,4.727,8.142,13.5,5.5"/>
		<path fill="none" stroke="#282828" stroke-miterlimit="10" d="M424,457.5c0,0-0.416,13.333-12.125,14.833"/>
		<path fill="none" stroke="#282828" stroke-miterlimit="10" d="M411.875,466.333c0,0-0.541,5.833-8.875,1.5"/>
		<path fill="none" stroke="#282828" stroke-miterlimit="10" d="M398.665,464.916c0,0-5.831-0.481-10.831,2.968"/>
		<path fill="none" stroke="#282828" stroke-miterlimit="10" d="M387.834,430c0,0-10.5,3.157-13-5.838"/>
		<path fill="none" stroke="#282828" stroke-miterlimit="10" d="M386.753,423.375c0,0-8.419-1.708-11.919-15.375"/>
		<path fill="none" stroke="#282828" stroke-miterlimit="10" d="M387.834,426.389c0,0-6.017,2.445-8.843-4.222"/>
		<path fill="none" stroke="#282828" stroke-miterlimit="10" d="M470.875,474.862c0,0,7.375,1.513,8.25,8.763"/>
		<path fill="none" stroke="#282828" stroke-miterlimit="10" d="M462.625,479.75c0,0,8.375,1,10.875,9.875"/>
		<path fill="none" stroke="#282828" stroke-miterlimit="10" d="M455.25,487.5c0,0,12.375,2.625,12.813,12.375"/>
		<path fill="none" stroke="#282828" stroke-miterlimit="10" d="M463.75,512.337c0,0-6.875,9.788-18.375,9.663"/>
		<path fill="#CE9736" stroke="#282828" stroke-miterlimit="10" d="M462.098,345.867l5.813-5.083c0,0-0.325-1.744-2.353-0.271
			c0,0-2.215-2.388-2.408,2.241l-2.408,2.242l-11.718-7.513l2.968-4.631l0.271-0.422l1.616,1.037
			c0.548,0.352,1.422-0.369,1.808-0.97l0.225-0.351c0.386-0.602,0.136-0.854-0.413-1.207l-1.616-1.035l1.35-2.104
			c0.597-0.93,0.29-2.19-0.559-2.733s-2.121-0.297-2.718,0.634l-1.35,2.104l-0.797-0.512c-0.548-0.352-1.701-0.998-2.087-0.396
			l-0.226,0.351c-0.385,0.601,0.146,2.222,0.692,2.571l0.797,0.513l-0.27,0.421l-2.97,4.63l-10.897-6.987l1.064-3.178
			c4.126-2.105,0.999-3.072,0.999-3.072c0.492-2.455-1.262-1.972-1.262-1.972l-2.159,7.353l-0.02-0.014l-0.604,2.445l-0.069,0.117
			l0,0l-1.286,4.497l10.968,7.032l1.535,0.982l1.535,0.984l10.967,7.031l3.617-3.15l0,0l-0.059,0.098l2.039-1.672L462.098,345.867z"
			/>
		<line fill="none" stroke="#282828" stroke-miterlimit="10" x1="432.532" y1="331.664" x2="458.74" y2="348.466"/>
	</g>
	<g>
		<path fill="#CE9736" stroke="#282828" stroke-miterlimit="10" d="M364.5,49.665l3-11.363c0,0,5.165,4.258,2.5,13.758L364.5,49.665
			z"/>
		<path fill="#CE9736" stroke="#282828" stroke-miterlimit="10" d="M339.831,49.188l-8.143-8.475c0,0,6.324-2.196,13.049,5.023
			L339.831,49.188z"/>
		<path fill="#CE9736" stroke="#282828" stroke-miterlimit="10" d="M333.633,80.961l-8.445,8.174c0,0-2.219-6.316,4.977-13.067
			L333.633,80.961z"/>
		<path fill="#CE9736" stroke="#282828" stroke-miterlimit="10" d="M350.52,90.998l-10.82,4.587c0,0,4.95,4.508,13.975,0.516
			L350.52,90.998z"/>
		<path fill="#CE9736" stroke="#282828" stroke-miterlimit="10" d="M344.406,138.869l-7.969-8.638c0,0,6.367-2.067,12.945,5.287
			L344.406,138.869z"/>
		<path fill="#CE9736" stroke="#282828" stroke-miterlimit="10" d="M330.744,159.413l-11.522,2.312c0,0,1.548-6.514,11.25-8.304
			L330.744,159.413z"/>
		<path fill="#CE9736" stroke="#282828" stroke-miterlimit="10" d="M354.203,181.72l2.354,11.516c0,0-6.52-1.524-8.344-11.221
			L354.203,181.72z"/>
		<path fill="#CE9736" stroke="#282828" stroke-miterlimit="10" d="M371.744,172.875l-1.948,11.591c0,0,6.462-1.751,7.945-11.507
			L371.744,172.875z"/>
		<path fill="#CE9736" stroke="#282828" stroke-miterlimit="10" d="M397.459,204.062l-10.556-5.167c0,0,5.188-4.232,13.98,0.243
			L397.459,204.062z"/>
		<path fill="#CE9736" stroke="#282828" stroke-miterlimit="10" d="M392.16,228.158l-9.904,6.326c0,0-0.916-6.632,7.48-11.813
			L392.16,228.158z"/>
		<path fill="#CE9736" stroke="#282828" stroke-miterlimit="10" d="M422.104,240.459l6.361,9.884c0,0-6.629,0.938-11.839-7.439
			L422.104,240.459z"/>
		<path fill="#CE9736" stroke="#282828" stroke-miterlimit="10" d="M439.459,223.331l3.725,11.147c0,0-6.655-0.727-9.636-10.132
			L439.459,223.331z"/>
		<path fill="#CE9736" stroke="#282828" stroke-miterlimit="10" d="M538.306,264.892l0.577,11.737c0,0-6.213-2.496-6.543-12.356
			L538.306,264.892z"/>
		<path fill="#CE9736" stroke="#282828" stroke-miterlimit="10" d="M525.16,249.158l-9.904,6.326c0,0-0.916-6.632,7.48-11.813
			L525.16,249.158z"/>
		<path fill="#CE9736" stroke="#282828" stroke-miterlimit="10" d="M560.104,229.459l6.361,9.884c0,0-6.629,0.938-11.839-7.439
			L560.104,229.459z"/>
		<path fill="#CE9736" stroke="#282828" stroke-miterlimit="10" d="M559.104,256.459l6.361,9.884c0,0-6.629,0.938-11.839-7.439
			L559.104,256.459z"/>
		<path fill="#CE9736" stroke="#282828" stroke-miterlimit="10" d="M441.282,74.061c0,0-28.123,4.332-57.87-8.501
			c0,0,5.338,12.668,58.713,16.001L441.282,74.061z"/>
		<path fill="#A8432F" stroke="#282828" stroke-miterlimit="10" d="M492.334,176.565c0,0-19.168,9.995-21.168,22.331
			s-9.464,26.345-28.647,25.177c0,0-2.249,10.873-9.884,0.853c0,0-6.693-2.045-8.914,4.134s7.787,11.302-0.884,13.99
			c-8.671,2.688-15.083-3.678-9.21-14.828c0,0-2.806-3.402-6.189-0.13c-3.384,3.272-9.979,8.229-17.125,0.104
			c-7.146-8.125-2.119-14.658,5.201-12.642c7.318,2.017,9.57,2.601,11.361-0.691c1.79-3.292-4.146-6.002-7.012-6.313
			c-2.865-0.311-12.814-4.828-0.673-10.653c12.142-5.825,14.727,7.337,19.185,9.173c4.457,1.836,22.209,3.318,23.75-13.59
			c1.541-16.908,23.559-30.596,44.8-31.252C486.925,162.228,502.334,166.226,492.334,176.565z"/>
		<path fill="#A8432F" stroke="#282828" stroke-miterlimit="10" d="M499.334,180.894c0,0-9.484,1.334-12.409-8.333
			c0,0-3.759-8-9.425-6c0,0,0.594-6.166,7.797-4.333C485.297,162.228,505.166,170.227,499.334,180.894z"/>
		<path fill="#A8432F" stroke="#282828" stroke-miterlimit="10" d="M403.022,114.722c0,0,3.386,11.412-5.079,17.75
			c-8.467,6.338-26.85,3.662-29.752-17.75c0,0-6.047-19.037-12.82-17.1c-6.771,1.938-11.368-4.313-4.354-9.188
			c0,0,0-9.375-7.499-7.625c-7.498,1.75-7.74,10-12.819,1c-5.08-9,3.388-14,13.063-11.25c0,0,3.145-4.25-2.419-6.75
			c-5.564-2.5-8.708-11.881,0.726-19.19c9.435-7.309,10.884,5.941,10.401,10.941c-0.484,5,5.079,8.5,6.531,2.75
			c1.45-5.75,1.691-17.262,9.19-10.631c7.498,6.631,3.741,15.012-1.758,21.571s4.419,10.31,9.014,10.31
			S403.022,114.722,403.022,114.722z"/>
		<path fill="#A8432F" stroke="#282828" stroke-miterlimit="10" d="M577.75,130.81c0,0-24.75-4-32,14.75c0,0-13.25-6.715-6.5-15.107
			s28.25,4.357,30.5-16.893c0,0-29-6.5-41,10c0,0-14,2.25-6.25-10s39.75,9.5,51-30.5c0,0-34.75,27.25-41,8s52.5-2.25,40.75-55.5
			c0,0-4.5,24.5-21.75,26.5s2-53.25-49.75-24.75c0,0-8.25,1.059-10.5-6.971c-2.25-8.03-17.75-9.279-22.5-2.279
			c0,0,7.339-0.5,8.92,5.5c1.58,6,5.83,17,12.08,15c0,0,4-2.75,0,3.5s-13.161,18.25-12.08,25.75c1.08,7.5,4.33,24.75-4.42,28
			s-9,12-1,14c0,0-1.5-8.5,7.75-9.75s10.5-5.25,9.5-20.75s0-26.25,8-32.75c0,0,5,1.5,2.5,9.5s0,16.5,7.75,15.75
			c0,0,4.25-9.25,0.5-20s4.75-21,16-17.25s17.25,15,4.5,27.25s-42.25,32.75-18.75,61s38.25,22.25,31.25,40
			c-6.454,16.365-13.546-11.047-29.699-7.979c-0.853-3.684,5.313-14.482-9.385-15.321c-16.666-0.951-21.5-30.954-55.832-26.287
			c0,0,1.29-5.788-2.46-7.663c0,0-4-5.75,3.625-7.625s1.125,3.625,9,2.75c0,0,2.625-6-0.875-7.75s-3.625-3.25-1.875-5.625
			c0,0,0.375,1.375,3.375,0.25c0,0-3-4.5-0.75-8.625s4.875-9.25,3.5-16c0,0,7.292-2.708,5.292-12.208c0,0-8.001,1.333-8.667-11.667
			c0,0-4.25-31.25-36-13c0,0-15.75-6-18,8.75c0,0-11,14.75,3,19s20-9.75,23,0s15.5,9.25,8.75,17S401.75,74.31,402,86.56
			s23-0.75,8.5,14s-23.25,31.5-13.75,49.25l4,6c0,0,15.033,5.75,23.893,0c8.857-5.75,66.857-3,74.607,30.5c0,0-2.75,39.5,37.5,38.25
			c0,0,8.75,9-5.5,17.5c0,0-9.75-3-12.25,4.5c0,0-2.334,5.504,3,5.837s11.666-5.833,13.334,0c1.666,5.833-10.002,3.334-6.334,12
			c3.666,8.666,11.666,2,11.834-1c0.166-3,5-10.334,9.332-3.834c4.334,6.5,10.168,3.834,11.5,1.834c1.334-2,1.668-9.333-8.832-10.5
			c0,0-4.334-4.334,1.166-13.334c0,0,6.505,2.834,8.336-5.166c1.83-8-8.502-6.168-6.002-14.334s1.5-17.332-10.168-15.166
			c-11.395,2.115-28.182-6.9-25.699-23.158c4.891,3.219,16.049,10.001,24.033,10.571c10.5,0.75,23.5,5,24.75,13.75
			c0,0,5.5-5-1.75-14.25s-25.25-5-11.75-13.5s18-6.25,19.5-20.5c0,0-21.75,9.25-18.5-2.5S579,143.06,577.75,130.81z"/>
		<path fill="#DDD4D3" d="M436.58,49.665c0,0-7.218-0.164-7.874-5.741c-0.655-5.577,2.789-5.085,5.906-2.461
			C437.729,44.087,437.565,45.893,436.58,49.665z"/>
		<path fill="#282828" d="M434.038,41.382c0-0.132-0.014-0.26-0.02-0.39c-2.942-2.191-5.927-2.293-5.313,2.932
			c0.201,1.711,1.021,2.911,2.062,3.755C432.743,46.283,434.038,43.985,434.038,41.382z"/>
		<path fill="none" stroke="#282828" stroke-miterlimit="10" d="M436.58,49.665c0,0-7.218-0.164-7.874-5.741
			c-0.655-5.577,2.789-5.085,5.906-2.461C437.729,44.087,437.565,45.893,436.58,49.665z"/>
		<path fill="none" stroke="#282828" stroke-miterlimit="10" d="M411.166,45.393c0,0,1.834-3.867,5.5-1.767"/>
		<path fill="none" stroke="#282828" stroke-miterlimit="10" d="M430.415,39.592c0,0,7.585-3.532,8.585,1.093
			s-1.125,10.75,1.875,12.875"/>
		<path fill="none" stroke="#282828" stroke-miterlimit="10" d="M459.875,72.935c0,0-6.75,0.5-9-7.375"/>
		<path fill="none" stroke="#282828" stroke-miterlimit="10" d="M453.75,97.31c0,0,0-7.625-6.5-8.875"/>
		<path fill="none" stroke="#282828" stroke-miterlimit="10" d="M439.5,90.685c0,0,8.75,6.25,9.375,13.875"/>
		<path fill="none" stroke="#282828" stroke-miterlimit="10" d="M442.125,105.81c0,0-0.875-9-7.25-9.75"/>
		<path fill="none" stroke="#282828" stroke-miterlimit="10" d="M440.875,117.31c0,0-7,0.625-8.75-7.625"/>
		<path fill="none" stroke="#282828" stroke-miterlimit="10" d="M413.25,90.685c0,0,7.875-0.625,3.125,6.938"/>
		<path fill="none" stroke="#282828" stroke-miterlimit="10" d="M502.165,189.063c0,0,3.739,8.297,15.001,8.833"/>
		<path fill="none" stroke="#282828" stroke-miterlimit="10" d="M504.831,198.896c0,0,2.169,6.667,15.335,7.167"/>
		<path fill="none" stroke="#282828" stroke-miterlimit="10" d="M508.998,208.896c0,0,2.168,7,15.5,4.5"/>
		<path fill="none" stroke="#282828" stroke-miterlimit="10" d="M552,212.435c0,0,1.25-5.75-4.125-4.875"/>
		<path fill="none" stroke="#282828" stroke-miterlimit="10" d="M554,237.563c0,0-4.125-2.378-4-8.503"/>
		<path fill="none" stroke="#282828" stroke-miterlimit="10" d="M513.834,114.722c0,0-0.5-8.667,17-12.167"/>
		<path fill="none" stroke="#282828" stroke-miterlimit="10" d="M509.334,109.685c0,0,2.498-15.203,15.332-19"/>
		<path fill="none" stroke="#282828" stroke-miterlimit="10" d="M547.834,67.888c0,0-35.834,14.677-40.169,36.672"/>
		<path fill="none" stroke="#282828" stroke-miterlimit="10" d="M540.834,120.722c0,0-15.524,7.467-7.669,23.5"/>
		<path fill="none" stroke="#282828" stroke-miterlimit="10" d="M562.166,139.228c0,0-12.832,0.333-10.166,23"/>
		<path fill="none" stroke="#282828" stroke-miterlimit="10" d="M570.666,161.228c0,0-6.305,7.006-12.666,1"/>
		<path fill="#A8432F" d="M418.895,142.161c0,0,11.428,3.333,12.17,13.883c0.743,10.549-11.462,24.554-31.034,15.397
			c0,0-19.277-5.227-21.316,1.517s-9.782,7.222-10.082-1.315c0,0-7.881-5.076-10.472,2.174c-2.59,7.252,4.216,11.923-6.103,11.318
			c-10.316-0.604-9.936-10.429-2.384-17.073c0,0-1.869-4.944-6.983-1.621c-5.114,3.322-14.704,0.886-15.739-11.004
			c-1.037-11.889,10.889-5.932,14.83-2.819c3.94,3.115,9.896,0.335,5.85-4c-4.049-4.333-13.596-10.771-3.96-13.484
			c9.636-2.712,14.646,4.985,17.183,13.16c2.537,8.175,11.06,1.869,13.549-1.995C376.891,142.434,418.895,142.161,418.895,142.161z"
			/>
		<path fill="none" stroke="#282828" stroke-miterlimit="10" d="M429.953,151.461c0.59,1.348,0.99,2.869,1.11,4.581
			c0.743,10.549-11.462,24.554-31.034,15.397c0,0-19.277-5.227-21.316,1.517s-9.782,7.222-10.082-1.315
			c0,0-7.881-5.076-10.472,2.174c-2.59,7.252,4.216,11.923-6.103,11.318c-10.316-0.604-9.936-10.429-2.384-17.073
			c0,0-1.869-4.944-6.983-1.621c-5.114,3.322-14.704,0.886-15.739-11.004c-1.037-11.889,10.889-5.932,14.83-2.819
			c3.94,3.115,9.896,0.335,5.85-4c-4.049-4.333-13.596-10.771-3.96-13.484c9.636-2.712,14.646,4.985,17.183,13.16
			c2.537,8.175,11.06,1.869,13.549-1.995c1.296-2.012,13.309-3.05,24.522-3.583"/>
		<path fill="none" stroke="#282828" stroke-miterlimit="10" d="M396.625,138.685c0,0,1.5,4.75,4.125,5.375c0,0-1.625-4.75,0-7.75
			c0,0,1.25,2.625,5,2.75c0,0-3.25-5.875-1.25-10.25c0,0,5,7.875,12.625,10.125"/>
		<path fill="none" stroke="#282828" stroke-miterlimit="10" d="M411.875,124.31c0,0,2,10.59,13,11.17"/>
		<path fill="none" stroke="#282828" stroke-miterlimit="10" d="M420.875,121.06c0,0-0.875,9,7.75,11"/>
		<path fill="none" stroke="#282828" stroke-miterlimit="10" d="M428.625,119.935c0,0,4.727,8.142,13.5,5.5"/>
		<path fill="none" stroke="#282828" stroke-miterlimit="10" d="M424,154.06c0,0-0.416,13.333-12.125,14.833"/>
		<path fill="none" stroke="#282828" stroke-miterlimit="10" d="M411.875,162.893c0,0-0.541,5.833-8.875,1.5"/>
		<path fill="none" stroke="#282828" stroke-miterlimit="10" d="M398.665,161.476c0,0-5.831-0.481-10.831,2.968"/>
		<path fill="none" stroke="#282828" stroke-miterlimit="10" d="M387.834,126.56c0,0-10.5,3.157-13-5.838"/>
		<path fill="none" stroke="#282828" stroke-miterlimit="10" d="M386.753,119.935c0,0-8.419-1.708-11.919-15.375"/>
		<path fill="none" stroke="#282828" stroke-miterlimit="10" d="M387.834,122.949c0,0-6.017,2.445-8.843-4.222"/>
		<path fill="none" stroke="#282828" stroke-miterlimit="10" d="M470.875,171.421c0,0,7.375,1.513,8.25,8.763"/>
		<path fill="none" stroke="#282828" stroke-miterlimit="10" d="M462.625,176.31c0,0,8.375,1,10.875,9.875"/>
		<path fill="none" stroke="#282828" stroke-miterlimit="10" d="M455.25,184.06c0,0,12.375,2.625,12.813,12.375"/>
		<path fill="none" stroke="#282828" stroke-miterlimit="10" d="M463.75,208.896c0,0-6.875,9.788-18.375,9.663"/>
		<path fill="#CE9736" stroke="#282828" stroke-miterlimit="10" d="M462.098,42.427l5.813-5.083c0,0-0.325-1.744-2.353-0.271
			c0,0-2.215-2.387-2.408,2.242l-2.408,2.242l-11.718-7.513l2.968-4.631l0.271-0.421l1.616,1.037
			c0.548,0.351,1.422-0.369,1.808-0.97l0.225-0.351c0.386-0.601,0.136-0.854-0.413-1.206l-1.616-1.036l1.35-2.104
			c0.597-0.93,0.29-2.19-0.559-2.733c-0.849-0.544-2.121-0.297-2.718,0.633l-1.35,2.105l-0.797-0.512
			c-0.548-0.351-1.701-0.998-2.087-0.397l-0.226,0.351c-0.385,0.601,0.146,2.222,0.692,2.572l0.797,0.512l-0.27,0.421l-2.97,4.63
			l-10.897-6.988l1.064-3.177c4.126-2.106,0.999-3.072,0.999-3.072c0.492-2.456-1.262-1.972-1.262-1.972l-2.159,7.352l-0.02-0.013
			l-0.604,2.445l-0.069,0.117l0,0l-1.286,4.497l10.968,7.032l1.535,0.983l1.535,0.984l10.967,7.032l3.617-3.151l0,0l-0.059,0.098
			l2.039-1.672L462.098,42.427z"/>
		<line fill="none" stroke="#282828" stroke-miterlimit="10" x1="432.532" y1="28.224" x2="458.74" y2="45.025"/>
	</g>
	<g>
		<path fill="#4368A3" stroke="#282828" stroke-miterlimit="10" d="M63.5,353.105l3-11.363c0,0,5.166,4.258,2.5,13.758L63.5,353.105
			z"/>
		<path fill="#4368A3" stroke="#282828" stroke-miterlimit="10" d="M38.832,352.629l-8.144-8.475c0,0,6.324-2.196,13.049,5.022
			L38.832,352.629z"/>
		<path fill="#4368A3" stroke="#282828" stroke-miterlimit="10" d="M32.633,384.402l-8.445,8.174c0,0-2.219-6.316,4.978-13.067
			L32.633,384.402z"/>
		<path fill="#4368A3" stroke="#282828" stroke-miterlimit="10" d="M49.52,394.438L38.7,399.025c0,0,4.949,4.508,13.974,0.516
			L49.52,394.438z"/>
		<path fill="#4368A3" stroke="#282828" stroke-miterlimit="10" d="M43.406,442.309l-7.969-8.638c0,0,6.367-2.067,12.945,5.287
			L43.406,442.309z"/>
		<path fill="#4368A3" stroke="#282828" stroke-miterlimit="10" d="M29.745,462.853l-11.523,2.313c0,0,1.548-6.514,11.25-8.304
			L29.745,462.853z"/>
		<path fill="#4368A3" stroke="#282828" stroke-miterlimit="10" d="M53.204,485.16l2.353,11.516c0,0-6.519-1.523-8.344-11.221
			L53.204,485.16z"/>
		<path fill="#4368A3" stroke="#282828" stroke-miterlimit="10" d="M70.745,476.315l-1.949,11.591c0,0,6.462-1.751,7.946-11.507
			L70.745,476.315z"/>
		<path fill="#4368A3" stroke="#282828" stroke-miterlimit="10" d="M96.459,507.502l-10.556-5.167c0,0,5.188-4.231,13.98,0.243
			L96.459,507.502z"/>
		<path fill="#4368A3" stroke="#282828" stroke-miterlimit="10" d="M91.161,531.598l-9.905,6.326c0,0-0.916-6.632,7.48-11.813
			L91.161,531.598z"/>
		<path fill="#4368A3" stroke="#282828" stroke-miterlimit="10" d="M121.104,543.9l6.361,9.884c0,0-6.629,0.938-11.839-7.439
			L121.104,543.9z"/>
		<path fill="#4368A3" stroke="#282828" stroke-miterlimit="10" d="M138.459,526.771l3.725,11.146c0,0-6.655-0.727-9.636-10.132
			L138.459,526.771z"/>
		<path fill="#4368A3" stroke="#282828" stroke-miterlimit="10" d="M237.306,568.332l0.577,11.737c0,0-6.213-2.496-6.543-12.356
			L237.306,568.332z"/>
		<path fill="#4368A3" stroke="#282828" stroke-miterlimit="10" d="M224.161,552.598l-9.905,6.326c0,0-0.916-6.632,7.48-11.813
			L224.161,552.598z"/>
		<path fill="#4368A3" stroke="#282828" stroke-miterlimit="10" d="M259.104,532.9l6.361,9.884c0,0-6.629,0.938-11.839-7.439
			L259.104,532.9z"/>
		<path fill="#4368A3" stroke="#282828" stroke-miterlimit="10" d="M258.104,559.9l6.361,9.884c0,0-6.629,0.938-11.839-7.439
			L258.104,559.9z"/>
		<path fill="#4368A3" stroke="#282828" stroke-miterlimit="10" d="M140.283,377.501c0,0-28.123,4.332-57.87-8.501
			c0,0,5.337,12.668,58.712,16.001L140.283,377.501z"/>
		<path fill="#CE9736" stroke="#282828" stroke-miterlimit="10" d="M191.334,480.006c0,0-19.168,9.995-21.168,22.331
			s-9.463,26.345-28.647,25.177c0,0-2.249,10.873-9.884,0.854c0,0-6.693-2.045-8.914,4.134s7.787,11.302-0.884,13.99
			c-8.671,2.688-15.083-3.679-9.21-14.828c0,0-2.806-3.402-6.189-0.13c-3.384,3.271-9.979,8.229-17.125,0.104
			c-7.146-8.125-2.119-14.658,5.201-12.642c7.319,2.017,9.57,2.601,11.361-0.691s-4.146-6.002-7.012-6.313
			c-2.864-0.312-12.814-4.828-0.673-10.653c12.143-5.825,14.727,7.337,19.185,9.173s22.209,3.318,23.75-13.59
			s23.559-30.596,44.8-31.252C185.925,465.668,201.334,469.666,191.334,480.006z"/>
		<path fill="#CE9736" stroke="#282828" stroke-miterlimit="10" d="M198.334,484.334c0,0-9.484,1.334-12.409-8.333
			c0,0-3.759-8-9.425-6c0,0,0.594-6.166,7.797-4.333C184.297,465.668,204.167,473.667,198.334,484.334z"/>
		<path fill="#CE9736" stroke="#282828" stroke-miterlimit="10" d="M102.022,418.162c0,0,3.387,11.412-5.079,17.75
			c-8.467,6.338-26.85,3.662-29.752-17.75c0,0-6.047-19.037-12.819-17.1s-11.369-4.313-4.354-9.188c0,0,0-9.375-7.499-7.625
			c-7.498,1.75-7.74,10-12.818,1c-5.08-9,3.387-14,13.062-11.25c0,0,3.145-4.25-2.419-6.75c-5.564-2.5-8.708-11.881,0.726-19.19
			C50.502,340.75,51.952,354,51.469,359c-0.484,5,5.079,8.5,6.531,2.75c1.451-5.75,1.691-17.262,9.19-10.631
			c7.498,6.631,3.741,15.012-1.758,21.57C59.934,379.249,69.852,383,74.447,383C79.042,383,102.022,418.162,102.022,418.162z"/>
		<path fill="#CE9736" stroke="#282828" stroke-miterlimit="10" d="M276.75,434.25c0,0-24.75-4-32,14.75c0,0-13.25-6.715-6.5-15.107
			c6.75-8.392,28.25,4.357,30.5-16.893c0,0-29-6.5-41,10c0,0-14,2.25-6.25-10s39.75,9.5,51-30.5c0,0-34.75,27.25-41,8
			s52.5-2.25,40.75-55.5c0,0-4.5,24.5-21.75,26.5s2-53.25-49.75-24.75c0,0-8.25,1.059-10.5-6.971c-2.25-8.03-17.75-9.279-22.5-2.279
			c0,0,7.339-0.5,8.92,5.5c1.58,6,5.83,17,12.08,15c0,0,4-2.75,0,3.5s-13.161,18.25-12.08,25.75c1.08,7.5,4.33,24.75-4.42,28
			s-9,12-1,14c0,0-1.5-8.5,7.75-9.75s10.5-5.25,9.5-20.75s0-26.25,8-32.75c0,0,5,1.5,2.5,9.5s0,16.5,7.75,15.75
			c0,0,4.25-9.25,0.5-20s4.75-21,16-17.25s17.25,15,4.5,27.25S185.5,408,209,436.25s38.25,22.25,31.25,40
			c-6.454,16.365-13.545-11.047-29.699-7.979c-0.852-3.685,5.313-14.482-9.384-15.321c-16.667-0.951-21.5-30.954-55.833-26.287
			c0,0,1.291-5.788-2.459-7.663c0,0-4-5.75,3.625-7.625s1.125,3.625,9,2.75c0,0,2.625-6-0.875-7.75s-3.625-3.25-1.875-5.625
			c0,0,0.375,1.375,3.375,0.25c0,0-3-4.5-0.75-8.625s4.875-9.25,3.5-16c0,0,7.292-2.708,5.292-12.208c0,0-8.001,1.333-8.667-11.667
			c0,0-4.25-31.25-36-13c0,0-15.75-6-18,8.75c0,0-11,14.75,3,19s20-9.75,23,0s15.5,9.25,8.75,17s-35.5-6.5-35.25,5.75
			s23-0.75,8.5,14s-23.25,31.5-13.75,49.25l4,6c0,0,15.034,5.75,23.893,0c8.857-5.75,66.857-3,74.607,30.5c0,0-2.75,39.5,37.5,38.25
			c0,0,8.75,9-5.5,17.5c0,0-9.75-3-12.25,4.5c0,0-2.334,5.504,3,5.837s11.667-5.833,13.334,0c1.666,5.833-10.001,3.334-6.334,12
			s11.667,2,11.834-1c0.166-3,5-10.334,9.333-3.834s10.167,3.834,11.5,1.834s1.667-9.333-8.833-10.5c0,0-4.334-4.334,1.166-13.334
			c0,0,6.505,2.834,8.336-5.166s-8.502-6.168-6.002-14.334s1.5-17.332-10.167-15.166c-11.396,2.115-28.183-6.9-25.7-23.158
			c4.891,3.22,16.049,10.001,24.033,10.571c10.5,0.75,23.5,5,24.75,13.75c0,0,5.5-5-1.75-14.25s-25.25-5-11.75-13.5
			s18-6.25,19.5-20.5c0,0-21.75,9.25-18.5-2.5S278,446.5,276.75,434.25z"/>
		<path fill="#DDD4D3" d="M135.581,353.105c0,0-7.219-0.164-7.874-5.741c-0.656-5.577,2.789-5.085,5.905-2.462
			C136.729,347.527,136.565,349.333,135.581,353.105z"/>
		<path fill="#282828" d="M133.039,344.822c0-0.133-0.015-0.26-0.021-0.391c-2.941-2.19-5.927-2.293-5.313,2.932
			c0.2,1.712,1.021,2.912,2.061,3.756C131.744,349.723,133.039,347.426,133.039,344.822z"/>
		<path fill="none" stroke="#282828" stroke-miterlimit="10" d="M135.581,353.105c0,0-7.219-0.164-7.874-5.741
			c-0.656-5.577,2.789-5.085,5.905-2.462C136.729,347.527,136.565,349.333,135.581,353.105z"/>
		<path fill="none" stroke="#282828" stroke-miterlimit="10" d="M110.167,348.833c0,0,1.833-3.867,5.5-1.767"/>
		<path fill="none" stroke="#282828" stroke-miterlimit="10" d="M129.416,343.032c0,0,7.584-3.532,8.584,1.093
			s-1.125,10.75,1.875,12.875"/>
		<path fill="none" stroke="#282828" stroke-miterlimit="10" d="M158.875,376.375c0,0-6.75,0.5-9-7.375"/>
		<path fill="none" stroke="#282828" stroke-miterlimit="10" d="M152.75,400.75c0,0,0-7.625-6.5-8.875"/>
		<path fill="none" stroke="#282828" stroke-miterlimit="10" d="M138.5,394.125c0,0,8.75,6.25,9.375,13.875"/>
		<path fill="none" stroke="#282828" stroke-miterlimit="10" d="M141.125,409.25c0,0-0.875-9-7.25-9.75"/>
		<path fill="none" stroke="#282828" stroke-miterlimit="10" d="M139.875,420.75c0,0-7,0.625-8.75-7.625"/>
		<path fill="none" stroke="#282828" stroke-miterlimit="10" d="M112.25,394.125c0,0,7.875-0.625,3.125,6.938"/>
		<path fill="none" stroke="#282828" stroke-miterlimit="10" d="M201.166,492.504c0,0,3.738,8.297,15,8.833"/>
		<path fill="none" stroke="#282828" stroke-miterlimit="10" d="M203.832,502.337c0,0,2.168,6.667,15.334,7.167"/>
		<path fill="none" stroke="#282828" stroke-miterlimit="10" d="M207.999,512.337c0,0,2.167,7,15.5,4.5"/>
		<path fill="none" stroke="#282828" stroke-miterlimit="10" d="M251,515.875c0,0,1.25-5.75-4.125-4.875"/>
		<path fill="none" stroke="#282828" stroke-miterlimit="10" d="M253,541.003c0,0-4.124-2.378-4-8.503"/>
		<path fill="none" stroke="#282828" stroke-miterlimit="10" d="M212.834,418.162c0,0-0.5-8.667,17-12.167"/>
		<path fill="none" stroke="#282828" stroke-miterlimit="10" d="M208.334,413.125c0,0,2.499-15.203,15.332-19"/>
		<path fill="none" stroke="#282828" stroke-miterlimit="10" d="M246.834,371.328c0,0-35.834,14.677-40.168,36.672"/>
		<path fill="none" stroke="#282828" stroke-miterlimit="10" d="M239.834,424.162c0,0-15.524,7.467-7.668,23.5"/>
		<path fill="none" stroke="#282828" stroke-miterlimit="10" d="M261.166,442.668c0,0-12.832,0.333-10.166,23"/>
		<path fill="none" stroke="#282828" stroke-miterlimit="10" d="M269.666,464.668c0,0-6.305,7.006-12.666,1"/>
		<path fill="#CE9736" d="M117.895,445.601c0,0,11.428,3.333,12.17,13.884c0.743,10.549-11.462,24.554-31.034,15.396
			c0,0-19.277-5.227-21.316,1.518c-2.039,6.743-9.782,7.222-10.082-1.315c0,0-7.881-5.076-10.471,2.174
			c-2.591,7.252,4.215,11.923-6.104,11.318c-10.315-0.604-9.935-10.429-2.384-17.073c0,0-1.869-4.944-6.983-1.621
			c-5.113,3.322-14.704,0.886-15.738-11.004c-1.037-11.889,10.888-5.932,14.83-2.819c3.939,3.115,9.896,0.335,5.849-4
			c-4.048-4.333-13.595-10.771-3.96-13.483c9.636-2.712,14.646,4.984,17.183,13.16c2.537,8.175,11.061,1.868,13.549-1.995
			C75.891,445.874,117.895,445.601,117.895,445.601z"/>
		<path fill="none" stroke="#282828" stroke-miterlimit="10" d="M128.954,454.902c0.589,1.348,0.989,2.869,1.109,4.581
			c0.743,10.549-11.462,24.554-31.034,15.396c0,0-19.277-5.227-21.316,1.518c-2.039,6.743-9.782,7.222-10.082-1.315
			c0,0-7.881-5.076-10.471,2.174c-2.591,7.252,4.215,11.923-6.104,11.318c-10.315-0.604-9.935-10.43-2.384-17.073
			c0,0-1.869-4.944-6.983-1.621c-5.113,3.322-14.704,0.886-15.738-11.004c-1.037-11.889,10.888-5.932,14.829-2.819
			c3.94,3.115,9.896,0.335,5.85-4c-4.048-4.333-13.595-10.771-3.96-13.483c9.636-2.712,14.646,4.984,17.183,13.16
			c2.537,8.175,11.061,1.868,13.549-1.995c1.296-2.013,13.309-3.05,24.522-3.583"/>
		<path fill="none" stroke="#282828" stroke-miterlimit="10" d="M95.625,442.125c0,0,1.5,4.75,4.125,5.375c0,0-1.625-4.75,0-7.75
			c0,0,1.25,2.625,5,2.75c0,0-3.25-5.875-1.25-10.25c0,0,5,7.875,12.625,10.125"/>
		<path fill="none" stroke="#282828" stroke-miterlimit="10" d="M110.875,427.75c0,0,2,10.59,13,11.17"/>
		<path fill="none" stroke="#282828" stroke-miterlimit="10" d="M119.875,424.5c0,0-0.875,9,7.75,11"/>
		<path fill="none" stroke="#282828" stroke-miterlimit="10" d="M127.625,423.375c0,0,4.727,8.142,13.5,5.5"/>
		<path fill="none" stroke="#282828" stroke-miterlimit="10" d="M123,457.5c0,0-0.416,13.333-12.125,14.833"/>
		<path fill="none" stroke="#282828" stroke-miterlimit="10" d="M110.875,466.333c0,0-0.541,5.833-8.875,1.5"/>
		<path fill="none" stroke="#282828" stroke-miterlimit="10" d="M97.666,464.916c0,0-5.832-0.481-10.832,2.968"/>
		<path fill="none" stroke="#282828" stroke-miterlimit="10" d="M86.834,430c0,0-10.5,3.157-13-5.838"/>
		<path fill="none" stroke="#282828" stroke-miterlimit="10" d="M85.753,423.375c0,0-8.419-1.708-11.919-15.375"/>
		<path fill="none" stroke="#282828" stroke-miterlimit="10" d="M86.834,426.389c0,0-6.017,2.445-8.842-4.222"/>
		<path fill="none" stroke="#282828" stroke-miterlimit="10" d="M169.875,474.862c0,0,7.375,1.513,8.25,8.763"/>
		<path fill="none" stroke="#282828" stroke-miterlimit="10" d="M161.625,479.75c0,0,8.375,1,10.875,9.875"/>
		<path fill="none" stroke="#282828" stroke-miterlimit="10" d="M154.25,487.5c0,0,12.375,2.625,12.813,12.375"/>
		<path fill="none" stroke="#282828" stroke-miterlimit="10" d="M162.75,512.337c0,0-6.875,9.788-18.375,9.663"/>
		<path fill="#4368A3" stroke="#282828" stroke-miterlimit="10" d="M161.098,345.867l5.813-5.083c0,0-0.326-1.744-2.354-0.271
			c0,0-2.215-2.388-2.408,2.241l-2.407,2.242l-11.719-7.513l2.969-4.631l0.271-0.422l1.616,1.037
			c0.548,0.352,1.422-0.369,1.808-0.97l0.226-0.351c0.385-0.602,0.135-0.854-0.413-1.207l-1.617-1.035l1.35-2.104
			c0.598-0.93,0.29-2.19-0.559-2.733c-0.848-0.543-2.121-0.297-2.717,0.634l-1.351,2.104l-0.797-0.512
			c-0.548-0.352-1.701-0.998-2.087-0.396l-0.225,0.351c-0.386,0.601,0.145,2.222,0.691,2.571l0.797,0.513l-0.27,0.421l-2.969,4.63
			l-10.898-6.987l1.065-3.178c4.126-2.105,0.999-3.072,0.999-3.072c0.491-2.455-1.263-1.972-1.263-1.972l-2.158,7.353l-0.021-0.014
			l-0.603,2.445l-0.07,0.117l0,0l-1.286,4.497l10.968,7.032l1.535,0.982l1.535,0.984l10.967,7.031l3.617-3.15l0,0l-0.058,0.098
			l2.039-1.672L161.098,345.867z"/>
		<line fill="none" stroke="#282828" stroke-miterlimit="10" x1="131.533" y1="331.664" x2="157.74" y2="348.466"/>
	</g>
	<g>
		<polygon fill="#CE9736" stroke="#282828" stroke-miterlimit="10" points="115.5,87.5 100.5,87.5 100.5,72.5 87.5,72.5 87.5,87.5 
			72.5,87.5 72.5,100.5 87.5,100.5 87.5,115.5 100.5,115.5 100.5,100.5 115.5,100.5 		"/>
		<polygon fill="#CE9736" stroke="#282828" stroke-miterlimit="10" points="225.5,87.5 210.5,87.5 210.5,72.5 197.5,72.5 
			197.5,87.5 182.5,87.5 182.5,100.5 197.5,100.5 197.5,115.5 210.5,115.5 210.5,100.5 225.5,100.5 		"/>
		<polygon fill="#CE9736" stroke="#282828" stroke-miterlimit="10" points="115.5,199.5 100.5,199.5 100.5,184.5 87.5,184.5 
			87.5,199.5 72.5,199.5 72.5,212.5 87.5,212.5 87.5,227.5 100.5,227.5 100.5,212.5 115.5,212.5 		"/>
		<polygon fill="#CE9736" stroke="#282828" stroke-miterlimit="10" points="225.5,199.5 210.5,199.5 210.5,184.5 197.5,184.5 
			197.5,199.5 182.5,199.5 182.5,212.5 197.5,212.5 197.5,227.5 210.5,227.5 210.5,212.5 225.5,212.5 		"/>
		<polygon fill="#CE9736" stroke="#282828" stroke-miterlimit="10" points="241.5,106.5 241.5,131.5 167.5,131.5 167.5,57.5 
			192.5,57.5 192.5,35.5 168,35.5 131,35.5 105.5,35.5 105.5,57.5 130.5,57.5 130.5,131.5 56.5,131.5 56.5,106.5 34.5,106.5 
			34.5,131 34.5,168 34.5,193.5 56.5,193.5 56.5,168.5 130.5,168.5 130.5,242.5 105.5,242.5 105.5,264.5 131,264.5 168,264.5 
			192.5,264.5 192.5,242.5 167.5,242.5 167.5,168.5 241.5,168.5 241.5,193.5 263.5,193.5 263.5,168 263.5,131 263.5,106.5 		"/>
		<rect x="49" y="137" fill="#D3B789" width="201" height="25"/>
		<rect x="40" y="111" fill="#D3B789" width="12" height="77"/>
		<rect x="247" y="111" fill="#D3B789" width="12" height="77"/>
		<rect x="137" y="49" fill="#D3B789" width="25" height="201"/>
		<rect x="111" y="247" fill="#D3B789" width="77" height="12"/>
		<rect x="111" y="40" fill="#D3B789" width="77" height="12"/>
		<rect x="91" y="76" fill="#D3B789" width="7" height="35"/>
		<rect x="77" y="90" fill="#D3B789" width="35" height="7"/>
		<rect x="91" y="188" fill="#D3B789" width="7" height="35"/>
		<rect x="77" y="202" fill="#D3B789" width="35" height="7"/>
		<rect x="201" y="76" fill="#D3B789" width="7" height="35"/>
		<rect x="187" y="90" fill="#D3B789" width="35" height="7"/>
		<rect x="201" y="188" fill="#D3B789" width="7" height="35"/>
		<rect x="187" y="202" fill="#D3B789" width="35" height="7"/>
	</g>
</g>
</svg>
