<?xml version="1.0" encoding="UTF-8"?>
<svg xmlns="http://www.w3.org/2000/svg" xmlns:xlink="http://www.w3.org/1999/xlink" width="648pt" height="432pt" viewBox="0 0 648 432" version="1.1">
<defs>
<clipPath id="clip0">
  <rect width="648" height="432"/>
</clipPath>
</defs>
<g id="surface0" clip-path="url(#clip0)">
<path style="fill: none; stroke-width: 0.1; stroke-linecap: butt; stroke-linejoin: miter; stroke: rgb(100%,100%,100%); opacity: 1;stroke-miterlimit: 10;" d="M 0 0 L 648 0 L 648 216 C 431.999451 215.999893 216.000229 215.999893 0 216 L 0 0 Z M 0 0 " transform="matrix(1,0,0,1,0,0)"/>
<path style="stroke: none; fill-rule: nonzero; fill: rgb(100%,100%,100%); opacity: 1;" d="M 0 0 L 648 0 L 648 216 C 431.999451 215.999893 216.000229 215.999893 0 216 L 0 0 Z M 0 0 "/>
<path style="fill: none; stroke-width: 0.1; stroke-linecap: butt; stroke-linejoin: miter; stroke: rgb(99.607849%,0%,0%); opacity: 1;stroke-miterlimit: 10;" d="M 0 216 C 216.000229 215.999893 431.999451 215.999893 648 216 L 648 432 L 0 432 L 0 216 Z M 0 216 " transform="matrix(1,0,0,1,0,0)"/>
<path style="stroke: none; fill-rule: nonzero; fill: rgb(99.607849%,0%,0%); opacity: 1;" d="M 0 216 C 216.000229 215.999893 431.999451 215.999893 648 216 L 648 432 L 0 432 L 0 216 Z M 0 216 "/>
</g>
</svg>
