<?xml version="1.0" encoding="UTF-8" standalone="no"?>
<svg
   xmlns:dc="http://purl.org/dc/elements/1.1/"
   xmlns:cc="http://creativecommons.org/ns#"
   xmlns:rdf="http://www.w3.org/1999/02/22-rdf-syntax-ns#"
   xmlns:svg="http://www.w3.org/2000/svg"
   xmlns="http://www.w3.org/2000/svg"
   xmlns:xlink="http://www.w3.org/1999/xlink"
   xmlns:sodipodi="http://sodipodi.sourceforge.net/DTD/sodipodi-0.dtd"
   xmlns:inkscape="http://www.inkscape.org/namespaces/inkscape"
   width="600"
   height="600"
   id="svg2"
   version="1.1"
   inkscape:version="0.48.5 r10040"
   sodipodi:docname="svg.svg">
  <metadata
     id="metadata100">
    <rdf:RDF>
      <cc:Work
         rdf:about="">
        <dc:format>image/svg+xml</dc:format>
        <dc:type
           rdf:resource="http://purl.org/dc/dcmitype/StillImage" />
      </cc:Work>
    </rdf:RDF>
  </metadata>
  <defs
     id="defs98" />
  <sodipodi:namedview
     pagecolor="#ffffff"
     bordercolor="#666666"
     borderopacity="1"
     objecttolerance="10"
     gridtolerance="10"
     guidetolerance="10"
     inkscape:pageopacity="0"
     inkscape:pageshadow="2"
     inkscape:window-width="1920"
     inkscape:window-height="1017"
     id="namedview96"
     showgrid="false"
     inkscape:zoom="0.70710678"
     inkscape:cx="494.56687"
     inkscape:cy="490.54205"
     inkscape:window-x="-8"
     inkscape:window-y="-8"
     inkscape:window-maximized="1"
     inkscape:current-layer="svg2" />
  <rect
     width="600"
     height="600"
     fill="#fd1812"
     id="rect4"
     style="fill:#d52e2a;fill-opacity:1" />
  <g
     transform="matrix(0.23410593,0,0,-0.23410593,29.786859,604.15072)"
     id="g5024">
    <path
       inkscape:connector-curvature="0"
       d="m 613.906,2058.18 c 0,0 32.5,40 322.5,85 l 20,-92.5 c 0,0 -56.25,-32.5 -323.75,-58.75 -7.5,25 -18.75,66.25 -18.75,66.25"
       style="fill:#f0b600;fill-opacity:1;fill-rule:nonzero;stroke:none"
       id="path132" />
    <path
       inkscape:connector-curvature="0"
       d="m 1278.91,2161.93 c 0,0 80,52.5 140,45 0,0 23.75,-8.75 63.75,17.5 0,0 65,91.25 146.25,32.5 0,0 35,-21.25 85,15 0,0 62.5,62.5 126.25,12.5 0,0 15,-20 48.75,-10 0,0 61.25,12.5 61.25,-37.5 0,0 -5,-23.75 26.25,-36.25 0,0 66.25,-82.5 -36.25,-116.25 0,0 -51.25,-5 -82.5,-41.25 0,0 -40,-68.75 -107.5,5 0,0 -42.5,36.25 -103.75,-3.75 0,0 -71.25,-55 -128.75,0 0,0 -45,28.75 -101.25,7.5 0,0 -50,-17.5 -137.5,0 v 110"
       style="fill:#f0b600;fill-opacity:1;fill-rule:nonzero;stroke:none"
       id="path136" />
    <path
       sodipodi:nodetypes="ccccccczczczczcc"
       inkscape:connector-curvature="0"
       d="m 351.406,2001.93 c 0,0 -37.5,20 -40,-17.5 0,0 -5,-31.25 20,-50 0,0 27.5,-30 52.5,2.5 l 45,7.5 95,27.5 c 0,0 31.25,31.25 -1.25,46.25 6.16032,-19.0076 -1.8949,-29.8022 -12.79661,-32.7516 -10.90171,-2.9494 -23.64839,6.1316 -23.64839,6.1316 0,0 -11.78247,-18.6205 -19.805,-19.63 -8.02253,-1.0095 -17.793,10.44 -17.793,10.44 0,0 -4.44796,-15.1837 -12.207,-17.94 -7.75904,-2.7563 -26.543,7.94 -26.543,7.94 0,0 -2.14997,-13.2727 -13.59206,-18.4167 -11.4421,-5.144 -23.90794,5.9167 -23.90794,5.9167 l -20.957,42.06"
       style="fill:#f0b600;fill-opacity:1;fill-rule:nonzero;stroke:none"
       id="path140" />
    <path
       inkscape:connector-curvature="0"
       d="m 971.406,2220.68 88.754,31.25 92.5,-6.25 66.25,-21.25 51.25,-31.25 -5,-97.5 -43.75,-66.25 -54.07,-51.44 -63.61,2.27 -81.07,37.92 -42.504,60 -8.75,142.5"
       style="fill:#ffe0ac;fill-opacity:1;fill-rule:nonzero;stroke:none"
       id="path144" />
    <path
       inkscape:connector-curvature="0"
       d="m 971.406,2220.68 88.754,31.25 92.5,-6.25 66.25,-21.25 51.25,-31.25 -5,-97.5 -43.75,-66.25 -54.07,-51.44 -63.61,2.27 -81.07,37.92 -42.504,60 z"
       style="fill:none;stroke:#fcd7a8;stroke-width:2.44885778;stroke-linecap:round;stroke-linejoin:miter;stroke-miterlimit:3.86370993;stroke-opacity:1;stroke-dasharray:none"
       id="path146" />
    <path
       inkscape:connector-curvature="0"
       d="m 1078.56,2274.44 -8.1,20.26 14.86,9.46 v 13.51 l 12.16,4.05 4.05,21.62 c 0,0 -108.069,4.05 -128.335,-35.13 l -12.156,12.16 c 0,0 -84.633,-9.69 -28.367,-122.94 0,0 56.734,-22.97 63.488,4.05 l -10.805,6.76 2.7,9.46 c 0,0 104.015,-27.02 94.565,4.05 0,0 -52.46,42.68 6.75,13.51 l 40.79,1.67 -2.5,-15 61.25,2.5 10,-2.5 -3.75,-18.75 5,-8.75 47.5,-1.25 13.75,2.5 -5,-13.75 -6.25,-11.25 22.5,-8.75 26.25,7.5 c 0,0 25,23.75 20,45 8.75,1.25 -2.5,61.25 -2.5,61.25 0,0 -3.75,12.5 -17.5,15 0,0 -33.75,32.5 -47.5,30 l -1.25,-13.75 -11.25,-5 c 0,0 8.75,45 -115,42.5 l -3.42,-22.5 -15,-8.75 -2.5,-13.75 -6.25,-3.75 -3.75,-17.5 -14.43,-3.74"
       style="fill:#00883b;fill-opacity:1;fill-rule:nonzero;stroke:none"
       id="path148" />
    <path
       inkscape:connector-curvature="0"
       id="path152"
       transform="matrix(7.5000003,0,0,-7.5000003,0,3260.0001)"
       d="m 133.84375,143.03125 c 0.27227,2.44172 1.41965,2.67575 3.75,3.75 0.20193,2.61616 1.23479,3.90358 2.9375,3.96875 1.70271,0.0652 3.39299,-0.93664 4.375,-3.53125 1.95248,-1.46463 2.85531,-1.67989 2.0625,-4.1875 -1.01859,1.20868 -1.72116,1.53491 -3.75,1.6875 -3.11792,-0.83927 -6.10181,-1.84866 -9.375,-1.6875 z m 7.15625,3.25 c 0.576,0 1.0625,0.41883 1.0625,0.9375 0,0.51867 -0.4865,0.96875 -1.0625,0.96875 -0.576,0 -1.03125,-0.45008 -1.03125,-0.96875 0,-0.51867 0.45525,-0.9375 1.03125,-0.9375 z"
       style="fill:#000000;fill-opacity:1;fill-rule:nonzero;stroke:none" />
    <path
       inkscape:connector-curvature="0"
       id="path168"
       transform="matrix(7.3465735,0,0,-7.3465735,13.037864,3248.0533)"
       d="m 62.3125,156.75 c -0.152027,0.0136 -0.294934,0.0417 -0.4375,0.0937 -1.141076,0.41516 -1.479047,1.90259 -0.75,3.90625 l 2.5625,7.03125 c 0.728367,2.00229 2.234468,3.29016 3.375,2.875 1.141076,-0.41516 1.479047,-2.37271 0.75,-4.375 L 65.25,159.25 c -0.637321,-1.75201 -1.873313,-2.59517 -2.9375,-2.5 z m -5.03125,1.96875 c -0.124898,0.0172 -0.223116,0.0498 -0.34375,0.0937 -0.96494,0.35118 -1.416547,1.40396 -0.6875,3.40625 l 2.5,6.8125 c 0.728911,2.00229 2.097424,3.34982 3.0625,3 0.965076,-0.35255 1.166411,-2.24771 0.4375,-4.25 l -2.5,-6.84375 c -0.637916,-1.7532 -1.594465,-2.33921 -2.46875,-2.21875 z m -3.9375,2.8125 c -0.272988,-0.0101 -0.542782,0.0579 -0.8125,0.15625 -1.079415,0.39202 -1.666003,1.40396 -0.9375,3.40625 l 1.9375,5.3125 c 0.728911,2.00229 2.201835,3.29963 3.28125,2.90625 1.079279,-0.39202 1.353911,-2.34146 0.625,-4.34375 L 55.5,163.65625 c -0.546786,-1.50274 -1.337285,-2.0947 -2.15625,-2.125 z M 48.5625,164.75 c -0.128491,0.016 -0.274998,0.0461 -0.40625,0.0937 -1.050148,0.38249 -1.791411,1.59146 -1.0625,3.59375 l 1.21875,3.34375 c 0.728367,2.00229 2.168601,3.28874 3.21875,2.90625 1.050149,-0.38249 1.322797,-2.31021 0.59375,-4.3125 l -1.21875,-3.3125 c -0.637916,-1.7532 -1.444316,-2.42424 -2.34375,-2.3125 z"
       style="fill:#ffe0ac;fill-opacity:1;fill-rule:nonzero;stroke:none" />
    <path
       sodipodi:nodetypes="cccccccccccczccccccccccccccccczcccccccczcczccc"
       inkscape:connector-curvature="0"
       d="M 499.99806,2111.6417 551.406,2091.93 c 42.9407,-26.5981 55.07225,-72.4974 69.13665,-112.7701 -9.40147,-42.873 -37.83391,-68.2046 -66.30065,-99.7299 28.79498,-66.2196 58.47761,-85.733 88.168,-124.51 l 5.09,7.81 c 5.80285,8.9003 11.60655,17.8001 17.41,26.7 13.75,52.5 67.5,70 67.5,70 l 27.5,47.5 c 6.84413,76.1137 84.45333,92.563 138.996,95 l 47.5,12.5 392.504,-10 c 24.4573,16.2729 50.4784,13.2262 88.1701,2.8433 37.6917,-10.383 56.0772,-51.746 74.3299,-95.3433 40.9079,-35.5452 68.1625,-80.2217 97.5,-125 41.8737,-64.6187 50.6205,-133.1222 61.875,-207.5 -5.625,-27.5 -101.875,-107.5 -101.875,-107.5 l -112.5,-67.5 c -25.5703,-49.8865 -51.1776,-29.4587 -77.5,-45 l -5.0768,-53.464 -189.9232,52.214 -241.86284,-19.332 -38.14116,49.332 -10,135 c -31.92028,92.2491 -38.74521,163.1513 -22.5,252.5 l -2.5,15 c -19.0405,-18.4386 -21.68171,-83.4063 -22.02331,-93.9407 L 818.906,1678.18 c -54.70111,-52.679 -98.59059,-118.501 -160,-163.75 -48.98877,10.0772 -70.93429,41.4873 -108.75,93.75 -45.92104,84.4981 -50.85677,155.2873 -68.55138,200.3125 -17.6946,45.0252 -27.69862,73.4375 -27.69862,73.4375 -20.96174,16.394 -53.10056,19.1515 -62.5,45 48.04695,11.7999 96.45879,21.6989 143.75,36.25 23.09849,32.0529 16.04993,58.4759 -15.18008,68.2733 -13.0478,37.5631 -26.23519,64.2303 -19.97786,80.1884 z M 1348.61,1518.62 c 40.96,40.45 35.3,-11.69 35.3,-11.69 40.109,11.8742 64.1292,63.3741 75,80 10.8708,16.6259 45,37.5 45,37.5 l 1.49,30 c -31.51,8.5392 -56.6363,23.3549 -76.49,47.5 -19.8537,24.1451 -22.6118,55.4471 -30,85 l -17.5,2.5 c 11.8352,-73.5618 0.7799,-138.9903 -15,-210 -6.7565,-20.0441 -12.421,-40.3697 -17.8,-60.81 z"
       style="fill:#ffe0ac;fill-opacity:1;fill-rule:evenodd;stroke:none"
       id="path184" />
    <path
       sodipodi:nodetypes="cccccccczczczczcczcccccccccccccccccccccccccscczcccccczzcccccc"
       inkscape:connector-curvature="0"
       d="m 834.16,1156.93 c 0,0 -52.109,-137.36 -30.254,-332.5 0,0 12.5,-27.5 0,-45 0,0 -22.5,-15 -10,-50 0,0 17.5,-30 0,-50 0,0 -36.543,-29.559 -22.793,-255.809 0,0 5.293,-61.691 -29.707,-91.691 l -65.56909,-60.54397 c 0,0 -22.24964,-22.89121 -8.26761,-32.09675 13.98204,-9.20553 28.8367,7.64072 28.8367,7.64072 0,0 -9.16254,-22.24558 0.18718,-27.50378 9.34972,-5.2582 27.31282,2.50378 27.31282,2.50378 0,0 -5.78541,-14.14834 6.92713,-20.43593 12.71254,-6.28759 27.2299,7.44976 27.2299,7.44976 0,0 -8.1164,-17.72708 2.98996,-23.71908 11.10636,-5.99199 22.48247,7.06122 32.38426,25.14275 0,0 5.90279,1.42556 4.21875,-23.4375 0,0 -0.84639,-19.52148 13.39366,-21.80749 14.24005,-2.28601 25.0234,3.9017 32.85634,25.55749 l 5,28.75 17.078,18.75 11.672,36.25 20,21.25 c 0,0 16.25,18.75 -2.5,55 0,0 -23.75,28.75 3.75,83.75 0,0 82.207,119.191 55.957,227.941 0,0 -0.957,40.809 17.793,67.059 l 33.754,108.75 c 5.16,20.039 16.52,24.582 25.61,42.765 0,0 34.09,24.996 50.64,83.485 0,0 22.5,35 31.25,113.75 l 10,18.75 10,-20 c 0,0 22.2,-159.559 60.95,-225.809 0,0 -3.75,-48.75 20,-70 l 5,-50 c 0,0 -35,-155 27.5,-285 0,0 25,-57.5 -0.95,-126.691 0,0 -43.75,-118.75 32.5,-113.75 0,0 60,-5 86.25,20 0,0 25,18.75 51.25,-3.75 0,0 15,-18.75 80,-15 0,0 91.25,-8.75 106.25,18.75 0,0 5.5095,8.65826 2.2283,18.50201 -3.2813,9.84375 -15.3533,20.87299 -58.4783,10.87299 18.2727,10.74323 31.332,11.58811 51.25,9.375 0,0 -0.5504,21.67121 -20.1373,21.46142 -19.5869,-0.20979 -23.1959,-1.04693 -32.3627,-1.46142 0,0 12.08,3.359 15.95,7.941 3.8,4.496 -0.47,10.203 -14.7,12.059 0,0 -93.75,-16.25 -161.25,101.25 0,0 -12.5,58.75 11.25,167.5 0,0 22.5,96.918 -15,98.168 0,0 -37.9906,7.14459 -47.8,9.773 -9.8094,2.62841 -8.369,14.04412 1.781,12.96763 10.15,-1.0765 48.519,-5.90863 48.519,-5.90863 0,0 23.75,-5 17.5,28.75 0,0 -10,101.25 5,123.75 0,0 31.25,28.75 17.5,256.25 l -3.75,26.25 -586,33.75"
       style="fill:#ffe0ac;fill-opacity:1;fill-rule:nonzero;stroke:none"
       id="path188" />
    <path
       sodipodi:nodetypes="ccccccccccccccccccc"
       inkscape:connector-curvature="0"
       d="m 1138.91,1366.93 c 0,0 -127.5,-7.5 -245.004,21.25 l -1.30808,20.6686 c 0,0 -62.35592,19.3314 -61.10592,-46.9186 0,0 1.25,-47.5 -25,-78.75 0,0 -26.25,-18.75 -10,-102.5 0,0 -20.086,-30 49.914,-52.5 0,0 235.004,-150 578.754,-20 0,0 32.5,10 28.75,75 0,0 17.5,132.5 -17.5,135 0,0 -20,2.5 -15,22.5 0,0 2.2,10.44 -18.75,12.5 0,0 -26.79,10.94 -33.75,6.25 -6.45,-4.34 -17.6,-15.63 -26.25,-20 -16.25,-2.5 -26.39,-13.39 -31.25,0 2.93,-2.2 -11.25,15 -11.25,15 -6.28,2.12 -51.15,-3.61 -56.46,-1.8 -11.6,3.97 -19.79,6.8 -19.79,6.8 l -85,7.5"
       style="fill:#00883b;fill-opacity:1;fill-rule:nonzero;stroke:none"
       id="path190" />
    <path
       inkscape:connector-curvature="0"
       id="path194"
       transform="matrix(7.3465735,0,0,-7.3465735,13.037864,3248.0533)"
       d="m 128.25,142.0625 -2.5625,2.03125 1.03125,2.90625 -1.03125,3.40625 c -3.40295,15.14311 -1.03125,14.96875 -1.03125,14.96875 l 1.875,-0.6875 -0.34375,6.8125 c -1.19103,5.95516 0.875,9 0.875,9 l 2.03125,-1.34375 c 0.85074,7.31634 3.21875,8 3.21875,8 l 2.21875,-4.25 c -0.68113,9.3581 2.21875,10.1875 2.21875,10.1875 l 1.875,-3.40625 c -0.51044,8.16707 1.1875,8.53125 1.1875,8.53125 l 1.53125,-4.78125 c 0.68059,7.31634 2.71875,7.65625 2.71875,7.65625 l 1.875,-3.90625 c 0,6.1253 3.0625,6.625 3.0625,6.625 l 0.5,-5.09375 c 1.36118,-5.10442 2.90625,0.6875 2.90625,0.6875 l 0.5,5.4375 c 3.2328,-2.04177 2.90625,-6.8125 2.90625,-6.8125 l 2.1875,2.375 c 2.72236,-1.36118 2.21875,-8.5 2.21875,-8.5 l 2.90625,4.78125 c 2.04177,-1.53133 1.53125,-7.5 1.53125,-7.5 l 1.53125,2.375 c 1.36118,-1.53133 0.5,-5.28125 0.5,-5.28125 L 169.75,187.5 c 1.87162,-4.76413 -0.15625,-10.0625 -0.15625,-10.0625 l 2.21875,0.875 c 1.19103,-2.72236 -0.1875,-6.65625 -0.1875,-6.65625 0.68059,2.21192 2.90625,1.03125 2.90625,1.03125 1.02088,-21.43857 -2.21875,-24.84375 -2.21875,-24.84375 -1.53133,-2.55221 -3.90625,-1.1875 -3.90625,-1.1875 l 0,9.6875 c -6.4656,12.25061 -10.71875,5.09375 -10.71875,5.09375 -3.06265,-3.40295 -5.125,-0.65625 -5.125,-0.65625 -1.70147,2.21192 -3.75,0.34375 -3.75,0.34375 -2.38206,-2.72236 -5.59375,1.34375 -5.59375,1.34375 -8.16707,3.40295 -9.28125,-6.28125 -9.28125,-6.28125 L 133.625,145.03125 132.6875,143.5 128.25,142.0625 z m 22.15625,23.78125 c 1.73251,-0.0732 3.79807,0.15709 6.03125,1.09375 0,0 1.02096,2.27434 -1.53125,1.59375 0,0 -5.10404,-0.83684 -7.65625,-0.15625 0,0 -3.56871,1.6796 -1.65625,-1.4375 0,0 1.92498,-0.97179 4.8125,-1.09375 z"
       style="fill:#000000;fill-opacity:1;fill-rule:evenodd;stroke:none" />
    <path
       inkscape:connector-curvature="0"
       d="m 1034.86,941.121 c -11.25,-22.5 -13.75,-36.25 -15,-62.5 m -72.497,-137.5 -22.5,-55 m -60,80 h -12.5 m 97.5,105 c -71.25,-35 -15,-197.5 -110,-197.5 -8.75,0 -16.25,6.25 -25,7.5 m 90,-95 c -8.75,-40 -12.5,-72.5 -22.5,-115 v -30 m 397.497,5 c 3.75,-17.5 7.5,-61.25 7.5,-82.5 0,-28.75 -15,-42.5 -15,-62.5 0,-18.75 10,-30 25,-32.5 m -30,490 c 5,-32.5 12.5,-42.5 25,-65 m -77.5,260 c 3.75,-58.75 30,-83.75 52.5,-122.5"
       style="fill:none;stroke:#d52e2a;stroke-width:9.79543114;stroke-linecap:round;stroke-linejoin:miter;stroke-miterlimit:3.86370993;stroke-opacity:1;stroke-dasharray:none"
       id="path266" />
    <path
       sodipodi:nodetypes="csscsccccccsccsccccc"
       inkscape:connector-curvature="0"
       d="m 1363.6206,1539.719 c -7.5,-12.5 -25.0106,-32.349 -36.2606,-43.599 -7.5,-7.5 -36.25,-15 -56.25,-15 -32.5,0 -67.5,-22.5 -78.75,-45 -1.25,-22.5 12.5,-27.5 22.5,-27.5 10,0 77.5,25 77.5,26.25 m 11.25,-76.295 c -2.5,-26.25 14.16,-27.175 28.75,-23.705 26.25,6.25 23.75,22.5 45,28.75 17.5,-2.5 41.25,-11.25 58.75,-8.75 m -175,27.5 c -2.5,-26.25 13.75,-25 28.75,-25 27.5,0 31.25,17.5 52.5,23.75 m -110.2414,28.9483 c -2.5,-26.25 13.9914,-26.4483 28.9914,-26.4483 27.5,0 37.5,15 58.75,21.25 m 68.9914,102.7153 c 43.75,-17.5 53.5086,-62.7153 62.2586,-108.9653 m -816.93999,375.2412 c 44.96813,-59.9022 62.20086,-70.2155 74.44299,-146.4912"
       style="fill:none;stroke:#d52e2a;stroke-width:9.79543114;stroke-linecap:round;stroke-linejoin:miter;stroke-miterlimit:3.86370993;stroke-opacity:1;stroke-dasharray:none"
       id="path276" />
    <path
       sodipodi:nodetypes="cccccc"
       inkscape:connector-curvature="0"
       d="m 1124.86,2158.62 c 0,0 0.5689,-52.2495 19.5603,-75.4828 0,0 16.6897,4.2328 22.9397,-5.7672 0,0 0.92,5.92 -21.97,19.02 -12.165,31.8782 -15.53,64.73 -15.53,64.73 z"
       style="fill:#d52e2a;fill-opacity:1;fill-rule:nonzero;stroke:none"
       id="path278" />
    <g
       style="fill:#d52e2a;fill-opacity:1"
       id="g5104">
      <path
         id="path198"
         style="fill:#d52e2a;fill-opacity:1;fill-rule:nonzero;stroke:none"
         d="m 925.406,1799.83 c 31,-13.01 58,-25 89.004,-39 9,-2 24,9 28,-6 0,-13.01 -13,-10 -21,-9 -48.49175,8.6967 -149.25434,70.363 -168.62917,63.6815 -19.37483,-6.6815 -20.37483,0.3185 -19.37483,5.3185 15,8 35,8 51,3 13,-7 28,-11.01 41,-18"
         inkscape:connector-curvature="0"
         sodipodi:nodetypes="cccccccc" />
      <path
         id="path202"
         style="fill:#d52e2a;fill-opacity:1;fill-rule:nonzero;stroke:none"
         d="m 1398.41,1777.83 c -25,-7 -50,10 -76,-1.01 -40,-16.99 -79,-37.99 -123,-45 -5,1.01 -9,8.01 -5,14.01 5,5 12,0 18,0 49.6911,10.5391 107.3921,54.2013 140.807,49.3414 33.4149,-4.86 52.0446,-5.6204 66.4101,-3.5328 4.1243,-13.957 -12.2171,-14.8186 -21.2171,-13.8086 z"
         inkscape:connector-curvature="0"
         sodipodi:nodetypes="ccccczcc" />
      <path
         id="path222"
         style="fill:#d52e2a;fill-opacity:1;fill-rule:nonzero;stroke:none"
         d="m 1012.41,1525.83 c 12.1708,1.1007 12.8406,-9.1161 -1,-13 -13.8406,-3.8839 -18.24211,2.2916 -34.004,15 -10.12024,8.1597 -21.95981,9.3289 -37,11 -4.96942,0.5522 -2.93484,10.0471 4,11 12.55846,1.7256 25.0232,-3.1686 32,-7 11.92207,-6.5471 23.8332,-18.1007 36.004,-17 z"
         inkscape:connector-curvature="0"
         sodipodi:nodetypes="zzssssz" />
      <path
         id="path230"
         style="fill:#d52e2a;fill-opacity:1;fill-rule:nonzero;stroke:none"
         d="m 1124.41,1410.83 c -10,-3 -16.9681,1.2528 -20.4681,17.2528 -3.5,16 9.4681,24.7472 13.4681,30.7472 14,-6 22.054,-19.5087 21.0319,-30.7472 -1.0222,-11.2384 -7.0319,-13.2528 -14.0319,-17.2528 z"
         inkscape:connector-curvature="0"
         sodipodi:nodetypes="czczc" />
      <path
         id="path236"
         style="fill:#d52e2a;fill-opacity:1;fill-rule:nonzero;stroke:none"
         d="m 1118.61,1566.75 c 0,7.25 3.36,13.12 7.5,13.12 4.14,0 7.5,-5.87 7.5,-13.12 0,-7.25 -3.36,-13.13 -7.5,-13.13 -4.14,0 -7.5,5.88 -7.5,13.13"
         inkscape:connector-curvature="0" />
      <path
         id="path238"
         style="fill:#d52e2a;fill-opacity:1;fill-rule:nonzero;stroke:none"
         d="m 1158.61,1546.75 c 0,7.25 3.36,13.12 7.5,13.12 4.14,0 7.5,-5.87 7.5,-13.12 0,-7.25 -3.36,-13.13 -7.5,-13.13 -4.14,0 -7.5,5.88 -7.5,13.13"
         inkscape:connector-curvature="0" />
      <path
         id="path240"
         style="fill:#d52e2a;fill-opacity:1;fill-rule:nonzero;stroke:none"
         d="m 1190.11,1506.75 c 0,5.8 2.69,10.5 6,10.5 3.32,0 6,-4.7 6,-10.5 0,-5.8 -2.68,-10.5 -6,-10.5 -3.31,0 -6,4.7 -6,10.5"
         inkscape:connector-curvature="0" />
      <path
         id="path242"
         style="fill:#d52e2a;fill-opacity:1;fill-rule:nonzero;stroke:none"
         d="m 1066.11,1546.75 c 0,7.25 3.36,13.12 7.5,13.12 4.14,0 7.5,-5.87 7.5,-13.12 0,-7.25 -3.36,-13.13 -7.5,-13.13 -4.14,0 -7.5,5.88 -7.5,13.13"
         inkscape:connector-curvature="0" />
      <path
         id="path244"
         style="fill:#d52e2a;fill-opacity:1;fill-rule:nonzero;stroke:none"
         d="m 1037.61,1506.75 c 0,5.8 2.69,10.5 6,10.5 3.32,0 6,-4.7 6,-10.5 0,-5.8 -2.68,-10.5 -6,-10.5 -3.31,0 -6,4.7 -6,10.5"
         inkscape:connector-curvature="0" />
      <path
         id="path246"
         style="fill:#d52e2a;fill-opacity:1;fill-rule:nonzero;stroke:none"
         d="m 1017.61,1446.75 c 0,5.8 2.69,10.5 6,10.5 3.32,0 6,-4.7 6,-10.5 0,-5.8 -2.68,-10.5 -6,-10.5 -3.31,0 -6,4.7 -6,10.5"
         inkscape:connector-curvature="0" />
      <path
         id="path248"
         style="fill:#d52e2a;fill-opacity:1;fill-rule:nonzero;stroke:none"
         d="m 997.613,1396.75 c 0,5.8 2.687,10.5 5.997,10.5 3.32,0 6,-4.7 6,-10.5 0,-5.8 -2.68,-10.5 -6,-10.5 -3.31,0 -5.997,4.7 -5.997,10.5"
         inkscape:connector-curvature="0" />
      <path
         id="path250"
         style="fill:#d52e2a;fill-opacity:1;fill-rule:nonzero;stroke:none"
         d="m 1217.61,1376.75 c 0,5.8 2.69,10.5 6,10.5 3.32,0 6,-4.7 6,-10.5 0,-5.8 -2.68,-10.5 -6,-10.5 -3.31,0 -6,4.7 -6,10.5"
         inkscape:connector-curvature="0" />
      <use
         style="fill:#d52e2a;fill-opacity:1"
         x="0"
         y="0"
         xlink:href="#path222"
         id="use3267"
         transform="translate(-10.988619,74.47842)"
         width="298.66666"
         height="434.66666" />
      <use
         style="fill:#d52e2a;fill-opacity:1"
         x="0"
         y="0"
         xlink:href="#use3267"
         id="use3280"
         transform="translate(-1.8314366,67.152674)"
         width="298.66666"
         height="434.66666" />
      <use
         style="fill:#d52e2a;fill-opacity:1"
         x="0"
         y="0"
         xlink:href="#path222"
         id="use3293"
         transform="matrix(-1,0,0,1,2261.511,0)"
         width="298.66666"
         height="434.66666" />
      <use
         style="fill:#d52e2a;fill-opacity:1"
         x="0"
         y="0"
         xlink:href="#use3267"
         id="use3295"
         transform="matrix(-1,0,0,1,2261.511,0)"
         width="298.66666"
         height="434.66666" />
      <use
         style="fill:#d52e2a;fill-opacity:1"
         x="0"
         y="0"
         xlink:href="#use3280"
         id="use3297"
         transform="matrix(-1,0,0,1,2261.511,0)"
         width="298.66666"
         height="434.66666" />
    </g>
    <use
       height="434.66666"
       width="298.66666"
       transform="matrix(-1,0,0,1,2231.8022,0)"
       id="use4555"
       xlink:href="#path152"
       y="0"
       x="0" />
  </g>
</svg>
