<svg xmlns:rdf="http://www.w3.org/1999/02/22-rdf-syntax-ns#" xmlns="http://www.w3.org/2000/svg" height="300" width="588" version="1.1" xmlns:cc="http://creativecommons.org/ns#" xmlns:dc="http://purl.org/dc/elements/1.1/" viewBox="0 0 441 225">
 <g transform="translate(0.375 0.005)">
  <path d="m4.875 4.875h430.5v215.24h-430.5z" style="stroke-width:1.1554;fill:#fd2338"/>
  <path d="m4.875 148.38h430.5v71.74h-430.5z" style="stroke-width:1.1554;fill:#fdd954"/>
  <path d="m4.875 4.875h430.5v71.75h-430.5z" style="stroke-width:1.1554;fill:#2861dc"/>
  <path d="m4.875 4.875h430.5v215.24h-430.5z" style="stroke:#000000;stroke-width:2.25;fill:none"/>
  <g transform="translate(54)">
   <path style="fill:#2861dc" d="m100.82 36.617v85.843c0 36.41 29.23 65.92 65.3 65.92 36.08 0 65.31-29.51 65.31-65.92v-85.843z"/>
   <path style="stroke:#000000;stroke-width:1.0576;fill:#000000" d="m166.5 61.547c-0.87-0.461-1.82-0.262-2.74-0.094-1.05 0.231-2.08 0.375-2.92-0.398l-0.02-0.028c1.03-0.023 1.79-0.179 2.72-0.449 1.36-0.39 2.46-0.164 3.75 0.344-0.21 0.23-0.48 0.441-0.79 0.625zm1.16-1.172c-0.03 0.059-0.06 0.113-0.09 0.172l-0.49-0.434c0.69-1.129 0.02-1.414-1.04-2.199-1.49-1.09-3.22-1.258-4.93-0.695-0.97-0.496-1.95-0.485-2.79 0.051-1.28-2.793 0.25-4.348 3.26-4.45 0.62 0.59 1.21 1.223 1.41 2.414v0.016 0.012c0.11 0.332 0.35 0.586 0.71 0.812 0.33 0.215 0.76 0.399 1.28 0.602 1.35 0.554 2.18 1.246 2.58 1.945 0.12 0.207 0.32 1.293 0.1 1.754z"/>
   <path style="stroke-linejoin:round;stroke:#8a7d68;stroke-width:1.0576;stroke-linecap:round;fill:#c2c7c7" d="m145.23 49.93c1.2 1.949 2.06 3.949 4.11 5.781 0.06-0.203 0.14-0.422 0.29-0.645-1.88-1.472-3.04-3.363-4.4-5.136zm41.79 0c-1.36 1.773-2.52 3.664-4.4 5.136 0.15 0.223 0.23 0.442 0.29 0.645 2.05-1.832 2.91-3.832 4.11-5.781zm-21.77 0.132c-1.8-0.042-3.26 0.524-3.32 1.997-0.08 0.132-0.27 0.199-0.2 0.386 0.18 0.172 0.37 0.34 0.54 0.528 0.08-0.016 0.21-0.032 0.34-0.051 1.3-0.211 2.62-0.426 3.77 0.504 0.53 0.363 1.12 0.695 1.89 0.949 0.64 0.207 1.41 0.359 2.42 0.437-0.04-0.023-0.08-0.058-0.12-0.082-0.48-0.328-1.23-0.96-1.18-1.503 0.34 0.421 0.84 0.828 1.41 1.214 0.33 0.157 0.72 0.305 1.09 0.442 0.42 0.125 0.95 0.199 1.47 0.148-0.22-0.25-0.43-0.539-0.59-0.859l-0.49-0.879c0.97 0.336 2.3 0.988 2.95-0.152-0.99 0.64-2.41 0.047-3.6-0.457-1.21-1.477-4.08-2.563-6.38-2.622zm-22.91 1.407c-0.49-0.008-1 0.082-1.48 0.269-0.29 1.055 0.67 1.844 1.72 2.973 0.62 0.598 1.53 0.664 2.34 0.898-0.36-0.011-1.75-0.312-1.68 0.118 0.24 1.109 1.23 2.003 1.96 2.601 0.87 0.383 1.31 0.363 2.1 0.356l-0.17 0.238c-0.26 0.098-0.36 0.211-0.39 0.32 0.25-0.008 0.51-0.019 0.76-0.015 0.97 0 1.96 0.07 2.95 0.183v0.02c0.22-0.024 0.42-0.09 0.57-0.203 0.19-0.153 0.29-0.465 0.34-0.93-0.49-0.285-1.26-0.645-1.73-1.219-0.25-0.305-0.41-0.691-0.35-1.133l-0.14 0.188c-0.43-0.344-0.84-0.68-1.25-1.031-1.38-1.055-2.5-2.493-4.07-3.282-0.48-0.238-0.98-0.343-1.47-0.355zm47.57 0c-0.5 0.008-1 0.113-1.48 0.351-1.56 0.789-2.68 2.227-4.06 3.282-0.42 0.351-0.83 0.691-1.25 1.031l-0.14-0.188c0.06 0.442-0.1 0.828-0.36 1.133-0.46 0.574-1.23 0.934-1.72 1.219 0.05 0.465 0.15 0.777 0.34 0.93 0.15 0.117 0.35 0.179 0.58 0.203v-0.02c0.98-0.113 1.97-0.183 2.94-0.183 0.25 0 0.51 0.007 0.76 0.015-0.04-0.113-0.13-0.222-0.4-0.324l-0.17-0.234c0.8 0.004 1.23 0.027 2.1-0.356 0.74-0.598 1.73-1.492 1.96-2.601 0.08-0.434-1.32-0.133-1.67-0.122 0.8-0.23 1.72-0.296 2.33-0.894 1.05-1.133 2.01-1.918 1.72-2.973-0.48-0.187-0.98-0.281-1.48-0.273zm-46.32 1.504c0.08-0.012 0.16 0 0.24 0.015 0.2 0.039 0.42 0.141 0.61 0.27 3.21 2.215 1.42 3.176 6.03 4.867-3.71-0.074-3.93-2.668-6.23-4.563-0.51-0.343-0.89-0.363-1.12-0.066 0.07-0.34 0.25-0.496 0.48-0.523zm45.07 0c0.22 0.027 0.4 0.183 0.47 0.523-0.22-0.297-0.61-0.277-1.12 0.066-2.3 1.895-2.51 4.489-6.23 4.563 4.61-1.691 2.81-2.652 6.03-4.867 0.19-0.129 0.41-0.231 0.61-0.27 0.08-0.015 0.16-0.027 0.24-0.015zm-24.48 0.132c-0.5 0.012-1 0.09-1.5 0.172-0.04 0.004-0.08 0.008-0.12 0.016 0.37 0.469 0.67 1.055 0.81 1.875 0.08 0.238 0.28 0.43 0.56 0.609 0.3 0.192 0.7 0.364 1.2 0.559 1.44 0.594 2.35 1.34 2.78 2.113 0.45 1.117 0.48 2.703-1.04 3.328-0.2 0.567-0.41 1.153-0.75 1.657-0.54 0.746-1.21 1.3-2.16 1.402-0.48 0.027-0.97 0.012-1.44-0.117 0.29 0.57 0.8 0.769 1.44 0.879 0.57-0.102 1.12-0.235 1.63-0.493 0.66-0.335 1.25-0.878 1.7-1.789l0.19-0.371 0.17 0.371c0.18 0.379 0.29 0.789 0.32 1.215 0.22-0.34 0.37-0.676 0.47-1.011 0.15-0.5 0.19-1.016 0.15-1.524l-0.03-0.473 0.35 0.34c0.5 0.449 0.92 0.942 1.24 1.52 0.24 0.437 0.41 0.922 0.51 1.453 0.32-0.559 0.53-1.16 0.66-1.774 0.16-0.792 0.19-1.617 0.16-2.468l-0.02-0.895 0.4 0.809c0.41 0.832 1 1.812 1.82 2.453 0.04-1.527-0.15-3.047-0.71-4.481-0.41-1.019-1.03-2.207-1.74-3.261-1.32-0.059-2.31-0.25-3.09-0.508-0.82-0.27-1.43-0.617-2-0.996 0-0.004-0.01-0.016-0.01-0.016 0.07 0.137 0.1 0.297 0.1 0.453 0 0.66-0.61 1.184-1.37 1.184s-1.38-0.524-1.38-1.184c0-0.445 0.29-0.84 0.7-1.047zm0.73 0.254c-0.19 0-0.36 0.071-0.48 0.168-0.11 0.098-0.18 0.227-0.18 0.375 0 0.145 0.07 0.289 0.18 0.387 0.12 0.102 0.29 0.152 0.48 0.152 0.18 0 0.35-0.05 0.47-0.152 0.12-0.098 0.19-0.242 0.19-0.387 0-0.148-0.07-0.277-0.19-0.375-0.12-0.097-0.29-0.168-0.47-0.168zm-25.83 0.34c1.53 1.852 3.32 4.016 5.31 5.797 0.07-0.016 0.15-0.039 0.23-0.051 0.3-0.043 0.59-0.09 0.88-0.117-2.36-1.629-4.32-3.707-6.41-5.629zm54.09 0c-2.1 1.922-4.06 4-6.42 5.629 0.29 0.027 0.58 0.07 0.87 0.117 0.09 0.012 0.17 0.035 0.24 0.051 1.99-1.781 3.78-3.945 5.31-5.797zm-29.21 0.117c-0.05 0.102-0.08 0.219-0.08 0.34 0 0.465 0.44 0.844 0.98 0.844 0.53 0 0.96-0.379 0.96-0.844-0.05 0.129-0.14 0.242-0.25 0.336-0.18 0.145-0.4 0.238-0.66 0.238s-0.51-0.093-0.68-0.238c-0.18-0.148-0.28-0.363-0.28-0.59 0-0.031 0.01-0.058 0.01-0.086zm-13.69 0.981c-0.43 0.476-0.64 0.875-0.68 1.199-0.04 0.344 0.08 0.621 0.29 0.879 0.42 0.52 1.24 0.887 1.76 1.199l0.08 0.051v0.102c-0.03 0.605-0.21 1.019-0.5 1.253-0.26 0.2-0.57 0.258-0.9 0.27l0.02-0.02c-1.93-0.222-3.83-0.257-5.66 0.02-0.36 0.051-0.5 0.156-0.64 0.254 0.48 0.312 0.95 0.816 1.4 1.148 0 0.004 0.01-0.004 0.01 0 0.55 0.336 1.04 0.473 1.56 0.61 0.52 0.136 1.07 0.281 1.64 0.656 0.51 0.199 0.9 0.574 1.3 1.082-0.52-0.258-0.95-0.629-1.52-0.793-0.55-0.16-1.27-0.125-2.4 0.391-0.01 0.14 0.03 0.289 0.08 0.437 0.15 0.004 0.26 0.008 0.43 0.016 0.53 0.035 1.19 0.258 1.69 0.812-0.34-0.074-1.11-0.433-1.73-0.472-0.75-0.051-1.24-0.039-1.37-0.036-0.06 0.719 0.1 1.426 0.48 1.926 0.25 0.34 0.5 0.496 1.06 0.981-0.57-0.117-1.06-0.344-1.35-0.844-0.12-0.191-0.22-0.402-0.31-0.625-0.21 0.035-0.39 0.004-0.57-0.016 0.1 0.535 0.24 0.973 0.43 1.215 0.22 0.281 0.47 0.422 0.77 0.492 0.27 0.063 0.56 0.059 0.85 0.051 0.18 0.117 0.39 0.219 0.62 0.305-0.47 0.015-1.03 0.09-1.55-0.035-0.51 0.261-1.01 0.578-1.47 1.031 0.12 0.023 0.27 0.051 0.44 0.086 0.37 0.074 0.82 0.187 1.28 0.285 0.65-0.426 1.32-0.648 2.18-0.387-0.56 0.168-1.12 0.172-1.65 0.438-0.51 0.258-0.99 0.785-1.47 1.93 0.05 0.062 0.11 0.113 0.18 0.167 0.37-0.238 0.71-0.421 1.03-0.543 0.84-0.292 1.82-0.437 2.74-0.082-0.87 0.161-1.65 0.059-2.6 0.407-0.94 0.34-2.08 1.14-3.62 3.058 0.13 0.473 0.47 0.864 1 1.133 0.39 0.199 0.87 0.344 1.37 0.438 0.19-0.536 0.41-0.946 0.66-1.266 0.32-0.414 0.89-1.023 1.96-1.254-0.57 0.512-1.18 0.766-1.69 1.438-0.51 0.664-0.94 1.765-1.1 3.886 1.32 1.121 3.29-0.515 4.09-0.285-0.32 0.184-0.64 0.348-0.83 0.727-0.29 0.492-0.43 1.199-0.22 2.433 0.32 0.086 0.69 0.051 1.1-0.086 0.45-0.148 0.92-0.402 1.34-0.691s0.78-0.594 1.02-0.863c0.13-0.133 0.21-0.25 0.26-0.336 0.05-0.09 0.05-0.125 0.07-0.086l0.27-0.168c0.07 0.144 0.03 0.265-0.04 0.387-0.06 0.125-0.17 0.261-0.3 0.406-0.17 0.187-0.4 0.39-0.66 0.594 1.01 0.941 1.6 0.746 3.69-0.661 0.96-0.66 1.84-1.472 2.6-2.468-0.15 0.742-2.58 2.859-2.44 2.925-0.21 0.411-0.32 0.899-0.43 1.368-0.19 0.746-0.36 1.468-0.9 1.976 0.91-0.094 1.89-0.722 2.82-1.316 0.47-0.297 0.93-0.582 1.36-0.797-0.36-0.856-0.4-1.734-0.2-2.633 0.2-0.953 0.67-1.926 1.31-2.91-0.43-0.043-0.87-0.195-1.33-0.422-1.87 2.613-4.11 2.715-5.8 1.574-3.03-2.054 4.48-1.554-1.44-8.215-1.21-0.98-0.5-2.445 0.4-3.246 0.93-0.183 2.2-0.55 3.24-1.132 0.07 0.043 0.15 0.093 0.22 0.152 0.29 0.226 0.55 0.551 0.69 0.844 0.15 0.293 0.17 0.55 0.07 0.726s-0.34 0.356-0.95 0.422c-0.76-0.101-1.28-0.082-1.57 0.223-0.15 0.156-0.2 0.394-0.17 0.59 0.03 0.195 0.13 0.367 0.25 0.543 0.25 0.347 0.63 0.679 1.07 0.929s0.92 0.414 1.4 0.387c0.14-0.004 0.25 0.055 0.32 0.137 0.09 0.082 0.14 0.214 0.16 0.371 0.03 0.312-0.11 0.738-0.61 1.047-0.05 0.035-0.21 0.035-0.39 0-0.18-0.036-0.41-0.121-0.61-0.219s-0.37-0.199-0.49-0.289c-0.04-0.028-0.06-0.047-0.08-0.067-0.02-0.039-0.01-0.054 0-0.05-0.28-0.848-1.12-1.223-1.49-0.692 0.25 0.18 0.51 0.239 0.67 0.336 0.17 0.102 0.25 0.188 0.29 0.492h0.02c0 0.028-0.02 0.063-0.02 0.082 0.02 0.071 0.06 0.086 0.09 0.121 0.05 0.067 0.11 0.141 0.18 0.204 0.15 0.117 0.36 0.238 0.6 0.351 0.23 0.117 0.48 0.223 0.74 0.274 0.26 0.046 0.53 0.043 0.76-0.102 0.64-0.402 0.91-1.008 0.86-1.539-0.03-0.266-0.09-0.527-0.27-0.711s-0.47-0.277-0.75-0.269c-0.32 0.019-0.74-0.122-1.11-0.336-0.38-0.215-0.7-0.504-0.88-0.762-0.1-0.129-0.18-0.25-0.19-0.32-0.02-0.075 0.02-0.09 0.05-0.122 0.06-0.062 0.39-0.191 1.13-0.082l0.07 0.016v-0.016c0.7-0.078 1.16-0.308 1.37-0.695 0.21-0.383 0.16-0.848-0.03-1.23-0.2-0.387-0.5-0.743-0.85-1.016-0.01-0.012-0.02-0.023-0.03-0.035 1.82-1.293 2.33-3.481-2.86-6.93-0.56-0.371-0.99-1.375-1.17-2.113zm31.71 0c-0.17 0.738-0.61 1.742-1.17 2.113-5.2 3.457-4.68 5.656-2.84 6.945-0.01 0.008-0.02 0.012-0.03 0.02-0.35 0.273-0.65 0.625-0.85 1.012-0.18 0.386-0.25 0.851-0.04 1.234 0.21 0.387 0.67 0.617 1.36 0.695l0.02 0.016 0.05-0.016c0.75-0.109 1.07 0.02 1.14 0.082 0.03 0.032 0.06 0.047 0.05 0.122-0.01 0.07-0.08 0.191-0.17 0.32-0.18 0.258-0.5 0.543-0.88 0.758-0.38 0.214-0.79 0.355-1.11 0.34-0.29-0.008-0.55 0.085-0.73 0.269s-0.26 0.445-0.29 0.711c-0.04 0.531 0.22 1.137 0.87 1.539 0.23 0.145 0.5 0.148 0.75 0.102 0.26-0.051 0.51-0.157 0.75-0.274 0.23-0.113 0.44-0.234 0.59-0.351 0.08-0.063 0.13-0.137 0.19-0.204 0.02-0.035 0.06-0.05 0.08-0.121 0.01-0.019-0.02-0.054-0.02-0.082h0.02c0.05-0.304 0.12-0.39 0.29-0.492 0.16-0.097 0.42-0.156 0.67-0.336-0.67-0.754-1.22 0.153-1.47 0.692 0-0.004 0 0.011-0.01 0.05-0.02 0.02-0.05 0.036-0.09 0.067-0.11 0.09-0.29 0.191-0.49 0.289s-0.42 0.183-0.61 0.219c-0.18 0.035-0.33 0.035-0.39 0-0.49-0.309-0.63-0.735-0.6-1.047 0.01-0.157 0.07-0.289 0.15-0.371 0.08-0.086 0.17-0.141 0.3-0.137 0.48 0.027 0.98-0.137 1.42-0.387 0.44-0.254 0.82-0.582 1.07-0.929 0.12-0.176 0.22-0.348 0.25-0.543 0.03-0.196-0.02-0.434-0.17-0.59-0.29-0.305-0.81-0.324-1.57-0.223-0.61-0.066-0.86-0.246-0.95-0.422-0.1-0.176-0.08-0.433 0.07-0.726 0.14-0.293 0.4-0.618 0.69-0.844 0.06-0.051 0.13-0.094 0.2-0.137 1.04 0.582 2.31 0.934 3.25 1.117 0.89 0.801 1.6 2.266 0.39 3.246-5.92 6.661 1.59 6.161-1.44 8.215-1.69 1.141-3.93 1.039-5.8-1.574-0.45 0.227-0.9 0.379-1.33 0.422 0.64 0.984 1.11 1.957 1.31 2.91 0.2 0.899 0.16 1.777-0.2 2.637 0.43 0.211 0.89 0.496 1.36 0.793 0.93 0.594 1.91 1.222 2.82 1.316-0.54-0.508-0.72-1.234-0.9-1.976-0.12-0.469-0.23-0.957-0.44-1.368 0.15-0.066-2.29-2.183-2.43-2.925 0.76 0.996 1.63 1.808 2.6 2.468 2.08 1.407 2.68 1.602 3.69 0.661-0.26-0.204-0.49-0.407-0.66-0.594-0.14-0.145-0.24-0.281-0.31-0.406s-0.1-0.243-0.03-0.387l0.27 0.168c0.02-0.039 0.02-0.004 0.07 0.086 0.05 0.086 0.13 0.203 0.25 0.336 0.24 0.265 0.61 0.574 1.03 0.863s0.88 0.543 1.34 0.691c0.41 0.137 0.78 0.172 1.09 0.086 0.22-1.234 0.08-1.941-0.21-2.433-0.19-0.379-0.51-0.543-0.83-0.727 0.79-0.23 2.76 1.406 4.09 0.285-0.16-2.121-0.6-3.222-1.1-3.886-0.52-0.672-1.13-0.926-1.69-1.438 1.07 0.231 1.63 0.84 1.96 1.254 0.25 0.32 0.47 0.727 0.66 1.266 0.5-0.094 0.98-0.239 1.37-0.438 0.52-0.269 0.87-0.66 1-1.133-1.55-1.918-2.69-2.718-3.62-3.062-0.95-0.344-1.73-0.242-2.61-0.403 0.93-0.355 1.91-0.21 2.74 0.082 0.33 0.122 0.67 0.305 1.03 0.543 0.07-0.054 0.13-0.109 0.19-0.171-0.48-1.141-0.96-1.668-1.47-1.926-0.53-0.266-1.1-0.274-1.66-0.438 0.86-0.261 1.54-0.039 2.18 0.387 0.47-0.098 0.92-0.211 1.29-0.285 0.17-0.035 0.31-0.063 0.44-0.086-0.47-0.453-0.97-0.77-1.47-1.031-0.52 0.125-1.08 0.05-1.56 0.035 0.24-0.086 0.45-0.188 0.63-0.305 0.29 0.008 0.58 0.012 0.84-0.051 0.3-0.07 0.56-0.211 0.78-0.492 0.19-0.246 0.33-0.68 0.42-1.215-0.19 0.02-0.36 0.051-0.57 0.016-0.09 0.223-0.19 0.434-0.31 0.625-0.29 0.5-0.78 0.727-1.35 0.848 0.56-0.489 0.81-0.641 1.06-0.981 0.38-0.5 0.54-1.207 0.48-1.93-0.13-0.003-0.62-0.011-1.37 0.036-0.63 0.039-1.39 0.398-1.72 0.472 0.49-0.554 1.16-0.777 1.68-0.812 0.17-0.008 0.28-0.012 0.43-0.016 0.05-0.148 0.09-0.297 0.08-0.437-1.13-0.516-1.85-0.547-2.4-0.391-0.57 0.164-1 0.535-1.52 0.793 0.4-0.508 0.79-0.883 1.3-1.078 0.57-0.379 1.12-0.524 1.64-0.66 0.52-0.137 1.02-0.27 1.56-0.61 0-0.004 0.01 0.004 0.02 0 0.44-0.332 0.91-0.836 1.4-1.148-0.15-0.098-0.29-0.203-0.65-0.254-1.83-0.277-3.73-0.242-5.66-0.016l0.02 0.016c-0.33-0.012-0.64-0.07-0.89-0.27-0.3-0.234-0.48-0.644-0.51-1.253v-0.098l0.08-0.051c0.51-0.316 1.34-0.683 1.76-1.203 0.21-0.258 0.33-0.531 0.29-0.879-0.04-0.324-0.24-0.723-0.68-1.199zm-45.14 0.473c-0.54-0.008-1.07 0.105-1.59 0.304-0.3 1.137 0.73 1.981 1.86 3.196 0.66 0.64 1.63 0.71 2.5 0.964-0.38-0.015-1.87-0.328-1.79 0.133 0.25 1.195 1.32 2.145 2.11 2.789 1.11 0.485 1.52 0.379 2.72 0.391-1.45 0.629-1.81 0.492-1.04 1.062 0.5 0.637 1.07 1.196 1.65 1.758 0.32 0.02 0.64 0.102 1.02 0.172-0.1-0.254-0.18-0.551-0.23-0.898l-0.03-0.321 0.27 0.168c0.07 0.039 0.34 0.051 0.63 0-0.12-0.398-0.19-0.832-0.12-1.3l0.02-0.153h0.15s0.34-0.004 0.78 0v-0.015c-0.35-0.161-0.66-0.321-0.83-0.422-1.13-0.66-2.31-1.629-3.57-2.957l-0.01-0.02c-1-1.285-1.81-2.137-2.46-2.57-0.55-0.367-0.94-0.399-1.18-0.082 0.07-0.391 0.28-0.547 0.54-0.559s0.59 0.117 0.86 0.305c0.69 0.457 1.53 1.351 2.56 2.672 1.21 1.289 2.36 2.23 3.44 2.871 0.2 0.117 0.4 0.211 0.6 0.304 0-0.031-0.01-0.07 0-0.101v-0.086l0.08-0.031c0.63-0.297 1.15-0.449 1.61-0.508 0.11-0.016 0.21-0.031 0.32-0.035-0.26-0.094-0.52-0.153-0.78-0.219-0.52-0.137-1.06-0.285-1.66-0.66v-0.016h-0.03c-0.58-0.426-1.16-1.078-1.61-1.285l-0.2-0.117 0.17-0.168c-0.26-0.211-0.52-0.426-0.78-0.645-1.48-1.136-2.71-2.687-4.39-3.531-0.52-0.258-1.06-0.383-1.59-0.39zm58.58 0c-0.53 0.007-1.07 0.132-1.59 0.39-1.69 0.848-2.9 2.395-4.39 3.531-0.26 0.219-0.52 0.434-0.78 0.641l0.17 0.172-0.21 0.117c-0.44 0.207-1.02 0.859-1.6 1.285h-0.03v0.016c-0.6 0.375-1.13 0.523-1.66 0.66-0.26 0.066-0.52 0.125-0.78 0.219 0.11 0.004 0.21 0.019 0.33 0.035 0.44 0.059 0.97 0.211 1.6 0.508l0.09 0.031v0.086c0 0.031-0.01 0.07 0 0.101 0.19-0.093 0.39-0.187 0.59-0.304 1.09-0.641 2.23-1.582 3.45-2.875 1.02-1.317 1.87-2.211 2.55-2.668 0.27-0.188 0.59-0.317 0.86-0.305 0.26 0.012 0.46 0.168 0.54 0.559-0.24-0.317-0.63-0.285-1.18 0.082-0.65 0.433-1.46 1.285-2.45 2.57l-0.02 0.016c-1.25 1.332-2.45 2.297-3.57 2.961-0.17 0.097-0.48 0.261-0.82 0.422-0.01 0.003 0 0.011 0 0.015 0.43-0.004 0.77 0 0.77 0h0.16l0.01 0.153c0.06 0.468 0 0.902-0.12 1.3 0.29 0.047 0.56 0.039 0.63 0l0.27-0.168-0.04 0.321c-0.04 0.347-0.13 0.644-0.22 0.894 0.38-0.066 0.7-0.148 1.02-0.168 0.58-0.562 1.15-1.121 1.66-1.758 0.76-0.57 0.4-0.433-1.05-1.062 1.21-0.012 1.62 0.094 2.72-0.391 0.79-0.644 1.86-1.594 2.11-2.789 0.08-0.461-1.41-0.148-1.79-0.137 0.87-0.25 1.85-0.32 2.5-0.96 1.14-1.219 2.17-2.059 1.86-3.196-0.52-0.199-1.05-0.312-1.59-0.304zm-23.53 6.101c-0.01 0.598-0.07 1.188-0.18 1.758-0.07 0.316-0.16 0.629-0.27 0.93h0.01c-0.01 1.089 0.05 2.136 0.24 3.078 0.56 2.277 2.04 1.91 3.42 1.418-1.56-0.196-2.17-1.594-1.8-2.993 0.19-0.707 0.3-1.433 0.35-2.164-0.36-0.234-0.66-0.503-0.93-0.808-0.33-0.371-0.59-0.789-0.83-1.219zm-37.94 0.219c3.04 1.863 5.46 4.183 9.18 5.547-0.03 0.019-0.07 0.035-0.1 0.051-1.06-0.157-2.08-0.379-3.01-0.661-1.69-0.425-3.29-1.297-5.04-1.402-1.07-0.066-1.99 0.355-2.74 1.082 0.16 1.082 1.33 1.418 2.74 2.043 0.8 0.309 1.67 0.02 2.5-0.082-0.32 0.125-1.72 0.394-1.48 0.758 0.65 0.929 1.91 1.363 2.82 1.625 1.12 0.011 1.43-0.227 2.47-0.66-1.01 1.07-1.38 1.078-0.51 1.285 0.67 0.355 1.37 0.629 2.08 0.894 0.22-0.086 0.53-0.105 0.86-0.117 0.37-0.359 0.71-0.66 1.03-0.894-0.09-0.075-0.17-0.149-0.23-0.239l-0.06-0.05 0.02-0.086c0.31-0.77 0.65-1.305 1-1.672-0.81 0.246-1.82 0.136-2.23 0.086-1.21-0.157-2.57-0.539-4.13-1.219l-0.01-0.016c-1.32-0.734-2.34-1.168-3.05-1.301-0.6-0.117-0.96 0.012-1.04 0.372-0.13-0.543 0.22-0.743 0.66-0.762 0.14-0.004 0.3 0.008 0.45 0.035 0.75 0.141 1.8 0.582 3.16 1.336 1.51 0.656 2.84 1.051 4.01 1.199 0.52 0.067 1 0.074 1.45 0.051-0.09-0.02-0.21-0.035-0.29-0.051-0.21-0.043-0.4-0.094-0.54-0.117-0.13-0.027-0.23-0.035-0.25-0.035l-0.32-0.016 0.2-0.238c0.48-0.539 1.02-0.918 1.56-1.219-0.18-0.101-0.34-0.25-0.49-0.437-0.07-0.078-0.12-0.176-0.17-0.27-0.05-0.008-0.09-0.012-0.14-0.019-0.04 0.035-0.08 0.07-0.11 0.101-2.16 0.039-6.79-3.203-10.25-4.902zm64.37 0c-3.47 1.699-8.09 4.941-10.25 4.902-0.03-0.031-0.08-0.066-0.11-0.101-0.05 0.007-0.09 0.011-0.14 0.019-0.05 0.094-0.11 0.192-0.17 0.27-0.15 0.187-0.31 0.336-0.49 0.437 0.54 0.301 1.08 0.68 1.55 1.219l0.21 0.234-0.32 0.02c-0.02 0-0.12 0.008-0.26 0.031-0.13 0.027-0.32 0.078-0.54 0.121-0.08 0.016-0.19 0.031-0.28 0.051 0.45 0.023 0.93 0.016 1.45-0.051 1.16-0.148 2.49-0.543 4-1.199 1.35-0.754 2.41-1.195 3.16-1.336 0.16-0.031 0.32-0.039 0.46-0.035 0.43 0.019 0.78 0.219 0.66 0.762-0.09-0.36-0.45-0.489-1.05-0.372-0.71 0.133-1.72 0.567-3.04 1.301l-0.02 0.016c-1.56 0.68-2.92 1.062-4.12 1.219-0.41 0.05-1.43 0.16-2.23-0.086 0.34 0.371 0.68 0.902 0.99 1.672l0.02 0.086-0.05 0.05c-0.07 0.09-0.15 0.168-0.24 0.239 0.33 0.234 0.67 0.535 1.03 0.894 0.34 0.012 0.64 0.031 0.87 0.117 0.7-0.265 1.41-0.539 2.07-0.894 0.87-0.207 0.51-0.215-0.5-1.285 1.04 0.433 1.34 0.671 2.47 0.66 0.91-0.262 2.17-0.692 2.82-1.621 0.23-0.368-1.16-0.633-1.49-0.762 0.83 0.102 1.7 0.394 2.5 0.086 1.41-0.629 2.58-0.965 2.74-2.047-0.75-0.727-1.67-1.148-2.74-1.082-1.75 0.105-3.35 0.977-5.04 1.402-0.92 0.285-1.95 0.504-3.01 0.661-0.03-0.012-0.07-0.032-0.1-0.051 3.72-1.364 6.14-3.68 9.18-5.543zm-29.32 0.863c0 0.383-0.07 0.766-0.18 1.149-0.03 0.109-0.08 0.214-0.12 0.324h0.05c0.17 1.219 0.04 2.203-0.23 3.039 0.35 1.324 0.77 2.566 1.32 3.637 0.32 0.644 0.71 1.234 1.14 1.738 1.32 1.43 3.16 0.426 3.13-1.164-0.56 0.918-3.37-0.254-2.72-1.844 0.12-0.305 0.15-0.641 0.25-0.961-0.14-0.375-0.25-0.758-0.34-1.168-0.14-0.715-0.21-1.484-0.23-2.281-0.47 0.859-0.76 1.773-0.76 2.773-0.01 0.727 0.1 1.477 0.33 2.231-0.65-0.735-0.74-1.649-0.74-2.231 0.01-0.761 0.14-1.5 0.44-2.234v-0.066c-0.05-0.707-0.25-1.309-0.54-1.844-0.22-0.399-0.48-0.766-0.79-1.098zm-1.55 1.402c-0.4 0.672-0.9 1.122-1.43 1.438-0.52 0.918-1.09 2.078-1.31 3.195-0.12 0.668-0.13 1.36 0.04 2.063l0.05 0.015c-0.01 0.02-0.03 0.032-0.04 0.051 0.08 0.278 0.17 0.563 0.31 0.844 0.29-0.59 0.74-1.117 1.23-1.688 1.06-1.242 2.28-2.679 2.11-5.242-0.13 0.239-0.3 0.477-0.5 0.711l-0.09 0.117c-0.23 0.664-0.63 1.223-1.01 1.793-0.53 0.793-1.26 1.598-1.37 2.621-0.38-1.285 0.73-2.332 1.05-2.808 0.42-0.629 0.83-1.258 1.03-1.992l0.05 0.015c0.03-0.398-0.01-0.777-0.12-1.133zm-2.03 1.743c-0.27 0.109-0.54 0.187-0.83 0.254-1.38 0.91-2.3 2.152-3.39 3.378-0.46 0.508-1.02 0.766-1.72 0.645 0.25 0.539 0.56 0.832 1.19 0.809 0.65-0.11 1.26-0.473 1.88-0.996 0.7-0.606 1.4-1.422 2.07-2.348 0.22-0.594 0.5-1.168 0.8-1.742zm2.86 1.976c-0.45 0.969-1.08 1.723-1.68 2.418-0.57 0.672-1.09 1.297-1.31 1.996l-0.16 0.422-0.17-0.305c-0.13 0.481-0.21 0.969-0.25 1.454-0.05 0.609-0.02 1.203 0.1 1.808-0.5-0.597-0.54-1.277-0.49-1.844 0.05-0.628 0.19-1.253 0.39-1.89-0.09-0.188-0.16-0.375-0.22-0.559-0.22 0.309-0.48 0.567-0.74 0.828-0.32 0.309-0.64 0.629-0.9 1.047 0.02 1.586 0.25 2.942 0.83 3.957 0.11 0.196 0.25 0.387 0.39 0.555 1.39-0.867 1.66-2.563 1.99-4.594 0.09-0.547 0.18-1.109 0.31-1.711l0.17-0.844 0.21 0.829v0.019c0.17 0.602 0.22 1.223 0.27 1.86 0.07 0.679 0.13 1.375 0.32 2.011 0.13-0.418 0.28-0.793 0.43-1.168 0.25-0.636 0.52-1.273 0.62-2.097l0.07-0.539 0.29 0.472c0.29 0.449 0.36 0.985 0.42 1.539 0.04 0.336 0.09 0.672 0.19 0.996 0.05-0.48 0.07-0.988 0.07-1.519v-0.645l0.03-0.015 0.34 0.574c0.73 1.215 1.5 2 2.33 2.367 0.63 0.281 1.31 0.309 2.01 0.086-1.13-0.316-2.01-0.922-2.74-1.793-0.78-0.668-1.41-1.527-1.92-2.535-0.48-0.949-0.87-2.027-1.2-3.18zm-3.94 0.762c-0.5 0.621-1 1.18-1.52 1.621-0.5 0.422-1 0.742-1.52 0.93v0.425l-0.02 0.133-0.02 0.137-0.01 0.133-0.07 0.273-0.04 0.133-0.03 0.137-0.04 0.133-0.04 0.136-0.05 0.137-0.05 0.133-0.05 0.137-0.08 0.132-0.06 0.137-0.05 0.137-0.07 0.117-0.07 0.137-0.05 0.117-0.05 0.035-0.2 0.184-0.2 0.187-0.23 0.168-0.2 0.153-0.23 0.136-0.22 0.133-0.48 0.203-0.23 0.086-0.24 0.066-0.08 0.016c0.7 0.227 1.37 0.199 2.01-0.082 0.8-0.355 1.55-1.105 2.26-2.25l0.14-0.082 0.03-0.019c0.26-0.391 0.58-0.7 0.88-0.997 0.33-0.328 0.66-0.64 0.9-1.066-0.18-0.734-0.17-1.461-0.04-2.16 0.01-0.031 0.01-0.059 0.02-0.086zm2.23 3.922c-0.04 0.222-0.08 0.457-0.12 0.676-0.34 2.105-0.63 3.855-2.13 4.816 0.47 0.461 1.07 0.789 1.83 0.965 1.15-0.266 1.93-0.91 2.45-1.809 0.33-0.578 0.54-1.25 0.67-2.027l-0.06 0.016c-0.3-0.516-0.37-1.075-0.43-1.625-0.03-0.274-0.06-0.543-0.12-0.793-0.14 0.554-0.33 1.027-0.53 1.503-0.22 0.536-0.43 1.082-0.56 1.723l-0.1 0.578-0.27-0.543c-0.41-0.843-0.49-1.769-0.57-2.687-0.02-0.266-0.04-0.535-0.07-0.793zm-23.65 0.539c-2.91 0.449-5.89 0.519-8.88 0.508 2.5 0.504 5.37 0.355 8.2 0.289l0.03-0.035c0.22-0.274 0.44-0.528 0.65-0.762zm46.41 0c0.21 0.234 0.42 0.488 0.64 0.762l0.04 0.035c2.82 0.066 5.7 0.215 8.19-0.289-2.98 0.011-5.96-0.059-8.87-0.508zm-26.86 0.797c-0.83 1.121-1.54 2.285-2.06 3.515-0.55 1.305-0.91 2.688-0.95 4.172-0.57-1.246 0.31-3.664 0.58-4.308 0.32-0.75 0.71-1.489 1.15-2.2-0.29 0.235-0.58 0.426-0.88 0.559-0.37 0.164-0.75 0.254-1.13 0.273-0.69 1.008-1.18 1.993-1.39 2.957-0.29 1.333 0.11 2.547 0.83 3.684 0.12 0.199 0.25 0.363 0.37 0.492 0.43-0.586 1-0.859 1.59-1.152 0.66-0.328 1.36-0.688 1.87-1.535-0.09-0.363-0.11-0.723-0.08-1.082 0.06-0.707 0.33-1.414 0.84-2.114-0.45-0.898-0.67-1.996-0.74-3.261zm7.32 0c-0.06 1.265-0.29 2.363-0.74 3.261 0.51 0.7 0.79 1.407 0.84 2.114 0.03 0.359 0.01 0.719-0.08 1.082 0.52 0.847 1.21 1.207 1.87 1.535 0.6 0.293 1.16 0.566 1.59 1.152 0.12-0.129 0.25-0.293 0.37-0.492 0.72-1.137 1.12-2.351 0.83-3.684-0.2-0.964-0.7-1.949-1.38-2.957-0.39-0.019-0.77-0.109-1.13-0.273-0.3-0.133-0.6-0.324-0.88-0.559 0.44 0.711 0.83 1.45 1.15 2.2 0.27 0.644 1.14 3.062 0.57 4.308-0.04-1.484-0.37-2.867-0.93-4.172-0.52-1.23-1.24-2.394-2.08-3.515zm-27.45 0.437-0.13 0.035c-2.01 0.938-4.2 1.372-6.39 1.688-1.71 0.336-3.53 0.23-5.16 0.879-0.99 0.398-1.66 1.176-2.02 2.148 0.6 0.914 1.81 0.711 3.36 0.676 0.85-0.059 1.5-0.684 2.21-1.133-0.24 0.258-1.37 1.09-1 1.321 0.99 0.562 2.3 0.421 3.24 0.269 1.01-0.469 1.2-0.824 1.96-1.656-0.46 1.398-0.79 1.551 0.08 1.367 0.76 0.039 1.49-0.008 2.25-0.066 1.67-0.571 2.51-2.317 3.92-3.145h0.02c0.05-0.305 0.11-0.594 0.18-0.844-0.5-0.097-1-0.242-1.42-0.457-0.49-0.254-0.89-0.613-1.1-1.082zm47.57 0c-0.21 0.469-0.61 0.828-1.1 1.082-0.42 0.215-0.92 0.36-1.42 0.457 0.07 0.25 0.13 0.539 0.18 0.844h0.02c1.41 0.828 2.25 2.574 3.92 3.145 0.76 0.058 1.49 0.105 2.25 0.066 0.87 0.184 0.54 0.031 0.08-1.367 0.76 0.832 0.95 1.187 1.96 1.656 0.94 0.152 2.25 0.293 3.24-0.269 0.37-0.231-0.76-1.063-1-1.321 0.71 0.449 1.36 1.074 2.21 1.133 1.55 0.039 2.76 0.238 3.36-0.676-0.36-0.972-1.03-1.75-2.02-2.148-1.63-0.649-3.45-0.543-5.16-0.879-2.19-0.316-4.38-0.75-6.39-1.688zm-47.55 0.864c-0.02 0.066-0.04 0.121-0.07 0.183-0.43 0.934-1.93 1.457-2.45 1.625-1.15 0.371-2.56 0.609-4.26 0.66h-0.01c-1.51-0.101-2.62-0.066-3.32 0.117-0.59 0.157-0.86 0.415-0.79 0.778-0.45-0.586 0.09-0.977 0.69-1.133 0.74-0.191 1.88-0.238 3.43-0.137 1.65-0.047 3.03-0.261 4.14-0.625 1.11-0.359 1.97-0.855 2.64-1.468zm47.53 0c0.67 0.613 1.53 1.109 2.64 1.468 1.11 0.364 2.49 0.578 4.14 0.625 1.54-0.101 2.69-0.054 3.43 0.137 0.6 0.156 1.14 0.547 0.69 1.133 0.07-0.363-0.2-0.621-0.79-0.778-0.7-0.183-1.81-0.218-3.32-0.117h-0.01c-1.7-0.051-3.11-0.289-4.26-0.66-0.52-0.168-2.02-0.691-2.45-1.625-0.03-0.062-0.05-0.117-0.07-0.183zm-45.35 2.316c-1.81 2.297-7.1 5.516-11.65 5.305 3.54 0.695 7.79-0.692 11.77-4.125-0.05-0.039-0.11-0.086-0.15-0.133l-0.05-0.051v-0.066c0.02-0.336 0.04-0.645 0.08-0.93zm43.17 0c0.04 0.285 0.06 0.594 0.08 0.93v0.066l-0.05 0.051c-0.04 0.047-0.1 0.094-0.15 0.133 3.98 3.433 8.23 4.82 11.77 4.125-4.55 0.211-9.84-3.008-11.65-5.305zm-24.29 0.016c-0.4 0.589-0.61 1.187-0.66 1.773-0.1 1.395 1.12 3.223 1.98 4.262 0.42 0.504 0.88 0.961 1.4 1.367 0.52-0.406 0.99-0.863 1.41-1.367 0.86-1.039 2.06-2.867 1.95-4.262-0.04-0.586-0.26-1.184-0.65-1.773-0.56 0.902-1.39 1.543-2.57 1.824l-0.41 2.906v-2.937c-1.12-0.297-1.91-0.922-2.45-1.793zm-15.67 1.148c-0.54 0.234-1.1 0.406-1.64 0.441-0.46 0.024-0.91-0.07-1.28-0.304-0.1 0.047-0.2 0.093-0.31 0.133-2.14 2.417-4.67 3.625-7.48 5.14-1.93 1.16-4.18 1.836-5.87 3.348-1.03 0.918-1.49 2.152-1.5 3.496 1.13 0.844 2.53 0.07 4.39-0.66 1.01-0.449 1.52-1.504 2.18-2.364-0.18 0.418-1.19 1.946-0.64 2.063 1.45 0.246 2.97-0.52 4.04-1.117 1.03-1.016 1.11-1.528 1.66-2.875 0.06 1.898-0.27 2.246 0.71 1.64 0.93-0.285 1.81-0.691 2.7-1.097 2.43-0.985 4.24-3.449 4.92-5.293-0.2 0.101-0.41 0.187-0.61 0.254-0.49 0.164-0.99 0.226-1.42 0.07l-0.08-0.051-0.02-0.086c-0.25-1.34-0.08-2.156 0.25-2.738zm36.75 0c0.33 0.582 0.5 1.398 0.25 2.738l-0.02 0.086-0.08 0.051c-0.43 0.156-0.93 0.094-1.42-0.07-0.2-0.067-0.41-0.153-0.61-0.254 0.68 1.844 2.49 4.304 4.92 5.297 0.89 0.402 1.77 0.808 2.7 1.097 0.98 0.606 0.65 0.258 0.71-1.64 0.55 1.347 0.63 1.855 1.66 2.875 1.07 0.597 2.59 1.363 4.04 1.113 0.55-0.113-0.46-1.645-0.64-2.063 0.66 0.864 1.17 1.918 2.18 2.368 1.86 0.73 3.26 1.504 4.39 0.66-0.01-1.344-0.47-2.578-1.5-3.5-1.69-1.512-3.94-2.188-5.87-3.348-2.81-1.515-5.34-2.723-7.48-5.137-0.11-0.039-0.21-0.089-0.31-0.136-0.37 0.234-0.82 0.328-1.28 0.304-0.54-0.031-1.1-0.203-1.64-0.437zm-39.94 1.523c0.01 0.082 0.02 0.168 0.03 0.25-0.14 1.309-1.7 2.586-2.25 3.012-1.23 0.961-2.84 1.856-4.88 2.668l-0.02 0.02c-1.87 0.543-3.21 1.078-3.97 1.605-0.66 0.453-0.86 0.879-0.61 1.285-0.81-0.511-0.32-1.222 0.34-1.676 0.81-0.558 2.18-1.113 4.11-1.671 1.98-0.789 3.53-1.668 4.73-2.606 1.16-0.906 1.98-1.867 2.51-2.887zm43.13 0c0.54 1.02 1.36 1.981 2.52 2.887 1.2 0.938 2.75 1.817 4.74 2.606 1.92 0.558 3.29 1.113 4.1 1.671 0.66 0.454 1.15 1.165 0.34 1.676 0.25-0.406 0.05-0.832-0.61-1.285-0.76-0.527-2.1-1.062-3.97-1.605l-0.02-0.02c-2.04-0.812-3.65-1.707-4.88-2.668-0.55-0.426-2.11-1.703-2.25-3.012 0.01-0.082 0.03-0.168 0.03-0.25zm-33.45 0.2c-0.81 0.5-1.68 0.914-2.58 1.269-0.59 0.285-0.93 1.488-1.49 2.317-1.63 2.414-3.71 5.109-5.56 6.609-1.68 1.5-3.78 2.578-5.16 4.379-0.84 1.094-1.05 2.394-0.81 3.719 1.27 0.617 2.5-0.411 4.19-1.473 0.91-0.629 1.2-1.75 1.69-2.719-0.1 0.442-0.8 2.117-0.23 2.129 1.46-0.027 2.83-1.055 3.76-1.844 0.83-1.191 0.79-1.703 1.07-3.125 0.42 1.852 0.17 2.243 1.02 1.469 0.86-0.457 1.65-1.012 2.45-1.574 1.33-1.203 2.01-3.258 2.18-3.516 0.03-0.058-0.01-0.215-0.07-0.386-0.27-1.321-0.53-2.696 0-4.11-0.63 0.285-1.26 0.449-1.88 0.356l-0.54-0.082 0.48-0.254c0.76-0.407 0.95-1.235 1.16-2.082 0.09-0.364 0.19-0.731 0.32-1.078zm23.77 0c0.13 0.351 0.23 0.718 0.32 1.082 0.21 0.847 0.4 1.675 1.17 2.082l0.47 0.254-0.54 0.082c-0.61 0.093-1.25-0.071-1.88-0.356 0.53 1.414 0.27 2.789 0 4.11-0.06 0.171-0.1 0.328-0.07 0.386 0.17 0.258 0.85 2.313 2.18 3.516 0.8 0.562 1.59 1.117 2.45 1.574 0.85 0.774 0.6 0.383 1.02-1.473 0.28 1.426 0.25 1.938 1.07 3.129 0.93 0.786 2.3 1.817 3.76 1.84 0.57-0.008-0.13-1.683-0.23-2.129 0.49 0.969 0.78 2.09 1.69 2.723 1.69 1.062 2.92 2.086 4.19 1.469 0.24-1.325 0.03-2.621-0.81-3.719-1.38-1.797-3.48-2.879-5.16-4.375-1.85-1.5-3.93-4.195-5.56-6.609-0.56-0.829-0.9-2.032-1.49-2.317-0.9-0.355-1.77-0.769-2.58-1.269zm-27.42 0.238c-0.04 0.035-0.09 0.066-0.13 0.102-0.09 0.062-0.19 0.109-0.29 0.167-1.96 5.52-8.92 9.204-14.54 12.27 5.66-2.762 12.2-4.609 15.69-12.051-0.3-0.078-0.52-0.285-0.73-0.488zm31.07 0c-0.21 0.207-0.42 0.414-0.73 0.492 3.49 7.442 10.03 9.285 15.69 12.047-5.61-3.063-12.58-6.754-14.54-12.27-0.09-0.058-0.19-0.109-0.28-0.167-0.05-0.036-0.09-0.071-0.14-0.102zm-18.96 0.371c-0.47 1.051-0.81 2.102-0.93 3.145-0.15 1.132-0.03 2.269 0.4 3.398-0.83-1.094-0.87-2.824-0.79-3.43 0.11-0.922 0.39-1.84 0.76-2.758-0.43 0.387-0.91 0.622-1.37 0.848-0.55 0.27-1.07 0.531-1.45 1.047 0.66 1.832 0.43 3.594 2.14 5.086 0.31 0.269 0.6 0.519 0.83 1.016 0.52-0.684 1.13-1.282 1.76-1.879 0.7-0.66 1.41-1.325 1.99-2.145-0.61-0.453-1.14-0.98-1.62-1.555-0.68-0.824-1.24-1.761-1.72-2.773zm6.87 0c-0.47 1.012-1.03 1.949-1.72 2.773-0.48 0.575-1.01 1.102-1.62 1.555 0.58 0.82 1.29 1.485 1.99 2.145 0.63 0.597 1.24 1.191 1.76 1.879 0.23-0.497 0.52-0.747 0.83-1.016 1.71-1.492 1.48-3.254 2.14-5.086-0.38-0.516-0.9-0.777-1.45-1.051-0.46-0.226-0.92-0.457-1.35-0.844 0.37 0.918 0.63 1.836 0.74 2.754 0.07 0.61 0.04 2.34-0.79 3.434 0.43-1.133 0.54-2.266 0.4-3.398-0.12-1.043-0.46-2.094-0.93-3.145zm-11.74 0.828c-0.58 0.86-1.03 1.758-1.27 2.688-0.26 0.961-0.31 1.965-0.06 3.043-0.74-1.157-0.49-2.547-0.34-3.125 0.22-0.825 0.59-1.621 1.05-2.383-0.24 0.14-0.47 0.312-0.73 0.472-0.99 0.637-1.38 0.692-1.6 1.825-0.22 1.125 0 2.238 0.22 3.312 0.18 0.883 0.38 1.731 0.29 2.656 0.47-0.429 0.97-0.793 1.47-1.152 1.7-1.219 3.26-2.328 2.14-5.609l-0.1-0.086c-0.2-0.164-0.42-0.418-0.62-0.742-0.16-0.25-0.3-0.551-0.46-0.895zm16.61 0c-0.15 0.348-0.3 0.649-0.46 0.899-0.19 0.32-0.41 0.574-0.62 0.742l-0.1 0.086c-1.12 3.281 0.44 4.394 2.14 5.609 0.5 0.356 1.01 0.723 1.48 1.149-0.1-0.922 0.1-1.774 0.28-2.653 0.22-1.078 0.44-2.191 0.22-3.312-0.22-1.133-0.59-1.192-1.59-1.828-0.25-0.161-0.5-0.329-0.74-0.473 0.47 0.762 0.83 1.558 1.05 2.383 0.15 0.582 0.4 1.968-0.34 3.129 0.25-1.082 0.2-2.082-0.05-3.043-0.25-0.93-0.69-1.828-1.27-2.688zm-23.14 3.465c0.38 1.367-1.11 3.121-1.6 3.684-1.03 1.179-2.44 2.355-4.29 3.535l-0.02 0.015h-0.02c-1.74 0.887-2.92 1.653-3.58 2.317-0.56 0.566-0.68 1.031-0.36 1.387-0.88-0.352-0.54-1.141 0.02-1.708 0.69-0.703 1.93-1.507 3.72-2.418 1.8-1.144 3.17-2.289 4.17-3.433 1-1.129 1.62-2.254 1.96-3.379zm29.65 0c0.34 1.125 0.97 2.25 1.96 3.383 1 1.14 2.38 2.285 4.17 3.429 1.79 0.911 3.03 1.719 3.72 2.418 0.56 0.567 0.91 1.356 0.02 1.708 0.32-0.356 0.2-0.821-0.36-1.387-0.65-0.664-1.84-1.43-3.58-2.317h-0.02l-0.02-0.015c-1.85-1.18-3.25-2.356-4.29-3.535-0.49-0.559-1.97-2.321-1.6-3.684zm-14.67 0.727v5.507l-0.41-5.355c-0.48 0.566-1.01 1.07-1.54 1.57-0.47 0.446-0.93 0.875-1.35 1.352h0.02c0.02 0.097 0.05 0.25 0.08 0.406 0.22 1.012 0.44 2.016 0.88 2.977v0.015c0.38 0.821 0.93 1.606 1.77 2.317h0.8c0.85-0.711 1.4-1.496 1.77-2.317v-0.015c0.44-0.961 0.67-1.965 0.88-2.977 0.04-0.156 0.07-0.309 0.09-0.406h0.02c-0.42-0.477-0.89-0.906-1.36-1.352-0.57-0.543-1.14-1.094-1.65-1.722zm-6.56 0.285c-0.02 0.097-0.02 0.199-0.05 0.289l0.17 0.015c-0.04-0.093-0.09-0.199-0.12-0.304zm12.83 0c-0.03 0.105-0.07 0.211-0.1 0.304l0.17-0.015c-0.03-0.09-0.05-0.192-0.07-0.289zm-12.9 0.304c-0.37 1.286-1.43 2.039-2.55 2.84 0.19 2.367 1.26 3.418 2.33 4.461 0.3 0.293 0.6 0.578 0.88 0.899h0.95c0.37-0.473 0.75-0.774 1.11-1.067 0.43-0.344 0.85-0.668 1.17-1.25-0.41-0.945-0.62-1.933-0.83-2.926-0.01-0.035-0.03-0.078-0.03-0.117-0.1 0.125-0.18 0.258-0.27 0.391l-0.24 0.32-0.12-0.371c-0.22-0.641-0.53-0.894-0.86-1.184-0.38-0.332-0.79-0.691-1.18-1.574-0.13 1.149-0.2 2.262-0.09 3.297 0.12 1.141 0.45 2.184 1.15 3.043-1.31-0.73-1.48-2.461-1.54-3.008-0.12-1.183-0.03-2.449 0.12-3.754zm12.97 0c0.15 1.305 0.24 2.571 0.11 3.754-0.05 0.547-0.16 2.34-1.53 3.008 0.7-0.859 1.03-1.902 1.14-3.043 0.11-1.035 0.04-2.148-0.08-3.297-0.39 0.883-0.8 1.242-1.18 1.574-0.33 0.29-0.64 0.543-0.87 1.184l-0.11 0.371-0.24-0.32c-0.09-0.133-0.17-0.266-0.27-0.391-0.01 0.039-0.03 0.082-0.04 0.117-0.21 0.993-0.41 1.981-0.82 2.926 0.32 0.578 0.73 0.906 1.16 1.25 0.37 0.293 0.75 0.594 1.12 1.067h0.95c0.28-0.321 0.58-0.606 0.88-0.899 1.07-1.043 2.14-2.094 2.33-4.461-1.12-0.801-2.19-1.554-2.55-2.84zm-17.72 1.977c-0.12 1.93-0.56 4.086-1.18 6.223h1.42c0.03-0.262 0.05-0.52 0.08-0.778v0.778h1.71c-0.13-0.262-0.27-0.516-0.41-0.762-0.51-0.926-1.01-1.816-1.13-3.211-0.05 0.055-0.1 0.109-0.15 0.168l-0.56 0.609 0.22-0.777c0.2-0.719 0.14-1.465 0-2.25zm22.48 0c-0.13 0.785-0.21 1.531-0.01 2.25l0.22 0.777c-0.23-0.258-0.49-0.535-0.71-0.777-0.12 1.395-0.63 2.285-1.14 3.211-0.13 0.246-0.27 0.5-0.4 0.762h1.7c0-0.305 0.01-0.575 0-0.778 0.03 0.258 0.06 0.516 0.09 0.778h1.42c-0.62-2.137-1.04-4.293-1.17-6.223zm-20.65 1.133c-0.37 0.265-0.73 0.554-1.07 0.863l0.12-0.016c0.07 1.454 0.58 2.387 1.1 3.329 0.17 0.3 0.33 0.589 0.49 0.914h1.99c0.05-0.098 0.1-0.2 0.14-0.305-0.12-0.117-0.24-0.223-0.36-0.34-1.08-1.059-2.17-2.117-2.41-4.445zm18.81 0c-0.25 2.328-1.33 3.386-2.42 4.445-0.12 0.117-0.24 0.223-0.35 0.34 0.03 0.105 0.08 0.207 0.13 0.305h2c0.15-0.325 0.32-0.614 0.49-0.914 0.52-0.942 1.03-1.875 1.09-3.329l0.13 0.016c-0.34-0.309-0.7-0.598-1.07-0.863zm-21.26 0.879c-1.81 2.918-4.2 5.265-6.63 7.554 2.14-1.738 4.58-3.047 6.27-5.472zm23.69 0l0.36 2.082c1.69 2.425 4.12 3.734 6.27 5.472-2.43-2.289-4.82-4.636-6.63-7.554zm-14.16 2.453c-0.04 0.597-0.08 1.183-0.08 1.758h1.43c-0.59-0.555-1.02-1.145-1.35-1.758zm4.65 0c-0.33 0.613-0.76 1.203-1.35 1.758h1.43c0-0.575-0.04-1.161-0.08-1.758zm-5.07 0.285c-0.24 0.258-0.5 0.465-0.77 0.676-0.28 0.23-0.57 0.469-0.85 0.797h1.57c0-0.481 0.02-0.977 0.05-1.473zm5.49 0c0.03 0.496 0.05 0.992 0.05 1.473h1.57c-0.29-0.328-0.57-0.567-0.86-0.797-0.26-0.211-0.52-0.418-0.76-0.676z"/>
   <path style="fill:#f5f5f5" d="m166.23 54.152c-0.02 1.61-2.73 1.61-2.74 0-0.01-0.675 0.61-1.222 1.37-1.222s1.37 0.547 1.37 1.222z"/>
   <path style="fill:#000000" d="m145.23 49.93c1.2 1.949 2.06 3.949 4.11 5.781 0.06-0.203 0.14-0.422 0.29-0.645-1.88-1.472-3.04-3.363-4.4-5.136zm41.79 0c-1.36 1.773-2.52 3.664-4.4 5.136 0.15 0.223 0.23 0.442 0.29 0.645 2.05-1.832 2.91-3.832 4.11-5.781zm-21.77 0.132c-1.8-0.042-3.26 0.524-3.32 1.997-0.08 0.132-0.27 0.199-0.2 0.386 0.18 0.172 0.37 0.34 0.54 0.528 0.08-0.016 0.21-0.032 0.34-0.051 1.3-0.211 2.62-0.426 3.77 0.504 0.53 0.363 1.12 0.695 1.89 0.949 0.64 0.207 1.41 0.359 2.42 0.437-0.04-0.023-0.08-0.058-0.12-0.082-0.48-0.328-1.23-0.96-1.18-1.503 0.34 0.421 0.84 0.828 1.41 1.214 0.33 0.157 0.72 0.305 1.09 0.442 0.42 0.125 0.95 0.199 1.47 0.148-0.22-0.25-0.43-0.539-0.59-0.859l-0.49-0.879c0.97 0.336 2.3 0.988 2.95-0.152-0.99 0.64-2.41 0.047-3.6-0.457-1.21-1.477-4.08-2.563-6.38-2.622zm-22.91 1.407c-0.49-0.008-1 0.082-1.48 0.269-0.29 1.055 0.67 1.844 1.72 2.973 0.62 0.598 1.53 0.664 2.34 0.898-0.36-0.011-1.75-0.312-1.68 0.118 0.24 1.109 1.23 2.003 1.96 2.601 0.87 0.383 1.31 0.363 2.1 0.356l-0.17 0.238c-0.26 0.098-0.36 0.211-0.39 0.32 0.25-0.008 0.51-0.019 0.76-0.015 0.97 0 1.96 0.07 2.95 0.183v0.02c0.22-0.024 0.42-0.09 0.57-0.203 0.19-0.153 0.29-0.465 0.34-0.93-0.49-0.285-1.26-0.645-1.73-1.219-0.25-0.305-0.41-0.691-0.35-1.133l-0.14 0.188c-0.43-0.344-0.84-0.68-1.25-1.031-1.38-1.055-2.5-2.493-4.07-3.282-0.48-0.238-0.98-0.343-1.47-0.355zm47.57 0c-0.5 0.008-1 0.113-1.48 0.351-1.56 0.789-2.68 2.227-4.06 3.282-0.42 0.351-0.83 0.691-1.25 1.031l-0.14-0.188c0.06 0.442-0.1 0.828-0.36 1.133-0.46 0.574-1.23 0.934-1.72 1.219 0.05 0.465 0.15 0.777 0.34 0.93 0.15 0.117 0.35 0.179 0.58 0.203v-0.02c0.98-0.113 1.97-0.183 2.94-0.183 0.25 0 0.51 0.007 0.76 0.015-0.04-0.113-0.13-0.222-0.4-0.324l-0.17-0.234c0.8 0.004 1.23 0.027 2.1-0.356 0.74-0.598 1.73-1.492 1.96-2.601 0.08-0.434-1.32-0.133-1.67-0.122 0.8-0.23 1.72-0.296 2.33-0.894 1.05-1.133 2.01-1.918 1.72-2.973-0.48-0.187-0.98-0.281-1.48-0.273zm-46.32 1.504c0.08-0.012 0.16 0 0.24 0.015 0.2 0.039 0.42 0.141 0.61 0.27 3.21 2.215 1.42 3.176 6.03 4.867-3.71-0.074-3.93-2.668-6.23-4.563-0.51-0.343-0.89-0.363-1.12-0.066 0.07-0.34 0.25-0.496 0.48-0.523zm45.07 0c0.22 0.027 0.4 0.183 0.47 0.523-0.22-0.297-0.61-0.277-1.12 0.066-2.3 1.895-2.51 4.489-6.23 4.563 4.61-1.691 2.81-2.652 6.03-4.867 0.19-0.129 0.41-0.231 0.61-0.27 0.08-0.015 0.16-0.027 0.24-0.015zm-24.48 0.132c-0.5 0.012-1 0.09-1.5 0.172-0.04 0.004-0.08 0.008-0.12 0.016 0.37 0.469 0.67 1.055 0.81 1.875 0.08 0.238 0.28 0.43 0.56 0.609 0.3 0.192 0.7 0.364 1.2 0.559 1.44 0.594 2.35 1.34 2.78 2.113 0.45 1.117 0.48 2.703-1.04 3.328-0.2 0.567-0.41 1.153-0.75 1.657-0.54 0.746-1.21 1.3-2.16 1.402-0.48 0.027-0.97 0.012-1.44-0.117 0.29 0.57 0.8 0.769 1.44 0.879 0.57-0.102 1.12-0.235 1.63-0.493 0.66-0.335 1.25-0.878 1.7-1.789l0.19-0.371 0.17 0.371c0.18 0.379 0.29 0.789 0.32 1.215 0.22-0.34 0.37-0.676 0.47-1.011 0.15-0.5 0.19-1.016 0.15-1.524l-0.03-0.473 0.35 0.34c0.5 0.449 0.92 0.942 1.24 1.52 0.24 0.437 0.41 0.922 0.51 1.453 0.32-0.559 0.53-1.16 0.66-1.774 0.16-0.792 0.19-1.617 0.16-2.468l-0.02-0.895 0.4 0.809c0.41 0.832 1 1.812 1.82 2.453 0.04-1.527-0.15-3.047-0.71-4.481-0.41-1.019-1.03-2.207-1.74-3.261-1.32-0.059-2.31-0.25-3.09-0.508-0.82-0.27-1.43-0.617-2-0.996 0-0.004-0.01-0.016-0.01-0.016 0.07 0.137 0.1 0.297 0.1 0.453 0 0.66-0.61 1.184-1.37 1.184s-1.38-0.524-1.38-1.184c0-0.445 0.29-0.84 0.7-1.047zm0.73 0.254c-0.19 0-0.36 0.071-0.48 0.168-0.11 0.098-0.18 0.227-0.18 0.375 0 0.145 0.07 0.289 0.18 0.387 0.12 0.102 0.29 0.152 0.48 0.152 0.18 0 0.35-0.05 0.47-0.152 0.12-0.098 0.19-0.242 0.19-0.387 0-0.148-0.07-0.277-0.19-0.375-0.12-0.097-0.29-0.168-0.47-0.168zm-25.83 0.34c1.53 1.852 3.32 4.016 5.31 5.797 0.07-0.016 0.15-0.039 0.23-0.051 0.3-0.043 0.59-0.09 0.88-0.117-2.36-1.629-4.32-3.707-6.41-5.629zm54.09 0c-2.1 1.922-4.06 4-6.42 5.629 0.29 0.027 0.58 0.07 0.87 0.117 0.09 0.012 0.17 0.035 0.24 0.051 1.99-1.781 3.78-3.945 5.31-5.797zm-42.9 1.098c-0.43 0.476-0.64 0.875-0.68 1.199-0.04 0.344 0.08 0.621 0.29 0.879 0.42 0.52 1.24 0.887 1.76 1.199l0.08 0.051v0.102c-0.03 0.605-0.21 1.019-0.5 1.253-0.26 0.2-0.57 0.258-0.9 0.27l0.02-0.02c-1.93-0.222-3.83-0.257-5.66 0.02-0.36 0.051-0.5 0.156-0.64 0.254 0.48 0.312 0.95 0.816 1.4 1.148 0 0.004 0.01-0.004 0.01 0 0.55 0.336 1.04 0.473 1.56 0.61 0.52 0.136 1.07 0.281 1.64 0.656 0.51 0.199 0.9 0.574 1.3 1.082-0.52-0.258-0.95-0.629-1.52-0.793-0.55-0.16-1.27-0.125-2.4 0.391-0.01 0.14 0.03 0.289 0.08 0.437 0.15 0.004 0.26 0.008 0.43 0.016 0.53 0.035 1.19 0.258 1.69 0.812-0.34-0.074-1.11-0.433-1.73-0.472-0.75-0.051-1.24-0.039-1.37-0.036-0.06 0.719 0.1 1.426 0.48 1.926 0.25 0.34 0.51 0.496 1.07 0.981-0.57-0.117-1.06-0.344-1.36-0.844-0.11-0.191-0.21-0.406-0.3-0.625-0.21 0.031-0.39 0.004-0.57-0.02 0.09 0.539 0.23 0.973 0.42 1.219 0.22 0.281 0.47 0.418 0.77 0.492 0.27 0.059 0.56 0.055 0.85 0.047 0.18 0.121 0.39 0.223 0.62 0.305-0.47 0.019-1.03 0.09-1.55-0.031-0.51 0.257-1.01 0.578-1.47 1.031 0.12 0.023 0.27 0.051 0.44 0.082 0.37 0.074 0.82 0.187 1.28 0.289 0.65-0.43 1.32-0.648 2.18-0.391-0.56 0.168-1.12 0.172-1.65 0.442-0.51 0.258-0.99 0.785-1.47 1.926 0.05 0.062 0.11 0.117 0.18 0.168 0.37-0.235 0.71-0.422 1.03-0.54 0.84-0.296 1.82-0.441 2.74-0.085-0.87 0.16-1.65 0.062-2.6 0.406-0.94 0.34-2.08 1.144-3.62 3.058 0.13 0.477 0.47 0.868 1 1.133 0.39 0.203 0.87 0.348 1.37 0.442 0.19-0.539 0.41-0.946 0.66-1.27 0.32-0.41 0.89-1.019 1.96-1.25-0.57 0.512-1.18 0.762-1.69 1.438-0.51 0.66-0.94 1.765-1.1 3.886 1.32 1.121 3.29-0.519 4.09-0.289-0.32 0.188-0.64 0.352-0.83 0.731-0.29 0.492-0.43 1.199-0.22 2.433 0.32 0.086 0.69 0.051 1.1-0.086 0.45-0.148 0.92-0.402 1.33-0.691 0.43-0.289 0.79-0.598 1.03-0.863 0.13-0.133 0.21-0.25 0.26-0.34 0.05-0.086 0.05-0.121 0.07-0.082l0.27-0.172c0.07 0.144 0.03 0.266-0.04 0.391-0.06 0.125-0.17 0.261-0.3 0.406-0.17 0.187-0.41 0.387-0.66 0.59 1.01 0.945 1.6 0.746 3.69-0.657 0.96-0.664 1.84-1.472 2.6-2.468-0.15 0.738-2.58 2.859-2.44 2.922-0.21 0.414-0.32 0.902-0.43 1.371-0.19 0.742-0.37 1.468-0.9 1.976 0.91-0.097 1.89-0.726 2.82-1.316 0.47-0.297 0.93-0.586 1.35-0.797-0.35-0.856-0.39-1.738-0.2-2.637 0.21-0.949 0.67-1.922 1.32-2.906-0.43-0.047-0.88-0.199-1.33-0.422-1.88 2.609-4.11 2.715-5.8 1.57-3.03-2.05 4.47-1.55-1.44-8.214-1.22-0.977-0.5-2.442 0.39-3.243 0.93-0.183 2.21-0.55 3.24-1.132 0.08 0.043 0.15 0.093 0.22 0.152 0.29 0.226 0.55 0.551 0.7 0.844 0.14 0.293 0.16 0.55 0.06 0.726-0.09 0.176-0.34 0.356-0.94 0.422-0.77-0.105-1.28-0.082-1.58 0.219-0.14 0.156-0.19 0.398-0.16 0.594 0.03 0.195 0.13 0.367 0.25 0.539 0.25 0.347 0.63 0.679 1.07 0.929 0.43 0.25 0.91 0.418 1.4 0.391 0.13-0.004 0.24 0.051 0.32 0.133 0.08 0.086 0.14 0.215 0.15 0.375 0.03 0.312-0.11 0.738-0.61 1.047-0.05 0.031-0.2 0.035-0.38 0-0.19-0.036-0.41-0.121-0.61-0.219-0.21-0.102-0.38-0.199-0.5-0.289-0.04-0.031-0.06-0.051-0.08-0.067-0.01-0.039 0-0.054 0-0.05-0.28-0.848-1.12-1.223-1.49-0.696 0.25 0.18 0.52 0.239 0.68 0.34 0.16 0.098 0.24 0.188 0.29 0.488h0.01c0 0.032-0.02 0.067-0.01 0.086 0.02 0.067 0.05 0.082 0.08 0.118 0.06 0.07 0.11 0.144 0.19 0.203 0.15 0.121 0.36 0.242 0.59 0.355s0.49 0.223 0.74 0.27c0.26 0.05 0.53 0.047 0.76-0.102 0.65-0.398 0.91-1.008 0.87-1.535-0.03-0.266-0.1-0.527-0.27-0.711-0.18-0.184-0.47-0.281-0.75-0.269-0.32 0.015-0.74-0.126-1.11-0.34-0.38-0.215-0.7-0.504-0.88-0.762-0.09-0.129-0.18-0.246-0.19-0.32-0.01-0.071 0.02-0.086 0.05-0.118 0.06-0.062 0.39-0.191 1.13-0.086l0.07 0.02v-0.02c0.7-0.078 1.16-0.308 1.37-0.691 0.21-0.387 0.16-0.848-0.03-1.234-0.2-0.387-0.5-0.742-0.85-1.016-0.01-0.008-0.02-0.023-0.03-0.031 1.82-1.293 2.33-3.485-2.86-6.93-0.56-0.371-0.99-1.375-1.17-2.113zm31.71 0c-0.17 0.738-0.61 1.742-1.17 2.113-5.2 3.457-4.68 5.656-2.84 6.945-0.01 0.008-0.02 0.012-0.03 0.02-0.35 0.273-0.65 0.625-0.85 1.012-0.18 0.386-0.25 0.847-0.04 1.234s0.67 0.613 1.36 0.691l0.02 0.02 0.05-0.02c0.75-0.105 1.07 0.024 1.14 0.086 0.03 0.032 0.06 0.047 0.05 0.118-0.01 0.074-0.08 0.195-0.17 0.324-0.18 0.254-0.5 0.543-0.88 0.758-0.38 0.214-0.79 0.355-1.11 0.34-0.29-0.012-0.55 0.085-0.73 0.269s-0.26 0.445-0.29 0.711c-0.04 0.527 0.22 1.137 0.87 1.535 0.23 0.149 0.5 0.152 0.75 0.102 0.26-0.047 0.51-0.157 0.75-0.27 0.23-0.113 0.44-0.234 0.59-0.355 0.08-0.059 0.13-0.133 0.19-0.203 0.02-0.032 0.06-0.051 0.08-0.118 0.01-0.019-0.02-0.054-0.02-0.086h0.02c0.05-0.3 0.12-0.39 0.29-0.488 0.16-0.097 0.42-0.16 0.67-0.34-0.67-0.75-1.22 0.157-1.47 0.696 0.01-0.004 0 0.011-0.01 0.05-0.02 0.016-0.05 0.036-0.09 0.067-0.11 0.09-0.29 0.187-0.49 0.289-0.2 0.098-0.42 0.183-0.61 0.219-0.18 0.035-0.33 0.031-0.39 0-0.49-0.309-0.63-0.735-0.6-1.047 0.01-0.16 0.07-0.289 0.15-0.375 0.08-0.082 0.17-0.137 0.3-0.133 0.48 0.027 0.98-0.137 1.42-0.391 0.44-0.25 0.82-0.582 1.07-0.929 0.12-0.172 0.22-0.344 0.25-0.539 0.03-0.196-0.02-0.438-0.17-0.594-0.29-0.301-0.81-0.32-1.57-0.219-0.61-0.066-0.85-0.246-0.95-0.422-0.09-0.176-0.07-0.433 0.07-0.726 0.15-0.293 0.41-0.618 0.7-0.844 0.06-0.055 0.13-0.098 0.2-0.137 1.03 0.582 2.31 0.934 3.24 1.117 0.89 0.801 1.61 2.266 0.39 3.243-5.91 6.664 1.59 6.164-1.44 8.214-1.68 1.145-3.92 1.039-5.79-1.57-0.46 0.223-0.91 0.375-1.34 0.422 0.65 0.984 1.11 1.957 1.32 2.906 0.19 0.903 0.15 1.781-0.2 2.637 0.42 0.211 0.88 0.5 1.35 0.797 0.93 0.59 1.91 1.219 2.82 1.316-0.54-0.508-0.71-1.234-0.89-1.976-0.12-0.469-0.23-0.957-0.44-1.371 0.14-0.063-2.29-2.184-2.44-2.922 0.76 0.996 1.64 1.808 2.61 2.468 2.08 1.403 2.67 1.602 3.68 0.657-0.25-0.203-0.49-0.403-0.66-0.59-0.13-0.145-0.24-0.281-0.3-0.406-0.07-0.125-0.11-0.247-0.04-0.387l0.27 0.168c0.02-0.039 0.02-0.004 0.07 0.082 0.05 0.09 0.13 0.207 0.25 0.34 0.25 0.265 0.62 0.574 1.03 0.863 0.43 0.289 0.89 0.543 1.34 0.691 0.41 0.137 0.79 0.172 1.1 0.086 0.21-1.234 0.07-1.941-0.22-2.433-0.18-0.379-0.5-0.543-0.83-0.727 0.8-0.234 2.77 1.406 4.09 0.285-0.16-2.121-0.59-3.226-1.1-3.886-0.51-0.672-1.12-0.926-1.69-1.438 1.07 0.231 1.64 0.84 1.96 1.25 0.25 0.324 0.48 0.731 0.66 1.27 0.5-0.094 0.98-0.239 1.37-0.442 0.52-0.265 0.87-0.656 1-1.133-1.54-1.914-2.68-2.718-3.62-3.058-0.95-0.344-1.72-0.246-2.6-0.406 0.92-0.356 1.9-0.211 2.74 0.085 0.32 0.118 0.66 0.305 1.03 0.54 0.07-0.051 0.13-0.106 0.18-0.168-0.48-1.141-0.96-1.668-1.47-1.926-0.53-0.266-1.09-0.274-1.65-0.442 0.86-0.257 1.53-0.035 2.18 0.391 0.46-0.102 0.91-0.211 1.28-0.289 0.17-0.031 0.32-0.059 0.44-0.082-0.46-0.453-0.96-0.774-1.47-1.031-0.52 0.121-1.08 0.05-1.56 0.031 0.24-0.082 0.45-0.184 0.63-0.301 0.3 0.004 0.59 0.008 0.85-0.051 0.3-0.074 0.56-0.211 0.77-0.492 0.2-0.246 0.33-0.68 0.43-1.215-0.19 0.02-0.37 0.051-0.58 0.016-0.09 0.223-0.19 0.434-0.3 0.625-0.3 0.5-0.79 0.727-1.35 0.844 0.55-0.485 0.81-0.641 1.06-0.981 0.37-0.5 0.54-1.207 0.47-1.926-0.12-0.003-0.61-0.015-1.37 0.036-0.62 0.039-1.38 0.398-1.72 0.472 0.49-0.554 1.16-0.777 1.69-0.812 0.17-0.008 0.28-0.012 0.42-0.016 0.05-0.148 0.09-0.297 0.09-0.441-1.14-0.512-1.85-0.547-2.4-0.387-0.57 0.164-1 0.535-1.53 0.793 0.4-0.508 0.8-0.883 1.31-1.082 0.56-0.375 1.11-0.52 1.64-0.656 0.52-0.137 1.01-0.274 1.55-0.61 0-0.004 0.02 0.004 0.02 0 0.45-0.332 0.92-0.836 1.4-1.148-0.15-0.098-0.29-0.203-0.64-0.254-1.83-0.277-3.74-0.242-5.66-0.02l0.01 0.02c-0.32-0.012-0.64-0.07-0.89-0.273-0.29-0.235-0.48-0.645-0.51-1.25v-0.102l0.09-0.051c0.51-0.312 1.33-0.679 1.76-1.199 0.21-0.258 0.32-0.535 0.28-0.879-0.04-0.324-0.24-0.723-0.68-1.199zm-45.14 0.473c-0.54-0.008-1.07 0.105-1.59 0.304-0.3 1.137 0.73 1.977 1.86 3.196 0.66 0.64 1.63 0.71 2.5 0.96-0.38-0.011-1.87-0.328-1.79 0.137 0.25 1.195 1.32 2.145 2.11 2.789 1.11 0.485 1.52 0.379 2.72 0.391-1.45 0.629-1.81 0.492-1.04 1.062 0.5 0.637 1.07 1.196 1.65 1.758 0.32 0.02 0.64 0.102 1.02 0.168-0.1-0.25-0.18-0.547-0.23-0.894l-0.03-0.321 0.27 0.168c0.07 0.039 0.34 0.047 0.63 0-0.12-0.398-0.19-0.832-0.12-1.3l0.02-0.153h0.15s0.34-0.004 0.78 0v-0.015c-0.35-0.161-0.66-0.325-0.83-0.422-1.13-0.664-2.31-1.629-3.57-2.961l-0.01-0.016c-1-1.285-1.81-2.137-2.46-2.57-0.55-0.367-0.94-0.399-1.18-0.082 0.07-0.391 0.28-0.547 0.54-0.559s0.59 0.117 0.86 0.305c0.69 0.453 1.53 1.351 2.56 2.668 1.21 1.293 2.36 2.234 3.44 2.875 0.2 0.117 0.4 0.207 0.6 0.304 0-0.035-0.01-0.07 0-0.101v-0.086l0.08-0.031c0.63-0.297 1.15-0.449 1.61-0.508 0.11-0.016 0.21-0.031 0.32-0.035-0.26-0.094-0.52-0.153-0.78-0.219-0.52-0.137-1.06-0.285-1.66-0.66v-0.016h-0.03c-0.58-0.426-1.16-1.078-1.61-1.285l-0.2-0.117 0.17-0.172c-0.26-0.207-0.52-0.426-0.78-0.641-1.48-1.136-2.71-2.687-4.39-3.531-0.52-0.258-1.06-0.383-1.59-0.39zm58.58 0c-0.53 0.007-1.07 0.132-1.59 0.39-1.69 0.844-2.9 2.395-4.39 3.531-0.26 0.215-0.52 0.434-0.78 0.641l0.17 0.172-0.21 0.117c-0.44 0.207-1.02 0.859-1.6 1.285h-0.03v0.016c-0.6 0.375-1.13 0.523-1.66 0.66-0.26 0.066-0.52 0.125-0.78 0.219 0.11 0.004 0.21 0.019 0.33 0.035 0.44 0.059 0.97 0.211 1.6 0.508l0.09 0.031v0.086c0 0.031-0.01 0.066 0 0.101 0.19-0.097 0.39-0.187 0.59-0.304 1.09-0.641 2.23-1.582 3.45-2.875 1.02-1.317 1.87-2.215 2.55-2.668 0.27-0.188 0.59-0.317 0.86-0.305 0.26 0.008 0.46 0.168 0.54 0.559-0.24-0.321-0.63-0.285-1.18 0.082-0.65 0.433-1.46 1.285-2.45 2.57l-0.02 0.016c-1.25 1.332-2.45 2.297-3.57 2.957-0.17 0.101-0.48 0.265-0.82 0.426-0.01 0.003 0 0.011 0 0.015 0.43-0.004 0.77 0 0.77 0h0.16l0.01 0.153c0.06 0.464 0 0.898-0.12 1.3 0.29 0.047 0.56 0.039 0.63 0l0.27-0.168-0.04 0.321c-0.04 0.347-0.13 0.644-0.22 0.894 0.38-0.066 0.7-0.148 1.02-0.168 0.58-0.562 1.15-1.121 1.66-1.758 0.76-0.57 0.4-0.433-1.05-1.066 1.21-0.008 1.62 0.098 2.72-0.387 0.79-0.644 1.86-1.594 2.11-2.789 0.08-0.465-1.41-0.148-1.79-0.137 0.87-0.25 1.85-0.32 2.5-0.96 1.14-1.219 2.17-2.059 1.86-3.196-0.52-0.199-1.05-0.312-1.59-0.304zm-23.53 6.101c-0.01 0.598-0.07 1.188-0.18 1.758-0.07 0.316-0.16 0.629-0.27 0.93h0.01c-0.01 1.086 0.05 2.136 0.24 3.078 0.56 2.277 2.04 1.906 3.42 1.418-1.56-0.196-2.17-1.594-1.8-2.993 0.19-0.707 0.3-1.433 0.35-2.164-0.36-0.234-0.66-0.503-0.93-0.808-0.33-0.371-0.59-0.789-0.83-1.219zm-37.94 0.219c3.04 1.863 5.46 4.183 9.18 5.547-0.03 0.015-0.07 0.035-0.1 0.051-1.06-0.161-2.08-0.379-3.01-0.661-1.69-0.425-3.29-1.297-5.04-1.402-1.07-0.066-1.99 0.355-2.74 1.082 0.16 1.082 1.33 1.418 2.74 2.043 0.8 0.309 1.67 0.02 2.5-0.082-0.32 0.125-1.72 0.391-1.48 0.758 0.65 0.929 1.91 1.363 2.82 1.625 1.12 0.011 1.43-0.227 2.47-0.66-1.01 1.07-1.38 1.078-0.51 1.285 0.67 0.355 1.37 0.629 2.08 0.894 0.22-0.086 0.53-0.105 0.86-0.117 0.37-0.359 0.71-0.66 1.03-0.898-0.09-0.071-0.17-0.145-0.23-0.235l-0.06-0.05 0.02-0.086c0.31-0.77 0.65-1.305 1-1.672-0.81 0.242-1.82 0.136-2.23 0.086-1.21-0.157-2.57-0.539-4.13-1.219l-0.01-0.016c-1.32-0.734-2.34-1.168-3.05-1.304-0.6-0.114-0.96 0.015-1.04 0.375-0.13-0.543 0.22-0.743 0.66-0.762 0.14-0.008 0.3 0.004 0.45 0.035 0.75 0.141 1.8 0.582 3.16 1.332 1.51 0.66 2.84 1.055 4.01 1.203 0.52 0.067 1 0.074 1.45 0.051-0.09-0.02-0.21-0.035-0.29-0.051-0.21-0.043-0.4-0.094-0.54-0.121-0.13-0.023-0.23-0.031-0.25-0.031l-0.32-0.02 0.2-0.234c0.48-0.539 1.01-0.918 1.56-1.219-0.18-0.101-0.35-0.25-0.49-0.437-0.07-0.082-0.12-0.176-0.17-0.27-0.05-0.008-0.09-0.015-0.14-0.019-0.04 0.035-0.08 0.07-0.11 0.101-2.16 0.039-6.79-3.203-10.25-4.902zm64.37 0c-3.47 1.699-8.09 4.941-10.25 4.902-0.03-0.031-0.08-0.066-0.11-0.101-0.05 0.007-0.09 0.011-0.14 0.019-0.05 0.094-0.11 0.188-0.17 0.27-0.15 0.187-0.31 0.336-0.49 0.437 0.54 0.301 1.08 0.676 1.55 1.219l0.21 0.234-0.32 0.02c-0.02 0-0.12 0.008-0.26 0.031-0.13 0.027-0.32 0.078-0.54 0.121-0.08 0.016-0.19 0.031-0.28 0.051 0.45 0.023 0.93 0.016 1.45-0.051 1.17-0.148 2.49-0.543 4.01-1.203 1.35-0.754 2.41-1.191 3.16-1.332 0.15-0.031 0.31-0.043 0.45-0.035 0.44 0.019 0.78 0.219 0.66 0.762-0.09-0.36-0.44-0.489-1.05-0.375-0.7 0.136-1.72 0.57-3.04 1.304l-0.02 0.016c-1.55 0.68-2.92 1.062-4.12 1.215-0.41 0.054-1.42 0.16-2.23-0.082 0.35 0.367 0.69 0.902 1 1.672l0.01 0.086-0.05 0.05c-0.06 0.086-0.14 0.164-0.23 0.235 0.32 0.238 0.66 0.539 1.03 0.898 0.33 0.012 0.64 0.027 0.86 0.117 0.71-0.265 1.41-0.539 2.08-0.894 0.86-0.207 0.5-0.215-0.51-1.285 1.04 0.433 1.35 0.668 2.47 0.66 0.91-0.262 2.17-0.696 2.82-1.625 0.24-0.367-1.16-0.633-1.48-0.762 0.83 0.106 1.7 0.395 2.5 0.086 1.41-0.625 2.58-0.961 2.73-2.043-0.74-0.727-1.67-1.148-2.73-1.082-1.75 0.105-3.35 0.977-5.04 1.402-0.93 0.282-1.95 0.5-3.01 0.661-0.03-0.016-0.07-0.032-0.1-0.051 3.72-1.364 6.14-3.684 9.18-5.547zm-29.32 0.863c0 0.383-0.07 0.766-0.18 1.149-0.03 0.109-0.08 0.214-0.12 0.32h0.05c0.17 1.223 0.04 2.207-0.23 3.043 0.34 1.324 0.77 2.566 1.31 3.637 0.33 0.644 0.72 1.234 1.15 1.738 1.32 1.43 3.16 0.426 3.13-1.164-0.56 0.918-3.37-0.254-2.72-1.844 0.12-0.305 0.15-0.641 0.25-0.965-0.14-0.371-0.25-0.754-0.34-1.164-0.15-0.719-0.21-1.484-0.23-2.281-0.48 0.855-0.76 1.773-0.77 2.769 0 0.731 0.11 1.481 0.34 2.235-0.66-0.735-0.75-1.649-0.74-2.235 0-0.757 0.14-1.496 0.44-2.23v-0.066c-0.05-0.707-0.25-1.309-0.54-1.844-0.22-0.399-0.48-0.766-0.8-1.098zm-1.55 1.402c-0.4 0.672-0.9 1.118-1.44 1.438-0.51 0.918-1.08 2.078-1.3 3.195-0.13 0.668-0.14 1.36 0.04 2.063l0.05 0.015c-0.01 0.02-0.03 0.032-0.04 0.051 0.07 0.278 0.17 0.559 0.31 0.844 0.28-0.59 0.74-1.117 1.23-1.688 1.06-1.246 2.28-2.683 2.11-5.242-0.14 0.239-0.31 0.473-0.51 0.711l-0.08 0.117c-0.24 0.664-0.63 1.223-1.02 1.793-0.53 0.793-1.26 1.598-1.37 2.621-0.37-1.285 0.74-2.335 1.05-2.808 0.43-0.629 0.83-1.258 1.04-1.992l0.05 0.015c0.02-0.402-0.01-0.777-0.12-1.133zm-2.03 1.743c-0.27 0.109-0.54 0.183-0.83 0.254-1.38 0.91-2.3 2.152-3.39 3.378-0.46 0.508-1.02 0.766-1.71 0.645 0.24 0.539 0.55 0.832 1.18 0.809 0.65-0.11 1.26-0.473 1.88-0.996 0.7-0.606 1.4-1.422 2.07-2.352 0.22-0.59 0.5-1.164 0.8-1.738zm2.86 1.976c-0.45 0.965-1.08 1.723-1.68 2.418-0.57 0.672-1.09 1.297-1.31 1.992l-0.16 0.426-0.17-0.305c-0.13 0.481-0.21 0.969-0.25 1.454-0.05 0.609-0.02 1.203 0.1 1.808-0.5-0.601-0.54-1.277-0.49-1.844 0.05-0.628 0.19-1.253 0.39-1.89-0.09-0.188-0.16-0.379-0.22-0.559-0.22 0.309-0.48 0.567-0.74 0.828-0.32 0.309-0.64 0.629-0.9 1.047 0.02 1.586 0.25 2.942 0.83 3.957 0.11 0.196 0.25 0.387 0.39 0.555 1.39-0.867 1.66-2.563 1.99-4.598 0.09-0.543 0.18-1.105 0.3-1.707l0.18-0.844 0.21 0.829v0.015c0.17 0.606 0.22 1.227 0.27 1.86 0.07 0.683 0.13 1.379 0.32 2.011 0.13-0.414 0.28-0.789 0.43-1.164 0.25-0.636 0.52-1.273 0.62-2.097l0.07-0.539 0.29 0.472c0.29 0.449 0.36 0.985 0.42 1.539 0.04 0.336 0.09 0.668 0.19 0.996 0.05-0.48 0.07-0.988 0.07-1.523v-0.641l0.03-0.015 0.34 0.574c0.73 1.215 1.5 2 2.33 2.367 0.63 0.281 1.31 0.309 2.01 0.082-1.13-0.312-2.01-0.922-2.74-1.789-0.78-0.668-1.41-1.531-1.92-2.535-0.49-0.949-0.87-2.027-1.21-3.18zm-3.94 0.762c-0.5 0.621-1 1.176-1.52 1.621-0.5 0.422-1 0.742-1.52 0.93v0.422l-0.02 0.136-0.02 0.137-0.01 0.133-0.04 0.137-0.03 0.132-0.04 0.137-0.03 0.137-0.04 0.133-0.05 0.136-0.04 0.137-0.05 0.133-0.05 0.137-0.08 0.132-0.06 0.137-0.05 0.137-0.07 0.117-0.07 0.137-0.05 0.117-0.05 0.031-0.2 0.188-0.2 0.187-0.23 0.168-0.2 0.153-0.23 0.132-0.22 0.137-0.48 0.203-0.23 0.086-0.24 0.066-0.08 0.016c0.7 0.227 1.37 0.199 2.01-0.082 0.8-0.355 1.55-1.105 2.26-2.25l0.14-0.082 0.03-0.019c0.26-0.391 0.58-0.7 0.88-0.997 0.33-0.328 0.66-0.64 0.9-1.066-0.18-0.734-0.17-1.461-0.04-2.164 0.01-0.027 0.01-0.055 0.02-0.082zm2.23 3.922c-0.04 0.222-0.08 0.457-0.12 0.676-0.34 2.105-0.63 3.855-2.13 4.816 0.47 0.457 1.07 0.789 1.83 0.965 1.14-0.27 1.93-0.91 2.44-1.809 0.33-0.578 0.54-1.25 0.68-2.031l-0.07 0.02c-0.29-0.516-0.36-1.079-0.42-1.625-0.03-0.274-0.06-0.543-0.12-0.793-0.13 0.554-0.33 1.027-0.52 1.503-0.22 0.536-0.44 1.082-0.56 1.723l-0.1 0.574-0.27-0.539c-0.42-0.843-0.5-1.769-0.58-2.687-0.02-0.266-0.03-0.535-0.06-0.793zm-23.65 0.539c-2.91 0.449-5.88 0.519-8.87 0.508 2.5 0.504 5.37 0.355 8.2 0.289l0.03-0.035c0.22-0.274 0.44-0.528 0.64-0.762zm46.42 0c0.2 0.234 0.42 0.488 0.64 0.762l0.03 0.035c2.83 0.066 5.7 0.215 8.2-0.289-2.99 0.011-5.96-0.059-8.87-0.508zm-26.86 0.797c-0.84 1.121-1.54 2.285-2.06 3.515-0.56 1.305-0.91 2.688-0.95 4.172-0.57-1.246 0.3-3.664 0.57-4.308 0.32-0.75 0.71-1.493 1.16-2.2-0.29 0.235-0.58 0.426-0.88 0.559-0.37 0.164-0.75 0.254-1.14 0.27-0.68 1.011-1.18 1.996-1.39 2.96-0.29 1.333 0.12 2.547 0.83 3.684 0.13 0.199 0.25 0.363 0.37 0.488 0.43-0.582 1-0.855 1.59-1.148 0.67-0.328 1.36-0.688 1.88-1.539-0.09-0.359-0.12-0.719-0.08-1.078 0.05-0.707 0.33-1.414 0.84-2.114-0.45-0.898-0.68-1.996-0.74-3.261zm7.32 0c-0.07 1.265-0.3 2.363-0.75 3.261 0.52 0.7 0.79 1.407 0.85 2.11 0.03 0.363 0.01 0.723-0.09 1.082 0.52 0.851 1.21 1.211 1.88 1.539 0.59 0.293 1.16 0.566 1.59 1.148 0.12-0.125 0.25-0.289 0.37-0.488 0.71-1.137 1.12-2.351 0.83-3.684-0.21-0.964-0.7-1.949-1.39-2.96-0.38-0.016-0.76-0.106-1.13-0.27-0.3-0.133-0.59-0.324-0.88-0.559 0.44 0.711 0.83 1.45 1.15 2.2 0.27 0.644 1.15 3.062 0.57 4.308-0.03-1.484-0.37-2.867-0.92-4.172-0.52-1.23-1.25-2.394-2.08-3.515zm-27.45 0.437-0.14 0.035c-2.01 0.938-4.19 1.372-6.39 1.688-1.7 0.336-3.52 0.23-5.15 0.879-0.99 0.398-1.66 1.172-2.03 2.148 0.6 0.914 1.82 0.711 3.36 0.676 0.86-0.059 1.51-0.684 2.22-1.133-0.24 0.258-1.37 1.09-1 1.321 0.99 0.562 2.3 0.421 3.23 0.269 1.02-0.469 1.21-0.824 1.96-1.656-0.46 1.398-0.79 1.551 0.09 1.367 0.75 0.039 1.49-0.008 2.24-0.066 1.67-0.571 2.51-2.317 3.92-3.145h0.02c0.06-0.305 0.11-0.594 0.19-0.844-0.51-0.097-1.01-0.242-1.42-0.457-0.5-0.254-0.9-0.613-1.1-1.082zm47.56 0c-0.2 0.469-0.61 0.828-1.1 1.082-0.42 0.215-0.91 0.36-1.42 0.457 0.07 0.25 0.13 0.539 0.19 0.844h0.01c1.42 0.828 2.26 2.574 3.93 3.145 0.75 0.058 1.49 0.105 2.25 0.066 0.87 0.184 0.54 0.031 0.08-1.367 0.75 0.832 0.94 1.187 1.96 1.656 0.94 0.152 2.24 0.293 3.23-0.269 0.37-0.231-0.75-1.063-1-1.321 0.71 0.449 1.36 1.074 2.21 1.133 1.55 0.035 2.77 0.238 3.37-0.676-0.37-0.976-1.04-1.75-2.03-2.148-1.63-0.649-3.45-0.543-5.16-0.879-2.18-0.316-4.37-0.75-6.38-1.688zm-47.55 0.864c-0.02 0.066-0.04 0.121-0.07 0.183-0.43 0.934-1.93 1.457-2.45 1.625-1.15 0.375-2.56 0.609-4.26 0.66h-0.01c-1.51-0.101-2.62-0.066-3.32 0.117-0.59 0.157-0.87 0.415-0.79 0.778-0.45-0.586 0.09-0.977 0.69-1.133 0.74-0.191 1.88-0.238 3.43-0.137 1.65-0.047 3.03-0.261 4.14-0.625 1.11-0.359 1.97-0.855 2.64-1.468zm47.53 0c0.67 0.613 1.53 1.109 2.64 1.468 1.11 0.364 2.49 0.578 4.14 0.625 1.54-0.101 2.69-0.054 3.43 0.137 0.6 0.156 1.14 0.547 0.69 1.133 0.07-0.363-0.2-0.625-0.79-0.778-0.7-0.183-1.81-0.218-3.32-0.121h-0.01c-1.7-0.05-3.11-0.285-4.26-0.656-0.52-0.168-2.03-0.691-2.46-1.625-0.02-0.062-0.04-0.117-0.06-0.183zm-45.35 2.312c-1.81 2.301-7.1 5.52-11.65 5.309 3.54 0.695 7.79-0.692 11.77-4.125-0.05-0.039-0.11-0.086-0.15-0.133l-0.05-0.051v-0.066c0.02-0.336 0.04-0.645 0.08-0.93zm43.17 0c0.04 0.289 0.06 0.598 0.08 0.93v0.07l-0.05 0.051c-0.04 0.047-0.1 0.094-0.15 0.133 3.98 3.433 8.23 4.82 11.77 4.125-4.55 0.211-9.84-3.008-11.65-5.305zm-24.29 0.02c-0.4 0.589-0.62 1.187-0.66 1.773-0.1 1.395 1.12 3.223 1.98 4.262 0.42 0.5 0.88 0.961 1.4 1.367 0.52-0.406 0.98-0.867 1.4-1.367 0.87-1.039 2.07-2.867 1.96-4.262-0.04-0.586-0.26-1.184-0.65-1.773-0.56 0.902-1.39 1.543-2.57 1.824l-0.41 2.906v-2.941c-1.12-0.293-1.91-0.918-2.46-1.789zm-15.67 1.148c-0.55 0.234-1.1 0.406-1.64 0.441-0.47 0.02-0.91-0.07-1.29-0.304-0.1 0.043-0.2 0.093-0.3 0.133-2.14 2.417-4.67 3.625-7.49 5.14-1.92 1.16-4.17 1.836-5.86 3.344-1.03 0.918-1.49 2.156-1.51 3.5 1.14 0.844 2.54 0.07 4.4-0.656 1.01-0.453 1.51-1.508 2.18-2.371-0.19 0.418-1.2 1.949-0.65 2.062 1.45 0.246 2.98-0.519 4.04-1.117 1.03-1.02 1.12-1.524 1.66-2.875 0.07 1.902-0.27 2.246 0.71 1.644 0.94-0.289 1.82-0.695 2.71-1.101 2.42-0.985 4.24-3.449 4.91-5.289-0.19 0.097-0.4 0.187-0.6 0.254-0.5 0.164-0.99 0.226-1.42 0.066l-0.09-0.051-0.01-0.082c-0.26-1.343-0.09-2.16 0.25-2.738zm36.74 0c0.34 0.582 0.51 1.398 0.26 2.738l-0.02 0.086-0.09 0.051c-0.43 0.156-0.92 0.094-1.41-0.07-0.21-0.067-0.41-0.153-0.62-0.254 0.68 1.844 2.5 4.304 4.92 5.293 0.89 0.406 1.77 0.812 2.7 1.101 0.98 0.606 0.65 0.258 0.71-1.64 0.55 1.347 0.63 1.855 1.66 2.875 1.07 0.597 2.6 1.363 4.04 1.113 0.55-0.113-0.46-1.645-0.64-2.063 0.66 0.864 1.17 1.918 2.18 2.368 1.86 0.73 3.26 1.504 4.39 0.66-0.01-1.344-0.47-2.578-1.5-3.5-1.69-1.512-3.94-2.188-5.87-3.348-2.81-1.515-5.34-2.723-7.49-5.137-0.1-0.039-0.2-0.089-0.3-0.136-0.37 0.234-0.82 0.328-1.29 0.304-0.53-0.031-1.09-0.203-1.63-0.437zm-39.94 1.52c0.01 0.085 0.03 0.171 0.04 0.253-0.14 1.305-1.71 2.586-2.25 3.012-1.23 0.961-2.85 1.856-4.89 2.668l-0.01 0.02c-1.88 0.543-3.21 1.074-3.98 1.605-0.65 0.449-0.85 0.879-0.6 1.281-0.81-0.507-0.32-1.218 0.34-1.672 0.8-0.558 2.18-1.113 4.1-1.671 1.98-0.793 3.54-1.668 4.74-2.606 1.16-0.906 1.97-1.867 2.51-2.89zm43.14 0c0.54 1.023 1.35 1.984 2.52 2.89 1.19 0.938 2.75 1.813 4.73 2.606 1.92 0.558 3.3 1.113 4.11 1.671 0.65 0.454 1.14 1.165 0.33 1.672 0.25-0.402 0.05-0.832-0.6-1.281-0.77-0.531-2.1-1.062-3.98-1.605l-0.01-0.02c-2.04-0.812-3.65-1.707-4.89-2.668-0.54-0.426-2.1-1.707-2.25-3.012 0.01-0.082 0.03-0.168 0.04-0.253zm-33.45 0.203c-0.82 0.5-1.69 0.914-2.59 1.269-0.59 0.285-0.93 1.488-1.49 2.317-1.62 2.414-3.71 5.109-5.56 6.609-1.67 1.5-3.77 2.578-5.15 4.379-0.84 1.094-1.05 2.394-0.81 3.719 1.27 0.617 2.5-0.411 4.19-1.473 0.9-0.629 1.2-1.75 1.69-2.719-0.1 0.442-0.8 2.117-0.24 2.129 1.47-0.027 2.83-1.055 3.77-1.844 0.82-1.191 0.78-1.703 1.07-3.125 0.41 1.852 0.17 2.243 1.01 1.469 0.87-0.457 1.66-1.012 2.45-1.574 1.33-1.203 2.01-3.258 2.18-3.516 0.04-0.058 0-0.218-0.06-0.386-0.27-1.321-0.54-2.696 0-4.11-0.63 0.285-1.27 0.449-1.88 0.356l-0.54-0.086 0.47-0.25c0.76-0.41 0.96-1.235 1.17-2.082 0.09-0.364 0.18-0.731 0.32-1.082zm23.76 0c0.14 0.351 0.23 0.718 0.32 1.082 0.21 0.847 0.41 1.672 1.17 2.082l0.47 0.25-0.54 0.086c-0.61 0.093-1.24-0.071-1.87-0.356 0.53 1.414 0.27 2.789 0 4.11-0.07 0.168-0.1 0.328-0.07 0.386 0.16 0.258 0.85 2.313 2.18 3.516 0.8 0.562 1.59 1.117 2.45 1.574 0.85 0.774 0.6 0.383 1.01-1.473 0.29 1.426 0.25 1.938 1.07 3.129 0.94 0.786 2.3 1.817 3.77 1.84 0.56-0.008-0.14-1.683-0.24-2.129 0.49 0.969 0.78 2.09 1.69 2.723 1.69 1.062 2.92 2.086 4.2 1.469 0.23-1.325 0.02-2.621-0.82-3.719-1.38-1.797-3.48-2.879-5.15-4.375-1.85-1.5-3.94-4.195-5.56-6.609-0.56-0.829-0.9-2.032-1.49-2.317-0.91-0.355-1.77-0.769-2.59-1.269zm-27.41 0.238c-0.05 0.035-0.09 0.066-0.14 0.102-0.09 0.062-0.19 0.109-0.29 0.167-1.95 5.52-8.92 9.204-14.53 12.27 5.66-2.762 12.19-4.605 15.68-12.051-0.3-0.074-0.51-0.285-0.72-0.488zm31.06 0c-0.21 0.207-0.42 0.414-0.72 0.488 3.48 7.446 10.02 9.289 15.68 12.051-5.61-3.066-12.57-6.754-14.53-12.27-0.1-0.058-0.2-0.109-0.29-0.171-0.05-0.032-0.09-0.067-0.14-0.102zm-18.96 0.371c-0.47 1.051-0.8 2.102-0.93 3.145-0.14 1.132-0.03 2.265 0.4 3.398-0.83-1.094-0.86-2.824-0.79-3.434 0.11-0.918 0.39-1.836 0.76-2.754-0.43 0.387-0.91 0.618-1.37 0.844-0.54 0.274-1.07 0.535-1.45 1.051 0.66 1.832 0.43 3.594 2.15 5.086 0.3 0.269 0.59 0.519 0.83 1.016 0.51-0.684 1.12-1.282 1.75-1.879 0.7-0.66 1.42-1.325 2-2.145-0.61-0.453-1.15-0.98-1.63-1.555-0.68-0.824-1.24-1.761-1.72-2.773zm6.88 0c-0.48 1.012-1.04 1.949-1.73 2.773-0.47 0.575-1.01 1.102-1.62 1.555 0.58 0.82 1.3 1.485 1.99 2.145 0.63 0.597 1.24 1.191 1.76 1.879 0.24-0.497 0.53-0.747 0.83-1.016 1.72-1.492 1.49-3.254 2.15-5.086-0.38-0.516-0.91-0.777-1.45-1.051-0.46-0.226-0.92-0.457-1.36-0.844 0.38 0.918 0.64 1.836 0.75 2.754 0.07 0.61 0.04 2.34-0.8 3.434 0.44-1.133 0.55-2.266 0.41-3.398-0.12-1.047-0.46-2.098-0.93-3.145zm-11.75 0.828c-0.57 0.86-1.02 1.758-1.27 2.688-0.25 0.961-0.3 1.965-0.05 3.043-0.74-1.161-0.49-2.547-0.34-3.125 0.22-0.829 0.58-1.625 1.05-2.387-0.24 0.144-0.48 0.312-0.73 0.473-1 0.636-1.38 0.695-1.6 1.828-0.22 1.121 0 2.234 0.22 3.312 0.18 0.879 0.38 1.731 0.28 2.653 0.47-0.426 0.98-0.793 1.48-1.149 1.7-1.219 3.25-2.328 2.14-5.613l-0.1-0.082c-0.21-0.168-0.42-0.422-0.63-0.746-0.15-0.246-0.3-0.547-0.45-0.895zm16.62 0c-0.16 0.348-0.3 0.649-0.46 0.899-0.2 0.32-0.42 0.574-0.62 0.742l-0.11 0.086c-1.11 3.277 0.44 4.394 2.15 5.609 0.49 0.356 1 0.719 1.47 1.149-0.1-0.922 0.11-1.774 0.29-2.653 0.22-1.078 0.43-2.191 0.22-3.312-0.23-1.133-0.59-1.192-1.59-1.828-0.25-0.161-0.51-0.329-0.75-0.473 0.47 0.762 0.84 1.558 1.05 2.383 0.16 0.582 0.41 1.972-0.34 3.129 0.26-1.078 0.21-2.082-0.05-3.043-0.24-0.93-0.69-1.825-1.27-2.688zm-23.14 3.465c0.37 1.367-1.12 3.121-1.6 3.684-1.04 1.179-2.45 2.355-4.3 3.531l-0.02 0.019h-0.01c-1.74 0.883-2.93 1.653-3.58 2.317-0.57 0.566-0.68 1.031-0.36 1.383-0.89-0.348-0.55-1.137 0.02-1.707 0.69-0.7 1.93-1.504 3.71-2.415 1.8-1.148 3.18-2.292 4.18-3.433 0.99-1.129 1.62-2.254 1.96-3.379zm29.65 0c0.33 1.125 0.96 2.25 1.95 3.379 1 1.144 2.38 2.285 4.18 3.433 1.78 0.911 3.03 1.715 3.72 2.415 0.56 0.57 0.9 1.359 0.01 1.711 0.32-0.356 0.21-0.821-0.35-1.387-0.66-0.664-1.85-1.43-3.58-2.317h-0.02l-0.02-0.015c-1.85-1.18-3.26-2.356-4.29-3.535-0.49-0.563-1.98-2.317-1.6-3.684zm-14.68 0.727v5.507l-0.4-5.355c-0.49 0.566-1.01 1.07-1.54 1.57-0.47 0.442-0.94 0.875-1.35 1.352h0.01c0.03 0.097 0.05 0.25 0.09 0.406 0.21 1.012 0.44 2.016 0.88 2.973v0.019c0.38 0.821 0.92 1.606 1.77 2.317h0.8c0.84-0.711 1.39-1.496 1.77-2.317v-0.019c0.44-0.957 0.66-1.961 0.88-2.973 0.03-0.156 0.06-0.309 0.09-0.406h0.01c-0.42-0.477-0.88-0.91-1.35-1.352-0.57-0.543-1.14-1.094-1.66-1.722zm-6.56 0.285c-0.01 0.097-0.02 0.195-0.05 0.289l0.17 0.015c-0.03-0.093-0.08-0.199-0.12-0.304zm12.83 0c-0.03 0.105-0.06 0.211-0.1 0.304l0.17-0.015c-0.02-0.094-0.05-0.192-0.07-0.289zm-12.9 0.304c-0.36 1.286-1.43 2.039-2.55 2.84 0.19 2.367 1.27 3.418 2.34 4.461 0.29 0.293 0.59 0.578 0.87 0.899h0.95c0.37-0.473 0.75-0.774 1.12-1.067 0.43-0.347 0.84-0.672 1.17-1.25-0.42-0.945-0.62-1.933-0.83-2.926-0.01-0.035-0.03-0.078-0.04-0.117-0.1 0.125-0.18 0.258-0.27 0.387l-0.24 0.324-0.11-0.375c-0.23-0.637-0.53-0.89-0.87-1.18-0.38-0.332-0.79-0.691-1.18-1.574-0.12 1.149-0.19 2.262-0.08 3.297 0.12 1.137 0.44 2.184 1.15 3.043-1.31-0.73-1.48-2.461-1.54-3.008-0.13-1.183-0.03-2.453 0.11-3.754zm12.97 0c0.15 1.301 0.24 2.571 0.12 3.754-0.06 0.547-0.16 2.34-1.54 3.008 0.7-0.859 1.03-1.906 1.15-3.043 0.11-1.035 0.04-2.148-0.09-3.297-0.39 0.883-0.8 1.242-1.18 1.574-0.33 0.29-0.64 0.543-0.86 1.18l-0.12 0.375-0.23-0.32c-0.09-0.133-0.17-0.266-0.27-0.391-0.01 0.039-0.02 0.082-0.03 0.117-0.22 0.993-0.42 1.981-0.83 2.926 0.32 0.578 0.73 0.903 1.16 1.25 0.37 0.293 0.75 0.594 1.12 1.067h0.95c0.28-0.321 0.58-0.606 0.88-0.899 1.07-1.043 2.14-2.094 2.33-4.461-1.12-0.801-2.18-1.554-2.55-2.84zm-17.71 1.977c-0.13 1.93-0.56 4.086-1.19 6.223h1.42c0.03-0.262 0.06-0.52 0.09-0.778-0.01 0.203 0 0.473 0 0.778h1.71c-0.14-0.262-0.27-0.516-0.41-0.762-0.51-0.926-1.02-1.816-1.13-3.211-0.06 0.055-0.1 0.109-0.16 0.168l-0.55 0.609 0.22-0.777c0.19-0.719 0.14-1.465 0-2.25zm22.48 0c-0.14 0.785-0.22 1.531-0.02 2.25l0.22 0.777c-0.23-0.261-0.49-0.535-0.71-0.777-0.11 1.395-0.62 2.285-1.13 3.211-0.14 0.246-0.28 0.5-0.41 0.762h1.71v-0.778c0.03 0.258 0.05 0.516 0.08 0.778h1.42c-0.62-2.137-1.04-4.293-1.16-6.223zm-20.66 1.133c-0.36 0.265-0.72 0.554-1.06 0.863l0.12-0.016c0.06 1.454 0.57 2.387 1.1 3.329 0.16 0.3 0.33 0.589 0.48 0.914h2c0.05-0.098 0.1-0.2 0.14-0.305-0.12-0.117-0.24-0.227-0.36-0.34-1.09-1.059-2.17-2.117-2.42-4.445zm18.82 0c-0.25 2.328-1.34 3.386-2.42 4.445-0.12 0.113-0.24 0.223-0.36 0.34 0.04 0.105 0.09 0.207 0.14 0.305h1.99c0.16-0.325 0.32-0.614 0.49-0.914 0.53-0.942 1.03-1.875 1.1-3.329l0.12 0.016c-0.34-0.309-0.7-0.598-1.06-0.863zm-21.27 0.879c-1.8 2.918-4.2 5.265-6.63 7.554 2.15-1.738 4.58-3.047 6.27-5.472zm23.7 0 0.35 2.078c1.69 2.429 4.13 3.738 6.27 5.476-2.43-2.289-4.82-4.636-6.62-7.554zm-14.17 2.453c-0.04 0.597-0.07 1.183-0.08 1.758h1.44c-0.6-0.555-1.03-1.145-1.36-1.758zm4.65 0c-0.33 0.613-0.75 1.203-1.35 1.758h1.44c-0.01-0.575-0.04-1.161-0.09-1.758zm-5.07 0.285c-0.24 0.258-0.49 0.465-0.76 0.676-0.28 0.23-0.57 0.469-0.86 0.797h1.57c0.01-0.485 0.02-0.977 0.05-1.473zm5.5 0c0.03 0.496 0.04 0.988 0.05 1.473h1.57c-0.29-0.328-0.58-0.567-0.86-0.797-0.27-0.211-0.53-0.418-0.76-0.676z"/>
   <path style="stroke:#000000;stroke-width:1.0168;fill:#dc261c" d="m166.95 59.848c-1.33-0.434-4.21-0.903-6.05 0.129-3.99 2.242-6.84-0.43-3.82-3.829-0.08 3.438 1.13 3.024 3.5 2.321 1.49-0.442 4.02-0.196 6.12 0.383 0.29 0.257 0.46 0.562 0.25 0.996z"/>
   <path style="fill:#fd2338" d="m166.95 59.848c-1.33-0.434-4.21-0.903-6.05 0.129-3.99 2.242-6.84-0.43-3.82-3.829-0.08 3.438 1.13 3.024 3.5 2.321 1.49-0.442 4.02-0.196 6.12 0.383 0.29 0.257 0.46 0.562 0.25 0.996z"/>
   <path style="fill:#fdd954" d="m166.5 61.547c-0.87-0.461-1.82-0.262-2.74-0.094-1.05 0.231-2.08 0.375-2.92-0.398l-0.02-0.028c1.03-0.023 1.79-0.179 2.72-0.449 1.36-0.39 2.46-0.164 3.75 0.344-0.21 0.23-0.48 0.441-0.79 0.625zm1.16-1.172c-0.03 0.059-0.06 0.113-0.09 0.172l-0.49-0.434c0.69-1.129 0.02-1.414-1.04-2.199-1.49-1.09-3.22-1.258-4.93-0.695-0.97-0.496-1.95-0.485-2.79 0.051-1.28-2.793 0.25-4.348 3.26-4.45 0.62 0.59 1.21 1.223 1.41 2.414v0.016 0.012c0.11 0.332 0.35 0.586 0.71 0.812 0.33 0.215 0.76 0.399 1.28 0.602 1.35 0.554 2.18 1.246 2.58 1.945 0.12 0.207 0.32 1.293 0.1 1.754z"/>
   <path style="stroke-linejoin:round;stroke:#000000;stroke-width:1.0576;stroke-linecap:round;fill:#ffffff" d="m214.47 46.703c-7.2 0-13.03 5.922-13.03 13.219s5.83 13.219 13.03 13.219c5.89 0 10.86-3.981 12.47-9.422-1.53 3.172-4.84 5.371-8.69 5.371-5.31 0-9.63-4.18-9.63-9.344 0-5.16 4.32-9.355 9.63-9.355 3.59 0 6.72 1.914 8.37 4.75-1.88-4.938-6.61-8.438-12.15-8.438z"/>
   <path style="fill:#f5f5f5" d="m214.47 46.703c-7.2 0-13.03 5.922-13.03 13.219s5.83 13.219 13.03 13.219c5.89 0 10.86-3.981 12.47-9.422-1.53 3.172-4.84 5.371-8.69 5.371-5.31 0-9.63-4.18-9.63-9.344 0-5.16 4.32-9.355 9.63-9.355 3.59 0 6.72 1.914 8.37 4.75-1.88-4.938-6.61-8.438-12.15-8.438z"/>
   <path style="fill:#fdd954" d="m116.15 53.992c0.08-1.91-1.57-3.41-4.29-4.133-1.43-0.582 0.35-4.734-1.11-6.398 3.15 1.789 2.39 4.012 3.22 4.719 1.6 1.359 3.29-0.653 5.57 4.117 0.57-0.891 0.86-2.465-0.09-3.414-1.98-1.977-0.41-3.961-0.31-5.867 0.33 1.886 0.37 4.195 2.09 4.922 2.23 0.941 1.12 2.792 1.62 4.195 2.13-0.41 1.46-2.375 1.81-4.317 0.38-2.031 1.85-1.918 2.95-1.168-0.43-0.25-1.69 2.114-0.97 2.258 1.28 0.258 0.13 3.426-0.08 3.391 2.6 0.223 2.09-2.25 3.4-4.086 2.02-2.82 4.11 0.07 5.97 0.484-1.77 0.887-3.71-0.875-4.12 0.696-0.3 1.132 0.59 2.461-0.46 3.523-1.08 1.09-1.36 1.516-1.32 2.207 0.95 0.082 2.09-0.43 2.9-1.41 1.18-1.426 2.37-1.438 3.29-1.969-0.93 1.539-0.68 2.731-1.13 3.668-0.91 1.863-2.59 2.473-4.25 2.535 4.39 0.379 3.5 2.746 5.12 1.739 1.79-1.118 3.54-1.246 4.37 1.164-1.37-1-2.81 0.066-3.52 0.843-1.16 1.289-1.79 0.719-3.47-0.277-0.77-0.449-1.66-0.187-2.42-0.082 2.26 1.746 1.09 3.383 3.31 3.648 1.66 0.278 3.33 0.832 4.52 2.325-2.25-0.457-4.96 0.574-7.04-0.16-1.33-0.473-1.05-1.868-1.92-2.422-0.46 1.25-0.96 2.785 0.73 3.632 1.62 0.813 2.95 1.231 2.34 3.114-0.46 1.429 0.55 1.922 1.29 2.371-0.85 0.207-1.67 0.234-2.35-0.485-1.15-1.23 0.61-2.648-3.75-3.429-0.91-0.16-1.81-1.266-1.81-2.461-1.06 1.762 1.96 4.191 1.45 6.094-0.35 1.304-0.87 3.285-1.05 3.914-0.16 0.562 0.11 1.187 0.65 1.855-1.12-0.187-2.65-2.062-2.34-3.047 1.03-3.332 0.2-3.129-0.29-3.644-2.27-2.364-1.75-2.914-1.97-3.797-1.24-0.219-0.14 2.176-0.39 3.59-0.39 2.199-1.45 3.019-2.4 3.086 0.12-1.293 0.6-1.907-0.4-4.012-0.61-1.297 0.46-2.356-0.45-3.231-1.2 0.688-1.71 1.918-2.41 3.067-1.31 1.441-2.52 0.004-5.25 1.695 0.38-0.617 0.53-0.976 0.75-1.793 0.32-1.215 2.91-0.855 3.03-2.082 0.37-2.902 1.57-2.183 1.47-4.195-1.02-0.563-1.59 0.773-2.26 1.371-0.44 0.391-2.66 0.41-3.72 1.133 0.34-1.516 1.54-2.242 1.72-2.77 0.22-0.64 0.53-1.91 1.35-2.074 0.36-0.07 1.09-0.871 1.09-0.871-1.16-0.09-1.93-1.77-3-1.055-1.96 1.313-3.47 1.145-5.39 0.34 2.35 0.211 2.88-2.609 4.31-2.855 1.5-0.106 4 0.347 4.32-1.024-1.73-1.164-3.8 0.25-4.64-1.637-0.66-1.488-1.24-2.179-2.02-1.855-0.92 0.383-3.92 0.273-5-0.887 4.34 0.27 4.75-3.078 7.57 0.805 0.76 1.051 3.22-0.867 5.18 0.406z"/>
   <path style="fill:#bd8a30" d="m131.78 50.363c-0.21 1.047-0.33 1.692-0.99 2.176-1.11 0.824-2.22 1.059-2.19 2.606 1.37 0.996 1.9 2.46 1.67 4.101-0.11 1.609-0.07 3.176-0.81 4.652l-0.81 1.274c-0.09 2.066 0.23 2.676 0.81 2.316 0.02-0.027 0.03-0.062 0.05-0.093-0.37-0.813-0.03-1.809 0.28-2.668 0.38 0.238 0.54 0.625 0.7 1.031 0.09-1.02-0.31-0.93-0.2-1.668 0.04-0.274 0.16-0.758 0.46-1.207 0.05-0.086 0.17-0.25 0.29-0.145 0.89 4.563 5.62 2.371 7.11 4.481 0.2 0.019 0.41 0.039 0.6 0.082-1.18-1.496-2.86-2.043-4.52-2.321-2.22-0.265-1.05-1.894-3.31-3.64 0.56-0.078 1.2-0.242 1.8-0.141-0.42-1.051-1.08-0.472-1.26-2.289-0.07-0.699 1.06-0.297 1.81-0.398-0.56-0.258-1.33-0.477-2.43-0.571 1.66-0.058 3.34-0.66 4.25-2.527 0.42-0.875 0.23-1.992 0.98-3.398-0.07 0.015-0.15 0.05-0.24 0.109-1.4 2.023-1.93 5.016-4.7 5.023-0.44 0-0.36-0.988-0.81-1.796l0.22-0.239c-0.17 0.02-0.34 0.016-0.51 0-0.04-0.691 0.24-1.117 1.32-2.207 0.76-0.765 0.52-1.672 0.43-2.543zm-4.96 5.449c-0.14-0.003-0.27 0-0.43 0.016-0.52 0.211-1.06 0.434-1.59 0.969-0.26 0.476-0.23 0.953-0.28 1.43 0.03 1.398 0.1 3.023-0.14 4.324-0.07 0.242-0.1 0.672-1.1 0.73-1.58 0.008-1.47-0.5-1.59-0.937-0.77 0.383-1.65 0.984-2 1.793 0.04 0.586 0.42 1.011 0.97 1.082l0.52 0.285c-0.32 0.226 0.11 0.812 0.5 1.098l2.09 0.269c0.87-0.273 0.52-0.183 1.14-0.351 0.3-0.075 0.34-1.383 1.72-0.461-0.09-0.489-0.33-0.676-0.65-1.207 0.46-0.09 1.09-0.059 1.14-0.555 0.03-0.82-0.44-1.676-0.93-2.02-0.16-0.644-0.03-1.293 0.09-1.937 0.58-0.399 0.42-0.883 1.72-1.047 0.42-0.055 0.69-0.563 1.08-0.984 0.4-0.418 0.4-0.789 0.49-1.161l-0.28-0.382c-0.34-0.305-0.69-0.598-1.26-0.715-0.39-0.125-0.78-0.227-1.21-0.239zm-7.59 0.254-1.37 0.524l-0.76 0.637c-0.12 0.585 0.17 0.918 0.48 1.238l0.46-0.031c0 0.101 0.03 0.218 0.08 0.336-0.03 0.3-0.07 0.621 0.03 0.746 0.94 1.472 4.15 0.605 4.27-1.137-0.23-0.274-0.34-0.238-0.33-0.293 0 0-0.05-0.973-0.08-1.051-0.03-0.074-1.03-0.906-1.03-0.906zm7.01 11.407c0.02 0.367 0.07 0.718 0.16 1.066v0.031c0.35 0.575 0.96 1.391 1.5 1.489 4.35 0.781 2.74 2.25 3.89 3.484 0.53 0.562 1.55 0.75 2.36 0.297-0.79 0.012-1.74-0.524-2.04-0.965-0.43-0.637-0.45-1.824-0.76-2.574-0.53-1.281-4.66-0.254-5.11-2.828z"/>
   <path style="fill:#000000" d="m126.76 55.594c-0.73 0-1.4 0.258-1.96 0.902-0.34 0.324-0.36 0.504-0.41 0.988-0.07 0.352-0.29 0.668-0.27 0.825 0.14 1.109 0.36 2.882 0.27 4.257 0.9-0.16 1.02 0.614 0.25 0.844-0.28 0.086-0.63-0.121-0.71 0.031-0.31 0.567-0.97 0.684-1.29 0.016-0.42-0.008-0.23 0.023-0.62 0-0.64-0.059-0.75-0.539-0.36-0.746 0.1-0.133 0.18-0.277 0.01-0.414-1.14 0.476-1.78 1.047-2.05 1.957 0.68-0.293 0.66-1.305 1.53-1.242 0.05 0.375 0.16 0.711 0.71 0.765 0.43-0.019 0.53-0.011 0.73 0.11 0.24 0.324 0.41 0.472 0.73 0.476 0.49 0.008 0.48-0.328 0.91-0.586 0.19-0.117 0.39-0.136 0.57-0.175 0.52-0.114 0.57-0.559 0.75-0.622 0.81-0.281 0.97 1.293 1.56 1.305-0.32-1.234-1.34-1.637-2.02-2.273-0.14-0.344-0.19-1.692-0.08-2.035 0.11-0.481 0.42-0.633 0.87-0.571-0.13-0.015-0.28-0.07-0.44-0.16-0.01 0-0.01-0.012-0.02-0.016-0.35-0.265-0.82-0.617-0.58-1.085 0.38-0.766 3.04-0.786 3.29 0.238 0.07 0.297 0.19 0.746-0.82 1.039 1.05-0.012 1.35-0.649 1.46-0.875 0.03-0.055 0.46-0.016 0.42-0.156-0.18-0.676-1.02-1.477-2.34-1.559-0.59 0.004-1.17-0.012-1.97 0.477-0.12-0.727 1.17-1.172 1.86-1.176 1.15 0.012 2.53 0.543 2.96 1.129-0.65-1.274-1.77-1.563-2.94-1.668zm-6.79 0.078c-1.24 0.074-2.69 0.758-2.93 1.668 0.43-0.594 1.84-1.129 2.99-1.129 1.07 0.016 2.04 0.676 1.82 1.18-0.8-0.493-1.38-0.473-1.97-0.477-1.32 0.082-2.16 0.879-2.34 1.555-0.04 0.14 0.39 0.101 0.41 0.16 0.12 0.223 0.42 0.863 1.47 0.871-1.01-0.293-0.9-0.77-0.91-1.074-0.02-0.942 2.74-1.207 3.38-0.238 0.3 0.441-0.24 0.874-0.6 1.14 0.69-0.238 1.16-0.64 1.16-1.098 0-0.179-0.2-0.425-0.19-0.792 0.02-0.575-0.19-0.696-0.33-0.86-0.55-0.648-1.23-0.949-1.96-0.906zm6.56 2.129c-0.36 0-0.67 0.277-0.67 0.605s0.31 0.586 0.67 0.586 0.65-0.258 0.65-0.586-0.29-0.605-0.65-0.605zm-6.37 0.082c-0.36 0-0.65 0.273-0.65 0.601s0.29 0.59 0.65 0.59 0.67-0.262 0.67-0.59-0.31-0.601-0.67-0.601zm0.77 6.797c-0.75 0.039-0.88 0.984-1.05 1.48 0.1-0.035 0.22-0.043 0.3-0.129 0.08-0.269 0.26-0.515 0.41-0.617 0.13-0.094 0.38 0.004 0.62 0.125 1.05 0.523 3.08 0.465 4.11-0.016 0.46-0.211 0.6-0.25 0.74-0.144 0.18 0.148 0.26 0.687 0.68 0.844-0.18-0.684-0.18-1.371-0.89-1.524 0.19 0.66-0.59 0.735-1 0.68-0.43-0.055-0.81-0.156-1.24 0.035-0.13 0.055-0.23 0.094-0.38 0.016-0.53-0.289-0.91-0.012-1.38 0-0.47 0.008-1 0.039-0.99-0.399zm4 1.843c-1.06 0.176-2.15 0.239-3.32 0.032 0 0 1.02 0.777 1.62 0.781 0.63 0 1.7-0.813 1.7-0.813z"/>
   <path style="fill:#000000" d="m119.2 40.359c-0.2 1.766-0.95 3.957-1.2 5.485-0.18 1.07 0.03 2.265 1.07 3.422 0.5 0.554 0.54 1.113 0.35 1.734-0.97-1.609-1.9-2.348-2.78-2.547-0.84-0.187-2.31-0.109-2.48-0.824-0.52-2.266-1.43-4.254-4.49-5.067 1.17 1.348 1.21 3.071 1.12 4.469-0.09 1.352-0.32 2.778 0.91 3.324 1.65 0.731 3.12 1.114 3.77 2.774-0.88-0.219-1.76-0.09-2.47 0.051-0.48 0.097-0.9 0.187-1.18 0.199-0.29 0.008-0.35-0.008-0.42-0.102-0.73-1.004-1.33-1.597-1.97-1.898-0.63-0.301-1.27-0.227-1.83-0.051-2.31 0.828-3.34 1.309-5.49 0.844 0.96 1.277 2.4 1.969 3.79 2.148 1.06 0.133 2.05 0.114 2.71-0.164 0.22-0.094 0.25-0.094 0.48 0.129 0.23 0.227 0.52 0.735 0.84 1.457 0.25 0.567 0.66 0.957 1.11 1.156 0.45 0.2 0.91 0.235 1.35 0.247 0.67 0.023 1.27 0.054 1.84 0.25-0.28 0.156-0.66 0.187-0.93 0.23-0.91 0.078-1.82-0.066-2.62 0.035-0.53 0.063-0.93 0.426-1.26 0.727-0.33 0.332-0.6 0.726-0.89 1.054-1.27 1.411-2.57 1.211-4.15 1.004 1.43 0.934 3.2 1.77 4.74 1.743 0.97-0.02 1.93-0.376 2.99-1.043 0.35-0.215 0.59 0.031 0.86 0.214 0.25 0.168 0.54 0.399 0.88 0.594-0.06 0.07-0.13 0.129-0.22 0.152-0.65 0.157-1.03 0.657-1.27 1.137-0.24 0.485-0.38 0.985-0.48 1.274 0 0-0.32 0.39-0.71 0.859s-0.83 1.113-1.03 1.984l-0.27 1.305 1.09-0.762c0.38-0.265 1.17-0.468 1.9-0.609 0.36-0.07 0.71-0.125 1.02-0.199s0.57-0.121 0.84-0.364c0.43-0.378 0.74-0.867 1.03-1.14 0.13-0.129 0.25-0.188 0.33-0.215-0.03 0.469-0.15 0.676-0.42 1.023-0.34 0.45-0.84 1.164-1.02 2.696-0.02 0.183-0.13 0.238-0.21 0.281-0.63 0.34-1.34 0.477-1.95 0.727-0.37 0.195-0.72 0.511-0.85 0.992-0.21 0.797-0.41 1.035-0.69 1.668-0.23 0.519-0.27 0.98-0.39 1.465 0.37-0.25 0.7-0.504 1.12-0.735 1.31-0.738 2.09-0.875 2.89-0.879 0.98-0.008 1.93-0.265 2.49-0.957 0.68-0.832 1.16-1.894 1.86-2.511 0 0.136-0.01 0.293-0.04 0.511-0.07 0.516-0.23 1.258 0.15 2.067 0.95 2.011 0.52 2.343 0.36 3.75l-0.06 0.609 0.63-0.031c1.22-0.067 2.45-1.196 2.87-3.535 0.08-0.442 0.07-0.887 0.02-1.325 0.3 0.497 0.67 1.098 1.43 1.821 0.2 0.183 0.5 0.383 0.6 0.558 0.11 0.2 0.08 0.934-0.43 2.563-0.25 0.82 0.19 1.609 0.73 2.297 0.54 0.687 1.23 1.285 2.03 1.422l1.37 0.23-0.87-1.09c-0.49-0.609-0.64-1.054-0.55-1.371 0.18-0.648 0.78-2.613 1.06-3.933 0.28-1.321-0.41-2.657-1.01-3.555 0.24 0.14 0.49 0.265 0.76 0.316 1.06 0.188 1.72 0.41 2.1 0.629 0.6 0.336 0.67 0.895 0.78 1.438 0.07 0.359 0.19 0.824 0.57 1.203 0.84 0.832 1.85 0.871 2.86 0.629l1.24-0.297-1.09-0.66c-0.39-0.239-0.76-0.453-0.96-0.696-0.19-0.242-0.28-0.465-0.1-1.058 0.35-1.059 0.1-1.957-0.47-2.512-0.58-0.551-1.36-0.813-2.14-1.238-0.87-0.481-0.95-1.098-0.72-1.836 0.43 0.707 0.88 1.363 1.5 1.59 1.18 0.425 2.45 0.324 3.68 0.214 1.24-0.113 2.42-0.238 3.43-0.035l1.42 0.297-0.9-1.137c-1.29-1.636-3.12-2.277-4.84-2.531-0.7-0.101-1.01-0.426-1.24-0.941-0.19-0.446-0.54-1.106-1.1-1.785 0.41-0.039 0.78-0.032 1.09 0.148 0.82 0.492 1.4 0.938 2.09 1.059 0.9 0.156 1.51-0.352 2.05-0.875 0.32-0.344 0.81-0.766 1.31-0.961 0.5-0.192 0.96-0.211 1.5 0.183l1.36 0.993-0.55-1.586c-0.45-1.317-1.28-2.102-2.24-2.266-0.97-0.164-1.96 0.211-2.91 0.809-0.48 0.3-0.56 0.023-0.88-0.278-0.33-0.316-0.91-0.676-1.7-0.992 0.99-0.426 1.89-1.129 2.46-2.316 0.56-1.164 0.35-2.25 1.11-3.633 0.27-0.492 0.46-1.047 0.74-1.57-0.46 0.285-0.82 0.542-1.45 0.839-0.78 0.371-2.15 0.539-3.44 2.102-0.52 0.637-1.18 0.949-1.8 1.09 0.17-0.457 0.7-0.875 1.01-1.192 0.66-0.66 0.72-1.488 0.66-2.148s-0.21-1.223-0.07-1.602c0.16-0.441 0.57-0.273 0.95-0.215 0.73 0.114 1.75 0.266 2.89-0.148 0.51-0.187 0.89-0.437 1.34-0.66-0.49-0.106-0.94-0.121-1.46-0.332-0.68-0.277-1.7-0.949-2.83-1.422-0.55-0.234-1.19-0.383-1.85-0.23-0.65 0.152-1.27 0.613-1.83 1.386-0.74 1.039-0.96 2.176-1.27 2.91-0.21 0.489-0.4 0.653-0.81 0.809 0.09-0.258 0.17-0.504 0.23-0.809 0.09-0.449 0.12-0.921 0.03-1.371-0.08-0.383-0.44-0.633-0.76-0.941-0.36-0.348 0.66-1.852 1.82-1.656-0.86-0.715-2.05-1.383-3.02-1.172-0.77 0.183-1.4 0.91-1.61 2.051-0.19 1.058-0.12 2.05-0.25 2.726-0.06 0.336-0.15 0.586-0.31 0.762-0.05 0.055-0.19 0.082-0.26 0.129-0.04-0.461-0.05-0.922-0.1-1.535-0.07-0.86-0.53-1.832-1.79-2.364-0.68-0.285-0.96-0.871-1.25-1.687-0.63-1.746-0.51-3.52-0.98-5.399zm-0.06 2.657c0.33 1.886 0.37 4.199 2.09 4.925 2.23 0.938 1.13 2.793 1.63 4.2 2.12-0.414 1.46-2.391 1.81-4.332 0.37-2.032 1.84-1.903 2.94-1.157-0.64 0.004-1.75 1.942-0.97 2.246 1.22 0.477 0.12 3.426-0.09 3.391 2.61 0.223 2.09-2.246 3.41-4.082 2.02-2.82 4.11 0.082 5.97 0.496-1.78 0.887-3.7-0.875-4.12 0.692-0.3 1.132 0.59 2.46-0.46 3.519-1.08 1.09-1.36 1.508-1.32 2.199 0.95 0.082 2.09-0.422 2.9-1.406 1.18-1.426 2.38-1.43 3.29-1.965-0.93 1.539-0.68 2.735-1.14 3.668-0.9 1.867-2.58 2.469-4.24 2.528 4.39 0.378 3.5 2.761 5.12 1.753 1.79-1.117 3.55-1.25 4.38 1.157-1.37-1-2.82 0.062-3.52 0.843-1.16 1.286-1.8 0.715-3.49-0.281-0.76-0.453-1.65-0.191-2.41-0.082 2.26 1.742 1.09 3.34 3.3 3.652 1.67 0.231 3.35 0.836 4.53 2.329-2.24-0.457-4.96 0.574-7.04-0.164-1.33-0.473-1.04-1.875-1.92-2.43-0.46 1.25-0.95 2.789 0.73 3.637 1.62 0.812 2.96 1.238 2.35 3.121-0.46 1.429 0.53 1.914 1.27 2.363-0.84 0.207-1.66 0.238-2.33-0.477-1.15-1.234 0.6-2.656-3.75-3.437-0.92-0.164-1.81-1.254-1.82-2.449-1.06 1.761 1.97 4.179 1.46 6.082-0.35 1.304-0.89 3.285-1.06 3.918-0.16 0.562 0.1 1.183 0.64 1.851-1.11-0.187-2.63-2.058-2.33-3.043 1.04-3.332 0.2-3.136-0.29-3.652-2.27-2.359-1.75-2.895-1.97-3.781-1.24-0.215-0.13 2.172-0.38 3.586-0.4 2.199-1.47 3.019-2.42 3.089 0.12-1.293 0.61-1.91-0.39-4.015-0.61-1.297 0.46-2.367-0.45-3.238-1.21 0.687-1.59 2.007-2.41 3.07-1.19 1.539-2.53-0.004-5.25 1.687 0.38-0.617 0.52-0.968 0.74-1.785 0.33-1.215 2.9-0.859 3.04-2.082 0.34-2.906 1.58-2.187 1.47-4.199-1.01-0.563-1.59 0.773-2.26 1.375-0.44 0.391-2.67 0.414-3.72 1.141 0.33-1.516 1.53-2.25 1.72-2.778 0.22-0.64 0.53-1.906 1.35-2.066 0.36-0.071 1.09-0.875 1.09-0.875-1.15-0.086-1.94-1.774-3-1.059-1.97 1.313-3.47 1.153-5.39 0.348 2.35 0.211 2.86-2.688 4.31-2.859 1.49-0.176 3.99 0.351 4.31-1.024-1.73-1.164-3.78 0.246-4.62-1.637-0.66-1.492-1.25-2.191-2.02-1.867-0.92 0.383-3.93 0.285-5.01-0.875 4.34 0.27 4.76-3.09 7.57 0.793 0.76 1.051 3.22-0.859 5.17 0.414 0.09-1.91-1.6-3.289-4.28-4.133-1.47-0.464 0.35-4.726-1.12-6.394 3.16 1.789 2.41 4 3.24 4.707 1.59 1.359 3.27-0.652 5.55 4.117 0.58-0.891 0.87-2.453-0.08-3.406-1.98-1.977-0.41-3.957-0.31-5.867z"/>
   <path style="stroke:#000000;stroke-width:1.5864;stroke-linecap:square;fill:#fdd954" d="m100.82 102.42v20.04c0 36.42 29.23 65.92 65.3 65.92 36.08 0 65.31-29.5 65.31-65.92v-20.04z"/>
   <path style="stroke:#000000;stroke-width:.52881;fill:#fd2338" d="m100.82 92.113h130.61v26.227h-130.61z"/>
   <path style="stroke:#000000;stroke-width:1.5864;fill:none" d="m100.82 36.617v85.843c0 36.41 29.23 65.92 65.3 65.92 36.08 0 65.31-29.51 65.31-65.92v-85.843z"/>
   <path style="stroke:#7f0700;stroke-width:.52882;fill:#fd2338" d="m143.57 137.29h18.12v6.87h-18.12z"/>
   <path style="stroke:#7f0700;stroke-width:.52882;fill:#fd2338" d="m144.55 121.35v5.94h16.16v-5.94h-3.08v2.35h-2.46v-2.35h-5.08v2.35h-2.46v-2.35z"/>
   <path style="stroke:#7f0700;stroke-width:.52882;fill:#fd2338" d="m147.79 127.3-1.13 9.97h11.93l-1.12-9.97z"/>
   <path style="fill:#7f0700" d="m149.62 129.28v4.02h1.45v-4.02zm4.58 0v4.02h1.44v-4.02z"/>
   <path style="stroke:#7f0700;stroke-width:.52882;fill:#000000" d="m152.63 138.42c-1.86 0-3.36 1.7-3.36 3.79v1.95h6.72v-1.95c0-2.09-1.51-3.79-3.36-3.79z"/>
   <path style="fill:#7f0700" d="m157.62 123.7h-2.31l-0.01 3.59h2.53z"/>
   <path style="fill:#7f0700" d="m156.11 127.31-0.07 9.96h1.77l-0.92-9.96z"/>
   <path style="fill:#7f0700" d="m157.21 137.29 0.24 6.87h2.8l-0.32-6.87z"/>
   <path style="stroke:#7f0700;stroke-width:.52882;fill:#fd2338" d="m197.55 137.29h18.12v6.87h-18.12z"/>
   <path style="stroke:#7f0700;stroke-width:.52882;fill:#fd2338" d="m198.53 121.35v5.94h16.17v-5.94h-3.09v2.35h-2.46v-2.35h-5.07v2.35h-2.46v-2.35z"/>
   <path style="stroke:#7f0700;stroke-width:.52882;fill:#fd2338" d="m201.77 127.3-1.12 9.97h11.92l-1.12-9.97z"/>
   <path style="fill:#7f0700" d="m203.61 129.28v4.02h1.44v-4.02zm4.57 0v4.02h1.44v-4.02z"/>
   <path style="stroke:#7f0700;stroke-width:.52882;fill:#000000" d="m206.61 138.42c-1.86 0-3.36 1.7-3.36 3.79v1.95h6.72v-1.95c0-2.09-1.51-3.79-3.36-3.79z"/>
   <path style="fill:#7f0700" d="m211.6 123.7h-2.31v3.59h2.52z"/>
   <path style="fill:#7f0700" d="m210.09 127.31-0.07 9.96h1.78l-0.93-9.96z"/>
   <path style="fill:#7f0700" d="m211.2 137.29 0.24 6.87h2.79l-0.31-6.87z"/>
   <path style="stroke:#7f0700;stroke-width:.52882;fill:#fd2338" d="m170.56 137.29h18.12v6.87h-18.12z"/>
   <path style="stroke:#7f0700;stroke-width:.52882;fill:#fd2338" d="m171.54 121.35v5.94h16.17v-5.94h-3.09v2.35h-2.46v-2.35h-5.08v2.35h-2.46v-2.35z"/>
   <path style="stroke:#7f0700;stroke-width:.52882;fill:#fd2338" d="m174.78 127.3-1.12 9.97h11.93l-1.13-9.97z"/>
   <path style="fill:#7f0700" d="m176.61 129.28v4.02h1.45v-4.02zm4.57 0v4.02h1.45v-4.02z"/>
   <path style="stroke:#7f0700;stroke-width:.52882;fill:#000000" d="m179.62 138.42c-1.85 0-3.36 1.7-3.36 3.79v1.95h6.72v-1.95c0-2.09-1.5-3.79-3.36-3.79z"/>
   <path style="fill:#7f0700" d="m184.61 123.7h-2.31v3.59h2.52z"/>
   <path style="fill:#7f0700" d="m183.1 127.31-0.07 9.96h1.77l-0.92-9.96z"/>
   <path style="fill:#7f0700" d="m184.2 137.29 0.24 6.87h2.8l-0.32-6.87z"/>
   <path style="stroke:#7f0700;stroke-width:.52882;fill:#fd2338" d="m116.58 137.29h18.12v6.87h-18.12z"/>
   <path style="stroke:#7f0700;stroke-width:.52882;fill:#fd2338" d="m117.55 121.35v5.94h16.17v-5.94h-3.08v2.35h-2.46v-2.35h-5.08v2.35h-2.46v-2.35z"/>
   <path style="stroke:#7f0700;stroke-width:.52882;fill:#fd2338" d="m120.8 127.3-1.12 9.98h11.93l-1.13-9.98h-9.68z"/>
   <path style="fill:#7f0700" d="m122.63 129.28v4.02h1.45v-4.02zm4.57 0v4.02h1.45v-4.02z"/>
   <path style="stroke:#7f0700;stroke-width:.52882;fill:#000000" d="m125.64 138.42c-1.85 0-3.36 1.7-3.36 3.79v1.95h6.72v-1.95c0-2.09-1.5-3.79-3.36-3.79z"/>
   <path style="fill:#7f0700" d="m130.63 123.7h-2.31v3.59h2.52z"/>
   <path style="fill:#7f0700" d="m129.12 127.31-0.07 9.96h1.77l-0.92-9.96z"/>
   <path style="fill:#7f0700" d="m130.23 137.29 0.23 6.87h2.8l-0.31-6.87z"/>
   <path style="stroke:#7f0700;stroke-width:.52882;fill:#fd2338" d="m130.75 165.79h18.12v6.87h-18.12z"/>
   <path style="stroke:#7f0700;stroke-width:.52882;fill:#fd2338" d="m131.72 149.86v5.93h16.17v-5.93h-3.09v2.34h-2.46v-2.34h-5.07v2.34h-2.47v-2.34z"/>
   <path style="stroke:#7f0700;stroke-width:.52882;fill:#fd2338" d="m134.96 155.8-1.12 9.97h11.93l-1.12-9.97z"/>
   <path style="fill:#7f0700" d="m136.8 157.79v4.01h1.44v-4.01zm4.57 0v4.01h1.44v-4.01z"/>
   <path style="stroke:#7f0700;stroke-width:.52882;fill:#000000" d="m139.8 166.92c-1.85 0-3.35 1.7-3.35 3.79v1.95h6.71v-1.95c0-2.09-1.5-3.79-3.36-3.79z"/>
   <path style="fill:#7f0700" d="m144.8 152.2h-2.32v3.59h2.52z"/>
   <path style="fill:#7f0700" d="m143.29 155.81-0.08 9.96h1.78l-0.93-9.96z"/>
   <path style="fill:#7f0700" d="m144.39 165.79 0.24 6.87h2.8l-0.32-6.87z"/>
   <path style="stroke:#7f0700;stroke-width:.52882;fill:#fd2338" d="m157.74 165.79h18.12v6.87h-18.12z"/>
   <path style="stroke:#7f0700;stroke-width:.52882;fill:#fd2338" d="m158.71 149.86v5.93h16.17v-5.93h-3.08v2.34h-2.46v-2.34h-5.08v2.34h-2.46v-2.34z"/>
   <path style="stroke:#7f0700;stroke-width:.52882;fill:#fd2338" d="m161.96 155.8-1.12 9.97h11.92l-1.12-9.97z"/>
   <path style="fill:#7f0700" d="m163.79 157.79v4.01h1.44v-4.01zm4.57 0v4.01h1.44v-4.01z"/>
   <path style="stroke:#7f0700;stroke-width:.52882;fill:#000000" d="m166.8 166.92c-1.86 0-3.36 1.7-3.36 3.79v1.95h6.72v-1.95c0-2.09-1.51-3.79-3.36-3.79z"/>
   <path style="fill:#7f0700" d="m171.79 152.2h-2.31v3.59h2.52z"/>
   <path style="fill:#7f0700" d="m170.27 155.81-0.07 9.96h1.78l-0.93-9.96z"/>
   <path style="fill:#7f0700" d="m171.38 165.79 0.24 6.87h2.8l-0.32-6.87z"/>
   <path style="stroke:#7f0700;stroke-width:.52882;fill:#fd2338" d="m184.72 165.79h18.13v6.87h-18.13z"/>
   <path style="stroke:#7f0700;stroke-width:.52882;fill:#fd2338" d="m185.7 149.86v5.93h16.17v-5.93h-3.08v2.34h-2.47v-2.34h-5.07v2.34h-2.46v-2.34z"/>
   <path style="stroke:#7f0700;stroke-width:.52882;fill:#fd2338" d="m188.94 155.8-1.12 9.97h11.93l-1.12-9.97z"/>
   <path style="fill:#7f0700" d="m190.78 157.79v4.01h1.45v-4.01zm4.57 0v4.01h1.45v-4.01z"/>
   <path style="stroke:#7f0700;stroke-width:.52882;fill:#000000" d="m193.79 166.92c-1.86 0-3.36 1.7-3.36 3.79v1.95h6.71v-1.95c0-2.09-1.5-3.79-3.35-3.79z"/>
   <path style="fill:#7f0700" d="m198.78 152.2h-2.32v3.59h2.53z"/>
   <path style="fill:#7f0700" d="m197.27 155.81-0.07 9.96h1.77l-0.92-9.96z"/>
   <path style="fill:#7f0700" d="m198.38 165.79 0.23 6.87h2.8l-0.32-6.87z"/>
  </g>
 </g>
</svg>
